%
M48
M72
T01C0.0200
T02C0.0276
T03C0.0400
T04C0.0440
T05C0.0591
%
T01
X4625Y4528
X5775Y5878
X6375Y7178
X7325Y5528
X7275Y5028
X7375Y3828
X8925Y4078
X8075Y2338
X9325Y1328
X11318Y4528
X12468Y5878
X13068Y7178
X14018Y5528
X13968Y5028
X14068Y3828
X15618Y4078
X14768Y2338
X16018Y1328
X18010Y4528
X19160Y5878
X19760Y7178
X20710Y5528
X20660Y5028
X20760Y3828
X22310Y4078
X21460Y2338
X22710Y1328
X24703Y4528
X25853Y5878
X26453Y7178
X27403Y5528
X27353Y5028
X27453Y3828
X29003Y4078
X28153Y2338
X29403Y1328
X29003Y6278
X29403Y11653
X28153Y12663
X27453Y14153
X27353Y15353
X27403Y15853
X25853Y16203
X26453Y17503
X29003Y16603
X29003Y14403
X24703Y14853
X22310Y14403
X20760Y14153
X20660Y15353
X20710Y15853
X19160Y16203
X19760Y17503
X22310Y16603
X21460Y12663
X22710Y11653
X18010Y14853
X15618Y14403
X14068Y14153
X13968Y15353
X14018Y15853
X12468Y16203
X13068Y17503
X15618Y16603
X14768Y12663
X16018Y11653
X11318Y14853
X8925Y14403
X7375Y14153
X7275Y15353
X7325Y15853
X5775Y16203
X6375Y17503
X8925Y16603
X8075Y12663
X9325Y11653
X4625Y14853
X9325Y21979
X8075Y22989
X7375Y24479
X7275Y25679
X7325Y26179
X5775Y26529
X6375Y27829
X8925Y26929
X8925Y24729
X11318Y25179
X12468Y26529
X13068Y27829
X14018Y26179
X13968Y25679
X14068Y24479
X14768Y22989
X16018Y21979
X15618Y24729
X15618Y26929
X18010Y25179
X19160Y26529
X19760Y27829
X20710Y26179
X20660Y25679
X20760Y24479
X21460Y22989
X22710Y21979
X22310Y24729
X22310Y26929
X24703Y25179
X25853Y26529
X26453Y27829
X27403Y26179
X27353Y25679
X27453Y24479
X29003Y24729
X28153Y22989
X29403Y21979
X29003Y26929
X22310Y6278
X15618Y6278
X8925Y6278
X4625Y25179
T02
X5520Y22981
X7429Y22981
X12213Y22981
X14122Y22981
X18906Y22981
X20815Y22981
X25599Y22981
X27508Y22981
X27508Y12656
X25599Y12656
X20815Y12656
X18906Y12656
X14122Y12656
X12213Y12656
X7429Y12656
X5520Y12656
X5520Y2330
X7429Y2330
X12213Y2330
X14122Y2330
X18906Y2330
X20815Y2330
X25599Y2330
X27508Y2330
T03
X3845Y1154
X3845Y2154
X3845Y3154
X3845Y4154
X10538Y4154
X10538Y3154
X10538Y2154
X10538Y1154
X17231Y1154
X17231Y2154
X17231Y3154
X17231Y4154
X23924Y4154
X23924Y3154
X23924Y2154
X23924Y1154
X23924Y11479
X23924Y12479
X23924Y13479
X23924Y14479
X17231Y14479
X17231Y13479
X17231Y12479
X17231Y11479
X10538Y11479
X10538Y12479
X10538Y13479
X10538Y14479
X3845Y14479
X3845Y13479
X3845Y12479
X3845Y11479
X3845Y21805
X3845Y22805
X3845Y23805
X3845Y24805
X10538Y24805
X10538Y23805
X10538Y22805
X10538Y21805
X17231Y21805
X17231Y22805
X17231Y23805
X17231Y24805
X23924Y24805
X23924Y23805
X23924Y22805
X23924Y21805
T04
X24055Y19233
X25055Y19233
X26055Y19233
X27055Y19233
X28055Y19233
X29055Y19233
X22362Y19233
X21362Y19233
X20362Y19233
X19362Y19233
X18362Y19233
X17362Y19233
X15669Y19233
X14669Y19233
X13669Y19233
X12669Y19233
X11669Y19233
X10669Y19233
X8977Y19233
X7977Y19233
X6977Y19233
X5977Y19233
X4977Y19233
X3977Y19233
X3977Y29559
X4977Y29559
X5977Y29559
X6977Y29559
X7977Y29559
X8977Y29559
X10669Y29559
X11669Y29559
X12669Y29559
X13669Y29559
X14669Y29559
X15669Y29559
X17362Y29559
X18362Y29559
X19362Y29559
X20362Y29559
X21362Y29559
X22362Y29559
X24055Y29559
X25055Y29559
X26055Y29559
X27055Y29559
X28055Y29559
X29055Y29559
X29055Y8908
X28055Y8908
X27055Y8908
X26055Y8908
X25055Y8908
X24055Y8908
X22362Y8908
X21362Y8908
X20362Y8908
X19362Y8908
X18362Y8908
X17362Y8908
X15669Y8908
X14669Y8908
X13669Y8908
X12669Y8908
X11669Y8908
X10669Y8908
X8977Y8908
X7977Y8908
X6977Y8908
X5977Y8908
X4977Y8908
X3977Y8908
T05
X5053Y11553
X7896Y11553
X11746Y11553
X14589Y11553
X18439Y11553
X21282Y11553
X25132Y11553
X27975Y11553
X27975Y21879
X25132Y21879
X21282Y21879
X18439Y21879
X14589Y21879
X11746Y21879
X7896Y21879
X5053Y21879
X5053Y1228
X7896Y1228
X11746Y1228
X14589Y1228
X18439Y1228
X21282Y1228
X25132Y1228
X27975Y1228
M30
