G75*
%MOIN*%
%OFA0B0*%
%FSLAX24Y24*%
%IPPOS*%
%LPD*%
%AMOC8*
5,1,8,0,0,1.08239X$1,22.5*
%
%ADD10C,0.0050*%
%ADD11C,0.0040*%
%ADD12C,0.0060*%
%ADD13C,0.0100*%
%ADD14C,0.0080*%
%ADD15C,0.0220*%
%ADD16R,0.0300X0.0180*%
D10*
X004291Y001274D02*
X004249Y001316D01*
X004249Y001399D01*
X004291Y001441D01*
X004333Y001441D01*
X004375Y001399D01*
X004416Y001441D01*
X004458Y001441D01*
X004500Y001399D01*
X004500Y001316D01*
X004458Y001274D01*
X004375Y001357D02*
X004375Y001399D01*
X004416Y001550D02*
X004500Y001633D01*
X004416Y001717D01*
X004249Y001717D01*
X004291Y001826D02*
X004249Y001868D01*
X004249Y001951D01*
X004291Y001993D01*
X004333Y001993D01*
X004375Y001951D01*
X004416Y001993D01*
X004458Y001993D01*
X004500Y001951D01*
X004500Y001868D01*
X004458Y001826D01*
X004375Y001910D02*
X004375Y001951D01*
X004416Y001550D02*
X004249Y001550D01*
X004299Y003400D02*
X004425Y003400D01*
X004383Y003483D01*
X004383Y003525D01*
X004425Y003567D01*
X004508Y003567D01*
X004550Y003525D01*
X004550Y003442D01*
X004508Y003400D01*
X004299Y003400D02*
X004299Y003567D01*
X004299Y003676D02*
X004466Y003676D01*
X004550Y003760D01*
X004466Y003843D01*
X004299Y003843D01*
X004289Y004703D02*
X004372Y004703D01*
X004414Y004744D01*
X004523Y004703D02*
X004690Y004703D01*
X004607Y004703D02*
X004607Y004953D01*
X004523Y004869D01*
X004414Y004911D02*
X004372Y004953D01*
X004289Y004953D01*
X004247Y004911D01*
X004247Y004744D01*
X004289Y004703D01*
X004649Y006653D02*
X004649Y006778D01*
X004691Y006819D01*
X004775Y006819D01*
X004816Y006778D01*
X004816Y006653D01*
X004816Y006736D02*
X004900Y006819D01*
X004900Y006929D02*
X004733Y007096D01*
X004691Y007096D01*
X004649Y007054D01*
X004649Y006970D01*
X004691Y006929D01*
X004900Y006929D02*
X004900Y007096D01*
X004822Y007303D02*
X004864Y007344D01*
X004822Y007303D02*
X004739Y007303D01*
X004697Y007344D01*
X004697Y007511D01*
X004739Y007553D01*
X004822Y007553D01*
X004864Y007511D01*
X004973Y007428D02*
X005140Y007428D01*
X005098Y007553D02*
X004973Y007428D01*
X005098Y007303D02*
X005098Y007553D01*
X005053Y007778D02*
X005253Y007978D01*
X005253Y008028D01*
X005203Y008078D01*
X005103Y008078D01*
X005053Y008028D01*
X004931Y008078D02*
X004730Y008078D01*
X004831Y008078D02*
X004831Y007778D01*
X005053Y007778D02*
X005253Y007778D01*
X005375Y007828D02*
X005425Y007778D01*
X005525Y007778D01*
X005575Y007828D01*
X005575Y007878D01*
X005525Y007928D01*
X005475Y007928D01*
X005525Y007928D02*
X005575Y007978D01*
X005575Y008028D01*
X005525Y008078D01*
X005425Y008078D01*
X005375Y008028D01*
X005697Y008028D02*
X005747Y008078D01*
X005847Y008078D01*
X005897Y008028D01*
X005897Y007978D01*
X005697Y007778D01*
X005897Y007778D01*
X006020Y007778D02*
X006020Y008078D01*
X006170Y008078D01*
X006220Y008028D01*
X006220Y007928D01*
X006170Y007878D01*
X006020Y007878D01*
X006120Y007878D02*
X006220Y007778D01*
X006342Y007778D02*
X006342Y008078D01*
X006342Y007778D02*
X006542Y007778D01*
X006986Y007778D02*
X007137Y007778D01*
X007187Y007828D01*
X007187Y007878D01*
X007137Y007928D01*
X006986Y007928D01*
X006986Y007778D02*
X006986Y008078D01*
X007137Y008078D01*
X007187Y008028D01*
X007187Y007978D01*
X007137Y007928D01*
X007309Y007878D02*
X007459Y007878D01*
X007509Y007928D01*
X007509Y008028D01*
X007459Y008078D01*
X007309Y008078D01*
X007309Y007778D01*
X007409Y007878D02*
X007509Y007778D01*
X007631Y007778D02*
X007631Y008078D01*
X007831Y008078D01*
X007953Y007978D02*
X007953Y007778D01*
X007831Y007778D02*
X007631Y007778D01*
X007631Y007928D02*
X007731Y007928D01*
X007953Y007928D02*
X008153Y007928D01*
X008153Y007978D02*
X008153Y007778D01*
X008276Y007778D02*
X008276Y008078D01*
X008326Y007928D02*
X008476Y007778D01*
X008598Y007828D02*
X008598Y008028D01*
X008648Y008078D01*
X008748Y008078D01*
X008798Y008028D01*
X008798Y007828D01*
X008748Y007778D01*
X008648Y007778D01*
X008598Y007828D01*
X008476Y008078D02*
X008276Y007878D01*
X008153Y007978D02*
X008053Y008078D01*
X007953Y007978D01*
X007751Y007453D02*
X007793Y007411D01*
X007793Y007369D01*
X007751Y007328D01*
X007793Y007286D01*
X007793Y007244D01*
X007751Y007203D01*
X007668Y007203D01*
X007626Y007244D01*
X007516Y007244D02*
X007475Y007203D01*
X007391Y007203D01*
X007350Y007244D01*
X007350Y007411D01*
X007391Y007453D01*
X007475Y007453D01*
X007516Y007411D01*
X007626Y007411D02*
X007668Y007453D01*
X007751Y007453D01*
X007751Y007328D02*
X007709Y007328D01*
X008920Y007828D02*
X008970Y007778D01*
X009070Y007778D01*
X009120Y007828D01*
X009120Y008078D01*
X009242Y008078D02*
X009443Y008078D01*
X009342Y008078D02*
X009342Y007778D01*
X009296Y007418D02*
X009254Y007376D01*
X009254Y007251D01*
X009504Y007251D01*
X009504Y007376D01*
X009462Y007418D01*
X009296Y007418D01*
X009254Y007142D02*
X009254Y006975D01*
X009504Y006975D01*
X009504Y007142D01*
X009379Y007058D02*
X009379Y006975D01*
X009504Y006865D02*
X009504Y006699D01*
X009254Y006699D01*
X009254Y006589D02*
X009504Y006422D01*
X009504Y006589D02*
X009254Y006422D01*
X009254Y006313D02*
X009254Y006146D01*
X009254Y006229D02*
X009504Y006229D01*
X008872Y006080D02*
X008872Y005913D01*
X008872Y005997D02*
X008621Y005997D01*
X008705Y005913D01*
X008747Y005804D02*
X008788Y005762D01*
X008788Y005637D01*
X008788Y005721D02*
X008872Y005804D01*
X008747Y005804D02*
X008663Y005804D01*
X008621Y005762D01*
X008621Y005637D01*
X008872Y005637D01*
X010167Y006798D02*
X010209Y006756D01*
X010292Y006756D01*
X010334Y006798D01*
X010334Y006965D01*
X010292Y007007D01*
X010209Y007007D01*
X010167Y006965D01*
X010167Y006798D01*
X010443Y006756D02*
X010443Y007007D01*
X010610Y006756D01*
X010610Y007007D01*
X011342Y006970D02*
X011384Y006929D01*
X011342Y006970D02*
X011342Y007054D01*
X011384Y007096D01*
X011426Y007096D01*
X011593Y006929D01*
X011593Y007096D01*
X011515Y007303D02*
X011557Y007344D01*
X011515Y007303D02*
X011432Y007303D01*
X011390Y007344D01*
X011390Y007511D01*
X011432Y007553D01*
X011515Y007553D01*
X011557Y007511D01*
X011666Y007428D02*
X011833Y007428D01*
X011791Y007553D02*
X011666Y007428D01*
X011791Y007303D02*
X011791Y007553D01*
X011746Y007778D02*
X011946Y007978D01*
X011946Y008028D01*
X011896Y008078D01*
X011796Y008078D01*
X011746Y008028D01*
X011624Y008078D02*
X011423Y008078D01*
X011523Y008078D02*
X011523Y007778D01*
X011746Y007778D02*
X011946Y007778D01*
X012068Y007828D02*
X012118Y007778D01*
X012218Y007778D01*
X012268Y007828D01*
X012268Y007878D01*
X012218Y007928D01*
X012168Y007928D01*
X012218Y007928D02*
X012268Y007978D01*
X012268Y008028D01*
X012218Y008078D01*
X012118Y008078D01*
X012068Y008028D01*
X012390Y008028D02*
X012440Y008078D01*
X012540Y008078D01*
X012590Y008028D01*
X012590Y007978D01*
X012390Y007778D01*
X012590Y007778D01*
X012713Y007778D02*
X012713Y008078D01*
X012863Y008078D01*
X012913Y008028D01*
X012913Y007928D01*
X012863Y007878D01*
X012713Y007878D01*
X012813Y007878D02*
X012913Y007778D01*
X013035Y007778D02*
X013235Y007778D01*
X013035Y007778D02*
X013035Y008078D01*
X013679Y008078D02*
X013679Y007778D01*
X013829Y007778D01*
X013880Y007828D01*
X013880Y007878D01*
X013829Y007928D01*
X013679Y007928D01*
X013679Y008078D02*
X013829Y008078D01*
X013880Y008028D01*
X013880Y007978D01*
X013829Y007928D01*
X014002Y007878D02*
X014152Y007878D01*
X014202Y007928D01*
X014202Y008028D01*
X014152Y008078D01*
X014002Y008078D01*
X014002Y007778D01*
X014102Y007878D02*
X014202Y007778D01*
X014324Y007778D02*
X014324Y008078D01*
X014524Y008078D01*
X014646Y007978D02*
X014646Y007778D01*
X014524Y007778D02*
X014324Y007778D01*
X014324Y007928D02*
X014424Y007928D01*
X014646Y007928D02*
X014846Y007928D01*
X014846Y007978D02*
X014846Y007778D01*
X014968Y007778D02*
X014968Y008078D01*
X014846Y007978D02*
X014746Y008078D01*
X014646Y007978D01*
X014968Y007878D02*
X015169Y008078D01*
X015291Y008028D02*
X015291Y007828D01*
X015341Y007778D01*
X015441Y007778D01*
X015491Y007828D01*
X015491Y008028D01*
X015441Y008078D01*
X015341Y008078D01*
X015291Y008028D01*
X015169Y007778D02*
X015018Y007928D01*
X015613Y007828D02*
X015663Y007778D01*
X015763Y007778D01*
X015813Y007828D01*
X015813Y008078D01*
X015935Y008078D02*
X016135Y008078D01*
X016035Y008078D02*
X016035Y007778D01*
X015988Y007418D02*
X015947Y007376D01*
X015947Y007251D01*
X016197Y007251D01*
X016197Y007376D01*
X016155Y007418D01*
X015988Y007418D01*
X015947Y007142D02*
X015947Y006975D01*
X016197Y006975D01*
X016197Y007142D01*
X016072Y007058D02*
X016072Y006975D01*
X016197Y006865D02*
X016197Y006699D01*
X015947Y006699D01*
X015947Y006589D02*
X016197Y006422D01*
X016197Y006589D02*
X015947Y006422D01*
X015947Y006313D02*
X015947Y006146D01*
X015947Y006229D02*
X016197Y006229D01*
X015565Y006080D02*
X015565Y005913D01*
X015565Y005997D02*
X015314Y005997D01*
X015398Y005913D01*
X015439Y005804D02*
X015481Y005762D01*
X015481Y005637D01*
X015565Y005637D02*
X015314Y005637D01*
X015314Y005762D01*
X015356Y005804D01*
X015439Y005804D01*
X015481Y005721D02*
X015565Y005804D01*
X016860Y006798D02*
X016902Y006756D01*
X016985Y006756D01*
X017027Y006798D01*
X017027Y006965D01*
X016985Y007007D01*
X016902Y007007D01*
X016860Y006965D01*
X016860Y006798D01*
X017136Y006756D02*
X017136Y007007D01*
X017303Y006756D01*
X017303Y007007D01*
X018035Y006970D02*
X018077Y006929D01*
X018035Y006970D02*
X018035Y007054D01*
X018077Y007096D01*
X018119Y007096D01*
X018285Y006929D01*
X018285Y007096D01*
X018208Y007303D02*
X018250Y007344D01*
X018208Y007303D02*
X018125Y007303D01*
X018083Y007344D01*
X018083Y007511D01*
X018125Y007553D01*
X018208Y007553D01*
X018250Y007511D01*
X018359Y007428D02*
X018526Y007428D01*
X018484Y007303D02*
X018484Y007553D01*
X018359Y007428D01*
X018439Y007778D02*
X018639Y007978D01*
X018639Y008028D01*
X018589Y008078D01*
X018489Y008078D01*
X018439Y008028D01*
X018316Y008078D02*
X018116Y008078D01*
X018216Y008078D02*
X018216Y007778D01*
X018439Y007778D02*
X018639Y007778D01*
X018761Y007828D02*
X018811Y007778D01*
X018911Y007778D01*
X018961Y007828D01*
X018961Y007878D01*
X018911Y007928D01*
X018861Y007928D01*
X018911Y007928D02*
X018961Y007978D01*
X018961Y008028D01*
X018911Y008078D01*
X018811Y008078D01*
X018761Y008028D01*
X019083Y008028D02*
X019133Y008078D01*
X019233Y008078D01*
X019283Y008028D01*
X019283Y007978D01*
X019083Y007778D01*
X019283Y007778D01*
X019405Y007778D02*
X019405Y008078D01*
X019556Y008078D01*
X019606Y008028D01*
X019606Y007928D01*
X019556Y007878D01*
X019405Y007878D01*
X019506Y007878D02*
X019606Y007778D01*
X019728Y007778D02*
X019928Y007778D01*
X019728Y007778D02*
X019728Y008078D01*
X020372Y008078D02*
X020372Y007778D01*
X020522Y007778D01*
X020572Y007828D01*
X020572Y007878D01*
X020522Y007928D01*
X020372Y007928D01*
X020522Y007928D02*
X020572Y007978D01*
X020572Y008028D01*
X020522Y008078D01*
X020372Y008078D01*
X020695Y008078D02*
X020695Y007778D01*
X020695Y007878D02*
X020845Y007878D01*
X020895Y007928D01*
X020895Y008028D01*
X020845Y008078D01*
X020695Y008078D01*
X020795Y007878D02*
X020895Y007778D01*
X021017Y007778D02*
X021217Y007778D01*
X021339Y007778D02*
X021339Y007978D01*
X021439Y008078D01*
X021539Y007978D01*
X021539Y007778D01*
X021661Y007778D02*
X021661Y008078D01*
X021711Y007928D02*
X021862Y007778D01*
X021984Y007828D02*
X022034Y007778D01*
X022134Y007778D01*
X022184Y007828D01*
X022184Y008028D01*
X022134Y008078D01*
X022034Y008078D01*
X021984Y008028D01*
X021984Y007828D01*
X021862Y008078D02*
X021661Y007878D01*
X021539Y007928D02*
X021339Y007928D01*
X021217Y008078D02*
X021017Y008078D01*
X021017Y007778D01*
X021017Y007928D02*
X021117Y007928D01*
X021137Y007453D02*
X021178Y007411D01*
X021178Y007369D01*
X021137Y007328D01*
X021178Y007286D01*
X021178Y007244D01*
X021137Y007203D01*
X021053Y007203D01*
X021012Y007244D01*
X020902Y007244D02*
X020861Y007203D01*
X020777Y007203D01*
X020735Y007244D01*
X020735Y007411D01*
X020777Y007453D01*
X020861Y007453D01*
X020902Y007411D01*
X021012Y007411D02*
X021053Y007453D01*
X021137Y007453D01*
X021137Y007328D02*
X021095Y007328D01*
X022306Y007828D02*
X022356Y007778D01*
X022456Y007778D01*
X022506Y007828D01*
X022506Y008078D01*
X022628Y008078D02*
X022828Y008078D01*
X022728Y008078D02*
X022728Y007778D01*
X022681Y007418D02*
X022640Y007376D01*
X022640Y007251D01*
X022890Y007251D01*
X022890Y007376D01*
X022848Y007418D01*
X022681Y007418D01*
X022640Y007142D02*
X022640Y006975D01*
X022890Y006975D01*
X022890Y007142D01*
X022765Y007058D02*
X022765Y006975D01*
X022890Y006865D02*
X022890Y006699D01*
X022640Y006699D01*
X022640Y006589D02*
X022890Y006422D01*
X022890Y006589D02*
X022640Y006422D01*
X022640Y006313D02*
X022640Y006146D01*
X022640Y006229D02*
X022890Y006229D01*
X022257Y006080D02*
X022257Y005913D01*
X022257Y005997D02*
X022007Y005997D01*
X022091Y005913D01*
X022049Y005804D02*
X022132Y005804D01*
X022174Y005762D01*
X022174Y005637D01*
X022257Y005637D02*
X022007Y005637D01*
X022007Y005762D01*
X022049Y005804D01*
X022174Y005721D02*
X022257Y005804D01*
X023553Y006798D02*
X023595Y006756D01*
X023678Y006756D01*
X023720Y006798D01*
X023720Y006965D01*
X023678Y007007D01*
X023595Y007007D01*
X023553Y006965D01*
X023553Y006798D01*
X023829Y006756D02*
X023829Y007007D01*
X023996Y006756D01*
X023996Y007007D01*
X024728Y006970D02*
X024770Y006929D01*
X024728Y006970D02*
X024728Y007054D01*
X024770Y007096D01*
X024812Y007096D01*
X024978Y006929D01*
X024978Y007096D01*
X024901Y007303D02*
X024943Y007344D01*
X024901Y007303D02*
X024818Y007303D01*
X024776Y007344D01*
X024776Y007511D01*
X024818Y007553D01*
X024901Y007553D01*
X024943Y007511D01*
X025052Y007428D02*
X025219Y007428D01*
X025177Y007553D02*
X025052Y007428D01*
X025177Y007303D02*
X025177Y007553D01*
X025132Y007778D02*
X025332Y007978D01*
X025332Y008028D01*
X025282Y008078D01*
X025182Y008078D01*
X025132Y008028D01*
X025009Y008078D02*
X024809Y008078D01*
X024909Y008078D02*
X024909Y007778D01*
X025132Y007778D02*
X025332Y007778D01*
X025454Y007828D02*
X025504Y007778D01*
X025604Y007778D01*
X025654Y007828D01*
X025654Y007878D01*
X025604Y007928D01*
X025554Y007928D01*
X025604Y007928D02*
X025654Y007978D01*
X025654Y008028D01*
X025604Y008078D01*
X025504Y008078D01*
X025454Y008028D01*
X025776Y008028D02*
X025826Y008078D01*
X025926Y008078D01*
X025976Y008028D01*
X025976Y007978D01*
X025776Y007778D01*
X025976Y007778D01*
X026098Y007778D02*
X026098Y008078D01*
X026248Y008078D01*
X026299Y008028D01*
X026299Y007928D01*
X026248Y007878D01*
X026098Y007878D01*
X026198Y007878D02*
X026299Y007778D01*
X026421Y007778D02*
X026621Y007778D01*
X026421Y007778D02*
X026421Y008078D01*
X027065Y008078D02*
X027065Y007778D01*
X027215Y007778D01*
X027265Y007828D01*
X027265Y007878D01*
X027215Y007928D01*
X027065Y007928D01*
X027215Y007928D02*
X027265Y007978D01*
X027265Y008028D01*
X027215Y008078D01*
X027065Y008078D01*
X027387Y008078D02*
X027387Y007778D01*
X027387Y007878D02*
X027538Y007878D01*
X027588Y007928D01*
X027588Y008028D01*
X027538Y008078D01*
X027387Y008078D01*
X027488Y007878D02*
X027588Y007778D01*
X027710Y007778D02*
X027910Y007778D01*
X028032Y007778D02*
X028032Y007978D01*
X028132Y008078D01*
X028232Y007978D01*
X028232Y007778D01*
X028354Y007778D02*
X028354Y008078D01*
X028404Y007928D02*
X028554Y007778D01*
X028677Y007828D02*
X028727Y007778D01*
X028827Y007778D01*
X028877Y007828D01*
X028877Y008028D01*
X028827Y008078D01*
X028727Y008078D01*
X028677Y008028D01*
X028677Y007828D01*
X028554Y008078D02*
X028354Y007878D01*
X028232Y007928D02*
X028032Y007928D01*
X027910Y008078D02*
X027710Y008078D01*
X027710Y007778D01*
X027710Y007928D02*
X027810Y007928D01*
X027830Y007453D02*
X027871Y007411D01*
X027871Y007369D01*
X027830Y007328D01*
X027871Y007286D01*
X027871Y007244D01*
X027830Y007203D01*
X027746Y007203D01*
X027705Y007244D01*
X027595Y007244D02*
X027553Y007203D01*
X027470Y007203D01*
X027428Y007244D01*
X027428Y007411D01*
X027470Y007453D01*
X027553Y007453D01*
X027595Y007411D01*
X027705Y007411D02*
X027746Y007453D01*
X027830Y007453D01*
X027830Y007328D02*
X027788Y007328D01*
X028999Y007828D02*
X029049Y007778D01*
X029149Y007778D01*
X029199Y007828D01*
X029199Y008078D01*
X029321Y008078D02*
X029521Y008078D01*
X029421Y008078D02*
X029421Y007778D01*
X029374Y007418D02*
X029333Y007376D01*
X029333Y007251D01*
X029583Y007251D01*
X029583Y007376D01*
X029541Y007418D01*
X029374Y007418D01*
X029333Y007142D02*
X029333Y006975D01*
X029583Y006975D01*
X029583Y007142D01*
X029458Y007058D02*
X029458Y006975D01*
X029583Y006865D02*
X029583Y006699D01*
X029333Y006699D01*
X029333Y006589D02*
X029583Y006422D01*
X029583Y006589D02*
X029333Y006422D01*
X029333Y006313D02*
X029333Y006146D01*
X029333Y006229D02*
X029583Y006229D01*
X028950Y006080D02*
X028950Y005913D01*
X028950Y005997D02*
X028700Y005997D01*
X028784Y005913D01*
X028825Y005804D02*
X028867Y005762D01*
X028867Y005637D01*
X028950Y005637D02*
X028700Y005637D01*
X028700Y005762D01*
X028742Y005804D01*
X028825Y005804D01*
X028867Y005721D02*
X028950Y005804D01*
X028978Y003846D02*
X028978Y003679D01*
X028812Y003846D01*
X028770Y003846D01*
X028728Y003804D01*
X028728Y003720D01*
X028770Y003679D01*
X028770Y003569D02*
X028728Y003528D01*
X028728Y003444D01*
X028770Y003403D01*
X028937Y003403D01*
X028978Y003444D01*
X028978Y003528D01*
X028937Y003569D01*
X029356Y003523D02*
X029356Y003357D01*
X029606Y003357D01*
X029606Y003523D01*
X029606Y003633D02*
X029606Y003758D01*
X029565Y003800D01*
X029398Y003800D01*
X029356Y003758D01*
X029356Y003633D01*
X029606Y003633D01*
X029481Y003440D02*
X029481Y003357D01*
X029606Y003247D02*
X029606Y003080D01*
X029356Y003080D01*
X029356Y002971D02*
X029606Y002804D01*
X029606Y002695D02*
X029523Y002611D01*
X029523Y002653D02*
X029523Y002528D01*
X029606Y002528D02*
X029356Y002528D01*
X029356Y002653D01*
X029398Y002695D01*
X029481Y002695D01*
X029523Y002653D01*
X029356Y002804D02*
X029606Y002971D01*
X029556Y001053D02*
X029606Y001003D01*
X029606Y000953D01*
X029556Y000903D01*
X029606Y000853D01*
X029606Y000803D01*
X029556Y000753D01*
X029456Y000753D01*
X029406Y000803D01*
X029295Y000803D02*
X029295Y000753D01*
X029245Y000753D01*
X029245Y000803D01*
X029295Y000803D01*
X029123Y000753D02*
X028923Y000753D01*
X029023Y000753D02*
X029023Y001053D01*
X028923Y000953D01*
X028801Y000953D02*
X028700Y000753D01*
X028600Y000953D01*
X029406Y001003D02*
X029456Y001053D01*
X029556Y001053D01*
X029556Y000903D02*
X029506Y000903D01*
X024578Y001316D02*
X024537Y001274D01*
X024578Y001316D02*
X024578Y001399D01*
X024537Y001441D01*
X024495Y001441D01*
X024453Y001399D01*
X024453Y001357D01*
X024453Y001399D02*
X024412Y001441D01*
X024370Y001441D01*
X024328Y001399D01*
X024328Y001316D01*
X024370Y001274D01*
X024328Y001550D02*
X024495Y001550D01*
X024578Y001633D01*
X024495Y001717D01*
X024328Y001717D01*
X024370Y001826D02*
X024328Y001868D01*
X024328Y001951D01*
X024370Y001993D01*
X024412Y001993D01*
X024453Y001951D01*
X024495Y001993D01*
X024537Y001993D01*
X024578Y001951D01*
X024578Y001868D01*
X024537Y001826D01*
X024453Y001910D02*
X024453Y001951D01*
X024503Y003400D02*
X024378Y003400D01*
X024378Y003567D01*
X024462Y003525D02*
X024462Y003483D01*
X024503Y003400D01*
X024587Y003400D02*
X024628Y003442D01*
X024628Y003525D01*
X024587Y003567D01*
X024503Y003567D01*
X024462Y003525D01*
X024545Y003676D02*
X024628Y003760D01*
X024545Y003843D01*
X024378Y003843D01*
X024378Y003676D02*
X024545Y003676D01*
X024602Y004703D02*
X024769Y004703D01*
X024686Y004703D02*
X024686Y004953D01*
X024602Y004869D01*
X024493Y004911D02*
X024451Y004953D01*
X024368Y004953D01*
X024326Y004911D01*
X024326Y004744D01*
X024368Y004703D01*
X024451Y004703D01*
X024493Y004744D01*
X022913Y003758D02*
X022872Y003800D01*
X022705Y003800D01*
X022663Y003758D01*
X022663Y003633D01*
X022913Y003633D01*
X022913Y003758D01*
X022913Y003523D02*
X022913Y003357D01*
X022663Y003357D01*
X022663Y003523D01*
X022788Y003440D02*
X022788Y003357D01*
X022913Y003247D02*
X022913Y003080D01*
X022663Y003080D01*
X022663Y002971D02*
X022913Y002804D01*
X022913Y002695D02*
X022830Y002611D01*
X022830Y002653D02*
X022830Y002528D01*
X022913Y002528D02*
X022663Y002528D01*
X022663Y002653D01*
X022705Y002695D01*
X022788Y002695D01*
X022830Y002653D01*
X022663Y002804D02*
X022913Y002971D01*
X022285Y003444D02*
X022285Y003528D01*
X022244Y003569D01*
X022285Y003679D02*
X022119Y003846D01*
X022077Y003846D01*
X022035Y003804D01*
X022035Y003720D01*
X022077Y003679D01*
X022077Y003569D02*
X022035Y003528D01*
X022035Y003444D01*
X022077Y003403D01*
X022244Y003403D01*
X022285Y003444D01*
X022285Y003679D02*
X022285Y003846D01*
X024728Y006653D02*
X024728Y006778D01*
X024770Y006819D01*
X024853Y006819D01*
X024895Y006778D01*
X024895Y006653D01*
X024895Y006736D02*
X024978Y006819D01*
X024978Y006653D02*
X024728Y006653D01*
X024487Y007778D02*
X024487Y008078D01*
X024687Y008078D01*
X024587Y007928D02*
X024487Y007928D01*
X024050Y007778D02*
X023950Y007778D01*
X024000Y007778D02*
X024000Y007978D01*
X023950Y007978D01*
X024000Y008078D02*
X024000Y008128D01*
X023828Y007978D02*
X023828Y007778D01*
X023828Y007928D02*
X023628Y007928D01*
X023628Y007978D02*
X023628Y007778D01*
X023628Y007978D02*
X023728Y008078D01*
X023828Y007978D01*
X022306Y008078D02*
X022306Y007828D01*
X021820Y010178D02*
X021720Y010178D01*
X021670Y010228D01*
X021720Y010328D02*
X021820Y010328D01*
X021870Y010278D01*
X021870Y010228D01*
X021820Y010178D01*
X021720Y010328D02*
X021670Y010378D01*
X021670Y010428D01*
X021720Y010478D01*
X021820Y010478D01*
X021870Y010428D01*
X022110Y010453D02*
X022110Y010253D01*
X022160Y010203D01*
X022261Y010203D01*
X022311Y010253D01*
X022311Y010353D01*
X022211Y010353D01*
X022311Y010453D02*
X022261Y010503D01*
X022160Y010503D01*
X022110Y010453D01*
X022433Y010503D02*
X022633Y010203D01*
X022633Y010503D01*
X022755Y010503D02*
X022905Y010503D01*
X022955Y010453D01*
X022955Y010253D01*
X022905Y010203D01*
X022755Y010203D01*
X022755Y010503D01*
X022433Y010503D02*
X022433Y010203D01*
X022430Y011078D02*
X022230Y011078D01*
X022330Y011078D02*
X022330Y011378D01*
X022230Y011278D01*
X022108Y011278D02*
X022008Y011078D01*
X021907Y011278D01*
X022552Y011128D02*
X022602Y011128D01*
X022602Y011078D01*
X022552Y011078D01*
X022552Y011128D01*
X022713Y011128D02*
X022763Y011078D01*
X022863Y011078D01*
X022913Y011128D01*
X022913Y011178D01*
X022863Y011228D01*
X022813Y011228D01*
X022863Y011228D02*
X022913Y011278D01*
X022913Y011328D01*
X022863Y011378D01*
X022763Y011378D01*
X022713Y011328D01*
X023498Y010503D02*
X023648Y010503D01*
X023699Y010453D01*
X023699Y010253D01*
X023648Y010203D01*
X023498Y010203D01*
X023498Y010503D01*
X023821Y010503D02*
X024021Y010503D01*
X023921Y010503D02*
X023921Y010203D01*
X024143Y010203D02*
X024143Y010503D01*
X024293Y010503D01*
X024343Y010453D01*
X024343Y010353D01*
X024293Y010303D01*
X024143Y010303D01*
X024243Y010303D02*
X024343Y010203D01*
X024578Y010203D02*
X024578Y010503D01*
X024728Y010503D01*
X024779Y010453D01*
X024779Y010353D01*
X024728Y010303D01*
X024578Y010303D01*
X024678Y010303D02*
X024779Y010203D01*
X024901Y010203D02*
X025101Y010503D01*
X025223Y010503D02*
X025323Y010503D01*
X025273Y010503D02*
X025273Y010203D01*
X025223Y010203D02*
X025323Y010203D01*
X025101Y010203D02*
X024901Y010503D01*
X025558Y010503D02*
X025759Y010503D01*
X025658Y010503D02*
X025658Y010203D01*
X025881Y010203D02*
X026081Y010503D01*
X026203Y010453D02*
X026203Y010253D01*
X026253Y010203D01*
X026353Y010203D01*
X026403Y010253D01*
X026403Y010453D01*
X026353Y010503D01*
X026253Y010503D01*
X026203Y010453D01*
X026081Y010203D02*
X025881Y010503D01*
X026638Y010503D02*
X026788Y010503D01*
X026839Y010453D01*
X026839Y010353D01*
X026788Y010303D01*
X026638Y010303D01*
X026638Y010203D02*
X026638Y010503D01*
X026961Y010503D02*
X026961Y010203D01*
X027061Y010303D01*
X027161Y010203D01*
X027161Y010503D01*
X027283Y010503D02*
X027433Y010503D01*
X027483Y010453D01*
X027483Y010353D01*
X027433Y010303D01*
X027283Y010303D01*
X027383Y010303D02*
X027483Y010203D01*
X027283Y010203D02*
X027283Y010503D01*
X027718Y010428D02*
X027718Y010228D01*
X027768Y010178D01*
X027868Y010178D01*
X027919Y010228D01*
X027919Y010428D02*
X027868Y010478D01*
X027768Y010478D01*
X027718Y010428D01*
X028041Y010478D02*
X028241Y010478D01*
X028141Y010478D02*
X028141Y010178D01*
X028363Y010228D02*
X028413Y010178D01*
X028513Y010178D01*
X028563Y010228D01*
X028563Y010278D01*
X028513Y010328D01*
X028413Y010328D01*
X028363Y010378D01*
X028363Y010428D01*
X028413Y010478D01*
X028513Y010478D01*
X028563Y010428D01*
X028803Y010453D02*
X028803Y010253D01*
X028853Y010203D01*
X028953Y010203D01*
X029004Y010253D01*
X029004Y010353D01*
X028903Y010353D01*
X028803Y010453D02*
X028853Y010503D01*
X028953Y010503D01*
X029004Y010453D01*
X029126Y010503D02*
X029326Y010203D01*
X029326Y010503D01*
X029448Y010503D02*
X029598Y010503D01*
X029648Y010453D01*
X029648Y010253D01*
X029598Y010203D01*
X029448Y010203D01*
X029448Y010503D01*
X029126Y010503D02*
X029126Y010203D01*
X029123Y011078D02*
X028923Y011078D01*
X029023Y011078D02*
X029023Y011378D01*
X028923Y011278D01*
X028801Y011278D02*
X028700Y011078D01*
X028600Y011278D01*
X029245Y011128D02*
X029295Y011128D01*
X029295Y011078D01*
X029245Y011078D01*
X029245Y011128D01*
X029406Y011128D02*
X029456Y011078D01*
X029556Y011078D01*
X029606Y011128D01*
X029606Y011178D01*
X029556Y011228D01*
X029506Y011228D01*
X029556Y011228D02*
X029606Y011278D01*
X029606Y011328D01*
X029556Y011378D01*
X029456Y011378D01*
X029406Y011328D01*
X029356Y012853D02*
X029356Y012979D01*
X029398Y013020D01*
X029481Y013020D01*
X029523Y012979D01*
X029523Y012853D01*
X029606Y012853D02*
X029356Y012853D01*
X029523Y012937D02*
X029606Y013020D01*
X029606Y013130D02*
X029356Y013296D01*
X029356Y013406D02*
X029606Y013406D01*
X029606Y013573D01*
X029606Y013682D02*
X029606Y013849D01*
X029606Y013958D02*
X029606Y014083D01*
X029565Y014125D01*
X029398Y014125D01*
X029356Y014083D01*
X029356Y013958D01*
X029606Y013958D01*
X029481Y013766D02*
X029481Y013682D01*
X029356Y013682D02*
X029606Y013682D01*
X029356Y013682D02*
X029356Y013849D01*
X028978Y013853D02*
X028937Y013895D01*
X028978Y013853D02*
X028978Y013770D01*
X028937Y013728D01*
X028770Y013728D01*
X028728Y013770D01*
X028728Y013853D01*
X028770Y013895D01*
X028770Y014004D02*
X028728Y014046D01*
X028728Y014129D01*
X028770Y014171D01*
X028812Y014171D01*
X028978Y014004D01*
X028978Y014171D01*
X029606Y013296D02*
X029356Y013130D01*
X028950Y015963D02*
X028700Y015963D01*
X028700Y016088D01*
X028742Y016130D01*
X028825Y016130D01*
X028867Y016088D01*
X028867Y015963D01*
X028867Y016046D02*
X028950Y016130D01*
X028950Y016239D02*
X028950Y016406D01*
X028950Y016322D02*
X028700Y016322D01*
X028784Y016239D01*
X029333Y016472D02*
X029333Y016638D01*
X029333Y016555D02*
X029583Y016555D01*
X029583Y016748D02*
X029333Y016915D01*
X029333Y017024D02*
X029583Y017024D01*
X029583Y017191D01*
X029583Y017300D02*
X029333Y017300D01*
X029333Y017467D01*
X029333Y017577D02*
X029333Y017702D01*
X029374Y017743D01*
X029541Y017743D01*
X029583Y017702D01*
X029583Y017577D01*
X029333Y017577D01*
X029458Y017384D02*
X029458Y017300D01*
X029583Y017300D02*
X029583Y017467D01*
X029583Y016915D02*
X029333Y016748D01*
X029421Y018104D02*
X029421Y018404D01*
X029321Y018404D02*
X029521Y018404D01*
X029199Y018404D02*
X029199Y018154D01*
X029149Y018104D01*
X029049Y018104D01*
X028999Y018154D01*
X028999Y018404D01*
X028877Y018354D02*
X028827Y018404D01*
X028727Y018404D01*
X028677Y018354D01*
X028677Y018154D01*
X028727Y018104D01*
X028827Y018104D01*
X028877Y018154D01*
X028877Y018354D01*
X028554Y018404D02*
X028354Y018204D01*
X028404Y018254D02*
X028554Y018104D01*
X028354Y018104D02*
X028354Y018404D01*
X028232Y018304D02*
X028232Y018104D01*
X028232Y018254D02*
X028032Y018254D01*
X028032Y018304D02*
X028132Y018404D01*
X028232Y018304D01*
X028032Y018304D02*
X028032Y018104D01*
X027910Y018104D02*
X027710Y018104D01*
X027710Y018404D01*
X027910Y018404D01*
X027810Y018254D02*
X027710Y018254D01*
X027588Y018254D02*
X027538Y018204D01*
X027387Y018204D01*
X027387Y018104D02*
X027387Y018404D01*
X027538Y018404D01*
X027588Y018354D01*
X027588Y018254D01*
X027488Y018204D02*
X027588Y018104D01*
X027265Y018154D02*
X027265Y018204D01*
X027215Y018254D01*
X027065Y018254D01*
X027065Y018404D02*
X027215Y018404D01*
X027265Y018354D01*
X027265Y018304D01*
X027215Y018254D01*
X027265Y018154D02*
X027215Y018104D01*
X027065Y018104D01*
X027065Y018404D01*
X026621Y018104D02*
X026421Y018104D01*
X026421Y018404D01*
X026299Y018354D02*
X026299Y018254D01*
X026248Y018204D01*
X026098Y018204D01*
X026098Y018104D02*
X026098Y018404D01*
X026248Y018404D01*
X026299Y018354D01*
X026198Y018204D02*
X026299Y018104D01*
X025976Y018104D02*
X025776Y018104D01*
X025976Y018304D01*
X025976Y018354D01*
X025926Y018404D01*
X025826Y018404D01*
X025776Y018354D01*
X025654Y018354D02*
X025654Y018304D01*
X025604Y018254D01*
X025654Y018204D01*
X025654Y018154D01*
X025604Y018104D01*
X025504Y018104D01*
X025454Y018154D01*
X025332Y018104D02*
X025132Y018104D01*
X025332Y018304D01*
X025332Y018354D01*
X025282Y018404D01*
X025182Y018404D01*
X025132Y018354D01*
X025009Y018404D02*
X024809Y018404D01*
X024909Y018404D02*
X024909Y018104D01*
X024901Y017878D02*
X024818Y017878D01*
X024776Y017837D01*
X024776Y017670D01*
X024818Y017628D01*
X024901Y017628D01*
X024943Y017670D01*
X025052Y017753D02*
X025219Y017753D01*
X025177Y017628D02*
X025177Y017878D01*
X025052Y017753D01*
X024943Y017837D02*
X024901Y017878D01*
X024487Y018104D02*
X024487Y018404D01*
X024687Y018404D01*
X024587Y018254D02*
X024487Y018254D01*
X024050Y018104D02*
X023950Y018104D01*
X024000Y018104D02*
X024000Y018304D01*
X023950Y018304D01*
X024000Y018404D02*
X024000Y018454D01*
X023828Y018304D02*
X023828Y018104D01*
X023828Y018254D02*
X023628Y018254D01*
X023628Y018304D02*
X023728Y018404D01*
X023828Y018304D01*
X023628Y018304D02*
X023628Y018104D01*
X023595Y017332D02*
X023553Y017291D01*
X023553Y017124D01*
X023595Y017082D01*
X023678Y017082D01*
X023720Y017124D01*
X023720Y017291D01*
X023678Y017332D01*
X023595Y017332D01*
X023829Y017332D02*
X023996Y017082D01*
X023996Y017332D01*
X023829Y017332D02*
X023829Y017082D01*
X024728Y017103D02*
X024770Y017145D01*
X024853Y017145D01*
X024895Y017103D01*
X024895Y016978D01*
X024978Y016978D02*
X024728Y016978D01*
X024728Y017103D01*
X024770Y017254D02*
X024728Y017296D01*
X024728Y017379D01*
X024770Y017421D01*
X024812Y017421D01*
X024978Y017254D01*
X024978Y017421D01*
X024978Y017145D02*
X024895Y017062D01*
X025554Y018254D02*
X025604Y018254D01*
X025654Y018354D02*
X025604Y018404D01*
X025504Y018404D01*
X025454Y018354D01*
X027428Y017737D02*
X027428Y017570D01*
X027470Y017528D01*
X027553Y017528D01*
X027595Y017570D01*
X027705Y017570D02*
X027746Y017528D01*
X027830Y017528D01*
X027871Y017570D01*
X027871Y017612D01*
X027830Y017653D01*
X027788Y017653D01*
X027830Y017653D02*
X027871Y017695D01*
X027871Y017737D01*
X027830Y017778D01*
X027746Y017778D01*
X027705Y017737D01*
X027595Y017737D02*
X027553Y017778D01*
X027470Y017778D01*
X027428Y017737D01*
X027768Y020503D02*
X027718Y020553D01*
X027718Y020753D01*
X027768Y020803D01*
X027868Y020803D01*
X027919Y020753D01*
X028041Y020803D02*
X028241Y020803D01*
X028141Y020803D02*
X028141Y020503D01*
X028363Y020553D02*
X028413Y020503D01*
X028513Y020503D01*
X028563Y020553D01*
X028563Y020603D01*
X028513Y020653D01*
X028413Y020653D01*
X028363Y020703D01*
X028363Y020753D01*
X028413Y020803D01*
X028513Y020803D01*
X028563Y020753D01*
X028803Y020778D02*
X028803Y020578D01*
X028853Y020528D01*
X028953Y020528D01*
X029004Y020578D01*
X029004Y020678D01*
X028903Y020678D01*
X028803Y020778D02*
X028853Y020828D01*
X028953Y020828D01*
X029004Y020778D01*
X029126Y020828D02*
X029326Y020528D01*
X029326Y020828D01*
X029448Y020828D02*
X029448Y020528D01*
X029598Y020528D01*
X029648Y020578D01*
X029648Y020778D01*
X029598Y020828D01*
X029448Y020828D01*
X029126Y020828D02*
X029126Y020528D01*
X029123Y021404D02*
X028923Y021404D01*
X029023Y021404D02*
X029023Y021704D01*
X028923Y021604D01*
X028801Y021604D02*
X028700Y021404D01*
X028600Y021604D01*
X029245Y021454D02*
X029295Y021454D01*
X029295Y021404D01*
X029245Y021404D01*
X029245Y021454D01*
X029406Y021454D02*
X029456Y021404D01*
X029556Y021404D01*
X029606Y021454D01*
X029606Y021504D01*
X029556Y021554D01*
X029506Y021554D01*
X029556Y021554D02*
X029606Y021604D01*
X029606Y021654D01*
X029556Y021704D01*
X029456Y021704D01*
X029406Y021654D01*
X029356Y023179D02*
X029356Y023304D01*
X029398Y023346D01*
X029481Y023346D01*
X029523Y023304D01*
X029523Y023179D01*
X029606Y023179D02*
X029356Y023179D01*
X029523Y023262D02*
X029606Y023346D01*
X029606Y023455D02*
X029356Y023622D01*
X029356Y023731D02*
X029606Y023731D01*
X029606Y023898D01*
X029606Y024008D02*
X029606Y024175D01*
X029606Y024284D02*
X029356Y024284D01*
X029356Y024409D01*
X029398Y024451D01*
X029565Y024451D01*
X029606Y024409D01*
X029606Y024284D01*
X029481Y024091D02*
X029481Y024008D01*
X029356Y024008D02*
X029606Y024008D01*
X029356Y024008D02*
X029356Y024175D01*
X028978Y024179D02*
X028937Y024221D01*
X028978Y024179D02*
X028978Y024095D01*
X028937Y024054D01*
X028770Y024054D01*
X028728Y024095D01*
X028728Y024179D01*
X028770Y024221D01*
X028770Y024330D02*
X028728Y024372D01*
X028728Y024455D01*
X028770Y024497D01*
X028812Y024497D01*
X028978Y024330D01*
X028978Y024497D01*
X029606Y023622D02*
X029356Y023455D01*
X027433Y020828D02*
X027283Y020828D01*
X027283Y020528D01*
X027283Y020628D02*
X027433Y020628D01*
X027483Y020678D01*
X027483Y020778D01*
X027433Y020828D01*
X027383Y020628D02*
X027483Y020528D01*
X027768Y020503D02*
X027868Y020503D01*
X027919Y020553D01*
X027161Y020528D02*
X027161Y020828D01*
X026961Y020828D02*
X026961Y020528D01*
X027061Y020628D01*
X027161Y020528D01*
X026839Y020678D02*
X026839Y020778D01*
X026788Y020828D01*
X026638Y020828D01*
X026638Y020528D01*
X026638Y020628D02*
X026788Y020628D01*
X026839Y020678D01*
X026403Y020578D02*
X026403Y020778D01*
X026353Y020828D01*
X026253Y020828D01*
X026203Y020778D01*
X026203Y020578D01*
X026253Y020528D01*
X026353Y020528D01*
X026403Y020578D01*
X026081Y020528D02*
X025881Y020828D01*
X025759Y020828D02*
X025558Y020828D01*
X025658Y020828D02*
X025658Y020528D01*
X025881Y020528D02*
X026081Y020828D01*
X025323Y020828D02*
X025223Y020828D01*
X025273Y020828D02*
X025273Y020528D01*
X025223Y020528D02*
X025323Y020528D01*
X025101Y020528D02*
X024901Y020828D01*
X024779Y020778D02*
X024779Y020678D01*
X024728Y020628D01*
X024578Y020628D01*
X024578Y020528D02*
X024578Y020828D01*
X024728Y020828D01*
X024779Y020778D01*
X024678Y020628D02*
X024779Y020528D01*
X024901Y020528D02*
X025101Y020828D01*
X024343Y020778D02*
X024343Y020678D01*
X024293Y020628D01*
X024143Y020628D01*
X024143Y020528D02*
X024143Y020828D01*
X024293Y020828D01*
X024343Y020778D01*
X024243Y020628D02*
X024343Y020528D01*
X023921Y020528D02*
X023921Y020828D01*
X023821Y020828D02*
X024021Y020828D01*
X023699Y020778D02*
X023699Y020578D01*
X023648Y020528D01*
X023498Y020528D01*
X023498Y020828D01*
X023648Y020828D01*
X023699Y020778D01*
X022955Y020778D02*
X022955Y020578D01*
X022905Y020528D01*
X022755Y020528D01*
X022755Y020828D01*
X022905Y020828D01*
X022955Y020778D01*
X022633Y020828D02*
X022633Y020528D01*
X022433Y020828D01*
X022433Y020528D01*
X022311Y020578D02*
X022311Y020678D01*
X022211Y020678D01*
X022311Y020578D02*
X022261Y020528D01*
X022160Y020528D01*
X022110Y020578D01*
X022110Y020778D01*
X022160Y020828D01*
X022261Y020828D01*
X022311Y020778D01*
X021870Y020753D02*
X021820Y020803D01*
X021720Y020803D01*
X021670Y020753D01*
X021670Y020703D01*
X021720Y020653D01*
X021820Y020653D01*
X021870Y020603D01*
X021870Y020553D01*
X021820Y020503D01*
X021720Y020503D01*
X021670Y020553D01*
X021448Y020503D02*
X021448Y020803D01*
X021348Y020803D02*
X021548Y020803D01*
X021226Y020753D02*
X021176Y020803D01*
X021075Y020803D01*
X021025Y020753D01*
X021025Y020553D01*
X021075Y020503D01*
X021176Y020503D01*
X021226Y020553D01*
X020790Y020528D02*
X020690Y020628D01*
X020740Y020628D02*
X020590Y020628D01*
X020590Y020528D02*
X020590Y020828D01*
X020740Y020828D01*
X020790Y020778D01*
X020790Y020678D01*
X020740Y020628D01*
X020468Y020528D02*
X020468Y020828D01*
X020268Y020828D02*
X020268Y020528D01*
X020368Y020628D01*
X020468Y020528D01*
X020146Y020678D02*
X020146Y020778D01*
X020096Y020828D01*
X019945Y020828D01*
X019945Y020528D01*
X019945Y020628D02*
X020096Y020628D01*
X020146Y020678D01*
X019710Y020578D02*
X019710Y020778D01*
X019660Y020828D01*
X019560Y020828D01*
X019510Y020778D01*
X019510Y020578D01*
X019560Y020528D01*
X019660Y020528D01*
X019710Y020578D01*
X019388Y020528D02*
X019188Y020828D01*
X019066Y020828D02*
X018865Y020828D01*
X018966Y020828D02*
X018966Y020528D01*
X019188Y020528D02*
X019388Y020828D01*
X018630Y020828D02*
X018530Y020828D01*
X018580Y020828D02*
X018580Y020528D01*
X018530Y020528D02*
X018630Y020528D01*
X018408Y020528D02*
X018208Y020828D01*
X018086Y020778D02*
X018086Y020678D01*
X018036Y020628D01*
X017885Y020628D01*
X017885Y020528D02*
X017885Y020828D01*
X018036Y020828D01*
X018086Y020778D01*
X017986Y020628D02*
X018086Y020528D01*
X018208Y020528D02*
X018408Y020828D01*
X017650Y020778D02*
X017650Y020678D01*
X017600Y020628D01*
X017450Y020628D01*
X017450Y020528D02*
X017450Y020828D01*
X017600Y020828D01*
X017650Y020778D01*
X017550Y020628D02*
X017650Y020528D01*
X017228Y020528D02*
X017228Y020828D01*
X017128Y020828D02*
X017328Y020828D01*
X017006Y020778D02*
X017006Y020578D01*
X016956Y020528D01*
X016805Y020528D01*
X016805Y020828D01*
X016956Y020828D01*
X017006Y020778D01*
X016262Y020778D02*
X016262Y020578D01*
X016212Y020528D01*
X016062Y020528D01*
X016062Y020828D01*
X016212Y020828D01*
X016262Y020778D01*
X015940Y020828D02*
X015940Y020528D01*
X015740Y020828D01*
X015740Y020528D01*
X015618Y020578D02*
X015618Y020678D01*
X015518Y020678D01*
X015618Y020578D02*
X015568Y020528D01*
X015468Y020528D01*
X015418Y020578D01*
X015418Y020778D01*
X015468Y020828D01*
X015568Y020828D01*
X015618Y020778D01*
X015177Y020753D02*
X015127Y020803D01*
X015027Y020803D01*
X014977Y020753D01*
X014977Y020703D01*
X015027Y020653D01*
X015127Y020653D01*
X015177Y020603D01*
X015177Y020553D01*
X015127Y020503D01*
X015027Y020503D01*
X014977Y020553D01*
X014755Y020503D02*
X014755Y020803D01*
X014655Y020803D02*
X014855Y020803D01*
X014533Y020753D02*
X014483Y020803D01*
X014383Y020803D01*
X014333Y020753D01*
X014333Y020553D01*
X014383Y020503D01*
X014483Y020503D01*
X014533Y020553D01*
X014097Y020528D02*
X013997Y020628D01*
X014047Y020628D02*
X013897Y020628D01*
X013897Y020528D02*
X013897Y020828D01*
X014047Y020828D01*
X014097Y020778D01*
X014097Y020678D01*
X014047Y020628D01*
X013775Y020528D02*
X013775Y020828D01*
X013575Y020828D02*
X013575Y020528D01*
X013675Y020628D01*
X013775Y020528D01*
X013453Y020678D02*
X013453Y020778D01*
X013403Y020828D01*
X013253Y020828D01*
X013253Y020528D01*
X013253Y020628D02*
X013403Y020628D01*
X013453Y020678D01*
X013017Y020578D02*
X013017Y020778D01*
X012967Y020828D01*
X012867Y020828D01*
X012817Y020778D01*
X012817Y020578D01*
X012867Y020528D01*
X012967Y020528D01*
X013017Y020578D01*
X012695Y020528D02*
X012495Y020828D01*
X012373Y020828D02*
X012173Y020828D01*
X012273Y020828D02*
X012273Y020528D01*
X012495Y020528D02*
X012695Y020828D01*
X011937Y020828D02*
X011837Y020828D01*
X011887Y020828D02*
X011887Y020528D01*
X011837Y020528D02*
X011937Y020528D01*
X011715Y020528D02*
X011515Y020828D01*
X011393Y020778D02*
X011393Y020678D01*
X011343Y020628D01*
X011193Y020628D01*
X011293Y020628D02*
X011393Y020528D01*
X011515Y020528D02*
X011715Y020828D01*
X011393Y020778D02*
X011343Y020828D01*
X011193Y020828D01*
X011193Y020528D01*
X010957Y020528D02*
X010857Y020628D01*
X010907Y020628D02*
X010757Y020628D01*
X010757Y020528D02*
X010757Y020828D01*
X010907Y020828D01*
X010957Y020778D01*
X010957Y020678D01*
X010907Y020628D01*
X010635Y020828D02*
X010435Y020828D01*
X010535Y020828D02*
X010535Y020528D01*
X010313Y020578D02*
X010313Y020778D01*
X010263Y020828D01*
X010113Y020828D01*
X010113Y020528D01*
X010263Y020528D01*
X010313Y020578D01*
X009569Y020578D02*
X009569Y020778D01*
X009519Y020828D01*
X009369Y020828D01*
X009369Y020528D01*
X009519Y020528D01*
X009569Y020578D01*
X009247Y020528D02*
X009247Y020828D01*
X009047Y020828D02*
X009247Y020528D01*
X009047Y020528D02*
X009047Y020828D01*
X008925Y020778D02*
X008875Y020828D01*
X008775Y020828D01*
X008725Y020778D01*
X008725Y020578D01*
X008775Y020528D01*
X008875Y020528D01*
X008925Y020578D01*
X008925Y020678D01*
X008825Y020678D01*
X008484Y020603D02*
X008484Y020553D01*
X008434Y020503D01*
X008334Y020503D01*
X008284Y020553D01*
X008334Y020653D02*
X008434Y020653D01*
X008484Y020603D01*
X008484Y020753D02*
X008434Y020803D01*
X008334Y020803D01*
X008284Y020753D01*
X008284Y020703D01*
X008334Y020653D01*
X008162Y020803D02*
X007962Y020803D01*
X008062Y020803D02*
X008062Y020503D01*
X007840Y020553D02*
X007790Y020503D01*
X007690Y020503D01*
X007640Y020553D01*
X007640Y020753D01*
X007690Y020803D01*
X007790Y020803D01*
X007840Y020753D01*
X007404Y020778D02*
X007404Y020678D01*
X007354Y020628D01*
X007204Y020628D01*
X007204Y020528D02*
X007204Y020828D01*
X007354Y020828D01*
X007404Y020778D01*
X007304Y020628D02*
X007404Y020528D01*
X007082Y020528D02*
X007082Y020828D01*
X006882Y020828D02*
X006882Y020528D01*
X006982Y020628D01*
X007082Y020528D01*
X006760Y020678D02*
X006760Y020778D01*
X006710Y020828D01*
X006560Y020828D01*
X006560Y020528D01*
X006560Y020628D02*
X006710Y020628D01*
X006760Y020678D01*
X006324Y020578D02*
X006324Y020778D01*
X006274Y020828D01*
X006174Y020828D01*
X006124Y020778D01*
X006124Y020578D01*
X006174Y020528D01*
X006274Y020528D01*
X006324Y020578D01*
X006002Y020528D02*
X005802Y020828D01*
X005680Y020828D02*
X005480Y020828D01*
X005580Y020828D02*
X005580Y020528D01*
X005802Y020528D02*
X006002Y020828D01*
X005244Y020828D02*
X005144Y020828D01*
X005194Y020828D02*
X005194Y020528D01*
X005144Y020528D02*
X005244Y020528D01*
X005022Y020528D02*
X004822Y020828D01*
X004700Y020778D02*
X004700Y020678D01*
X004650Y020628D01*
X004500Y020628D01*
X004600Y020628D02*
X004700Y020528D01*
X004822Y020528D02*
X005022Y020828D01*
X004700Y020778D02*
X004650Y020828D01*
X004500Y020828D01*
X004500Y020528D01*
X004264Y020528D02*
X004164Y020628D01*
X004214Y020628D02*
X004064Y020628D01*
X004064Y020528D02*
X004064Y020828D01*
X004214Y020828D01*
X004264Y020778D01*
X004264Y020678D01*
X004214Y020628D01*
X003942Y020828D02*
X003742Y020828D01*
X003842Y020828D02*
X003842Y020528D01*
X003620Y020578D02*
X003620Y020778D01*
X003570Y020828D01*
X003420Y020828D01*
X003420Y020528D01*
X003570Y020528D01*
X003620Y020578D01*
X004291Y021925D02*
X004249Y021967D01*
X004249Y022050D01*
X004291Y022092D01*
X004333Y022092D01*
X004375Y022050D01*
X004416Y022092D01*
X004458Y022092D01*
X004500Y022050D01*
X004500Y021967D01*
X004458Y021925D01*
X004375Y022008D02*
X004375Y022050D01*
X004416Y022201D02*
X004500Y022285D01*
X004416Y022368D01*
X004249Y022368D01*
X004291Y022477D02*
X004249Y022519D01*
X004249Y022603D01*
X004291Y022644D01*
X004333Y022644D01*
X004375Y022603D01*
X004416Y022644D01*
X004458Y022644D01*
X004500Y022603D01*
X004500Y022519D01*
X004458Y022477D01*
X004375Y022561D02*
X004375Y022603D01*
X004416Y022201D02*
X004249Y022201D01*
X004299Y024051D02*
X004425Y024051D01*
X004383Y024135D01*
X004383Y024176D01*
X004425Y024218D01*
X004508Y024218D01*
X004550Y024176D01*
X004550Y024093D01*
X004508Y024051D01*
X004299Y024051D02*
X004299Y024218D01*
X004299Y024327D02*
X004466Y024327D01*
X004550Y024411D01*
X004466Y024494D01*
X004299Y024494D01*
X004289Y025354D02*
X004372Y025354D01*
X004414Y025395D01*
X004523Y025354D02*
X004690Y025354D01*
X004607Y025354D02*
X004607Y025604D01*
X004523Y025521D01*
X004414Y025562D02*
X004372Y025604D01*
X004289Y025604D01*
X004247Y025562D01*
X004247Y025395D01*
X004289Y025354D01*
X004649Y027304D02*
X004649Y027429D01*
X004691Y027471D01*
X004775Y027471D01*
X004816Y027429D01*
X004816Y027304D01*
X004816Y027387D02*
X004900Y027471D01*
X004900Y027580D02*
X004733Y027747D01*
X004691Y027747D01*
X004649Y027705D01*
X004649Y027622D01*
X004691Y027580D01*
X004900Y027580D02*
X004900Y027747D01*
X004822Y027954D02*
X004864Y027995D01*
X004822Y027954D02*
X004739Y027954D01*
X004697Y027995D01*
X004697Y028162D01*
X004739Y028204D01*
X004822Y028204D01*
X004864Y028162D01*
X004973Y028079D02*
X005140Y028079D01*
X005098Y028204D02*
X004973Y028079D01*
X005098Y027954D02*
X005098Y028204D01*
X005053Y028429D02*
X005253Y028629D01*
X005253Y028680D01*
X005203Y028730D01*
X005103Y028730D01*
X005053Y028680D01*
X004931Y028730D02*
X004730Y028730D01*
X004831Y028730D02*
X004831Y028429D01*
X005053Y028429D02*
X005253Y028429D01*
X005375Y028479D02*
X005425Y028429D01*
X005525Y028429D01*
X005575Y028479D01*
X005575Y028529D01*
X005525Y028579D01*
X005475Y028579D01*
X005525Y028579D02*
X005575Y028629D01*
X005575Y028680D01*
X005525Y028730D01*
X005425Y028730D01*
X005375Y028680D01*
X005697Y028680D02*
X005747Y028730D01*
X005847Y028730D01*
X005897Y028680D01*
X005897Y028629D01*
X005697Y028429D01*
X005897Y028429D01*
X006020Y028429D02*
X006020Y028730D01*
X006170Y028730D01*
X006220Y028680D01*
X006220Y028579D01*
X006170Y028529D01*
X006020Y028529D01*
X006120Y028529D02*
X006220Y028429D01*
X006342Y028429D02*
X006342Y028730D01*
X006342Y028429D02*
X006542Y028429D01*
X006986Y028429D02*
X007137Y028429D01*
X007187Y028479D01*
X007187Y028529D01*
X007137Y028579D01*
X006986Y028579D01*
X006986Y028429D02*
X006986Y028730D01*
X007137Y028730D01*
X007187Y028680D01*
X007187Y028629D01*
X007137Y028579D01*
X007309Y028529D02*
X007459Y028529D01*
X007509Y028579D01*
X007509Y028680D01*
X007459Y028730D01*
X007309Y028730D01*
X007309Y028429D01*
X007409Y028529D02*
X007509Y028429D01*
X007631Y028429D02*
X007631Y028730D01*
X007831Y028730D01*
X007953Y028629D02*
X008053Y028730D01*
X008153Y028629D01*
X008153Y028429D01*
X008276Y028429D02*
X008276Y028730D01*
X008326Y028579D02*
X008476Y028429D01*
X008598Y028479D02*
X008598Y028680D01*
X008648Y028730D01*
X008748Y028730D01*
X008798Y028680D01*
X008798Y028479D01*
X008748Y028429D01*
X008648Y028429D01*
X008598Y028479D01*
X008476Y028730D02*
X008276Y028529D01*
X008153Y028579D02*
X007953Y028579D01*
X007953Y028629D02*
X007953Y028429D01*
X007831Y028429D02*
X007631Y028429D01*
X007631Y028579D02*
X007731Y028579D01*
X007751Y028104D02*
X007793Y028062D01*
X007793Y028021D01*
X007751Y027979D01*
X007793Y027937D01*
X007793Y027895D01*
X007751Y027854D01*
X007668Y027854D01*
X007626Y027895D01*
X007516Y027895D02*
X007475Y027854D01*
X007391Y027854D01*
X007350Y027895D01*
X007350Y028062D01*
X007391Y028104D01*
X007475Y028104D01*
X007516Y028062D01*
X007626Y028062D02*
X007668Y028104D01*
X007751Y028104D01*
X007751Y027979D02*
X007709Y027979D01*
X008920Y028479D02*
X008970Y028429D01*
X009070Y028429D01*
X009120Y028479D01*
X009120Y028730D01*
X009242Y028730D02*
X009443Y028730D01*
X009342Y028730D02*
X009342Y028429D01*
X009296Y028069D02*
X009254Y028027D01*
X009254Y027902D01*
X009504Y027902D01*
X009504Y028027D01*
X009462Y028069D01*
X009296Y028069D01*
X009254Y027793D02*
X009254Y027626D01*
X009504Y027626D01*
X009504Y027793D01*
X009379Y027709D02*
X009379Y027626D01*
X009504Y027517D02*
X009504Y027350D01*
X009254Y027350D01*
X009254Y027240D02*
X009504Y027074D01*
X009504Y027240D02*
X009254Y027074D01*
X009254Y026964D02*
X009254Y026797D01*
X009254Y026881D02*
X009504Y026881D01*
X008872Y026731D02*
X008872Y026565D01*
X008872Y026648D02*
X008621Y026648D01*
X008705Y026565D01*
X008747Y026455D02*
X008788Y026413D01*
X008788Y026288D01*
X008872Y026288D02*
X008621Y026288D01*
X008621Y026413D01*
X008663Y026455D01*
X008747Y026455D01*
X008788Y026372D02*
X008872Y026455D01*
X010167Y027449D02*
X010209Y027408D01*
X010292Y027408D01*
X010334Y027449D01*
X010334Y027616D01*
X010292Y027658D01*
X010209Y027658D01*
X010167Y027616D01*
X010167Y027449D01*
X010443Y027408D02*
X010443Y027658D01*
X010610Y027408D01*
X010610Y027658D01*
X011342Y027622D02*
X011384Y027580D01*
X011342Y027622D02*
X011342Y027705D01*
X011384Y027747D01*
X011426Y027747D01*
X011593Y027580D01*
X011593Y027747D01*
X011515Y027954D02*
X011557Y027995D01*
X011515Y027954D02*
X011432Y027954D01*
X011390Y027995D01*
X011390Y028162D01*
X011432Y028204D01*
X011515Y028204D01*
X011557Y028162D01*
X011666Y028079D02*
X011833Y028079D01*
X011791Y028204D02*
X011666Y028079D01*
X011791Y027954D02*
X011791Y028204D01*
X011746Y028429D02*
X011946Y028629D01*
X011946Y028680D01*
X011896Y028730D01*
X011796Y028730D01*
X011746Y028680D01*
X011624Y028730D02*
X011423Y028730D01*
X011523Y028730D02*
X011523Y028429D01*
X011746Y028429D02*
X011946Y028429D01*
X012068Y028479D02*
X012118Y028429D01*
X012218Y028429D01*
X012268Y028479D01*
X012268Y028529D01*
X012218Y028579D01*
X012168Y028579D01*
X012218Y028579D02*
X012268Y028629D01*
X012268Y028680D01*
X012218Y028730D01*
X012118Y028730D01*
X012068Y028680D01*
X012390Y028680D02*
X012440Y028730D01*
X012540Y028730D01*
X012590Y028680D01*
X012590Y028629D01*
X012390Y028429D01*
X012590Y028429D01*
X012713Y028429D02*
X012713Y028730D01*
X012863Y028730D01*
X012913Y028680D01*
X012913Y028579D01*
X012863Y028529D01*
X012713Y028529D01*
X012813Y028529D02*
X012913Y028429D01*
X013035Y028429D02*
X013235Y028429D01*
X013035Y028429D02*
X013035Y028730D01*
X013679Y028730D02*
X013679Y028429D01*
X013829Y028429D01*
X013880Y028479D01*
X013880Y028529D01*
X013829Y028579D01*
X013679Y028579D01*
X013829Y028579D02*
X013880Y028629D01*
X013880Y028680D01*
X013829Y028730D01*
X013679Y028730D01*
X014002Y028730D02*
X014002Y028429D01*
X014002Y028529D02*
X014152Y028529D01*
X014202Y028579D01*
X014202Y028680D01*
X014152Y028730D01*
X014002Y028730D01*
X014102Y028529D02*
X014202Y028429D01*
X014324Y028429D02*
X014324Y028730D01*
X014524Y028730D01*
X014646Y028629D02*
X014746Y028730D01*
X014846Y028629D01*
X014846Y028429D01*
X014968Y028429D02*
X014968Y028730D01*
X015018Y028579D02*
X015169Y028429D01*
X015291Y028479D02*
X015291Y028680D01*
X015341Y028730D01*
X015441Y028730D01*
X015491Y028680D01*
X015491Y028479D01*
X015441Y028429D01*
X015341Y028429D01*
X015291Y028479D01*
X015169Y028730D02*
X014968Y028529D01*
X014846Y028579D02*
X014646Y028579D01*
X014646Y028629D02*
X014646Y028429D01*
X014524Y028429D02*
X014324Y028429D01*
X014324Y028579D02*
X014424Y028579D01*
X014444Y028104D02*
X014486Y028062D01*
X014486Y028021D01*
X014444Y027979D01*
X014486Y027937D01*
X014486Y027895D01*
X014444Y027854D01*
X014360Y027854D01*
X014319Y027895D01*
X014209Y027895D02*
X014168Y027854D01*
X014084Y027854D01*
X014043Y027895D01*
X014043Y028062D01*
X014084Y028104D01*
X014168Y028104D01*
X014209Y028062D01*
X014319Y028062D02*
X014360Y028104D01*
X014444Y028104D01*
X014444Y027979D02*
X014402Y027979D01*
X015613Y028479D02*
X015663Y028429D01*
X015763Y028429D01*
X015813Y028479D01*
X015813Y028730D01*
X015935Y028730D02*
X016135Y028730D01*
X016035Y028730D02*
X016035Y028429D01*
X015988Y028069D02*
X015947Y028027D01*
X015947Y027902D01*
X016197Y027902D01*
X016197Y028027D01*
X016155Y028069D01*
X015988Y028069D01*
X015947Y027793D02*
X015947Y027626D01*
X016197Y027626D01*
X016197Y027793D01*
X016072Y027709D02*
X016072Y027626D01*
X016197Y027517D02*
X016197Y027350D01*
X015947Y027350D01*
X015947Y027240D02*
X016197Y027074D01*
X016197Y027240D02*
X015947Y027074D01*
X015947Y026964D02*
X015947Y026797D01*
X015947Y026881D02*
X016197Y026881D01*
X015565Y026731D02*
X015565Y026565D01*
X015565Y026648D02*
X015314Y026648D01*
X015398Y026565D01*
X015439Y026455D02*
X015481Y026413D01*
X015481Y026288D01*
X015565Y026288D02*
X015314Y026288D01*
X015314Y026413D01*
X015356Y026455D01*
X015439Y026455D01*
X015481Y026372D02*
X015565Y026455D01*
X016860Y027449D02*
X016902Y027408D01*
X016985Y027408D01*
X017027Y027449D01*
X017027Y027616D01*
X016985Y027658D01*
X016902Y027658D01*
X016860Y027616D01*
X016860Y027449D01*
X017136Y027408D02*
X017136Y027658D01*
X017303Y027408D01*
X017303Y027658D01*
X018035Y027622D02*
X018077Y027580D01*
X018035Y027622D02*
X018035Y027705D01*
X018077Y027747D01*
X018119Y027747D01*
X018285Y027580D01*
X018285Y027747D01*
X018208Y027954D02*
X018250Y027995D01*
X018208Y027954D02*
X018125Y027954D01*
X018083Y027995D01*
X018083Y028162D01*
X018125Y028204D01*
X018208Y028204D01*
X018250Y028162D01*
X018359Y028079D02*
X018526Y028079D01*
X018484Y027954D02*
X018484Y028204D01*
X018359Y028079D01*
X018439Y028429D02*
X018639Y028629D01*
X018639Y028680D01*
X018589Y028730D01*
X018489Y028730D01*
X018439Y028680D01*
X018316Y028730D02*
X018116Y028730D01*
X018216Y028730D02*
X018216Y028429D01*
X018439Y028429D02*
X018639Y028429D01*
X018761Y028479D02*
X018811Y028429D01*
X018911Y028429D01*
X018961Y028479D01*
X018961Y028529D01*
X018911Y028579D01*
X018861Y028579D01*
X018911Y028579D02*
X018961Y028629D01*
X018961Y028680D01*
X018911Y028730D01*
X018811Y028730D01*
X018761Y028680D01*
X019083Y028680D02*
X019133Y028730D01*
X019233Y028730D01*
X019283Y028680D01*
X019283Y028629D01*
X019083Y028429D01*
X019283Y028429D01*
X019405Y028429D02*
X019405Y028730D01*
X019556Y028730D01*
X019606Y028680D01*
X019606Y028579D01*
X019556Y028529D01*
X019405Y028529D01*
X019506Y028529D02*
X019606Y028429D01*
X019728Y028429D02*
X019928Y028429D01*
X019728Y028429D02*
X019728Y028730D01*
X020372Y028730D02*
X020372Y028429D01*
X020522Y028429D01*
X020572Y028479D01*
X020572Y028529D01*
X020522Y028579D01*
X020372Y028579D01*
X020522Y028579D02*
X020572Y028629D01*
X020572Y028680D01*
X020522Y028730D01*
X020372Y028730D01*
X020695Y028730D02*
X020695Y028429D01*
X020695Y028529D02*
X020845Y028529D01*
X020895Y028579D01*
X020895Y028680D01*
X020845Y028730D01*
X020695Y028730D01*
X020795Y028529D02*
X020895Y028429D01*
X021017Y028429D02*
X021217Y028429D01*
X021339Y028429D02*
X021339Y028629D01*
X021439Y028730D01*
X021539Y028629D01*
X021539Y028429D01*
X021661Y028429D02*
X021661Y028730D01*
X021711Y028579D02*
X021862Y028429D01*
X021984Y028479D02*
X022034Y028429D01*
X022134Y028429D01*
X022184Y028479D01*
X022184Y028680D01*
X022134Y028730D01*
X022034Y028730D01*
X021984Y028680D01*
X021984Y028479D01*
X021862Y028730D02*
X021661Y028529D01*
X021539Y028579D02*
X021339Y028579D01*
X021217Y028730D02*
X021017Y028730D01*
X021017Y028429D01*
X021017Y028579D02*
X021117Y028579D01*
X021137Y028104D02*
X021178Y028062D01*
X021178Y028021D01*
X021137Y027979D01*
X021178Y027937D01*
X021178Y027895D01*
X021137Y027854D01*
X021053Y027854D01*
X021012Y027895D01*
X020902Y027895D02*
X020861Y027854D01*
X020777Y027854D01*
X020735Y027895D01*
X020735Y028062D01*
X020777Y028104D01*
X020861Y028104D01*
X020902Y028062D01*
X021012Y028062D02*
X021053Y028104D01*
X021137Y028104D01*
X021137Y027979D02*
X021095Y027979D01*
X022306Y028479D02*
X022356Y028429D01*
X022456Y028429D01*
X022506Y028479D01*
X022506Y028730D01*
X022628Y028730D02*
X022828Y028730D01*
X022728Y028730D02*
X022728Y028429D01*
X022681Y028069D02*
X022640Y028027D01*
X022640Y027902D01*
X022890Y027902D01*
X022890Y028027D01*
X022848Y028069D01*
X022681Y028069D01*
X022640Y027793D02*
X022640Y027626D01*
X022890Y027626D01*
X022890Y027793D01*
X022765Y027709D02*
X022765Y027626D01*
X022890Y027517D02*
X022890Y027350D01*
X022640Y027350D01*
X022640Y027240D02*
X022890Y027074D01*
X022890Y027240D02*
X022640Y027074D01*
X022640Y026964D02*
X022640Y026797D01*
X022640Y026881D02*
X022890Y026881D01*
X022257Y026731D02*
X022257Y026565D01*
X022257Y026648D02*
X022007Y026648D01*
X022091Y026565D01*
X022049Y026455D02*
X022132Y026455D01*
X022174Y026413D01*
X022174Y026288D01*
X022257Y026288D02*
X022007Y026288D01*
X022007Y026413D01*
X022049Y026455D01*
X022174Y026372D02*
X022257Y026455D01*
X023553Y027449D02*
X023595Y027408D01*
X023678Y027408D01*
X023720Y027449D01*
X023720Y027616D01*
X023678Y027658D01*
X023595Y027658D01*
X023553Y027616D01*
X023553Y027449D01*
X023829Y027408D02*
X023829Y027658D01*
X023996Y027408D01*
X023996Y027658D01*
X024728Y027622D02*
X024770Y027580D01*
X024728Y027622D02*
X024728Y027705D01*
X024770Y027747D01*
X024812Y027747D01*
X024978Y027580D01*
X024978Y027747D01*
X024901Y027954D02*
X024943Y027995D01*
X024901Y027954D02*
X024818Y027954D01*
X024776Y027995D01*
X024776Y028162D01*
X024818Y028204D01*
X024901Y028204D01*
X024943Y028162D01*
X025052Y028079D02*
X025219Y028079D01*
X025177Y028204D02*
X025052Y028079D01*
X025177Y027954D02*
X025177Y028204D01*
X025132Y028429D02*
X025332Y028629D01*
X025332Y028680D01*
X025282Y028730D01*
X025182Y028730D01*
X025132Y028680D01*
X025009Y028730D02*
X024809Y028730D01*
X024909Y028730D02*
X024909Y028429D01*
X025132Y028429D02*
X025332Y028429D01*
X025454Y028479D02*
X025504Y028429D01*
X025604Y028429D01*
X025654Y028479D01*
X025654Y028529D01*
X025604Y028579D01*
X025554Y028579D01*
X025604Y028579D02*
X025654Y028629D01*
X025654Y028680D01*
X025604Y028730D01*
X025504Y028730D01*
X025454Y028680D01*
X025776Y028680D02*
X025826Y028730D01*
X025926Y028730D01*
X025976Y028680D01*
X025976Y028629D01*
X025776Y028429D01*
X025976Y028429D01*
X026098Y028429D02*
X026098Y028730D01*
X026248Y028730D01*
X026299Y028680D01*
X026299Y028579D01*
X026248Y028529D01*
X026098Y028529D01*
X026198Y028529D02*
X026299Y028429D01*
X026421Y028429D02*
X026621Y028429D01*
X026421Y028429D02*
X026421Y028730D01*
X027065Y028730D02*
X027065Y028429D01*
X027215Y028429D01*
X027265Y028479D01*
X027265Y028529D01*
X027215Y028579D01*
X027065Y028579D01*
X027215Y028579D02*
X027265Y028629D01*
X027265Y028680D01*
X027215Y028730D01*
X027065Y028730D01*
X027387Y028730D02*
X027387Y028429D01*
X027387Y028529D02*
X027538Y028529D01*
X027588Y028579D01*
X027588Y028680D01*
X027538Y028730D01*
X027387Y028730D01*
X027488Y028529D02*
X027588Y028429D01*
X027710Y028429D02*
X027910Y028429D01*
X028032Y028429D02*
X028032Y028629D01*
X028132Y028730D01*
X028232Y028629D01*
X028232Y028429D01*
X028354Y028429D02*
X028354Y028730D01*
X028404Y028579D02*
X028554Y028429D01*
X028677Y028479D02*
X028727Y028429D01*
X028827Y028429D01*
X028877Y028479D01*
X028877Y028680D01*
X028827Y028730D01*
X028727Y028730D01*
X028677Y028680D01*
X028677Y028479D01*
X028554Y028730D02*
X028354Y028529D01*
X028232Y028579D02*
X028032Y028579D01*
X027910Y028730D02*
X027710Y028730D01*
X027710Y028429D01*
X027710Y028579D02*
X027810Y028579D01*
X027830Y028104D02*
X027871Y028062D01*
X027871Y028021D01*
X027830Y027979D01*
X027871Y027937D01*
X027871Y027895D01*
X027830Y027854D01*
X027746Y027854D01*
X027705Y027895D01*
X027595Y027895D02*
X027553Y027854D01*
X027470Y027854D01*
X027428Y027895D01*
X027428Y028062D01*
X027470Y028104D01*
X027553Y028104D01*
X027595Y028062D01*
X027705Y028062D02*
X027746Y028104D01*
X027830Y028104D01*
X027830Y027979D02*
X027788Y027979D01*
X028999Y028479D02*
X028999Y028730D01*
X029199Y028730D02*
X029199Y028479D01*
X029149Y028429D01*
X029049Y028429D01*
X028999Y028479D01*
X029321Y028730D02*
X029521Y028730D01*
X029421Y028730D02*
X029421Y028429D01*
X029374Y028069D02*
X029333Y028027D01*
X029333Y027902D01*
X029583Y027902D01*
X029583Y028027D01*
X029541Y028069D01*
X029374Y028069D01*
X029333Y027793D02*
X029333Y027626D01*
X029583Y027626D01*
X029583Y027793D01*
X029458Y027709D02*
X029458Y027626D01*
X029583Y027517D02*
X029583Y027350D01*
X029333Y027350D01*
X029333Y027240D02*
X029583Y027074D01*
X029583Y027240D02*
X029333Y027074D01*
X029333Y026964D02*
X029333Y026797D01*
X029333Y026881D02*
X029583Y026881D01*
X028950Y026731D02*
X028950Y026565D01*
X028950Y026648D02*
X028700Y026648D01*
X028784Y026565D01*
X028825Y026455D02*
X028867Y026413D01*
X028867Y026288D01*
X028950Y026288D02*
X028700Y026288D01*
X028700Y026413D01*
X028742Y026455D01*
X028825Y026455D01*
X028867Y026372D02*
X028950Y026455D01*
X024978Y027304D02*
X024728Y027304D01*
X024728Y027429D01*
X024770Y027471D01*
X024853Y027471D01*
X024895Y027429D01*
X024895Y027304D01*
X024895Y027387D02*
X024978Y027471D01*
X024487Y028429D02*
X024487Y028730D01*
X024687Y028730D01*
X024587Y028579D02*
X024487Y028579D01*
X024050Y028429D02*
X023950Y028429D01*
X024000Y028429D02*
X024000Y028629D01*
X023950Y028629D01*
X024000Y028730D02*
X024000Y028780D01*
X023828Y028629D02*
X023828Y028429D01*
X023828Y028579D02*
X023628Y028579D01*
X023628Y028629D02*
X023728Y028730D01*
X023828Y028629D01*
X023628Y028629D02*
X023628Y028429D01*
X022306Y028479D02*
X022306Y028730D01*
X022261Y030854D02*
X022311Y030904D01*
X022311Y031004D01*
X022211Y031004D01*
X022311Y031104D02*
X022261Y031154D01*
X022160Y031154D01*
X022110Y031104D01*
X022110Y030904D01*
X022160Y030854D01*
X022261Y030854D01*
X022433Y030854D02*
X022433Y031154D01*
X022633Y030854D01*
X022633Y031154D01*
X022755Y031154D02*
X022905Y031154D01*
X022955Y031104D01*
X022955Y030904D01*
X022905Y030854D01*
X022755Y030854D01*
X022755Y031154D01*
X021870Y031079D02*
X021820Y031129D01*
X021720Y031129D01*
X021670Y031079D01*
X021670Y031029D01*
X021720Y030979D01*
X021820Y030979D01*
X021870Y030929D01*
X021870Y030879D01*
X021820Y030829D01*
X021720Y030829D01*
X021670Y030879D01*
X021448Y030829D02*
X021448Y031129D01*
X021348Y031129D02*
X021548Y031129D01*
X021226Y031079D02*
X021176Y031129D01*
X021075Y031129D01*
X021025Y031079D01*
X021025Y030879D01*
X021075Y030829D01*
X021176Y030829D01*
X021226Y030879D01*
X020790Y030854D02*
X020690Y030954D01*
X020740Y030954D02*
X020590Y030954D01*
X020590Y030854D02*
X020590Y031154D01*
X020740Y031154D01*
X020790Y031104D01*
X020790Y031004D01*
X020740Y030954D01*
X020468Y030854D02*
X020468Y031154D01*
X020268Y031154D02*
X020268Y030854D01*
X020368Y030954D01*
X020468Y030854D01*
X020146Y031004D02*
X020096Y030954D01*
X019945Y030954D01*
X019945Y030854D02*
X019945Y031154D01*
X020096Y031154D01*
X020146Y031104D01*
X020146Y031004D01*
X019710Y031104D02*
X019660Y031154D01*
X019560Y031154D01*
X019510Y031104D01*
X019510Y030904D01*
X019560Y030854D01*
X019660Y030854D01*
X019710Y030904D01*
X019710Y031104D01*
X019388Y031154D02*
X019188Y030854D01*
X019388Y030854D02*
X019188Y031154D01*
X019066Y031154D02*
X018865Y031154D01*
X018966Y031154D02*
X018966Y030854D01*
X018630Y030854D02*
X018530Y030854D01*
X018580Y030854D02*
X018580Y031154D01*
X018530Y031154D02*
X018630Y031154D01*
X018408Y031154D02*
X018208Y030854D01*
X018086Y030854D02*
X017986Y030954D01*
X018036Y030954D02*
X017885Y030954D01*
X017885Y030854D02*
X017885Y031154D01*
X018036Y031154D01*
X018086Y031104D01*
X018086Y031004D01*
X018036Y030954D01*
X018208Y031154D02*
X018408Y030854D01*
X017650Y030854D02*
X017550Y030954D01*
X017600Y030954D02*
X017450Y030954D01*
X017450Y030854D02*
X017450Y031154D01*
X017600Y031154D01*
X017650Y031104D01*
X017650Y031004D01*
X017600Y030954D01*
X017328Y031154D02*
X017128Y031154D01*
X017228Y031154D02*
X017228Y030854D01*
X017006Y030904D02*
X017006Y031104D01*
X016956Y031154D01*
X016805Y031154D01*
X016805Y030854D01*
X016956Y030854D01*
X017006Y030904D01*
X016262Y030904D02*
X016212Y030854D01*
X016062Y030854D01*
X016062Y031154D01*
X016212Y031154D01*
X016262Y031104D01*
X016262Y030904D01*
X015940Y030854D02*
X015940Y031154D01*
X015740Y031154D02*
X015740Y030854D01*
X015618Y030904D02*
X015568Y030854D01*
X015468Y030854D01*
X015418Y030904D01*
X015418Y031104D01*
X015468Y031154D01*
X015568Y031154D01*
X015618Y031104D01*
X015618Y031004D02*
X015518Y031004D01*
X015618Y031004D02*
X015618Y030904D01*
X015740Y031154D02*
X015940Y030854D01*
X015177Y030879D02*
X015127Y030829D01*
X015027Y030829D01*
X014977Y030879D01*
X015027Y030979D02*
X015127Y030979D01*
X015177Y030929D01*
X015177Y030879D01*
X015027Y030979D02*
X014977Y031029D01*
X014977Y031079D01*
X015027Y031129D01*
X015127Y031129D01*
X015177Y031079D01*
X014855Y031129D02*
X014655Y031129D01*
X014755Y031129D02*
X014755Y030829D01*
X014533Y030879D02*
X014483Y030829D01*
X014383Y030829D01*
X014333Y030879D01*
X014333Y031079D01*
X014383Y031129D01*
X014483Y031129D01*
X014533Y031079D01*
X014097Y031104D02*
X014097Y031004D01*
X014047Y030954D01*
X013897Y030954D01*
X013997Y030954D02*
X014097Y030854D01*
X013897Y030854D02*
X013897Y031154D01*
X014047Y031154D01*
X014097Y031104D01*
X013775Y031154D02*
X013775Y030854D01*
X013675Y030954D01*
X013575Y030854D01*
X013575Y031154D01*
X013453Y031104D02*
X013453Y031004D01*
X013403Y030954D01*
X013253Y030954D01*
X013253Y030854D02*
X013253Y031154D01*
X013403Y031154D01*
X013453Y031104D01*
X013017Y031104D02*
X012967Y031154D01*
X012867Y031154D01*
X012817Y031104D01*
X012817Y030904D01*
X012867Y030854D01*
X012967Y030854D01*
X013017Y030904D01*
X013017Y031104D01*
X012695Y031154D02*
X012495Y030854D01*
X012695Y030854D02*
X012495Y031154D01*
X012373Y031154D02*
X012173Y031154D01*
X012273Y031154D02*
X012273Y030854D01*
X011937Y030854D02*
X011837Y030854D01*
X011887Y030854D02*
X011887Y031154D01*
X011837Y031154D02*
X011937Y031154D01*
X011715Y031154D02*
X011515Y030854D01*
X011393Y030854D02*
X011293Y030954D01*
X011343Y030954D02*
X011193Y030954D01*
X011193Y030854D02*
X011193Y031154D01*
X011343Y031154D01*
X011393Y031104D01*
X011393Y031004D01*
X011343Y030954D01*
X011515Y031154D02*
X011715Y030854D01*
X010957Y030854D02*
X010857Y030954D01*
X010907Y030954D02*
X010757Y030954D01*
X010757Y030854D02*
X010757Y031154D01*
X010907Y031154D01*
X010957Y031104D01*
X010957Y031004D01*
X010907Y030954D01*
X010635Y031154D02*
X010435Y031154D01*
X010535Y031154D02*
X010535Y030854D01*
X010313Y030904D02*
X010263Y030854D01*
X010113Y030854D01*
X010113Y031154D01*
X010263Y031154D01*
X010313Y031104D01*
X010313Y030904D01*
X009569Y030904D02*
X009519Y030854D01*
X009369Y030854D01*
X009369Y031154D01*
X009519Y031154D01*
X009569Y031104D01*
X009569Y030904D01*
X009247Y030854D02*
X009247Y031154D01*
X009047Y031154D02*
X009247Y030854D01*
X009047Y030854D02*
X009047Y031154D01*
X008925Y031104D02*
X008875Y031154D01*
X008775Y031154D01*
X008725Y031104D01*
X008725Y030904D01*
X008775Y030854D01*
X008875Y030854D01*
X008925Y030904D01*
X008925Y031004D01*
X008825Y031004D01*
X008484Y031079D02*
X008434Y031129D01*
X008334Y031129D01*
X008284Y031079D01*
X008284Y031029D01*
X008334Y030979D01*
X008434Y030979D01*
X008484Y030929D01*
X008484Y030879D01*
X008434Y030829D01*
X008334Y030829D01*
X008284Y030879D01*
X008062Y030829D02*
X008062Y031129D01*
X007962Y031129D02*
X008162Y031129D01*
X007840Y031079D02*
X007790Y031129D01*
X007690Y031129D01*
X007640Y031079D01*
X007640Y030879D01*
X007690Y030829D01*
X007790Y030829D01*
X007840Y030879D01*
X007404Y030854D02*
X007304Y030954D01*
X007354Y030954D02*
X007204Y030954D01*
X007204Y030854D02*
X007204Y031154D01*
X007354Y031154D01*
X007404Y031104D01*
X007404Y031004D01*
X007354Y030954D01*
X007082Y030854D02*
X007082Y031154D01*
X006882Y031154D02*
X006882Y030854D01*
X006982Y030954D01*
X007082Y030854D01*
X006760Y031004D02*
X006710Y030954D01*
X006560Y030954D01*
X006560Y030854D02*
X006560Y031154D01*
X006710Y031154D01*
X006760Y031104D01*
X006760Y031004D01*
X006324Y031104D02*
X006274Y031154D01*
X006174Y031154D01*
X006124Y031104D01*
X006124Y030904D01*
X006174Y030854D01*
X006274Y030854D01*
X006324Y030904D01*
X006324Y031104D01*
X006002Y031154D02*
X005802Y030854D01*
X006002Y030854D02*
X005802Y031154D01*
X005680Y031154D02*
X005480Y031154D01*
X005580Y031154D02*
X005580Y030854D01*
X005244Y030854D02*
X005144Y030854D01*
X005194Y030854D02*
X005194Y031154D01*
X005144Y031154D02*
X005244Y031154D01*
X005022Y031154D02*
X004822Y030854D01*
X004700Y030854D02*
X004600Y030954D01*
X004650Y030954D02*
X004500Y030954D01*
X004500Y030854D02*
X004500Y031154D01*
X004650Y031154D01*
X004700Y031104D01*
X004700Y031004D01*
X004650Y030954D01*
X004822Y031154D02*
X005022Y030854D01*
X004264Y030854D02*
X004164Y030954D01*
X004214Y030954D02*
X004064Y030954D01*
X004064Y030854D02*
X004064Y031154D01*
X004214Y031154D01*
X004264Y031104D01*
X004264Y031004D01*
X004214Y030954D01*
X003942Y031154D02*
X003742Y031154D01*
X003842Y031154D02*
X003842Y030854D01*
X003620Y030904D02*
X003620Y031104D01*
X003570Y031154D01*
X003420Y031154D01*
X003420Y030854D01*
X003570Y030854D01*
X003620Y030904D01*
X003921Y028780D02*
X003921Y028730D01*
X003921Y028629D02*
X003921Y028429D01*
X003871Y028429D02*
X003971Y028429D01*
X003921Y028629D02*
X003871Y028629D01*
X003749Y028629D02*
X003749Y028429D01*
X003749Y028579D02*
X003549Y028579D01*
X003549Y028629D02*
X003649Y028730D01*
X003749Y028629D01*
X003549Y028629D02*
X003549Y028429D01*
X003516Y027658D02*
X003474Y027616D01*
X003474Y027449D01*
X003516Y027408D01*
X003599Y027408D01*
X003641Y027449D01*
X003641Y027616D01*
X003599Y027658D01*
X003516Y027658D01*
X003751Y027658D02*
X003917Y027408D01*
X003917Y027658D01*
X003751Y027658D02*
X003751Y027408D01*
X004649Y027304D02*
X004900Y027304D01*
X004408Y028429D02*
X004408Y028730D01*
X004608Y028730D01*
X004508Y028579D02*
X004408Y028579D01*
X008649Y024455D02*
X008649Y024372D01*
X008691Y024330D01*
X008691Y024221D02*
X008649Y024179D01*
X008649Y024095D01*
X008691Y024054D01*
X008858Y024054D01*
X008900Y024095D01*
X008900Y024179D01*
X008858Y024221D01*
X008900Y024330D02*
X008733Y024497D01*
X008691Y024497D01*
X008649Y024455D01*
X008900Y024497D02*
X008900Y024330D01*
X009277Y024284D02*
X009277Y024409D01*
X009319Y024451D01*
X009486Y024451D01*
X009528Y024409D01*
X009528Y024284D01*
X009277Y024284D01*
X009277Y024175D02*
X009277Y024008D01*
X009528Y024008D01*
X009528Y024175D01*
X009402Y024091D02*
X009402Y024008D01*
X009528Y023898D02*
X009528Y023731D01*
X009277Y023731D01*
X009277Y023622D02*
X009528Y023455D01*
X009528Y023346D02*
X009444Y023262D01*
X009444Y023304D02*
X009444Y023179D01*
X009528Y023179D02*
X009277Y023179D01*
X009277Y023304D01*
X009319Y023346D01*
X009402Y023346D01*
X009444Y023304D01*
X009277Y023455D02*
X009528Y023622D01*
X010992Y024051D02*
X011117Y024051D01*
X011076Y024135D01*
X011076Y024176D01*
X011117Y024218D01*
X011201Y024218D01*
X011243Y024176D01*
X011243Y024093D01*
X011201Y024051D01*
X010992Y024051D02*
X010992Y024218D01*
X010992Y024327D02*
X011159Y024327D01*
X011243Y024411D01*
X011159Y024494D01*
X010992Y024494D01*
X010982Y025354D02*
X011065Y025354D01*
X011107Y025395D01*
X011216Y025354D02*
X011383Y025354D01*
X011300Y025354D02*
X011300Y025604D01*
X011216Y025521D01*
X011107Y025562D02*
X011065Y025604D01*
X010982Y025604D01*
X010940Y025562D01*
X010940Y025395D01*
X010982Y025354D01*
X011342Y027304D02*
X011342Y027429D01*
X011384Y027471D01*
X011467Y027471D01*
X011509Y027429D01*
X011509Y027304D01*
X011509Y027387D02*
X011593Y027471D01*
X011593Y027304D02*
X011342Y027304D01*
X011101Y028429D02*
X011101Y028730D01*
X011301Y028730D01*
X011201Y028579D02*
X011101Y028579D01*
X010664Y028429D02*
X010564Y028429D01*
X010614Y028429D02*
X010614Y028629D01*
X010564Y028629D01*
X010614Y028730D02*
X010614Y028780D01*
X010442Y028629D02*
X010442Y028429D01*
X010442Y028579D02*
X010242Y028579D01*
X010242Y028629D02*
X010342Y028730D01*
X010442Y028629D01*
X010242Y028629D02*
X010242Y028429D01*
X008920Y028479D02*
X008920Y028730D01*
X010984Y022644D02*
X011026Y022644D01*
X011067Y022603D01*
X011109Y022644D01*
X011151Y022644D01*
X011193Y022603D01*
X011193Y022519D01*
X011151Y022477D01*
X011109Y022368D02*
X010942Y022368D01*
X010984Y022477D02*
X010942Y022519D01*
X010942Y022603D01*
X010984Y022644D01*
X011067Y022603D02*
X011067Y022561D01*
X011109Y022368D02*
X011193Y022285D01*
X011109Y022201D01*
X010942Y022201D01*
X010984Y022092D02*
X011026Y022092D01*
X011067Y022050D01*
X011109Y022092D01*
X011151Y022092D01*
X011193Y022050D01*
X011193Y021967D01*
X011151Y021925D01*
X011067Y022008D02*
X011067Y022050D01*
X010984Y022092D02*
X010942Y022050D01*
X010942Y021967D01*
X010984Y021925D01*
X009528Y021654D02*
X009528Y021604D01*
X009477Y021554D01*
X009528Y021504D01*
X009528Y021454D01*
X009477Y021404D01*
X009377Y021404D01*
X009327Y021454D01*
X009216Y021454D02*
X009216Y021404D01*
X009166Y021404D01*
X009166Y021454D01*
X009216Y021454D01*
X009044Y021404D02*
X008844Y021404D01*
X008944Y021404D02*
X008944Y021704D01*
X008844Y021604D01*
X008722Y021604D02*
X008622Y021404D01*
X008522Y021604D01*
X009327Y021654D02*
X009377Y021704D01*
X009477Y021704D01*
X009528Y021654D01*
X009477Y021554D02*
X009427Y021554D01*
X009443Y018404D02*
X009242Y018404D01*
X009342Y018404D02*
X009342Y018104D01*
X009120Y018154D02*
X009120Y018404D01*
X008920Y018404D02*
X008920Y018154D01*
X008970Y018104D01*
X009070Y018104D01*
X009120Y018154D01*
X008798Y018154D02*
X008798Y018354D01*
X008748Y018404D01*
X008648Y018404D01*
X008598Y018354D01*
X008598Y018154D01*
X008648Y018104D01*
X008748Y018104D01*
X008798Y018154D01*
X008476Y018104D02*
X008326Y018254D01*
X008276Y018204D02*
X008476Y018404D01*
X008276Y018404D02*
X008276Y018104D01*
X008153Y018104D02*
X008153Y018304D01*
X008053Y018404D01*
X007953Y018304D01*
X007953Y018104D01*
X007831Y018104D02*
X007631Y018104D01*
X007631Y018404D01*
X007831Y018404D01*
X007731Y018254D02*
X007631Y018254D01*
X007509Y018254D02*
X007459Y018204D01*
X007309Y018204D01*
X007409Y018204D02*
X007509Y018104D01*
X007509Y018254D02*
X007509Y018354D01*
X007459Y018404D01*
X007309Y018404D01*
X007309Y018104D01*
X007187Y018154D02*
X007187Y018204D01*
X007137Y018254D01*
X006986Y018254D01*
X006986Y018404D02*
X007137Y018404D01*
X007187Y018354D01*
X007187Y018304D01*
X007137Y018254D01*
X007187Y018154D02*
X007137Y018104D01*
X006986Y018104D01*
X006986Y018404D01*
X006542Y018104D02*
X006342Y018104D01*
X006342Y018404D01*
X006220Y018354D02*
X006220Y018254D01*
X006170Y018204D01*
X006020Y018204D01*
X006120Y018204D02*
X006220Y018104D01*
X006020Y018104D02*
X006020Y018404D01*
X006170Y018404D01*
X006220Y018354D01*
X005897Y018354D02*
X005847Y018404D01*
X005747Y018404D01*
X005697Y018354D01*
X005575Y018354D02*
X005575Y018304D01*
X005525Y018254D01*
X005575Y018204D01*
X005575Y018154D01*
X005525Y018104D01*
X005425Y018104D01*
X005375Y018154D01*
X005253Y018104D02*
X005053Y018104D01*
X005253Y018304D01*
X005253Y018354D01*
X005203Y018404D01*
X005103Y018404D01*
X005053Y018354D01*
X004931Y018404D02*
X004730Y018404D01*
X004831Y018404D02*
X004831Y018104D01*
X004822Y017878D02*
X004739Y017878D01*
X004697Y017837D01*
X004697Y017670D01*
X004739Y017628D01*
X004822Y017628D01*
X004864Y017670D01*
X004973Y017753D02*
X005098Y017878D01*
X005098Y017628D01*
X005140Y017753D02*
X004973Y017753D01*
X004864Y017837D02*
X004822Y017878D01*
X004408Y018104D02*
X004408Y018404D01*
X004608Y018404D01*
X004508Y018254D02*
X004408Y018254D01*
X003971Y018104D02*
X003871Y018104D01*
X003921Y018104D02*
X003921Y018304D01*
X003871Y018304D01*
X003921Y018404D02*
X003921Y018454D01*
X003749Y018304D02*
X003749Y018104D01*
X003749Y018254D02*
X003549Y018254D01*
X003549Y018304D02*
X003649Y018404D01*
X003749Y018304D01*
X003549Y018304D02*
X003549Y018104D01*
X003516Y017332D02*
X003474Y017291D01*
X003474Y017124D01*
X003516Y017082D01*
X003599Y017082D01*
X003641Y017124D01*
X003641Y017291D01*
X003599Y017332D01*
X003516Y017332D01*
X003751Y017332D02*
X003917Y017082D01*
X003917Y017332D01*
X003751Y017332D02*
X003751Y017082D01*
X004649Y017103D02*
X004691Y017145D01*
X004775Y017145D01*
X004816Y017103D01*
X004816Y016978D01*
X004816Y017062D02*
X004900Y017145D01*
X004900Y017254D02*
X004733Y017421D01*
X004691Y017421D01*
X004649Y017379D01*
X004649Y017296D01*
X004691Y017254D01*
X004649Y017103D02*
X004649Y016978D01*
X004900Y016978D01*
X004900Y017254D02*
X004900Y017421D01*
X005475Y018254D02*
X005525Y018254D01*
X005575Y018354D02*
X005525Y018404D01*
X005425Y018404D01*
X005375Y018354D01*
X005697Y018104D02*
X005897Y018304D01*
X005897Y018354D01*
X005897Y018104D02*
X005697Y018104D01*
X007350Y017737D02*
X007350Y017570D01*
X007391Y017528D01*
X007475Y017528D01*
X007516Y017570D01*
X007626Y017570D02*
X007668Y017528D01*
X007751Y017528D01*
X007793Y017570D01*
X007793Y017612D01*
X007751Y017653D01*
X007709Y017653D01*
X007751Y017653D02*
X007793Y017695D01*
X007793Y017737D01*
X007751Y017778D01*
X007668Y017778D01*
X007626Y017737D01*
X007516Y017737D02*
X007475Y017778D01*
X007391Y017778D01*
X007350Y017737D01*
X007953Y018254D02*
X008153Y018254D01*
X009254Y017702D02*
X009254Y017577D01*
X009504Y017577D01*
X009504Y017702D01*
X009462Y017743D01*
X009296Y017743D01*
X009254Y017702D01*
X009254Y017467D02*
X009254Y017300D01*
X009504Y017300D01*
X009504Y017467D01*
X009379Y017384D02*
X009379Y017300D01*
X009504Y017191D02*
X009504Y017024D01*
X009254Y017024D01*
X009254Y016915D02*
X009504Y016748D01*
X009504Y016915D02*
X009254Y016748D01*
X009254Y016638D02*
X009254Y016472D01*
X009254Y016555D02*
X009504Y016555D01*
X008872Y016406D02*
X008872Y016239D01*
X008872Y016322D02*
X008621Y016322D01*
X008705Y016239D01*
X008747Y016130D02*
X008788Y016088D01*
X008788Y015963D01*
X008788Y016046D02*
X008872Y016130D01*
X008747Y016130D02*
X008663Y016130D01*
X008621Y016088D01*
X008621Y015963D01*
X008872Y015963D01*
X010167Y017124D02*
X010167Y017291D01*
X010209Y017332D01*
X010292Y017332D01*
X010334Y017291D01*
X010334Y017124D01*
X010292Y017082D01*
X010209Y017082D01*
X010167Y017124D01*
X010443Y017082D02*
X010443Y017332D01*
X010610Y017082D01*
X010610Y017332D01*
X011342Y017296D02*
X011384Y017254D01*
X011342Y017296D02*
X011342Y017379D01*
X011384Y017421D01*
X011426Y017421D01*
X011593Y017254D01*
X011593Y017421D01*
X011515Y017628D02*
X011557Y017670D01*
X011515Y017628D02*
X011432Y017628D01*
X011390Y017670D01*
X011390Y017837D01*
X011432Y017878D01*
X011515Y017878D01*
X011557Y017837D01*
X011666Y017753D02*
X011791Y017878D01*
X011791Y017628D01*
X011833Y017753D02*
X011666Y017753D01*
X011746Y018104D02*
X011946Y018304D01*
X011946Y018354D01*
X011896Y018404D01*
X011796Y018404D01*
X011746Y018354D01*
X011624Y018404D02*
X011423Y018404D01*
X011523Y018404D02*
X011523Y018104D01*
X011746Y018104D02*
X011946Y018104D01*
X012068Y018154D02*
X012118Y018104D01*
X012218Y018104D01*
X012268Y018154D01*
X012268Y018204D01*
X012218Y018254D01*
X012168Y018254D01*
X012218Y018254D02*
X012268Y018304D01*
X012268Y018354D01*
X012218Y018404D01*
X012118Y018404D01*
X012068Y018354D01*
X012390Y018354D02*
X012440Y018404D01*
X012540Y018404D01*
X012590Y018354D01*
X012590Y018304D01*
X012390Y018104D01*
X012590Y018104D01*
X012713Y018104D02*
X012713Y018404D01*
X012863Y018404D01*
X012913Y018354D01*
X012913Y018254D01*
X012863Y018204D01*
X012713Y018204D01*
X012813Y018204D02*
X012913Y018104D01*
X013035Y018104D02*
X013235Y018104D01*
X013035Y018104D02*
X013035Y018404D01*
X013679Y018404D02*
X013679Y018104D01*
X013829Y018104D01*
X013880Y018154D01*
X013880Y018204D01*
X013829Y018254D01*
X013679Y018254D01*
X013679Y018404D02*
X013829Y018404D01*
X013880Y018354D01*
X013880Y018304D01*
X013829Y018254D01*
X014002Y018204D02*
X014152Y018204D01*
X014202Y018254D01*
X014202Y018354D01*
X014152Y018404D01*
X014002Y018404D01*
X014002Y018104D01*
X014102Y018204D02*
X014202Y018104D01*
X014324Y018104D02*
X014324Y018404D01*
X014524Y018404D01*
X014646Y018304D02*
X014646Y018104D01*
X014524Y018104D02*
X014324Y018104D01*
X014324Y018254D02*
X014424Y018254D01*
X014646Y018254D02*
X014846Y018254D01*
X014846Y018304D02*
X014846Y018104D01*
X014968Y018104D02*
X014968Y018404D01*
X014846Y018304D02*
X014746Y018404D01*
X014646Y018304D01*
X014968Y018204D02*
X015169Y018404D01*
X015291Y018354D02*
X015291Y018154D01*
X015341Y018104D01*
X015441Y018104D01*
X015491Y018154D01*
X015491Y018354D01*
X015441Y018404D01*
X015341Y018404D01*
X015291Y018354D01*
X015169Y018104D02*
X015018Y018254D01*
X015613Y018154D02*
X015663Y018104D01*
X015763Y018104D01*
X015813Y018154D01*
X015813Y018404D01*
X015935Y018404D02*
X016135Y018404D01*
X016035Y018404D02*
X016035Y018104D01*
X015988Y017743D02*
X015947Y017702D01*
X015947Y017577D01*
X016197Y017577D01*
X016197Y017702D01*
X016155Y017743D01*
X015988Y017743D01*
X015947Y017467D02*
X015947Y017300D01*
X016197Y017300D01*
X016197Y017467D01*
X016072Y017384D02*
X016072Y017300D01*
X016197Y017191D02*
X016197Y017024D01*
X015947Y017024D01*
X015947Y016915D02*
X016197Y016748D01*
X016197Y016915D02*
X015947Y016748D01*
X015947Y016638D02*
X015947Y016472D01*
X015947Y016555D02*
X016197Y016555D01*
X015565Y016406D02*
X015565Y016239D01*
X015565Y016322D02*
X015314Y016322D01*
X015398Y016239D01*
X015439Y016130D02*
X015481Y016088D01*
X015481Y015963D01*
X015481Y016046D02*
X015565Y016130D01*
X015439Y016130D02*
X015356Y016130D01*
X015314Y016088D01*
X015314Y015963D01*
X015565Y015963D01*
X016860Y017124D02*
X016860Y017291D01*
X016902Y017332D01*
X016985Y017332D01*
X017027Y017291D01*
X017027Y017124D01*
X016985Y017082D01*
X016902Y017082D01*
X016860Y017124D01*
X017136Y017082D02*
X017136Y017332D01*
X017303Y017082D01*
X017303Y017332D01*
X018035Y017296D02*
X018077Y017254D01*
X018035Y017296D02*
X018035Y017379D01*
X018077Y017421D01*
X018119Y017421D01*
X018285Y017254D01*
X018285Y017421D01*
X018208Y017628D02*
X018125Y017628D01*
X018083Y017670D01*
X018083Y017837D01*
X018125Y017878D01*
X018208Y017878D01*
X018250Y017837D01*
X018359Y017753D02*
X018526Y017753D01*
X018484Y017628D02*
X018484Y017878D01*
X018359Y017753D01*
X018250Y017670D02*
X018208Y017628D01*
X018216Y018104D02*
X018216Y018404D01*
X018116Y018404D02*
X018316Y018404D01*
X018439Y018354D02*
X018489Y018404D01*
X018589Y018404D01*
X018639Y018354D01*
X018639Y018304D01*
X018439Y018104D01*
X018639Y018104D01*
X018761Y018154D02*
X018811Y018104D01*
X018911Y018104D01*
X018961Y018154D01*
X018961Y018204D01*
X018911Y018254D01*
X018861Y018254D01*
X018911Y018254D02*
X018961Y018304D01*
X018961Y018354D01*
X018911Y018404D01*
X018811Y018404D01*
X018761Y018354D01*
X019083Y018354D02*
X019133Y018404D01*
X019233Y018404D01*
X019283Y018354D01*
X019283Y018304D01*
X019083Y018104D01*
X019283Y018104D01*
X019405Y018104D02*
X019405Y018404D01*
X019556Y018404D01*
X019606Y018354D01*
X019606Y018254D01*
X019556Y018204D01*
X019405Y018204D01*
X019506Y018204D02*
X019606Y018104D01*
X019728Y018104D02*
X019928Y018104D01*
X019728Y018104D02*
X019728Y018404D01*
X020372Y018404D02*
X020372Y018104D01*
X020522Y018104D01*
X020572Y018154D01*
X020572Y018204D01*
X020522Y018254D01*
X020372Y018254D01*
X020372Y018404D02*
X020522Y018404D01*
X020572Y018354D01*
X020572Y018304D01*
X020522Y018254D01*
X020695Y018204D02*
X020845Y018204D01*
X020895Y018254D01*
X020895Y018354D01*
X020845Y018404D01*
X020695Y018404D01*
X020695Y018104D01*
X020795Y018204D02*
X020895Y018104D01*
X021017Y018104D02*
X021217Y018104D01*
X021339Y018104D02*
X021339Y018304D01*
X021439Y018404D01*
X021539Y018304D01*
X021539Y018104D01*
X021661Y018104D02*
X021661Y018404D01*
X021711Y018254D02*
X021862Y018104D01*
X021984Y018154D02*
X022034Y018104D01*
X022134Y018104D01*
X022184Y018154D01*
X022184Y018354D01*
X022134Y018404D01*
X022034Y018404D01*
X021984Y018354D01*
X021984Y018154D01*
X021862Y018404D02*
X021661Y018204D01*
X021539Y018254D02*
X021339Y018254D01*
X021217Y018404D02*
X021017Y018404D01*
X021017Y018104D01*
X021017Y018254D02*
X021117Y018254D01*
X021137Y017778D02*
X021178Y017737D01*
X021178Y017695D01*
X021137Y017653D01*
X021178Y017612D01*
X021178Y017570D01*
X021137Y017528D01*
X021053Y017528D01*
X021012Y017570D01*
X020902Y017570D02*
X020861Y017528D01*
X020777Y017528D01*
X020735Y017570D01*
X020735Y017737D01*
X020777Y017778D01*
X020861Y017778D01*
X020902Y017737D01*
X021012Y017737D02*
X021053Y017778D01*
X021137Y017778D01*
X021137Y017653D02*
X021095Y017653D01*
X022306Y018154D02*
X022356Y018104D01*
X022456Y018104D01*
X022506Y018154D01*
X022506Y018404D01*
X022628Y018404D02*
X022828Y018404D01*
X022728Y018404D02*
X022728Y018104D01*
X022681Y017743D02*
X022640Y017702D01*
X022640Y017577D01*
X022890Y017577D01*
X022890Y017702D01*
X022848Y017743D01*
X022681Y017743D01*
X022640Y017467D02*
X022640Y017300D01*
X022890Y017300D01*
X022890Y017467D01*
X022765Y017384D02*
X022765Y017300D01*
X022890Y017191D02*
X022890Y017024D01*
X022640Y017024D01*
X022640Y016915D02*
X022890Y016748D01*
X022890Y016915D02*
X022640Y016748D01*
X022640Y016638D02*
X022640Y016472D01*
X022640Y016555D02*
X022890Y016555D01*
X022257Y016406D02*
X022257Y016239D01*
X022257Y016322D02*
X022007Y016322D01*
X022091Y016239D01*
X022049Y016130D02*
X022132Y016130D01*
X022174Y016088D01*
X022174Y015963D01*
X022174Y016046D02*
X022257Y016130D01*
X022257Y015963D02*
X022007Y015963D01*
X022007Y016088D01*
X022049Y016130D01*
X022077Y014171D02*
X022035Y014129D01*
X022035Y014046D01*
X022077Y014004D01*
X022077Y013895D02*
X022035Y013853D01*
X022035Y013770D01*
X022077Y013728D01*
X022244Y013728D01*
X022285Y013770D01*
X022285Y013853D01*
X022244Y013895D01*
X022285Y014004D02*
X022119Y014171D01*
X022077Y014171D01*
X022285Y014171D02*
X022285Y014004D01*
X022663Y013958D02*
X022663Y014083D01*
X022705Y014125D01*
X022872Y014125D01*
X022913Y014083D01*
X022913Y013958D01*
X022663Y013958D01*
X022663Y013849D02*
X022663Y013682D01*
X022913Y013682D01*
X022913Y013849D01*
X022788Y013766D02*
X022788Y013682D01*
X022913Y013573D02*
X022913Y013406D01*
X022663Y013406D01*
X022663Y013296D02*
X022913Y013130D01*
X022913Y013020D02*
X022830Y012937D01*
X022830Y012979D02*
X022830Y012853D01*
X022913Y012853D02*
X022663Y012853D01*
X022663Y012979D01*
X022705Y013020D01*
X022788Y013020D01*
X022830Y012979D01*
X022663Y013130D02*
X022913Y013296D01*
X024378Y013726D02*
X024503Y013726D01*
X024462Y013809D01*
X024462Y013851D01*
X024503Y013892D01*
X024587Y013892D01*
X024628Y013851D01*
X024628Y013767D01*
X024587Y013726D01*
X024378Y013726D02*
X024378Y013892D01*
X024378Y014002D02*
X024545Y014002D01*
X024628Y014085D01*
X024545Y014169D01*
X024378Y014169D01*
X024368Y015028D02*
X024451Y015028D01*
X024493Y015070D01*
X024602Y015028D02*
X024769Y015028D01*
X024686Y015028D02*
X024686Y015278D01*
X024602Y015195D01*
X024493Y015237D02*
X024451Y015278D01*
X024368Y015278D01*
X024326Y015237D01*
X024326Y015070D01*
X024368Y015028D01*
X024370Y012319D02*
X024412Y012319D01*
X024453Y012277D01*
X024495Y012319D01*
X024537Y012319D01*
X024578Y012277D01*
X024578Y012194D01*
X024537Y012152D01*
X024495Y012042D02*
X024328Y012042D01*
X024370Y012152D02*
X024328Y012194D01*
X024328Y012277D01*
X024370Y012319D01*
X024453Y012277D02*
X024453Y012235D01*
X024495Y012042D02*
X024578Y011959D01*
X024495Y011876D01*
X024328Y011876D01*
X024370Y011766D02*
X024412Y011766D01*
X024453Y011725D01*
X024495Y011766D01*
X024537Y011766D01*
X024578Y011725D01*
X024578Y011641D01*
X024537Y011599D01*
X024453Y011683D02*
X024453Y011725D01*
X024370Y011766D02*
X024328Y011725D01*
X024328Y011641D01*
X024370Y011599D01*
X021548Y010478D02*
X021348Y010478D01*
X021448Y010478D02*
X021448Y010178D01*
X021226Y010228D02*
X021176Y010178D01*
X021075Y010178D01*
X021025Y010228D01*
X021025Y010428D01*
X021075Y010478D01*
X021176Y010478D01*
X021226Y010428D01*
X020790Y010453D02*
X020790Y010353D01*
X020740Y010303D01*
X020590Y010303D01*
X020690Y010303D02*
X020790Y010203D01*
X020590Y010203D02*
X020590Y010503D01*
X020740Y010503D01*
X020790Y010453D01*
X020468Y010503D02*
X020468Y010203D01*
X020368Y010303D01*
X020268Y010203D01*
X020268Y010503D01*
X020146Y010453D02*
X020146Y010353D01*
X020096Y010303D01*
X019945Y010303D01*
X019945Y010203D02*
X019945Y010503D01*
X020096Y010503D01*
X020146Y010453D01*
X019710Y010453D02*
X019660Y010503D01*
X019560Y010503D01*
X019510Y010453D01*
X019510Y010253D01*
X019560Y010203D01*
X019660Y010203D01*
X019710Y010253D01*
X019710Y010453D01*
X019388Y010503D02*
X019188Y010203D01*
X019388Y010203D02*
X019188Y010503D01*
X019066Y010503D02*
X018865Y010503D01*
X018966Y010503D02*
X018966Y010203D01*
X018630Y010203D02*
X018530Y010203D01*
X018580Y010203D02*
X018580Y010503D01*
X018530Y010503D02*
X018630Y010503D01*
X018408Y010503D02*
X018208Y010203D01*
X018086Y010203D02*
X017986Y010303D01*
X018036Y010303D02*
X017885Y010303D01*
X017885Y010203D02*
X017885Y010503D01*
X018036Y010503D01*
X018086Y010453D01*
X018086Y010353D01*
X018036Y010303D01*
X018208Y010503D02*
X018408Y010203D01*
X017650Y010203D02*
X017550Y010303D01*
X017600Y010303D02*
X017450Y010303D01*
X017450Y010203D02*
X017450Y010503D01*
X017600Y010503D01*
X017650Y010453D01*
X017650Y010353D01*
X017600Y010303D01*
X017328Y010503D02*
X017128Y010503D01*
X017228Y010503D02*
X017228Y010203D01*
X017006Y010253D02*
X017006Y010453D01*
X016956Y010503D01*
X016805Y010503D01*
X016805Y010203D01*
X016956Y010203D01*
X017006Y010253D01*
X016262Y010253D02*
X016262Y010453D01*
X016212Y010503D01*
X016062Y010503D01*
X016062Y010203D01*
X016212Y010203D01*
X016262Y010253D01*
X015940Y010203D02*
X015940Y010503D01*
X015740Y010503D02*
X015940Y010203D01*
X015740Y010203D02*
X015740Y010503D01*
X015618Y010453D02*
X015568Y010503D01*
X015468Y010503D01*
X015418Y010453D01*
X015418Y010253D01*
X015468Y010203D01*
X015568Y010203D01*
X015618Y010253D01*
X015618Y010353D01*
X015518Y010353D01*
X015177Y010428D02*
X015127Y010478D01*
X015027Y010478D01*
X014977Y010428D01*
X014977Y010378D01*
X015027Y010328D01*
X015127Y010328D01*
X015177Y010278D01*
X015177Y010228D01*
X015127Y010178D01*
X015027Y010178D01*
X014977Y010228D01*
X014755Y010178D02*
X014755Y010478D01*
X014655Y010478D02*
X014855Y010478D01*
X014533Y010428D02*
X014483Y010478D01*
X014383Y010478D01*
X014333Y010428D01*
X014333Y010228D01*
X014383Y010178D01*
X014483Y010178D01*
X014533Y010228D01*
X014097Y010203D02*
X013997Y010303D01*
X014047Y010303D02*
X013897Y010303D01*
X013897Y010203D02*
X013897Y010503D01*
X014047Y010503D01*
X014097Y010453D01*
X014097Y010353D01*
X014047Y010303D01*
X013775Y010203D02*
X013775Y010503D01*
X013575Y010503D02*
X013575Y010203D01*
X013675Y010303D01*
X013775Y010203D01*
X013453Y010353D02*
X013403Y010303D01*
X013253Y010303D01*
X013253Y010203D02*
X013253Y010503D01*
X013403Y010503D01*
X013453Y010453D01*
X013453Y010353D01*
X013017Y010453D02*
X012967Y010503D01*
X012867Y010503D01*
X012817Y010453D01*
X012817Y010253D01*
X012867Y010203D01*
X012967Y010203D01*
X013017Y010253D01*
X013017Y010453D01*
X012695Y010503D02*
X012495Y010203D01*
X012695Y010203D02*
X012495Y010503D01*
X012373Y010503D02*
X012173Y010503D01*
X012273Y010503D02*
X012273Y010203D01*
X011937Y010203D02*
X011837Y010203D01*
X011887Y010203D02*
X011887Y010503D01*
X011837Y010503D02*
X011937Y010503D01*
X011715Y010503D02*
X011515Y010203D01*
X011393Y010203D02*
X011293Y010303D01*
X011343Y010303D02*
X011193Y010303D01*
X011193Y010203D02*
X011193Y010503D01*
X011343Y010503D01*
X011393Y010453D01*
X011393Y010353D01*
X011343Y010303D01*
X011515Y010503D02*
X011715Y010203D01*
X010957Y010203D02*
X010857Y010303D01*
X010907Y010303D02*
X010757Y010303D01*
X010757Y010203D02*
X010757Y010503D01*
X010907Y010503D01*
X010957Y010453D01*
X010957Y010353D01*
X010907Y010303D01*
X010635Y010503D02*
X010435Y010503D01*
X010535Y010503D02*
X010535Y010203D01*
X010313Y010253D02*
X010313Y010453D01*
X010263Y010503D01*
X010113Y010503D01*
X010113Y010203D01*
X010263Y010203D01*
X010313Y010253D01*
X009569Y010253D02*
X009569Y010453D01*
X009519Y010503D01*
X009369Y010503D01*
X009369Y010203D01*
X009519Y010203D01*
X009569Y010253D01*
X009247Y010203D02*
X009247Y010503D01*
X009047Y010503D02*
X009247Y010203D01*
X009047Y010203D02*
X009047Y010503D01*
X008925Y010453D02*
X008875Y010503D01*
X008775Y010503D01*
X008725Y010453D01*
X008725Y010253D01*
X008775Y010203D01*
X008875Y010203D01*
X008925Y010253D01*
X008925Y010353D01*
X008825Y010353D01*
X008484Y010428D02*
X008434Y010478D01*
X008334Y010478D01*
X008284Y010428D01*
X008284Y010378D01*
X008334Y010328D01*
X008434Y010328D01*
X008484Y010278D01*
X008484Y010228D01*
X008434Y010178D01*
X008334Y010178D01*
X008284Y010228D01*
X008062Y010178D02*
X008062Y010478D01*
X007962Y010478D02*
X008162Y010478D01*
X007840Y010428D02*
X007790Y010478D01*
X007690Y010478D01*
X007640Y010428D01*
X007640Y010228D01*
X007690Y010178D01*
X007790Y010178D01*
X007840Y010228D01*
X007404Y010203D02*
X007304Y010303D01*
X007354Y010303D02*
X007204Y010303D01*
X007204Y010203D02*
X007204Y010503D01*
X007354Y010503D01*
X007404Y010453D01*
X007404Y010353D01*
X007354Y010303D01*
X007082Y010203D02*
X007082Y010503D01*
X006882Y010503D02*
X006882Y010203D01*
X006982Y010303D01*
X007082Y010203D01*
X006760Y010353D02*
X006710Y010303D01*
X006560Y010303D01*
X006560Y010203D02*
X006560Y010503D01*
X006710Y010503D01*
X006760Y010453D01*
X006760Y010353D01*
X006324Y010453D02*
X006274Y010503D01*
X006174Y010503D01*
X006124Y010453D01*
X006124Y010253D01*
X006174Y010203D01*
X006274Y010203D01*
X006324Y010253D01*
X006324Y010453D01*
X006002Y010503D02*
X005802Y010203D01*
X006002Y010203D02*
X005802Y010503D01*
X005680Y010503D02*
X005480Y010503D01*
X005580Y010503D02*
X005580Y010203D01*
X005244Y010203D02*
X005144Y010203D01*
X005194Y010203D02*
X005194Y010503D01*
X005144Y010503D02*
X005244Y010503D01*
X005022Y010503D02*
X004822Y010203D01*
X004700Y010203D02*
X004600Y010303D01*
X004650Y010303D02*
X004500Y010303D01*
X004500Y010203D02*
X004500Y010503D01*
X004650Y010503D01*
X004700Y010453D01*
X004700Y010353D01*
X004650Y010303D01*
X004822Y010503D02*
X005022Y010203D01*
X004264Y010203D02*
X004164Y010303D01*
X004214Y010303D02*
X004064Y010303D01*
X004064Y010203D02*
X004064Y010503D01*
X004214Y010503D01*
X004264Y010453D01*
X004264Y010353D01*
X004214Y010303D01*
X003942Y010503D02*
X003742Y010503D01*
X003842Y010503D02*
X003842Y010203D01*
X003620Y010253D02*
X003620Y010453D01*
X003570Y010503D01*
X003420Y010503D01*
X003420Y010203D01*
X003570Y010203D01*
X003620Y010253D01*
X004291Y011599D02*
X004249Y011641D01*
X004249Y011725D01*
X004291Y011766D01*
X004333Y011766D01*
X004375Y011725D01*
X004416Y011766D01*
X004458Y011766D01*
X004500Y011725D01*
X004500Y011641D01*
X004458Y011599D01*
X004375Y011683D02*
X004375Y011725D01*
X004416Y011876D02*
X004249Y011876D01*
X004249Y012042D02*
X004416Y012042D01*
X004500Y011959D01*
X004416Y011876D01*
X004458Y012152D02*
X004500Y012194D01*
X004500Y012277D01*
X004458Y012319D01*
X004416Y012319D01*
X004375Y012277D01*
X004375Y012235D01*
X004375Y012277D02*
X004333Y012319D01*
X004291Y012319D01*
X004249Y012277D01*
X004249Y012194D01*
X004291Y012152D01*
X004299Y013726D02*
X004425Y013726D01*
X004383Y013809D01*
X004383Y013851D01*
X004425Y013892D01*
X004508Y013892D01*
X004550Y013851D01*
X004550Y013767D01*
X004508Y013726D01*
X004299Y013726D02*
X004299Y013892D01*
X004299Y014002D02*
X004466Y014002D01*
X004550Y014085D01*
X004466Y014169D01*
X004299Y014169D01*
X004289Y015028D02*
X004372Y015028D01*
X004414Y015070D01*
X004523Y015028D02*
X004690Y015028D01*
X004607Y015028D02*
X004607Y015278D01*
X004523Y015195D01*
X004414Y015237D02*
X004372Y015278D01*
X004289Y015278D01*
X004247Y015237D01*
X004247Y015070D01*
X004289Y015028D01*
X008522Y011278D02*
X008622Y011078D01*
X008722Y011278D01*
X008844Y011278D02*
X008944Y011378D01*
X008944Y011078D01*
X008844Y011078D02*
X009044Y011078D01*
X009166Y011078D02*
X009216Y011078D01*
X009216Y011128D01*
X009166Y011128D01*
X009166Y011078D01*
X009327Y011128D02*
X009377Y011078D01*
X009477Y011078D01*
X009528Y011128D01*
X009528Y011178D01*
X009477Y011228D01*
X009427Y011228D01*
X009477Y011228D02*
X009528Y011278D01*
X009528Y011328D01*
X009477Y011378D01*
X009377Y011378D01*
X009327Y011328D01*
X009277Y012853D02*
X009277Y012979D01*
X009319Y013020D01*
X009402Y013020D01*
X009444Y012979D01*
X009444Y012853D01*
X009528Y012853D02*
X009277Y012853D01*
X009444Y012937D02*
X009528Y013020D01*
X009528Y013130D02*
X009277Y013296D01*
X009277Y013406D02*
X009528Y013406D01*
X009528Y013573D01*
X009528Y013682D02*
X009528Y013849D01*
X009528Y013958D02*
X009528Y014083D01*
X009486Y014125D01*
X009319Y014125D01*
X009277Y014083D01*
X009277Y013958D01*
X009528Y013958D01*
X009402Y013766D02*
X009402Y013682D01*
X009277Y013682D02*
X009528Y013682D01*
X009277Y013682D02*
X009277Y013849D01*
X008900Y013853D02*
X008858Y013895D01*
X008900Y013853D02*
X008900Y013770D01*
X008858Y013728D01*
X008691Y013728D01*
X008649Y013770D01*
X008649Y013853D01*
X008691Y013895D01*
X008691Y014004D02*
X008649Y014046D01*
X008649Y014129D01*
X008691Y014171D01*
X008733Y014171D01*
X008900Y014004D01*
X008900Y014171D01*
X009528Y013296D02*
X009277Y013130D01*
X010992Y013726D02*
X011117Y013726D01*
X011076Y013809D01*
X011076Y013851D01*
X011117Y013892D01*
X011201Y013892D01*
X011243Y013851D01*
X011243Y013767D01*
X011201Y013726D01*
X010992Y013726D02*
X010992Y013892D01*
X010992Y014002D02*
X011159Y014002D01*
X011243Y014085D01*
X011159Y014169D01*
X010992Y014169D01*
X010982Y015028D02*
X011065Y015028D01*
X011107Y015070D01*
X011216Y015028D02*
X011383Y015028D01*
X011300Y015028D02*
X011300Y015278D01*
X011216Y015195D01*
X011107Y015237D02*
X011065Y015278D01*
X010982Y015278D01*
X010940Y015237D01*
X010940Y015070D01*
X010982Y015028D01*
X011342Y016978D02*
X011342Y017103D01*
X011384Y017145D01*
X011467Y017145D01*
X011509Y017103D01*
X011509Y016978D01*
X011593Y016978D02*
X011342Y016978D01*
X011509Y017062D02*
X011593Y017145D01*
X011101Y018104D02*
X011101Y018404D01*
X011301Y018404D01*
X011201Y018254D02*
X011101Y018254D01*
X010664Y018104D02*
X010564Y018104D01*
X010614Y018104D02*
X010614Y018304D01*
X010564Y018304D01*
X010614Y018404D02*
X010614Y018454D01*
X010442Y018304D02*
X010442Y018104D01*
X010442Y018254D02*
X010242Y018254D01*
X010242Y018304D02*
X010342Y018404D01*
X010442Y018304D01*
X010242Y018304D02*
X010242Y018104D01*
X014043Y017737D02*
X014043Y017570D01*
X014084Y017528D01*
X014168Y017528D01*
X014209Y017570D01*
X014319Y017570D02*
X014360Y017528D01*
X014444Y017528D01*
X014486Y017570D01*
X014486Y017612D01*
X014444Y017653D01*
X014402Y017653D01*
X014444Y017653D02*
X014486Y017695D01*
X014486Y017737D01*
X014444Y017778D01*
X014360Y017778D01*
X014319Y017737D01*
X014209Y017737D02*
X014168Y017778D01*
X014084Y017778D01*
X014043Y017737D01*
X015613Y018154D02*
X015613Y018404D01*
X016935Y018304D02*
X016935Y018104D01*
X016935Y018254D02*
X017135Y018254D01*
X017135Y018304D02*
X017135Y018104D01*
X017257Y018104D02*
X017357Y018104D01*
X017307Y018104D02*
X017307Y018304D01*
X017257Y018304D01*
X017307Y018404D02*
X017307Y018454D01*
X017135Y018304D02*
X017035Y018404D01*
X016935Y018304D01*
X017794Y018254D02*
X017894Y018254D01*
X017794Y018404D02*
X017994Y018404D01*
X017794Y018404D02*
X017794Y018104D01*
X018077Y017145D02*
X018160Y017145D01*
X018202Y017103D01*
X018202Y016978D01*
X018285Y016978D02*
X018035Y016978D01*
X018035Y017103D01*
X018077Y017145D01*
X018202Y017062D02*
X018285Y017145D01*
X017993Y015278D02*
X017993Y015028D01*
X018076Y015028D02*
X017909Y015028D01*
X017800Y015070D02*
X017758Y015028D01*
X017675Y015028D01*
X017633Y015070D01*
X017633Y015237D01*
X017675Y015278D01*
X017758Y015278D01*
X017800Y015237D01*
X017909Y015195D02*
X017993Y015278D01*
X017852Y014169D02*
X017685Y014169D01*
X017852Y014169D02*
X017935Y014085D01*
X017852Y014002D01*
X017685Y014002D01*
X017685Y013892D02*
X017685Y013726D01*
X017810Y013726D01*
X017769Y013809D01*
X017769Y013851D01*
X017810Y013892D01*
X017894Y013892D01*
X017935Y013851D01*
X017935Y013767D01*
X017894Y013726D01*
X017844Y012319D02*
X017802Y012319D01*
X017760Y012277D01*
X017760Y012235D01*
X017760Y012277D02*
X017719Y012319D01*
X017677Y012319D01*
X017635Y012277D01*
X017635Y012194D01*
X017677Y012152D01*
X017635Y012042D02*
X017802Y012042D01*
X017885Y011959D01*
X017802Y011876D01*
X017635Y011876D01*
X017677Y011766D02*
X017719Y011766D01*
X017760Y011725D01*
X017802Y011766D01*
X017844Y011766D01*
X017885Y011725D01*
X017885Y011641D01*
X017844Y011599D01*
X017760Y011683D02*
X017760Y011725D01*
X017677Y011766D02*
X017635Y011725D01*
X017635Y011641D01*
X017677Y011599D01*
X017844Y012152D02*
X017885Y012194D01*
X017885Y012277D01*
X017844Y012319D01*
X016220Y012853D02*
X015970Y012853D01*
X015970Y012979D01*
X016012Y013020D01*
X016095Y013020D01*
X016137Y012979D01*
X016137Y012853D01*
X016137Y012937D02*
X016220Y013020D01*
X016220Y013130D02*
X015970Y013296D01*
X015970Y013406D02*
X016220Y013406D01*
X016220Y013573D01*
X016220Y013682D02*
X016220Y013849D01*
X016220Y013958D02*
X016220Y014083D01*
X016179Y014125D01*
X016012Y014125D01*
X015970Y014083D01*
X015970Y013958D01*
X016220Y013958D01*
X016095Y013766D02*
X016095Y013682D01*
X015970Y013682D02*
X016220Y013682D01*
X015970Y013682D02*
X015970Y013849D01*
X015593Y013853D02*
X015551Y013895D01*
X015593Y013853D02*
X015593Y013770D01*
X015551Y013728D01*
X015384Y013728D01*
X015342Y013770D01*
X015342Y013853D01*
X015384Y013895D01*
X015384Y014004D02*
X015342Y014046D01*
X015342Y014129D01*
X015384Y014171D01*
X015426Y014171D01*
X015593Y014004D01*
X015593Y014171D01*
X016220Y013296D02*
X015970Y013130D01*
X016070Y011378D02*
X016170Y011378D01*
X016220Y011328D01*
X016220Y011278D01*
X016170Y011228D01*
X016220Y011178D01*
X016220Y011128D01*
X016170Y011078D01*
X016070Y011078D01*
X016020Y011128D01*
X015909Y011128D02*
X015909Y011078D01*
X015859Y011078D01*
X015859Y011128D01*
X015909Y011128D01*
X015737Y011078D02*
X015537Y011078D01*
X015637Y011078D02*
X015637Y011378D01*
X015537Y011278D01*
X015415Y011278D02*
X015315Y011078D01*
X015215Y011278D01*
X016020Y011328D02*
X016070Y011378D01*
X016120Y011228D02*
X016170Y011228D01*
X015613Y008078D02*
X015613Y007828D01*
X014486Y007411D02*
X014486Y007369D01*
X014444Y007328D01*
X014486Y007286D01*
X014486Y007244D01*
X014444Y007203D01*
X014360Y007203D01*
X014319Y007244D01*
X014209Y007244D02*
X014168Y007203D01*
X014084Y007203D01*
X014043Y007244D01*
X014043Y007411D01*
X014084Y007453D01*
X014168Y007453D01*
X014209Y007411D01*
X014319Y007411D02*
X014360Y007453D01*
X014444Y007453D01*
X014486Y007411D01*
X014444Y007328D02*
X014402Y007328D01*
X016935Y007778D02*
X016935Y007978D01*
X017035Y008078D01*
X017135Y007978D01*
X017135Y007778D01*
X017257Y007778D02*
X017357Y007778D01*
X017307Y007778D02*
X017307Y007978D01*
X017257Y007978D01*
X017307Y008078D02*
X017307Y008128D01*
X017135Y007928D02*
X016935Y007928D01*
X017794Y007928D02*
X017894Y007928D01*
X017794Y007778D02*
X017794Y008078D01*
X017994Y008078D01*
X018077Y006819D02*
X018160Y006819D01*
X018202Y006778D01*
X018202Y006653D01*
X018202Y006736D02*
X018285Y006819D01*
X018285Y006653D02*
X018035Y006653D01*
X018035Y006778D01*
X018077Y006819D01*
X017993Y004953D02*
X017993Y004703D01*
X018076Y004703D02*
X017909Y004703D01*
X017800Y004744D02*
X017758Y004703D01*
X017675Y004703D01*
X017633Y004744D01*
X017633Y004911D01*
X017675Y004953D01*
X017758Y004953D01*
X017800Y004911D01*
X017909Y004869D02*
X017993Y004953D01*
X017852Y003843D02*
X017685Y003843D01*
X017685Y003676D02*
X017852Y003676D01*
X017935Y003760D01*
X017852Y003843D01*
X017810Y003567D02*
X017894Y003567D01*
X017935Y003525D01*
X017935Y003442D01*
X017894Y003400D01*
X017810Y003400D02*
X017769Y003483D01*
X017769Y003525D01*
X017810Y003567D01*
X017685Y003567D02*
X017685Y003400D01*
X017810Y003400D01*
X017802Y001993D02*
X017844Y001993D01*
X017885Y001951D01*
X017885Y001868D01*
X017844Y001826D01*
X017802Y001717D02*
X017885Y001633D01*
X017802Y001550D01*
X017635Y001550D01*
X017677Y001441D02*
X017719Y001441D01*
X017760Y001399D01*
X017802Y001441D01*
X017844Y001441D01*
X017885Y001399D01*
X017885Y001316D01*
X017844Y001274D01*
X017760Y001357D02*
X017760Y001399D01*
X017677Y001441D02*
X017635Y001399D01*
X017635Y001316D01*
X017677Y001274D01*
X017635Y001717D02*
X017802Y001717D01*
X017677Y001826D02*
X017635Y001868D01*
X017635Y001951D01*
X017677Y001993D01*
X017719Y001993D01*
X017760Y001951D01*
X017802Y001993D01*
X017760Y001951D02*
X017760Y001910D01*
X016220Y002528D02*
X015970Y002528D01*
X015970Y002653D01*
X016012Y002695D01*
X016095Y002695D01*
X016137Y002653D01*
X016137Y002528D01*
X016137Y002611D02*
X016220Y002695D01*
X016220Y002804D02*
X015970Y002971D01*
X015970Y003080D02*
X016220Y003080D01*
X016220Y003247D01*
X016220Y003357D02*
X016220Y003523D01*
X016220Y003633D02*
X016220Y003758D01*
X016179Y003800D01*
X016012Y003800D01*
X015970Y003758D01*
X015970Y003633D01*
X016220Y003633D01*
X016095Y003440D02*
X016095Y003357D01*
X015970Y003357D02*
X016220Y003357D01*
X015970Y003357D02*
X015970Y003523D01*
X015593Y003528D02*
X015593Y003444D01*
X015551Y003403D01*
X015384Y003403D01*
X015342Y003444D01*
X015342Y003528D01*
X015384Y003569D01*
X015384Y003679D02*
X015342Y003720D01*
X015342Y003804D01*
X015384Y003846D01*
X015426Y003846D01*
X015593Y003679D01*
X015593Y003846D01*
X015551Y003569D02*
X015593Y003528D01*
X015970Y002804D02*
X016220Y002971D01*
X016170Y001053D02*
X016220Y001003D01*
X016220Y000953D01*
X016170Y000903D01*
X016220Y000853D01*
X016220Y000803D01*
X016170Y000753D01*
X016070Y000753D01*
X016020Y000803D01*
X015909Y000803D02*
X015909Y000753D01*
X015859Y000753D01*
X015859Y000803D01*
X015909Y000803D01*
X015737Y000753D02*
X015537Y000753D01*
X015637Y000753D02*
X015637Y001053D01*
X015537Y000953D01*
X015415Y000953D02*
X015315Y000753D01*
X015215Y000953D01*
X016020Y001003D02*
X016070Y001053D01*
X016170Y001053D01*
X016170Y000903D02*
X016120Y000903D01*
X011243Y003442D02*
X011201Y003400D01*
X011243Y003442D02*
X011243Y003525D01*
X011201Y003567D01*
X011117Y003567D01*
X011076Y003525D01*
X011076Y003483D01*
X011117Y003400D01*
X010992Y003400D01*
X010992Y003567D01*
X010992Y003676D02*
X011159Y003676D01*
X011243Y003760D01*
X011159Y003843D01*
X010992Y003843D01*
X010982Y004703D02*
X011065Y004703D01*
X011107Y004744D01*
X011216Y004703D02*
X011383Y004703D01*
X011300Y004703D02*
X011300Y004953D01*
X011216Y004869D01*
X011107Y004911D02*
X011065Y004953D01*
X010982Y004953D01*
X010940Y004911D01*
X010940Y004744D01*
X010982Y004703D01*
X009528Y003758D02*
X009486Y003800D01*
X009319Y003800D01*
X009277Y003758D01*
X009277Y003633D01*
X009528Y003633D01*
X009528Y003758D01*
X009528Y003523D02*
X009528Y003357D01*
X009277Y003357D01*
X009277Y003523D01*
X009402Y003440D02*
X009402Y003357D01*
X009528Y003247D02*
X009528Y003080D01*
X009277Y003080D01*
X009277Y002971D02*
X009528Y002804D01*
X009528Y002695D02*
X009444Y002611D01*
X009444Y002653D02*
X009444Y002528D01*
X009528Y002528D02*
X009277Y002528D01*
X009277Y002653D01*
X009319Y002695D01*
X009402Y002695D01*
X009444Y002653D01*
X009277Y002804D02*
X009528Y002971D01*
X008900Y003444D02*
X008900Y003528D01*
X008858Y003569D01*
X008900Y003679D02*
X008733Y003846D01*
X008691Y003846D01*
X008649Y003804D01*
X008649Y003720D01*
X008691Y003679D01*
X008691Y003569D02*
X008649Y003528D01*
X008649Y003444D01*
X008691Y003403D01*
X008858Y003403D01*
X008900Y003444D01*
X008900Y003679D02*
X008900Y003846D01*
X010942Y001951D02*
X010942Y001868D01*
X010984Y001826D01*
X010942Y001717D02*
X011109Y001717D01*
X011193Y001633D01*
X011109Y001550D01*
X010942Y001550D01*
X010984Y001441D02*
X011026Y001441D01*
X011067Y001399D01*
X011109Y001441D01*
X011151Y001441D01*
X011193Y001399D01*
X011193Y001316D01*
X011151Y001274D01*
X011067Y001357D02*
X011067Y001399D01*
X010984Y001441D02*
X010942Y001399D01*
X010942Y001316D01*
X010984Y001274D01*
X011151Y001826D02*
X011193Y001868D01*
X011193Y001951D01*
X011151Y001993D01*
X011109Y001993D01*
X011067Y001951D01*
X011067Y001910D01*
X011067Y001951D02*
X011026Y001993D01*
X010984Y001993D01*
X010942Y001951D01*
X009528Y001003D02*
X009528Y000953D01*
X009477Y000903D01*
X009528Y000853D01*
X009528Y000803D01*
X009477Y000753D01*
X009377Y000753D01*
X009327Y000803D01*
X009216Y000803D02*
X009216Y000753D01*
X009166Y000753D01*
X009166Y000803D01*
X009216Y000803D01*
X009044Y000753D02*
X008844Y000753D01*
X008944Y000753D02*
X008944Y001053D01*
X008844Y000953D01*
X008722Y000953D02*
X008622Y000753D01*
X008522Y000953D01*
X009327Y001003D02*
X009377Y001053D01*
X009477Y001053D01*
X009528Y001003D01*
X009477Y000903D02*
X009427Y000903D01*
X011342Y006653D02*
X011342Y006778D01*
X011384Y006819D01*
X011467Y006819D01*
X011509Y006778D01*
X011509Y006653D01*
X011509Y006736D02*
X011593Y006819D01*
X011593Y006653D02*
X011342Y006653D01*
X011101Y007778D02*
X011101Y008078D01*
X011301Y008078D01*
X011201Y007928D02*
X011101Y007928D01*
X010664Y007778D02*
X010564Y007778D01*
X010614Y007778D02*
X010614Y007978D01*
X010564Y007978D01*
X010614Y008078D02*
X010614Y008128D01*
X010442Y007978D02*
X010442Y007778D01*
X010442Y007928D02*
X010242Y007928D01*
X010242Y007978D02*
X010242Y007778D01*
X010242Y007978D02*
X010342Y008078D01*
X010442Y007978D01*
X008920Y008078D02*
X008920Y007828D01*
X010984Y011599D02*
X010942Y011641D01*
X010942Y011725D01*
X010984Y011766D01*
X011026Y011766D01*
X011067Y011725D01*
X011109Y011766D01*
X011151Y011766D01*
X011193Y011725D01*
X011193Y011641D01*
X011151Y011599D01*
X011067Y011683D02*
X011067Y011725D01*
X011109Y011876D02*
X011193Y011959D01*
X011109Y012042D01*
X010942Y012042D01*
X010984Y012152D02*
X010942Y012194D01*
X010942Y012277D01*
X010984Y012319D01*
X011026Y012319D01*
X011067Y012277D01*
X011109Y012319D01*
X011151Y012319D01*
X011193Y012277D01*
X011193Y012194D01*
X011151Y012152D01*
X011067Y012235D02*
X011067Y012277D01*
X011109Y011876D02*
X010942Y011876D01*
X004900Y006653D02*
X004649Y006653D01*
X003917Y006756D02*
X003917Y007007D01*
X003751Y007007D02*
X003917Y006756D01*
X003751Y006756D02*
X003751Y007007D01*
X003641Y006965D02*
X003599Y007007D01*
X003516Y007007D01*
X003474Y006965D01*
X003474Y006798D01*
X003516Y006756D01*
X003599Y006756D01*
X003641Y006798D01*
X003641Y006965D01*
X003549Y007778D02*
X003549Y007978D01*
X003649Y008078D01*
X003749Y007978D01*
X003749Y007778D01*
X003871Y007778D02*
X003971Y007778D01*
X003921Y007778D02*
X003921Y007978D01*
X003871Y007978D01*
X003921Y008078D02*
X003921Y008128D01*
X003749Y007928D02*
X003549Y007928D01*
X004408Y007928D02*
X004508Y007928D01*
X004408Y007778D02*
X004408Y008078D01*
X004608Y008078D01*
X015315Y021404D02*
X015415Y021604D01*
X015537Y021604D02*
X015637Y021704D01*
X015637Y021404D01*
X015537Y021404D02*
X015737Y021404D01*
X015859Y021404D02*
X015909Y021404D01*
X015909Y021454D01*
X015859Y021454D01*
X015859Y021404D01*
X016020Y021454D02*
X016070Y021404D01*
X016170Y021404D01*
X016220Y021454D01*
X016220Y021504D01*
X016170Y021554D01*
X016120Y021554D01*
X016170Y021554D02*
X016220Y021604D01*
X016220Y021654D01*
X016170Y021704D01*
X016070Y021704D01*
X016020Y021654D01*
X015315Y021404D02*
X015215Y021604D01*
X015970Y023179D02*
X015970Y023304D01*
X016012Y023346D01*
X016095Y023346D01*
X016137Y023304D01*
X016137Y023179D01*
X016137Y023262D02*
X016220Y023346D01*
X016220Y023455D02*
X015970Y023622D01*
X015970Y023731D02*
X016220Y023731D01*
X016220Y023898D01*
X016220Y024008D02*
X016220Y024175D01*
X016220Y024284D02*
X015970Y024284D01*
X015970Y024409D01*
X016012Y024451D01*
X016179Y024451D01*
X016220Y024409D01*
X016220Y024284D01*
X016095Y024091D02*
X016095Y024008D01*
X015970Y024008D02*
X016220Y024008D01*
X015970Y024008D02*
X015970Y024175D01*
X015593Y024179D02*
X015551Y024221D01*
X015593Y024179D02*
X015593Y024095D01*
X015551Y024054D01*
X015384Y024054D01*
X015342Y024095D01*
X015342Y024179D01*
X015384Y024221D01*
X015384Y024330D02*
X015342Y024372D01*
X015342Y024455D01*
X015384Y024497D01*
X015426Y024497D01*
X015593Y024330D01*
X015593Y024497D01*
X016220Y023622D02*
X015970Y023455D01*
X015970Y023179D02*
X016220Y023179D01*
X017635Y022603D02*
X017677Y022644D01*
X017719Y022644D01*
X017760Y022603D01*
X017802Y022644D01*
X017844Y022644D01*
X017885Y022603D01*
X017885Y022519D01*
X017844Y022477D01*
X017802Y022368D02*
X017885Y022285D01*
X017802Y022201D01*
X017635Y022201D01*
X017677Y022092D02*
X017719Y022092D01*
X017760Y022050D01*
X017802Y022092D01*
X017844Y022092D01*
X017885Y022050D01*
X017885Y021967D01*
X017844Y021925D01*
X017760Y022008D02*
X017760Y022050D01*
X017677Y022092D02*
X017635Y022050D01*
X017635Y021967D01*
X017677Y021925D01*
X017635Y022368D02*
X017802Y022368D01*
X017677Y022477D02*
X017635Y022519D01*
X017635Y022603D01*
X017760Y022603D02*
X017760Y022561D01*
X017810Y024051D02*
X017769Y024135D01*
X017769Y024176D01*
X017810Y024218D01*
X017894Y024218D01*
X017935Y024176D01*
X017935Y024093D01*
X017894Y024051D01*
X017810Y024051D02*
X017685Y024051D01*
X017685Y024218D01*
X017685Y024327D02*
X017852Y024327D01*
X017935Y024411D01*
X017852Y024494D01*
X017685Y024494D01*
X017675Y025354D02*
X017758Y025354D01*
X017800Y025395D01*
X017909Y025354D02*
X018076Y025354D01*
X017993Y025354D02*
X017993Y025604D01*
X017909Y025521D01*
X017800Y025562D02*
X017758Y025604D01*
X017675Y025604D01*
X017633Y025562D01*
X017633Y025395D01*
X017675Y025354D01*
X018035Y027304D02*
X018035Y027429D01*
X018077Y027471D01*
X018160Y027471D01*
X018202Y027429D01*
X018202Y027304D01*
X018202Y027387D02*
X018285Y027471D01*
X018285Y027304D02*
X018035Y027304D01*
X017794Y028429D02*
X017794Y028730D01*
X017994Y028730D01*
X017894Y028579D02*
X017794Y028579D01*
X017357Y028429D02*
X017257Y028429D01*
X017307Y028429D02*
X017307Y028629D01*
X017257Y028629D01*
X017307Y028730D02*
X017307Y028780D01*
X017135Y028629D02*
X017135Y028429D01*
X017135Y028579D02*
X016935Y028579D01*
X016935Y028629D02*
X017035Y028730D01*
X017135Y028629D01*
X016935Y028629D02*
X016935Y028429D01*
X015613Y028479D02*
X015613Y028730D01*
X022035Y024455D02*
X022035Y024372D01*
X022077Y024330D01*
X022077Y024221D02*
X022035Y024179D01*
X022035Y024095D01*
X022077Y024054D01*
X022244Y024054D01*
X022285Y024095D01*
X022285Y024179D01*
X022244Y024221D01*
X022285Y024330D02*
X022119Y024497D01*
X022077Y024497D01*
X022035Y024455D01*
X022285Y024497D02*
X022285Y024330D01*
X022663Y024284D02*
X022663Y024409D01*
X022705Y024451D01*
X022872Y024451D01*
X022913Y024409D01*
X022913Y024284D01*
X022663Y024284D01*
X022663Y024175D02*
X022663Y024008D01*
X022913Y024008D01*
X022913Y024175D01*
X022788Y024091D02*
X022788Y024008D01*
X022913Y023898D02*
X022913Y023731D01*
X022663Y023731D01*
X022663Y023622D02*
X022913Y023455D01*
X022913Y023346D02*
X022830Y023262D01*
X022830Y023304D02*
X022830Y023179D01*
X022913Y023179D02*
X022663Y023179D01*
X022663Y023304D01*
X022705Y023346D01*
X022788Y023346D01*
X022830Y023304D01*
X022663Y023455D02*
X022913Y023622D01*
X024378Y024051D02*
X024503Y024051D01*
X024462Y024135D01*
X024462Y024176D01*
X024503Y024218D01*
X024587Y024218D01*
X024628Y024176D01*
X024628Y024093D01*
X024587Y024051D01*
X024378Y024051D02*
X024378Y024218D01*
X024378Y024327D02*
X024545Y024327D01*
X024628Y024411D01*
X024545Y024494D01*
X024378Y024494D01*
X024368Y025354D02*
X024451Y025354D01*
X024493Y025395D01*
X024602Y025354D02*
X024769Y025354D01*
X024686Y025354D02*
X024686Y025604D01*
X024602Y025521D01*
X024493Y025562D02*
X024451Y025604D01*
X024368Y025604D01*
X024326Y025562D01*
X024326Y025395D01*
X024368Y025354D01*
X024370Y022644D02*
X024412Y022644D01*
X024453Y022603D01*
X024495Y022644D01*
X024537Y022644D01*
X024578Y022603D01*
X024578Y022519D01*
X024537Y022477D01*
X024495Y022368D02*
X024328Y022368D01*
X024370Y022477D02*
X024328Y022519D01*
X024328Y022603D01*
X024370Y022644D01*
X024453Y022603D02*
X024453Y022561D01*
X024495Y022368D02*
X024578Y022285D01*
X024495Y022201D01*
X024328Y022201D01*
X024370Y022092D02*
X024412Y022092D01*
X024453Y022050D01*
X024495Y022092D01*
X024537Y022092D01*
X024578Y022050D01*
X024578Y021967D01*
X024537Y021925D01*
X024453Y022008D02*
X024453Y022050D01*
X024370Y022092D02*
X024328Y022050D01*
X024328Y021967D01*
X024370Y021925D01*
X022913Y021654D02*
X022913Y021604D01*
X022863Y021554D01*
X022913Y021504D01*
X022913Y021454D01*
X022863Y021404D01*
X022763Y021404D01*
X022713Y021454D01*
X022602Y021454D02*
X022602Y021404D01*
X022552Y021404D01*
X022552Y021454D01*
X022602Y021454D01*
X022430Y021404D02*
X022230Y021404D01*
X022330Y021404D02*
X022330Y021704D01*
X022230Y021604D01*
X022108Y021604D02*
X022008Y021404D01*
X021907Y021604D01*
X022713Y021654D02*
X022763Y021704D01*
X022863Y021704D01*
X022913Y021654D01*
X022863Y021554D02*
X022813Y021554D01*
X022306Y018404D02*
X022306Y018154D01*
X028999Y008078D02*
X028999Y007828D01*
X022863Y001053D02*
X022763Y001053D01*
X022713Y001003D01*
X022813Y000903D02*
X022863Y000903D01*
X022913Y000853D01*
X022913Y000803D01*
X022863Y000753D01*
X022763Y000753D01*
X022713Y000803D01*
X022602Y000803D02*
X022602Y000753D01*
X022552Y000753D01*
X022552Y000803D01*
X022602Y000803D01*
X022430Y000753D02*
X022230Y000753D01*
X022330Y000753D02*
X022330Y001053D01*
X022230Y000953D01*
X022108Y000953D02*
X022008Y000753D01*
X021907Y000953D01*
X022863Y000903D02*
X022913Y000953D01*
X022913Y001003D01*
X022863Y001053D01*
X023498Y030854D02*
X023648Y030854D01*
X023699Y030904D01*
X023699Y031104D01*
X023648Y031154D01*
X023498Y031154D01*
X023498Y030854D01*
X023921Y030854D02*
X023921Y031154D01*
X023821Y031154D02*
X024021Y031154D01*
X024143Y031154D02*
X024143Y030854D01*
X024143Y030954D02*
X024293Y030954D01*
X024343Y031004D01*
X024343Y031104D01*
X024293Y031154D01*
X024143Y031154D01*
X024243Y030954D02*
X024343Y030854D01*
X024578Y030854D02*
X024578Y031154D01*
X024728Y031154D01*
X024779Y031104D01*
X024779Y031004D01*
X024728Y030954D01*
X024578Y030954D01*
X024678Y030954D02*
X024779Y030854D01*
X024901Y030854D02*
X025101Y031154D01*
X025223Y031154D02*
X025323Y031154D01*
X025273Y031154D02*
X025273Y030854D01*
X025223Y030854D02*
X025323Y030854D01*
X025101Y030854D02*
X024901Y031154D01*
X025558Y031154D02*
X025759Y031154D01*
X025658Y031154D02*
X025658Y030854D01*
X025881Y030854D02*
X026081Y031154D01*
X026203Y031104D02*
X026203Y030904D01*
X026253Y030854D01*
X026353Y030854D01*
X026403Y030904D01*
X026403Y031104D01*
X026353Y031154D01*
X026253Y031154D01*
X026203Y031104D01*
X026081Y030854D02*
X025881Y031154D01*
X026638Y031154D02*
X026638Y030854D01*
X026638Y030954D02*
X026788Y030954D01*
X026839Y031004D01*
X026839Y031104D01*
X026788Y031154D01*
X026638Y031154D01*
X026961Y031154D02*
X026961Y030854D01*
X027061Y030954D01*
X027161Y030854D01*
X027161Y031154D01*
X027283Y031154D02*
X027433Y031154D01*
X027483Y031104D01*
X027483Y031004D01*
X027433Y030954D01*
X027283Y030954D01*
X027383Y030954D02*
X027483Y030854D01*
X027283Y030854D02*
X027283Y031154D01*
X027718Y031079D02*
X027718Y030879D01*
X027768Y030829D01*
X027868Y030829D01*
X027919Y030879D01*
X027919Y031079D02*
X027868Y031129D01*
X027768Y031129D01*
X027718Y031079D01*
X028041Y031129D02*
X028241Y031129D01*
X028141Y031129D02*
X028141Y030829D01*
X028363Y030879D02*
X028413Y030829D01*
X028513Y030829D01*
X028563Y030879D01*
X028563Y030929D01*
X028513Y030979D01*
X028413Y030979D01*
X028363Y031029D01*
X028363Y031079D01*
X028413Y031129D01*
X028513Y031129D01*
X028563Y031079D01*
X028803Y031104D02*
X028803Y030904D01*
X028853Y030854D01*
X028953Y030854D01*
X029004Y030904D01*
X029004Y031004D01*
X028903Y031004D01*
X028803Y031104D02*
X028853Y031154D01*
X028953Y031154D01*
X029004Y031104D01*
X029126Y031154D02*
X029326Y030854D01*
X029326Y031154D01*
X029448Y031154D02*
X029448Y030854D01*
X029598Y030854D01*
X029648Y030904D01*
X029648Y031104D01*
X029598Y031154D01*
X029448Y031154D01*
X029126Y031154D02*
X029126Y030854D01*
D11*
X029093Y030559D02*
X029093Y030454D01*
X029163Y030489D01*
X029198Y030489D01*
X029233Y030454D01*
X029233Y030384D01*
X029198Y030349D01*
X029128Y030349D01*
X029093Y030384D01*
X029093Y030559D02*
X029233Y030559D01*
X029323Y030559D02*
X029323Y030419D01*
X029393Y030349D01*
X029463Y030419D01*
X029463Y030559D01*
X029003Y030559D02*
X028863Y030349D01*
X028773Y030384D02*
X028738Y030349D01*
X028667Y030349D01*
X028632Y030384D01*
X028542Y030419D02*
X028542Y030559D01*
X028632Y030524D02*
X028667Y030559D01*
X028738Y030559D01*
X028773Y030524D01*
X028773Y030489D01*
X028738Y030454D01*
X028773Y030419D01*
X028773Y030384D01*
X028738Y030454D02*
X028703Y030454D01*
X028542Y030419D02*
X028472Y030349D01*
X028402Y030419D01*
X028402Y030559D01*
X028312Y030524D02*
X028312Y030489D01*
X028277Y030454D01*
X028312Y030419D01*
X028312Y030384D01*
X028277Y030349D01*
X028207Y030349D01*
X028172Y030384D01*
X028242Y030454D02*
X028277Y030454D01*
X028312Y030524D02*
X028277Y030559D01*
X028207Y030559D01*
X028172Y030524D01*
X027852Y030524D02*
X027817Y030559D01*
X027747Y030559D01*
X027712Y030524D01*
X027712Y030384D01*
X027747Y030349D01*
X027817Y030349D01*
X027852Y030384D01*
X027852Y030524D01*
X027622Y030559D02*
X027481Y030559D01*
X027552Y030559D02*
X027552Y030349D01*
X027161Y030349D02*
X027091Y030419D01*
X027126Y030419D02*
X027021Y030419D01*
X027021Y030349D02*
X027021Y030559D01*
X027126Y030559D01*
X027161Y030524D01*
X027161Y030454D01*
X027126Y030419D01*
X026931Y030349D02*
X026931Y030559D01*
X026791Y030559D02*
X026791Y030349D01*
X026861Y030419D01*
X026931Y030349D01*
X026701Y030454D02*
X026666Y030419D01*
X026561Y030419D01*
X026561Y030349D02*
X026561Y030559D01*
X026666Y030559D01*
X026701Y030524D01*
X026701Y030454D01*
X026240Y030419D02*
X026240Y030384D01*
X026205Y030349D01*
X026135Y030349D01*
X026100Y030384D01*
X026135Y030454D02*
X026205Y030454D01*
X026240Y030419D01*
X026240Y030524D02*
X026205Y030559D01*
X026135Y030559D01*
X026100Y030524D01*
X026100Y030489D01*
X026135Y030454D01*
X026010Y030559D02*
X025870Y030559D01*
X025940Y030559D02*
X025940Y030349D01*
X025780Y030349D02*
X025640Y030349D01*
X025640Y030559D01*
X025780Y030559D01*
X025710Y030454D02*
X025640Y030454D01*
X025550Y030419D02*
X025550Y030384D01*
X025515Y030349D01*
X025445Y030349D01*
X025410Y030384D01*
X025445Y030454D02*
X025410Y030489D01*
X025410Y030524D01*
X025445Y030559D01*
X025515Y030559D01*
X025550Y030524D01*
X025515Y030454D02*
X025550Y030419D01*
X025515Y030454D02*
X025445Y030454D01*
X025089Y030454D02*
X025054Y030419D01*
X024949Y030419D01*
X024949Y030349D02*
X024949Y030559D01*
X025054Y030559D01*
X025089Y030524D01*
X025089Y030454D01*
X025019Y030419D02*
X025089Y030349D01*
X024859Y030349D02*
X024719Y030349D01*
X024719Y030559D01*
X024859Y030559D01*
X024789Y030454D02*
X024719Y030454D01*
X024629Y030454D02*
X024594Y030419D01*
X024489Y030419D01*
X024489Y030349D02*
X024489Y030559D01*
X024594Y030559D01*
X024629Y030524D01*
X024629Y030454D01*
X024399Y030559D02*
X024399Y030349D01*
X024259Y030349D02*
X024259Y030559D01*
X024329Y030489D01*
X024399Y030559D01*
X024169Y030559D02*
X024169Y030384D01*
X024134Y030349D01*
X024064Y030349D01*
X024029Y030384D01*
X024029Y030559D01*
X023938Y030559D02*
X023868Y030559D01*
X023903Y030559D02*
X023903Y030384D01*
X023868Y030349D01*
X023833Y030349D01*
X023798Y030384D01*
X022770Y030419D02*
X022770Y030559D01*
X022630Y030559D02*
X022630Y030419D01*
X022700Y030349D01*
X022770Y030419D01*
X022540Y030454D02*
X022540Y030384D01*
X022505Y030349D01*
X022435Y030349D01*
X022400Y030384D01*
X022400Y030454D02*
X022470Y030489D01*
X022505Y030489D01*
X022540Y030454D01*
X022540Y030559D02*
X022400Y030559D01*
X022400Y030454D01*
X022310Y030559D02*
X022170Y030349D01*
X022080Y030384D02*
X022045Y030349D01*
X021975Y030349D01*
X021940Y030384D01*
X021849Y030419D02*
X021849Y030559D01*
X021940Y030524D02*
X021975Y030559D01*
X022045Y030559D01*
X022080Y030524D01*
X022080Y030489D01*
X022045Y030454D01*
X022080Y030419D01*
X022080Y030384D01*
X022045Y030454D02*
X022010Y030454D01*
X021849Y030419D02*
X021779Y030349D01*
X021709Y030419D01*
X021709Y030559D01*
X021619Y030524D02*
X021619Y030489D01*
X021584Y030454D01*
X021619Y030419D01*
X021619Y030384D01*
X021584Y030349D01*
X021514Y030349D01*
X021479Y030384D01*
X021549Y030454D02*
X021584Y030454D01*
X021619Y030524D02*
X021584Y030559D01*
X021514Y030559D01*
X021479Y030524D01*
X021159Y030524D02*
X021124Y030559D01*
X021054Y030559D01*
X021019Y030524D01*
X021019Y030384D01*
X021054Y030349D01*
X021124Y030349D01*
X021159Y030384D01*
X021159Y030524D01*
X020929Y030559D02*
X020789Y030559D01*
X020859Y030559D02*
X020859Y030349D01*
X020468Y030349D02*
X020398Y030419D01*
X020433Y030419D02*
X020328Y030419D01*
X020328Y030349D02*
X020328Y030559D01*
X020433Y030559D01*
X020468Y030524D01*
X020468Y030454D01*
X020433Y030419D01*
X020238Y030349D02*
X020238Y030559D01*
X020098Y030559D02*
X020098Y030349D01*
X020168Y030419D01*
X020238Y030349D01*
X020008Y030454D02*
X019973Y030419D01*
X019868Y030419D01*
X019868Y030349D02*
X019868Y030559D01*
X019973Y030559D01*
X020008Y030524D01*
X020008Y030454D01*
X019548Y030419D02*
X019548Y030384D01*
X019512Y030349D01*
X019442Y030349D01*
X019407Y030384D01*
X019442Y030454D02*
X019512Y030454D01*
X019548Y030419D01*
X019548Y030524D02*
X019512Y030559D01*
X019442Y030559D01*
X019407Y030524D01*
X019407Y030489D01*
X019442Y030454D01*
X019317Y030559D02*
X019177Y030559D01*
X019247Y030559D02*
X019247Y030349D01*
X019087Y030349D02*
X018947Y030349D01*
X018947Y030559D01*
X019087Y030559D01*
X019017Y030454D02*
X018947Y030454D01*
X018857Y030419D02*
X018857Y030384D01*
X018822Y030349D01*
X018752Y030349D01*
X018717Y030384D01*
X018752Y030454D02*
X018822Y030454D01*
X018857Y030419D01*
X018857Y030524D02*
X018822Y030559D01*
X018752Y030559D01*
X018717Y030524D01*
X018717Y030489D01*
X018752Y030454D01*
X018397Y030454D02*
X018362Y030419D01*
X018256Y030419D01*
X018256Y030349D02*
X018256Y030559D01*
X018362Y030559D01*
X018397Y030524D01*
X018397Y030454D01*
X018326Y030419D02*
X018397Y030349D01*
X018166Y030349D02*
X018026Y030349D01*
X018026Y030559D01*
X018166Y030559D01*
X018096Y030454D02*
X018026Y030454D01*
X017936Y030454D02*
X017901Y030419D01*
X017796Y030419D01*
X017796Y030349D02*
X017796Y030559D01*
X017901Y030559D01*
X017936Y030524D01*
X017936Y030454D01*
X017706Y030559D02*
X017706Y030349D01*
X017566Y030349D02*
X017566Y030559D01*
X017636Y030489D01*
X017706Y030559D01*
X017476Y030559D02*
X017476Y030384D01*
X017441Y030349D01*
X017371Y030349D01*
X017336Y030384D01*
X017336Y030559D01*
X017246Y030559D02*
X017175Y030559D01*
X017211Y030559D02*
X017211Y030384D01*
X017175Y030349D01*
X017140Y030349D01*
X017105Y030384D01*
X016077Y030419D02*
X016077Y030559D01*
X015937Y030559D02*
X015937Y030419D01*
X016007Y030349D01*
X016077Y030419D01*
X015847Y030454D02*
X015847Y030384D01*
X015812Y030349D01*
X015742Y030349D01*
X015707Y030384D01*
X015707Y030454D02*
X015777Y030489D01*
X015812Y030489D01*
X015847Y030454D01*
X015847Y030559D02*
X015707Y030559D01*
X015707Y030454D01*
X015617Y030559D02*
X015477Y030349D01*
X015387Y030384D02*
X015352Y030349D01*
X015282Y030349D01*
X015247Y030384D01*
X015157Y030419D02*
X015157Y030559D01*
X015247Y030524D02*
X015282Y030559D01*
X015352Y030559D01*
X015387Y030524D01*
X015387Y030489D01*
X015352Y030454D01*
X015387Y030419D01*
X015387Y030384D01*
X015352Y030454D02*
X015317Y030454D01*
X015157Y030419D02*
X015086Y030349D01*
X015016Y030419D01*
X015016Y030559D01*
X014926Y030524D02*
X014926Y030489D01*
X014891Y030454D01*
X014926Y030419D01*
X014926Y030384D01*
X014891Y030349D01*
X014821Y030349D01*
X014786Y030384D01*
X014856Y030454D02*
X014891Y030454D01*
X014926Y030524D02*
X014891Y030559D01*
X014821Y030559D01*
X014786Y030524D01*
X014466Y030524D02*
X014431Y030559D01*
X014361Y030559D01*
X014326Y030524D01*
X014326Y030384D01*
X014361Y030349D01*
X014431Y030349D01*
X014466Y030384D01*
X014466Y030524D01*
X014236Y030559D02*
X014096Y030559D01*
X014166Y030559D02*
X014166Y030349D01*
X013775Y030349D02*
X013705Y030419D01*
X013740Y030419D02*
X013635Y030419D01*
X013635Y030349D02*
X013635Y030559D01*
X013740Y030559D01*
X013775Y030524D01*
X013775Y030454D01*
X013740Y030419D01*
X013545Y030349D02*
X013545Y030559D01*
X013405Y030559D02*
X013405Y030349D01*
X013475Y030419D01*
X013545Y030349D01*
X013315Y030454D02*
X013280Y030419D01*
X013175Y030419D01*
X013175Y030349D02*
X013175Y030559D01*
X013280Y030559D01*
X013315Y030524D01*
X013315Y030454D01*
X012855Y030419D02*
X012855Y030384D01*
X012820Y030349D01*
X012750Y030349D01*
X012714Y030384D01*
X012750Y030454D02*
X012820Y030454D01*
X012855Y030419D01*
X012855Y030524D02*
X012820Y030559D01*
X012750Y030559D01*
X012714Y030524D01*
X012714Y030489D01*
X012750Y030454D01*
X012624Y030559D02*
X012484Y030559D01*
X012554Y030559D02*
X012554Y030349D01*
X012394Y030349D02*
X012254Y030349D01*
X012254Y030559D01*
X012394Y030559D01*
X012324Y030454D02*
X012254Y030454D01*
X012164Y030419D02*
X012164Y030384D01*
X012129Y030349D01*
X012059Y030349D01*
X012024Y030384D01*
X012059Y030454D02*
X012129Y030454D01*
X012164Y030419D01*
X012164Y030524D02*
X012129Y030559D01*
X012059Y030559D01*
X012024Y030524D01*
X012024Y030489D01*
X012059Y030454D01*
X011704Y030454D02*
X011669Y030419D01*
X011563Y030419D01*
X011563Y030349D02*
X011563Y030559D01*
X011669Y030559D01*
X011704Y030524D01*
X011704Y030454D01*
X011634Y030419D02*
X011704Y030349D01*
X011473Y030349D02*
X011333Y030349D01*
X011333Y030559D01*
X011473Y030559D01*
X011403Y030454D02*
X011333Y030454D01*
X011243Y030454D02*
X011208Y030419D01*
X011103Y030419D01*
X011103Y030349D02*
X011103Y030559D01*
X011208Y030559D01*
X011243Y030524D01*
X011243Y030454D01*
X011013Y030559D02*
X011013Y030349D01*
X010873Y030349D02*
X010873Y030559D01*
X010943Y030489D01*
X011013Y030559D01*
X010783Y030559D02*
X010783Y030384D01*
X010748Y030349D01*
X010678Y030349D01*
X010643Y030384D01*
X010643Y030559D01*
X010553Y030559D02*
X010483Y030559D01*
X010518Y030559D02*
X010518Y030384D01*
X010483Y030349D01*
X010448Y030349D01*
X010413Y030384D01*
X009384Y030419D02*
X009384Y030559D01*
X009244Y030559D02*
X009244Y030419D01*
X009314Y030349D01*
X009384Y030419D01*
X009154Y030454D02*
X009154Y030384D01*
X009119Y030349D01*
X009049Y030349D01*
X009014Y030384D01*
X009014Y030454D02*
X009084Y030489D01*
X009119Y030489D01*
X009154Y030454D01*
X009154Y030559D02*
X009014Y030559D01*
X009014Y030454D01*
X008924Y030559D02*
X008784Y030349D01*
X008694Y030384D02*
X008659Y030349D01*
X008589Y030349D01*
X008554Y030384D01*
X008464Y030419D02*
X008464Y030559D01*
X008554Y030524D02*
X008589Y030559D01*
X008659Y030559D01*
X008694Y030524D01*
X008694Y030489D01*
X008659Y030454D01*
X008694Y030419D01*
X008694Y030384D01*
X008659Y030454D02*
X008624Y030454D01*
X008464Y030419D02*
X008394Y030349D01*
X008324Y030419D01*
X008324Y030559D01*
X008233Y030524D02*
X008233Y030489D01*
X008198Y030454D01*
X008233Y030419D01*
X008233Y030384D01*
X008198Y030349D01*
X008128Y030349D01*
X008093Y030384D01*
X008163Y030454D02*
X008198Y030454D01*
X008233Y030524D02*
X008198Y030559D01*
X008128Y030559D01*
X008093Y030524D01*
X007773Y030524D02*
X007738Y030559D01*
X007668Y030559D01*
X007633Y030524D01*
X007633Y030384D01*
X007668Y030349D01*
X007738Y030349D01*
X007773Y030384D01*
X007773Y030524D01*
X007543Y030559D02*
X007403Y030559D01*
X007473Y030559D02*
X007473Y030349D01*
X007082Y030349D02*
X007012Y030419D01*
X007047Y030419D02*
X006942Y030419D01*
X006942Y030349D02*
X006942Y030559D01*
X007047Y030559D01*
X007082Y030524D01*
X007082Y030454D01*
X007047Y030419D01*
X006852Y030349D02*
X006852Y030559D01*
X006712Y030559D02*
X006712Y030349D01*
X006782Y030419D01*
X006852Y030349D01*
X006622Y030454D02*
X006587Y030419D01*
X006482Y030419D01*
X006482Y030349D02*
X006482Y030559D01*
X006587Y030559D01*
X006622Y030524D01*
X006622Y030454D01*
X006162Y030419D02*
X006162Y030384D01*
X006127Y030349D01*
X006057Y030349D01*
X006022Y030384D01*
X006057Y030454D02*
X006127Y030454D01*
X006162Y030419D01*
X006162Y030524D02*
X006127Y030559D01*
X006057Y030559D01*
X006022Y030524D01*
X006022Y030489D01*
X006057Y030454D01*
X005931Y030559D02*
X005791Y030559D01*
X005861Y030559D02*
X005861Y030349D01*
X005701Y030349D02*
X005561Y030349D01*
X005561Y030559D01*
X005701Y030559D01*
X005631Y030454D02*
X005561Y030454D01*
X005471Y030419D02*
X005471Y030384D01*
X005436Y030349D01*
X005366Y030349D01*
X005331Y030384D01*
X005366Y030454D02*
X005436Y030454D01*
X005471Y030419D01*
X005471Y030524D02*
X005436Y030559D01*
X005366Y030559D01*
X005331Y030524D01*
X005331Y030489D01*
X005366Y030454D01*
X005011Y030454D02*
X004976Y030419D01*
X004871Y030419D01*
X004941Y030419D02*
X005011Y030349D01*
X005011Y030454D02*
X005011Y030524D01*
X004976Y030559D01*
X004871Y030559D01*
X004871Y030349D01*
X004781Y030349D02*
X004640Y030349D01*
X004640Y030559D01*
X004781Y030559D01*
X004710Y030454D02*
X004640Y030454D01*
X004550Y030454D02*
X004515Y030419D01*
X004410Y030419D01*
X004410Y030349D02*
X004410Y030559D01*
X004515Y030559D01*
X004550Y030524D01*
X004550Y030454D01*
X004320Y030559D02*
X004320Y030349D01*
X004180Y030349D02*
X004180Y030559D01*
X004250Y030489D01*
X004320Y030559D01*
X004090Y030559D02*
X004090Y030384D01*
X004055Y030349D01*
X003985Y030349D01*
X003950Y030384D01*
X003950Y030559D01*
X003860Y030559D02*
X003790Y030559D01*
X003825Y030559D02*
X003825Y030384D01*
X003790Y030349D01*
X003755Y030349D01*
X003720Y030384D01*
X003790Y020233D02*
X003860Y020233D01*
X003825Y020233D02*
X003825Y020058D01*
X003790Y020023D01*
X003755Y020023D01*
X003720Y020058D01*
X003950Y020058D02*
X003985Y020023D01*
X004055Y020023D01*
X004090Y020058D01*
X004090Y020233D01*
X004180Y020233D02*
X004250Y020163D01*
X004320Y020233D01*
X004320Y020023D01*
X004410Y020023D02*
X004410Y020233D01*
X004515Y020233D01*
X004550Y020198D01*
X004550Y020128D01*
X004515Y020093D01*
X004410Y020093D01*
X004640Y020128D02*
X004710Y020128D01*
X004640Y020233D02*
X004640Y020023D01*
X004781Y020023D01*
X004871Y020023D02*
X004871Y020233D01*
X004976Y020233D01*
X005011Y020198D01*
X005011Y020128D01*
X004976Y020093D01*
X004871Y020093D01*
X004941Y020093D02*
X005011Y020023D01*
X004781Y020233D02*
X004640Y020233D01*
X004180Y020233D02*
X004180Y020023D01*
X003950Y020058D02*
X003950Y020233D01*
X005331Y020198D02*
X005331Y020163D01*
X005366Y020128D01*
X005436Y020128D01*
X005471Y020093D01*
X005471Y020058D01*
X005436Y020023D01*
X005366Y020023D01*
X005331Y020058D01*
X005331Y020198D02*
X005366Y020233D01*
X005436Y020233D01*
X005471Y020198D01*
X005561Y020233D02*
X005561Y020023D01*
X005701Y020023D01*
X005631Y020128D02*
X005561Y020128D01*
X005561Y020233D02*
X005701Y020233D01*
X005791Y020233D02*
X005931Y020233D01*
X005861Y020233D02*
X005861Y020023D01*
X006022Y020058D02*
X006057Y020023D01*
X006127Y020023D01*
X006162Y020058D01*
X006162Y020093D01*
X006127Y020128D01*
X006057Y020128D01*
X006022Y020163D01*
X006022Y020198D01*
X006057Y020233D01*
X006127Y020233D01*
X006162Y020198D01*
X006482Y020233D02*
X006482Y020023D01*
X006482Y020093D02*
X006587Y020093D01*
X006622Y020128D01*
X006622Y020198D01*
X006587Y020233D01*
X006482Y020233D01*
X006712Y020233D02*
X006712Y020023D01*
X006782Y020093D01*
X006852Y020023D01*
X006852Y020233D01*
X006942Y020233D02*
X006942Y020023D01*
X006942Y020093D02*
X007047Y020093D01*
X007082Y020128D01*
X007082Y020198D01*
X007047Y020233D01*
X006942Y020233D01*
X007012Y020093D02*
X007082Y020023D01*
X007403Y020233D02*
X007543Y020233D01*
X007473Y020233D02*
X007473Y020023D01*
X007633Y020058D02*
X007633Y020198D01*
X007668Y020233D01*
X007738Y020233D01*
X007773Y020198D01*
X007773Y020058D01*
X007738Y020023D01*
X007668Y020023D01*
X007633Y020058D01*
X008093Y020058D02*
X008128Y020023D01*
X008198Y020023D01*
X008233Y020058D01*
X008233Y020093D01*
X008198Y020128D01*
X008163Y020128D01*
X008198Y020128D02*
X008233Y020163D01*
X008233Y020198D01*
X008198Y020233D01*
X008128Y020233D01*
X008093Y020198D01*
X008324Y020233D02*
X008324Y020093D01*
X008394Y020023D01*
X008464Y020093D01*
X008464Y020233D01*
X008554Y020198D02*
X008589Y020233D01*
X008659Y020233D01*
X008694Y020198D01*
X008694Y020163D01*
X008659Y020128D01*
X008694Y020093D01*
X008694Y020058D01*
X008659Y020023D01*
X008589Y020023D01*
X008554Y020058D01*
X008624Y020128D02*
X008659Y020128D01*
X008784Y020023D02*
X008924Y020233D01*
X009014Y020233D02*
X009014Y020128D01*
X009084Y020163D01*
X009119Y020163D01*
X009154Y020128D01*
X009154Y020058D01*
X009119Y020023D01*
X009049Y020023D01*
X009014Y020058D01*
X009014Y020233D02*
X009154Y020233D01*
X009244Y020233D02*
X009244Y020093D01*
X009314Y020023D01*
X009384Y020093D01*
X009384Y020233D01*
X010413Y020058D02*
X010448Y020023D01*
X010483Y020023D01*
X010518Y020058D01*
X010518Y020233D01*
X010483Y020233D02*
X010553Y020233D01*
X010643Y020233D02*
X010643Y020058D01*
X010678Y020023D01*
X010748Y020023D01*
X010783Y020058D01*
X010783Y020233D01*
X010873Y020233D02*
X010943Y020163D01*
X011013Y020233D01*
X011013Y020023D01*
X011103Y020023D02*
X011103Y020233D01*
X011208Y020233D01*
X011243Y020198D01*
X011243Y020128D01*
X011208Y020093D01*
X011103Y020093D01*
X011333Y020128D02*
X011403Y020128D01*
X011333Y020233D02*
X011333Y020023D01*
X011473Y020023D01*
X011563Y020023D02*
X011563Y020233D01*
X011669Y020233D01*
X011704Y020198D01*
X011704Y020128D01*
X011669Y020093D01*
X011563Y020093D01*
X011634Y020093D02*
X011704Y020023D01*
X011473Y020233D02*
X011333Y020233D01*
X010873Y020233D02*
X010873Y020023D01*
X012024Y020058D02*
X012059Y020023D01*
X012129Y020023D01*
X012164Y020058D01*
X012164Y020093D01*
X012129Y020128D01*
X012059Y020128D01*
X012024Y020163D01*
X012024Y020198D01*
X012059Y020233D01*
X012129Y020233D01*
X012164Y020198D01*
X012254Y020233D02*
X012254Y020023D01*
X012394Y020023D01*
X012324Y020128D02*
X012254Y020128D01*
X012254Y020233D02*
X012394Y020233D01*
X012484Y020233D02*
X012624Y020233D01*
X012554Y020233D02*
X012554Y020023D01*
X012714Y020058D02*
X012750Y020023D01*
X012820Y020023D01*
X012855Y020058D01*
X012855Y020093D01*
X012820Y020128D01*
X012750Y020128D01*
X012714Y020163D01*
X012714Y020198D01*
X012750Y020233D01*
X012820Y020233D01*
X012855Y020198D01*
X013175Y020233D02*
X013175Y020023D01*
X013175Y020093D02*
X013280Y020093D01*
X013315Y020128D01*
X013315Y020198D01*
X013280Y020233D01*
X013175Y020233D01*
X013405Y020233D02*
X013405Y020023D01*
X013475Y020093D01*
X013545Y020023D01*
X013545Y020233D01*
X013635Y020233D02*
X013740Y020233D01*
X013775Y020198D01*
X013775Y020128D01*
X013740Y020093D01*
X013635Y020093D01*
X013635Y020023D02*
X013635Y020233D01*
X013705Y020093D02*
X013775Y020023D01*
X014096Y020233D02*
X014236Y020233D01*
X014166Y020233D02*
X014166Y020023D01*
X014326Y020058D02*
X014326Y020198D01*
X014361Y020233D01*
X014431Y020233D01*
X014466Y020198D01*
X014466Y020058D01*
X014431Y020023D01*
X014361Y020023D01*
X014326Y020058D01*
X014786Y020058D02*
X014821Y020023D01*
X014891Y020023D01*
X014926Y020058D01*
X014926Y020093D01*
X014891Y020128D01*
X014856Y020128D01*
X014891Y020128D02*
X014926Y020163D01*
X014926Y020198D01*
X014891Y020233D01*
X014821Y020233D01*
X014786Y020198D01*
X015016Y020233D02*
X015016Y020093D01*
X015086Y020023D01*
X015157Y020093D01*
X015157Y020233D01*
X015247Y020198D02*
X015282Y020233D01*
X015352Y020233D01*
X015387Y020198D01*
X015387Y020163D01*
X015352Y020128D01*
X015387Y020093D01*
X015387Y020058D01*
X015352Y020023D01*
X015282Y020023D01*
X015247Y020058D01*
X015317Y020128D02*
X015352Y020128D01*
X015477Y020023D02*
X015617Y020233D01*
X015707Y020233D02*
X015707Y020128D01*
X015777Y020163D01*
X015812Y020163D01*
X015847Y020128D01*
X015847Y020058D01*
X015812Y020023D01*
X015742Y020023D01*
X015707Y020058D01*
X015707Y020233D02*
X015847Y020233D01*
X015937Y020233D02*
X015937Y020093D01*
X016007Y020023D01*
X016077Y020093D01*
X016077Y020233D01*
X017105Y020058D02*
X017140Y020023D01*
X017175Y020023D01*
X017211Y020058D01*
X017211Y020233D01*
X017246Y020233D02*
X017175Y020233D01*
X017336Y020233D02*
X017336Y020058D01*
X017371Y020023D01*
X017441Y020023D01*
X017476Y020058D01*
X017476Y020233D01*
X017566Y020233D02*
X017566Y020023D01*
X017706Y020023D02*
X017706Y020233D01*
X017636Y020163D01*
X017566Y020233D01*
X017796Y020233D02*
X017901Y020233D01*
X017936Y020198D01*
X017936Y020128D01*
X017901Y020093D01*
X017796Y020093D01*
X017796Y020023D02*
X017796Y020233D01*
X018026Y020233D02*
X018026Y020023D01*
X018166Y020023D01*
X018256Y020023D02*
X018256Y020233D01*
X018362Y020233D01*
X018397Y020198D01*
X018397Y020128D01*
X018362Y020093D01*
X018256Y020093D01*
X018326Y020093D02*
X018397Y020023D01*
X018166Y020233D02*
X018026Y020233D01*
X018026Y020128D02*
X018096Y020128D01*
X018717Y020163D02*
X018752Y020128D01*
X018822Y020128D01*
X018857Y020093D01*
X018857Y020058D01*
X018822Y020023D01*
X018752Y020023D01*
X018717Y020058D01*
X018717Y020163D02*
X018717Y020198D01*
X018752Y020233D01*
X018822Y020233D01*
X018857Y020198D01*
X018947Y020233D02*
X018947Y020023D01*
X019087Y020023D01*
X019017Y020128D02*
X018947Y020128D01*
X018947Y020233D02*
X019087Y020233D01*
X019177Y020233D02*
X019317Y020233D01*
X019247Y020233D02*
X019247Y020023D01*
X019407Y020058D02*
X019442Y020023D01*
X019512Y020023D01*
X019548Y020058D01*
X019548Y020093D01*
X019512Y020128D01*
X019442Y020128D01*
X019407Y020163D01*
X019407Y020198D01*
X019442Y020233D01*
X019512Y020233D01*
X019548Y020198D01*
X019868Y020233D02*
X019868Y020023D01*
X019868Y020093D02*
X019973Y020093D01*
X020008Y020128D01*
X020008Y020198D01*
X019973Y020233D01*
X019868Y020233D01*
X020098Y020233D02*
X020098Y020023D01*
X020168Y020093D01*
X020238Y020023D01*
X020238Y020233D01*
X020328Y020233D02*
X020433Y020233D01*
X020468Y020198D01*
X020468Y020128D01*
X020433Y020093D01*
X020328Y020093D01*
X020328Y020023D02*
X020328Y020233D01*
X020398Y020093D02*
X020468Y020023D01*
X020789Y020233D02*
X020929Y020233D01*
X020859Y020233D02*
X020859Y020023D01*
X021019Y020058D02*
X021054Y020023D01*
X021124Y020023D01*
X021159Y020058D01*
X021159Y020198D01*
X021124Y020233D01*
X021054Y020233D01*
X021019Y020198D01*
X021019Y020058D01*
X021479Y020058D02*
X021514Y020023D01*
X021584Y020023D01*
X021619Y020058D01*
X021619Y020093D01*
X021584Y020128D01*
X021549Y020128D01*
X021584Y020128D02*
X021619Y020163D01*
X021619Y020198D01*
X021584Y020233D01*
X021514Y020233D01*
X021479Y020198D01*
X021709Y020233D02*
X021709Y020093D01*
X021779Y020023D01*
X021849Y020093D01*
X021849Y020233D01*
X021940Y020198D02*
X021975Y020233D01*
X022045Y020233D01*
X022080Y020198D01*
X022080Y020163D01*
X022045Y020128D01*
X022080Y020093D01*
X022080Y020058D01*
X022045Y020023D01*
X021975Y020023D01*
X021940Y020058D01*
X022010Y020128D02*
X022045Y020128D01*
X022170Y020023D02*
X022310Y020233D01*
X022400Y020233D02*
X022400Y020128D01*
X022470Y020163D01*
X022505Y020163D01*
X022540Y020128D01*
X022540Y020058D01*
X022505Y020023D01*
X022435Y020023D01*
X022400Y020058D01*
X022400Y020233D02*
X022540Y020233D01*
X022630Y020233D02*
X022630Y020093D01*
X022700Y020023D01*
X022770Y020093D01*
X022770Y020233D01*
X023798Y020058D02*
X023833Y020023D01*
X023868Y020023D01*
X023903Y020058D01*
X023903Y020233D01*
X023868Y020233D02*
X023938Y020233D01*
X024029Y020233D02*
X024029Y020058D01*
X024064Y020023D01*
X024134Y020023D01*
X024169Y020058D01*
X024169Y020233D01*
X024259Y020233D02*
X024329Y020163D01*
X024399Y020233D01*
X024399Y020023D01*
X024489Y020023D02*
X024489Y020233D01*
X024594Y020233D01*
X024629Y020198D01*
X024629Y020128D01*
X024594Y020093D01*
X024489Y020093D01*
X024719Y020128D02*
X024789Y020128D01*
X024719Y020023D02*
X024859Y020023D01*
X024949Y020023D02*
X024949Y020233D01*
X025054Y020233D01*
X025089Y020198D01*
X025089Y020128D01*
X025054Y020093D01*
X024949Y020093D01*
X025019Y020093D02*
X025089Y020023D01*
X024859Y020233D02*
X024719Y020233D01*
X024719Y020023D01*
X024259Y020023D02*
X024259Y020233D01*
X025410Y020198D02*
X025410Y020163D01*
X025445Y020128D01*
X025515Y020128D01*
X025550Y020093D01*
X025550Y020058D01*
X025515Y020023D01*
X025445Y020023D01*
X025410Y020058D01*
X025410Y020198D02*
X025445Y020233D01*
X025515Y020233D01*
X025550Y020198D01*
X025640Y020233D02*
X025640Y020023D01*
X025780Y020023D01*
X025710Y020128D02*
X025640Y020128D01*
X025640Y020233D02*
X025780Y020233D01*
X025870Y020233D02*
X026010Y020233D01*
X025940Y020233D02*
X025940Y020023D01*
X026100Y020058D02*
X026135Y020023D01*
X026205Y020023D01*
X026240Y020058D01*
X026240Y020093D01*
X026205Y020128D01*
X026135Y020128D01*
X026100Y020163D01*
X026100Y020198D01*
X026135Y020233D01*
X026205Y020233D01*
X026240Y020198D01*
X026561Y020233D02*
X026561Y020023D01*
X026561Y020093D02*
X026666Y020093D01*
X026701Y020128D01*
X026701Y020198D01*
X026666Y020233D01*
X026561Y020233D01*
X026791Y020233D02*
X026791Y020023D01*
X026861Y020093D01*
X026931Y020023D01*
X026931Y020233D01*
X027021Y020233D02*
X027126Y020233D01*
X027161Y020198D01*
X027161Y020128D01*
X027126Y020093D01*
X027021Y020093D01*
X027021Y020023D02*
X027021Y020233D01*
X027091Y020093D02*
X027161Y020023D01*
X027481Y020233D02*
X027622Y020233D01*
X027552Y020233D02*
X027552Y020023D01*
X027712Y020058D02*
X027747Y020023D01*
X027817Y020023D01*
X027852Y020058D01*
X027852Y020198D01*
X027817Y020233D01*
X027747Y020233D01*
X027712Y020198D01*
X027712Y020058D01*
X028172Y020058D02*
X028207Y020023D01*
X028277Y020023D01*
X028312Y020058D01*
X028312Y020093D01*
X028277Y020128D01*
X028242Y020128D01*
X028277Y020128D02*
X028312Y020163D01*
X028312Y020198D01*
X028277Y020233D01*
X028207Y020233D01*
X028172Y020198D01*
X028402Y020233D02*
X028402Y020093D01*
X028472Y020023D01*
X028542Y020093D01*
X028542Y020233D01*
X028632Y020198D02*
X028667Y020233D01*
X028738Y020233D01*
X028773Y020198D01*
X028773Y020163D01*
X028738Y020128D01*
X028773Y020093D01*
X028773Y020058D01*
X028738Y020023D01*
X028667Y020023D01*
X028632Y020058D01*
X028703Y020128D02*
X028738Y020128D01*
X028863Y020023D02*
X029003Y020233D01*
X029093Y020233D02*
X029093Y020128D01*
X029163Y020163D01*
X029198Y020163D01*
X029233Y020128D01*
X029233Y020058D01*
X029198Y020023D01*
X029128Y020023D01*
X029093Y020058D01*
X029093Y020233D02*
X029233Y020233D01*
X029323Y020233D02*
X029323Y020093D01*
X029393Y020023D01*
X029463Y020093D01*
X029463Y020233D01*
X029463Y009908D02*
X029463Y009768D01*
X029393Y009698D01*
X029323Y009768D01*
X029323Y009908D01*
X029233Y009908D02*
X029093Y009908D01*
X029093Y009803D01*
X029163Y009838D01*
X029198Y009838D01*
X029233Y009803D01*
X029233Y009733D01*
X029198Y009698D01*
X029128Y009698D01*
X029093Y009733D01*
X029003Y009908D02*
X028863Y009698D01*
X028773Y009733D02*
X028738Y009698D01*
X028667Y009698D01*
X028632Y009733D01*
X028542Y009768D02*
X028542Y009908D01*
X028632Y009873D02*
X028667Y009908D01*
X028738Y009908D01*
X028773Y009873D01*
X028773Y009838D01*
X028738Y009803D01*
X028773Y009768D01*
X028773Y009733D01*
X028738Y009803D02*
X028703Y009803D01*
X028542Y009768D02*
X028472Y009698D01*
X028402Y009768D01*
X028402Y009908D01*
X028312Y009873D02*
X028277Y009908D01*
X028207Y009908D01*
X028172Y009873D01*
X028242Y009803D02*
X028277Y009803D01*
X028312Y009768D01*
X028312Y009733D01*
X028277Y009698D01*
X028207Y009698D01*
X028172Y009733D01*
X028277Y009803D02*
X028312Y009838D01*
X028312Y009873D01*
X027852Y009873D02*
X027817Y009908D01*
X027747Y009908D01*
X027712Y009873D01*
X027712Y009733D01*
X027747Y009698D01*
X027817Y009698D01*
X027852Y009733D01*
X027852Y009873D01*
X027622Y009908D02*
X027481Y009908D01*
X027552Y009908D02*
X027552Y009698D01*
X027161Y009698D02*
X027091Y009768D01*
X027126Y009768D02*
X027021Y009768D01*
X027021Y009698D02*
X027021Y009908D01*
X027126Y009908D01*
X027161Y009873D01*
X027161Y009803D01*
X027126Y009768D01*
X026931Y009698D02*
X026931Y009908D01*
X026791Y009908D02*
X026791Y009698D01*
X026861Y009768D01*
X026931Y009698D01*
X026701Y009803D02*
X026666Y009768D01*
X026561Y009768D01*
X026561Y009698D02*
X026561Y009908D01*
X026666Y009908D01*
X026701Y009873D01*
X026701Y009803D01*
X026240Y009768D02*
X026240Y009733D01*
X026205Y009698D01*
X026135Y009698D01*
X026100Y009733D01*
X026135Y009803D02*
X026205Y009803D01*
X026240Y009768D01*
X026240Y009873D02*
X026205Y009908D01*
X026135Y009908D01*
X026100Y009873D01*
X026100Y009838D01*
X026135Y009803D01*
X026010Y009908D02*
X025870Y009908D01*
X025940Y009908D02*
X025940Y009698D01*
X025780Y009698D02*
X025640Y009698D01*
X025640Y009908D01*
X025780Y009908D01*
X025710Y009803D02*
X025640Y009803D01*
X025550Y009768D02*
X025550Y009733D01*
X025515Y009698D01*
X025445Y009698D01*
X025410Y009733D01*
X025445Y009803D02*
X025410Y009838D01*
X025410Y009873D01*
X025445Y009908D01*
X025515Y009908D01*
X025550Y009873D01*
X025515Y009803D02*
X025550Y009768D01*
X025515Y009803D02*
X025445Y009803D01*
X025089Y009803D02*
X025054Y009768D01*
X024949Y009768D01*
X025019Y009768D02*
X025089Y009698D01*
X025089Y009803D02*
X025089Y009873D01*
X025054Y009908D01*
X024949Y009908D01*
X024949Y009698D01*
X024859Y009698D02*
X024719Y009698D01*
X024719Y009908D01*
X024859Y009908D01*
X024789Y009803D02*
X024719Y009803D01*
X024629Y009803D02*
X024594Y009768D01*
X024489Y009768D01*
X024489Y009698D02*
X024489Y009908D01*
X024594Y009908D01*
X024629Y009873D01*
X024629Y009803D01*
X024399Y009908D02*
X024399Y009698D01*
X024259Y009698D02*
X024259Y009908D01*
X024329Y009838D01*
X024399Y009908D01*
X024169Y009908D02*
X024169Y009733D01*
X024134Y009698D01*
X024064Y009698D01*
X024029Y009733D01*
X024029Y009908D01*
X023938Y009908D02*
X023868Y009908D01*
X023903Y009908D02*
X023903Y009733D01*
X023868Y009698D01*
X023833Y009698D01*
X023798Y009733D01*
X022770Y009768D02*
X022770Y009908D01*
X022630Y009908D02*
X022630Y009768D01*
X022700Y009698D01*
X022770Y009768D01*
X022540Y009803D02*
X022540Y009733D01*
X022505Y009698D01*
X022435Y009698D01*
X022400Y009733D01*
X022400Y009803D02*
X022470Y009838D01*
X022505Y009838D01*
X022540Y009803D01*
X022540Y009908D02*
X022400Y009908D01*
X022400Y009803D01*
X022310Y009908D02*
X022170Y009698D01*
X022080Y009733D02*
X022045Y009698D01*
X021975Y009698D01*
X021940Y009733D01*
X021849Y009768D02*
X021849Y009908D01*
X021940Y009873D02*
X021975Y009908D01*
X022045Y009908D01*
X022080Y009873D01*
X022080Y009838D01*
X022045Y009803D01*
X022080Y009768D01*
X022080Y009733D01*
X022045Y009803D02*
X022010Y009803D01*
X021849Y009768D02*
X021779Y009698D01*
X021709Y009768D01*
X021709Y009908D01*
X021619Y009873D02*
X021584Y009908D01*
X021514Y009908D01*
X021479Y009873D01*
X021549Y009803D02*
X021584Y009803D01*
X021619Y009768D01*
X021619Y009733D01*
X021584Y009698D01*
X021514Y009698D01*
X021479Y009733D01*
X021584Y009803D02*
X021619Y009838D01*
X021619Y009873D01*
X021159Y009873D02*
X021124Y009908D01*
X021054Y009908D01*
X021019Y009873D01*
X021019Y009733D01*
X021054Y009698D01*
X021124Y009698D01*
X021159Y009733D01*
X021159Y009873D01*
X020929Y009908D02*
X020789Y009908D01*
X020859Y009908D02*
X020859Y009698D01*
X020468Y009698D02*
X020398Y009768D01*
X020433Y009768D02*
X020328Y009768D01*
X020328Y009698D02*
X020328Y009908D01*
X020433Y009908D01*
X020468Y009873D01*
X020468Y009803D01*
X020433Y009768D01*
X020238Y009698D02*
X020238Y009908D01*
X020098Y009908D02*
X020098Y009698D01*
X020168Y009768D01*
X020238Y009698D01*
X020008Y009803D02*
X019973Y009768D01*
X019868Y009768D01*
X019868Y009698D02*
X019868Y009908D01*
X019973Y009908D01*
X020008Y009873D01*
X020008Y009803D01*
X019548Y009768D02*
X019548Y009733D01*
X019512Y009698D01*
X019442Y009698D01*
X019407Y009733D01*
X019442Y009803D02*
X019512Y009803D01*
X019548Y009768D01*
X019548Y009873D02*
X019512Y009908D01*
X019442Y009908D01*
X019407Y009873D01*
X019407Y009838D01*
X019442Y009803D01*
X019317Y009908D02*
X019177Y009908D01*
X019247Y009908D02*
X019247Y009698D01*
X019087Y009698D02*
X018947Y009698D01*
X018947Y009908D01*
X019087Y009908D01*
X019017Y009803D02*
X018947Y009803D01*
X018857Y009768D02*
X018857Y009733D01*
X018822Y009698D01*
X018752Y009698D01*
X018717Y009733D01*
X018752Y009803D02*
X018822Y009803D01*
X018857Y009768D01*
X018857Y009873D02*
X018822Y009908D01*
X018752Y009908D01*
X018717Y009873D01*
X018717Y009838D01*
X018752Y009803D01*
X018397Y009803D02*
X018362Y009768D01*
X018256Y009768D01*
X018256Y009698D02*
X018256Y009908D01*
X018362Y009908D01*
X018397Y009873D01*
X018397Y009803D01*
X018326Y009768D02*
X018397Y009698D01*
X018166Y009698D02*
X018026Y009698D01*
X018026Y009908D01*
X018166Y009908D01*
X018096Y009803D02*
X018026Y009803D01*
X017936Y009803D02*
X017901Y009768D01*
X017796Y009768D01*
X017796Y009698D02*
X017796Y009908D01*
X017901Y009908D01*
X017936Y009873D01*
X017936Y009803D01*
X017706Y009908D02*
X017706Y009698D01*
X017566Y009698D02*
X017566Y009908D01*
X017636Y009838D01*
X017706Y009908D01*
X017476Y009908D02*
X017476Y009733D01*
X017441Y009698D01*
X017371Y009698D01*
X017336Y009733D01*
X017336Y009908D01*
X017246Y009908D02*
X017175Y009908D01*
X017211Y009908D02*
X017211Y009733D01*
X017175Y009698D01*
X017140Y009698D01*
X017105Y009733D01*
X016077Y009768D02*
X016077Y009908D01*
X015937Y009908D02*
X015937Y009768D01*
X016007Y009698D01*
X016077Y009768D01*
X015847Y009803D02*
X015847Y009733D01*
X015812Y009698D01*
X015742Y009698D01*
X015707Y009733D01*
X015707Y009803D02*
X015777Y009838D01*
X015812Y009838D01*
X015847Y009803D01*
X015847Y009908D02*
X015707Y009908D01*
X015707Y009803D01*
X015617Y009908D02*
X015477Y009698D01*
X015387Y009733D02*
X015352Y009698D01*
X015282Y009698D01*
X015247Y009733D01*
X015157Y009768D02*
X015157Y009908D01*
X015247Y009873D02*
X015282Y009908D01*
X015352Y009908D01*
X015387Y009873D01*
X015387Y009838D01*
X015352Y009803D01*
X015387Y009768D01*
X015387Y009733D01*
X015352Y009803D02*
X015317Y009803D01*
X015157Y009768D02*
X015086Y009698D01*
X015016Y009768D01*
X015016Y009908D01*
X014926Y009873D02*
X014891Y009908D01*
X014821Y009908D01*
X014786Y009873D01*
X014856Y009803D02*
X014891Y009803D01*
X014926Y009768D01*
X014926Y009733D01*
X014891Y009698D01*
X014821Y009698D01*
X014786Y009733D01*
X014891Y009803D02*
X014926Y009838D01*
X014926Y009873D01*
X014466Y009873D02*
X014431Y009908D01*
X014361Y009908D01*
X014326Y009873D01*
X014326Y009733D01*
X014361Y009698D01*
X014431Y009698D01*
X014466Y009733D01*
X014466Y009873D01*
X014236Y009908D02*
X014096Y009908D01*
X014166Y009908D02*
X014166Y009698D01*
X013775Y009698D02*
X013705Y009768D01*
X013740Y009768D02*
X013635Y009768D01*
X013635Y009698D02*
X013635Y009908D01*
X013740Y009908D01*
X013775Y009873D01*
X013775Y009803D01*
X013740Y009768D01*
X013545Y009698D02*
X013545Y009908D01*
X013405Y009908D02*
X013405Y009698D01*
X013475Y009768D01*
X013545Y009698D01*
X013315Y009803D02*
X013280Y009768D01*
X013175Y009768D01*
X013175Y009698D02*
X013175Y009908D01*
X013280Y009908D01*
X013315Y009873D01*
X013315Y009803D01*
X012855Y009768D02*
X012855Y009733D01*
X012820Y009698D01*
X012750Y009698D01*
X012714Y009733D01*
X012750Y009803D02*
X012820Y009803D01*
X012855Y009768D01*
X012855Y009873D02*
X012820Y009908D01*
X012750Y009908D01*
X012714Y009873D01*
X012714Y009838D01*
X012750Y009803D01*
X012624Y009908D02*
X012484Y009908D01*
X012554Y009908D02*
X012554Y009698D01*
X012394Y009698D02*
X012254Y009698D01*
X012254Y009908D01*
X012394Y009908D01*
X012324Y009803D02*
X012254Y009803D01*
X012164Y009768D02*
X012164Y009733D01*
X012129Y009698D01*
X012059Y009698D01*
X012024Y009733D01*
X012059Y009803D02*
X012129Y009803D01*
X012164Y009768D01*
X012164Y009873D02*
X012129Y009908D01*
X012059Y009908D01*
X012024Y009873D01*
X012024Y009838D01*
X012059Y009803D01*
X011704Y009803D02*
X011669Y009768D01*
X011563Y009768D01*
X011563Y009698D02*
X011563Y009908D01*
X011669Y009908D01*
X011704Y009873D01*
X011704Y009803D01*
X011634Y009768D02*
X011704Y009698D01*
X011473Y009698D02*
X011333Y009698D01*
X011333Y009908D01*
X011473Y009908D01*
X011403Y009803D02*
X011333Y009803D01*
X011243Y009803D02*
X011208Y009768D01*
X011103Y009768D01*
X011103Y009698D02*
X011103Y009908D01*
X011208Y009908D01*
X011243Y009873D01*
X011243Y009803D01*
X011013Y009908D02*
X011013Y009698D01*
X010873Y009698D02*
X010873Y009908D01*
X010943Y009838D01*
X011013Y009908D01*
X010783Y009908D02*
X010783Y009733D01*
X010748Y009698D01*
X010678Y009698D01*
X010643Y009733D01*
X010643Y009908D01*
X010553Y009908D02*
X010483Y009908D01*
X010518Y009908D02*
X010518Y009733D01*
X010483Y009698D01*
X010448Y009698D01*
X010413Y009733D01*
X009384Y009768D02*
X009384Y009908D01*
X009244Y009908D02*
X009244Y009768D01*
X009314Y009698D01*
X009384Y009768D01*
X009154Y009803D02*
X009154Y009733D01*
X009119Y009698D01*
X009049Y009698D01*
X009014Y009733D01*
X009014Y009803D02*
X009084Y009838D01*
X009119Y009838D01*
X009154Y009803D01*
X009154Y009908D02*
X009014Y009908D01*
X009014Y009803D01*
X008924Y009908D02*
X008784Y009698D01*
X008694Y009733D02*
X008659Y009698D01*
X008589Y009698D01*
X008554Y009733D01*
X008464Y009768D02*
X008464Y009908D01*
X008554Y009873D02*
X008589Y009908D01*
X008659Y009908D01*
X008694Y009873D01*
X008694Y009838D01*
X008659Y009803D01*
X008694Y009768D01*
X008694Y009733D01*
X008659Y009803D02*
X008624Y009803D01*
X008464Y009768D02*
X008394Y009698D01*
X008324Y009768D01*
X008324Y009908D01*
X008233Y009873D02*
X008233Y009838D01*
X008198Y009803D01*
X008233Y009768D01*
X008233Y009733D01*
X008198Y009698D01*
X008128Y009698D01*
X008093Y009733D01*
X008163Y009803D02*
X008198Y009803D01*
X008233Y009873D02*
X008198Y009908D01*
X008128Y009908D01*
X008093Y009873D01*
X007773Y009873D02*
X007738Y009908D01*
X007668Y009908D01*
X007633Y009873D01*
X007633Y009733D01*
X007668Y009698D01*
X007738Y009698D01*
X007773Y009733D01*
X007773Y009873D01*
X007543Y009908D02*
X007403Y009908D01*
X007473Y009908D02*
X007473Y009698D01*
X007082Y009698D02*
X007012Y009768D01*
X007047Y009768D02*
X006942Y009768D01*
X006942Y009698D02*
X006942Y009908D01*
X007047Y009908D01*
X007082Y009873D01*
X007082Y009803D01*
X007047Y009768D01*
X006852Y009698D02*
X006852Y009908D01*
X006712Y009908D02*
X006712Y009698D01*
X006782Y009768D01*
X006852Y009698D01*
X006622Y009803D02*
X006587Y009768D01*
X006482Y009768D01*
X006482Y009698D02*
X006482Y009908D01*
X006587Y009908D01*
X006622Y009873D01*
X006622Y009803D01*
X006162Y009768D02*
X006162Y009733D01*
X006127Y009698D01*
X006057Y009698D01*
X006022Y009733D01*
X006057Y009803D02*
X006127Y009803D01*
X006162Y009768D01*
X006162Y009873D02*
X006127Y009908D01*
X006057Y009908D01*
X006022Y009873D01*
X006022Y009838D01*
X006057Y009803D01*
X005931Y009908D02*
X005791Y009908D01*
X005861Y009908D02*
X005861Y009698D01*
X005701Y009698D02*
X005561Y009698D01*
X005561Y009908D01*
X005701Y009908D01*
X005631Y009803D02*
X005561Y009803D01*
X005471Y009768D02*
X005471Y009733D01*
X005436Y009698D01*
X005366Y009698D01*
X005331Y009733D01*
X005366Y009803D02*
X005436Y009803D01*
X005471Y009768D01*
X005471Y009873D02*
X005436Y009908D01*
X005366Y009908D01*
X005331Y009873D01*
X005331Y009838D01*
X005366Y009803D01*
X005011Y009803D02*
X004976Y009768D01*
X004871Y009768D01*
X004941Y009768D02*
X005011Y009698D01*
X005011Y009803D02*
X005011Y009873D01*
X004976Y009908D01*
X004871Y009908D01*
X004871Y009698D01*
X004781Y009698D02*
X004640Y009698D01*
X004640Y009908D01*
X004781Y009908D01*
X004710Y009803D02*
X004640Y009803D01*
X004550Y009803D02*
X004515Y009768D01*
X004410Y009768D01*
X004410Y009698D02*
X004410Y009908D01*
X004515Y009908D01*
X004550Y009873D01*
X004550Y009803D01*
X004320Y009908D02*
X004320Y009698D01*
X004180Y009698D02*
X004180Y009908D01*
X004250Y009838D01*
X004320Y009908D01*
X004090Y009908D02*
X004090Y009733D01*
X004055Y009698D01*
X003985Y009698D01*
X003950Y009733D01*
X003950Y009908D01*
X003860Y009908D02*
X003790Y009908D01*
X003825Y009908D02*
X003825Y009733D01*
X003790Y009698D01*
X003755Y009698D01*
X003720Y009733D01*
D12*
X003300Y010028D02*
X004380Y010028D01*
X004380Y010653D01*
X004380Y010028D02*
X005370Y010028D01*
X005370Y010653D01*
X005370Y010028D02*
X006450Y010028D01*
X006450Y010653D01*
X006450Y010028D02*
X007520Y010028D01*
X007520Y010653D01*
X007520Y010028D02*
X008595Y010028D01*
X008595Y010653D01*
X008595Y010028D02*
X009650Y010028D01*
X009993Y010028D02*
X011073Y010028D01*
X011073Y010653D01*
X011073Y010028D02*
X012063Y010028D01*
X012063Y010653D01*
X012063Y010028D02*
X013143Y010028D01*
X013143Y010653D01*
X013143Y010028D02*
X014213Y010028D01*
X014213Y010653D01*
X014213Y010028D02*
X015288Y010028D01*
X015288Y010653D01*
X015288Y010028D02*
X016343Y010028D01*
X016685Y010028D02*
X017765Y010028D01*
X017765Y010653D01*
X017765Y010028D02*
X018755Y010028D01*
X018755Y010653D01*
X018755Y010028D02*
X019835Y010028D01*
X019835Y010653D01*
X019835Y010028D02*
X020905Y010028D01*
X020905Y010653D01*
X020905Y010028D02*
X021980Y010028D01*
X021980Y010653D01*
X021980Y010028D02*
X023035Y010028D01*
X023378Y010028D02*
X024458Y010028D01*
X024458Y010653D01*
X024458Y010028D02*
X025448Y010028D01*
X025448Y010653D01*
X025448Y010028D02*
X026528Y010028D01*
X026528Y010653D01*
X026528Y010028D02*
X027598Y010028D01*
X027598Y010653D01*
X027598Y010028D02*
X028673Y010028D01*
X028673Y010653D01*
X028673Y010028D02*
X029728Y010028D01*
X027855Y013056D02*
X025552Y013056D01*
X025552Y017150D01*
X027855Y017150D01*
X027855Y013056D01*
X025783Y016803D02*
X025785Y016824D01*
X025791Y016845D01*
X025800Y016865D01*
X025813Y016882D01*
X025828Y016897D01*
X025846Y016909D01*
X025866Y016917D01*
X025887Y016922D01*
X025908Y016923D01*
X025930Y016920D01*
X025950Y016913D01*
X025969Y016903D01*
X025986Y016890D01*
X026000Y016874D01*
X026011Y016855D01*
X026019Y016835D01*
X026023Y016814D01*
X026023Y016792D01*
X026019Y016771D01*
X026011Y016751D01*
X026000Y016732D01*
X025986Y016716D01*
X025969Y016703D01*
X025950Y016693D01*
X025930Y016686D01*
X025908Y016683D01*
X025887Y016684D01*
X025866Y016689D01*
X025846Y016697D01*
X025828Y016709D01*
X025813Y016724D01*
X025800Y016741D01*
X025791Y016761D01*
X025785Y016782D01*
X025783Y016803D01*
X025448Y020353D02*
X024458Y020353D01*
X024458Y020978D01*
X024458Y020353D02*
X023378Y020353D01*
X023035Y020353D02*
X021980Y020353D01*
X021980Y020978D01*
X021980Y020353D02*
X020905Y020353D01*
X020905Y020978D01*
X020905Y020353D02*
X019835Y020353D01*
X019835Y020978D01*
X019835Y020353D02*
X018755Y020353D01*
X018755Y020978D01*
X018755Y020353D02*
X017765Y020353D01*
X017765Y020978D01*
X017765Y020353D02*
X016685Y020353D01*
X016343Y020353D02*
X015288Y020353D01*
X015288Y020978D01*
X015288Y020353D02*
X014213Y020353D01*
X014213Y020978D01*
X014213Y020353D02*
X013143Y020353D01*
X013143Y020978D01*
X013143Y020353D02*
X012063Y020353D01*
X012063Y020978D01*
X012063Y020353D02*
X011073Y020353D01*
X011073Y020978D01*
X011073Y020353D02*
X009993Y020353D01*
X009650Y020353D02*
X008595Y020353D01*
X008595Y020978D01*
X008595Y020353D02*
X007520Y020353D01*
X007520Y020978D01*
X007520Y020353D02*
X006450Y020353D01*
X006450Y020978D01*
X006450Y020353D02*
X005370Y020353D01*
X005370Y020978D01*
X005370Y020353D02*
X004380Y020353D01*
X004380Y020978D01*
X004380Y020353D02*
X003300Y020353D01*
X005473Y023381D02*
X005473Y027476D01*
X007776Y027476D01*
X007776Y023381D01*
X005473Y023381D01*
X005705Y027129D02*
X005707Y027150D01*
X005713Y027171D01*
X005722Y027191D01*
X005735Y027208D01*
X005750Y027223D01*
X005768Y027235D01*
X005788Y027243D01*
X005809Y027248D01*
X005830Y027249D01*
X005852Y027246D01*
X005872Y027239D01*
X005891Y027229D01*
X005908Y027216D01*
X005922Y027200D01*
X005933Y027181D01*
X005941Y027161D01*
X005945Y027140D01*
X005945Y027118D01*
X005941Y027097D01*
X005933Y027077D01*
X005922Y027058D01*
X005908Y027042D01*
X005891Y027029D01*
X005872Y027019D01*
X005852Y027012D01*
X005830Y027009D01*
X005809Y027010D01*
X005788Y027015D01*
X005768Y027023D01*
X005750Y027035D01*
X005735Y027050D01*
X005722Y027067D01*
X005713Y027087D01*
X005707Y027108D01*
X005705Y027129D01*
X005370Y030679D02*
X004380Y030679D01*
X004380Y031304D01*
X004380Y030679D02*
X003300Y030679D01*
X005370Y030679D02*
X005370Y031304D01*
X005370Y030679D02*
X006450Y030679D01*
X006450Y031304D01*
X006450Y030679D02*
X007520Y030679D01*
X007520Y031304D01*
X007520Y030679D02*
X008595Y030679D01*
X008595Y031304D01*
X008595Y030679D02*
X009650Y030679D01*
X009993Y030679D02*
X011073Y030679D01*
X011073Y031304D01*
X011073Y030679D02*
X012063Y030679D01*
X012063Y031304D01*
X012063Y030679D02*
X013143Y030679D01*
X013143Y031304D01*
X013143Y030679D02*
X014213Y030679D01*
X014213Y031304D01*
X014213Y030679D02*
X015288Y030679D01*
X015288Y031304D01*
X015288Y030679D02*
X016343Y030679D01*
X016685Y030679D02*
X017765Y030679D01*
X017765Y031304D01*
X017765Y030679D02*
X018755Y030679D01*
X018755Y031304D01*
X018755Y030679D02*
X019835Y030679D01*
X019835Y031304D01*
X019835Y030679D02*
X020905Y030679D01*
X020905Y031304D01*
X020905Y030679D02*
X021980Y030679D01*
X021980Y031304D01*
X021980Y030679D02*
X023035Y030679D01*
X023378Y030679D02*
X024458Y030679D01*
X024458Y031304D01*
X024458Y030679D02*
X025448Y030679D01*
X025448Y031304D01*
X025448Y030679D02*
X026528Y030679D01*
X026528Y031304D01*
X026528Y030679D02*
X027598Y030679D01*
X027598Y031304D01*
X027598Y030679D02*
X028673Y030679D01*
X028673Y031304D01*
X028673Y030679D02*
X029728Y030679D01*
X027855Y027476D02*
X025552Y027476D01*
X025552Y023381D01*
X027855Y023381D01*
X027855Y027476D01*
X025783Y027129D02*
X025785Y027150D01*
X025791Y027171D01*
X025800Y027191D01*
X025813Y027208D01*
X025828Y027223D01*
X025846Y027235D01*
X025866Y027243D01*
X025887Y027248D01*
X025908Y027249D01*
X025930Y027246D01*
X025950Y027239D01*
X025969Y027229D01*
X025986Y027216D01*
X026000Y027200D01*
X026011Y027181D01*
X026019Y027161D01*
X026023Y027140D01*
X026023Y027118D01*
X026019Y027097D01*
X026011Y027077D01*
X026000Y027058D01*
X025986Y027042D01*
X025969Y027029D01*
X025950Y027019D01*
X025930Y027012D01*
X025908Y027009D01*
X025887Y027010D01*
X025866Y027015D01*
X025846Y027023D01*
X025828Y027035D01*
X025813Y027050D01*
X025800Y027067D01*
X025791Y027087D01*
X025785Y027108D01*
X025783Y027129D01*
X021162Y027476D02*
X021162Y023381D01*
X018859Y023381D01*
X018859Y027476D01*
X021162Y027476D01*
X019090Y027129D02*
X019092Y027150D01*
X019098Y027171D01*
X019107Y027191D01*
X019120Y027208D01*
X019135Y027223D01*
X019153Y027235D01*
X019173Y027243D01*
X019194Y027248D01*
X019215Y027249D01*
X019237Y027246D01*
X019257Y027239D01*
X019276Y027229D01*
X019293Y027216D01*
X019307Y027200D01*
X019318Y027181D01*
X019326Y027161D01*
X019330Y027140D01*
X019330Y027118D01*
X019326Y027097D01*
X019318Y027077D01*
X019307Y027058D01*
X019293Y027042D01*
X019276Y027029D01*
X019257Y027019D01*
X019237Y027012D01*
X019215Y027009D01*
X019194Y027010D01*
X019173Y027015D01*
X019153Y027023D01*
X019135Y027035D01*
X019120Y027050D01*
X019107Y027067D01*
X019098Y027087D01*
X019092Y027108D01*
X019090Y027129D01*
X014469Y027476D02*
X014469Y023381D01*
X012166Y023381D01*
X012166Y027476D01*
X014469Y027476D01*
X012398Y027129D02*
X012400Y027150D01*
X012406Y027171D01*
X012415Y027191D01*
X012428Y027208D01*
X012443Y027223D01*
X012461Y027235D01*
X012481Y027243D01*
X012502Y027248D01*
X012523Y027249D01*
X012545Y027246D01*
X012565Y027239D01*
X012584Y027229D01*
X012601Y027216D01*
X012615Y027200D01*
X012626Y027181D01*
X012634Y027161D01*
X012638Y027140D01*
X012638Y027118D01*
X012634Y027097D01*
X012626Y027077D01*
X012615Y027058D01*
X012601Y027042D01*
X012584Y027029D01*
X012565Y027019D01*
X012545Y027012D01*
X012523Y027009D01*
X012502Y027010D01*
X012481Y027015D01*
X012461Y027023D01*
X012443Y027035D01*
X012428Y027050D01*
X012415Y027067D01*
X012406Y027087D01*
X012400Y027108D01*
X012398Y027129D01*
X012166Y017150D02*
X014469Y017150D01*
X014469Y013056D01*
X012166Y013056D01*
X012166Y017150D01*
X012398Y016803D02*
X012400Y016824D01*
X012406Y016845D01*
X012415Y016865D01*
X012428Y016882D01*
X012443Y016897D01*
X012461Y016909D01*
X012481Y016917D01*
X012502Y016922D01*
X012523Y016923D01*
X012545Y016920D01*
X012565Y016913D01*
X012584Y016903D01*
X012601Y016890D01*
X012615Y016874D01*
X012626Y016855D01*
X012634Y016835D01*
X012638Y016814D01*
X012638Y016792D01*
X012634Y016771D01*
X012626Y016751D01*
X012615Y016732D01*
X012601Y016716D01*
X012584Y016703D01*
X012565Y016693D01*
X012545Y016686D01*
X012523Y016683D01*
X012502Y016684D01*
X012481Y016689D01*
X012461Y016697D01*
X012443Y016709D01*
X012428Y016724D01*
X012415Y016741D01*
X012406Y016761D01*
X012400Y016782D01*
X012398Y016803D01*
X007776Y017150D02*
X007776Y013056D01*
X005473Y013056D01*
X005473Y017150D01*
X007776Y017150D01*
X005705Y016803D02*
X005707Y016824D01*
X005713Y016845D01*
X005722Y016865D01*
X005735Y016882D01*
X005750Y016897D01*
X005768Y016909D01*
X005788Y016917D01*
X005809Y016922D01*
X005830Y016923D01*
X005852Y016920D01*
X005872Y016913D01*
X005891Y016903D01*
X005908Y016890D01*
X005922Y016874D01*
X005933Y016855D01*
X005941Y016835D01*
X005945Y016814D01*
X005945Y016792D01*
X005941Y016771D01*
X005933Y016751D01*
X005922Y016732D01*
X005908Y016716D01*
X005891Y016703D01*
X005872Y016693D01*
X005852Y016686D01*
X005830Y016683D01*
X005809Y016684D01*
X005788Y016689D01*
X005768Y016697D01*
X005750Y016709D01*
X005735Y016724D01*
X005722Y016741D01*
X005713Y016761D01*
X005707Y016782D01*
X005705Y016803D01*
X005473Y006825D02*
X007776Y006825D01*
X007776Y002730D01*
X005473Y002730D01*
X005473Y006825D01*
X005705Y006478D02*
X005707Y006499D01*
X005713Y006520D01*
X005722Y006540D01*
X005735Y006557D01*
X005750Y006572D01*
X005768Y006584D01*
X005788Y006592D01*
X005809Y006597D01*
X005830Y006598D01*
X005852Y006595D01*
X005872Y006588D01*
X005891Y006578D01*
X005908Y006565D01*
X005922Y006549D01*
X005933Y006530D01*
X005941Y006510D01*
X005945Y006489D01*
X005945Y006467D01*
X005941Y006446D01*
X005933Y006426D01*
X005922Y006407D01*
X005908Y006391D01*
X005891Y006378D01*
X005872Y006368D01*
X005852Y006361D01*
X005830Y006358D01*
X005809Y006359D01*
X005788Y006364D01*
X005768Y006372D01*
X005750Y006384D01*
X005735Y006399D01*
X005722Y006416D01*
X005713Y006436D01*
X005707Y006457D01*
X005705Y006478D01*
X012166Y006825D02*
X012166Y002730D01*
X014469Y002730D01*
X014469Y006825D01*
X012166Y006825D01*
X012398Y006478D02*
X012400Y006499D01*
X012406Y006520D01*
X012415Y006540D01*
X012428Y006557D01*
X012443Y006572D01*
X012461Y006584D01*
X012481Y006592D01*
X012502Y006597D01*
X012523Y006598D01*
X012545Y006595D01*
X012565Y006588D01*
X012584Y006578D01*
X012601Y006565D01*
X012615Y006549D01*
X012626Y006530D01*
X012634Y006510D01*
X012638Y006489D01*
X012638Y006467D01*
X012634Y006446D01*
X012626Y006426D01*
X012615Y006407D01*
X012601Y006391D01*
X012584Y006378D01*
X012565Y006368D01*
X012545Y006361D01*
X012523Y006358D01*
X012502Y006359D01*
X012481Y006364D01*
X012461Y006372D01*
X012443Y006384D01*
X012428Y006399D01*
X012415Y006416D01*
X012406Y006436D01*
X012400Y006457D01*
X012398Y006478D01*
X018859Y006825D02*
X018859Y002730D01*
X021162Y002730D01*
X021162Y006825D01*
X018859Y006825D01*
X019090Y006478D02*
X019092Y006499D01*
X019098Y006520D01*
X019107Y006540D01*
X019120Y006557D01*
X019135Y006572D01*
X019153Y006584D01*
X019173Y006592D01*
X019194Y006597D01*
X019215Y006598D01*
X019237Y006595D01*
X019257Y006588D01*
X019276Y006578D01*
X019293Y006565D01*
X019307Y006549D01*
X019318Y006530D01*
X019326Y006510D01*
X019330Y006489D01*
X019330Y006467D01*
X019326Y006446D01*
X019318Y006426D01*
X019307Y006407D01*
X019293Y006391D01*
X019276Y006378D01*
X019257Y006368D01*
X019237Y006361D01*
X019215Y006358D01*
X019194Y006359D01*
X019173Y006364D01*
X019153Y006372D01*
X019135Y006384D01*
X019120Y006399D01*
X019107Y006416D01*
X019098Y006436D01*
X019092Y006457D01*
X019090Y006478D01*
X025552Y006825D02*
X025552Y002730D01*
X027855Y002730D01*
X027855Y006825D01*
X025552Y006825D01*
X025783Y006478D02*
X025785Y006499D01*
X025791Y006520D01*
X025800Y006540D01*
X025813Y006557D01*
X025828Y006572D01*
X025846Y006584D01*
X025866Y006592D01*
X025887Y006597D01*
X025908Y006598D01*
X025930Y006595D01*
X025950Y006588D01*
X025969Y006578D01*
X025986Y006565D01*
X026000Y006549D01*
X026011Y006530D01*
X026019Y006510D01*
X026023Y006489D01*
X026023Y006467D01*
X026019Y006446D01*
X026011Y006426D01*
X026000Y006407D01*
X025986Y006391D01*
X025969Y006378D01*
X025950Y006368D01*
X025930Y006361D01*
X025908Y006358D01*
X025887Y006359D01*
X025866Y006364D01*
X025846Y006372D01*
X025828Y006384D01*
X025813Y006399D01*
X025800Y006416D01*
X025791Y006436D01*
X025785Y006457D01*
X025783Y006478D01*
X021162Y013056D02*
X018859Y013056D01*
X018859Y017150D01*
X021162Y017150D01*
X021162Y013056D01*
X019090Y016803D02*
X019092Y016824D01*
X019098Y016845D01*
X019107Y016865D01*
X019120Y016882D01*
X019135Y016897D01*
X019153Y016909D01*
X019173Y016917D01*
X019194Y016922D01*
X019215Y016923D01*
X019237Y016920D01*
X019257Y016913D01*
X019276Y016903D01*
X019293Y016890D01*
X019307Y016874D01*
X019318Y016855D01*
X019326Y016835D01*
X019330Y016814D01*
X019330Y016792D01*
X019326Y016771D01*
X019318Y016751D01*
X019307Y016732D01*
X019293Y016716D01*
X019276Y016703D01*
X019257Y016693D01*
X019237Y016686D01*
X019215Y016683D01*
X019194Y016684D01*
X019173Y016689D01*
X019153Y016697D01*
X019135Y016709D01*
X019120Y016724D01*
X019107Y016741D01*
X019098Y016761D01*
X019092Y016782D01*
X019090Y016803D01*
X025448Y020353D02*
X025448Y020978D01*
X025448Y020353D02*
X026528Y020353D01*
X026528Y020978D01*
X026528Y020353D02*
X027598Y020353D01*
X027598Y020978D01*
X027598Y020353D02*
X028673Y020353D01*
X028673Y020978D01*
X028673Y020353D02*
X029728Y020353D01*
D13*
X004425Y000828D02*
X004275Y000828D01*
X004425Y000828D02*
X004425Y001178D01*
X004425Y002128D02*
X004425Y002478D01*
X004275Y002478D01*
X004275Y002828D02*
X004425Y002828D01*
X004425Y003228D01*
X004425Y004078D02*
X004425Y004478D01*
X004275Y004478D01*
X004275Y011153D02*
X004425Y011153D01*
X004425Y011503D01*
X004425Y012453D02*
X004425Y012803D01*
X004275Y012803D01*
X004275Y013153D02*
X004425Y013153D01*
X004425Y013553D01*
X004425Y014403D02*
X004425Y014803D01*
X004275Y014803D01*
X004275Y021479D02*
X004425Y021479D01*
X004425Y021829D01*
X004425Y022779D02*
X004425Y023129D01*
X004275Y023129D01*
X004275Y023479D02*
X004425Y023479D01*
X004425Y023879D01*
X004425Y024729D02*
X004425Y025129D01*
X004275Y025129D01*
X010968Y025129D02*
X011118Y025129D01*
X011118Y024729D01*
X011118Y023879D02*
X011118Y023479D01*
X010968Y023479D01*
X010968Y023129D02*
X011118Y023129D01*
X011118Y022779D01*
X011118Y021829D02*
X011118Y021479D01*
X010968Y021479D01*
X017660Y021479D02*
X017810Y021479D01*
X017810Y021829D01*
X017810Y022779D02*
X017810Y023129D01*
X017660Y023129D01*
X017660Y023479D02*
X017810Y023479D01*
X017810Y023879D01*
X017810Y024729D02*
X017810Y025129D01*
X017660Y025129D01*
X024353Y025129D02*
X024503Y025129D01*
X024503Y024729D01*
X024503Y023879D02*
X024503Y023479D01*
X024353Y023479D01*
X024353Y023129D02*
X024503Y023129D01*
X024503Y022779D01*
X024503Y021829D02*
X024503Y021479D01*
X024353Y021479D01*
X024353Y014803D02*
X024503Y014803D01*
X024503Y014403D01*
X024503Y013553D02*
X024503Y013153D01*
X024353Y013153D01*
X024353Y012803D02*
X024503Y012803D01*
X024503Y012453D01*
X024503Y011503D02*
X024503Y011153D01*
X024353Y011153D01*
X017810Y011153D02*
X017660Y011153D01*
X017810Y011153D02*
X017810Y011503D01*
X017810Y012453D02*
X017810Y012803D01*
X017660Y012803D01*
X017660Y013153D02*
X017810Y013153D01*
X017810Y013553D01*
X017810Y014403D02*
X017810Y014803D01*
X017660Y014803D01*
X011118Y014803D02*
X011118Y014403D01*
X011118Y014803D02*
X010968Y014803D01*
X011118Y013553D02*
X011118Y013153D01*
X010968Y013153D01*
X010968Y012803D02*
X011118Y012803D01*
X011118Y012453D01*
X011118Y011503D02*
X011118Y011153D01*
X010968Y011153D01*
X010968Y004478D02*
X011118Y004478D01*
X011118Y004078D01*
X011118Y003228D02*
X011118Y002828D01*
X010968Y002828D01*
X010968Y002478D02*
X011118Y002478D01*
X011118Y002128D01*
X011118Y001178D02*
X011118Y000828D01*
X010968Y000828D01*
X017660Y000828D02*
X017810Y000828D01*
X017810Y001178D01*
X017810Y002128D02*
X017810Y002478D01*
X017660Y002478D01*
X017660Y002828D02*
X017810Y002828D01*
X017810Y003228D01*
X017810Y004078D02*
X017810Y004478D01*
X017660Y004478D01*
X024353Y004478D02*
X024503Y004478D01*
X024503Y004078D01*
X024503Y003228D02*
X024503Y002828D01*
X024353Y002828D01*
X024353Y002478D02*
X024503Y002478D01*
X024503Y002128D01*
X024503Y001178D02*
X024503Y000828D01*
X024353Y000828D01*
D14*
X025215Y000657D02*
X027892Y000657D01*
X027892Y001720D02*
X027892Y001850D01*
X025215Y001850D01*
X025215Y001720D01*
X022942Y004261D02*
X022760Y004261D01*
X022668Y004383D01*
X022579Y004261D02*
X022760Y004261D01*
X022770Y004267D02*
X022846Y004383D01*
X022852Y005572D02*
X022760Y005694D01*
X022579Y005694D01*
X022674Y005572D02*
X022750Y005688D01*
X022760Y005694D02*
X022942Y005694D01*
X023622Y006161D02*
X023803Y006161D01*
X023711Y006283D01*
X023803Y006161D02*
X023984Y006161D01*
X023889Y006283D02*
X023813Y006167D01*
X023555Y008658D02*
X023555Y009158D01*
X022862Y009158D02*
X022862Y008658D01*
X021199Y010982D02*
X018522Y010982D01*
X018522Y012045D02*
X018522Y012175D01*
X021199Y012175D01*
X021199Y012045D01*
X022579Y014586D02*
X022760Y014586D01*
X022668Y014708D01*
X022760Y014586D02*
X022942Y014586D01*
X022846Y014708D02*
X022770Y014592D01*
X022852Y015898D02*
X022760Y016020D01*
X022579Y016020D01*
X022674Y015898D02*
X022750Y016014D01*
X022760Y016020D02*
X022942Y016020D01*
X023622Y016486D02*
X023803Y016486D01*
X023711Y016608D01*
X023803Y016486D02*
X023984Y016486D01*
X023889Y016608D02*
X023813Y016492D01*
X023555Y018983D02*
X023555Y019483D01*
X022862Y019483D02*
X022862Y018983D01*
X021199Y021308D02*
X018522Y021308D01*
X018522Y022371D02*
X018522Y022501D01*
X021199Y022501D01*
X021199Y022371D01*
X022579Y024912D02*
X022760Y024912D01*
X022668Y025034D01*
X022760Y024912D02*
X022942Y024912D01*
X022846Y025034D02*
X022770Y024918D01*
X022852Y026224D02*
X022760Y026346D01*
X022579Y026346D01*
X022674Y026224D02*
X022750Y026340D01*
X022760Y026346D02*
X022942Y026346D01*
X023622Y026812D02*
X023803Y026812D01*
X023711Y026934D01*
X023803Y026812D02*
X023984Y026812D01*
X023889Y026934D02*
X023813Y026818D01*
X023555Y029309D02*
X023555Y029809D01*
X022862Y029809D02*
X022862Y029309D01*
X017292Y026812D02*
X017110Y026812D01*
X017018Y026934D01*
X016929Y026812D02*
X017110Y026812D01*
X017120Y026818D02*
X017196Y026934D01*
X016249Y026346D02*
X016068Y026346D01*
X016160Y026224D01*
X016068Y026346D02*
X015886Y026346D01*
X015982Y026224D02*
X016058Y026340D01*
X015975Y025034D02*
X016068Y024912D01*
X016249Y024912D01*
X016154Y025034D02*
X016078Y024918D01*
X016068Y024912D02*
X015886Y024912D01*
X014506Y022501D02*
X011829Y022501D01*
X011829Y022371D01*
X011829Y021308D02*
X014506Y021308D01*
X014506Y022371D02*
X014506Y022501D01*
X016169Y019483D02*
X016169Y018983D01*
X016862Y018983D02*
X016862Y019483D01*
X017018Y016608D02*
X017110Y016486D01*
X017292Y016486D01*
X017196Y016608D02*
X017120Y016492D01*
X017110Y016486D02*
X016929Y016486D01*
X016249Y016020D02*
X016068Y016020D01*
X016160Y015898D01*
X016068Y016020D02*
X015886Y016020D01*
X015982Y015898D02*
X016058Y016014D01*
X015975Y014708D02*
X016068Y014586D01*
X016249Y014586D01*
X016154Y014708D02*
X016078Y014592D01*
X016068Y014586D02*
X015886Y014586D01*
X014506Y012175D02*
X011829Y012175D01*
X011829Y012045D01*
X011829Y010982D02*
X014506Y010982D01*
X014506Y012045D02*
X014506Y012175D01*
X016169Y009158D02*
X016169Y008658D01*
X016862Y008658D02*
X016862Y009158D01*
X017018Y006283D02*
X017110Y006161D01*
X017292Y006161D01*
X017196Y006283D02*
X017120Y006167D01*
X017110Y006161D02*
X016929Y006161D01*
X016249Y005694D02*
X016068Y005694D01*
X016160Y005572D01*
X016068Y005694D02*
X015886Y005694D01*
X015982Y005572D02*
X016058Y005688D01*
X015975Y004383D02*
X016068Y004261D01*
X016249Y004261D01*
X016154Y004383D02*
X016078Y004267D01*
X016068Y004261D02*
X015886Y004261D01*
X014506Y001850D02*
X011829Y001850D01*
X011829Y001720D01*
X011829Y000657D02*
X014506Y000657D01*
X014506Y001720D02*
X014506Y001850D01*
X018522Y001850D02*
X021199Y001850D01*
X021199Y001720D01*
X021199Y000657D02*
X018522Y000657D01*
X018522Y001720D02*
X018522Y001850D01*
X010599Y006161D02*
X010418Y006161D01*
X010325Y006283D01*
X010236Y006161D02*
X010418Y006161D01*
X010428Y006167D02*
X010504Y006283D01*
X009556Y005694D02*
X009375Y005694D01*
X009467Y005572D01*
X009375Y005694D02*
X009194Y005694D01*
X009289Y005572D02*
X009365Y005688D01*
X009283Y004383D02*
X009375Y004261D01*
X009556Y004261D01*
X009461Y004383D02*
X009385Y004267D01*
X009375Y004261D02*
X009194Y004261D01*
X007813Y001850D02*
X005136Y001850D01*
X005136Y001720D01*
X005136Y000657D02*
X007813Y000657D01*
X007813Y001720D02*
X007813Y001850D01*
X003906Y006161D02*
X003725Y006161D01*
X003633Y006283D01*
X003544Y006161D02*
X003725Y006161D01*
X003735Y006167D02*
X003811Y006283D01*
X003477Y008658D02*
X003477Y009158D01*
X005136Y010982D02*
X007813Y010982D01*
X007813Y012045D02*
X007813Y012175D01*
X005136Y012175D01*
X005136Y012045D01*
X009194Y014586D02*
X009375Y014586D01*
X009283Y014708D01*
X009375Y014586D02*
X009556Y014586D01*
X009461Y014708D02*
X009385Y014592D01*
X009467Y015898D02*
X009375Y016020D01*
X009194Y016020D01*
X009289Y015898D02*
X009365Y016014D01*
X009375Y016020D02*
X009556Y016020D01*
X010236Y016486D02*
X010418Y016486D01*
X010325Y016608D01*
X010418Y016486D02*
X010599Y016486D01*
X010504Y016608D02*
X010428Y016492D01*
X010169Y018983D02*
X010169Y019483D01*
X009477Y019483D02*
X009477Y018983D01*
X007813Y021308D02*
X005136Y021308D01*
X005136Y022371D02*
X005136Y022501D01*
X007813Y022501D01*
X007813Y022371D01*
X009194Y024912D02*
X009375Y024912D01*
X009283Y025034D01*
X009375Y024912D02*
X009556Y024912D01*
X009461Y025034D02*
X009385Y024918D01*
X009467Y026224D02*
X009375Y026346D01*
X009194Y026346D01*
X009289Y026224D02*
X009365Y026340D01*
X009375Y026346D02*
X009556Y026346D01*
X010236Y026812D02*
X010418Y026812D01*
X010325Y026934D01*
X010418Y026812D02*
X010599Y026812D01*
X010504Y026934D02*
X010428Y026818D01*
X010169Y029309D02*
X010169Y029809D01*
X009477Y029809D02*
X009477Y029309D01*
X003906Y026812D02*
X003725Y026812D01*
X003633Y026934D01*
X003544Y026812D02*
X003725Y026812D01*
X003735Y026818D02*
X003811Y026934D01*
X003477Y029309D02*
X003477Y029809D01*
X003477Y019483D02*
X003477Y018983D01*
X003633Y016608D02*
X003725Y016486D01*
X003906Y016486D01*
X003811Y016608D02*
X003735Y016492D01*
X003725Y016486D02*
X003544Y016486D01*
X009477Y009158D02*
X009477Y008658D01*
X010169Y008658D02*
X010169Y009158D01*
X025215Y010982D02*
X027892Y010982D01*
X027892Y012045D02*
X027892Y012175D01*
X025215Y012175D01*
X025215Y012045D01*
X029272Y014586D02*
X029453Y014586D01*
X029361Y014708D01*
X029453Y014586D02*
X029634Y014586D01*
X029539Y014708D02*
X029463Y014592D01*
X029545Y015898D02*
X029453Y016020D01*
X029272Y016020D01*
X029367Y015898D02*
X029443Y016014D01*
X029453Y016020D02*
X029634Y016020D01*
X029555Y018983D02*
X029555Y019483D01*
X027892Y021308D02*
X025215Y021308D01*
X025215Y022371D02*
X025215Y022501D01*
X027892Y022501D01*
X027892Y022371D01*
X029272Y024912D02*
X029453Y024912D01*
X029361Y025034D01*
X029453Y024912D02*
X029634Y024912D01*
X029539Y025034D02*
X029463Y024918D01*
X029545Y026224D02*
X029453Y026346D01*
X029272Y026346D01*
X029367Y026224D02*
X029443Y026340D01*
X029453Y026346D02*
X029634Y026346D01*
X029555Y029309D02*
X029555Y029809D01*
X016862Y029809D02*
X016862Y029309D01*
X016169Y029309D02*
X016169Y029809D01*
X029555Y009158D02*
X029555Y008658D01*
X029634Y005694D02*
X029453Y005694D01*
X029545Y005572D01*
X029453Y005694D02*
X029272Y005694D01*
X029367Y005572D02*
X029443Y005688D01*
X029361Y004383D02*
X029453Y004261D01*
X029634Y004261D01*
X029539Y004383D02*
X029463Y004267D01*
X029453Y004261D02*
X029272Y004261D01*
D15*
X028865Y002728D02*
X028841Y002728D01*
X028553Y007316D02*
X028553Y007340D01*
X024153Y007416D02*
X024153Y007440D01*
X024153Y005240D02*
X024153Y005216D01*
X021860Y007316D02*
X021860Y007340D01*
X017460Y007416D02*
X017460Y007440D01*
X017460Y005240D02*
X017460Y005216D01*
X015168Y007316D02*
X015168Y007340D01*
X010768Y007416D02*
X010768Y007440D01*
X010768Y005240D02*
X010768Y005216D01*
X008475Y007316D02*
X008475Y007340D01*
X004075Y007416D02*
X004075Y007440D01*
X004075Y005240D02*
X004075Y005216D01*
X008763Y002728D02*
X008787Y002728D01*
X015456Y002728D02*
X015480Y002728D01*
X022148Y002728D02*
X022172Y002728D01*
X022172Y013053D02*
X022148Y013053D01*
X024153Y015541D02*
X024153Y015565D01*
X024153Y017741D02*
X024153Y017765D01*
X021860Y017665D02*
X021860Y017641D01*
X017460Y017741D02*
X017460Y017765D01*
X017460Y015565D02*
X017460Y015541D01*
X015168Y017641D02*
X015168Y017665D01*
X010768Y017741D02*
X010768Y017765D01*
X010768Y015565D02*
X010768Y015541D01*
X008475Y017641D02*
X008475Y017665D01*
X004075Y017741D02*
X004075Y017765D01*
X004075Y015565D02*
X004075Y015541D01*
X008763Y013053D02*
X008787Y013053D01*
X015456Y013053D02*
X015480Y013053D01*
X015480Y023379D02*
X015456Y023379D01*
X017460Y025867D02*
X017460Y025891D01*
X017460Y028067D02*
X017460Y028091D01*
X015168Y027991D02*
X015168Y027967D01*
X010768Y028067D02*
X010768Y028091D01*
X010768Y025891D02*
X010768Y025867D01*
X008475Y027967D02*
X008475Y027991D01*
X004075Y028067D02*
X004075Y028091D01*
X004075Y025891D02*
X004075Y025867D01*
X008763Y023379D02*
X008787Y023379D01*
X021860Y027967D02*
X021860Y027991D01*
X024153Y028067D02*
X024153Y028091D01*
X024153Y025891D02*
X024153Y025867D01*
X022172Y023379D02*
X022148Y023379D01*
X028553Y027967D02*
X028553Y027991D01*
X028841Y023379D02*
X028865Y023379D01*
X028553Y017665D02*
X028553Y017641D01*
X028841Y013053D02*
X028865Y013053D01*
D16*
X028853Y015303D03*
X024403Y016803D03*
X022160Y015303D03*
X017710Y016803D03*
X015468Y015303D03*
X011018Y016803D03*
X008775Y015303D03*
X004325Y016803D03*
X008775Y025629D03*
X011018Y027129D03*
X015468Y025629D03*
X017710Y027129D03*
X022160Y025629D03*
X024403Y027129D03*
X028853Y025629D03*
X024403Y006478D03*
X022160Y004978D03*
X017710Y006478D03*
X015468Y004978D03*
X011018Y006478D03*
X008775Y004978D03*
X004325Y006478D03*
X004325Y027129D03*
X028853Y004978D03*
M02*
