G75*
%MOIN*%
%OFA0B0*%
%FSLAX24Y24*%
%IPPOS*%
%LPD*%
%AMOC8*
5,1,8,0,0,1.08239X$1,22.5*
%
%ADD10C,0.0080*%
%ADD11R,0.0001X0.0674*%
%ADD12R,0.0001X0.0674*%
%ADD13R,0.0001X0.0687*%
%ADD14R,0.0001X0.0687*%
%ADD15R,0.0001X0.0695*%
%ADD16R,0.0001X0.0694*%
%ADD17R,0.0001X0.0701*%
%ADD18R,0.0001X0.0700*%
%ADD19R,0.0001X0.0705*%
%ADD20R,0.0001X0.0710*%
%ADD21R,0.0001X0.0709*%
%ADD22R,0.0001X0.0713*%
%ADD23R,0.0001X0.0717*%
%ADD24R,0.0001X0.0717*%
%ADD25R,0.0001X0.0720*%
%ADD26R,0.0001X0.0723*%
%ADD27R,0.0001X0.0726*%
%ADD28R,0.0001X0.0725*%
%ADD29R,0.0001X0.0729*%
%ADD30R,0.0001X0.0728*%
%ADD31R,0.0001X0.0731*%
%ADD32R,0.0001X0.0733*%
%ADD33R,0.0001X0.0735*%
%ADD34R,0.0001X0.0737*%
%ADD35R,0.0001X0.0737*%
%ADD36R,0.0001X0.0739*%
%ADD37R,0.0001X0.0741*%
%ADD38R,0.0001X0.0743*%
%ADD39R,0.0001X0.0745*%
%ADD40R,0.0001X0.0744*%
%ADD41R,0.0001X0.0746*%
%ADD42R,0.0001X0.0748*%
%ADD43R,0.0001X0.0747*%
%ADD44R,0.0001X0.0749*%
%ADD45R,0.0001X0.0751*%
%ADD46R,0.0001X0.0750*%
%ADD47R,0.0001X0.0753*%
%ADD48R,0.0001X0.0754*%
%ADD49R,0.0001X0.0755*%
%ADD50R,0.0001X0.0756*%
%ADD51R,0.0001X0.0757*%
%ADD52R,0.0001X0.0757*%
%ADD53R,0.0001X0.0758*%
%ADD54R,0.0001X0.0759*%
%ADD55R,0.0001X0.0761*%
%ADD56R,0.0001X0.0760*%
%ADD57R,0.0001X0.0762*%
%ADD58R,0.0001X0.0763*%
%ADD59R,0.0001X0.0764*%
%ADD60R,0.0001X0.0764*%
%ADD61R,0.0001X0.0765*%
%ADD62R,0.0001X0.0766*%
%ADD63R,0.0001X0.0752*%
%ADD64R,0.0001X0.0747*%
%ADD65R,0.0001X0.0742*%
%ADD66R,0.0001X0.0740*%
%ADD67R,0.0001X0.0738*%
%ADD68R,0.0001X0.0736*%
%ADD69R,0.0001X0.0734*%
%ADD70R,0.0001X0.0732*%
%ADD71R,0.0001X0.0727*%
%ADD72R,0.0001X0.0724*%
%ADD73R,0.0001X0.0721*%
%ADD74R,0.0001X0.0718*%
%ADD75R,0.0001X0.0714*%
%ADD76R,0.0001X0.0711*%
%ADD77R,0.0001X0.0730*%
%ADD78R,0.0001X0.0707*%
%ADD79R,0.0001X0.0702*%
%ADD80R,0.0001X0.0696*%
%ADD81R,0.0001X0.0690*%
%ADD82R,0.0001X0.0680*%
%ADD83R,0.0001X0.0516*%
%ADD84R,0.0001X0.0515*%
%ADD85R,0.0001X0.0514*%
%ADD86R,0.0001X0.0675*%
%ADD87R,0.0001X0.0479*%
%ADD88R,0.0001X0.0513*%
%ADD89R,0.0001X0.0478*%
%ADD90R,0.0001X0.0512*%
%ADD91R,0.0001X0.0511*%
%ADD92R,0.0001X0.0477*%
%ADD93R,0.0001X0.0510*%
%ADD94R,0.0001X0.0476*%
%ADD95R,0.0001X0.0509*%
%ADD96R,0.0001X0.0475*%
%ADD97R,0.0001X0.0508*%
%ADD98R,0.0001X0.0474*%
%ADD99R,0.0001X0.0507*%
%ADD100R,0.0001X0.0506*%
%ADD101R,0.0001X0.0473*%
%ADD102R,0.0001X0.0505*%
%ADD103R,0.0001X0.0472*%
%ADD104R,0.0001X0.0504*%
%ADD105R,0.0001X0.0471*%
%ADD106R,0.0001X0.0503*%
%ADD107R,0.0001X0.0470*%
%ADD108R,0.0001X0.0502*%
%ADD109R,0.0001X0.0469*%
%ADD110R,0.0001X0.0501*%
%ADD111R,0.0001X0.0500*%
%ADD112R,0.0001X0.0468*%
%ADD113R,0.0001X0.0499*%
%ADD114R,0.0001X0.0467*%
%ADD115R,0.0001X0.0498*%
%ADD116R,0.0001X0.0466*%
%ADD117R,0.0001X0.0497*%
%ADD118R,0.0001X0.0465*%
%ADD119R,0.0001X0.0496*%
%ADD120R,0.0001X0.0495*%
%ADD121R,0.0001X0.0464*%
%ADD122R,0.0001X0.0494*%
%ADD123R,0.0001X0.0463*%
%ADD124R,0.0001X0.0493*%
%ADD125R,0.0001X0.0462*%
%ADD126R,0.0001X0.0492*%
%ADD127R,0.0001X0.0461*%
%ADD128R,0.0001X0.0491*%
%ADD129R,0.0001X0.0490*%
%ADD130R,0.0001X0.0460*%
%ADD131R,0.0001X0.0489*%
%ADD132R,0.0001X0.0459*%
%ADD133R,0.0001X0.0488*%
%ADD134R,0.0001X0.0458*%
%ADD135R,0.0001X0.0487*%
%ADD136R,0.0001X0.0457*%
%ADD137R,0.0001X0.0486*%
%ADD138R,0.0001X0.0485*%
%ADD139R,0.0001X0.0456*%
%ADD140R,0.0001X0.0484*%
%ADD141R,0.0001X0.0455*%
%ADD142R,0.0001X0.0483*%
%ADD143R,0.0001X0.0454*%
%ADD144R,0.0001X0.0482*%
%ADD145R,0.0001X0.0453*%
%ADD146R,0.0001X0.0481*%
%ADD147R,0.0001X0.0452*%
%ADD148R,0.0001X0.0480*%
%ADD149R,0.0001X0.0451*%
%ADD150R,0.0001X0.0450*%
%ADD151R,0.0001X0.0449*%
%ADD152R,0.0001X0.0448*%
%ADD153R,0.0001X0.0447*%
%ADD154R,0.0001X0.0446*%
%ADD155R,0.0001X0.0445*%
%ADD156R,0.0001X0.0444*%
%ADD157R,0.0001X0.0443*%
%ADD158R,0.0001X0.0442*%
%ADD159R,0.0001X0.0441*%
%ADD160R,0.0001X0.0440*%
%ADD161R,0.0001X0.0439*%
%ADD162R,0.0001X0.0438*%
%ADD163R,0.0001X0.0437*%
%ADD164R,0.0001X0.0436*%
%ADD165R,0.0001X0.0435*%
%ADD166R,0.0001X0.0434*%
%ADD167R,0.0001X0.0433*%
%ADD168R,0.0001X0.0432*%
%ADD169R,0.0001X0.0431*%
%ADD170R,0.0001X0.0430*%
%ADD171R,0.0001X0.0429*%
%ADD172R,0.0001X0.0428*%
%ADD173R,0.0001X0.0427*%
%ADD174R,0.0001X0.0426*%
%ADD175R,0.0001X0.0425*%
%ADD176R,0.0001X0.0424*%
%ADD177R,0.0001X0.0423*%
%ADD178R,0.0001X0.0422*%
%ADD179R,0.0001X0.0421*%
%ADD180R,0.0001X0.0420*%
%ADD181R,0.0001X0.0419*%
%ADD182R,0.0001X0.0418*%
%ADD183R,0.0001X0.0417*%
%ADD184R,0.0001X0.0416*%
%ADD185R,0.0001X0.0415*%
%ADD186R,0.0001X0.0414*%
%ADD187R,0.0001X0.0413*%
%ADD188R,0.0001X0.0412*%
%ADD189R,0.0001X0.0411*%
%ADD190R,0.0001X0.0410*%
%ADD191R,0.0001X0.0409*%
%ADD192R,0.0001X0.0408*%
%ADD193R,0.0001X0.0407*%
%ADD194R,0.0001X0.0406*%
%ADD195R,0.0001X0.0405*%
%ADD196R,0.0001X0.0404*%
%ADD197R,0.0001X0.0403*%
%ADD198R,0.0001X0.0402*%
%ADD199R,0.0001X0.0401*%
%ADD200R,0.0001X0.0400*%
%ADD201R,0.0001X0.0399*%
%ADD202R,0.0001X0.0398*%
%ADD203R,0.0001X0.0397*%
%ADD204R,0.0001X0.0396*%
%ADD205R,0.0001X0.0395*%
%ADD206R,0.0001X0.0394*%
%ADD207R,0.0001X0.0393*%
%ADD208R,0.0001X0.0392*%
%ADD209R,0.0001X0.0391*%
%ADD210R,0.0001X0.0390*%
%ADD211R,0.0001X0.0389*%
%ADD212R,0.0001X0.0388*%
%ADD213R,0.0001X0.0387*%
%ADD214R,0.0001X0.0386*%
%ADD215R,0.0001X0.0385*%
%ADD216R,0.0001X0.0384*%
%ADD217R,0.0001X0.0383*%
%ADD218R,0.0001X0.0382*%
%ADD219R,0.0001X0.0381*%
%ADD220R,0.0001X0.0380*%
%ADD221R,0.0001X0.0379*%
%ADD222R,0.0001X0.0378*%
%ADD223R,0.0001X0.0377*%
%ADD224R,0.0001X0.0376*%
%ADD225R,0.0001X0.0375*%
%ADD226R,0.0001X0.0374*%
%ADD227R,0.0001X0.0373*%
%ADD228R,0.0001X0.0372*%
%ADD229R,0.0001X0.0371*%
%ADD230R,0.0001X0.0370*%
%ADD231R,0.0001X0.0369*%
%ADD232R,0.0001X0.0368*%
%ADD233R,0.0001X0.0367*%
%ADD234R,0.0001X0.0366*%
%ADD235R,0.0001X0.0365*%
%ADD236R,0.0001X0.0364*%
%ADD237R,0.0001X0.0363*%
%ADD238R,0.0001X0.0362*%
%ADD239R,0.0001X0.0361*%
%ADD240R,0.0001X0.0360*%
%ADD241R,0.0001X0.0359*%
%ADD242R,0.0001X0.0358*%
%ADD243R,0.0001X0.0357*%
%ADD244R,0.0001X0.0356*%
%ADD245R,0.0001X0.0355*%
%ADD246R,0.0001X0.0354*%
%ADD247R,0.0001X0.0353*%
%ADD248R,0.0001X0.0352*%
%ADD249R,0.0001X0.0351*%
%ADD250R,0.0001X0.0350*%
%ADD251R,0.0001X0.0349*%
%ADD252R,0.0001X0.0348*%
%ADD253R,0.0001X0.0347*%
%ADD254R,0.0001X0.0346*%
%ADD255R,0.0001X0.0345*%
%ADD256R,0.0001X0.0344*%
%ADD257R,0.0001X0.0343*%
%ADD258R,0.0001X0.0342*%
%ADD259R,0.0001X0.0341*%
%ADD260R,0.0001X0.0340*%
%ADD261R,0.0001X0.0339*%
%ADD262R,0.0001X0.0338*%
%ADD263R,0.0001X0.0337*%
%ADD264R,0.0001X0.0336*%
%ADD265R,0.0001X0.0335*%
%ADD266R,0.0001X0.0334*%
%ADD267R,0.0001X0.0333*%
%ADD268R,0.0001X0.0332*%
%ADD269R,0.0001X0.0331*%
%ADD270R,0.0001X0.0330*%
%ADD271R,0.0001X0.0329*%
%ADD272R,0.0001X0.0328*%
%ADD273R,0.0001X0.0327*%
%ADD274R,0.0001X0.0326*%
%ADD275R,0.0001X0.0325*%
%ADD276R,0.0001X0.0324*%
%ADD277R,0.0001X0.0323*%
%ADD278R,0.0001X0.0322*%
%ADD279R,0.0001X0.0321*%
%ADD280R,0.0001X0.0320*%
%ADD281R,0.0001X0.0319*%
%ADD282R,0.0001X0.0318*%
%ADD283R,0.0001X0.0317*%
%ADD284R,0.0001X0.0316*%
%ADD285R,0.0001X0.0315*%
%ADD286R,0.0001X0.0314*%
%ADD287R,0.0001X0.0313*%
%ADD288R,0.0001X0.0312*%
%ADD289R,0.0001X0.0311*%
%ADD290R,0.0001X0.0310*%
%ADD291R,0.0001X0.0309*%
%ADD292R,0.0001X0.0308*%
%ADD293R,0.0001X0.0307*%
%ADD294R,0.0001X0.0306*%
%ADD295R,0.0001X0.0305*%
%ADD296R,0.0001X0.0304*%
%ADD297R,0.0001X0.0303*%
%ADD298R,0.0001X0.0302*%
%ADD299R,0.0001X0.0301*%
%ADD300R,0.0001X0.0300*%
%ADD301R,0.0001X0.0299*%
%ADD302R,0.0001X0.0298*%
%ADD303R,0.0001X0.0297*%
%ADD304R,0.0001X0.0296*%
%ADD305R,0.0001X0.0519*%
%ADD306R,0.0001X0.1736*%
%ADD307R,0.0001X0.0643*%
%ADD308R,0.0001X0.0611*%
%ADD309R,0.0001X0.1735*%
%ADD310R,0.0001X0.1734*%
%ADD311R,0.0001X0.1733*%
%ADD312R,0.0001X0.1732*%
%ADD313R,0.0001X0.1731*%
%ADD314R,0.0001X0.1730*%
%ADD315R,0.0001X0.1729*%
%ADD316R,0.0001X0.1728*%
%ADD317R,0.0001X0.1727*%
%ADD318R,0.0001X0.1726*%
%ADD319R,0.0001X0.1725*%
%ADD320R,0.0001X0.1724*%
%ADD321R,0.0001X0.1723*%
%ADD322R,0.0001X0.1722*%
%ADD323R,0.0001X0.1720*%
%ADD324R,0.0001X0.1718*%
%ADD325R,0.0001X0.1716*%
%ADD326R,0.0001X0.1714*%
%ADD327R,0.0001X0.1712*%
%ADD328R,0.0001X0.1711*%
%ADD329R,0.0001X0.1710*%
%ADD330R,0.0001X0.1709*%
%ADD331R,0.0001X0.1708*%
%ADD332R,0.0001X0.1707*%
%ADD333R,0.0001X0.1706*%
%ADD334R,0.0001X0.1705*%
%ADD335R,0.0001X0.1704*%
%ADD336R,0.0001X0.1703*%
%ADD337R,0.0001X0.1702*%
%ADD338R,0.0001X0.1701*%
%ADD339R,0.0001X0.1700*%
%ADD340R,0.0001X0.1699*%
%ADD341R,0.0001X0.1698*%
%ADD342R,0.0001X0.1697*%
%ADD343R,0.0001X0.1696*%
%ADD344R,0.0001X0.1695*%
%ADD345R,0.0001X0.1694*%
%ADD346R,0.0001X0.1693*%
%ADD347R,0.0001X0.1692*%
%ADD348R,0.0001X0.1691*%
%ADD349R,0.0001X0.1690*%
%ADD350R,0.0001X0.1689*%
%ADD351R,0.0001X0.1687*%
%ADD352R,0.0001X0.1685*%
%ADD353R,0.0001X0.1682*%
%ADD354R,0.0001X0.1680*%
%ADD355R,0.0001X0.1678*%
%ADD356R,0.0001X0.1676*%
%ADD357R,0.0001X0.1674*%
%ADD358R,0.0001X0.1672*%
%ADD359R,0.0001X0.1670*%
%ADD360R,0.0001X0.1668*%
%ADD361R,0.0001X0.1666*%
%ADD362R,0.0001X0.1664*%
%ADD363R,0.0001X0.1662*%
%ADD364R,0.0001X0.1660*%
%ADD365R,0.0001X0.1658*%
%ADD366R,0.0001X0.1656*%
%ADD367R,0.0001X0.1654*%
%ADD368R,0.0001X0.1652*%
%ADD369R,0.0001X0.1650*%
%ADD370R,0.0001X0.1648*%
%ADD371R,0.0001X0.1646*%
%ADD372R,0.0001X0.1644*%
%ADD373R,0.0001X0.1642*%
%ADD374R,0.0001X0.1640*%
%ADD375R,0.0001X0.1638*%
%ADD376R,0.0001X0.1636*%
%ADD377R,0.0001X0.1634*%
%ADD378R,0.0001X0.1632*%
%ADD379R,0.0001X0.1630*%
%ADD380R,0.0001X0.1628*%
%ADD381R,0.0001X0.1626*%
%ADD382R,0.0001X0.1624*%
%ADD383R,0.0001X0.1622*%
%ADD384R,0.0001X0.1620*%
%ADD385R,0.0001X0.1617*%
%ADD386R,0.0001X0.1615*%
%ADD387R,0.0001X0.1613*%
%ADD388R,0.0001X0.1611*%
%ADD389R,0.0001X0.1609*%
%ADD390R,0.0001X0.1607*%
%ADD391R,0.0001X0.1605*%
%ADD392R,0.0001X0.1603*%
%ADD393R,0.0001X0.1601*%
%ADD394R,0.0001X0.1599*%
%ADD395R,0.0001X0.1597*%
%ADD396R,0.0001X0.1595*%
%ADD397R,0.0001X0.1593*%
%ADD398R,0.0001X0.1591*%
%ADD399R,0.0001X0.1589*%
%ADD400R,0.0001X0.1587*%
%ADD401R,0.0001X0.1585*%
%ADD402R,0.0001X0.1582*%
%ADD403R,0.0001X0.1580*%
%ADD404R,0.0001X0.1578*%
%ADD405R,0.0001X0.1576*%
%ADD406R,0.0001X0.1574*%
%ADD407R,0.0001X0.1572*%
%ADD408R,0.0001X0.1570*%
%ADD409R,0.0001X0.1568*%
%ADD410R,0.0001X0.1566*%
%ADD411R,0.0001X0.1564*%
%ADD412R,0.0001X0.1562*%
%ADD413R,0.0001X0.1560*%
%ADD414R,0.0001X0.1558*%
%ADD415R,0.0001X0.1556*%
%ADD416R,0.0001X0.1554*%
%ADD417R,0.0001X0.1552*%
%ADD418R,0.0001X0.1550*%
%ADD419R,0.0001X0.1548*%
%ADD420R,0.0001X0.1546*%
%ADD421R,0.0001X0.1544*%
%ADD422R,0.0001X0.1542*%
%ADD423R,0.0001X0.1540*%
%ADD424R,0.0001X0.1538*%
%ADD425R,0.0001X0.1536*%
%ADD426R,0.0001X0.1534*%
%ADD427R,0.0001X0.1532*%
%ADD428R,0.0001X0.1530*%
%ADD429R,0.0001X0.1528*%
%ADD430R,0.0001X0.1526*%
%ADD431R,0.0001X0.1524*%
%ADD432R,0.0001X0.1522*%
%ADD433R,0.0001X0.1520*%
%ADD434R,0.0001X0.1517*%
%ADD435R,0.0001X0.1515*%
%ADD436R,0.0001X0.1513*%
%ADD437R,0.0001X0.1511*%
%ADD438R,0.0001X0.1509*%
%ADD439R,0.0001X0.1507*%
%ADD440R,0.0001X0.1505*%
%ADD441R,0.0001X0.1503*%
%ADD442R,0.0001X0.1501*%
%ADD443R,0.0001X0.1499*%
%ADD444R,0.0001X0.1497*%
%ADD445R,0.0001X0.1495*%
%ADD446R,0.0001X0.1493*%
%ADD447R,0.0001X0.1491*%
%ADD448R,0.0001X0.1489*%
%ADD449R,0.0001X0.1487*%
%ADD450R,0.0001X0.1485*%
%ADD451R,0.0001X0.1482*%
%ADD452R,0.0001X0.1480*%
%ADD453R,0.0001X0.1478*%
%ADD454R,0.0001X0.1476*%
%ADD455R,0.0001X0.1474*%
%ADD456R,0.0001X0.1472*%
%ADD457R,0.0001X0.1470*%
%ADD458R,0.0001X0.1468*%
%ADD459R,0.0001X0.1466*%
%ADD460R,0.0001X0.1464*%
%ADD461R,0.0001X0.1462*%
%ADD462R,0.0001X0.1460*%
%ADD463R,0.0001X0.1458*%
%ADD464R,0.0001X0.1456*%
%ADD465R,0.0001X0.1454*%
%ADD466R,0.0001X0.1452*%
%ADD467R,0.0001X0.1450*%
%ADD468R,0.0001X0.1448*%
%ADD469R,0.0001X0.1446*%
%ADD470R,0.0001X0.1444*%
%ADD471R,0.0001X0.1442*%
%ADD472R,0.0001X0.1440*%
%ADD473R,0.0001X0.1438*%
%ADD474R,0.0001X0.1436*%
%ADD475R,0.0001X0.1434*%
%ADD476R,0.0001X0.1432*%
%ADD477R,0.0001X0.1430*%
%ADD478R,0.0001X0.1428*%
%ADD479R,0.0001X0.1426*%
%ADD480R,0.0001X0.1424*%
%ADD481R,0.0001X0.1422*%
%ADD482R,0.0001X0.1420*%
%ADD483R,0.0001X0.1418*%
%ADD484R,0.0001X0.1415*%
%ADD485R,0.0001X0.1413*%
%ADD486R,0.0001X0.1411*%
%ADD487R,0.0001X0.1409*%
%ADD488R,0.0001X0.1407*%
%ADD489R,0.0001X0.1405*%
%ADD490R,0.0001X0.1403*%
%ADD491R,0.0001X0.1401*%
%ADD492R,0.0001X0.1399*%
%ADD493R,0.0001X0.1397*%
%ADD494R,0.0001X0.1395*%
%ADD495R,0.0001X0.1393*%
%ADD496R,0.0001X0.1391*%
%ADD497R,0.0001X0.1389*%
%ADD498R,0.0001X0.1387*%
%ADD499R,0.0001X0.1384*%
%ADD500R,0.0001X0.1382*%
%ADD501R,0.0001X0.1380*%
%ADD502R,0.0001X0.1378*%
%ADD503R,0.0001X0.1376*%
%ADD504R,0.0001X0.1374*%
%ADD505R,0.0001X0.1372*%
%ADD506R,0.0001X0.1370*%
%ADD507R,0.0001X0.1368*%
%ADD508R,0.0001X0.1366*%
%ADD509R,0.0001X0.1364*%
%ADD510R,0.0001X0.1362*%
%ADD511R,0.0001X0.1360*%
%ADD512R,0.0001X0.1358*%
%ADD513R,0.0001X0.1356*%
%ADD514R,0.0001X0.1354*%
%ADD515R,0.0001X0.1352*%
%ADD516R,0.0001X0.1350*%
%ADD517R,0.0001X0.1348*%
%ADD518R,0.0001X0.1346*%
%ADD519R,0.0001X0.1344*%
%ADD520R,0.0001X0.1342*%
%ADD521R,0.0001X0.1340*%
%ADD522R,0.0001X0.1338*%
%ADD523R,0.0001X0.1336*%
%ADD524R,0.0001X0.1334*%
%ADD525R,0.0001X0.1332*%
%ADD526R,0.0001X0.1330*%
%ADD527R,0.0001X0.1328*%
%ADD528R,0.0001X0.1326*%
%ADD529R,0.0001X0.1324*%
%ADD530R,0.0001X0.1322*%
%ADD531R,0.0001X0.1320*%
%ADD532R,0.0001X0.1318*%
%ADD533R,0.0001X0.1315*%
%ADD534R,0.0001X0.1313*%
%ADD535R,0.0001X0.1311*%
%ADD536R,0.0001X0.1309*%
%ADD537R,0.0001X0.1307*%
%ADD538R,0.0001X0.1305*%
%ADD539R,0.0001X0.1303*%
%ADD540R,0.0001X0.1301*%
%ADD541R,0.0001X0.1299*%
%ADD542R,0.0001X0.1297*%
%ADD543R,0.0001X0.1295*%
%ADD544R,0.0001X0.1293*%
%ADD545R,0.0001X0.1291*%
%ADD546R,0.0001X0.1289*%
%ADD547R,0.0001X0.1287*%
%ADD548R,0.0001X0.1284*%
%ADD549R,0.0001X0.1282*%
%ADD550R,0.0001X0.1280*%
%ADD551R,0.0001X0.1278*%
%ADD552R,0.0001X0.1276*%
%ADD553R,0.0001X0.1274*%
%ADD554R,0.0001X0.1272*%
%ADD555R,0.0001X0.1270*%
%ADD556R,0.0001X0.1268*%
%ADD557R,0.0001X0.1266*%
%ADD558R,0.0001X0.1264*%
%ADD559R,0.0001X0.1262*%
%ADD560R,0.0001X0.1260*%
%ADD561R,0.0001X0.1258*%
%ADD562R,0.0001X0.1256*%
%ADD563R,0.0001X0.1254*%
%ADD564R,0.0001X0.1252*%
%ADD565R,0.0001X0.1250*%
%ADD566R,0.0001X0.1248*%
%ADD567R,0.0001X0.1246*%
%ADD568R,0.0001X0.1244*%
%ADD569R,0.0001X0.1242*%
%ADD570R,0.0001X0.1240*%
%ADD571R,0.0001X0.1238*%
%ADD572R,0.0001X0.1236*%
%ADD573R,0.0001X0.1234*%
%ADD574R,0.0001X0.1232*%
%ADD575R,0.0001X0.1230*%
%ADD576R,0.0001X0.1228*%
%ADD577R,0.0001X0.1226*%
%ADD578R,0.0001X0.1224*%
%ADD579R,0.0001X0.1222*%
%ADD580R,0.0001X0.1220*%
%ADD581R,0.0001X0.1218*%
%ADD582R,0.0001X0.1215*%
%ADD583R,0.0001X0.1213*%
%ADD584R,0.0001X0.1211*%
%ADD585R,0.0001X0.1209*%
%ADD586R,0.0001X0.1207*%
%ADD587R,0.0001X0.1205*%
%ADD588R,0.0001X0.1203*%
%ADD589R,0.0001X0.1201*%
%ADD590R,0.0001X0.1199*%
%ADD591R,0.0001X0.1197*%
%ADD592R,0.0001X0.1195*%
%ADD593R,0.0001X0.1193*%
%ADD594R,0.0001X0.1191*%
%ADD595R,0.0001X0.1189*%
%ADD596R,0.0001X0.1187*%
%ADD597R,0.0001X0.1184*%
%ADD598R,0.0001X0.1182*%
%ADD599R,0.0001X0.1180*%
%ADD600R,0.0001X0.1178*%
%ADD601R,0.0001X0.1176*%
%ADD602R,0.0001X0.1174*%
%ADD603R,0.0001X0.1172*%
%ADD604R,0.0001X0.1170*%
%ADD605R,0.0001X0.1168*%
%ADD606R,0.0001X0.1166*%
%ADD607R,0.0001X0.1164*%
%ADD608R,0.0001X0.1162*%
%ADD609R,0.0001X0.1160*%
%ADD610R,0.0001X0.1158*%
%ADD611R,0.0001X0.1156*%
%ADD612R,0.0001X0.1154*%
%ADD613R,0.0001X0.1152*%
%ADD614R,0.0001X0.1150*%
%ADD615R,0.0001X0.1148*%
%ADD616R,0.0001X0.1146*%
%ADD617R,0.0001X0.1142*%
%ADD618R,0.0001X0.1136*%
%ADD619R,0.0001X0.1131*%
%ADD620R,0.0001X0.1126*%
%ADD621R,0.0001X0.1120*%
%ADD622R,0.0001X0.1114*%
%ADD623R,0.0001X0.1108*%
%ADD624R,0.0001X0.1102*%
%ADD625R,0.0001X0.1095*%
%ADD626R,0.0001X0.1089*%
%ADD627R,0.0001X0.1083*%
%ADD628R,0.0001X0.1075*%
%ADD629R,0.0001X0.1067*%
%ADD630R,0.0001X0.1060*%
%ADD631R,0.0001X0.1052*%
%ADD632R,0.0001X0.1044*%
%ADD633R,0.0001X0.1036*%
%ADD634R,0.0001X0.1026*%
%ADD635R,0.0001X0.1016*%
%ADD636R,0.0001X0.1005*%
%ADD637R,0.0001X0.0993*%
%ADD638R,0.0001X0.0977*%
%ADD639R,0.0001X0.0954*%
%ADD640C,0.0000*%
%ADD641C,0.0050*%
D10*
X006028Y003423D02*
X006028Y003856D01*
X006028Y003423D02*
X006185Y003266D01*
X006815Y003266D01*
X006972Y003423D01*
X006972Y003856D01*
X007928Y004516D02*
X008479Y004516D01*
X008479Y002784D01*
X007928Y002784D01*
X007928Y002311D01*
X008558Y002311D01*
X009621Y002311D02*
X009621Y004989D01*
X008558Y004989D02*
X007928Y004989D01*
X007928Y004516D01*
X006972Y004644D02*
X006972Y005234D01*
X006028Y005234D01*
X006028Y004644D01*
D11*
X005495Y004139D03*
D12*
X005495Y002905D03*
D13*
X005494Y004139D03*
D14*
X005494Y002906D03*
X004990Y002906D03*
D15*
X005493Y004139D03*
D16*
X005493Y002905D03*
X004991Y002905D03*
D17*
X005492Y004139D03*
D18*
X005492Y002905D03*
X004992Y002905D03*
D19*
X004993Y002906D03*
X005491Y002906D03*
X005491Y004139D03*
D20*
X005490Y004139D03*
D21*
X005490Y002906D03*
X004994Y002906D03*
D22*
X004995Y002906D03*
X005489Y002906D03*
X005489Y004139D03*
D23*
X005488Y004139D03*
D24*
X005488Y002906D03*
X004996Y002906D03*
D25*
X004997Y002905D03*
X005487Y002905D03*
X005487Y004139D03*
D26*
X005486Y004139D03*
X005486Y002906D03*
X004998Y002906D03*
D27*
X004999Y002905D03*
X005485Y004139D03*
D28*
X005485Y002906D03*
D29*
X005484Y004139D03*
X005007Y004139D03*
D30*
X005000Y002905D03*
X005484Y002905D03*
D31*
X005483Y002906D03*
X005483Y004139D03*
D32*
X005482Y004139D03*
X005482Y002906D03*
X005002Y002906D03*
D33*
X005003Y002906D03*
X005481Y002906D03*
X005481Y004139D03*
D34*
X005480Y004139D03*
D35*
X005480Y002906D03*
X005004Y002906D03*
D36*
X005005Y002906D03*
X005479Y002906D03*
X005479Y004139D03*
D37*
X005478Y004139D03*
X005478Y002906D03*
X005006Y002906D03*
D38*
X005477Y002906D03*
X005477Y004139D03*
X005014Y004139D03*
D39*
X005015Y004139D03*
X005476Y004139D03*
D40*
X005476Y002905D03*
X005008Y002905D03*
D41*
X005009Y002905D03*
X005475Y002905D03*
X005475Y004139D03*
D42*
X005474Y004139D03*
X005017Y004139D03*
D43*
X005010Y002906D03*
X005474Y002906D03*
D44*
X005473Y002906D03*
X005011Y002906D03*
X005018Y004139D03*
X005473Y004139D03*
D45*
X005472Y004139D03*
X005471Y004139D03*
X005019Y004139D03*
X005013Y002906D03*
X005471Y002906D03*
D46*
X005472Y002905D03*
X005012Y002905D03*
D47*
X005015Y002906D03*
X005469Y002906D03*
X005470Y002906D03*
X005470Y004139D03*
X005021Y004139D03*
D48*
X005022Y004139D03*
X005469Y004139D03*
D49*
X005468Y004139D03*
X005023Y004139D03*
X005016Y002906D03*
X005468Y002906D03*
D50*
X005467Y002905D03*
X005017Y002905D03*
X005024Y004139D03*
X005467Y004139D03*
D51*
X005466Y004139D03*
X005025Y004139D03*
D52*
X005019Y002906D03*
X005018Y002906D03*
X005465Y002906D03*
X005466Y002906D03*
D53*
X005465Y004139D03*
X005026Y004139D03*
D54*
X005027Y004139D03*
X005463Y004139D03*
X005464Y004139D03*
X005463Y002906D03*
X005464Y002906D03*
X005021Y002906D03*
X005020Y002906D03*
D55*
X005023Y002906D03*
X005024Y002906D03*
X005460Y002906D03*
X005461Y002906D03*
X005460Y004139D03*
X005461Y004139D03*
X005462Y004139D03*
X005030Y004139D03*
X005029Y004139D03*
D56*
X005028Y004139D03*
X005022Y002905D03*
X005462Y002905D03*
D57*
X005459Y002905D03*
X005025Y002905D03*
X005031Y004139D03*
X005459Y004139D03*
D58*
X005458Y004139D03*
X005457Y004139D03*
X005034Y004139D03*
X005033Y004139D03*
X005032Y004139D03*
X005028Y002906D03*
X005027Y002906D03*
X005026Y002906D03*
X005456Y002906D03*
X005457Y002906D03*
X005458Y002906D03*
D59*
X005456Y004139D03*
X005455Y004139D03*
X005035Y004139D03*
D60*
X005029Y002905D03*
X005455Y002905D03*
D61*
X005454Y002906D03*
X005453Y002906D03*
X005452Y002906D03*
X005451Y002906D03*
X005450Y002906D03*
X005034Y002906D03*
X005033Y002906D03*
X005032Y002906D03*
X005031Y002906D03*
X005030Y002906D03*
X005036Y004139D03*
X005037Y004139D03*
X005038Y004139D03*
X005039Y004139D03*
X005040Y004139D03*
X005451Y004139D03*
X005452Y004139D03*
X005453Y004139D03*
X005454Y004139D03*
D62*
X005450Y004139D03*
X005449Y004139D03*
X005448Y004139D03*
X005447Y004139D03*
X005446Y004139D03*
X005445Y004139D03*
X005444Y004139D03*
X005443Y004139D03*
X005442Y004139D03*
X005441Y004139D03*
X005440Y004139D03*
X005439Y004139D03*
X005438Y004139D03*
X005437Y004139D03*
X005436Y004139D03*
X005435Y004139D03*
X005434Y004139D03*
X005433Y004139D03*
X005432Y004139D03*
X005431Y004139D03*
X005430Y004139D03*
X005429Y004139D03*
X005428Y004139D03*
X005427Y004139D03*
X005426Y004139D03*
X005425Y004139D03*
X005424Y004139D03*
X005423Y004139D03*
X005422Y004139D03*
X005421Y004139D03*
X005420Y004139D03*
X005419Y004139D03*
X005418Y004139D03*
X005417Y004139D03*
X005416Y004139D03*
X005415Y004139D03*
X005414Y004139D03*
X005413Y004139D03*
X005412Y004139D03*
X005411Y004139D03*
X005410Y004139D03*
X005409Y004139D03*
X005408Y004139D03*
X005407Y004139D03*
X005406Y004139D03*
X005405Y004139D03*
X005404Y004139D03*
X005403Y004139D03*
X005402Y004139D03*
X005401Y004139D03*
X005400Y004139D03*
X005399Y004139D03*
X005398Y004139D03*
X005397Y004139D03*
X005396Y004139D03*
X005395Y004139D03*
X005394Y004139D03*
X005393Y004139D03*
X005392Y004139D03*
X005391Y004139D03*
X005390Y004139D03*
X005389Y004139D03*
X005388Y004139D03*
X005387Y004139D03*
X005386Y004139D03*
X005385Y004139D03*
X005384Y004139D03*
X005383Y004139D03*
X005382Y004139D03*
X005381Y004139D03*
X005380Y004139D03*
X005379Y004139D03*
X005378Y004139D03*
X005377Y004139D03*
X005376Y004139D03*
X005375Y004139D03*
X005374Y004139D03*
X005373Y004139D03*
X005372Y004139D03*
X005371Y004139D03*
X005370Y004139D03*
X005369Y004139D03*
X005368Y004139D03*
X005367Y004139D03*
X005366Y004139D03*
X005365Y004139D03*
X005364Y004139D03*
X005363Y004139D03*
X005362Y004139D03*
X005361Y004139D03*
X005360Y004139D03*
X005359Y004139D03*
X005358Y004139D03*
X005357Y004139D03*
X005356Y004139D03*
X005355Y004139D03*
X005354Y004139D03*
X005353Y004139D03*
X005352Y004139D03*
X005351Y004139D03*
X005350Y004139D03*
X005349Y004139D03*
X005348Y004139D03*
X005347Y004139D03*
X005346Y004139D03*
X005345Y004139D03*
X005344Y004139D03*
X005343Y004139D03*
X005342Y004139D03*
X005341Y004139D03*
X005340Y004139D03*
X005339Y004139D03*
X005338Y004139D03*
X005337Y004139D03*
X005336Y004139D03*
X005335Y004139D03*
X005334Y004139D03*
X005333Y004139D03*
X005332Y004139D03*
X005331Y004139D03*
X005330Y004139D03*
X005329Y004139D03*
X005328Y004139D03*
X005327Y004139D03*
X005326Y004139D03*
X005325Y004139D03*
X005324Y004139D03*
X005323Y004139D03*
X005322Y004139D03*
X005321Y004139D03*
X005320Y004139D03*
X005319Y004139D03*
X005318Y004139D03*
X005317Y004139D03*
X005316Y004139D03*
X005315Y004139D03*
X005314Y004139D03*
X005313Y004139D03*
X005312Y004139D03*
X005311Y004139D03*
X005310Y004139D03*
X005309Y004139D03*
X005308Y004139D03*
X005307Y004139D03*
X005306Y004139D03*
X005305Y004139D03*
X005304Y004139D03*
X005303Y004139D03*
X005302Y004139D03*
X005301Y004139D03*
X005300Y004139D03*
X005299Y004139D03*
X005298Y004139D03*
X005297Y004139D03*
X005296Y004139D03*
X005295Y004139D03*
X005294Y004139D03*
X005293Y004139D03*
X005292Y004139D03*
X005291Y004139D03*
X005290Y004139D03*
X005289Y004139D03*
X005288Y004139D03*
X005287Y004139D03*
X005286Y004139D03*
X005285Y004139D03*
X005284Y004139D03*
X005283Y004139D03*
X005282Y004139D03*
X005281Y004139D03*
X005280Y004139D03*
X005279Y004139D03*
X005278Y004139D03*
X005277Y004139D03*
X005276Y004139D03*
X005275Y004139D03*
X005274Y004139D03*
X005273Y004139D03*
X005272Y004139D03*
X005271Y004139D03*
X005270Y004139D03*
X005269Y004139D03*
X005268Y004139D03*
X005267Y004139D03*
X005266Y004139D03*
X005265Y004139D03*
X005264Y004139D03*
X005263Y004139D03*
X005262Y004139D03*
X005261Y004139D03*
X005260Y004139D03*
X005259Y004139D03*
X005258Y004139D03*
X005257Y004139D03*
X005256Y004139D03*
X005255Y004139D03*
X005254Y004139D03*
X005253Y004139D03*
X005252Y004139D03*
X005251Y004139D03*
X005250Y004139D03*
X005249Y004139D03*
X005248Y004139D03*
X005247Y004139D03*
X005246Y004139D03*
X005245Y004139D03*
X005244Y004139D03*
X005243Y004139D03*
X005242Y004139D03*
X005241Y004139D03*
X005240Y004139D03*
X005239Y004139D03*
X005238Y004139D03*
X005237Y004139D03*
X005236Y004139D03*
X005235Y004139D03*
X005234Y004139D03*
X005233Y004139D03*
X005232Y004139D03*
X005231Y004139D03*
X005230Y004139D03*
X005229Y004139D03*
X005228Y004139D03*
X005227Y004139D03*
X005226Y004139D03*
X005225Y004139D03*
X005224Y004139D03*
X005223Y004139D03*
X005222Y004139D03*
X005221Y004139D03*
X005220Y004139D03*
X005219Y004139D03*
X005218Y004139D03*
X005217Y004139D03*
X005216Y004139D03*
X005215Y004139D03*
X005214Y004139D03*
X005213Y004139D03*
X005212Y004139D03*
X005211Y004139D03*
X005210Y004139D03*
X005209Y004139D03*
X005208Y004139D03*
X005207Y004139D03*
X005206Y004139D03*
X005205Y004139D03*
X005204Y004139D03*
X005203Y004139D03*
X005202Y004139D03*
X005201Y004139D03*
X005200Y004139D03*
X005199Y004139D03*
X005198Y004139D03*
X005197Y004139D03*
X005196Y004139D03*
X005195Y004139D03*
X005194Y004139D03*
X005193Y004139D03*
X005192Y004139D03*
X005191Y004139D03*
X005190Y004139D03*
X005189Y004139D03*
X005188Y004139D03*
X005187Y004139D03*
X005186Y004139D03*
X005185Y004139D03*
X005184Y004139D03*
X005183Y004139D03*
X005182Y004139D03*
X005181Y004139D03*
X005180Y004139D03*
X005179Y004139D03*
X005178Y004139D03*
X005177Y004139D03*
X005176Y004139D03*
X005175Y004139D03*
X005174Y004139D03*
X005173Y004139D03*
X005172Y004139D03*
X005171Y004139D03*
X005170Y004139D03*
X005169Y004139D03*
X005168Y004139D03*
X005167Y004139D03*
X005166Y004139D03*
X005165Y004139D03*
X005164Y004139D03*
X005163Y004139D03*
X005162Y004139D03*
X005161Y004139D03*
X005160Y004139D03*
X005159Y004139D03*
X005158Y004139D03*
X005157Y004139D03*
X005156Y004139D03*
X005155Y004139D03*
X005154Y004139D03*
X005153Y004139D03*
X005152Y004139D03*
X005151Y004139D03*
X005150Y004139D03*
X005149Y004139D03*
X005148Y004139D03*
X005147Y004139D03*
X005146Y004139D03*
X005145Y004139D03*
X005144Y004139D03*
X005143Y004139D03*
X005142Y004139D03*
X005141Y004139D03*
X005140Y004139D03*
X005139Y004139D03*
X005138Y004139D03*
X005137Y004139D03*
X005136Y004139D03*
X005135Y004139D03*
X005134Y004139D03*
X005133Y004139D03*
X005132Y004139D03*
X005131Y004139D03*
X005130Y004139D03*
X005129Y004139D03*
X005128Y004139D03*
X005127Y004139D03*
X005126Y004139D03*
X005125Y004139D03*
X005124Y004139D03*
X005123Y004139D03*
X005122Y004139D03*
X005121Y004139D03*
X005120Y004139D03*
X005119Y004139D03*
X005118Y004139D03*
X005117Y004139D03*
X005116Y004139D03*
X005115Y004139D03*
X005114Y004139D03*
X005113Y004139D03*
X005112Y004139D03*
X005111Y004139D03*
X005110Y004139D03*
X005109Y004139D03*
X005108Y004139D03*
X005107Y004139D03*
X005106Y004139D03*
X005105Y004139D03*
X005104Y004139D03*
X005103Y004139D03*
X005102Y004139D03*
X005101Y004139D03*
X005100Y004139D03*
X005099Y004139D03*
X005098Y004139D03*
X005097Y004139D03*
X005096Y004139D03*
X005095Y004139D03*
X005094Y004139D03*
X005093Y004139D03*
X005092Y004139D03*
X005091Y004139D03*
X005090Y004139D03*
X005089Y004139D03*
X005088Y004139D03*
X005087Y004139D03*
X005086Y004139D03*
X005085Y004139D03*
X005084Y004139D03*
X005083Y004139D03*
X005082Y004139D03*
X005081Y004139D03*
X005080Y004139D03*
X005079Y004139D03*
X005078Y004139D03*
X005077Y004139D03*
X005076Y004139D03*
X005075Y004139D03*
X005074Y004139D03*
X005073Y004139D03*
X005072Y004139D03*
X005071Y004139D03*
X005070Y004139D03*
X005069Y004139D03*
X005068Y004139D03*
X005067Y004139D03*
X005066Y004139D03*
X005065Y004139D03*
X005064Y004139D03*
X005063Y004139D03*
X005062Y004139D03*
X005061Y004139D03*
X005060Y004139D03*
X005059Y004139D03*
X005058Y004139D03*
X005057Y004139D03*
X005056Y004139D03*
X005055Y004139D03*
X005054Y004139D03*
X005053Y004139D03*
X005052Y004139D03*
X005051Y004139D03*
X005050Y004139D03*
X005049Y004139D03*
X005048Y004139D03*
X005047Y004139D03*
X005046Y004139D03*
X005045Y004139D03*
X005044Y004139D03*
X005043Y004139D03*
X005042Y004139D03*
X005041Y004139D03*
X005040Y002905D03*
X005039Y002905D03*
X005038Y002905D03*
X005037Y002905D03*
X005036Y002905D03*
X005035Y002905D03*
X005041Y002905D03*
X005042Y002905D03*
X005043Y002905D03*
X005044Y002905D03*
X005045Y002905D03*
X005046Y002905D03*
X005047Y002905D03*
X005048Y002905D03*
X005049Y002905D03*
X005050Y002905D03*
X005051Y002905D03*
X005052Y002905D03*
X005053Y002905D03*
X005054Y002905D03*
X005055Y002905D03*
X005056Y002905D03*
X005057Y002905D03*
X005058Y002905D03*
X005059Y002905D03*
X005060Y002905D03*
X005061Y002905D03*
X005062Y002905D03*
X005063Y002905D03*
X005064Y002905D03*
X005065Y002905D03*
X005066Y002905D03*
X005067Y002905D03*
X005068Y002905D03*
X005069Y002905D03*
X005070Y002905D03*
X005071Y002905D03*
X005072Y002905D03*
X005073Y002905D03*
X005074Y002905D03*
X005075Y002905D03*
X005076Y002905D03*
X005077Y002905D03*
X005078Y002905D03*
X005079Y002905D03*
X005080Y002905D03*
X005081Y002905D03*
X005082Y002905D03*
X005083Y002905D03*
X005084Y002905D03*
X005085Y002905D03*
X005086Y002905D03*
X005087Y002905D03*
X005088Y002905D03*
X005089Y002905D03*
X005090Y002905D03*
X005091Y002905D03*
X005092Y002905D03*
X005093Y002905D03*
X005094Y002905D03*
X005095Y002905D03*
X005096Y002905D03*
X005097Y002905D03*
X005098Y002905D03*
X005099Y002905D03*
X005100Y002905D03*
X005101Y002905D03*
X005102Y002905D03*
X005103Y002905D03*
X005104Y002905D03*
X005105Y002905D03*
X005106Y002905D03*
X005107Y002905D03*
X005108Y002905D03*
X005109Y002905D03*
X005110Y002905D03*
X005111Y002905D03*
X005112Y002905D03*
X005113Y002905D03*
X005114Y002905D03*
X005115Y002905D03*
X005116Y002905D03*
X005117Y002905D03*
X005118Y002905D03*
X005119Y002905D03*
X005120Y002905D03*
X005121Y002905D03*
X005122Y002905D03*
X005123Y002905D03*
X005124Y002905D03*
X005125Y002905D03*
X005126Y002905D03*
X005127Y002905D03*
X005128Y002905D03*
X005129Y002905D03*
X005130Y002905D03*
X005131Y002905D03*
X005132Y002905D03*
X005133Y002905D03*
X005134Y002905D03*
X005135Y002905D03*
X005136Y002905D03*
X005137Y002905D03*
X005138Y002905D03*
X005139Y002905D03*
X005140Y002905D03*
X005141Y002905D03*
X005142Y002905D03*
X005143Y002905D03*
X005144Y002905D03*
X005145Y002905D03*
X005146Y002905D03*
X005147Y002905D03*
X005148Y002905D03*
X005149Y002905D03*
X005150Y002905D03*
X005151Y002905D03*
X005152Y002905D03*
X005153Y002905D03*
X005154Y002905D03*
X005155Y002905D03*
X005156Y002905D03*
X005157Y002905D03*
X005158Y002905D03*
X005159Y002905D03*
X005160Y002905D03*
X005161Y002905D03*
X005162Y002905D03*
X005163Y002905D03*
X005164Y002905D03*
X005165Y002905D03*
X005166Y002905D03*
X005167Y002905D03*
X005168Y002905D03*
X005169Y002905D03*
X005170Y002905D03*
X005171Y002905D03*
X005172Y002905D03*
X005173Y002905D03*
X005174Y002905D03*
X005175Y002905D03*
X005176Y002905D03*
X005177Y002905D03*
X005178Y002905D03*
X005179Y002905D03*
X005180Y002905D03*
X005181Y002905D03*
X005182Y002905D03*
X005183Y002905D03*
X005184Y002905D03*
X005185Y002905D03*
X005186Y002905D03*
X005187Y002905D03*
X005188Y002905D03*
X005189Y002905D03*
X005190Y002905D03*
X005191Y002905D03*
X005192Y002905D03*
X005193Y002905D03*
X005194Y002905D03*
X005195Y002905D03*
X005196Y002905D03*
X005197Y002905D03*
X005198Y002905D03*
X005199Y002905D03*
X005200Y002905D03*
X005201Y002905D03*
X005202Y002905D03*
X005203Y002905D03*
X005204Y002905D03*
X005205Y002905D03*
X005206Y002905D03*
X005207Y002905D03*
X005208Y002905D03*
X005209Y002905D03*
X005210Y002905D03*
X005211Y002905D03*
X005212Y002905D03*
X005213Y002905D03*
X005214Y002905D03*
X005215Y002905D03*
X005216Y002905D03*
X005217Y002905D03*
X005218Y002905D03*
X005219Y002905D03*
X005220Y002905D03*
X005221Y002905D03*
X005222Y002905D03*
X005223Y002905D03*
X005224Y002905D03*
X005225Y002905D03*
X005226Y002905D03*
X005227Y002905D03*
X005228Y002905D03*
X005229Y002905D03*
X005230Y002905D03*
X005231Y002905D03*
X005232Y002905D03*
X005233Y002905D03*
X005234Y002905D03*
X005235Y002905D03*
X005236Y002905D03*
X005237Y002905D03*
X005238Y002905D03*
X005239Y002905D03*
X005240Y002905D03*
X005241Y002905D03*
X005242Y002905D03*
X005243Y002905D03*
X005244Y002905D03*
X005245Y002905D03*
X005246Y002905D03*
X005247Y002905D03*
X005248Y002905D03*
X005249Y002905D03*
X005250Y002905D03*
X005251Y002905D03*
X005252Y002905D03*
X005253Y002905D03*
X005254Y002905D03*
X005255Y002905D03*
X005256Y002905D03*
X005257Y002905D03*
X005258Y002905D03*
X005259Y002905D03*
X005260Y002905D03*
X005261Y002905D03*
X005262Y002905D03*
X005263Y002905D03*
X005264Y002905D03*
X005265Y002905D03*
X005266Y002905D03*
X005267Y002905D03*
X005268Y002905D03*
X005269Y002905D03*
X005270Y002905D03*
X005271Y002905D03*
X005272Y002905D03*
X005273Y002905D03*
X005274Y002905D03*
X005275Y002905D03*
X005276Y002905D03*
X005277Y002905D03*
X005278Y002905D03*
X005279Y002905D03*
X005280Y002905D03*
X005281Y002905D03*
X005282Y002905D03*
X005283Y002905D03*
X005284Y002905D03*
X005285Y002905D03*
X005286Y002905D03*
X005287Y002905D03*
X005288Y002905D03*
X005289Y002905D03*
X005290Y002905D03*
X005291Y002905D03*
X005292Y002905D03*
X005293Y002905D03*
X005294Y002905D03*
X005295Y002905D03*
X005296Y002905D03*
X005297Y002905D03*
X005298Y002905D03*
X005299Y002905D03*
X005300Y002905D03*
X005301Y002905D03*
X005302Y002905D03*
X005303Y002905D03*
X005304Y002905D03*
X005305Y002905D03*
X005306Y002905D03*
X005307Y002905D03*
X005308Y002905D03*
X005309Y002905D03*
X005310Y002905D03*
X005311Y002905D03*
X005312Y002905D03*
X005313Y002905D03*
X005314Y002905D03*
X005315Y002905D03*
X005316Y002905D03*
X005317Y002905D03*
X005318Y002905D03*
X005319Y002905D03*
X005320Y002905D03*
X005321Y002905D03*
X005322Y002905D03*
X005323Y002905D03*
X005324Y002905D03*
X005325Y002905D03*
X005326Y002905D03*
X005327Y002905D03*
X005328Y002905D03*
X005329Y002905D03*
X005330Y002905D03*
X005331Y002905D03*
X005332Y002905D03*
X005333Y002905D03*
X005334Y002905D03*
X005335Y002905D03*
X005336Y002905D03*
X005337Y002905D03*
X005338Y002905D03*
X005339Y002905D03*
X005340Y002905D03*
X005341Y002905D03*
X005342Y002905D03*
X005343Y002905D03*
X005344Y002905D03*
X005345Y002905D03*
X005346Y002905D03*
X005347Y002905D03*
X005348Y002905D03*
X005349Y002905D03*
X005350Y002905D03*
X005351Y002905D03*
X005352Y002905D03*
X005353Y002905D03*
X005354Y002905D03*
X005355Y002905D03*
X005356Y002905D03*
X005357Y002905D03*
X005358Y002905D03*
X005359Y002905D03*
X005360Y002905D03*
X005361Y002905D03*
X005362Y002905D03*
X005363Y002905D03*
X005364Y002905D03*
X005365Y002905D03*
X005366Y002905D03*
X005367Y002905D03*
X005368Y002905D03*
X005369Y002905D03*
X005370Y002905D03*
X005371Y002905D03*
X005372Y002905D03*
X005373Y002905D03*
X005374Y002905D03*
X005375Y002905D03*
X005376Y002905D03*
X005377Y002905D03*
X005378Y002905D03*
X005379Y002905D03*
X005380Y002905D03*
X005381Y002905D03*
X005382Y002905D03*
X005383Y002905D03*
X005384Y002905D03*
X005385Y002905D03*
X005386Y002905D03*
X005387Y002905D03*
X005388Y002905D03*
X005389Y002905D03*
X005390Y002905D03*
X005391Y002905D03*
X005392Y002905D03*
X005393Y002905D03*
X005394Y002905D03*
X005395Y002905D03*
X005396Y002905D03*
X005397Y002905D03*
X005398Y002905D03*
X005399Y002905D03*
X005400Y002905D03*
X005401Y002905D03*
X005402Y002905D03*
X005403Y002905D03*
X005404Y002905D03*
X005405Y002905D03*
X005406Y002905D03*
X005407Y002905D03*
X005408Y002905D03*
X005409Y002905D03*
X005410Y002905D03*
X005411Y002905D03*
X005412Y002905D03*
X005413Y002905D03*
X005414Y002905D03*
X005415Y002905D03*
X005416Y002905D03*
X005417Y002905D03*
X005418Y002905D03*
X005419Y002905D03*
X005420Y002905D03*
X005421Y002905D03*
X005422Y002905D03*
X005423Y002905D03*
X005424Y002905D03*
X005425Y002905D03*
X005426Y002905D03*
X005427Y002905D03*
X005428Y002905D03*
X005429Y002905D03*
X005430Y002905D03*
X005431Y002905D03*
X005432Y002905D03*
X005433Y002905D03*
X005434Y002905D03*
X005435Y002905D03*
X005436Y002905D03*
X005437Y002905D03*
X005438Y002905D03*
X005439Y002905D03*
X005440Y002905D03*
X005441Y002905D03*
X005442Y002905D03*
X005443Y002905D03*
X005444Y002905D03*
X005445Y002905D03*
X005446Y002905D03*
X005447Y002905D03*
X005448Y002905D03*
X005449Y002905D03*
D63*
X005014Y002905D03*
X005020Y004139D03*
D64*
X005016Y004139D03*
D65*
X005013Y004139D03*
X005007Y002905D03*
D66*
X005012Y004139D03*
D67*
X005011Y004139D03*
D68*
X005010Y004139D03*
D69*
X005009Y004139D03*
D70*
X005008Y004139D03*
D71*
X005006Y004139D03*
D72*
X005005Y004139D03*
D73*
X005004Y004139D03*
D74*
X005003Y004139D03*
D75*
X005002Y004139D03*
D76*
X005001Y004139D03*
D77*
X005001Y002905D03*
D78*
X005000Y004139D03*
D79*
X004999Y004139D03*
D80*
X004998Y004139D03*
D81*
X004997Y004139D03*
D82*
X004996Y004139D03*
D83*
X004995Y004136D03*
D84*
X004994Y004137D03*
X004993Y004137D03*
X004992Y004137D03*
X004991Y004137D03*
D85*
X004990Y004138D03*
X004989Y004138D03*
X004988Y004138D03*
D86*
X004989Y002906D03*
D87*
X004988Y002898D03*
X004987Y002898D03*
X004986Y002898D03*
X004985Y002898D03*
X004871Y004155D03*
X004870Y004155D03*
X004869Y004155D03*
D88*
X004984Y004138D03*
X004985Y004138D03*
X004986Y004138D03*
X004987Y004138D03*
D89*
X004868Y004155D03*
X004867Y004155D03*
X004866Y004155D03*
X004865Y004155D03*
X004981Y002898D03*
X004982Y002898D03*
X004983Y002898D03*
X004984Y002898D03*
D90*
X004983Y004138D03*
X004982Y004138D03*
X004981Y004138D03*
D91*
X004980Y004139D03*
X004979Y004139D03*
X004978Y004139D03*
D92*
X004864Y004156D03*
X004863Y004156D03*
X004862Y004156D03*
X004977Y002897D03*
X004978Y002897D03*
X004979Y002897D03*
X004980Y002897D03*
D93*
X004977Y004139D03*
X004976Y004139D03*
X004975Y004139D03*
X004974Y004139D03*
D94*
X004861Y004156D03*
X004860Y004156D03*
X004859Y004156D03*
X004973Y002896D03*
X004974Y002896D03*
X004975Y002896D03*
X004976Y002896D03*
D95*
X004973Y004140D03*
X004972Y004140D03*
X004971Y004140D03*
D96*
X004858Y004157D03*
X004857Y004157D03*
X004856Y004157D03*
X004855Y004157D03*
X004968Y002896D03*
X004969Y002896D03*
X004970Y002896D03*
X004971Y002896D03*
X004972Y002896D03*
D97*
X004970Y004140D03*
X004969Y004140D03*
X004968Y004140D03*
X004967Y004140D03*
D98*
X004854Y004158D03*
X004853Y004158D03*
X004852Y004158D03*
X004964Y002895D03*
X004965Y002895D03*
X004966Y002895D03*
X004967Y002895D03*
D99*
X004966Y004141D03*
X004965Y004141D03*
X004964Y004141D03*
D100*
X004963Y004141D03*
X004962Y004141D03*
X004961Y004141D03*
D101*
X004851Y004158D03*
X004850Y004158D03*
X004849Y004158D03*
X004848Y004158D03*
X004960Y002895D03*
X004961Y002895D03*
X004962Y002895D03*
X004963Y002895D03*
D102*
X004960Y004142D03*
X004959Y004142D03*
X004958Y004142D03*
X004957Y004142D03*
D103*
X004847Y004158D03*
X004846Y004158D03*
X004845Y004158D03*
X004956Y002894D03*
X004957Y002894D03*
X004958Y002894D03*
X004959Y002894D03*
D104*
X004956Y004143D03*
X004955Y004143D03*
X004954Y004143D03*
D105*
X004844Y004159D03*
X004843Y004159D03*
X004842Y004159D03*
X004952Y002894D03*
X004953Y002894D03*
X004954Y002894D03*
X004955Y002894D03*
D106*
X004953Y004143D03*
X004952Y004143D03*
X004951Y004143D03*
X004950Y004143D03*
D107*
X004841Y004159D03*
X004840Y004159D03*
X004839Y004159D03*
X004838Y004159D03*
X004948Y002893D03*
X004949Y002893D03*
X004950Y002893D03*
X004951Y002893D03*
D108*
X004949Y004143D03*
X004948Y004143D03*
X004947Y004143D03*
D109*
X004837Y004160D03*
X004836Y004160D03*
X004835Y004160D03*
X004943Y002893D03*
X004944Y002893D03*
X004945Y002893D03*
X004946Y002893D03*
X004947Y002893D03*
D110*
X004946Y004144D03*
X004945Y004144D03*
X004944Y004144D03*
D111*
X004943Y004144D03*
X004942Y004144D03*
X004941Y004144D03*
X004940Y004144D03*
D112*
X004834Y004160D03*
X004833Y004160D03*
X004832Y004160D03*
X004831Y004160D03*
X004939Y002893D03*
X004940Y002893D03*
X004941Y002893D03*
X004942Y002893D03*
D113*
X004939Y004145D03*
X004938Y004145D03*
X004937Y004145D03*
D114*
X004830Y004161D03*
X004829Y004161D03*
X004828Y004161D03*
X004935Y002892D03*
X004936Y002892D03*
X004937Y002892D03*
X004938Y002892D03*
D115*
X004936Y004145D03*
X004935Y004145D03*
X004934Y004145D03*
X004933Y004145D03*
D116*
X004827Y004161D03*
X004826Y004161D03*
X004825Y004161D03*
X004931Y002891D03*
X004932Y002891D03*
X004933Y002891D03*
X004934Y002891D03*
D117*
X004932Y004146D03*
X004931Y004146D03*
X004930Y004146D03*
D118*
X004824Y004162D03*
X004823Y004162D03*
X004822Y004162D03*
X004821Y004162D03*
X004927Y002891D03*
X004928Y002891D03*
X004929Y002891D03*
X004930Y002891D03*
D119*
X004929Y004146D03*
X004928Y004146D03*
X004927Y004146D03*
D120*
X004926Y004147D03*
X004925Y004147D03*
X004924Y004147D03*
X004923Y004147D03*
D121*
X004820Y004163D03*
X004819Y004163D03*
X004818Y004163D03*
X004923Y002890D03*
X004924Y002890D03*
X004925Y002890D03*
X004926Y002890D03*
D122*
X004922Y004148D03*
X004921Y004148D03*
X004920Y004148D03*
D123*
X004817Y004163D03*
X004816Y004163D03*
X004815Y004163D03*
X004814Y004163D03*
X004918Y002890D03*
X004919Y002890D03*
X004920Y002890D03*
X004921Y002890D03*
X004922Y002890D03*
D124*
X004919Y004148D03*
X004918Y004148D03*
X004917Y004148D03*
X004916Y004148D03*
D125*
X004813Y004163D03*
X004812Y004163D03*
X004811Y004163D03*
X004914Y002889D03*
X004915Y002889D03*
X004916Y002889D03*
X004917Y002889D03*
D126*
X004915Y004148D03*
X004914Y004148D03*
X004913Y004148D03*
D127*
X004810Y004164D03*
X004809Y004164D03*
X004808Y004164D03*
X004910Y002889D03*
X004911Y002889D03*
X004912Y002889D03*
X004913Y002889D03*
D128*
X004912Y004149D03*
X004911Y004149D03*
X004910Y004149D03*
D129*
X004909Y004149D03*
X004908Y004149D03*
X004907Y004149D03*
X004906Y004149D03*
D130*
X004807Y004164D03*
X004806Y004164D03*
X004805Y004164D03*
X004804Y004164D03*
X004906Y002888D03*
X004907Y002888D03*
X004908Y002888D03*
X004909Y002888D03*
D131*
X004905Y004150D03*
X004904Y004150D03*
X004903Y004150D03*
D132*
X004803Y004165D03*
X004802Y004165D03*
X004801Y004165D03*
X004902Y002888D03*
X004903Y002888D03*
X004904Y002888D03*
X004905Y002888D03*
D133*
X004902Y004150D03*
X004901Y004150D03*
X004900Y004150D03*
X004899Y004150D03*
D134*
X004800Y004165D03*
X004799Y004165D03*
X004798Y004165D03*
X004797Y004165D03*
X004898Y002888D03*
X004899Y002888D03*
X004900Y002888D03*
X004901Y002888D03*
D135*
X004898Y004151D03*
X004897Y004151D03*
X004896Y004151D03*
D136*
X004796Y004166D03*
X004795Y004166D03*
X004794Y004166D03*
X004893Y002887D03*
X004894Y002887D03*
X004895Y002887D03*
X004896Y002887D03*
X004897Y002887D03*
D137*
X004895Y004151D03*
X004894Y004151D03*
X004893Y004151D03*
D138*
X004892Y004152D03*
X004891Y004152D03*
X004890Y004152D03*
X004889Y004152D03*
D139*
X004793Y004166D03*
X004792Y004166D03*
X004791Y004166D03*
X004889Y002886D03*
X004890Y002886D03*
X004891Y002886D03*
X004892Y002886D03*
D140*
X004888Y004153D03*
X004887Y004153D03*
X004886Y004153D03*
D141*
X004790Y004167D03*
X004789Y004167D03*
X004788Y004167D03*
X004787Y004167D03*
X004885Y002886D03*
X004886Y002886D03*
X004887Y002886D03*
X004888Y002886D03*
D142*
X004885Y004153D03*
X004884Y004153D03*
X004883Y004153D03*
X004882Y004153D03*
D143*
X004786Y004168D03*
X004785Y004168D03*
X004784Y004168D03*
X004881Y002885D03*
X004882Y002885D03*
X004883Y002885D03*
X004884Y002885D03*
D144*
X004881Y004153D03*
X004880Y004153D03*
X004879Y004153D03*
D145*
X004783Y004168D03*
X004782Y004168D03*
X004781Y004168D03*
X004780Y004168D03*
X004877Y002885D03*
X004878Y002885D03*
X004879Y002885D03*
X004880Y002885D03*
D146*
X004878Y004154D03*
X004877Y004154D03*
X004876Y004154D03*
D147*
X004779Y004168D03*
X004778Y004168D03*
X004777Y004168D03*
X004873Y002884D03*
X004874Y002884D03*
X004875Y002884D03*
X004876Y002884D03*
D148*
X004875Y004154D03*
X004874Y004154D03*
X004873Y004154D03*
X004872Y004154D03*
D149*
X004776Y004169D03*
X004775Y004169D03*
X004774Y004169D03*
X004773Y004169D03*
X004868Y002884D03*
X004869Y002884D03*
X004870Y002884D03*
X004871Y002884D03*
X004872Y002884D03*
D150*
X004867Y002883D03*
X004866Y002883D03*
X004865Y002883D03*
X004864Y002883D03*
X004772Y004169D03*
X004771Y004169D03*
X004770Y004169D03*
D151*
X004769Y004170D03*
X004768Y004170D03*
X004767Y004170D03*
X004860Y002883D03*
X004861Y002883D03*
X004862Y002883D03*
X004863Y002883D03*
D152*
X004859Y002883D03*
X004858Y002883D03*
X004857Y002883D03*
X004856Y002883D03*
X004766Y004170D03*
X004765Y004170D03*
X004764Y004170D03*
X004763Y004170D03*
D153*
X004762Y004171D03*
X004761Y004171D03*
X004760Y004171D03*
X004852Y002882D03*
X004853Y002882D03*
X004854Y002882D03*
X004855Y002882D03*
D154*
X004851Y002881D03*
X004850Y002881D03*
X004849Y002881D03*
X004848Y002881D03*
X004759Y004171D03*
X004758Y004171D03*
X004757Y004171D03*
X004756Y004171D03*
D155*
X004755Y004172D03*
X004754Y004172D03*
X004753Y004172D03*
X004843Y002881D03*
X004844Y002881D03*
X004845Y002881D03*
X004846Y002881D03*
X004847Y002881D03*
D156*
X004842Y002880D03*
X004841Y002880D03*
X004840Y002880D03*
X004839Y002880D03*
X004752Y004173D03*
X004751Y004173D03*
X004750Y004173D03*
D157*
X004749Y004173D03*
X004748Y004173D03*
X004747Y004173D03*
X004746Y004173D03*
X004835Y002880D03*
X004836Y002880D03*
X004837Y002880D03*
X004838Y002880D03*
D158*
X004834Y002879D03*
X004833Y002879D03*
X004832Y002879D03*
X004831Y002879D03*
X004745Y004173D03*
X004744Y004173D03*
X004743Y004173D03*
D159*
X004742Y004174D03*
X004741Y004174D03*
X004740Y004174D03*
X004739Y004174D03*
X004827Y002879D03*
X004828Y002879D03*
X004829Y002879D03*
X004830Y002879D03*
D160*
X004826Y002878D03*
X004825Y002878D03*
X004824Y002878D03*
X004823Y002878D03*
X004738Y004174D03*
X004737Y004174D03*
X004736Y004174D03*
D161*
X004735Y004175D03*
X004734Y004175D03*
X004733Y004175D03*
X004818Y002878D03*
X004819Y002878D03*
X004820Y002878D03*
X004821Y002878D03*
X004822Y002878D03*
D162*
X004817Y002878D03*
X004816Y002878D03*
X004815Y002878D03*
X004814Y002878D03*
X004732Y004175D03*
X004731Y004175D03*
X004730Y004175D03*
X004729Y004175D03*
D163*
X004728Y004176D03*
X004727Y004176D03*
X004726Y004176D03*
X004810Y002877D03*
X004811Y002877D03*
X004812Y002877D03*
X004813Y002877D03*
D164*
X004809Y002876D03*
X004808Y002876D03*
X004807Y002876D03*
X004806Y002876D03*
X004725Y004176D03*
X004724Y004176D03*
X004723Y004176D03*
X004722Y004176D03*
D165*
X004721Y004177D03*
X004720Y004177D03*
X004719Y004177D03*
X004802Y002876D03*
X004803Y002876D03*
X004804Y002876D03*
X004805Y002876D03*
D166*
X004801Y002875D03*
X004800Y002875D03*
X004799Y002875D03*
X004798Y002875D03*
X004718Y004178D03*
X004717Y004178D03*
X004716Y004178D03*
D167*
X004715Y004178D03*
X004714Y004178D03*
X004713Y004178D03*
X004712Y004178D03*
X004793Y002875D03*
X004794Y002875D03*
X004795Y002875D03*
X004796Y002875D03*
X004797Y002875D03*
D168*
X004792Y002874D03*
X004791Y002874D03*
X004790Y002874D03*
X004789Y002874D03*
X004711Y004178D03*
X004710Y004178D03*
X004709Y004178D03*
D169*
X004708Y004179D03*
X004707Y004179D03*
X004706Y004179D03*
X004705Y004179D03*
X004785Y002874D03*
X004786Y002874D03*
X004787Y002874D03*
X004788Y002874D03*
D170*
X004784Y002873D03*
X004783Y002873D03*
X004782Y002873D03*
X004781Y002873D03*
X004704Y004179D03*
X004703Y004179D03*
X004702Y004179D03*
D171*
X004701Y004180D03*
X004700Y004180D03*
X004699Y004180D03*
X004777Y002873D03*
X004778Y002873D03*
X004779Y002873D03*
X004780Y002873D03*
D172*
X004776Y002873D03*
X004775Y002873D03*
X004774Y002873D03*
X004773Y002873D03*
X004698Y004180D03*
X004697Y004180D03*
X004696Y004180D03*
X004695Y004180D03*
D173*
X004694Y004181D03*
X004693Y004181D03*
X004692Y004181D03*
X004768Y002872D03*
X004769Y002872D03*
X004770Y002872D03*
X004771Y002872D03*
X004772Y002872D03*
D174*
X004767Y002871D03*
X004766Y002871D03*
X004765Y002871D03*
X004764Y002871D03*
X004691Y004181D03*
X004690Y004181D03*
X004689Y004181D03*
X004688Y004181D03*
D175*
X004687Y004182D03*
X004686Y004182D03*
X004685Y004182D03*
X004760Y002871D03*
X004761Y002871D03*
X004762Y002871D03*
X004763Y002871D03*
D176*
X004759Y002870D03*
X004758Y002870D03*
X004757Y002870D03*
X004756Y002870D03*
X004684Y004183D03*
X004683Y004183D03*
X004682Y004183D03*
D177*
X004681Y004183D03*
X004680Y004183D03*
X004679Y004183D03*
X004678Y004183D03*
X004752Y002870D03*
X004753Y002870D03*
X004754Y002870D03*
X004755Y002870D03*
D178*
X004751Y002869D03*
X004750Y002869D03*
X004749Y002869D03*
X004748Y002869D03*
X004677Y004183D03*
X004676Y004183D03*
X004675Y004183D03*
D179*
X004674Y004184D03*
X004673Y004184D03*
X004672Y004184D03*
X004671Y004184D03*
X004743Y002869D03*
X004744Y002869D03*
X004745Y002869D03*
X004746Y002869D03*
X004747Y002869D03*
D180*
X004742Y002868D03*
X004741Y002868D03*
X004740Y002868D03*
X004739Y002868D03*
X004670Y004184D03*
X004669Y004184D03*
X004668Y004184D03*
D181*
X004667Y004185D03*
X004666Y004185D03*
X004665Y004185D03*
X004735Y002868D03*
X004736Y002868D03*
X004737Y002868D03*
X004738Y002868D03*
D182*
X004734Y002868D03*
X004733Y002868D03*
X004732Y002868D03*
X004731Y002868D03*
X004664Y004185D03*
X004663Y004185D03*
X004662Y004185D03*
X004661Y004185D03*
D183*
X004660Y004186D03*
X004659Y004186D03*
X004658Y004186D03*
X004727Y002867D03*
X004728Y002867D03*
X004729Y002867D03*
X004730Y002867D03*
D184*
X004726Y002866D03*
X004725Y002866D03*
X004724Y002866D03*
X004723Y002866D03*
X004657Y004186D03*
X004656Y004186D03*
X004655Y004186D03*
X004654Y004186D03*
D185*
X004653Y004187D03*
X004652Y004187D03*
X004651Y004187D03*
X004718Y002866D03*
X004719Y002866D03*
X004720Y002866D03*
X004721Y002866D03*
X004722Y002866D03*
D186*
X004717Y002865D03*
X004716Y002865D03*
X004715Y002865D03*
X004714Y002865D03*
X004650Y004188D03*
X004649Y004188D03*
X004648Y004188D03*
D187*
X004647Y004188D03*
X004646Y004188D03*
X004645Y004188D03*
X004644Y004188D03*
X004710Y002865D03*
X004711Y002865D03*
X004712Y002865D03*
X004713Y002865D03*
D188*
X004709Y002864D03*
X004708Y002864D03*
X004707Y002864D03*
X004706Y002864D03*
X004643Y004188D03*
X004642Y004188D03*
X004641Y004188D03*
D189*
X004640Y004189D03*
X004639Y004189D03*
X004638Y004189D03*
X004637Y004189D03*
X004702Y002864D03*
X004703Y002864D03*
X004704Y002864D03*
X004705Y002864D03*
D190*
X004701Y002863D03*
X004700Y002863D03*
X004699Y002863D03*
X004698Y002863D03*
X004636Y004189D03*
X004635Y004189D03*
X004634Y004189D03*
D191*
X004633Y004190D03*
X004632Y004190D03*
X004631Y004190D03*
X004693Y002863D03*
X004694Y002863D03*
X004695Y002863D03*
X004696Y002863D03*
X004697Y002863D03*
D192*
X004692Y002863D03*
X004691Y002863D03*
X004690Y002863D03*
X004689Y002863D03*
X004630Y004190D03*
X004629Y004190D03*
X004628Y004190D03*
X004627Y004190D03*
D193*
X004626Y004191D03*
X004625Y004191D03*
X004624Y004191D03*
X004685Y002862D03*
X004686Y002862D03*
X004687Y002862D03*
X004688Y002862D03*
D194*
X004684Y002861D03*
X004683Y002861D03*
X004682Y002861D03*
X004681Y002861D03*
X004623Y004191D03*
X004622Y004191D03*
X004621Y004191D03*
X004620Y004191D03*
D195*
X004619Y004192D03*
X004618Y004192D03*
X004617Y004192D03*
X004677Y002861D03*
X004678Y002861D03*
X004679Y002861D03*
X004680Y002861D03*
D196*
X004676Y002860D03*
X004675Y002860D03*
X004674Y002860D03*
X004673Y002860D03*
X004616Y004193D03*
X004615Y004193D03*
X004614Y004193D03*
D197*
X004613Y004193D03*
X004612Y004193D03*
X004611Y004193D03*
X004610Y004193D03*
X004668Y002860D03*
X004669Y002860D03*
X004670Y002860D03*
X004671Y002860D03*
X004672Y002860D03*
D198*
X004667Y002859D03*
X004666Y002859D03*
X004665Y002859D03*
X004664Y002859D03*
X004609Y004193D03*
X004608Y004193D03*
X004607Y004193D03*
D199*
X004606Y004194D03*
X004605Y004194D03*
X004604Y004194D03*
X004603Y004194D03*
X004660Y002859D03*
X004661Y002859D03*
X004662Y002859D03*
X004663Y002859D03*
D200*
X004659Y002858D03*
X004658Y002858D03*
X004657Y002858D03*
X004656Y002858D03*
X004602Y004194D03*
X004601Y004194D03*
X004600Y004194D03*
D201*
X004599Y004195D03*
X004598Y004195D03*
X004597Y004195D03*
X004652Y002858D03*
X004653Y002858D03*
X004654Y002858D03*
X004655Y002858D03*
D202*
X004651Y002858D03*
X004650Y002858D03*
X004649Y002858D03*
X004648Y002858D03*
X004596Y004195D03*
X004595Y004195D03*
X004594Y004195D03*
X004593Y004195D03*
D203*
X004592Y004196D03*
X004591Y004196D03*
X004590Y004196D03*
X004643Y002857D03*
X004644Y002857D03*
X004645Y002857D03*
X004646Y002857D03*
X004647Y002857D03*
D204*
X004642Y002856D03*
X004641Y002856D03*
X004640Y002856D03*
X004639Y002856D03*
X004589Y004196D03*
X004588Y004196D03*
X004587Y004196D03*
X004586Y004196D03*
D205*
X004585Y004197D03*
X004584Y004197D03*
X004583Y004197D03*
X004635Y002856D03*
X004636Y002856D03*
X004637Y002856D03*
X004638Y002856D03*
D206*
X004634Y002855D03*
X004633Y002855D03*
X004632Y002855D03*
X004631Y002855D03*
X004582Y004198D03*
X004581Y004198D03*
X004580Y004198D03*
D207*
X004579Y004198D03*
X004578Y004198D03*
X004577Y004198D03*
X004576Y004198D03*
X004627Y002855D03*
X004628Y002855D03*
X004629Y002855D03*
X004630Y002855D03*
D208*
X004626Y002854D03*
X004625Y002854D03*
X004624Y002854D03*
X004623Y002854D03*
X004575Y004198D03*
X004574Y004198D03*
X004573Y004198D03*
D209*
X004572Y004199D03*
X004571Y004199D03*
X004570Y004199D03*
X004569Y004199D03*
X004618Y002854D03*
X004619Y002854D03*
X004620Y002854D03*
X004621Y002854D03*
X004622Y002854D03*
D210*
X004617Y002853D03*
X004616Y002853D03*
X004615Y002853D03*
X004614Y002853D03*
X004568Y004199D03*
X004567Y004199D03*
X004566Y004199D03*
D211*
X004565Y004200D03*
X004564Y004200D03*
X004563Y004200D03*
X004610Y002853D03*
X004611Y002853D03*
X004612Y002853D03*
X004613Y002853D03*
D212*
X004609Y002853D03*
X004608Y002853D03*
X004607Y002853D03*
X004606Y002853D03*
X004562Y004200D03*
X004561Y004200D03*
X004560Y004200D03*
X004559Y004200D03*
D213*
X004558Y004201D03*
X004557Y004201D03*
X004556Y004201D03*
X004602Y002852D03*
X004603Y002852D03*
X004604Y002852D03*
X004605Y002852D03*
D214*
X004601Y002851D03*
X004600Y002851D03*
X004599Y002851D03*
X004598Y002851D03*
X004555Y004201D03*
X004554Y004201D03*
X004553Y004201D03*
X004552Y004201D03*
D215*
X004551Y004202D03*
X004550Y004202D03*
X004549Y004202D03*
X004593Y002851D03*
X004594Y002851D03*
X004595Y002851D03*
X004596Y002851D03*
X004597Y002851D03*
D216*
X004592Y002850D03*
X004591Y002850D03*
X004590Y002850D03*
X004589Y002850D03*
X004548Y004203D03*
X004547Y004203D03*
X004546Y004203D03*
D217*
X004545Y004203D03*
X004544Y004203D03*
X004543Y004203D03*
X004542Y004203D03*
X004585Y002850D03*
X004586Y002850D03*
X004587Y002850D03*
X004588Y002850D03*
D218*
X004584Y002849D03*
X004583Y002849D03*
X004582Y002849D03*
X004581Y002849D03*
X004541Y004203D03*
X004540Y004203D03*
X004539Y004203D03*
D219*
X004538Y004204D03*
X004537Y004204D03*
X004536Y004204D03*
X004535Y004204D03*
X004577Y002849D03*
X004578Y002849D03*
X004579Y002849D03*
X004580Y002849D03*
D220*
X004576Y002848D03*
X004575Y002848D03*
X004574Y002848D03*
X004573Y002848D03*
X004534Y004204D03*
X004533Y004204D03*
X004532Y004204D03*
D221*
X004531Y004205D03*
X004530Y004205D03*
X004529Y004205D03*
X004568Y002848D03*
X004569Y002848D03*
X004570Y002848D03*
X004571Y002848D03*
X004572Y002848D03*
D222*
X004567Y002848D03*
X004566Y002848D03*
X004565Y002848D03*
X004564Y002848D03*
X004528Y004205D03*
X004527Y004205D03*
X004526Y004205D03*
X004525Y004205D03*
D223*
X004524Y004206D03*
X004523Y004206D03*
X004522Y004206D03*
X004560Y002847D03*
X004561Y002847D03*
X004562Y002847D03*
X004563Y002847D03*
D224*
X004559Y002846D03*
X004558Y002846D03*
X004557Y002846D03*
X004556Y002846D03*
X004521Y004206D03*
X004520Y004206D03*
X004519Y004206D03*
X004518Y004206D03*
D225*
X004517Y004207D03*
X004516Y004207D03*
X004515Y004207D03*
X004552Y002846D03*
X004553Y002846D03*
X004554Y002846D03*
X004555Y002846D03*
D226*
X004551Y002845D03*
X004550Y002845D03*
X004549Y002845D03*
X004548Y002845D03*
X004514Y004208D03*
X004513Y004208D03*
X004512Y004208D03*
D227*
X004511Y004208D03*
X004510Y004208D03*
X004509Y004208D03*
X004508Y004208D03*
X004543Y002845D03*
X004544Y002845D03*
X004545Y002845D03*
X004546Y002845D03*
X004547Y002845D03*
D228*
X004542Y002844D03*
X004541Y002844D03*
X004540Y002844D03*
X004539Y002844D03*
X004507Y004208D03*
X004506Y004208D03*
X004505Y004208D03*
D229*
X004504Y004209D03*
X004503Y004209D03*
X004502Y004209D03*
X004501Y004209D03*
X004535Y002844D03*
X004536Y002844D03*
X004537Y002844D03*
X004538Y002844D03*
D230*
X004534Y002843D03*
X004533Y002843D03*
X004532Y002843D03*
X004531Y002843D03*
X004500Y004209D03*
X004499Y004209D03*
X004498Y004209D03*
D231*
X004497Y004210D03*
X004496Y004210D03*
X004495Y004210D03*
X004527Y002843D03*
X004528Y002843D03*
X004529Y002843D03*
X004530Y002843D03*
D232*
X004526Y002843D03*
X004525Y002843D03*
X004524Y002843D03*
X004523Y002843D03*
X004494Y004210D03*
X004493Y004210D03*
X004492Y004210D03*
X004491Y004210D03*
D233*
X004490Y004211D03*
X004489Y004211D03*
X004488Y004211D03*
X004518Y002842D03*
X004519Y002842D03*
X004520Y002842D03*
X004521Y002842D03*
X004522Y002842D03*
D234*
X004517Y002841D03*
X004516Y002841D03*
X004515Y002841D03*
X004514Y002841D03*
X004487Y004211D03*
X004486Y004211D03*
X004485Y004211D03*
X004484Y004211D03*
D235*
X004483Y004212D03*
X004482Y004212D03*
X004481Y004212D03*
X004510Y002841D03*
X004511Y002841D03*
X004512Y002841D03*
X004513Y002841D03*
D236*
X004509Y002840D03*
X004508Y002840D03*
X004507Y002840D03*
X004506Y002840D03*
X004480Y004213D03*
X004479Y004213D03*
X004478Y004213D03*
D237*
X004477Y004213D03*
X004476Y004213D03*
X004475Y004213D03*
X004474Y004213D03*
X004502Y002840D03*
X004503Y002840D03*
X004504Y002840D03*
X004505Y002840D03*
D238*
X004501Y002839D03*
X004500Y002839D03*
X004499Y002839D03*
X004498Y002839D03*
X004473Y004213D03*
X004472Y004213D03*
X004471Y004213D03*
D239*
X004470Y004214D03*
X004469Y004214D03*
X004468Y004214D03*
X004467Y004214D03*
X004493Y002839D03*
X004494Y002839D03*
X004495Y002839D03*
X004496Y002839D03*
X004497Y002839D03*
D240*
X004492Y002838D03*
X004491Y002838D03*
X004490Y002838D03*
X004489Y002838D03*
X004466Y004214D03*
X004465Y004214D03*
X004464Y004214D03*
D241*
X004463Y004215D03*
X004462Y004215D03*
X004461Y004215D03*
X004485Y002838D03*
X004486Y002838D03*
X004487Y002838D03*
X004488Y002838D03*
D242*
X004484Y002838D03*
X004483Y002838D03*
X004482Y002838D03*
X004481Y002838D03*
X004460Y004215D03*
X004459Y004215D03*
X004458Y004215D03*
X004457Y004215D03*
D243*
X004456Y004216D03*
X004455Y004216D03*
X004454Y004216D03*
X004477Y002837D03*
X004478Y002837D03*
X004479Y002837D03*
X004480Y002837D03*
D244*
X004476Y002836D03*
X004475Y002836D03*
X004474Y002836D03*
X004473Y002836D03*
X004453Y004216D03*
X004452Y004216D03*
X004451Y004216D03*
X004450Y004216D03*
D245*
X004449Y004217D03*
X004448Y004217D03*
X004447Y004217D03*
X004468Y002836D03*
X004469Y002836D03*
X004470Y002836D03*
X004471Y002836D03*
X004472Y002836D03*
D246*
X004467Y002835D03*
X004466Y002835D03*
X004465Y002835D03*
X004464Y002835D03*
X004446Y004218D03*
X004445Y004218D03*
X004444Y004218D03*
D247*
X004443Y004218D03*
X004442Y004218D03*
X004441Y004218D03*
X004440Y004218D03*
X004460Y002835D03*
X004461Y002835D03*
X004462Y002835D03*
X004463Y002835D03*
D248*
X004459Y002834D03*
X004458Y002834D03*
X004457Y002834D03*
X004456Y002834D03*
X004439Y004218D03*
X004438Y004218D03*
X004437Y004218D03*
D249*
X004436Y004219D03*
X004435Y004219D03*
X004434Y004219D03*
X004433Y004219D03*
X004452Y002834D03*
X004453Y002834D03*
X004454Y002834D03*
X004455Y002834D03*
D250*
X004451Y002833D03*
X004450Y002833D03*
X004449Y002833D03*
X004448Y002833D03*
X004432Y004219D03*
X004431Y004219D03*
X004430Y004219D03*
D251*
X004429Y004220D03*
X004428Y004220D03*
X004427Y004220D03*
X004443Y002833D03*
X004444Y002833D03*
X004445Y002833D03*
X004446Y002833D03*
X004447Y002833D03*
D252*
X004442Y002833D03*
X004441Y002833D03*
X004440Y002833D03*
X004439Y002833D03*
X004426Y004220D03*
X004425Y004220D03*
X004424Y004220D03*
X004423Y004220D03*
D253*
X004422Y004221D03*
X004421Y004221D03*
X004420Y004221D03*
X004435Y002832D03*
X004436Y002832D03*
X004437Y002832D03*
X004438Y002832D03*
D254*
X004434Y002831D03*
X004433Y002831D03*
X004432Y002831D03*
X004431Y002831D03*
X004419Y004221D03*
X004418Y004221D03*
X004417Y004221D03*
X004416Y004221D03*
D255*
X004415Y004222D03*
X004414Y004222D03*
X004413Y004222D03*
X004427Y002831D03*
X004428Y002831D03*
X004429Y002831D03*
X004430Y002831D03*
D256*
X004426Y002830D03*
X004425Y002830D03*
X004424Y002830D03*
X004423Y002830D03*
X004412Y004223D03*
X004411Y004223D03*
X004410Y004223D03*
D257*
X004409Y004223D03*
X004408Y004223D03*
X004407Y004223D03*
X004406Y004223D03*
X004418Y002830D03*
X004419Y002830D03*
X004420Y002830D03*
X004421Y002830D03*
X004422Y002830D03*
D258*
X004417Y002829D03*
X004416Y002829D03*
X004415Y002829D03*
X004414Y002829D03*
X004405Y004223D03*
X004404Y004223D03*
X004403Y004223D03*
D259*
X004402Y004224D03*
X004401Y004224D03*
X004400Y004224D03*
X004399Y004224D03*
X004410Y002829D03*
X004411Y002829D03*
X004412Y002829D03*
X004413Y002829D03*
D260*
X004409Y002828D03*
X004408Y002828D03*
X004407Y002828D03*
X004406Y002828D03*
X004398Y004224D03*
X004397Y004224D03*
X004396Y004224D03*
D261*
X004395Y004225D03*
X004394Y004225D03*
X004393Y004225D03*
X004402Y002828D03*
X004403Y002828D03*
X004404Y002828D03*
X004405Y002828D03*
D262*
X004401Y002828D03*
X004400Y002828D03*
X004399Y002828D03*
X004398Y002828D03*
X004392Y004225D03*
X004391Y004225D03*
X004390Y004225D03*
X004389Y004225D03*
D263*
X004388Y004226D03*
X004387Y004226D03*
X004386Y004226D03*
X004393Y002827D03*
X004394Y002827D03*
X004395Y002827D03*
X004396Y002827D03*
X004397Y002827D03*
D264*
X004392Y002826D03*
X004391Y002826D03*
X004390Y002826D03*
X004389Y002826D03*
X004385Y004226D03*
X004384Y004226D03*
X004383Y004226D03*
X004382Y004226D03*
D265*
X004381Y004227D03*
X004380Y004227D03*
X004379Y004227D03*
X004385Y002826D03*
X004386Y002826D03*
X004387Y002826D03*
X004388Y002826D03*
D266*
X004384Y002825D03*
X004383Y002825D03*
X004382Y002825D03*
X004381Y002825D03*
X004378Y004228D03*
X004377Y004228D03*
X004376Y004228D03*
D267*
X004375Y004228D03*
X004374Y004228D03*
X004373Y004228D03*
X004372Y004228D03*
X004377Y002825D03*
X004378Y002825D03*
X004379Y002825D03*
X004380Y002825D03*
D268*
X004376Y002824D03*
X004375Y002824D03*
X004374Y002824D03*
X004373Y002824D03*
X004371Y004228D03*
X004370Y004228D03*
X004369Y004228D03*
D269*
X004368Y004229D03*
X004367Y004229D03*
X004366Y004229D03*
X004365Y004229D03*
X004368Y002824D03*
X004369Y002824D03*
X004370Y002824D03*
X004371Y002824D03*
X004372Y002824D03*
D270*
X004367Y002823D03*
X004366Y002823D03*
X004365Y002823D03*
X004364Y002823D03*
X004363Y004229D03*
X004362Y004229D03*
X004364Y004229D03*
D271*
X004361Y004230D03*
X004360Y004230D03*
X004359Y004230D03*
X004360Y002823D03*
X004361Y002823D03*
X004362Y002823D03*
X004363Y002823D03*
D272*
X004359Y002823D03*
X004358Y002823D03*
X004357Y002823D03*
X004356Y002823D03*
X004355Y004230D03*
X004356Y004230D03*
X004357Y004230D03*
X004358Y004230D03*
D273*
X004354Y004231D03*
X004353Y004231D03*
X004352Y004231D03*
X004352Y002822D03*
X004353Y002822D03*
X004354Y002822D03*
X004355Y002822D03*
D274*
X004351Y002821D03*
X004350Y002821D03*
X004349Y002821D03*
X004348Y002821D03*
X004348Y004231D03*
X004349Y004231D03*
X004350Y004231D03*
X004351Y004231D03*
D275*
X004347Y004232D03*
X004346Y004232D03*
X004345Y004232D03*
X004344Y002821D03*
X004343Y002821D03*
X004345Y002821D03*
X004346Y002821D03*
X004347Y002821D03*
D276*
X004342Y002820D03*
X004341Y002820D03*
X004340Y002820D03*
X004339Y002820D03*
X004342Y004233D03*
X004343Y004233D03*
X004344Y004233D03*
D277*
X004341Y004233D03*
X004340Y004233D03*
X004339Y004233D03*
X004338Y004233D03*
X004337Y002820D03*
X004338Y002820D03*
X004336Y002820D03*
X004335Y002820D03*
D278*
X004334Y002819D03*
X004333Y002819D03*
X004332Y002819D03*
X004331Y002819D03*
X004335Y004233D03*
X004336Y004233D03*
X004337Y004233D03*
D279*
X004334Y004234D03*
X004333Y004234D03*
X004332Y004234D03*
X004331Y004234D03*
X004330Y002819D03*
X004329Y002819D03*
X004328Y002819D03*
X004327Y002819D03*
D280*
X004326Y002818D03*
X004325Y002818D03*
X004324Y002818D03*
X004323Y002818D03*
X004328Y004234D03*
X004329Y004234D03*
X004330Y004234D03*
D281*
X004327Y004235D03*
X004326Y004235D03*
X004325Y004235D03*
X004322Y002818D03*
X004321Y002818D03*
X004320Y002818D03*
X004319Y002818D03*
X004318Y002818D03*
D282*
X004317Y002818D03*
X004316Y002818D03*
X004315Y002818D03*
X004314Y002818D03*
X004321Y004235D03*
X004322Y004235D03*
X004323Y004235D03*
X004324Y004235D03*
D283*
X004320Y004236D03*
X004319Y004236D03*
X004318Y004236D03*
X004313Y002817D03*
X004312Y002817D03*
X004311Y002817D03*
X004310Y002817D03*
D284*
X004309Y002816D03*
X004308Y002816D03*
X004307Y002816D03*
X004306Y002816D03*
X004314Y004236D03*
X004315Y004236D03*
X004316Y004236D03*
X004317Y004236D03*
D285*
X004313Y004237D03*
X004312Y004237D03*
X004311Y004237D03*
X004305Y002816D03*
X004304Y002816D03*
X004303Y002816D03*
X004302Y002816D03*
D286*
X004301Y002815D03*
X004300Y002815D03*
X004299Y002815D03*
X004298Y002815D03*
X004308Y004238D03*
X004309Y004238D03*
X004310Y004238D03*
D287*
X004307Y004238D03*
X004306Y004238D03*
X004305Y004238D03*
X004304Y004238D03*
X004297Y002815D03*
X004296Y002815D03*
X004295Y002815D03*
X004294Y002815D03*
X004293Y002815D03*
D288*
X004292Y002814D03*
X004291Y002814D03*
X004290Y002814D03*
X004289Y002814D03*
X004301Y004238D03*
X004302Y004238D03*
X004303Y004238D03*
D289*
X004300Y004239D03*
X004299Y004239D03*
X004298Y004239D03*
X004297Y004239D03*
X004288Y002814D03*
X004287Y002814D03*
X004286Y002814D03*
X004285Y002814D03*
D290*
X004284Y002813D03*
X004283Y002813D03*
X004282Y002813D03*
X004281Y002813D03*
X004294Y004239D03*
X004295Y004239D03*
X004296Y004239D03*
D291*
X004293Y004240D03*
X004292Y004240D03*
X004291Y004240D03*
X004280Y002813D03*
X004279Y002813D03*
X004278Y002813D03*
X004277Y002813D03*
D292*
X004276Y002813D03*
X004275Y002813D03*
X004274Y002813D03*
X004273Y002813D03*
X004287Y004240D03*
X004288Y004240D03*
X004289Y004240D03*
X004290Y004240D03*
D293*
X004286Y004241D03*
X004285Y004241D03*
X004284Y004241D03*
X004272Y002812D03*
X004271Y002812D03*
X004270Y002812D03*
X004269Y002812D03*
X004268Y002812D03*
D294*
X004267Y002811D03*
X004266Y002811D03*
X004265Y002811D03*
X004264Y002811D03*
X004280Y004241D03*
X004281Y004241D03*
X004282Y004241D03*
X004283Y004241D03*
D295*
X004279Y004242D03*
X004278Y004242D03*
X004277Y004242D03*
X004263Y002811D03*
X004262Y002811D03*
X004261Y002811D03*
X004260Y002811D03*
D296*
X004259Y002810D03*
X004258Y002810D03*
X004257Y002810D03*
X004256Y002810D03*
X004274Y004243D03*
X004275Y004243D03*
X004276Y004243D03*
D297*
X004273Y004243D03*
X004272Y004243D03*
X004271Y004243D03*
X004270Y004243D03*
X004255Y002810D03*
X004254Y002810D03*
X004253Y002810D03*
X004252Y002810D03*
D298*
X004251Y002809D03*
X004250Y002809D03*
X004249Y002809D03*
X004248Y002809D03*
X004267Y004243D03*
X004268Y004243D03*
X004269Y004243D03*
D299*
X004246Y002809D03*
X004247Y002809D03*
X004263Y004244D03*
X004264Y004244D03*
X004265Y004244D03*
X004266Y004244D03*
D300*
X004262Y004244D03*
X004261Y004244D03*
X004260Y004244D03*
D301*
X004259Y004245D03*
X004258Y004245D03*
X004257Y004245D03*
X004256Y004245D03*
D302*
X004255Y004245D03*
X004254Y004245D03*
X004253Y004245D03*
D303*
X004252Y004246D03*
X004251Y004246D03*
X004250Y004246D03*
D304*
X004249Y004246D03*
X004248Y004246D03*
X004247Y004246D03*
X004246Y004246D03*
D305*
X004245Y004135D03*
X004244Y004135D03*
X004243Y004135D03*
X004242Y004135D03*
X004241Y004135D03*
X004240Y004135D03*
X004239Y004135D03*
X004238Y004135D03*
X004237Y004135D03*
X004236Y004135D03*
X004235Y004135D03*
X004234Y004135D03*
X004233Y004135D03*
X004232Y004135D03*
X004231Y004135D03*
X004230Y004135D03*
X004229Y004135D03*
X004228Y004135D03*
X004227Y004135D03*
X004226Y004135D03*
X004225Y004135D03*
X004224Y004135D03*
X004223Y004135D03*
X004222Y004135D03*
X004221Y004135D03*
X004220Y004135D03*
X004219Y004135D03*
X004218Y004135D03*
X004217Y004135D03*
X004216Y004135D03*
X004215Y004135D03*
X004214Y004135D03*
X004213Y004135D03*
X004212Y004135D03*
X004211Y004135D03*
X004210Y004135D03*
X004209Y004135D03*
X004208Y004135D03*
X004207Y004135D03*
X004206Y004135D03*
X004205Y004135D03*
X004204Y004135D03*
X004203Y004135D03*
X004202Y004135D03*
X004201Y004135D03*
X004200Y004135D03*
X004199Y004135D03*
X004198Y004135D03*
X004197Y004135D03*
X004196Y004135D03*
X004195Y004135D03*
X004194Y004135D03*
X004194Y002918D03*
X004195Y002918D03*
X004196Y002918D03*
X004197Y002918D03*
X004198Y002918D03*
X004199Y002918D03*
X004200Y002918D03*
X004201Y002918D03*
X004202Y002918D03*
X004203Y002918D03*
X004204Y002918D03*
X004205Y002918D03*
X004206Y002918D03*
X004207Y002918D03*
X004208Y002918D03*
X004209Y002918D03*
X004210Y002918D03*
X004211Y002918D03*
X004212Y002918D03*
X004213Y002918D03*
X004214Y002918D03*
X004215Y002918D03*
X004216Y002918D03*
X004217Y002918D03*
X004218Y002918D03*
X004219Y002918D03*
X004220Y002918D03*
X004221Y002918D03*
X004222Y002918D03*
X004223Y002918D03*
X004224Y002918D03*
X004225Y002918D03*
X004226Y002918D03*
X004227Y002918D03*
X004228Y002918D03*
X004229Y002918D03*
X004230Y002918D03*
X004231Y002918D03*
X004232Y002918D03*
X004233Y002918D03*
X004234Y002918D03*
X004235Y002918D03*
X004236Y002918D03*
X004237Y002918D03*
X004238Y002918D03*
X004239Y002918D03*
X004240Y002918D03*
X004241Y002918D03*
X004242Y002918D03*
X004243Y002918D03*
X004244Y002918D03*
X004245Y002918D03*
D306*
X004193Y003526D03*
X004192Y003526D03*
X004191Y003526D03*
X004190Y003526D03*
X004189Y003526D03*
X004188Y003526D03*
X004187Y003526D03*
X004186Y003526D03*
X004185Y003526D03*
X004184Y003526D03*
X004183Y003526D03*
X004182Y003526D03*
X004181Y003526D03*
X004180Y003526D03*
X004179Y003526D03*
X004178Y003526D03*
X004177Y003526D03*
X004176Y003526D03*
X004175Y003526D03*
X004174Y003526D03*
X004173Y003526D03*
X004172Y003526D03*
X004171Y003526D03*
X004170Y003526D03*
X004169Y003526D03*
X004168Y003526D03*
X004167Y003526D03*
X004166Y003526D03*
X004165Y003526D03*
X004164Y003526D03*
X004163Y003526D03*
X004162Y003526D03*
X004161Y003526D03*
X004160Y003526D03*
X004159Y003526D03*
X004158Y003526D03*
X004157Y003526D03*
X004156Y003526D03*
X004155Y003526D03*
X004154Y003526D03*
X004153Y003526D03*
X003895Y003526D03*
X003894Y003526D03*
X003893Y003526D03*
X003892Y003526D03*
X003891Y003526D03*
X003890Y003526D03*
X003889Y003526D03*
X003888Y003526D03*
X003887Y003526D03*
X003886Y003526D03*
X003885Y003526D03*
X003884Y003526D03*
X003883Y003526D03*
X003882Y003526D03*
X003881Y003526D03*
X003880Y003526D03*
X003879Y003526D03*
X003878Y003526D03*
X003877Y003526D03*
X003876Y003526D03*
X003875Y003526D03*
X003874Y003526D03*
X003873Y003526D03*
X003872Y003526D03*
X003871Y003526D03*
X003870Y003526D03*
X003869Y003526D03*
X003868Y003526D03*
X003867Y003526D03*
X003866Y003526D03*
X003865Y003526D03*
X003864Y003526D03*
X003863Y003526D03*
X003862Y003526D03*
X003861Y003526D03*
X003860Y003526D03*
X003859Y003526D03*
X003858Y003526D03*
X003857Y003526D03*
X003856Y003526D03*
X003855Y003526D03*
X003854Y003526D03*
X003853Y003526D03*
X003852Y003526D03*
X003851Y003526D03*
X003850Y003526D03*
X003849Y003526D03*
X003848Y003526D03*
X003847Y003526D03*
X003846Y003526D03*
X003845Y003526D03*
X003844Y003526D03*
X003843Y003526D03*
X003842Y003526D03*
X003841Y003526D03*
X003840Y003526D03*
X003839Y003526D03*
X003838Y003526D03*
X003837Y003526D03*
X003836Y003526D03*
X003835Y003526D03*
X003834Y003526D03*
X003833Y003526D03*
X003832Y003526D03*
X003831Y003526D03*
X003830Y003526D03*
X003829Y003526D03*
X003828Y003526D03*
X003827Y003526D03*
X003826Y003526D03*
X003825Y003526D03*
X003824Y003526D03*
X003823Y003526D03*
D307*
X003896Y004073D03*
X003897Y004073D03*
X003898Y004073D03*
X003899Y004073D03*
X003900Y004073D03*
X003901Y004073D03*
X003902Y004073D03*
X003903Y004073D03*
X003904Y004073D03*
X003905Y004073D03*
X003906Y004073D03*
X003907Y004073D03*
X003908Y004073D03*
X003909Y004073D03*
X003910Y004073D03*
X003911Y004073D03*
X003912Y004073D03*
X003913Y004073D03*
X003914Y004073D03*
X003915Y004073D03*
X003916Y004073D03*
X003917Y004073D03*
X003918Y004073D03*
X003919Y004073D03*
X003920Y004073D03*
X003921Y004073D03*
X003922Y004073D03*
X003923Y004073D03*
X003924Y004073D03*
X003925Y004073D03*
X003926Y004073D03*
X003927Y004073D03*
X003928Y004073D03*
X003929Y004073D03*
X003930Y004073D03*
X003931Y004073D03*
X003932Y004073D03*
X003933Y004073D03*
X003934Y004073D03*
X003935Y004073D03*
X003936Y004073D03*
X003937Y004073D03*
X003938Y004073D03*
X003939Y004073D03*
X003940Y004073D03*
X003941Y004073D03*
X003942Y004073D03*
X003943Y004073D03*
X003944Y004073D03*
X003945Y004073D03*
X003946Y004073D03*
X003947Y004073D03*
X003948Y004073D03*
X003949Y004073D03*
X003950Y004073D03*
X003951Y004073D03*
X003952Y004073D03*
X003953Y004073D03*
X003954Y004073D03*
X003955Y004073D03*
X003956Y004073D03*
X003957Y004073D03*
X003958Y004073D03*
X003959Y004073D03*
X003960Y004073D03*
X003961Y004073D03*
X003962Y004073D03*
X003963Y004073D03*
X003964Y004073D03*
X003965Y004073D03*
X003966Y004073D03*
X003967Y004073D03*
X003968Y004073D03*
X003969Y004073D03*
X003970Y004073D03*
X003971Y004073D03*
X003972Y004073D03*
X003973Y004073D03*
X003974Y004073D03*
X003975Y004073D03*
X003976Y004073D03*
X003977Y004073D03*
X003978Y004073D03*
X003979Y004073D03*
X003980Y004073D03*
X003981Y004073D03*
X003982Y004073D03*
X003983Y004073D03*
X003984Y004073D03*
X003985Y004073D03*
X003986Y004073D03*
X003987Y004073D03*
X003988Y004073D03*
X003989Y004073D03*
X003990Y004073D03*
X003991Y004073D03*
X003992Y004073D03*
X003993Y004073D03*
X003994Y004073D03*
X003995Y004073D03*
X003996Y004073D03*
X003997Y004073D03*
X003998Y004073D03*
X003999Y004073D03*
X004000Y004073D03*
X004001Y004073D03*
X004002Y004073D03*
X004003Y004073D03*
X004004Y004073D03*
X004005Y004073D03*
X004006Y004073D03*
X004007Y004073D03*
X004008Y004073D03*
X004009Y004073D03*
X004010Y004073D03*
X004011Y004073D03*
X004012Y004073D03*
X004013Y004073D03*
X004014Y004073D03*
X004015Y004073D03*
X004016Y004073D03*
X004017Y004073D03*
X004018Y004073D03*
X004019Y004073D03*
X004020Y004073D03*
X004021Y004073D03*
X004022Y004073D03*
X004023Y004073D03*
X004024Y004073D03*
X004025Y004073D03*
X004026Y004073D03*
X004027Y004073D03*
X004028Y004073D03*
X004029Y004073D03*
X004030Y004073D03*
X004031Y004073D03*
X004032Y004073D03*
X004033Y004073D03*
X004034Y004073D03*
X004035Y004073D03*
X004036Y004073D03*
X004037Y004073D03*
X004038Y004073D03*
X004039Y004073D03*
X004040Y004073D03*
X004041Y004073D03*
X004042Y004073D03*
X004043Y004073D03*
X004044Y004073D03*
X004045Y004073D03*
X004046Y004073D03*
X004047Y004073D03*
X004048Y004073D03*
X004049Y004073D03*
X004050Y004073D03*
X004051Y004073D03*
X004052Y004073D03*
X004053Y004073D03*
X004054Y004073D03*
X004055Y004073D03*
X004056Y004073D03*
X004057Y004073D03*
X004058Y004073D03*
X004059Y004073D03*
X004060Y004073D03*
X004061Y004073D03*
X004062Y004073D03*
X004063Y004073D03*
X004064Y004073D03*
X004065Y004073D03*
X004066Y004073D03*
X004067Y004073D03*
X004068Y004073D03*
X004069Y004073D03*
X004070Y004073D03*
X004071Y004073D03*
X004072Y004073D03*
X004073Y004073D03*
X004074Y004073D03*
X004075Y004073D03*
X004076Y004073D03*
X004077Y004073D03*
X004078Y004073D03*
X004079Y004073D03*
X004080Y004073D03*
X004081Y004073D03*
X004082Y004073D03*
X004083Y004073D03*
X004084Y004073D03*
X004085Y004073D03*
X004086Y004073D03*
X004087Y004073D03*
X004088Y004073D03*
X004089Y004073D03*
X004090Y004073D03*
X004091Y004073D03*
X004092Y004073D03*
X004093Y004073D03*
X004094Y004073D03*
X004095Y004073D03*
X004096Y004073D03*
X004097Y004073D03*
X004098Y004073D03*
X004099Y004073D03*
X004100Y004073D03*
X004101Y004073D03*
X004102Y004073D03*
X004103Y004073D03*
X004104Y004073D03*
X004105Y004073D03*
X004106Y004073D03*
X004107Y004073D03*
X004108Y004073D03*
X004109Y004073D03*
X004110Y004073D03*
X004111Y004073D03*
X004112Y004073D03*
X004113Y004073D03*
X004114Y004073D03*
X004115Y004073D03*
X004116Y004073D03*
X004117Y004073D03*
X004118Y004073D03*
X004119Y004073D03*
X004120Y004073D03*
X004121Y004073D03*
X004122Y004073D03*
X004123Y004073D03*
X004124Y004073D03*
X004125Y004073D03*
X004126Y004073D03*
X004127Y004073D03*
X004128Y004073D03*
X004129Y004073D03*
X004130Y004073D03*
X004131Y004073D03*
X004132Y004073D03*
X004133Y004073D03*
X004134Y004073D03*
X004135Y004073D03*
X004136Y004073D03*
X004137Y004073D03*
X004138Y004073D03*
X004139Y004073D03*
X004140Y004073D03*
X004141Y004073D03*
X004142Y004073D03*
X004143Y004073D03*
X004144Y004073D03*
X004145Y004073D03*
X004146Y004073D03*
X004147Y004073D03*
X004148Y004073D03*
X004149Y004073D03*
X004150Y004073D03*
X004151Y004073D03*
X004152Y004073D03*
D308*
X004151Y002964D03*
X004150Y002964D03*
X004149Y002964D03*
X004148Y002964D03*
X004147Y002964D03*
X004146Y002964D03*
X004145Y002964D03*
X004144Y002964D03*
X004143Y002964D03*
X004142Y002964D03*
X004141Y002964D03*
X004140Y002964D03*
X004139Y002964D03*
X004138Y002964D03*
X004137Y002964D03*
X004136Y002964D03*
X004135Y002964D03*
X004134Y002964D03*
X004133Y002964D03*
X004132Y002964D03*
X004131Y002964D03*
X004130Y002964D03*
X004129Y002964D03*
X004128Y002964D03*
X004127Y002964D03*
X004126Y002964D03*
X004125Y002964D03*
X004124Y002964D03*
X004123Y002964D03*
X004122Y002964D03*
X004121Y002964D03*
X004120Y002964D03*
X004119Y002964D03*
X004118Y002964D03*
X004117Y002964D03*
X004116Y002964D03*
X004115Y002964D03*
X004114Y002964D03*
X004113Y002964D03*
X004112Y002964D03*
X004111Y002964D03*
X004110Y002964D03*
X004109Y002964D03*
X004108Y002964D03*
X004107Y002964D03*
X004106Y002964D03*
X004105Y002964D03*
X004104Y002964D03*
X004103Y002964D03*
X004102Y002964D03*
X004101Y002964D03*
X004100Y002964D03*
X004099Y002964D03*
X004098Y002964D03*
X004097Y002964D03*
X004096Y002964D03*
X004095Y002964D03*
X004094Y002964D03*
X004093Y002964D03*
X004092Y002964D03*
X004091Y002964D03*
X004090Y002964D03*
X004089Y002964D03*
X004088Y002964D03*
X004087Y002964D03*
X004086Y002964D03*
X004085Y002964D03*
X004084Y002964D03*
X004083Y002964D03*
X004082Y002964D03*
X004081Y002964D03*
X004080Y002964D03*
X004079Y002964D03*
X004078Y002964D03*
X004077Y002964D03*
X004076Y002964D03*
X004075Y002964D03*
X004074Y002964D03*
X004073Y002964D03*
X004072Y002964D03*
X004071Y002964D03*
X004070Y002964D03*
X004069Y002964D03*
X004068Y002964D03*
X004067Y002964D03*
X004066Y002964D03*
X004065Y002964D03*
X004064Y002964D03*
X004063Y002964D03*
X004062Y002964D03*
X004061Y002964D03*
X004060Y002964D03*
X004059Y002964D03*
X004058Y002964D03*
X004057Y002964D03*
X004056Y002964D03*
X004055Y002964D03*
X004054Y002964D03*
X004053Y002964D03*
X004052Y002964D03*
X004051Y002964D03*
X004050Y002964D03*
X004049Y002964D03*
X004048Y002964D03*
X004047Y002964D03*
X004046Y002964D03*
X004045Y002964D03*
X004044Y002964D03*
X004043Y002964D03*
X004042Y002964D03*
X004041Y002964D03*
X004040Y002964D03*
X004039Y002964D03*
X004038Y002964D03*
X004037Y002964D03*
X004036Y002964D03*
X004035Y002964D03*
X004034Y002964D03*
X004033Y002964D03*
X004032Y002964D03*
X004031Y002964D03*
X004030Y002964D03*
X004029Y002964D03*
X004028Y002964D03*
X004027Y002964D03*
X004026Y002964D03*
X004025Y002964D03*
X004024Y002964D03*
X004023Y002964D03*
X004022Y002964D03*
X004021Y002964D03*
X004020Y002964D03*
X004019Y002964D03*
X004018Y002964D03*
X004017Y002964D03*
X004016Y002964D03*
X004015Y002964D03*
X004014Y002964D03*
X004013Y002964D03*
X004012Y002964D03*
X004011Y002964D03*
X004010Y002964D03*
X004009Y002964D03*
X004008Y002964D03*
X004007Y002964D03*
X004006Y002964D03*
X004005Y002964D03*
X004004Y002964D03*
X004003Y002964D03*
X004002Y002964D03*
X004001Y002964D03*
X004000Y002964D03*
X003999Y002964D03*
X003998Y002964D03*
X003997Y002964D03*
X003996Y002964D03*
X003995Y002964D03*
X003994Y002964D03*
X003993Y002964D03*
X003992Y002964D03*
X003991Y002964D03*
X003990Y002964D03*
X003989Y002964D03*
X003988Y002964D03*
X003987Y002964D03*
X003986Y002964D03*
X003985Y002964D03*
X003984Y002964D03*
X003983Y002964D03*
X003982Y002964D03*
X003981Y002964D03*
X003980Y002964D03*
X003979Y002964D03*
X003978Y002964D03*
X003977Y002964D03*
X003976Y002964D03*
X003975Y002964D03*
X003974Y002964D03*
X003973Y002964D03*
X003972Y002964D03*
X003971Y002964D03*
X003970Y002964D03*
X003969Y002964D03*
X003968Y002964D03*
X003967Y002964D03*
X003966Y002964D03*
X003965Y002964D03*
X003964Y002964D03*
X003963Y002964D03*
X003962Y002964D03*
X003961Y002964D03*
X003960Y002964D03*
X003959Y002964D03*
X003958Y002964D03*
X003957Y002964D03*
X003956Y002964D03*
X003955Y002964D03*
X003954Y002964D03*
X003953Y002964D03*
X003952Y002964D03*
X003951Y002964D03*
X003950Y002964D03*
X003949Y002964D03*
X003948Y002964D03*
X003947Y002964D03*
X003946Y002964D03*
X003945Y002964D03*
X003944Y002964D03*
X003943Y002964D03*
X003942Y002964D03*
X003941Y002964D03*
X003940Y002964D03*
X003939Y002964D03*
X003938Y002964D03*
X003937Y002964D03*
X003936Y002964D03*
X003935Y002964D03*
X003934Y002964D03*
X003933Y002964D03*
X003932Y002964D03*
X003931Y002964D03*
X003930Y002964D03*
X003929Y002964D03*
X003928Y002964D03*
X003927Y002964D03*
X003926Y002964D03*
X003925Y002964D03*
X003924Y002964D03*
X003923Y002964D03*
X003922Y002964D03*
X003921Y002964D03*
X003920Y002964D03*
X003919Y002964D03*
X003918Y002964D03*
X003917Y002964D03*
X003916Y002964D03*
X003915Y002964D03*
X003914Y002964D03*
X003913Y002964D03*
X003912Y002964D03*
X003911Y002964D03*
X003910Y002964D03*
X003909Y002964D03*
X003908Y002964D03*
X003907Y002964D03*
X003906Y002964D03*
X003905Y002964D03*
X003904Y002964D03*
X003903Y002964D03*
X003902Y002964D03*
X003901Y002964D03*
X003900Y002964D03*
X003899Y002964D03*
X003898Y002964D03*
X003897Y002964D03*
X003896Y002964D03*
X004152Y002964D03*
D309*
X003822Y003527D03*
X003821Y003527D03*
D310*
X003820Y003526D03*
X003819Y003526D03*
X003818Y003526D03*
X003817Y003526D03*
X003816Y003526D03*
X003815Y003526D03*
X003814Y003526D03*
D311*
X003813Y003526D03*
D312*
X003812Y003526D03*
X003811Y003526D03*
X003810Y003526D03*
X003809Y003526D03*
X003808Y003526D03*
D313*
X003807Y003526D03*
X003806Y003526D03*
D314*
X003805Y003526D03*
X003804Y003526D03*
X003803Y003526D03*
X003802Y003526D03*
D315*
X003801Y003526D03*
X003800Y003526D03*
D316*
X003799Y003526D03*
X003798Y003526D03*
X003797Y003526D03*
D317*
X003796Y003526D03*
X003795Y003526D03*
D318*
X003794Y003526D03*
X003793Y003526D03*
X003792Y003526D03*
D319*
X003791Y003526D03*
X003790Y003526D03*
D320*
X003789Y003526D03*
X003788Y003526D03*
X003787Y003526D03*
D321*
X003786Y003526D03*
D322*
X003785Y003526D03*
X003784Y003526D03*
X003783Y003526D03*
X003782Y003526D03*
D323*
X003781Y003526D03*
X003780Y003526D03*
X003779Y003526D03*
X003778Y003526D03*
D324*
X003777Y003526D03*
X003776Y003526D03*
X003775Y003526D03*
X003774Y003526D03*
D325*
X003773Y003526D03*
X003772Y003526D03*
X003771Y003526D03*
X003770Y003526D03*
D326*
X003769Y003526D03*
X003768Y003526D03*
X003767Y003526D03*
X003766Y003526D03*
D327*
X003765Y003526D03*
X003764Y003526D03*
X003763Y003526D03*
D328*
X003762Y003527D03*
D329*
X003761Y003526D03*
X003760Y003526D03*
D330*
X003759Y003527D03*
D331*
X003758Y003526D03*
X003757Y003526D03*
X003756Y003526D03*
D332*
X003755Y003527D03*
D333*
X003754Y003526D03*
X003753Y003526D03*
D334*
X003752Y003527D03*
D335*
X003751Y003526D03*
X003750Y003526D03*
D336*
X003749Y003527D03*
D337*
X003748Y003526D03*
X003747Y003526D03*
D338*
X003746Y003527D03*
D339*
X003745Y003526D03*
D340*
X003744Y003527D03*
D341*
X003743Y003526D03*
X003742Y003526D03*
D342*
X003741Y003527D03*
D343*
X003740Y003526D03*
X003739Y003526D03*
D344*
X003738Y003527D03*
D345*
X003737Y003526D03*
D346*
X003736Y003527D03*
D347*
X003735Y003526D03*
X003734Y003526D03*
D348*
X003733Y003527D03*
D349*
X003732Y003526D03*
D350*
X003731Y003527D03*
D351*
X003730Y003527D03*
D352*
X003729Y003527D03*
D353*
X003728Y003526D03*
D354*
X003727Y003526D03*
D355*
X003726Y003526D03*
D356*
X003725Y003526D03*
D357*
X003724Y003526D03*
D358*
X003723Y003526D03*
D359*
X003722Y003526D03*
D360*
X003721Y003526D03*
D361*
X003720Y003526D03*
D362*
X003719Y003526D03*
D363*
X003718Y003526D03*
D364*
X003717Y003526D03*
D365*
X003716Y003526D03*
D366*
X003715Y003526D03*
D367*
X003714Y003526D03*
D368*
X003713Y003526D03*
D369*
X003712Y003526D03*
D370*
X003711Y003526D03*
D371*
X003710Y003526D03*
D372*
X003709Y003526D03*
D373*
X003708Y003526D03*
D374*
X003707Y003526D03*
D375*
X003706Y003526D03*
D376*
X003705Y003526D03*
D377*
X003704Y003526D03*
D378*
X003703Y003526D03*
D379*
X003702Y003526D03*
D380*
X003701Y003526D03*
D381*
X003700Y003526D03*
D382*
X003699Y003526D03*
D383*
X003698Y003526D03*
D384*
X003697Y003526D03*
D385*
X003696Y003527D03*
D386*
X003695Y003527D03*
D387*
X003694Y003527D03*
D388*
X003693Y003527D03*
D389*
X003692Y003527D03*
D390*
X003691Y003527D03*
D391*
X003690Y003527D03*
D392*
X003689Y003527D03*
D393*
X003688Y003527D03*
D394*
X003687Y003527D03*
D395*
X003686Y003527D03*
D396*
X003685Y003527D03*
D397*
X003684Y003527D03*
D398*
X003683Y003527D03*
D399*
X003682Y003527D03*
D400*
X003681Y003527D03*
D401*
X003680Y003527D03*
D402*
X003679Y003526D03*
D403*
X003678Y003526D03*
D404*
X003677Y003526D03*
D405*
X003676Y003526D03*
D406*
X003675Y003526D03*
D407*
X003674Y003526D03*
D408*
X003673Y003526D03*
D409*
X003672Y003526D03*
D410*
X003671Y003526D03*
D411*
X003670Y003526D03*
D412*
X003669Y003526D03*
D413*
X003668Y003526D03*
D414*
X003667Y003526D03*
D415*
X003666Y003526D03*
D416*
X003665Y003526D03*
D417*
X003664Y003526D03*
D418*
X003663Y003526D03*
D419*
X003662Y003526D03*
D420*
X003661Y003526D03*
D421*
X003660Y003526D03*
D422*
X003659Y003526D03*
D423*
X003658Y003526D03*
D424*
X003657Y003526D03*
D425*
X003656Y003526D03*
D426*
X003655Y003526D03*
D427*
X003654Y003526D03*
D428*
X003653Y003526D03*
D429*
X003652Y003526D03*
D430*
X003651Y003526D03*
D431*
X003650Y003526D03*
D432*
X003649Y003526D03*
D433*
X003648Y003526D03*
D434*
X003647Y003527D03*
D435*
X003646Y003527D03*
D436*
X003645Y003527D03*
D437*
X003644Y003527D03*
D438*
X003643Y003527D03*
D439*
X003642Y003527D03*
D440*
X003641Y003527D03*
D441*
X003640Y003527D03*
D442*
X003639Y003527D03*
D443*
X003638Y003527D03*
D444*
X003637Y003527D03*
D445*
X003636Y003527D03*
D446*
X003635Y003527D03*
D447*
X003634Y003527D03*
D448*
X003633Y003527D03*
D449*
X003632Y003527D03*
D450*
X003631Y003527D03*
D451*
X003630Y003526D03*
D452*
X003629Y003526D03*
D453*
X003628Y003526D03*
D454*
X003627Y003526D03*
D455*
X003626Y003526D03*
D456*
X003625Y003526D03*
D457*
X003624Y003526D03*
D458*
X003623Y003526D03*
D459*
X003622Y003526D03*
D460*
X003621Y003526D03*
D461*
X003620Y003526D03*
D462*
X003619Y003526D03*
D463*
X003618Y003526D03*
D464*
X003617Y003526D03*
D465*
X003616Y003526D03*
D466*
X003615Y003526D03*
D467*
X003614Y003526D03*
D468*
X003613Y003526D03*
D469*
X003612Y003526D03*
D470*
X003611Y003526D03*
D471*
X003610Y003526D03*
D472*
X003609Y003526D03*
D473*
X003608Y003526D03*
D474*
X003607Y003526D03*
D475*
X003606Y003526D03*
D476*
X003605Y003526D03*
D477*
X003604Y003526D03*
D478*
X003603Y003526D03*
D479*
X003602Y003526D03*
D480*
X003601Y003526D03*
D481*
X003600Y003526D03*
D482*
X003599Y003526D03*
D483*
X003598Y003526D03*
D484*
X003597Y003527D03*
D485*
X003596Y003527D03*
D486*
X003595Y003527D03*
D487*
X003594Y003527D03*
D488*
X003593Y003527D03*
D489*
X003592Y003527D03*
D490*
X003591Y003527D03*
D491*
X003590Y003527D03*
D492*
X003589Y003527D03*
D493*
X003588Y003527D03*
D494*
X003587Y003527D03*
D495*
X003586Y003527D03*
D496*
X003585Y003527D03*
D497*
X003584Y003527D03*
D498*
X003583Y003527D03*
D499*
X003582Y003526D03*
D500*
X003581Y003526D03*
D501*
X003580Y003526D03*
D502*
X003579Y003526D03*
D503*
X003578Y003526D03*
D504*
X003577Y003526D03*
D505*
X003576Y003526D03*
D506*
X003575Y003526D03*
D507*
X003574Y003526D03*
D508*
X003573Y003526D03*
D509*
X003572Y003526D03*
D510*
X003571Y003526D03*
D511*
X003570Y003526D03*
D512*
X003569Y003526D03*
D513*
X003568Y003526D03*
D514*
X003567Y003526D03*
D515*
X003566Y003526D03*
D516*
X003565Y003526D03*
D517*
X003564Y003526D03*
D518*
X003563Y003526D03*
D519*
X003562Y003526D03*
D520*
X003561Y003526D03*
D521*
X003560Y003526D03*
D522*
X003559Y003526D03*
D523*
X003558Y003526D03*
D524*
X003557Y003526D03*
D525*
X003556Y003526D03*
D526*
X003555Y003526D03*
D527*
X003554Y003526D03*
D528*
X003553Y003526D03*
D529*
X003552Y003526D03*
D530*
X003551Y003526D03*
D531*
X003550Y003526D03*
D532*
X003549Y003526D03*
D533*
X003548Y003527D03*
D534*
X003547Y003527D03*
D535*
X003546Y003527D03*
D536*
X003545Y003527D03*
D537*
X003544Y003527D03*
D538*
X003543Y003527D03*
D539*
X003542Y003527D03*
D540*
X003541Y003527D03*
D541*
X003540Y003527D03*
D542*
X003539Y003527D03*
D543*
X003538Y003527D03*
D544*
X003537Y003527D03*
D545*
X003536Y003527D03*
D546*
X003535Y003527D03*
D547*
X003534Y003527D03*
D548*
X003533Y003526D03*
D549*
X003532Y003526D03*
D550*
X003531Y003526D03*
D551*
X003530Y003526D03*
D552*
X003529Y003526D03*
D553*
X003528Y003526D03*
D554*
X003527Y003526D03*
D555*
X003526Y003526D03*
D556*
X003525Y003526D03*
D557*
X003524Y003526D03*
D558*
X003523Y003526D03*
D559*
X003522Y003526D03*
D560*
X003521Y003526D03*
D561*
X003520Y003526D03*
D562*
X003519Y003526D03*
D563*
X003518Y003526D03*
D564*
X003517Y003526D03*
D565*
X003516Y003526D03*
D566*
X003515Y003526D03*
D567*
X003514Y003526D03*
D568*
X003513Y003526D03*
D569*
X003512Y003526D03*
D570*
X003511Y003526D03*
D571*
X003510Y003526D03*
D572*
X003509Y003526D03*
D573*
X003508Y003526D03*
D574*
X003507Y003526D03*
D575*
X003506Y003526D03*
D576*
X003505Y003526D03*
D577*
X003504Y003526D03*
D578*
X003503Y003526D03*
D579*
X003502Y003526D03*
D580*
X003501Y003526D03*
D581*
X003500Y003526D03*
D582*
X003499Y003527D03*
D583*
X003498Y003527D03*
D584*
X003497Y003527D03*
D585*
X003496Y003527D03*
D586*
X003495Y003527D03*
D587*
X003494Y003527D03*
D588*
X003493Y003527D03*
D589*
X003492Y003527D03*
D590*
X003491Y003527D03*
D591*
X003490Y003527D03*
D592*
X003489Y003527D03*
D593*
X003488Y003527D03*
D594*
X003487Y003527D03*
D595*
X003486Y003527D03*
D596*
X003485Y003527D03*
D597*
X003484Y003526D03*
D598*
X003483Y003526D03*
D599*
X003482Y003526D03*
D600*
X003481Y003526D03*
D601*
X003480Y003526D03*
D602*
X003479Y003526D03*
D603*
X003478Y003526D03*
D604*
X003477Y003526D03*
D605*
X003476Y003526D03*
D606*
X003475Y003526D03*
D607*
X003474Y003526D03*
D608*
X003473Y003526D03*
D609*
X003472Y003526D03*
D610*
X003471Y003526D03*
D611*
X003470Y003526D03*
D612*
X003469Y003526D03*
D613*
X003468Y003526D03*
D614*
X003467Y003526D03*
D615*
X003466Y003526D03*
D616*
X003465Y003526D03*
D617*
X003464Y003526D03*
D618*
X003463Y003526D03*
D619*
X003462Y003527D03*
D620*
X003461Y003526D03*
D621*
X003460Y003526D03*
D622*
X003459Y003526D03*
D623*
X003458Y003526D03*
D624*
X003457Y003526D03*
D625*
X003456Y003527D03*
D626*
X003455Y003527D03*
D627*
X003454Y003527D03*
D628*
X003453Y003527D03*
D629*
X003452Y003527D03*
D630*
X003451Y003527D03*
D631*
X003450Y003528D03*
D632*
X003449Y003528D03*
D633*
X003448Y003528D03*
D634*
X003447Y003528D03*
D635*
X003446Y003528D03*
D636*
X003445Y003528D03*
D637*
X003444Y003528D03*
D638*
X003443Y003528D03*
D639*
X003442Y003529D03*
D640*
X005548Y004532D02*
X005550Y004534D01*
X005548Y004534D01*
X005549Y004534D02*
X005549Y004535D01*
X005549Y004536D01*
X005548Y004536D01*
X005548Y004536D01*
X005548Y004537D01*
X005548Y004537D01*
X005549Y004537D01*
X005549Y004536D01*
X005549Y004536D01*
X005548Y004536D01*
X005549Y004535D02*
X005549Y004535D01*
X005549Y004537D02*
X005549Y004537D01*
X005549Y004538D02*
X005549Y004538D01*
X005548Y004538D01*
X005549Y004539D02*
X005548Y004539D01*
X005549Y004539D01*
X005549Y004539D01*
X005549Y004539D01*
X005549Y004538D01*
X005549Y004540D02*
X005549Y004540D01*
X005548Y004540D01*
X005548Y004540D01*
X005548Y004541D01*
X005548Y004542D02*
X005550Y004543D01*
X005549Y004543D02*
X005548Y004545D01*
X005548Y004546D01*
X005549Y004546D01*
X005549Y004545D01*
X005548Y004543D01*
X005549Y004541D02*
X005549Y004540D01*
X005549Y004541D01*
X005549Y004541D01*
X005549Y004541D01*
X005550Y004546D02*
X005550Y004546D01*
X005549Y004547D02*
X005549Y004548D01*
X005548Y004548D01*
X005549Y004548D01*
X005549Y004549D01*
X005549Y004550D01*
X005548Y004550D01*
X005548Y004549D01*
X005548Y004548D01*
X005548Y004548D01*
X005548Y004547D01*
X005549Y004547D02*
X005549Y004547D01*
X005549Y004547D01*
X005549Y004548D01*
X005549Y004550D02*
X005549Y004551D01*
X005549Y004551D01*
X005549Y004552D01*
X005548Y004552D01*
X005550Y004553D01*
X005549Y004554D02*
X005549Y004555D01*
X005548Y004555D01*
X005548Y004554D01*
X005548Y004554D01*
X005549Y004554D01*
X005549Y004555D01*
X005549Y004555D01*
X005549Y004556D02*
X005549Y004556D01*
X005548Y004556D01*
X005548Y004556D01*
X005548Y004557D02*
X005548Y004558D01*
X005548Y004559D02*
X005548Y004559D01*
X005550Y004559D01*
X005550Y004559D01*
X005549Y004560D02*
X005548Y004560D01*
X005548Y004560D01*
X005548Y004561D01*
X005548Y004561D01*
X005549Y004561D01*
X005549Y004560D01*
X005549Y004560D01*
X005549Y004561D02*
X005549Y004561D01*
X005549Y004562D02*
X005548Y004562D01*
X005548Y004563D01*
X005549Y004563D01*
X005549Y004562D01*
X005549Y004562D01*
X005548Y004562D02*
X005548Y004562D01*
X005547Y004563D02*
X005547Y004563D01*
X005548Y004563D01*
X005548Y004564D02*
X005548Y004564D01*
X005548Y004565D01*
X005548Y004565D01*
X005549Y004565D01*
X005549Y004565D01*
X005549Y004564D01*
X005548Y004564D01*
X005549Y004564D02*
X005549Y004564D01*
X005548Y004566D02*
X005548Y004566D01*
X005548Y004566D01*
X005548Y004566D01*
X005548Y004566D01*
X005548Y004567D01*
X005548Y004568D01*
X005549Y004568D01*
X005549Y004567D01*
X005549Y004566D01*
X005550Y004566D02*
X005548Y004566D01*
X005548Y004568D02*
X005549Y004568D01*
X005549Y004569D01*
X005549Y004569D01*
X005548Y004569D01*
X005549Y004570D02*
X005548Y004570D01*
X005548Y004571D01*
X005548Y004571D01*
X005549Y004571D01*
X005549Y004571D01*
X005549Y004570D01*
X005549Y004569D01*
X005549Y004569D01*
X005549Y004570D02*
X005547Y004570D01*
X005550Y004556D02*
X005550Y004556D01*
X005548Y004552D02*
X005548Y004551D01*
X005548Y004551D01*
X005548Y004550D01*
D641*
X006100Y004100D02*
X006900Y004100D01*
X007167Y004823D02*
X007125Y004864D01*
X007125Y004948D01*
X007167Y004989D01*
X007167Y005099D02*
X007125Y005140D01*
X007125Y005224D01*
X007167Y005266D01*
X007208Y005266D01*
X007250Y005224D01*
X007250Y005182D01*
X007250Y005224D02*
X007292Y005266D01*
X007334Y005266D01*
X007375Y005224D01*
X007375Y005140D01*
X007334Y005099D01*
X007334Y004989D02*
X007375Y004948D01*
X007375Y004864D01*
X007334Y004823D01*
X007167Y004823D01*
M02*
