G75*
%MOIN*%
%OFA0B0*%
%FSLAX24Y24*%
%IPPOS*%
%LPD*%
%AMOC8*
5,1,8,0,0,1.08239X$1,22.5*
%
%ADD10C,0.0050*%
%ADD11C,0.0740*%
%ADD12R,0.0740X0.0740*%
%ADD13C,0.0740*%
%ADD14R,0.0433X0.0394*%
%ADD15R,0.0394X0.0433*%
%ADD16R,0.0315X0.0315*%
%ADD17R,0.0138X0.0551*%
%ADD18R,0.0709X0.0748*%
%ADD19R,0.0748X0.0748*%
%ADD20R,0.0550X0.0137*%
%ADD21C,0.0140*%
%ADD22C,0.0160*%
%ADD23C,0.0400*%
%ADD24C,0.0120*%
D10*
X000203Y000628D02*
X000203Y010678D01*
X006603Y010678D01*
X019853Y010678D01*
X019832Y010678D02*
X013432Y010678D01*
X013218Y010678D02*
X006818Y010678D01*
X019832Y010678D02*
X019832Y000628D01*
X013432Y000628D01*
X013218Y000628D02*
X006818Y000628D01*
X006603Y000628D02*
X019853Y000628D01*
X006603Y000628D02*
X000203Y000628D01*
D11*
X000905Y008538D02*
X000905Y009278D01*
X001905Y009278D02*
X001905Y008538D01*
X002905Y008538D02*
X002905Y009278D01*
X003905Y009278D02*
X003905Y008538D01*
X004905Y008538D02*
X004905Y009278D01*
X005905Y009278D02*
X005905Y008538D01*
X007520Y008538D02*
X007520Y009278D01*
X008520Y009278D02*
X008520Y008538D01*
X009520Y008538D02*
X009520Y009278D01*
X010520Y009278D02*
X010520Y008538D01*
X011520Y008538D02*
X011520Y009278D01*
X012520Y009278D02*
X012520Y008538D01*
X014134Y008538D02*
X014134Y009278D01*
X015134Y009278D02*
X015134Y008538D01*
X016134Y008538D02*
X016134Y009278D01*
X017134Y009278D02*
X017134Y008538D01*
X018134Y008538D02*
X018134Y009278D01*
X019134Y009278D02*
X019134Y008538D01*
D12*
X014003Y004154D03*
X007389Y004154D03*
X000774Y004154D03*
D13*
X000774Y003154D03*
X000774Y002154D03*
X000774Y001154D03*
X007389Y001154D03*
X007389Y002154D03*
X007389Y003154D03*
X014003Y003154D03*
X014003Y002154D03*
X014003Y001154D03*
D14*
X013897Y005228D03*
X014566Y005228D03*
X012352Y007328D03*
X011683Y007328D03*
X013897Y007428D03*
X014566Y007428D03*
X018297Y007328D03*
X018966Y007328D03*
X007952Y007428D03*
X007283Y007428D03*
X005738Y007328D03*
X005069Y007328D03*
X007283Y005228D03*
X007952Y005228D03*
X001338Y005228D03*
X000669Y005228D03*
X000669Y007428D03*
X001338Y007428D03*
D15*
X001253Y006812D03*
X001253Y006143D03*
X005703Y005312D03*
X005703Y004643D03*
X005703Y003062D03*
X005703Y002393D03*
X012318Y002393D03*
X012318Y003062D03*
X012318Y004643D03*
X012318Y005312D03*
X014482Y006143D03*
X014482Y006812D03*
X018932Y005312D03*
X018932Y004643D03*
X018932Y003062D03*
X018932Y002393D03*
X007868Y006143D03*
X007868Y006812D03*
D16*
X007268Y006523D03*
X007268Y005932D03*
X006303Y005923D03*
X006303Y005332D03*
X006303Y004623D03*
X006303Y004032D03*
X000653Y005932D03*
X000653Y006523D03*
X012918Y005923D03*
X012918Y005332D03*
X013882Y005932D03*
X013882Y006523D03*
X012918Y004623D03*
X012918Y004032D03*
X019532Y004032D03*
X019532Y004623D03*
X019532Y005332D03*
X019532Y005923D03*
D17*
X017144Y002271D03*
X016888Y002271D03*
X016632Y002271D03*
X016376Y002271D03*
X016120Y002271D03*
X010529Y002271D03*
X010274Y002271D03*
X010018Y002271D03*
X009762Y002271D03*
X009506Y002271D03*
X003915Y002271D03*
X003659Y002271D03*
X003403Y002271D03*
X003148Y002271D03*
X002892Y002271D03*
D18*
X001829Y001228D03*
X004978Y001228D03*
X008443Y001228D03*
X011592Y001228D03*
X015057Y001228D03*
X018207Y001228D03*
D19*
X017132Y001228D03*
X016132Y001228D03*
X010518Y001228D03*
X009518Y001228D03*
X003903Y001228D03*
X002903Y001228D03*
D20*
X002114Y003114D03*
X002114Y003370D03*
X002114Y003626D03*
X002114Y003882D03*
X002114Y004138D03*
X002114Y004394D03*
X002114Y004650D03*
X002114Y004906D03*
X002114Y005161D03*
X002114Y005417D03*
X002114Y005673D03*
X002114Y005929D03*
X002114Y006185D03*
X002114Y006441D03*
X004993Y006441D03*
X004993Y006185D03*
X004993Y005929D03*
X004993Y005673D03*
X004993Y005417D03*
X004993Y005161D03*
X004993Y004906D03*
X004993Y004650D03*
X004993Y004394D03*
X004993Y004138D03*
X004993Y003882D03*
X004993Y003626D03*
X004993Y003370D03*
X004993Y003114D03*
X008728Y003114D03*
X008728Y003370D03*
X008728Y003626D03*
X008728Y003882D03*
X008728Y004138D03*
X008728Y004394D03*
X008728Y004650D03*
X008728Y004906D03*
X008728Y005161D03*
X008728Y005417D03*
X008728Y005673D03*
X008728Y005929D03*
X008728Y006185D03*
X008728Y006441D03*
X011607Y006441D03*
X011607Y006185D03*
X011607Y005929D03*
X011607Y005673D03*
X011607Y005417D03*
X011607Y005161D03*
X011607Y004906D03*
X011607Y004650D03*
X011607Y004394D03*
X011607Y004138D03*
X011607Y003882D03*
X011607Y003626D03*
X011607Y003370D03*
X011607Y003114D03*
X015342Y003114D03*
X015342Y003370D03*
X015342Y003626D03*
X015342Y003882D03*
X015342Y004138D03*
X015342Y004394D03*
X015342Y004650D03*
X015342Y004906D03*
X015342Y005161D03*
X015342Y005417D03*
X015342Y005673D03*
X015342Y005929D03*
X015342Y006185D03*
X015342Y006441D03*
X018221Y006441D03*
X018221Y006185D03*
X018221Y005929D03*
X018221Y005673D03*
X018221Y005417D03*
X018221Y005161D03*
X018221Y004906D03*
X018221Y004650D03*
X018221Y004394D03*
X018221Y004138D03*
X018221Y003882D03*
X018221Y003626D03*
X018221Y003370D03*
X018221Y003114D03*
D21*
X018565Y002876D02*
X017876Y002876D01*
X017854Y002898D01*
X016862Y002898D01*
X016862Y002716D01*
X017027Y002716D01*
X017032Y002711D01*
X017052Y002716D01*
X017144Y002716D01*
X017144Y002271D01*
X017383Y002271D01*
X017383Y002569D01*
X017371Y002612D01*
X017349Y002651D01*
X017317Y002682D01*
X017278Y002705D01*
X017235Y002716D01*
X017144Y002716D01*
X017144Y002271D01*
X017144Y002271D01*
X017144Y002271D01*
X017383Y002271D01*
X017383Y001973D01*
X017371Y001930D01*
X017349Y001891D01*
X017317Y001859D01*
X017278Y001837D01*
X017235Y001825D01*
X017144Y001825D01*
X017144Y002271D01*
X017144Y002271D01*
X017144Y001825D01*
X017052Y001825D01*
X017032Y001831D01*
X017027Y001825D01*
X015981Y001825D01*
X015881Y001925D01*
X015881Y002194D01*
X015870Y002221D01*
X015870Y002328D01*
X014832Y002328D01*
X014740Y002366D01*
X014670Y002436D01*
X014570Y002536D01*
X014532Y002628D01*
X014532Y003020D01*
X014460Y002848D01*
X014309Y002696D01*
X014253Y002673D01*
X014253Y002634D01*
X014309Y002611D01*
X014460Y002459D01*
X014543Y002261D01*
X014543Y002046D01*
X014460Y001848D01*
X014309Y001696D01*
X014207Y001654D01*
X014309Y001611D01*
X014460Y001459D01*
X014533Y001285D01*
X014533Y001672D01*
X014632Y001772D01*
X015482Y001772D01*
X015581Y001672D01*
X015581Y000823D01*
X015588Y000823D01*
X015588Y001672D01*
X015687Y001772D01*
X016576Y001772D01*
X016632Y001716D01*
X016687Y001772D01*
X017576Y001772D01*
X017676Y001672D01*
X017676Y000823D01*
X017682Y000823D01*
X017682Y001672D01*
X017782Y001772D01*
X018631Y001772D01*
X018731Y001672D01*
X018731Y000823D01*
X019637Y000823D01*
X019637Y000991D01*
X019555Y000958D01*
X019408Y000958D01*
X019272Y001014D01*
X019168Y001118D01*
X019112Y001254D01*
X019112Y001401D01*
X019168Y001537D01*
X019232Y001601D01*
X019232Y002040D01*
X019194Y002018D01*
X019151Y002006D01*
X018960Y002006D01*
X018960Y002364D01*
X018903Y002364D01*
X018903Y002006D01*
X018713Y002006D01*
X018669Y002018D01*
X018631Y002040D01*
X018599Y002072D01*
X018577Y002111D01*
X018565Y002154D01*
X018565Y002364D01*
X018903Y002364D01*
X018903Y002421D01*
X018565Y002421D01*
X018565Y002632D01*
X018577Y002675D01*
X018599Y002714D01*
X018613Y002728D01*
X018565Y002775D01*
X018565Y002876D01*
X018565Y002844D02*
X016862Y002844D01*
X017144Y002705D02*
X017144Y002705D01*
X017277Y002705D02*
X018594Y002705D01*
X018565Y002567D02*
X017383Y002567D01*
X017383Y002428D02*
X018565Y002428D01*
X018565Y002290D02*
X017383Y002290D01*
X017144Y002290D02*
X017144Y002290D01*
X017144Y002428D02*
X017144Y002428D01*
X017144Y002567D02*
X017144Y002567D01*
X017144Y002151D02*
X017144Y002151D01*
X017144Y002013D02*
X017144Y002013D01*
X017144Y001874D02*
X017144Y001874D01*
X017332Y001874D02*
X019232Y001874D01*
X019232Y002013D02*
X019174Y002013D01*
X018960Y002013D02*
X018903Y002013D01*
X018903Y002151D02*
X018960Y002151D01*
X018690Y002013D02*
X017383Y002013D01*
X017383Y002151D02*
X018566Y002151D01*
X018903Y002290D02*
X018960Y002290D01*
X019232Y001736D02*
X018667Y001736D01*
X018731Y001597D02*
X019228Y001597D01*
X019136Y001459D02*
X018731Y001459D01*
X018731Y001320D02*
X019112Y001320D01*
X019142Y001182D02*
X018731Y001182D01*
X018731Y001043D02*
X019243Y001043D01*
X019637Y000905D02*
X018731Y000905D01*
X017682Y000905D02*
X017676Y000905D01*
X017676Y001043D02*
X017682Y001043D01*
X017676Y001182D02*
X017682Y001182D01*
X017676Y001320D02*
X017682Y001320D01*
X017676Y001459D02*
X017682Y001459D01*
X017676Y001597D02*
X017682Y001597D01*
X017746Y001736D02*
X017612Y001736D01*
X016651Y001736D02*
X016612Y001736D01*
X015932Y001874D02*
X014471Y001874D01*
X014529Y002013D02*
X015881Y002013D01*
X015881Y002151D02*
X014543Y002151D01*
X014531Y002290D02*
X015870Y002290D01*
X015651Y001736D02*
X015518Y001736D01*
X015581Y001597D02*
X015588Y001597D01*
X015581Y001459D02*
X015588Y001459D01*
X015581Y001320D02*
X015588Y001320D01*
X015581Y001182D02*
X015588Y001182D01*
X015581Y001043D02*
X015588Y001043D01*
X015581Y000905D02*
X015588Y000905D01*
X014533Y001320D02*
X014518Y001320D01*
X014533Y001459D02*
X014461Y001459D01*
X014533Y001597D02*
X014323Y001597D01*
X014348Y001736D02*
X014596Y001736D01*
X013799Y001654D02*
X013697Y001611D01*
X013545Y001459D01*
X013463Y001261D01*
X013463Y001046D01*
X013545Y000848D01*
X013570Y000823D01*
X013432Y000823D01*
X013432Y010483D01*
X019637Y010483D01*
X019637Y009477D01*
X019634Y009485D01*
X019596Y009561D01*
X019546Y009630D01*
X019486Y009690D01*
X019417Y009740D01*
X019341Y009778D01*
X019260Y009805D01*
X019176Y009818D01*
X019174Y009818D01*
X019174Y008948D01*
X019094Y008948D01*
X019094Y009818D01*
X019091Y009818D01*
X019007Y009805D01*
X018927Y009778D01*
X018851Y009740D01*
X018782Y009690D01*
X018722Y009630D01*
X018545Y009630D01*
X018592Y009584D02*
X018440Y009736D01*
X018241Y009818D01*
X018026Y009818D01*
X017828Y009736D01*
X017676Y009584D01*
X017634Y009482D01*
X017592Y009584D01*
X017440Y009736D01*
X017241Y009818D01*
X017026Y009818D01*
X016828Y009736D01*
X016676Y009584D01*
X016634Y009482D01*
X016592Y009584D01*
X016440Y009736D01*
X016241Y009818D01*
X016026Y009818D01*
X015828Y009736D01*
X015676Y009584D01*
X015634Y009482D01*
X015592Y009584D01*
X015440Y009736D01*
X015241Y009818D01*
X015026Y009818D01*
X014828Y009736D01*
X014676Y009584D01*
X014634Y009482D01*
X014592Y009584D01*
X014440Y009736D01*
X014241Y009818D01*
X014026Y009818D01*
X013828Y009736D01*
X013676Y009584D01*
X013594Y009385D01*
X013594Y008430D01*
X013667Y008253D01*
X013667Y007794D01*
X013610Y007794D01*
X013511Y007695D01*
X013511Y007160D01*
X013610Y007061D01*
X014115Y007061D01*
X014115Y006845D01*
X014110Y006850D01*
X013654Y006850D01*
X013554Y006751D01*
X013554Y006295D01*
X013622Y006227D01*
X013620Y006226D01*
X013588Y006194D01*
X013566Y006155D01*
X013554Y006112D01*
X013554Y005941D01*
X013873Y005941D01*
X013873Y005924D01*
X013554Y005924D01*
X013554Y005752D01*
X013432Y005752D01*
X013554Y005752D02*
X013566Y005709D01*
X013588Y005670D01*
X013620Y005639D01*
X013659Y005616D01*
X013702Y005605D01*
X013873Y005605D01*
X013873Y005924D01*
X013891Y005924D01*
X013891Y005605D01*
X014062Y005605D01*
X014105Y005616D01*
X014144Y005639D01*
X014175Y005670D01*
X014198Y005709D01*
X014209Y005752D01*
X014554Y005752D01*
X014549Y005756D02*
X014711Y005594D01*
X014595Y005594D01*
X014595Y005256D01*
X014538Y005256D01*
X014538Y005594D01*
X014328Y005594D01*
X014284Y005583D01*
X014246Y005560D01*
X014232Y005547D01*
X014184Y005594D01*
X013610Y005594D01*
X013511Y005495D01*
X013511Y004960D01*
X013610Y004861D01*
X013647Y004861D01*
X013647Y004694D01*
X013562Y004694D01*
X013463Y004594D01*
X013463Y003713D01*
X013562Y003614D01*
X013702Y003614D01*
X013697Y003611D01*
X013545Y003459D01*
X013463Y003261D01*
X013463Y003046D01*
X013545Y002848D01*
X013697Y002696D01*
X013753Y002673D01*
X013753Y002634D01*
X013697Y002611D01*
X013545Y002459D01*
X013463Y002261D01*
X013463Y002046D01*
X013545Y001848D01*
X013697Y001696D01*
X013799Y001654D01*
X013683Y001597D02*
X013432Y001597D01*
X013432Y001459D02*
X013545Y001459D01*
X013487Y001320D02*
X013432Y001320D01*
X013218Y001206D02*
X013218Y000823D01*
X012117Y000823D01*
X012117Y001672D01*
X012017Y001772D01*
X011168Y001772D01*
X011068Y001672D01*
X011068Y000823D01*
X011062Y000823D01*
X011062Y001672D01*
X010962Y001772D01*
X010073Y001772D01*
X010018Y001716D01*
X009962Y001772D01*
X009073Y001772D01*
X008974Y001672D01*
X008974Y000823D01*
X008967Y000823D01*
X008967Y001672D01*
X008868Y001772D01*
X008018Y001772D01*
X007919Y001672D01*
X007919Y001285D01*
X007846Y001459D01*
X007694Y001611D01*
X007593Y001654D01*
X007694Y001696D01*
X007846Y001848D01*
X007929Y002046D01*
X007929Y002261D01*
X007846Y002459D01*
X007694Y002611D01*
X007639Y002634D01*
X007639Y002673D01*
X007694Y002696D01*
X007846Y002848D01*
X007918Y003020D01*
X007918Y002628D01*
X007956Y002536D01*
X008056Y002436D01*
X008126Y002366D01*
X008218Y002328D01*
X009256Y002328D01*
X009256Y002221D01*
X009267Y002194D01*
X009267Y001925D01*
X009367Y001825D01*
X010413Y001825D01*
X010418Y001831D01*
X010438Y001825D01*
X010529Y001825D01*
X010529Y002271D01*
X010529Y002716D01*
X010438Y002716D01*
X010418Y002711D01*
X010413Y002716D01*
X010248Y002716D01*
X010248Y002898D01*
X011240Y002898D01*
X011262Y002876D01*
X011951Y002876D01*
X011951Y002775D01*
X011999Y002728D01*
X011985Y002714D01*
X011962Y002675D01*
X011951Y002632D01*
X011951Y002421D01*
X012289Y002421D01*
X012289Y002364D01*
X012346Y002364D01*
X012346Y002006D01*
X012537Y002006D01*
X012580Y002018D01*
X012618Y002040D01*
X012618Y001601D01*
X012554Y001537D01*
X012498Y001401D01*
X012498Y001254D01*
X012554Y001118D01*
X012658Y001014D01*
X012794Y000958D01*
X012941Y000958D01*
X013077Y001014D01*
X013181Y001118D01*
X013218Y001206D01*
X013218Y001182D02*
X013208Y001182D01*
X013218Y001043D02*
X013106Y001043D01*
X013218Y000905D02*
X012117Y000905D01*
X012117Y001043D02*
X012629Y001043D01*
X012528Y001182D02*
X012117Y001182D01*
X012117Y001320D02*
X012498Y001320D01*
X012521Y001459D02*
X012117Y001459D01*
X012117Y001597D02*
X012614Y001597D01*
X012618Y001736D02*
X012053Y001736D01*
X012098Y002006D02*
X012289Y002006D01*
X012289Y002364D01*
X011951Y002364D01*
X011951Y002154D01*
X011962Y002111D01*
X011985Y002072D01*
X012016Y002040D01*
X012055Y002018D01*
X012098Y002006D01*
X012075Y002013D02*
X010768Y002013D01*
X010768Y001973D02*
X010768Y002271D01*
X010768Y002569D01*
X010757Y002612D01*
X010734Y002651D01*
X010703Y002682D01*
X010664Y002705D01*
X010621Y002716D01*
X010529Y002716D01*
X010529Y002271D01*
X010529Y002271D01*
X010529Y002271D01*
X010529Y001825D01*
X010621Y001825D01*
X010664Y001837D01*
X010703Y001859D01*
X010734Y001891D01*
X010757Y001930D01*
X010768Y001973D01*
X010718Y001874D02*
X012618Y001874D01*
X012618Y002013D02*
X012560Y002013D01*
X012346Y002013D02*
X012289Y002013D01*
X012289Y002151D02*
X012346Y002151D01*
X012346Y002290D02*
X012289Y002290D01*
X011951Y002290D02*
X010768Y002290D01*
X010768Y002271D02*
X010529Y002271D01*
X010529Y002271D01*
X010768Y002271D01*
X010768Y002151D02*
X011952Y002151D01*
X011951Y002428D02*
X010768Y002428D01*
X010768Y002567D02*
X011951Y002567D01*
X011980Y002705D02*
X010663Y002705D01*
X010529Y002705D02*
X010529Y002705D01*
X010529Y002567D02*
X010529Y002567D01*
X010529Y002428D02*
X010529Y002428D01*
X010529Y002290D02*
X010529Y002290D01*
X010529Y002151D02*
X010529Y002151D01*
X010529Y002013D02*
X010529Y002013D01*
X010529Y001874D02*
X010529Y001874D01*
X010998Y001736D02*
X011132Y001736D01*
X011068Y001597D02*
X011062Y001597D01*
X011062Y001459D02*
X011068Y001459D01*
X011062Y001320D02*
X011068Y001320D01*
X011062Y001182D02*
X011068Y001182D01*
X011062Y001043D02*
X011068Y001043D01*
X011062Y000905D02*
X011068Y000905D01*
X010037Y001736D02*
X009998Y001736D01*
X009318Y001874D02*
X007857Y001874D01*
X007915Y002013D02*
X009267Y002013D01*
X009267Y002151D02*
X007929Y002151D01*
X007917Y002290D02*
X009256Y002290D01*
X010248Y002844D02*
X011951Y002844D01*
X011162Y003600D02*
X009965Y003600D01*
X009830Y003465D01*
X009756Y003391D01*
X009756Y004012D01*
X009887Y004144D01*
X011162Y004144D01*
X011162Y003999D01*
X011168Y003993D01*
X011162Y003973D01*
X011162Y003882D01*
X011607Y003882D01*
X011607Y003882D01*
X012052Y003882D01*
X012052Y003973D01*
X012047Y003993D01*
X012052Y003999D01*
X012052Y004144D01*
X012098Y004144D01*
X012098Y004004D01*
X012151Y003876D01*
X012052Y003876D01*
X012052Y003882D01*
X011607Y003882D01*
X011607Y003882D01*
X011162Y003882D01*
X011162Y003791D01*
X011168Y003770D01*
X011162Y003765D01*
X011162Y003600D01*
X011162Y003675D02*
X009756Y003675D01*
X009756Y003536D02*
X009901Y003536D01*
X009762Y003398D02*
X009756Y003398D01*
X009756Y003813D02*
X011162Y003813D01*
X011162Y003952D02*
X009756Y003952D01*
X009834Y004090D02*
X011162Y004090D01*
X011162Y004644D02*
X010383Y004644D01*
X011162Y004644D01*
X011162Y004650D01*
X011607Y004650D01*
X011607Y004650D01*
X011162Y004650D01*
X011162Y004676D01*
X010935Y004676D01*
X010891Y004658D01*
X010744Y004658D01*
X010608Y004714D01*
X010504Y004818D01*
X010448Y004954D01*
X010448Y005101D01*
X010504Y005237D01*
X010569Y005303D01*
X010554Y005318D01*
X010498Y005454D01*
X010498Y005601D01*
X010554Y005737D01*
X010658Y005841D01*
X010794Y005898D01*
X010941Y005898D01*
X011077Y005841D01*
X011162Y005756D01*
X011162Y005764D01*
X011172Y005801D01*
X011162Y005838D01*
X011162Y005929D01*
X011607Y005929D01*
X011607Y005929D01*
X011607Y005912D01*
X011607Y005673D01*
X011607Y005673D01*
X011607Y005929D01*
X011607Y005929D01*
X011607Y005929D01*
X012052Y005929D01*
X012052Y005838D01*
X012042Y005801D01*
X012052Y005764D01*
X012052Y005699D01*
X012585Y005699D01*
X012657Y005627D01*
X012658Y005628D01*
X012590Y005695D01*
X012590Y005928D01*
X012541Y005908D01*
X012394Y005908D01*
X012258Y005964D01*
X012154Y006068D01*
X012098Y006204D01*
X012098Y006351D01*
X012154Y006487D01*
X012258Y006591D01*
X012394Y006648D01*
X012541Y006648D01*
X012677Y006591D01*
X012761Y006508D01*
X012963Y006508D01*
X013013Y006458D01*
X013148Y006323D01*
X013148Y006248D01*
X013218Y006178D01*
X013218Y010483D01*
X006818Y010483D01*
X006818Y000823D01*
X006956Y000823D01*
X006931Y000848D01*
X006849Y001046D01*
X006849Y001261D01*
X006931Y001459D01*
X007083Y001611D01*
X007185Y001654D01*
X007083Y001696D01*
X006931Y001848D01*
X006849Y002046D01*
X006849Y002261D01*
X006931Y002459D01*
X007083Y002611D01*
X007139Y002634D01*
X007139Y002673D01*
X007083Y002696D01*
X006931Y002848D01*
X006849Y003046D01*
X006849Y003261D01*
X006931Y003459D01*
X007083Y003611D01*
X007088Y003614D01*
X006948Y003614D01*
X006849Y003713D01*
X006849Y004594D01*
X006948Y004694D01*
X007033Y004694D01*
X007033Y004861D01*
X006996Y004861D01*
X006896Y004960D01*
X006896Y005495D01*
X006996Y005594D01*
X007570Y005594D01*
X007618Y005547D01*
X007631Y005560D01*
X007670Y005583D01*
X007713Y005594D01*
X007924Y005594D01*
X007924Y005256D01*
X007981Y005256D01*
X007981Y005594D01*
X008097Y005594D01*
X007935Y005756D01*
X007600Y005756D01*
X007595Y005762D01*
X007595Y005752D01*
X007940Y005752D01*
X008078Y005614D02*
X007480Y005614D01*
X007491Y005616D02*
X007530Y005639D01*
X007561Y005670D01*
X007584Y005709D01*
X007595Y005752D01*
X007276Y005752D02*
X007259Y005752D01*
X007259Y005891D02*
X007276Y005891D01*
X007276Y005924D02*
X007276Y005605D01*
X007448Y005605D01*
X007491Y005616D01*
X007276Y005614D02*
X007259Y005614D01*
X007259Y005605D02*
X007088Y005605D01*
X007045Y005616D01*
X007006Y005639D01*
X006974Y005670D01*
X006952Y005709D01*
X006940Y005752D01*
X006818Y005752D01*
X006940Y005752D02*
X006940Y005924D01*
X007259Y005924D01*
X007259Y005941D01*
X006940Y005941D01*
X006940Y006112D01*
X006952Y006155D01*
X006974Y006194D01*
X007006Y006226D01*
X007008Y006227D01*
X006940Y006295D01*
X006940Y006751D01*
X007040Y006850D01*
X007496Y006850D01*
X007501Y006845D01*
X007501Y007061D01*
X006996Y007061D01*
X006896Y007160D01*
X006896Y007695D01*
X006996Y007794D01*
X007053Y007794D01*
X007053Y008253D01*
X006980Y008430D01*
X006980Y009385D01*
X007062Y009584D01*
X007214Y009736D01*
X007412Y009818D01*
X007627Y009818D01*
X007826Y009736D01*
X007977Y009584D01*
X008020Y009482D01*
X008062Y009584D01*
X008214Y009736D01*
X008412Y009818D01*
X008627Y009818D01*
X008826Y009736D01*
X008977Y009584D01*
X009020Y009482D01*
X009062Y009584D01*
X009214Y009736D01*
X009412Y009818D01*
X009627Y009818D01*
X009826Y009736D01*
X009977Y009584D01*
X010020Y009482D01*
X010062Y009584D01*
X010214Y009736D01*
X010412Y009818D01*
X010627Y009818D01*
X010826Y009736D01*
X010977Y009584D01*
X011020Y009482D01*
X011062Y009584D01*
X011214Y009736D01*
X011412Y009818D01*
X011627Y009818D01*
X011826Y009736D01*
X011977Y009584D01*
X012019Y009484D01*
X012019Y009485D01*
X012058Y009561D01*
X012108Y009630D01*
X011931Y009630D01*
X012016Y009492D02*
X012022Y009492D01*
X012108Y009630D02*
X012168Y009690D01*
X012237Y009740D01*
X012312Y009778D01*
X012393Y009805D01*
X012477Y009818D01*
X012480Y009818D01*
X012480Y008948D01*
X012560Y008948D01*
X013060Y008948D01*
X013060Y009320D01*
X013046Y009404D01*
X013020Y009485D01*
X012981Y009561D01*
X012932Y009630D01*
X012871Y009690D01*
X012803Y009740D01*
X012727Y009778D01*
X012646Y009805D01*
X012562Y009818D01*
X012560Y009818D01*
X012560Y008948D01*
X012560Y008868D01*
X013060Y008868D01*
X013060Y008495D01*
X013046Y008411D01*
X013020Y008331D01*
X012981Y008255D01*
X012932Y008186D01*
X012871Y008126D01*
X012803Y008076D01*
X012727Y008037D01*
X012646Y008011D01*
X012562Y007998D01*
X012560Y007998D01*
X012560Y008868D01*
X012480Y008868D01*
X012480Y007998D01*
X012477Y007998D01*
X012393Y008011D01*
X012312Y008037D01*
X012237Y008076D01*
X012168Y008126D01*
X012108Y008186D01*
X012058Y008255D01*
X012019Y008331D01*
X012019Y008332D01*
X011977Y008232D01*
X011826Y008080D01*
X011750Y008049D01*
X011750Y007834D01*
X011610Y007694D01*
X011970Y007694D01*
X012018Y007647D01*
X012031Y007660D01*
X012070Y007683D01*
X012113Y007694D01*
X012324Y007694D01*
X012324Y007356D01*
X012381Y007356D01*
X012739Y007356D01*
X012739Y007547D01*
X012727Y007590D01*
X012705Y007629D01*
X012673Y007660D01*
X012634Y007683D01*
X012591Y007694D01*
X012381Y007694D01*
X012381Y007356D01*
X012381Y007299D01*
X012739Y007299D01*
X012739Y007108D01*
X012727Y007065D01*
X012705Y007026D01*
X012673Y006995D01*
X012634Y006972D01*
X012591Y006961D01*
X012381Y006961D01*
X012381Y007299D01*
X012324Y007299D01*
X012324Y006961D01*
X012113Y006961D01*
X012070Y006972D01*
X012031Y006995D01*
X012018Y007008D01*
X011970Y006961D01*
X011667Y006961D01*
X011383Y006679D01*
X011952Y006679D01*
X012052Y006580D01*
X012052Y006046D01*
X012047Y006041D01*
X012052Y006020D01*
X012052Y005929D01*
X011607Y005929D01*
X011162Y005929D01*
X011162Y006020D01*
X011168Y006041D01*
X011162Y006046D01*
X011162Y006462D01*
X010629Y005935D01*
X010418Y005724D01*
X010418Y004728D01*
X010383Y004644D01*
X010418Y004783D02*
X010539Y004783D01*
X010461Y004921D02*
X010418Y004921D01*
X010418Y005060D02*
X010448Y005060D01*
X010418Y005198D02*
X010488Y005198D01*
X010546Y005337D02*
X010418Y005337D01*
X010418Y005475D02*
X010498Y005475D01*
X010503Y005614D02*
X010418Y005614D01*
X010446Y005752D02*
X010569Y005752D01*
X010584Y005891D02*
X010777Y005891D01*
X010724Y006029D02*
X011164Y006029D01*
X011162Y005891D02*
X010958Y005891D01*
X010864Y006168D02*
X011162Y006168D01*
X011162Y006306D02*
X011004Y006306D01*
X011145Y006445D02*
X011162Y006445D01*
X011425Y006722D02*
X013218Y006722D01*
X013218Y006583D02*
X012685Y006583D01*
X013026Y006445D02*
X013218Y006445D01*
X013218Y006306D02*
X013148Y006306D01*
X013432Y006306D02*
X013554Y006306D01*
X013554Y006445D02*
X013432Y006445D01*
X013432Y006583D02*
X013554Y006583D01*
X013554Y006722D02*
X013432Y006722D01*
X013432Y006860D02*
X014115Y006860D01*
X014115Y006999D02*
X013432Y006999D01*
X013432Y007137D02*
X013534Y007137D01*
X013511Y007276D02*
X013432Y007276D01*
X013432Y007414D02*
X013511Y007414D01*
X013511Y007553D02*
X013432Y007553D01*
X013432Y007691D02*
X013511Y007691D01*
X013432Y007830D02*
X013667Y007830D01*
X013667Y007968D02*
X013432Y007968D01*
X013432Y008107D02*
X013667Y008107D01*
X013667Y008245D02*
X013432Y008245D01*
X013432Y008384D02*
X013613Y008384D01*
X013594Y008522D02*
X013432Y008522D01*
X013432Y008661D02*
X013594Y008661D01*
X013594Y008799D02*
X013432Y008799D01*
X013432Y008938D02*
X013594Y008938D01*
X013594Y009076D02*
X013432Y009076D01*
X013432Y009215D02*
X013594Y009215D01*
X013594Y009353D02*
X013432Y009353D01*
X013432Y009492D02*
X013638Y009492D01*
X013722Y009630D02*
X013432Y009630D01*
X013218Y009630D02*
X012931Y009630D01*
X013017Y009492D02*
X013218Y009492D01*
X013218Y009353D02*
X013054Y009353D01*
X013060Y009215D02*
X013218Y009215D01*
X013218Y009076D02*
X013060Y009076D01*
X013218Y008938D02*
X012560Y008938D01*
X012560Y009076D02*
X012480Y009076D01*
X012480Y009215D02*
X012560Y009215D01*
X012560Y009353D02*
X012480Y009353D01*
X012480Y009492D02*
X012560Y009492D01*
X012560Y009630D02*
X012480Y009630D01*
X012480Y009769D02*
X012560Y009769D01*
X012746Y009769D02*
X013218Y009769D01*
X013218Y009907D02*
X006818Y009907D01*
X006818Y009769D02*
X007293Y009769D01*
X007108Y009630D02*
X006818Y009630D01*
X006818Y009492D02*
X007024Y009492D01*
X006980Y009353D02*
X006818Y009353D01*
X006603Y009353D02*
X006440Y009353D01*
X006445Y009320D02*
X006432Y009404D01*
X006406Y009485D01*
X006367Y009561D01*
X006317Y009630D01*
X006603Y009630D01*
X006603Y009492D02*
X006403Y009492D01*
X006317Y009630D02*
X006257Y009690D01*
X006188Y009740D01*
X006113Y009778D01*
X006032Y009805D01*
X005948Y009818D01*
X005945Y009818D01*
X005945Y008948D01*
X005865Y008948D01*
X005865Y009818D01*
X005863Y009818D01*
X005779Y009805D01*
X005698Y009778D01*
X005622Y009740D01*
X005554Y009690D01*
X005494Y009630D01*
X005317Y009630D01*
X005363Y009584D02*
X005211Y009736D01*
X005013Y009818D01*
X004798Y009818D01*
X004600Y009736D01*
X004448Y009584D01*
X004405Y009482D01*
X004363Y009584D01*
X004211Y009736D01*
X004013Y009818D01*
X003798Y009818D01*
X003600Y009736D01*
X003448Y009584D01*
X003405Y009482D01*
X003363Y009584D01*
X003211Y009736D01*
X003013Y009818D01*
X002798Y009818D01*
X002600Y009736D01*
X002448Y009584D01*
X002405Y009482D01*
X002363Y009584D01*
X002211Y009736D01*
X002013Y009818D01*
X001798Y009818D01*
X001600Y009736D01*
X001448Y009584D01*
X001405Y009482D01*
X001363Y009584D01*
X001211Y009736D01*
X001013Y009818D01*
X000798Y009818D01*
X000600Y009736D01*
X000448Y009584D01*
X000398Y009465D01*
X000398Y010483D01*
X006603Y010483D01*
X006603Y006178D01*
X006533Y006248D01*
X006533Y006323D01*
X006399Y006458D01*
X006349Y006508D01*
X006147Y006508D01*
X006063Y006591D01*
X005927Y006648D01*
X005780Y006648D01*
X005644Y006591D01*
X005540Y006487D01*
X005483Y006351D01*
X005483Y006204D01*
X005540Y006068D01*
X005644Y005964D01*
X005780Y005908D01*
X005927Y005908D01*
X005976Y005928D01*
X005976Y005695D01*
X006043Y005628D01*
X006043Y005627D01*
X005971Y005699D01*
X005438Y005699D01*
X005438Y005764D01*
X005428Y005801D01*
X005438Y005838D01*
X005438Y005929D01*
X004993Y005929D01*
X004993Y005929D01*
X004993Y005673D01*
X004993Y005673D01*
X004993Y005912D01*
X004993Y005929D01*
X004993Y005929D01*
X005438Y005929D01*
X005438Y006020D01*
X005432Y006041D01*
X005438Y006046D01*
X005438Y006580D01*
X005338Y006679D01*
X004768Y006679D01*
X005053Y006961D01*
X005356Y006961D01*
X005403Y007008D01*
X005417Y006995D01*
X005456Y006972D01*
X005499Y006961D01*
X005710Y006961D01*
X005710Y007299D01*
X005767Y007299D01*
X005767Y007356D01*
X006125Y007356D01*
X006125Y007547D01*
X006113Y007590D01*
X006091Y007629D01*
X006059Y007660D01*
X006020Y007683D01*
X005977Y007694D01*
X005767Y007694D01*
X005767Y007356D01*
X005710Y007356D01*
X005710Y007694D01*
X005499Y007694D01*
X005456Y007683D01*
X005417Y007660D01*
X005403Y007647D01*
X005356Y007694D01*
X004996Y007694D01*
X005135Y007834D01*
X005135Y008025D01*
X005135Y008049D01*
X005211Y008080D01*
X005363Y008232D01*
X005405Y008332D01*
X005405Y008331D01*
X005444Y008255D01*
X005494Y008186D01*
X005554Y008126D01*
X005622Y008076D01*
X005698Y008037D01*
X005779Y008011D01*
X005863Y007998D01*
X005865Y007998D01*
X005865Y008868D01*
X005945Y008868D01*
X005945Y007998D01*
X005948Y007998D01*
X006032Y008011D01*
X006113Y008037D01*
X006188Y008076D01*
X006257Y008126D01*
X006317Y008186D01*
X006367Y008255D01*
X006406Y008331D01*
X006432Y008411D01*
X006445Y008495D01*
X006445Y008868D01*
X005945Y008868D01*
X005945Y008948D01*
X006445Y008948D01*
X006445Y009320D01*
X006445Y009215D02*
X006603Y009215D01*
X006603Y009076D02*
X006445Y009076D01*
X006603Y008938D02*
X005945Y008938D01*
X005945Y009076D02*
X005865Y009076D01*
X005865Y009215D02*
X005945Y009215D01*
X005945Y009353D02*
X005865Y009353D01*
X005865Y009492D02*
X005945Y009492D01*
X005945Y009630D02*
X005865Y009630D01*
X005865Y009769D02*
X005945Y009769D01*
X006132Y009769D02*
X006603Y009769D01*
X006603Y009907D02*
X000398Y009907D01*
X000398Y009769D02*
X000679Y009769D01*
X000494Y009630D02*
X000398Y009630D01*
X000398Y009492D02*
X000409Y009492D01*
X001132Y009769D02*
X001679Y009769D01*
X001494Y009630D02*
X001317Y009630D01*
X001401Y009492D02*
X001409Y009492D01*
X002132Y009769D02*
X002679Y009769D01*
X002494Y009630D02*
X002317Y009630D01*
X002401Y009492D02*
X002409Y009492D01*
X003132Y009769D02*
X003679Y009769D01*
X003494Y009630D02*
X003317Y009630D01*
X003401Y009492D02*
X003409Y009492D01*
X004132Y009769D02*
X004679Y009769D01*
X004494Y009630D02*
X004317Y009630D01*
X004401Y009492D02*
X004409Y009492D01*
X005132Y009769D02*
X005679Y009769D01*
X005494Y009630D02*
X005444Y009561D01*
X005405Y009485D01*
X005405Y009484D01*
X005363Y009584D01*
X005401Y009492D02*
X005408Y009492D01*
X005865Y008799D02*
X005945Y008799D01*
X005945Y008661D02*
X005865Y008661D01*
X005865Y008522D02*
X005945Y008522D01*
X005945Y008384D02*
X005865Y008384D01*
X005865Y008245D02*
X005945Y008245D01*
X005945Y008107D02*
X005865Y008107D01*
X005580Y008107D02*
X005238Y008107D01*
X005135Y007968D02*
X006603Y007968D01*
X006603Y007830D02*
X005131Y007830D01*
X005359Y007691D02*
X005487Y007691D01*
X005710Y007691D02*
X005767Y007691D01*
X005767Y007553D02*
X005710Y007553D01*
X005710Y007414D02*
X005767Y007414D01*
X005767Y007299D02*
X006125Y007299D01*
X006125Y007108D01*
X006113Y007065D01*
X006091Y007026D01*
X006059Y006995D01*
X006020Y006972D01*
X005977Y006961D01*
X005767Y006961D01*
X005767Y007299D01*
X005767Y007276D02*
X005710Y007276D01*
X005710Y007137D02*
X005767Y007137D01*
X005767Y006999D02*
X005710Y006999D01*
X005413Y006999D02*
X005394Y006999D01*
X004951Y006860D02*
X006603Y006860D01*
X006603Y006999D02*
X006063Y006999D01*
X006125Y007137D02*
X006603Y007137D01*
X006818Y007137D02*
X006920Y007137D01*
X006818Y006999D02*
X007501Y006999D01*
X007501Y006860D02*
X006818Y006860D01*
X006818Y006722D02*
X006940Y006722D01*
X006940Y006583D02*
X006818Y006583D01*
X006818Y006445D02*
X006940Y006445D01*
X006940Y006306D02*
X006818Y006306D01*
X006603Y006306D02*
X006533Y006306D01*
X006603Y006445D02*
X006412Y006445D01*
X006603Y006583D02*
X006071Y006583D01*
X005636Y006583D02*
X005435Y006583D01*
X005438Y006445D02*
X005522Y006445D01*
X005483Y006306D02*
X005438Y006306D01*
X005438Y006168D02*
X005499Y006168D01*
X005435Y006029D02*
X005579Y006029D01*
X005438Y005891D02*
X005976Y005891D01*
X005976Y005752D02*
X005438Y005752D01*
X004993Y005752D02*
X004993Y005752D01*
X004993Y005891D02*
X004993Y005891D01*
X004993Y005929D02*
X004548Y005929D01*
X004548Y005838D01*
X004558Y005801D01*
X004548Y005764D01*
X004548Y005756D01*
X004463Y005841D01*
X004327Y005898D01*
X004180Y005898D01*
X004044Y005841D01*
X003940Y005737D01*
X003883Y005601D01*
X003883Y005454D01*
X003940Y005318D01*
X003955Y005303D01*
X003890Y005237D01*
X003833Y005101D01*
X003833Y004954D01*
X003890Y004818D01*
X003994Y004714D01*
X004130Y004658D01*
X004277Y004658D01*
X004320Y004676D01*
X004548Y004676D01*
X004548Y004650D01*
X004993Y004650D01*
X004993Y004650D01*
X004548Y004650D01*
X004548Y004644D01*
X003769Y004644D01*
X003803Y004728D01*
X003803Y005724D01*
X004014Y005935D01*
X004548Y006462D01*
X004548Y006046D01*
X004553Y006041D01*
X004548Y006020D01*
X004548Y005929D01*
X004993Y005929D01*
X004993Y005929D01*
X004548Y005891D02*
X004344Y005891D01*
X004163Y005891D02*
X003970Y005891D01*
X003955Y005752D02*
X003832Y005752D01*
X003803Y005614D02*
X003889Y005614D01*
X003883Y005475D02*
X003803Y005475D01*
X003803Y005337D02*
X003932Y005337D01*
X003874Y005198D02*
X003803Y005198D01*
X003803Y005060D02*
X003833Y005060D01*
X003847Y004921D02*
X003803Y004921D01*
X003803Y004783D02*
X003925Y004783D01*
X003769Y004644D02*
X004548Y004644D01*
X004548Y004144D02*
X004548Y003999D01*
X004553Y003993D01*
X004548Y003973D01*
X004548Y003882D01*
X004993Y003882D01*
X005438Y003882D01*
X005438Y003973D01*
X005432Y003993D01*
X005438Y003999D01*
X005438Y004144D01*
X005483Y004144D01*
X005483Y004004D01*
X005537Y003876D01*
X005438Y003876D01*
X005438Y003882D01*
X004993Y003882D01*
X004993Y003882D01*
X004993Y003882D01*
X004548Y003882D01*
X004548Y003791D01*
X004553Y003770D01*
X004548Y003765D01*
X004548Y003600D01*
X003351Y003600D01*
X003216Y003465D01*
X003142Y003391D01*
X003142Y004012D01*
X003273Y004144D01*
X004548Y004144D01*
X004548Y004090D02*
X003220Y004090D01*
X003142Y003952D02*
X004548Y003952D01*
X004548Y003813D02*
X003142Y003813D01*
X003142Y003675D02*
X004548Y003675D01*
X005438Y003952D02*
X005505Y003952D01*
X005483Y004090D02*
X005438Y004090D01*
X006818Y004090D02*
X006849Y004090D01*
X006849Y003952D02*
X006818Y003952D01*
X006818Y003813D02*
X006849Y003813D01*
X006818Y003675D02*
X006887Y003675D01*
X006818Y003536D02*
X007007Y003536D01*
X006905Y003398D02*
X006818Y003398D01*
X006818Y003259D02*
X006849Y003259D01*
X006849Y003121D02*
X006818Y003121D01*
X006818Y002982D02*
X006875Y002982D01*
X006818Y002844D02*
X006935Y002844D01*
X006818Y002705D02*
X007073Y002705D01*
X007038Y002567D02*
X006818Y002567D01*
X006818Y002428D02*
X006918Y002428D01*
X006860Y002290D02*
X006818Y002290D01*
X006818Y002151D02*
X006849Y002151D01*
X006862Y002013D02*
X006818Y002013D01*
X006818Y001874D02*
X006920Y001874D01*
X006818Y001736D02*
X007043Y001736D01*
X007068Y001597D02*
X006818Y001597D01*
X006818Y001459D02*
X006930Y001459D01*
X006873Y001320D02*
X006818Y001320D01*
X006603Y001206D02*
X006603Y000823D01*
X005503Y000823D01*
X005503Y001672D01*
X005403Y001772D01*
X004554Y001772D01*
X004454Y001672D01*
X004454Y000823D01*
X004448Y000823D01*
X004448Y001672D01*
X004348Y001772D01*
X003459Y001772D01*
X003403Y001716D01*
X003348Y001772D01*
X002459Y001772D01*
X002359Y001672D01*
X002359Y000823D01*
X002353Y000823D01*
X002353Y001672D01*
X002253Y001772D01*
X001404Y001772D01*
X001304Y001672D01*
X001304Y001285D01*
X001232Y001459D01*
X001080Y001611D01*
X000978Y001654D01*
X001080Y001696D01*
X001232Y001848D01*
X001314Y002046D01*
X001314Y002261D01*
X001232Y002459D01*
X001080Y002611D01*
X001024Y002634D01*
X001024Y002673D01*
X001080Y002696D01*
X001232Y002848D01*
X001303Y003020D01*
X001303Y002628D01*
X001342Y002536D01*
X001442Y002436D01*
X001512Y002366D01*
X001604Y002328D01*
X002642Y002328D01*
X002642Y002221D01*
X002653Y002194D01*
X002653Y001925D01*
X002752Y001825D01*
X003799Y001825D01*
X003804Y001831D01*
X003824Y001825D01*
X003915Y001825D01*
X003915Y002271D01*
X003915Y002716D01*
X003824Y002716D01*
X003804Y002711D01*
X003799Y002716D01*
X003633Y002716D01*
X003633Y002898D01*
X004626Y002898D01*
X004647Y002876D01*
X005337Y002876D01*
X005337Y002775D01*
X005384Y002728D01*
X005371Y002714D01*
X005348Y002675D01*
X005337Y002632D01*
X005337Y002421D01*
X005675Y002421D01*
X005675Y002364D01*
X005732Y002364D01*
X005732Y002006D01*
X005923Y002006D01*
X005966Y002018D01*
X006003Y002040D01*
X006003Y001601D01*
X005940Y001537D01*
X005883Y001401D01*
X005883Y001254D01*
X005940Y001118D01*
X006044Y001014D01*
X006180Y000958D01*
X006327Y000958D01*
X006463Y001014D01*
X006567Y001118D01*
X006603Y001206D01*
X006603Y001182D02*
X006594Y001182D01*
X006603Y001043D02*
X006492Y001043D01*
X006603Y000905D02*
X005503Y000905D01*
X005503Y001043D02*
X006015Y001043D01*
X005913Y001182D02*
X005503Y001182D01*
X005503Y001320D02*
X005883Y001320D01*
X005907Y001459D02*
X005503Y001459D01*
X005503Y001597D02*
X006000Y001597D01*
X006003Y001736D02*
X005439Y001736D01*
X005484Y002006D02*
X005675Y002006D01*
X005675Y002364D01*
X005337Y002364D01*
X005337Y002154D01*
X005348Y002111D01*
X005371Y002072D01*
X005402Y002040D01*
X005441Y002018D01*
X005484Y002006D01*
X005461Y002013D02*
X004154Y002013D01*
X004154Y001973D02*
X004154Y002271D01*
X004154Y002569D01*
X004143Y002612D01*
X004120Y002651D01*
X004089Y002682D01*
X004050Y002705D01*
X004007Y002716D01*
X003915Y002716D01*
X003915Y002271D01*
X003915Y002271D01*
X003915Y002271D01*
X004154Y002271D01*
X003915Y002271D01*
X003915Y002271D01*
X003915Y001825D01*
X004007Y001825D01*
X004050Y001837D01*
X004089Y001859D01*
X004120Y001891D01*
X004143Y001930D01*
X004154Y001973D01*
X004103Y001874D02*
X006003Y001874D01*
X006003Y002013D02*
X005946Y002013D01*
X005732Y002013D02*
X005675Y002013D01*
X005675Y002151D02*
X005732Y002151D01*
X005732Y002290D02*
X005675Y002290D01*
X005337Y002290D02*
X004154Y002290D01*
X004154Y002428D02*
X005337Y002428D01*
X005337Y002567D02*
X004154Y002567D01*
X004049Y002705D02*
X005366Y002705D01*
X005337Y002844D02*
X003633Y002844D01*
X003915Y002705D02*
X003915Y002705D01*
X003915Y002567D02*
X003915Y002567D01*
X003915Y002428D02*
X003915Y002428D01*
X003915Y002290D02*
X003915Y002290D01*
X003915Y002151D02*
X003915Y002151D01*
X003915Y002013D02*
X003915Y002013D01*
X003915Y001874D02*
X003915Y001874D01*
X004154Y002151D02*
X005337Y002151D01*
X004518Y001736D02*
X004384Y001736D01*
X004448Y001597D02*
X004454Y001597D01*
X004448Y001459D02*
X004454Y001459D01*
X004448Y001320D02*
X004454Y001320D01*
X004448Y001182D02*
X004454Y001182D01*
X004448Y001043D02*
X004454Y001043D01*
X004448Y000905D02*
X004454Y000905D01*
X003423Y001736D02*
X003384Y001736D01*
X002704Y001874D02*
X001243Y001874D01*
X001300Y002013D02*
X002653Y002013D01*
X002653Y002151D02*
X001314Y002151D01*
X001303Y002290D02*
X002642Y002290D01*
X002423Y001736D02*
X002289Y001736D01*
X002353Y001597D02*
X002359Y001597D01*
X002353Y001459D02*
X002359Y001459D01*
X002353Y001320D02*
X002359Y001320D01*
X002353Y001182D02*
X002359Y001182D01*
X002353Y001043D02*
X002359Y001043D01*
X002353Y000905D02*
X002359Y000905D01*
X001304Y001320D02*
X001290Y001320D01*
X001304Y001459D02*
X001233Y001459D01*
X001304Y001597D02*
X001095Y001597D01*
X001120Y001736D02*
X001368Y001736D01*
X001449Y002428D02*
X001245Y002428D01*
X001329Y002567D02*
X001125Y002567D01*
X001090Y002705D02*
X001303Y002705D01*
X001303Y002844D02*
X001228Y002844D01*
X001288Y002982D02*
X001303Y002982D01*
X003142Y003398D02*
X003148Y003398D01*
X003142Y003536D02*
X003287Y003536D01*
X001669Y004265D02*
X001569Y004365D01*
X001477Y004404D01*
X001314Y004404D01*
X001314Y004594D01*
X001215Y004694D01*
X000919Y004694D01*
X000919Y004861D01*
X000956Y004861D01*
X001003Y004908D01*
X001017Y004895D01*
X001056Y004872D01*
X001099Y004861D01*
X001310Y004861D01*
X001310Y005199D01*
X001367Y005199D01*
X001367Y004861D01*
X001577Y004861D01*
X001620Y004872D01*
X001659Y004895D01*
X001669Y004905D01*
X001669Y004815D01*
X001675Y004794D01*
X001669Y004789D01*
X001669Y004265D01*
X001669Y004367D02*
X001565Y004367D01*
X001669Y004506D02*
X001314Y004506D01*
X001264Y004644D02*
X001669Y004644D01*
X001669Y004783D02*
X000919Y004783D01*
X001310Y004921D02*
X001367Y004921D01*
X001367Y005060D02*
X001310Y005060D01*
X001310Y005198D02*
X001367Y005198D01*
X001367Y005256D02*
X001310Y005256D01*
X001310Y005594D01*
X001099Y005594D01*
X001056Y005583D01*
X001017Y005560D01*
X001003Y005547D01*
X000956Y005594D01*
X000398Y005594D01*
X000398Y005635D01*
X000430Y005616D01*
X000474Y005605D01*
X000645Y005605D01*
X000645Y005924D01*
X000662Y005924D01*
X000662Y005605D01*
X000833Y005605D01*
X000877Y005616D01*
X000915Y005639D01*
X000947Y005670D01*
X000969Y005709D01*
X000981Y005752D01*
X001325Y005752D01*
X001321Y005756D02*
X001483Y005594D01*
X001367Y005594D01*
X001367Y005256D01*
X001367Y005337D02*
X001310Y005337D01*
X001310Y005475D02*
X001367Y005475D01*
X001464Y005614D02*
X000866Y005614D01*
X000662Y005614D02*
X000645Y005614D01*
X000441Y005614D02*
X000398Y005614D01*
X000645Y005752D02*
X000662Y005752D01*
X000662Y005891D02*
X000645Y005891D01*
X000981Y005762D02*
X000986Y005756D01*
X001321Y005756D01*
X000981Y005752D02*
X000981Y005762D01*
X002114Y004906D02*
X002559Y004906D01*
X002559Y004996D01*
X002554Y005017D01*
X002559Y005022D01*
X002559Y005187D01*
X002939Y005187D01*
X003073Y005322D01*
X003073Y005173D01*
X002559Y004658D01*
X002559Y004789D01*
X002554Y004794D01*
X002559Y004815D01*
X002559Y004905D01*
X002114Y004905D01*
X002114Y004906D01*
X002559Y004921D02*
X002822Y004921D01*
X002960Y005060D02*
X002559Y005060D01*
X002559Y004783D02*
X002683Y004783D01*
X002949Y005198D02*
X003073Y005198D01*
X004110Y006029D02*
X004550Y006029D01*
X004548Y006168D02*
X004250Y006168D01*
X004390Y006306D02*
X004548Y006306D01*
X004548Y006445D02*
X004530Y006445D01*
X004811Y006722D02*
X006603Y006722D01*
X006818Y006168D02*
X006959Y006168D01*
X006940Y006029D02*
X006818Y006029D01*
X006818Y005891D02*
X006940Y005891D01*
X007259Y005924D02*
X007276Y005924D01*
X007259Y005924D02*
X007259Y005605D01*
X007055Y005614D02*
X006818Y005614D01*
X006818Y005475D02*
X006896Y005475D01*
X006896Y005337D02*
X006818Y005337D01*
X006818Y005198D02*
X006896Y005198D01*
X006896Y005060D02*
X006818Y005060D01*
X006818Y004921D02*
X006936Y004921D01*
X007033Y004783D02*
X006818Y004783D01*
X006818Y004644D02*
X006899Y004644D01*
X006849Y004506D02*
X006818Y004506D01*
X006818Y004367D02*
X006849Y004367D01*
X006849Y004229D02*
X006818Y004229D01*
X007533Y004694D02*
X007533Y004861D01*
X007570Y004861D01*
X007618Y004908D01*
X007631Y004895D01*
X007670Y004872D01*
X007713Y004861D01*
X007924Y004861D01*
X007924Y005199D01*
X007981Y005199D01*
X007981Y004861D01*
X008191Y004861D01*
X008234Y004872D01*
X008273Y004895D01*
X008283Y004905D01*
X008283Y004815D01*
X008289Y004794D01*
X008283Y004789D01*
X008283Y004265D01*
X008183Y004365D01*
X008091Y004404D01*
X007929Y004404D01*
X007929Y004594D01*
X007829Y004694D01*
X007533Y004694D01*
X007533Y004783D02*
X008283Y004783D01*
X008283Y004644D02*
X007878Y004644D01*
X007929Y004506D02*
X008283Y004506D01*
X008283Y004367D02*
X008179Y004367D01*
X007981Y004921D02*
X007924Y004921D01*
X007924Y005060D02*
X007981Y005060D01*
X007981Y005198D02*
X007924Y005198D01*
X007924Y005337D02*
X007981Y005337D01*
X007981Y005475D02*
X007924Y005475D01*
X008728Y004906D02*
X009173Y004906D01*
X009173Y004996D01*
X009168Y005017D01*
X009173Y005022D01*
X009173Y005187D01*
X009553Y005187D01*
X009688Y005322D01*
X009688Y005173D01*
X009173Y004658D01*
X009173Y004789D01*
X009168Y004794D01*
X009173Y004815D01*
X009173Y004905D01*
X008728Y004905D01*
X008728Y004906D01*
X009173Y004921D02*
X009436Y004921D01*
X009574Y005060D02*
X009173Y005060D01*
X009173Y004783D02*
X009297Y004783D01*
X009563Y005198D02*
X009688Y005198D01*
X011607Y005752D02*
X011607Y005752D01*
X011607Y005891D02*
X011607Y005891D01*
X012052Y005891D02*
X012590Y005891D01*
X012590Y005752D02*
X012052Y005752D01*
X012050Y006029D02*
X012193Y006029D01*
X012113Y006168D02*
X012052Y006168D01*
X012052Y006306D02*
X012098Y006306D01*
X012136Y006445D02*
X012052Y006445D01*
X012049Y006583D02*
X012250Y006583D01*
X012324Y006999D02*
X012381Y006999D01*
X012381Y007137D02*
X012324Y007137D01*
X012324Y007276D02*
X012381Y007276D01*
X012381Y007414D02*
X012324Y007414D01*
X012324Y007553D02*
X012381Y007553D01*
X012381Y007691D02*
X012324Y007691D01*
X012101Y007691D02*
X011973Y007691D01*
X011745Y007830D02*
X013218Y007830D01*
X013218Y007968D02*
X011750Y007968D01*
X011852Y008107D02*
X012195Y008107D01*
X012065Y008245D02*
X011983Y008245D01*
X012480Y008245D02*
X012560Y008245D01*
X012560Y008384D02*
X012480Y008384D01*
X012480Y008522D02*
X012560Y008522D01*
X012560Y008661D02*
X012480Y008661D01*
X012480Y008799D02*
X012560Y008799D01*
X013060Y008799D02*
X013218Y008799D01*
X013218Y008661D02*
X013060Y008661D01*
X013060Y008522D02*
X013218Y008522D01*
X013218Y008384D02*
X013037Y008384D01*
X012974Y008245D02*
X013218Y008245D01*
X013218Y008107D02*
X012845Y008107D01*
X012560Y008107D02*
X012480Y008107D01*
X012604Y007691D02*
X013218Y007691D01*
X013218Y007553D02*
X012737Y007553D01*
X012739Y007414D02*
X013218Y007414D01*
X013218Y007276D02*
X012739Y007276D01*
X012739Y007137D02*
X013218Y007137D01*
X013218Y006999D02*
X012677Y006999D01*
X013218Y006860D02*
X011565Y006860D01*
X012008Y006999D02*
X012027Y006999D01*
X013432Y006168D02*
X013573Y006168D01*
X013554Y006029D02*
X013432Y006029D01*
X013432Y005891D02*
X013554Y005891D01*
X013873Y005891D02*
X013891Y005891D01*
X013891Y005752D02*
X013873Y005752D01*
X014209Y005752D02*
X014209Y005762D01*
X014215Y005756D01*
X014549Y005756D01*
X014692Y005614D02*
X014094Y005614D01*
X013891Y005614D02*
X013873Y005614D01*
X013669Y005614D02*
X013432Y005614D01*
X013432Y005475D02*
X013511Y005475D01*
X013511Y005337D02*
X013432Y005337D01*
X013432Y005198D02*
X013511Y005198D01*
X013511Y005060D02*
X013432Y005060D01*
X013432Y004921D02*
X013550Y004921D01*
X013647Y004783D02*
X013432Y004783D01*
X013432Y004644D02*
X013513Y004644D01*
X013463Y004506D02*
X013432Y004506D01*
X013432Y004367D02*
X013463Y004367D01*
X013463Y004229D02*
X013432Y004229D01*
X013432Y004090D02*
X013463Y004090D01*
X013463Y003952D02*
X013432Y003952D01*
X013432Y003813D02*
X013463Y003813D01*
X013432Y003675D02*
X013501Y003675D01*
X013432Y003536D02*
X013622Y003536D01*
X013519Y003398D02*
X013432Y003398D01*
X013432Y003259D02*
X013463Y003259D01*
X013463Y003121D02*
X013432Y003121D01*
X013432Y002982D02*
X013489Y002982D01*
X013432Y002844D02*
X013549Y002844D01*
X013432Y002705D02*
X013688Y002705D01*
X013652Y002567D02*
X013432Y002567D01*
X013432Y002428D02*
X013532Y002428D01*
X013475Y002290D02*
X013432Y002290D01*
X013432Y002151D02*
X013463Y002151D01*
X013477Y002013D02*
X013432Y002013D01*
X013432Y001874D02*
X013534Y001874D01*
X013432Y001736D02*
X013657Y001736D01*
X013463Y001182D02*
X013432Y001182D01*
X013432Y001043D02*
X013464Y001043D01*
X013432Y000905D02*
X013521Y000905D01*
X014473Y002428D02*
X014678Y002428D01*
X014557Y002567D02*
X014353Y002567D01*
X014318Y002705D02*
X014532Y002705D01*
X014532Y002844D02*
X014456Y002844D01*
X014516Y002982D02*
X014532Y002982D01*
X016370Y003391D02*
X016370Y004012D01*
X016502Y004144D01*
X017776Y004144D01*
X017776Y003999D01*
X017782Y003993D01*
X017776Y003973D01*
X017776Y003882D01*
X018221Y003882D01*
X018221Y003882D01*
X017776Y003882D01*
X017776Y003791D01*
X017782Y003770D01*
X017776Y003765D01*
X017776Y003600D01*
X016579Y003600D01*
X016444Y003465D01*
X016370Y003391D01*
X016370Y003398D02*
X016377Y003398D01*
X016444Y003465D02*
X016444Y003465D01*
X016515Y003536D02*
X016370Y003536D01*
X016370Y003675D02*
X017776Y003675D01*
X017776Y003813D02*
X016370Y003813D01*
X016370Y003952D02*
X017776Y003952D01*
X017776Y004090D02*
X016448Y004090D01*
X016997Y004644D02*
X017032Y004728D01*
X017032Y005724D01*
X017243Y005935D01*
X017776Y006462D01*
X017776Y006046D01*
X017782Y006041D01*
X017776Y006020D01*
X017776Y005929D01*
X017776Y005838D01*
X017786Y005801D01*
X017776Y005764D01*
X017776Y005756D01*
X017691Y005841D01*
X017555Y005898D01*
X017408Y005898D01*
X017272Y005841D01*
X017168Y005737D01*
X017112Y005601D01*
X017112Y005454D01*
X017168Y005318D01*
X017184Y005303D01*
X017118Y005237D01*
X017062Y005101D01*
X017062Y004954D01*
X017118Y004818D01*
X017222Y004714D01*
X017358Y004658D01*
X017505Y004658D01*
X017549Y004676D01*
X017776Y004676D01*
X017776Y004650D01*
X018221Y004650D01*
X018221Y004650D01*
X017776Y004650D01*
X017776Y004644D01*
X016997Y004644D01*
X017776Y004644D01*
X017154Y004783D02*
X017032Y004783D01*
X017032Y004921D02*
X017075Y004921D01*
X017062Y005060D02*
X017032Y005060D01*
X017032Y005198D02*
X017102Y005198D01*
X017160Y005337D02*
X017032Y005337D01*
X017032Y005475D02*
X017112Y005475D01*
X017117Y005614D02*
X017032Y005614D01*
X017060Y005752D02*
X017183Y005752D01*
X017198Y005891D02*
X017391Y005891D01*
X017338Y006029D02*
X017779Y006029D01*
X017776Y005929D02*
X018221Y005929D01*
X017776Y005929D01*
X017776Y005891D02*
X017572Y005891D01*
X017478Y006168D02*
X017776Y006168D01*
X017776Y006306D02*
X017619Y006306D01*
X017759Y006445D02*
X017776Y006445D01*
X017997Y006679D02*
X018281Y006961D01*
X018584Y006961D01*
X018632Y007008D01*
X018646Y006995D01*
X018684Y006972D01*
X018728Y006961D01*
X018938Y006961D01*
X018938Y007299D01*
X018995Y007299D01*
X018995Y006961D01*
X019205Y006961D01*
X019249Y006972D01*
X019287Y006995D01*
X019319Y007026D01*
X019341Y007065D01*
X019353Y007108D01*
X019353Y007299D01*
X018995Y007299D01*
X018995Y007356D01*
X019353Y007356D01*
X019353Y007547D01*
X019341Y007590D01*
X019319Y007629D01*
X019287Y007660D01*
X019249Y007683D01*
X019205Y007694D01*
X018995Y007694D01*
X018995Y007356D01*
X018938Y007356D01*
X018938Y007694D01*
X018728Y007694D01*
X018684Y007683D01*
X018646Y007660D01*
X018632Y007647D01*
X018584Y007694D01*
X018224Y007694D01*
X018364Y007834D01*
X018364Y008025D01*
X018364Y008049D01*
X018440Y008080D01*
X018592Y008232D01*
X018633Y008332D01*
X018633Y008331D01*
X018672Y008255D01*
X018722Y008186D01*
X018782Y008126D01*
X018851Y008076D01*
X018927Y008037D01*
X019007Y008011D01*
X019091Y007998D01*
X019094Y007998D01*
X019094Y008868D01*
X019174Y008868D01*
X019174Y007998D01*
X019176Y007998D01*
X019260Y008011D01*
X019341Y008037D01*
X019417Y008076D01*
X019486Y008126D01*
X019546Y008186D01*
X019596Y008255D01*
X019634Y008331D01*
X019637Y008339D01*
X019637Y006448D01*
X019627Y006458D01*
X019577Y006508D01*
X019375Y006508D01*
X019291Y006591D01*
X019155Y006648D01*
X019008Y006648D01*
X018872Y006591D01*
X018768Y006487D01*
X018712Y006351D01*
X018712Y006204D01*
X018768Y006068D01*
X018872Y005964D01*
X019008Y005908D01*
X019155Y005908D01*
X019204Y005928D01*
X019204Y005695D01*
X019272Y005628D01*
X019271Y005627D01*
X019199Y005699D01*
X018666Y005699D01*
X018666Y005764D01*
X018656Y005801D01*
X018666Y005838D01*
X018666Y005929D01*
X018221Y005929D01*
X018221Y005929D01*
X018221Y005929D01*
X018221Y005912D01*
X018221Y005673D01*
X018221Y005673D01*
X018221Y005929D01*
X018221Y005929D01*
X018666Y005929D01*
X018666Y006020D01*
X018661Y006041D01*
X018666Y006046D01*
X018666Y006580D01*
X018567Y006679D01*
X017997Y006679D01*
X018039Y006722D02*
X019637Y006722D01*
X019637Y006583D02*
X019300Y006583D01*
X018864Y006583D02*
X018663Y006583D01*
X018666Y006445D02*
X018751Y006445D01*
X018712Y006306D02*
X018666Y006306D01*
X018666Y006168D02*
X018727Y006168D01*
X018664Y006029D02*
X018807Y006029D01*
X018666Y005891D02*
X019204Y005891D01*
X019204Y005752D02*
X018666Y005752D01*
X018221Y005752D02*
X018221Y005752D01*
X018221Y005891D02*
X018221Y005891D01*
X018180Y006860D02*
X019637Y006860D01*
X019637Y006999D02*
X019291Y006999D01*
X019353Y007137D02*
X019637Y007137D01*
X019637Y007276D02*
X019353Y007276D01*
X019353Y007414D02*
X019637Y007414D01*
X019637Y007553D02*
X019351Y007553D01*
X019218Y007691D02*
X019637Y007691D01*
X019637Y007830D02*
X018359Y007830D01*
X018364Y007968D02*
X019637Y007968D01*
X019637Y008107D02*
X019459Y008107D01*
X019174Y008107D02*
X019094Y008107D01*
X019094Y008245D02*
X019174Y008245D01*
X019174Y008384D02*
X019094Y008384D01*
X019094Y008522D02*
X019174Y008522D01*
X019174Y008661D02*
X019094Y008661D01*
X019094Y008799D02*
X019174Y008799D01*
X019174Y009076D02*
X019094Y009076D01*
X019094Y009215D02*
X019174Y009215D01*
X019174Y009353D02*
X019094Y009353D01*
X019094Y009492D02*
X019174Y009492D01*
X019174Y009630D02*
X019094Y009630D01*
X019094Y009769D02*
X019174Y009769D01*
X019360Y009769D02*
X019637Y009769D01*
X019637Y009907D02*
X013432Y009907D01*
X013432Y009769D02*
X013907Y009769D01*
X014360Y009769D02*
X014907Y009769D01*
X014722Y009630D02*
X014545Y009630D01*
X014630Y009492D02*
X014638Y009492D01*
X015360Y009769D02*
X015907Y009769D01*
X015722Y009630D02*
X015545Y009630D01*
X015630Y009492D02*
X015638Y009492D01*
X016360Y009769D02*
X016907Y009769D01*
X016722Y009630D02*
X016545Y009630D01*
X016630Y009492D02*
X016638Y009492D01*
X017360Y009769D02*
X017907Y009769D01*
X017722Y009630D02*
X017545Y009630D01*
X017630Y009492D02*
X017638Y009492D01*
X018360Y009769D02*
X018907Y009769D01*
X018722Y009630D02*
X018672Y009561D01*
X018633Y009485D01*
X018633Y009484D01*
X018592Y009584D01*
X018630Y009492D02*
X018637Y009492D01*
X019545Y009630D02*
X019637Y009630D01*
X019631Y009492D02*
X019637Y009492D01*
X019637Y010046D02*
X013432Y010046D01*
X013432Y010184D02*
X019637Y010184D01*
X019637Y010323D02*
X013432Y010323D01*
X013432Y010461D02*
X019637Y010461D01*
X019589Y008245D02*
X019637Y008245D01*
X018809Y008107D02*
X018466Y008107D01*
X018597Y008245D02*
X018679Y008245D01*
X018715Y007691D02*
X018587Y007691D01*
X018938Y007691D02*
X018995Y007691D01*
X018995Y007553D02*
X018938Y007553D01*
X018938Y007414D02*
X018995Y007414D01*
X018995Y007276D02*
X018938Y007276D01*
X018938Y007137D02*
X018995Y007137D01*
X018995Y006999D02*
X018938Y006999D01*
X018642Y006999D02*
X018622Y006999D01*
X016302Y005322D02*
X016302Y005173D01*
X015787Y004658D01*
X015787Y004789D01*
X015782Y004794D01*
X015787Y004815D01*
X015787Y004905D01*
X015342Y004905D01*
X015342Y004906D01*
X015787Y004906D01*
X015787Y004996D01*
X015782Y005017D01*
X015787Y005022D01*
X015787Y005187D01*
X016167Y005187D01*
X016302Y005322D01*
X016302Y005198D02*
X016178Y005198D01*
X016189Y005060D02*
X015787Y005060D01*
X015787Y004921D02*
X016050Y004921D01*
X015912Y004783D02*
X015787Y004783D01*
X014903Y004794D02*
X014897Y004789D01*
X014897Y004265D01*
X014797Y004365D01*
X014706Y004404D01*
X014543Y004404D01*
X014543Y004594D01*
X014443Y004694D01*
X014147Y004694D01*
X014147Y004861D01*
X014184Y004861D01*
X014232Y004908D01*
X014246Y004895D01*
X014284Y004872D01*
X014328Y004861D01*
X014538Y004861D01*
X014538Y005199D01*
X014595Y005199D01*
X014595Y004861D01*
X014805Y004861D01*
X014849Y004872D01*
X014887Y004895D01*
X014897Y004905D01*
X014897Y004815D01*
X014903Y004794D01*
X014897Y004783D02*
X014147Y004783D01*
X014493Y004644D02*
X014897Y004644D01*
X014897Y004506D02*
X014543Y004506D01*
X014794Y004367D02*
X014897Y004367D01*
X014595Y004921D02*
X014538Y004921D01*
X014538Y005060D02*
X014595Y005060D01*
X014595Y005198D02*
X014538Y005198D01*
X014538Y005337D02*
X014595Y005337D01*
X014595Y005475D02*
X014538Y005475D01*
X012098Y004090D02*
X012052Y004090D01*
X012052Y003952D02*
X012119Y003952D01*
X008064Y002428D02*
X007859Y002428D01*
X007943Y002567D02*
X007739Y002567D01*
X007704Y002705D02*
X007918Y002705D01*
X007918Y002844D02*
X007842Y002844D01*
X007902Y002982D02*
X007918Y002982D01*
X007982Y001736D02*
X007734Y001736D01*
X007709Y001597D02*
X007919Y001597D01*
X007919Y001459D02*
X007847Y001459D01*
X007904Y001320D02*
X007919Y001320D01*
X008967Y001320D02*
X008974Y001320D01*
X008967Y001459D02*
X008974Y001459D01*
X008967Y001597D02*
X008974Y001597D01*
X009037Y001736D02*
X008904Y001736D01*
X008967Y001182D02*
X008974Y001182D01*
X008967Y001043D02*
X008974Y001043D01*
X008967Y000905D02*
X008974Y000905D01*
X006907Y000905D02*
X006818Y000905D01*
X006818Y001043D02*
X006850Y001043D01*
X006849Y001182D02*
X006818Y001182D01*
X006818Y007276D02*
X006896Y007276D01*
X006896Y007414D02*
X006818Y007414D01*
X006818Y007553D02*
X006896Y007553D01*
X006896Y007691D02*
X006818Y007691D01*
X006603Y007691D02*
X005990Y007691D01*
X006123Y007553D02*
X006603Y007553D01*
X006603Y007414D02*
X006125Y007414D01*
X006125Y007276D02*
X006603Y007276D01*
X006818Y007830D02*
X007053Y007830D01*
X007053Y007968D02*
X006818Y007968D01*
X006818Y008107D02*
X007053Y008107D01*
X007053Y008245D02*
X006818Y008245D01*
X006818Y008384D02*
X006999Y008384D01*
X006980Y008522D02*
X006818Y008522D01*
X006818Y008661D02*
X006980Y008661D01*
X006980Y008799D02*
X006818Y008799D01*
X006818Y008938D02*
X006980Y008938D01*
X006980Y009076D02*
X006818Y009076D01*
X006818Y009215D02*
X006980Y009215D01*
X006603Y008799D02*
X006445Y008799D01*
X006445Y008661D02*
X006603Y008661D01*
X006603Y008522D02*
X006445Y008522D01*
X006423Y008384D02*
X006603Y008384D01*
X006603Y008245D02*
X006360Y008245D01*
X006231Y008107D02*
X006603Y008107D01*
X005451Y008245D02*
X005369Y008245D01*
X007931Y009630D02*
X008108Y009630D01*
X008024Y009492D02*
X008016Y009492D01*
X007746Y009769D02*
X008293Y009769D01*
X008746Y009769D02*
X009293Y009769D01*
X009108Y009630D02*
X008931Y009630D01*
X009016Y009492D02*
X009024Y009492D01*
X009746Y009769D02*
X010293Y009769D01*
X010108Y009630D02*
X009931Y009630D01*
X010016Y009492D02*
X010024Y009492D01*
X010746Y009769D02*
X011293Y009769D01*
X011108Y009630D02*
X010931Y009630D01*
X011016Y009492D02*
X011024Y009492D01*
X011746Y009769D02*
X012293Y009769D01*
X013218Y010046D02*
X006818Y010046D01*
X006818Y010184D02*
X013218Y010184D01*
X013218Y010323D02*
X006818Y010323D01*
X006818Y010461D02*
X013218Y010461D01*
X006603Y010461D02*
X000398Y010461D01*
X000398Y010323D02*
X006603Y010323D01*
X006603Y010184D02*
X000398Y010184D01*
X000398Y010046D02*
X006603Y010046D01*
X018221Y003882D02*
X018666Y003882D01*
X018666Y003973D01*
X018661Y003993D01*
X018666Y003999D01*
X018666Y004144D01*
X018712Y004144D01*
X018712Y004004D01*
X018765Y003876D01*
X018666Y003876D01*
X018666Y003882D01*
X018221Y003882D01*
X018221Y003882D01*
X018666Y003952D02*
X018734Y003952D01*
X018712Y004090D02*
X018666Y004090D01*
D22*
X018683Y004394D02*
X018221Y004394D01*
X016398Y004394D01*
X016782Y004778D01*
X016782Y005828D01*
X017066Y006112D01*
X018297Y007328D01*
X017134Y008580D02*
X016082Y007528D01*
X016082Y006028D01*
X015932Y005878D01*
X015728Y005673D01*
X015342Y005673D01*
X014986Y005673D01*
X014516Y006143D01*
X014482Y006143D01*
X014192Y006523D02*
X013882Y006523D01*
X014192Y006523D02*
X014482Y006812D01*
X012918Y005332D02*
X012898Y005312D01*
X012318Y005312D01*
X012918Y005332D02*
X012918Y004623D01*
X012318Y004643D02*
X012068Y004394D01*
X011607Y004394D01*
X009784Y004394D01*
X010168Y004778D01*
X010168Y005828D01*
X010452Y006112D01*
X011683Y007328D01*
X010520Y008580D02*
X009468Y007528D01*
X009468Y006028D01*
X009318Y005878D01*
X009113Y005673D01*
X008728Y005673D01*
X008372Y005673D01*
X007902Y006143D01*
X007868Y006143D01*
X007578Y006523D02*
X007268Y006523D01*
X007578Y006523D02*
X007868Y006812D01*
X006303Y005332D02*
X006283Y005312D01*
X005703Y005312D01*
X006303Y005332D02*
X006303Y004623D01*
X005703Y004643D02*
X005454Y004394D01*
X004993Y004394D01*
X003170Y004394D01*
X003553Y004778D01*
X003553Y005828D01*
X003838Y006112D01*
X005069Y007328D01*
X003905Y008580D02*
X002853Y007528D01*
X002853Y006028D01*
X002703Y005878D01*
X002499Y005673D01*
X002114Y005673D01*
X001758Y005673D01*
X001288Y006143D01*
X001253Y006143D01*
X000964Y006523D02*
X000653Y006523D01*
X000964Y006523D02*
X001253Y006812D01*
X001338Y005228D02*
X001660Y004906D01*
X002114Y004906D01*
X002892Y004116D02*
X003170Y004394D01*
X002892Y004116D02*
X002892Y002728D01*
X002742Y002578D01*
X001653Y002578D01*
X001553Y002678D01*
X001553Y004028D01*
X001428Y004154D01*
X000774Y004154D01*
X000669Y004259D01*
X000669Y005228D01*
X000774Y003154D02*
X000774Y002154D01*
X002892Y002271D02*
X002892Y002728D01*
X004993Y003626D02*
X005605Y003626D01*
X005703Y003528D01*
X005703Y003062D01*
X005738Y003028D01*
X006153Y003028D01*
X006253Y002928D01*
X006253Y001328D01*
X007389Y002154D02*
X007389Y003154D01*
X008168Y002678D02*
X008268Y002578D01*
X009356Y002578D01*
X009506Y002728D01*
X009506Y004116D01*
X009784Y004394D01*
X008728Y004906D02*
X008274Y004906D01*
X007952Y005228D01*
X007283Y005228D02*
X007283Y004259D01*
X007389Y004154D01*
X008042Y004154D01*
X008168Y004028D01*
X008168Y002678D01*
X009506Y002728D02*
X009506Y002271D01*
X011607Y003626D02*
X012219Y003626D01*
X012318Y003528D01*
X012318Y003062D01*
X012352Y003028D01*
X012768Y003028D01*
X012868Y002928D01*
X012868Y001328D01*
X014003Y002154D02*
X014003Y003154D01*
X014782Y002678D02*
X014882Y002578D01*
X015970Y002578D01*
X016120Y002728D01*
X016120Y004116D01*
X016398Y004394D01*
X015342Y004906D02*
X014889Y004906D01*
X014566Y005228D01*
X013897Y005228D02*
X013897Y004259D01*
X014003Y004154D01*
X014656Y004154D01*
X014782Y004028D01*
X014782Y002678D01*
X016120Y002728D02*
X016120Y002271D01*
X018221Y003626D02*
X018833Y003626D01*
X018932Y003528D01*
X018932Y003062D01*
X018966Y003028D01*
X019382Y003028D01*
X019482Y002928D01*
X019482Y001328D01*
X018683Y004394D02*
X018932Y004643D01*
X019532Y004623D02*
X019532Y005332D01*
X019512Y005312D01*
X018932Y005312D01*
X017134Y008580D02*
X017134Y008908D01*
X010520Y008908D02*
X010520Y008580D01*
X003905Y008580D02*
X003905Y008908D01*
D23*
X003303Y007178D03*
X002703Y005878D03*
X004253Y005528D03*
X004203Y005028D03*
X005853Y004078D03*
X004303Y003828D03*
X001553Y004528D03*
X005853Y006278D03*
X008168Y004528D03*
X009318Y005878D03*
X010868Y005528D03*
X010818Y005028D03*
X012468Y004078D03*
X010918Y003828D03*
X014782Y004528D03*
X015932Y005878D03*
X017482Y005528D03*
X017432Y005028D03*
X019082Y004078D03*
X017532Y003828D03*
X018982Y001628D03*
X019482Y001328D03*
X012868Y001328D03*
X012368Y001628D03*
X006253Y001328D03*
X005753Y001628D03*
X012468Y006278D03*
X009918Y007178D03*
X016532Y007178D03*
X019082Y006278D03*
D24*
X019482Y006278D01*
X019532Y006228D01*
X019532Y005923D01*
X019527Y005928D01*
X018221Y005161D02*
X017848Y005161D01*
X017482Y005528D01*
X017432Y005028D02*
X017554Y004906D01*
X018221Y004906D01*
X019082Y004078D02*
X019477Y004078D01*
X019532Y004032D01*
X018221Y003370D02*
X016674Y003370D01*
X016376Y003072D01*
X016376Y002271D01*
X016632Y002271D02*
X016632Y003028D01*
X016732Y003128D01*
X018208Y003128D01*
X018221Y003114D01*
X015882Y003978D02*
X015782Y003878D01*
X015347Y003878D01*
X015342Y003882D01*
X015882Y003978D02*
X015882Y004428D01*
X016532Y005078D01*
X016532Y006328D01*
X018134Y007930D01*
X018134Y008908D01*
X016134Y008908D02*
X015832Y008606D01*
X015832Y006778D01*
X015545Y006441D01*
X015342Y006441D01*
X015342Y006185D02*
X014974Y006185D01*
X014882Y006278D01*
X014882Y007278D01*
X014832Y007328D01*
X014566Y007428D01*
X013897Y007428D02*
X013897Y008671D01*
X014134Y008908D01*
X011520Y008908D02*
X011520Y007930D01*
X009918Y006328D01*
X009918Y005078D01*
X009268Y004428D01*
X009268Y003978D01*
X009168Y003878D01*
X008733Y003878D01*
X008728Y003882D01*
X009762Y003072D02*
X010060Y003370D01*
X011607Y003370D01*
X011594Y003128D02*
X011607Y003114D01*
X011594Y003128D02*
X010118Y003128D01*
X010018Y003028D01*
X010018Y002271D01*
X009762Y002271D02*
X009762Y003072D01*
X012468Y004078D02*
X012863Y004078D01*
X012918Y004032D01*
X011607Y004906D02*
X010940Y004906D01*
X010818Y005028D01*
X011234Y005161D02*
X010868Y005528D01*
X011234Y005161D02*
X011607Y005161D01*
X012913Y005928D02*
X012918Y005923D01*
X012918Y006228D01*
X012868Y006278D01*
X012468Y006278D01*
X009918Y007178D02*
X009718Y006978D01*
X009718Y005678D01*
X009457Y005417D01*
X008728Y005417D01*
X008728Y006185D02*
X008360Y006185D01*
X008268Y006278D01*
X008268Y007278D01*
X008218Y007328D01*
X007952Y007428D01*
X007283Y007428D02*
X007283Y008671D01*
X007520Y008908D01*
X009218Y008606D02*
X009520Y008908D01*
X009218Y008606D02*
X009218Y006778D01*
X008931Y006441D01*
X008728Y006441D01*
X006303Y006228D02*
X006303Y005923D01*
X006299Y005928D01*
X006303Y006228D02*
X006253Y006278D01*
X005853Y006278D01*
X004620Y005161D02*
X004253Y005528D01*
X004620Y005161D02*
X004993Y005161D01*
X004993Y004906D02*
X004326Y004906D01*
X004203Y005028D01*
X003303Y005078D02*
X002653Y004428D01*
X002653Y003978D01*
X002553Y003878D01*
X002118Y003878D01*
X002114Y003882D01*
X003148Y003072D02*
X003446Y003370D01*
X004993Y003370D01*
X004979Y003128D02*
X004993Y003114D01*
X004979Y003128D02*
X003503Y003128D01*
X003403Y003028D01*
X003403Y002271D01*
X003148Y002271D02*
X003148Y003072D01*
X005853Y004078D02*
X006249Y004078D01*
X006303Y004032D01*
X003303Y005078D02*
X003303Y006328D01*
X004905Y007930D01*
X004905Y008908D01*
X002905Y008908D02*
X002603Y008606D01*
X002603Y006778D01*
X002317Y006441D01*
X002114Y006441D01*
X002114Y006185D02*
X001746Y006185D01*
X001653Y006278D01*
X001653Y007278D01*
X001603Y007328D01*
X001338Y007428D01*
X000669Y007428D02*
X000669Y008671D01*
X000905Y008908D01*
X003103Y006978D02*
X003303Y007178D01*
X003103Y006978D02*
X003103Y005678D01*
X002843Y005417D01*
X002114Y005417D01*
X015342Y005417D02*
X016072Y005417D01*
X016332Y005678D01*
X016332Y006978D01*
X016532Y007178D01*
M02*
