G75*
%MOIN*%
%OFA0B0*%
%FSLAX24Y24*%
%IPPOS*%
%LPD*%
%AMOC8*
5,1,8,0,0,1.08239X$1,22.5*
%
%ADD10C,0.0740*%
%ADD11R,0.0740X0.0740*%
%ADD12C,0.0740*%
%ADD13C,0.0140*%
%ADD14C,0.0400*%
%ADD15C,0.0160*%
%ADD16C,0.0120*%
D10*
X000905Y008538D02*
X000905Y009278D01*
X001905Y009278D02*
X001905Y008538D01*
X002905Y008538D02*
X002905Y009278D01*
X003905Y009278D02*
X003905Y008538D01*
X004905Y008538D02*
X004905Y009278D01*
X005905Y009278D02*
X005905Y008538D01*
X007520Y008538D02*
X007520Y009278D01*
X008520Y009278D02*
X008520Y008538D01*
X009520Y008538D02*
X009520Y009278D01*
X010520Y009278D02*
X010520Y008538D01*
X011520Y008538D02*
X011520Y009278D01*
X012520Y009278D02*
X012520Y008538D01*
X014134Y008538D02*
X014134Y009278D01*
X015134Y009278D02*
X015134Y008538D01*
X016134Y008538D02*
X016134Y009278D01*
X017134Y009278D02*
X017134Y008538D01*
X018134Y008538D02*
X018134Y009278D01*
X019134Y009278D02*
X019134Y008538D01*
D11*
X014003Y004154D03*
X007389Y004154D03*
X000774Y004154D03*
D12*
X000774Y001154D03*
X000774Y002154D03*
X000774Y003154D03*
X007389Y003154D03*
X007389Y002154D03*
X007389Y001154D03*
X014003Y001154D03*
X014003Y002154D03*
X014003Y003154D03*
D13*
X014384Y003536D02*
X015682Y003536D01*
X015682Y003431D02*
X015654Y003404D01*
X014484Y003404D01*
X014460Y003459D01*
X014309Y003611D01*
X014303Y003614D01*
X014443Y003614D01*
X014543Y003713D01*
X014543Y004594D01*
X014443Y004694D01*
X013627Y004694D01*
X013627Y008351D01*
X013676Y008232D01*
X013828Y008080D01*
X014026Y007998D01*
X014241Y007998D01*
X014440Y008080D01*
X014592Y008232D01*
X014634Y008334D01*
X014676Y008232D01*
X014828Y008080D01*
X014902Y008049D01*
X014902Y007182D01*
X015002Y007082D01*
X015137Y006948D01*
X016239Y006948D01*
X016322Y006864D01*
X016458Y006808D01*
X016605Y006808D01*
X016741Y006864D01*
X016846Y006968D01*
X016902Y007104D01*
X016902Y007251D01*
X016846Y007387D01*
X016741Y007491D01*
X016605Y007548D01*
X016458Y007548D01*
X016322Y007491D01*
X016239Y007408D01*
X015362Y007408D01*
X015362Y008048D01*
X015440Y008080D01*
X015592Y008232D01*
X015634Y008334D01*
X015676Y008232D01*
X015828Y008080D01*
X016026Y007998D01*
X016241Y007998D01*
X016440Y008080D01*
X016592Y008232D01*
X016634Y008334D01*
X016676Y008232D01*
X016828Y008080D01*
X017026Y007998D01*
X017241Y007998D01*
X017440Y008080D01*
X017592Y008232D01*
X017634Y008334D01*
X017676Y008232D01*
X017828Y008080D01*
X018026Y007998D01*
X018241Y007998D01*
X018440Y008080D01*
X018592Y008232D01*
X018633Y008332D01*
X018633Y008331D01*
X018672Y008255D01*
X018722Y008186D01*
X018782Y008126D01*
X018851Y008076D01*
X018927Y008037D01*
X019007Y008011D01*
X019091Y007998D01*
X019094Y007998D01*
X019094Y008868D01*
X019174Y008868D01*
X019174Y007998D01*
X019176Y007998D01*
X019260Y008011D01*
X019341Y008037D01*
X019417Y008076D01*
X019486Y008126D01*
X019546Y008186D01*
X019596Y008255D01*
X019634Y008331D01*
X019637Y008339D01*
X019637Y001664D01*
X019555Y001698D01*
X019408Y001698D01*
X019272Y001641D01*
X019168Y001537D01*
X019113Y001404D01*
X014484Y001404D01*
X014460Y001459D01*
X014309Y001611D01*
X014207Y001654D01*
X014309Y001696D01*
X014460Y001848D01*
X014543Y002046D01*
X014543Y002261D01*
X014460Y002459D01*
X014309Y002611D01*
X014207Y002654D01*
X014309Y002696D01*
X014460Y002848D01*
X014484Y002904D01*
X015808Y002904D01*
X015899Y002942D01*
X016073Y003116D01*
X016144Y003186D01*
X016182Y003278D01*
X016182Y005604D01*
X016246Y005668D01*
X016302Y005804D01*
X016302Y005951D01*
X016246Y006087D01*
X016141Y006191D01*
X016005Y006248D01*
X015858Y006248D01*
X015722Y006191D01*
X015618Y006087D01*
X015562Y005951D01*
X015562Y005804D01*
X015618Y005668D01*
X015682Y005604D01*
X015682Y003431D01*
X015682Y003675D02*
X014504Y003675D01*
X014543Y003813D02*
X015682Y003813D01*
X015682Y003952D02*
X014543Y003952D01*
X014543Y004090D02*
X015682Y004090D01*
X015682Y004229D02*
X014543Y004229D01*
X014543Y004367D02*
X015682Y004367D01*
X015682Y004506D02*
X014543Y004506D01*
X014493Y004644D02*
X015682Y004644D01*
X015682Y004783D02*
X013627Y004783D01*
X013627Y004921D02*
X015682Y004921D01*
X015682Y005060D02*
X013627Y005060D01*
X013627Y005198D02*
X015682Y005198D01*
X015682Y005337D02*
X013627Y005337D01*
X013627Y005475D02*
X015682Y005475D01*
X015673Y005614D02*
X013627Y005614D01*
X013627Y005752D02*
X015583Y005752D01*
X015562Y005891D02*
X013627Y005891D01*
X013627Y006029D02*
X015594Y006029D01*
X015699Y006168D02*
X013627Y006168D01*
X013627Y006306D02*
X018712Y006306D01*
X018712Y006351D02*
X018712Y006233D01*
X018702Y006223D01*
X018702Y005391D01*
X017943Y005391D01*
X017852Y005483D01*
X017852Y005601D01*
X017796Y005737D01*
X017691Y005841D01*
X017555Y005898D01*
X017408Y005898D01*
X017272Y005841D01*
X017168Y005737D01*
X017112Y005601D01*
X017112Y005454D01*
X017168Y005318D01*
X017184Y005303D01*
X017118Y005237D01*
X017062Y005101D01*
X017062Y004954D01*
X017118Y004818D01*
X017222Y004714D01*
X017358Y004658D01*
X017505Y004658D01*
X017549Y004676D01*
X018702Y004676D01*
X018702Y004132D01*
X018712Y004122D01*
X018712Y004004D01*
X018768Y003868D01*
X018872Y003764D01*
X019008Y003708D01*
X019155Y003708D01*
X019291Y003764D01*
X019396Y003868D01*
X019452Y004004D01*
X019452Y004151D01*
X019396Y004287D01*
X019291Y004391D01*
X019162Y004445D01*
X019162Y004923D01*
X019057Y005028D01*
X019096Y005066D01*
X019162Y005132D01*
X019162Y005910D01*
X019291Y005964D01*
X019396Y006068D01*
X019452Y006204D01*
X019452Y006351D01*
X019396Y006487D01*
X019291Y006591D01*
X019155Y006648D01*
X019008Y006648D01*
X018872Y006591D01*
X018768Y006487D01*
X018712Y006351D01*
X018751Y006445D02*
X013627Y006445D01*
X013627Y006583D02*
X018864Y006583D01*
X019300Y006583D02*
X019637Y006583D01*
X019637Y006445D02*
X019413Y006445D01*
X019452Y006306D02*
X019637Y006306D01*
X019637Y006168D02*
X019437Y006168D01*
X019357Y006029D02*
X019637Y006029D01*
X019637Y005891D02*
X019162Y005891D01*
X019162Y005752D02*
X019637Y005752D01*
X019637Y005614D02*
X019162Y005614D01*
X019162Y005475D02*
X019637Y005475D01*
X019637Y005337D02*
X019162Y005337D01*
X019162Y005198D02*
X019637Y005198D01*
X019637Y005060D02*
X019089Y005060D01*
X019162Y004921D02*
X019637Y004921D01*
X019637Y004783D02*
X019162Y004783D01*
X019162Y004644D02*
X019637Y004644D01*
X019637Y004506D02*
X019162Y004506D01*
X019316Y004367D02*
X019637Y004367D01*
X019637Y004229D02*
X019420Y004229D01*
X019452Y004090D02*
X019637Y004090D01*
X019637Y003952D02*
X019430Y003952D01*
X019341Y003813D02*
X019637Y003813D01*
X019637Y003675D02*
X016182Y003675D01*
X016182Y003536D02*
X019637Y003536D01*
X019637Y003398D02*
X016182Y003398D01*
X016174Y003259D02*
X019637Y003259D01*
X019637Y003121D02*
X016078Y003121D01*
X015940Y002982D02*
X019637Y002982D01*
X019637Y002844D02*
X014456Y002844D01*
X014318Y002705D02*
X019637Y002705D01*
X019637Y002567D02*
X014353Y002567D01*
X014473Y002428D02*
X019637Y002428D01*
X019637Y002290D02*
X014531Y002290D01*
X014543Y002151D02*
X019637Y002151D01*
X019637Y002013D02*
X014529Y002013D01*
X014471Y001874D02*
X019637Y001874D01*
X019637Y001736D02*
X014348Y001736D01*
X014323Y001597D02*
X019228Y001597D01*
X019136Y001459D02*
X014461Y001459D01*
X013023Y001664D02*
X012941Y001698D01*
X012794Y001698D01*
X012658Y001641D01*
X012554Y001537D01*
X012499Y001404D01*
X007869Y001404D01*
X007846Y001459D01*
X007694Y001611D01*
X007593Y001654D01*
X007694Y001696D01*
X007846Y001848D01*
X007929Y002046D01*
X007929Y002261D01*
X007846Y002459D01*
X007694Y002611D01*
X007593Y002654D01*
X007694Y002696D01*
X007846Y002848D01*
X007869Y002904D01*
X009193Y002904D01*
X009285Y002942D01*
X009459Y003116D01*
X009530Y003186D01*
X009568Y003278D01*
X009568Y005604D01*
X009631Y005668D01*
X009688Y005804D01*
X009688Y005951D01*
X009631Y006087D01*
X009527Y006191D01*
X009391Y006248D01*
X009244Y006248D01*
X009108Y006191D01*
X009004Y006087D01*
X008948Y005951D01*
X008948Y005804D01*
X009004Y005668D01*
X009068Y005604D01*
X009068Y003431D01*
X009040Y003404D01*
X007869Y003404D01*
X007846Y003459D01*
X007694Y003611D01*
X007689Y003614D01*
X007829Y003614D01*
X007929Y003713D01*
X007929Y004594D01*
X007829Y004694D01*
X007013Y004694D01*
X007013Y008351D01*
X007062Y008232D01*
X007214Y008080D01*
X007412Y007998D01*
X007627Y007998D01*
X007826Y008080D01*
X007977Y008232D01*
X008020Y008334D01*
X008062Y008232D01*
X008214Y008080D01*
X008288Y008049D01*
X008288Y007182D01*
X008422Y007048D01*
X008522Y006948D01*
X009624Y006948D01*
X009708Y006864D01*
X009844Y006808D01*
X009991Y006808D01*
X010127Y006864D01*
X010231Y006968D01*
X010288Y007104D01*
X010288Y007251D01*
X010231Y007387D01*
X010127Y007491D01*
X009991Y007548D01*
X009844Y007548D01*
X009708Y007491D01*
X009624Y007408D01*
X008748Y007408D01*
X008748Y008048D01*
X008826Y008080D01*
X008977Y008232D01*
X009020Y008334D01*
X009062Y008232D01*
X009214Y008080D01*
X009412Y007998D01*
X009627Y007998D01*
X009826Y008080D01*
X009977Y008232D01*
X010020Y008334D01*
X010062Y008232D01*
X010214Y008080D01*
X010412Y007998D01*
X010627Y007998D01*
X010826Y008080D01*
X010977Y008232D01*
X011020Y008334D01*
X011062Y008232D01*
X011214Y008080D01*
X011412Y007998D01*
X011627Y007998D01*
X011826Y008080D01*
X011977Y008232D01*
X012019Y008332D01*
X012019Y008331D01*
X012058Y008255D01*
X012108Y008186D01*
X012168Y008126D01*
X012237Y008076D01*
X012312Y008037D01*
X012393Y008011D01*
X012477Y007998D01*
X012480Y007998D01*
X012480Y008868D01*
X012560Y008868D01*
X012560Y007998D01*
X012562Y007998D01*
X012646Y008011D01*
X012727Y008037D01*
X012803Y008076D01*
X012871Y008126D01*
X012932Y008186D01*
X012981Y008255D01*
X013020Y008331D01*
X013023Y008339D01*
X013023Y001664D01*
X013023Y001736D02*
X007734Y001736D01*
X007857Y001874D02*
X013023Y001874D01*
X013023Y002013D02*
X007915Y002013D01*
X007929Y002151D02*
X013023Y002151D01*
X013023Y002290D02*
X007917Y002290D01*
X007859Y002428D02*
X013023Y002428D01*
X013023Y002567D02*
X007739Y002567D01*
X007704Y002705D02*
X013023Y002705D01*
X013023Y002844D02*
X007842Y002844D01*
X007770Y003536D02*
X009068Y003536D01*
X009068Y003675D02*
X007890Y003675D01*
X007929Y003813D02*
X009068Y003813D01*
X009068Y003952D02*
X007929Y003952D01*
X007929Y004090D02*
X009068Y004090D01*
X009068Y004229D02*
X007929Y004229D01*
X007929Y004367D02*
X009068Y004367D01*
X009068Y004506D02*
X007929Y004506D01*
X007878Y004644D02*
X009068Y004644D01*
X009068Y004783D02*
X007013Y004783D01*
X007013Y004921D02*
X009068Y004921D01*
X009068Y005060D02*
X007013Y005060D01*
X007013Y005198D02*
X009068Y005198D01*
X009068Y005337D02*
X007013Y005337D01*
X007013Y005475D02*
X009068Y005475D01*
X009058Y005614D02*
X007013Y005614D01*
X007013Y005752D02*
X008969Y005752D01*
X008948Y005891D02*
X007013Y005891D01*
X007013Y006029D02*
X008980Y006029D01*
X009084Y006168D02*
X007013Y006168D01*
X007013Y006306D02*
X012098Y006306D01*
X012098Y006351D02*
X012098Y006233D01*
X012088Y006223D01*
X012088Y005391D01*
X011329Y005391D01*
X011238Y005483D01*
X011238Y005601D01*
X011181Y005737D01*
X011077Y005841D01*
X010941Y005898D01*
X010794Y005898D01*
X010658Y005841D01*
X010554Y005737D01*
X010498Y005601D01*
X010498Y005454D01*
X010554Y005318D01*
X010569Y005303D01*
X010504Y005237D01*
X010448Y005101D01*
X010448Y004954D01*
X010504Y004818D01*
X010608Y004714D01*
X010744Y004658D01*
X010891Y004658D01*
X010935Y004676D01*
X012088Y004676D01*
X012088Y004132D01*
X012098Y004122D01*
X012098Y004004D01*
X012154Y003868D01*
X012258Y003764D01*
X012394Y003708D01*
X012541Y003708D01*
X012677Y003764D01*
X012781Y003868D01*
X012838Y004004D01*
X012838Y004151D01*
X012781Y004287D01*
X012677Y004391D01*
X012548Y004445D01*
X012548Y004923D01*
X012443Y005028D01*
X012482Y005066D01*
X012548Y005132D01*
X012548Y005910D01*
X012677Y005964D01*
X012781Y006068D01*
X012838Y006204D01*
X012838Y006351D01*
X012781Y006487D01*
X012677Y006591D01*
X012541Y006648D01*
X012394Y006648D01*
X012258Y006591D01*
X012154Y006487D01*
X012098Y006351D01*
X012136Y006445D02*
X007013Y006445D01*
X007013Y006583D02*
X012250Y006583D01*
X012685Y006583D02*
X013023Y006583D01*
X013023Y006445D02*
X012799Y006445D01*
X012838Y006306D02*
X013023Y006306D01*
X013023Y006168D02*
X012823Y006168D01*
X012742Y006029D02*
X013023Y006029D01*
X013023Y005891D02*
X012548Y005891D01*
X012548Y005752D02*
X013023Y005752D01*
X013023Y005614D02*
X012548Y005614D01*
X012548Y005475D02*
X013023Y005475D01*
X013023Y005337D02*
X012548Y005337D01*
X012548Y005198D02*
X013023Y005198D01*
X013023Y005060D02*
X012475Y005060D01*
X012548Y004921D02*
X013023Y004921D01*
X013023Y004783D02*
X012548Y004783D01*
X012548Y004644D02*
X013023Y004644D01*
X013023Y004506D02*
X012548Y004506D01*
X012701Y004367D02*
X013023Y004367D01*
X013023Y004229D02*
X012806Y004229D01*
X012838Y004090D02*
X013023Y004090D01*
X013023Y003952D02*
X012816Y003952D01*
X012726Y003813D02*
X013023Y003813D01*
X013023Y003675D02*
X009568Y003675D01*
X009568Y003536D02*
X013023Y003536D01*
X013023Y003398D02*
X009568Y003398D01*
X009560Y003259D02*
X013023Y003259D01*
X013023Y003121D02*
X009464Y003121D01*
X009326Y002982D02*
X013023Y002982D01*
X012209Y003813D02*
X009568Y003813D01*
X009568Y003952D02*
X012119Y003952D01*
X012098Y004090D02*
X009568Y004090D01*
X009568Y004229D02*
X012088Y004229D01*
X012088Y004367D02*
X009568Y004367D01*
X009568Y004506D02*
X012088Y004506D01*
X012088Y004644D02*
X009568Y004644D01*
X009568Y004783D02*
X010539Y004783D01*
X010461Y004921D02*
X009568Y004921D01*
X009568Y005060D02*
X010448Y005060D01*
X010488Y005198D02*
X009568Y005198D01*
X009568Y005337D02*
X010546Y005337D01*
X010498Y005475D02*
X009568Y005475D01*
X009577Y005614D02*
X010503Y005614D01*
X010569Y005752D02*
X009666Y005752D01*
X009688Y005891D02*
X010777Y005891D01*
X010958Y005891D02*
X012088Y005891D01*
X012088Y006029D02*
X009655Y006029D01*
X009551Y006168D02*
X012088Y006168D01*
X012088Y005752D02*
X011166Y005752D01*
X011233Y005614D02*
X012088Y005614D01*
X012088Y005475D02*
X011245Y005475D01*
X013023Y006722D02*
X007013Y006722D01*
X007013Y006860D02*
X009717Y006860D01*
X010118Y006860D02*
X013023Y006860D01*
X013023Y006999D02*
X010244Y006999D01*
X010288Y007137D02*
X013023Y007137D01*
X013023Y007276D02*
X010278Y007276D01*
X010204Y007414D02*
X013023Y007414D01*
X013023Y007553D02*
X008748Y007553D01*
X008748Y007691D02*
X013023Y007691D01*
X013023Y007830D02*
X008748Y007830D01*
X008748Y007968D02*
X013023Y007968D01*
X013023Y008107D02*
X012845Y008107D01*
X012560Y008107D02*
X012480Y008107D01*
X012480Y008245D02*
X012560Y008245D01*
X012560Y008384D02*
X012480Y008384D01*
X012480Y008522D02*
X012560Y008522D01*
X012560Y008661D02*
X012480Y008661D01*
X012480Y008799D02*
X012560Y008799D01*
X012560Y008948D02*
X012480Y008948D01*
X012480Y009818D01*
X012477Y009818D01*
X012393Y009805D01*
X012312Y009778D01*
X012237Y009740D01*
X012168Y009690D01*
X012108Y009630D01*
X011931Y009630D01*
X011977Y009584D02*
X011826Y009736D01*
X011627Y009818D01*
X011412Y009818D01*
X011214Y009736D01*
X011062Y009584D01*
X011020Y009482D01*
X010977Y009584D01*
X010826Y009736D01*
X010627Y009818D01*
X010412Y009818D01*
X010214Y009736D01*
X010062Y009584D01*
X010020Y009482D01*
X009977Y009584D01*
X009826Y009736D01*
X009627Y009818D01*
X009412Y009818D01*
X009214Y009736D01*
X009062Y009584D01*
X009020Y009482D01*
X008977Y009584D01*
X008826Y009736D01*
X008627Y009818D01*
X008412Y009818D01*
X008214Y009736D01*
X008062Y009584D01*
X008020Y009482D01*
X007977Y009584D01*
X007826Y009736D01*
X007627Y009818D01*
X007412Y009818D01*
X007214Y009736D01*
X007062Y009584D01*
X007013Y009465D01*
X007013Y010483D01*
X013023Y010483D01*
X013023Y009477D01*
X013020Y009485D01*
X012981Y009561D01*
X012932Y009630D01*
X012871Y009690D01*
X012803Y009740D01*
X012727Y009778D01*
X012646Y009805D01*
X012562Y009818D01*
X012560Y009818D01*
X012560Y008948D01*
X012560Y009076D02*
X012480Y009076D01*
X012480Y009215D02*
X012560Y009215D01*
X012560Y009353D02*
X012480Y009353D01*
X012480Y009492D02*
X012560Y009492D01*
X012560Y009630D02*
X012480Y009630D01*
X012480Y009769D02*
X012560Y009769D01*
X012746Y009769D02*
X013023Y009769D01*
X013023Y009907D02*
X007013Y009907D01*
X007013Y009769D02*
X007293Y009769D01*
X007108Y009630D02*
X007013Y009630D01*
X007013Y009492D02*
X007024Y009492D01*
X006408Y009492D02*
X006403Y009492D01*
X006406Y009485D02*
X006367Y009561D01*
X006317Y009630D01*
X006408Y009630D01*
X006317Y009630D02*
X006257Y009690D01*
X006188Y009740D01*
X006113Y009778D01*
X006032Y009805D01*
X005948Y009818D01*
X005945Y009818D01*
X005945Y008948D01*
X005865Y008948D01*
X005865Y009818D01*
X005863Y009818D01*
X005779Y009805D01*
X005698Y009778D01*
X005622Y009740D01*
X005554Y009690D01*
X005494Y009630D01*
X005317Y009630D01*
X005363Y009584D02*
X005211Y009736D01*
X005013Y009818D01*
X004798Y009818D01*
X004600Y009736D01*
X004448Y009584D01*
X004405Y009482D01*
X004363Y009584D01*
X004211Y009736D01*
X004013Y009818D01*
X003798Y009818D01*
X003600Y009736D01*
X003448Y009584D01*
X003405Y009482D01*
X003363Y009584D01*
X003211Y009736D01*
X003013Y009818D01*
X002798Y009818D01*
X002600Y009736D01*
X002448Y009584D01*
X002405Y009482D01*
X002363Y009584D01*
X002211Y009736D01*
X002013Y009818D01*
X001798Y009818D01*
X001600Y009736D01*
X001448Y009584D01*
X001405Y009482D01*
X001363Y009584D01*
X001211Y009736D01*
X001013Y009818D01*
X000798Y009818D01*
X000600Y009736D01*
X000448Y009584D01*
X000398Y009465D01*
X000398Y010483D01*
X006408Y010483D01*
X006408Y009477D01*
X006406Y009485D01*
X005945Y009492D02*
X005865Y009492D01*
X005865Y009630D02*
X005945Y009630D01*
X005945Y009769D02*
X005865Y009769D01*
X005679Y009769D02*
X005132Y009769D01*
X005363Y009584D02*
X005405Y009484D01*
X005405Y009485D01*
X005444Y009561D01*
X005494Y009630D01*
X005408Y009492D02*
X005401Y009492D01*
X005865Y009353D02*
X005945Y009353D01*
X005945Y009215D02*
X005865Y009215D01*
X005865Y009076D02*
X005945Y009076D01*
X005945Y008868D02*
X005945Y007998D01*
X005948Y007998D01*
X006032Y008011D01*
X006113Y008037D01*
X006188Y008076D01*
X006257Y008126D01*
X006317Y008186D01*
X006367Y008255D01*
X006406Y008331D01*
X006408Y008339D01*
X006408Y001664D01*
X006327Y001698D01*
X006180Y001698D01*
X006044Y001641D01*
X005940Y001537D01*
X005884Y001404D01*
X001255Y001404D01*
X001232Y001459D01*
X001080Y001611D01*
X000978Y001654D01*
X001080Y001696D01*
X001232Y001848D01*
X001314Y002046D01*
X001314Y002261D01*
X001232Y002459D01*
X001080Y002611D01*
X000978Y002654D01*
X001080Y002696D01*
X001232Y002848D01*
X001255Y002904D01*
X002579Y002904D01*
X002671Y002942D01*
X002845Y003116D01*
X002915Y003186D01*
X002953Y003278D01*
X002953Y005604D01*
X003017Y005668D01*
X003073Y005804D01*
X003073Y005951D01*
X003017Y006087D01*
X002913Y006191D01*
X002777Y006248D01*
X002630Y006248D01*
X002494Y006191D01*
X002390Y006087D01*
X002333Y005951D01*
X002333Y005804D01*
X002390Y005668D01*
X002453Y005604D01*
X002453Y003431D01*
X002426Y003404D01*
X001255Y003404D01*
X001232Y003459D01*
X001080Y003611D01*
X001075Y003614D01*
X001215Y003614D01*
X001314Y003713D01*
X001314Y004594D01*
X001215Y004694D01*
X000398Y004694D01*
X000398Y008351D01*
X000448Y008232D01*
X000600Y008080D01*
X000798Y007998D01*
X001013Y007998D01*
X001211Y008080D01*
X001363Y008232D01*
X001405Y008334D01*
X001448Y008232D01*
X001600Y008080D01*
X001673Y008049D01*
X001673Y007182D01*
X001808Y007048D01*
X001908Y006948D01*
X003010Y006948D01*
X003094Y006864D01*
X003230Y006808D01*
X003377Y006808D01*
X003513Y006864D01*
X003617Y006968D01*
X003673Y007104D01*
X003673Y007251D01*
X003617Y007387D01*
X003513Y007491D01*
X003377Y007548D01*
X003230Y007548D01*
X003094Y007491D01*
X003010Y007408D01*
X002133Y007408D01*
X002133Y008048D01*
X002211Y008080D01*
X002363Y008232D01*
X002405Y008334D01*
X002448Y008232D01*
X002600Y008080D01*
X002798Y007998D01*
X003013Y007998D01*
X003211Y008080D01*
X003363Y008232D01*
X003405Y008334D01*
X003448Y008232D01*
X003600Y008080D01*
X003798Y007998D01*
X004013Y007998D01*
X004211Y008080D01*
X004363Y008232D01*
X004405Y008334D01*
X004448Y008232D01*
X004600Y008080D01*
X004798Y007998D01*
X005013Y007998D01*
X005211Y008080D01*
X005363Y008232D01*
X005405Y008332D01*
X005405Y008331D01*
X005444Y008255D01*
X005494Y008186D01*
X005554Y008126D01*
X005622Y008076D01*
X005698Y008037D01*
X005779Y008011D01*
X005863Y007998D01*
X005865Y007998D01*
X005865Y008868D01*
X005945Y008868D01*
X005945Y008799D02*
X005865Y008799D01*
X005865Y008661D02*
X005945Y008661D01*
X005945Y008522D02*
X005865Y008522D01*
X005865Y008384D02*
X005945Y008384D01*
X005945Y008245D02*
X005865Y008245D01*
X005865Y008107D02*
X005945Y008107D01*
X006231Y008107D02*
X006408Y008107D01*
X006408Y007968D02*
X002133Y007968D01*
X002133Y007830D02*
X006408Y007830D01*
X006408Y007691D02*
X002133Y007691D01*
X002133Y007553D02*
X006408Y007553D01*
X006408Y007414D02*
X003590Y007414D01*
X003663Y007276D02*
X006408Y007276D01*
X006408Y007137D02*
X003673Y007137D01*
X003630Y006999D02*
X006408Y006999D01*
X006408Y006860D02*
X003504Y006860D01*
X003103Y006860D02*
X000398Y006860D01*
X000398Y006999D02*
X001857Y006999D01*
X001719Y007137D02*
X000398Y007137D01*
X000398Y007276D02*
X001673Y007276D01*
X001673Y007414D02*
X000398Y007414D01*
X000398Y007553D02*
X001673Y007553D01*
X001673Y007691D02*
X000398Y007691D01*
X000398Y007830D02*
X001673Y007830D01*
X001673Y007968D02*
X000398Y007968D01*
X000398Y008107D02*
X000573Y008107D01*
X000442Y008245D02*
X000398Y008245D01*
X001238Y008107D02*
X001573Y008107D01*
X001442Y008245D02*
X001369Y008245D01*
X002238Y008107D02*
X002573Y008107D01*
X002442Y008245D02*
X002369Y008245D01*
X003238Y008107D02*
X003573Y008107D01*
X003442Y008245D02*
X003369Y008245D01*
X004238Y008107D02*
X004573Y008107D01*
X004442Y008245D02*
X004369Y008245D01*
X005238Y008107D02*
X005580Y008107D01*
X005451Y008245D02*
X005369Y008245D01*
X006360Y008245D02*
X006408Y008245D01*
X007013Y008245D02*
X007056Y008245D01*
X007013Y008107D02*
X007187Y008107D01*
X007013Y007968D02*
X008288Y007968D01*
X008288Y007830D02*
X007013Y007830D01*
X007013Y007691D02*
X008288Y007691D01*
X008288Y007553D02*
X007013Y007553D01*
X007013Y007414D02*
X008288Y007414D01*
X008288Y007276D02*
X007013Y007276D01*
X007013Y007137D02*
X008333Y007137D01*
X008471Y006999D02*
X007013Y006999D01*
X006408Y006722D02*
X000398Y006722D01*
X000398Y006583D02*
X005636Y006583D01*
X005644Y006591D02*
X005540Y006487D01*
X005483Y006351D01*
X005483Y006233D01*
X005473Y006223D01*
X005473Y005391D01*
X004715Y005391D01*
X004623Y005483D01*
X004623Y005601D01*
X004567Y005737D01*
X004463Y005841D01*
X004327Y005898D01*
X004180Y005898D01*
X004044Y005841D01*
X003940Y005737D01*
X003883Y005601D01*
X003883Y005454D01*
X003940Y005318D01*
X003955Y005303D01*
X003890Y005237D01*
X003833Y005101D01*
X003833Y004954D01*
X003890Y004818D01*
X003994Y004714D01*
X004130Y004658D01*
X004277Y004658D01*
X004320Y004676D01*
X005473Y004676D01*
X005473Y004132D01*
X005483Y004122D01*
X005483Y004004D01*
X005540Y003868D01*
X005644Y003764D01*
X005780Y003708D01*
X005927Y003708D01*
X006063Y003764D01*
X006167Y003868D01*
X006223Y004004D01*
X006223Y004151D01*
X006167Y004287D01*
X006063Y004391D01*
X005933Y004445D01*
X005933Y004923D01*
X005829Y005028D01*
X005867Y005066D01*
X005933Y005132D01*
X005933Y005910D01*
X006063Y005964D01*
X006167Y006068D01*
X006223Y006204D01*
X006223Y006351D01*
X006167Y006487D01*
X006063Y006591D01*
X005927Y006648D01*
X005780Y006648D01*
X005644Y006591D01*
X005522Y006445D02*
X000398Y006445D01*
X000398Y006306D02*
X005483Y006306D01*
X005473Y006168D02*
X002937Y006168D01*
X003041Y006029D02*
X005473Y006029D01*
X005473Y005891D02*
X004344Y005891D01*
X004163Y005891D02*
X003073Y005891D01*
X003052Y005752D02*
X003955Y005752D01*
X003889Y005614D02*
X002963Y005614D01*
X002953Y005475D02*
X003883Y005475D01*
X003932Y005337D02*
X002953Y005337D01*
X002953Y005198D02*
X003874Y005198D01*
X003833Y005060D02*
X002953Y005060D01*
X002953Y004921D02*
X003847Y004921D01*
X003925Y004783D02*
X002953Y004783D01*
X002953Y004644D02*
X005473Y004644D01*
X005473Y004506D02*
X002953Y004506D01*
X002953Y004367D02*
X005473Y004367D01*
X005473Y004229D02*
X002953Y004229D01*
X002953Y004090D02*
X005483Y004090D01*
X005505Y003952D02*
X002953Y003952D01*
X002953Y003813D02*
X005595Y003813D01*
X006112Y003813D02*
X006408Y003813D01*
X006408Y003952D02*
X006202Y003952D01*
X006223Y004090D02*
X006408Y004090D01*
X006408Y004229D02*
X006191Y004229D01*
X006087Y004367D02*
X006408Y004367D01*
X006408Y004506D02*
X005933Y004506D01*
X005933Y004644D02*
X006408Y004644D01*
X006408Y004783D02*
X005933Y004783D01*
X005933Y004921D02*
X006408Y004921D01*
X006408Y005060D02*
X005861Y005060D01*
X005933Y005198D02*
X006408Y005198D01*
X006408Y005337D02*
X005933Y005337D01*
X005933Y005475D02*
X006408Y005475D01*
X006408Y005614D02*
X005933Y005614D01*
X005933Y005752D02*
X006408Y005752D01*
X006408Y005891D02*
X005933Y005891D01*
X006128Y006029D02*
X006408Y006029D01*
X006408Y006168D02*
X006208Y006168D01*
X006223Y006306D02*
X006408Y006306D01*
X006408Y006445D02*
X006185Y006445D01*
X006071Y006583D02*
X006408Y006583D01*
X005473Y005752D02*
X004552Y005752D01*
X004618Y005614D02*
X005473Y005614D01*
X005473Y005475D02*
X004631Y005475D01*
X002453Y005475D02*
X000398Y005475D01*
X000398Y005337D02*
X002453Y005337D01*
X002453Y005198D02*
X000398Y005198D01*
X000398Y005060D02*
X002453Y005060D01*
X002453Y004921D02*
X000398Y004921D01*
X000398Y004783D02*
X002453Y004783D01*
X002453Y004644D02*
X001264Y004644D01*
X001314Y004506D02*
X002453Y004506D01*
X002453Y004367D02*
X001314Y004367D01*
X001314Y004229D02*
X002453Y004229D01*
X002453Y004090D02*
X001314Y004090D01*
X001314Y003952D02*
X002453Y003952D01*
X002453Y003813D02*
X001314Y003813D01*
X001276Y003675D02*
X002453Y003675D01*
X002453Y003536D02*
X001156Y003536D01*
X001228Y002844D02*
X006408Y002844D01*
X006408Y002982D02*
X002712Y002982D01*
X002850Y003121D02*
X006408Y003121D01*
X006408Y003259D02*
X002946Y003259D01*
X002953Y003398D02*
X006408Y003398D01*
X006408Y003536D02*
X002953Y003536D01*
X002953Y003675D02*
X006408Y003675D01*
X006408Y002705D02*
X001090Y002705D01*
X001125Y002567D02*
X006408Y002567D01*
X006408Y002428D02*
X001245Y002428D01*
X001303Y002290D02*
X006408Y002290D01*
X006408Y002151D02*
X001314Y002151D01*
X001300Y002013D02*
X006408Y002013D01*
X006408Y001874D02*
X001243Y001874D01*
X001120Y001736D02*
X006408Y001736D01*
X006000Y001597D02*
X001095Y001597D01*
X001233Y001459D02*
X005907Y001459D01*
X007709Y001597D02*
X012614Y001597D01*
X012521Y001459D02*
X007847Y001459D01*
X002444Y005614D02*
X000398Y005614D01*
X000398Y005752D02*
X002355Y005752D01*
X002333Y005891D02*
X000398Y005891D01*
X000398Y006029D02*
X002366Y006029D01*
X002470Y006168D02*
X000398Y006168D01*
X002133Y007414D02*
X003017Y007414D01*
X003401Y009492D02*
X003409Y009492D01*
X003494Y009630D02*
X003317Y009630D01*
X003132Y009769D02*
X003679Y009769D01*
X004132Y009769D02*
X004679Y009769D01*
X004494Y009630D02*
X004317Y009630D01*
X004401Y009492D02*
X004409Y009492D01*
X002679Y009769D02*
X002132Y009769D01*
X002317Y009630D02*
X002494Y009630D01*
X002409Y009492D02*
X002401Y009492D01*
X001679Y009769D02*
X001132Y009769D01*
X001317Y009630D02*
X001494Y009630D01*
X001409Y009492D02*
X001401Y009492D01*
X000679Y009769D02*
X000398Y009769D01*
X000398Y009907D02*
X006408Y009907D01*
X006408Y009769D02*
X006132Y009769D01*
X006408Y010046D02*
X000398Y010046D01*
X000398Y010184D02*
X006408Y010184D01*
X006408Y010323D02*
X000398Y010323D01*
X000398Y010461D02*
X006408Y010461D01*
X007013Y010461D02*
X013023Y010461D01*
X013023Y010323D02*
X007013Y010323D01*
X007013Y010184D02*
X013023Y010184D01*
X013023Y010046D02*
X007013Y010046D01*
X007746Y009769D02*
X008293Y009769D01*
X008108Y009630D02*
X007931Y009630D01*
X008016Y009492D02*
X008024Y009492D01*
X008746Y009769D02*
X009293Y009769D01*
X009108Y009630D02*
X008931Y009630D01*
X009016Y009492D02*
X009024Y009492D01*
X009746Y009769D02*
X010293Y009769D01*
X010108Y009630D02*
X009931Y009630D01*
X010016Y009492D02*
X010024Y009492D01*
X010746Y009769D02*
X011293Y009769D01*
X011108Y009630D02*
X010931Y009630D01*
X011016Y009492D02*
X011024Y009492D01*
X011746Y009769D02*
X012293Y009769D01*
X012108Y009630D02*
X012058Y009561D01*
X012019Y009485D01*
X012019Y009484D01*
X011977Y009584D01*
X012016Y009492D02*
X012022Y009492D01*
X012931Y009630D02*
X013023Y009630D01*
X013017Y009492D02*
X013023Y009492D01*
X013627Y009492D02*
X013638Y009492D01*
X013627Y009465D02*
X013627Y010483D01*
X019637Y010483D01*
X019637Y009477D01*
X019634Y009485D01*
X019596Y009561D01*
X019546Y009630D01*
X019486Y009690D01*
X019417Y009740D01*
X019341Y009778D01*
X019260Y009805D01*
X019176Y009818D01*
X019174Y009818D01*
X019174Y008948D01*
X019094Y008948D01*
X019094Y009818D01*
X019091Y009818D01*
X019007Y009805D01*
X018927Y009778D01*
X018851Y009740D01*
X018782Y009690D01*
X018722Y009630D01*
X018545Y009630D01*
X018592Y009584D02*
X018440Y009736D01*
X018241Y009818D01*
X018026Y009818D01*
X017828Y009736D01*
X017676Y009584D01*
X017634Y009482D01*
X017592Y009584D01*
X017440Y009736D01*
X017241Y009818D01*
X017026Y009818D01*
X016828Y009736D01*
X016676Y009584D01*
X016634Y009482D01*
X016592Y009584D01*
X016440Y009736D01*
X016241Y009818D01*
X016026Y009818D01*
X015828Y009736D01*
X015676Y009584D01*
X015634Y009482D01*
X015592Y009584D01*
X015440Y009736D01*
X015241Y009818D01*
X015026Y009818D01*
X014828Y009736D01*
X014676Y009584D01*
X014634Y009482D01*
X014592Y009584D01*
X014440Y009736D01*
X014241Y009818D01*
X014026Y009818D01*
X013828Y009736D01*
X013676Y009584D01*
X013627Y009465D01*
X013627Y009630D02*
X013722Y009630D01*
X013627Y009769D02*
X013907Y009769D01*
X013627Y009907D02*
X019637Y009907D01*
X019637Y009769D02*
X019360Y009769D01*
X019174Y009769D02*
X019094Y009769D01*
X018907Y009769D02*
X018360Y009769D01*
X018592Y009584D02*
X018633Y009484D01*
X018633Y009485D01*
X018672Y009561D01*
X018722Y009630D01*
X018637Y009492D02*
X018630Y009492D01*
X019094Y009492D02*
X019174Y009492D01*
X019174Y009630D02*
X019094Y009630D01*
X019094Y009353D02*
X019174Y009353D01*
X019174Y009215D02*
X019094Y009215D01*
X019094Y009076D02*
X019174Y009076D01*
X019174Y008799D02*
X019094Y008799D01*
X019094Y008661D02*
X019174Y008661D01*
X019174Y008522D02*
X019094Y008522D01*
X019094Y008384D02*
X019174Y008384D01*
X019174Y008245D02*
X019094Y008245D01*
X019094Y008107D02*
X019174Y008107D01*
X019459Y008107D02*
X019637Y008107D01*
X019637Y007968D02*
X015362Y007968D01*
X015362Y007830D02*
X019637Y007830D01*
X019637Y007691D02*
X015362Y007691D01*
X015362Y007553D02*
X019637Y007553D01*
X019637Y007414D02*
X016819Y007414D01*
X016892Y007276D02*
X019637Y007276D01*
X019637Y007137D02*
X016902Y007137D01*
X016858Y006999D02*
X019637Y006999D01*
X019637Y006860D02*
X016732Y006860D01*
X016331Y006860D02*
X013627Y006860D01*
X013627Y006999D02*
X015086Y006999D01*
X015002Y007082D02*
X015002Y007082D01*
X014947Y007137D02*
X013627Y007137D01*
X013627Y007276D02*
X014902Y007276D01*
X014902Y007414D02*
X013627Y007414D01*
X013627Y007553D02*
X014902Y007553D01*
X014902Y007691D02*
X013627Y007691D01*
X013627Y007830D02*
X014902Y007830D01*
X014902Y007968D02*
X013627Y007968D01*
X013627Y008107D02*
X013801Y008107D01*
X013671Y008245D02*
X013627Y008245D01*
X013023Y008245D02*
X012974Y008245D01*
X012195Y008107D02*
X011852Y008107D01*
X011983Y008245D02*
X012065Y008245D01*
X011187Y008107D02*
X010852Y008107D01*
X010983Y008245D02*
X011056Y008245D01*
X010187Y008107D02*
X009852Y008107D01*
X009983Y008245D02*
X010056Y008245D01*
X009187Y008107D02*
X008852Y008107D01*
X008983Y008245D02*
X009056Y008245D01*
X008187Y008107D02*
X007852Y008107D01*
X007983Y008245D02*
X008056Y008245D01*
X008748Y007414D02*
X009631Y007414D01*
X013627Y006722D02*
X019637Y006722D01*
X018702Y006168D02*
X016165Y006168D01*
X016270Y006029D02*
X018702Y006029D01*
X018702Y005891D02*
X017572Y005891D01*
X017391Y005891D02*
X016302Y005891D01*
X016280Y005752D02*
X017183Y005752D01*
X017117Y005614D02*
X016191Y005614D01*
X016182Y005475D02*
X017112Y005475D01*
X017160Y005337D02*
X016182Y005337D01*
X016182Y005198D02*
X017102Y005198D01*
X017062Y005060D02*
X016182Y005060D01*
X016182Y004921D02*
X017075Y004921D01*
X017154Y004783D02*
X016182Y004783D01*
X016182Y004644D02*
X018702Y004644D01*
X018702Y004506D02*
X016182Y004506D01*
X016182Y004367D02*
X018702Y004367D01*
X018702Y004229D02*
X016182Y004229D01*
X016182Y004090D02*
X018712Y004090D01*
X018734Y003952D02*
X016182Y003952D01*
X016182Y003813D02*
X018823Y003813D01*
X018702Y005475D02*
X017860Y005475D01*
X017847Y005614D02*
X018702Y005614D01*
X018702Y005752D02*
X017781Y005752D01*
X016245Y007414D02*
X015362Y007414D01*
X015466Y008107D02*
X015801Y008107D01*
X015671Y008245D02*
X015597Y008245D01*
X014801Y008107D02*
X014466Y008107D01*
X014597Y008245D02*
X014671Y008245D01*
X016466Y008107D02*
X016801Y008107D01*
X016671Y008245D02*
X016597Y008245D01*
X017466Y008107D02*
X017801Y008107D01*
X017671Y008245D02*
X017597Y008245D01*
X018466Y008107D02*
X018809Y008107D01*
X018679Y008245D02*
X018597Y008245D01*
X019589Y008245D02*
X019637Y008245D01*
X019631Y009492D02*
X019637Y009492D01*
X019637Y009630D02*
X019545Y009630D01*
X019637Y010046D02*
X013627Y010046D01*
X013627Y010184D02*
X019637Y010184D01*
X019637Y010323D02*
X013627Y010323D01*
X013627Y010461D02*
X019637Y010461D01*
X017907Y009769D02*
X017360Y009769D01*
X017545Y009630D02*
X017722Y009630D01*
X017638Y009492D02*
X017630Y009492D01*
X016907Y009769D02*
X016360Y009769D01*
X016545Y009630D02*
X016722Y009630D01*
X016638Y009492D02*
X016630Y009492D01*
X015907Y009769D02*
X015360Y009769D01*
X015545Y009630D02*
X015722Y009630D01*
X015638Y009492D02*
X015630Y009492D01*
X014907Y009769D02*
X014360Y009769D01*
X014545Y009630D02*
X014722Y009630D01*
X014638Y009492D02*
X014630Y009492D01*
X000494Y009630D02*
X000398Y009630D01*
X000398Y009492D02*
X000409Y009492D01*
D14*
X003303Y007178D03*
X002703Y005878D03*
X004253Y005528D03*
X004203Y005028D03*
X005853Y004078D03*
X004303Y003828D03*
X001553Y004528D03*
X005853Y006278D03*
X008168Y004528D03*
X009318Y005878D03*
X010868Y005528D03*
X010818Y005028D03*
X012468Y004078D03*
X010918Y003828D03*
X014782Y004528D03*
X015932Y005878D03*
X017482Y005528D03*
X017432Y005028D03*
X019082Y004078D03*
X017532Y003828D03*
X018982Y001628D03*
X019482Y001328D03*
X012868Y001328D03*
X012368Y001628D03*
X006253Y001328D03*
X005753Y001628D03*
X012468Y006278D03*
X009918Y007178D03*
X016532Y007178D03*
X019082Y006278D03*
D15*
X015932Y005878D02*
X015932Y003328D01*
X015758Y003154D01*
X014003Y003154D01*
X012868Y001328D02*
X012694Y001154D01*
X007389Y001154D01*
X006253Y001328D02*
X006079Y001154D01*
X000774Y001154D01*
X000774Y003154D02*
X002529Y003154D01*
X002703Y003328D01*
X002703Y005878D01*
X007389Y003154D02*
X009144Y003154D01*
X009318Y003328D01*
X009318Y005878D01*
X014003Y001154D02*
X019308Y001154D01*
X019482Y001328D01*
D16*
X019082Y004078D02*
X018932Y004228D01*
X018932Y004828D01*
X018854Y004906D01*
X017554Y004906D01*
X017432Y005028D01*
X017848Y005161D02*
X017482Y005528D01*
X017848Y005161D02*
X018866Y005161D01*
X018932Y005228D01*
X018932Y006128D01*
X019082Y006278D01*
X016532Y007178D02*
X015232Y007178D01*
X015132Y007278D01*
X015132Y008906D01*
X015134Y008908D01*
X012468Y006278D02*
X012318Y006128D01*
X012318Y005228D01*
X012252Y005161D01*
X011234Y005161D01*
X010868Y005528D01*
X010818Y005028D02*
X010940Y004906D01*
X012240Y004906D01*
X012318Y004828D01*
X012318Y004228D01*
X012468Y004078D01*
X009918Y007178D02*
X008618Y007178D01*
X008518Y007278D01*
X008518Y008906D01*
X008520Y008908D01*
X005853Y006278D02*
X005703Y006128D01*
X005703Y005228D01*
X005637Y005161D01*
X004620Y005161D01*
X004253Y005528D01*
X004203Y005028D02*
X004326Y004906D01*
X005626Y004906D01*
X005703Y004828D01*
X005703Y004228D01*
X005853Y004078D01*
X003303Y007178D02*
X002003Y007178D01*
X001903Y007278D01*
X001903Y008906D01*
X001905Y008908D01*
M02*
