G75*
G70*
%OFA0B0*%
%FSLAX24Y24*%
%IPPOS*%
%LPD*%
%AMOC8*
5,1,8,0,0,1.08239X$1,22.5*
%
%ADD10C,0.0000*%
%ADD11R,0.0550X0.0137*%
%ADD12R,0.0472X0.0315*%
%ADD13R,0.0315X0.0315*%
%ADD14C,0.0740*%
%ADD15R,0.0250X0.0500*%
%ADD16R,0.0740X0.0740*%
%ADD17C,0.0740*%
%ADD18C,0.0400*%
%ADD19C,0.0100*%
D10*
X000100Y000100D02*
X000100Y006500D01*
X010100Y006500D01*
X010100Y000100D01*
X000100Y000100D01*
D11*
X004161Y002037D03*
X004161Y002293D03*
X004161Y002548D03*
X004161Y002804D03*
X004161Y003060D03*
X004161Y003316D03*
X004161Y003572D03*
X004161Y003828D03*
X004161Y004084D03*
X004161Y004340D03*
X004161Y004596D03*
X004161Y004852D03*
X004161Y005107D03*
X004161Y005363D03*
X007039Y005363D03*
X007039Y005107D03*
X007039Y004852D03*
X007039Y004596D03*
X007039Y004340D03*
X007039Y004084D03*
X007039Y003828D03*
X007039Y003572D03*
X007039Y003316D03*
X007039Y003060D03*
X007039Y002804D03*
X007039Y002548D03*
X007039Y002293D03*
X007039Y002037D03*
D12*
X008900Y001746D03*
X008900Y002454D03*
X008900Y002946D03*
X008900Y003654D03*
X008900Y004146D03*
X008900Y004854D03*
D13*
X008000Y004695D03*
X008000Y004105D03*
X008000Y003495D03*
X008000Y002905D03*
D14*
X003170Y002800D02*
X002430Y002800D01*
X002430Y001800D02*
X003170Y001800D01*
X003170Y000800D02*
X002430Y000800D01*
X002430Y003800D02*
X003170Y003800D01*
X003170Y004800D02*
X002430Y004800D01*
X002430Y005800D02*
X003170Y005800D01*
D15*
X004733Y001254D03*
X005067Y001254D03*
X005067Y000546D03*
X004733Y000546D03*
D16*
X006400Y000700D03*
D17*
X007400Y000700D03*
X008400Y000700D03*
X009400Y000700D03*
D18*
X007800Y001600D03*
X008100Y002400D03*
X006600Y001500D03*
X004900Y002500D03*
X005900Y003400D03*
X006400Y003900D03*
X005500Y004600D03*
X005200Y005000D03*
X008200Y005300D03*
X008500Y005700D03*
X006400Y002900D03*
X004300Y001500D03*
D19*
X004500Y001500D01*
X004700Y001300D01*
X004733Y001254D01*
X005000Y001300D02*
X005067Y001254D01*
X005000Y001300D02*
X005000Y001600D01*
X004900Y001700D01*
X004900Y002500D01*
X004161Y002804D02*
X004100Y002800D01*
X003800Y002800D01*
X003700Y002700D01*
X003700Y002600D01*
X002900Y001800D01*
X002800Y001800D01*
X002800Y000800D02*
X003000Y000600D01*
X004700Y000600D01*
X004733Y000546D01*
X004800Y000600D01*
X005000Y000600D01*
X005067Y000546D01*
X005100Y000600D01*
X005400Y000900D01*
X005400Y003800D01*
X004200Y003800D01*
X004161Y003828D01*
X004100Y004300D02*
X004161Y004340D01*
X004100Y004300D02*
X003300Y004300D01*
X002800Y004800D01*
X003600Y005100D02*
X002900Y005800D01*
X002800Y005800D01*
X003600Y005100D02*
X004100Y005100D01*
X004161Y005107D01*
X004161Y005363D02*
X004437Y005363D01*
X005200Y005000D01*
X005500Y004600D02*
X004200Y004600D01*
X004161Y004596D01*
X005400Y003800D02*
X005900Y003800D01*
X006200Y004100D01*
X006400Y003900D01*
X006700Y003600D01*
X007000Y003600D01*
X007039Y003572D01*
X007100Y003600D01*
X007300Y003600D01*
X007500Y003400D01*
X007500Y002900D01*
X007400Y002800D01*
X007100Y002800D01*
X007039Y002804D01*
X007000Y002600D02*
X006700Y002600D01*
X006200Y002100D01*
X006200Y000900D01*
X006400Y000700D01*
X006600Y001500D02*
X007200Y001500D01*
X007700Y002000D01*
X008200Y002000D01*
X008600Y002400D01*
X008900Y002400D01*
X008900Y002454D01*
X009200Y002100D02*
X009300Y002200D01*
X009300Y003200D01*
X009200Y003300D01*
X008600Y003300D01*
X008500Y003200D01*
X007700Y003200D01*
X007700Y002600D01*
X007400Y002300D01*
X007100Y002300D01*
X007039Y002293D01*
X007039Y002548D02*
X007000Y002600D01*
X006700Y002600D02*
X006400Y002900D01*
X006000Y003300D02*
X005900Y003400D01*
X006000Y003300D02*
X007000Y003300D01*
X007039Y003316D01*
X007400Y003800D02*
X007700Y003500D01*
X008000Y003500D01*
X008000Y003495D01*
X007400Y003800D02*
X007100Y003800D01*
X007039Y003828D01*
X007039Y004084D02*
X007100Y004100D01*
X007400Y004100D01*
X007700Y004400D01*
X007800Y004400D01*
X008000Y004600D01*
X008000Y004695D01*
X008000Y004200D02*
X008000Y004105D01*
X008000Y004200D02*
X008300Y004200D01*
X008900Y004800D01*
X008900Y004854D01*
X009300Y005100D02*
X009300Y003500D01*
X009200Y003600D01*
X008900Y003600D01*
X008900Y003654D01*
X008900Y004146D01*
X009300Y003500D02*
X009500Y003300D01*
X009500Y000800D01*
X009400Y000700D01*
X008900Y001200D02*
X008400Y000700D01*
X008900Y001200D02*
X008900Y001746D01*
X008600Y002100D02*
X008100Y001600D01*
X007800Y001600D01*
X007400Y002000D02*
X007800Y002400D01*
X008100Y002400D01*
X008600Y002100D02*
X009200Y002100D01*
X008900Y002900D02*
X008000Y002900D01*
X008000Y002905D01*
X008900Y002900D02*
X008900Y002946D01*
X007400Y002000D02*
X007100Y002000D01*
X007039Y002037D01*
X006200Y004100D02*
X006600Y004500D01*
X006600Y005500D01*
X006800Y005700D01*
X008500Y005700D01*
X008200Y005300D02*
X009100Y005300D01*
X009300Y005100D01*
X007100Y004800D02*
X007100Y004600D01*
X007039Y004596D01*
X007100Y004800D02*
X007039Y004852D01*
X007000Y004900D01*
X006600Y004500D01*
M02*
