G75*
%MOIN*%
%OFA0B0*%
%FSLAX24Y24*%
%IPPOS*%
%LPD*%
%AMOC8*
5,1,8,0,0,1.08239X$1,22.5*
%
%ADD10C,0.0820*%
%ADD11R,0.0820X0.0820*%
%ADD12C,0.0820*%
%ADD13R,0.0513X0.0474*%
%ADD14R,0.0474X0.0513*%
%ADD15R,0.0395X0.0395*%
%ADD16R,0.0217X0.0630*%
D10*
X002260Y000848D02*
X003000Y000848D01*
X003000Y001848D02*
X002260Y001848D01*
X002260Y002848D02*
X003000Y002848D01*
X003000Y003848D02*
X002260Y003848D01*
X002260Y004848D02*
X003000Y004848D01*
X003000Y005848D02*
X002260Y005848D01*
D11*
X006524Y000721D03*
D12*
X007524Y000721D03*
X008524Y000721D03*
X009524Y000721D03*
D13*
X005703Y000670D03*
X005034Y000670D03*
X005248Y005986D03*
X005918Y005986D03*
X006596Y005982D03*
X007265Y005982D03*
D14*
X009028Y002650D03*
X009028Y001981D03*
D15*
X009028Y003161D03*
X008596Y003161D03*
X008596Y003752D03*
X009028Y003752D03*
X005622Y001154D03*
X005032Y001154D03*
D16*
X004948Y002061D03*
X004693Y002061D03*
X004437Y002061D03*
X005204Y002061D03*
X005460Y002061D03*
X005716Y002061D03*
X005972Y002061D03*
X006228Y002061D03*
X006484Y002061D03*
X006740Y002061D03*
X006996Y002061D03*
X007252Y002061D03*
X007507Y002061D03*
X007763Y002061D03*
X007763Y004939D03*
X007507Y004939D03*
X007252Y004939D03*
X006996Y004939D03*
X006740Y004939D03*
X006484Y004939D03*
X006228Y004939D03*
X005972Y004939D03*
X005716Y004939D03*
X005460Y004939D03*
X005204Y004939D03*
X004948Y004939D03*
X004693Y004939D03*
X004437Y004939D03*
M02*
