G75*
%MOIN*%
%OFA0B0*%
%FSLAX24Y24*%
%IPPOS*%
%LPD*%
%AMOC8*
5,1,8,0,0,1.08239X$1,22.5*
%
%ADD10C,0.0740*%
%ADD11R,0.0740X0.0740*%
%ADD12C,0.0740*%
%ADD13C,0.0140*%
%ADD14C,0.0400*%
%ADD15C,0.0160*%
%ADD16C,0.0120*%
D10*
X000905Y008538D02*
X000905Y009278D01*
X001905Y009278D02*
X001905Y008538D01*
X002905Y008538D02*
X002905Y009278D01*
X003905Y009278D02*
X003905Y008538D01*
X004905Y008538D02*
X004905Y009278D01*
X005905Y009278D02*
X005905Y008538D01*
D11*
X000774Y004154D03*
D12*
X000774Y001154D03*
X000774Y002154D03*
X000774Y003154D03*
D13*
X001156Y003536D02*
X002453Y003536D01*
X002453Y003431D02*
X002426Y003404D01*
X001255Y003404D01*
X001232Y003459D01*
X001080Y003611D01*
X001075Y003614D01*
X001215Y003614D01*
X001314Y003713D01*
X001314Y004594D01*
X001215Y004694D01*
X000398Y004694D01*
X000398Y008351D01*
X000448Y008232D01*
X000600Y008080D01*
X000798Y007998D01*
X001013Y007998D01*
X001211Y008080D01*
X001363Y008232D01*
X001405Y008334D01*
X001448Y008232D01*
X001600Y008080D01*
X001673Y008049D01*
X001673Y007182D01*
X001808Y007048D01*
X001908Y006948D01*
X003010Y006948D01*
X003094Y006864D01*
X003230Y006808D01*
X003377Y006808D01*
X003513Y006864D01*
X003617Y006968D01*
X003673Y007104D01*
X003673Y007251D01*
X003617Y007387D01*
X003513Y007491D01*
X003377Y007548D01*
X003230Y007548D01*
X003094Y007491D01*
X003010Y007408D01*
X002133Y007408D01*
X002133Y008048D01*
X002211Y008080D01*
X002363Y008232D01*
X002405Y008334D01*
X002448Y008232D01*
X002600Y008080D01*
X002798Y007998D01*
X003013Y007998D01*
X003211Y008080D01*
X003363Y008232D01*
X003405Y008334D01*
X003448Y008232D01*
X003600Y008080D01*
X003798Y007998D01*
X004013Y007998D01*
X004211Y008080D01*
X004363Y008232D01*
X004405Y008334D01*
X004448Y008232D01*
X004600Y008080D01*
X004798Y007998D01*
X005013Y007998D01*
X005211Y008080D01*
X005363Y008232D01*
X005405Y008332D01*
X005405Y008331D01*
X005444Y008255D01*
X005494Y008186D01*
X005554Y008126D01*
X005622Y008076D01*
X005698Y008037D01*
X005779Y008011D01*
X005863Y007998D01*
X005865Y007998D01*
X005865Y008868D01*
X005945Y008868D01*
X005945Y007998D01*
X005948Y007998D01*
X006032Y008011D01*
X006113Y008037D01*
X006188Y008076D01*
X006257Y008126D01*
X006317Y008186D01*
X006367Y008255D01*
X006406Y008331D01*
X006408Y008339D01*
X006408Y001664D01*
X006327Y001698D01*
X006180Y001698D01*
X006044Y001641D01*
X005940Y001537D01*
X005884Y001404D01*
X001255Y001404D01*
X001232Y001459D01*
X001080Y001611D01*
X000978Y001654D01*
X001080Y001696D01*
X001232Y001848D01*
X001314Y002046D01*
X001314Y002261D01*
X001232Y002459D01*
X001080Y002611D01*
X000978Y002654D01*
X001080Y002696D01*
X001232Y002848D01*
X001255Y002904D01*
X002579Y002904D01*
X002671Y002942D01*
X002845Y003116D01*
X002915Y003186D01*
X002953Y003278D01*
X002953Y005604D01*
X003017Y005668D01*
X003073Y005804D01*
X003073Y005951D01*
X003017Y006087D01*
X002913Y006191D01*
X002777Y006248D01*
X002630Y006248D01*
X002494Y006191D01*
X002390Y006087D01*
X002333Y005951D01*
X002333Y005804D01*
X002390Y005668D01*
X002453Y005604D01*
X002453Y003431D01*
X002453Y003675D02*
X001276Y003675D01*
X001314Y003813D02*
X002453Y003813D01*
X002453Y003952D02*
X001314Y003952D01*
X001314Y004090D02*
X002453Y004090D01*
X002453Y004229D02*
X001314Y004229D01*
X001314Y004367D02*
X002453Y004367D01*
X002453Y004506D02*
X001314Y004506D01*
X001264Y004644D02*
X002453Y004644D01*
X002453Y004783D02*
X000398Y004783D01*
X000398Y004921D02*
X002453Y004921D01*
X002453Y005060D02*
X000398Y005060D01*
X000398Y005198D02*
X002453Y005198D01*
X002453Y005337D02*
X000398Y005337D01*
X000398Y005475D02*
X002453Y005475D01*
X002444Y005614D02*
X000398Y005614D01*
X000398Y005752D02*
X002355Y005752D01*
X002333Y005891D02*
X000398Y005891D01*
X000398Y006029D02*
X002366Y006029D01*
X002470Y006168D02*
X000398Y006168D01*
X000398Y006306D02*
X005483Y006306D01*
X005483Y006351D02*
X005483Y006233D01*
X005473Y006223D01*
X005473Y005391D01*
X004715Y005391D01*
X004623Y005483D01*
X004623Y005601D01*
X004567Y005737D01*
X004463Y005841D01*
X004327Y005898D01*
X004180Y005898D01*
X004044Y005841D01*
X003940Y005737D01*
X003883Y005601D01*
X003883Y005454D01*
X003940Y005318D01*
X003955Y005303D01*
X003890Y005237D01*
X003833Y005101D01*
X003833Y004954D01*
X003890Y004818D01*
X003994Y004714D01*
X004130Y004658D01*
X004277Y004658D01*
X004320Y004676D01*
X005473Y004676D01*
X005473Y004132D01*
X005483Y004122D01*
X005483Y004004D01*
X005540Y003868D01*
X005644Y003764D01*
X005780Y003708D01*
X005927Y003708D01*
X006063Y003764D01*
X006167Y003868D01*
X006223Y004004D01*
X006223Y004151D01*
X006167Y004287D01*
X006063Y004391D01*
X005933Y004445D01*
X005933Y004923D01*
X005829Y005028D01*
X005867Y005066D01*
X005933Y005132D01*
X005933Y005910D01*
X006063Y005964D01*
X006167Y006068D01*
X006223Y006204D01*
X006223Y006351D01*
X006167Y006487D01*
X006063Y006591D01*
X005927Y006648D01*
X005780Y006648D01*
X005644Y006591D01*
X005540Y006487D01*
X005483Y006351D01*
X005522Y006445D02*
X000398Y006445D01*
X000398Y006583D02*
X005636Y006583D01*
X006071Y006583D02*
X006408Y006583D01*
X006408Y006445D02*
X006185Y006445D01*
X006223Y006306D02*
X006408Y006306D01*
X006408Y006168D02*
X006208Y006168D01*
X006128Y006029D02*
X006408Y006029D01*
X006408Y005891D02*
X005933Y005891D01*
X005933Y005752D02*
X006408Y005752D01*
X006408Y005614D02*
X005933Y005614D01*
X005933Y005475D02*
X006408Y005475D01*
X006408Y005337D02*
X005933Y005337D01*
X005933Y005198D02*
X006408Y005198D01*
X006408Y005060D02*
X005861Y005060D01*
X005933Y004921D02*
X006408Y004921D01*
X006408Y004783D02*
X005933Y004783D01*
X005933Y004644D02*
X006408Y004644D01*
X006408Y004506D02*
X005933Y004506D01*
X006087Y004367D02*
X006408Y004367D01*
X006408Y004229D02*
X006191Y004229D01*
X006223Y004090D02*
X006408Y004090D01*
X006408Y003952D02*
X006202Y003952D01*
X006112Y003813D02*
X006408Y003813D01*
X006408Y003675D02*
X002953Y003675D01*
X002953Y003536D02*
X006408Y003536D01*
X006408Y003398D02*
X002953Y003398D01*
X002946Y003259D02*
X006408Y003259D01*
X006408Y003121D02*
X002850Y003121D01*
X002712Y002982D02*
X006408Y002982D01*
X006408Y002844D02*
X001228Y002844D01*
X001090Y002705D02*
X006408Y002705D01*
X006408Y002567D02*
X001125Y002567D01*
X001245Y002428D02*
X006408Y002428D01*
X006408Y002290D02*
X001303Y002290D01*
X001314Y002151D02*
X006408Y002151D01*
X006408Y002013D02*
X001300Y002013D01*
X001243Y001874D02*
X006408Y001874D01*
X006408Y001736D02*
X001120Y001736D01*
X001095Y001597D02*
X006000Y001597D01*
X005907Y001459D02*
X001233Y001459D01*
X002953Y003813D02*
X005595Y003813D01*
X005505Y003952D02*
X002953Y003952D01*
X002953Y004090D02*
X005483Y004090D01*
X005473Y004229D02*
X002953Y004229D01*
X002953Y004367D02*
X005473Y004367D01*
X005473Y004506D02*
X002953Y004506D01*
X002953Y004644D02*
X005473Y004644D01*
X005473Y005475D02*
X004631Y005475D01*
X004618Y005614D02*
X005473Y005614D01*
X005473Y005752D02*
X004552Y005752D01*
X004344Y005891D02*
X005473Y005891D01*
X005473Y006029D02*
X003041Y006029D01*
X003073Y005891D02*
X004163Y005891D01*
X003955Y005752D02*
X003052Y005752D01*
X002963Y005614D02*
X003889Y005614D01*
X003883Y005475D02*
X002953Y005475D01*
X002953Y005337D02*
X003932Y005337D01*
X003874Y005198D02*
X002953Y005198D01*
X002953Y005060D02*
X003833Y005060D01*
X003847Y004921D02*
X002953Y004921D01*
X002953Y004783D02*
X003925Y004783D01*
X002937Y006168D02*
X005473Y006168D01*
X006408Y006722D02*
X000398Y006722D01*
X000398Y006860D02*
X003103Y006860D01*
X003504Y006860D02*
X006408Y006860D01*
X006408Y006999D02*
X003630Y006999D01*
X003673Y007137D02*
X006408Y007137D01*
X006408Y007276D02*
X003663Y007276D01*
X003590Y007414D02*
X006408Y007414D01*
X006408Y007553D02*
X002133Y007553D01*
X002133Y007691D02*
X006408Y007691D01*
X006408Y007830D02*
X002133Y007830D01*
X002133Y007968D02*
X006408Y007968D01*
X006408Y008107D02*
X006231Y008107D01*
X006360Y008245D02*
X006408Y008245D01*
X005945Y008245D02*
X005865Y008245D01*
X005865Y008384D02*
X005945Y008384D01*
X005945Y008522D02*
X005865Y008522D01*
X005865Y008661D02*
X005945Y008661D01*
X005945Y008799D02*
X005865Y008799D01*
X005865Y008948D02*
X005865Y009818D01*
X005863Y009818D01*
X005779Y009805D01*
X005698Y009778D01*
X005622Y009740D01*
X005554Y009690D01*
X005494Y009630D01*
X005317Y009630D01*
X005363Y009584D02*
X005211Y009736D01*
X005013Y009818D01*
X004798Y009818D01*
X004600Y009736D01*
X004448Y009584D01*
X004405Y009482D01*
X004363Y009584D01*
X004211Y009736D01*
X004013Y009818D01*
X003798Y009818D01*
X003600Y009736D01*
X003448Y009584D01*
X003405Y009482D01*
X003363Y009584D01*
X003211Y009736D01*
X003013Y009818D01*
X002798Y009818D01*
X002600Y009736D01*
X002448Y009584D01*
X002405Y009482D01*
X002363Y009584D01*
X002211Y009736D01*
X002013Y009818D01*
X001798Y009818D01*
X001600Y009736D01*
X001448Y009584D01*
X001405Y009482D01*
X001363Y009584D01*
X001211Y009736D01*
X001013Y009818D01*
X000798Y009818D01*
X000600Y009736D01*
X000448Y009584D01*
X000398Y009465D01*
X000398Y010483D01*
X006408Y010483D01*
X006408Y009477D01*
X006406Y009485D01*
X006367Y009561D01*
X006317Y009630D01*
X006408Y009630D01*
X006317Y009630D02*
X006257Y009690D01*
X006188Y009740D01*
X006113Y009778D01*
X006032Y009805D01*
X005948Y009818D01*
X005945Y009818D01*
X005945Y008948D01*
X005865Y008948D01*
X005865Y009076D02*
X005945Y009076D01*
X005945Y009215D02*
X005865Y009215D01*
X005865Y009353D02*
X005945Y009353D01*
X005945Y009492D02*
X005865Y009492D01*
X005865Y009630D02*
X005945Y009630D01*
X005945Y009769D02*
X005865Y009769D01*
X005679Y009769D02*
X005132Y009769D01*
X005363Y009584D02*
X005405Y009484D01*
X005405Y009485D01*
X005444Y009561D01*
X005494Y009630D01*
X005408Y009492D02*
X005401Y009492D01*
X004679Y009769D02*
X004132Y009769D01*
X004317Y009630D02*
X004494Y009630D01*
X004409Y009492D02*
X004401Y009492D01*
X003679Y009769D02*
X003132Y009769D01*
X003317Y009630D02*
X003494Y009630D01*
X003409Y009492D02*
X003401Y009492D01*
X002679Y009769D02*
X002132Y009769D01*
X002317Y009630D02*
X002494Y009630D01*
X002409Y009492D02*
X002401Y009492D01*
X001679Y009769D02*
X001132Y009769D01*
X001317Y009630D02*
X001494Y009630D01*
X001409Y009492D02*
X001401Y009492D01*
X000679Y009769D02*
X000398Y009769D01*
X000398Y009907D02*
X006408Y009907D01*
X006408Y009769D02*
X006132Y009769D01*
X006408Y010046D02*
X000398Y010046D01*
X000398Y010184D02*
X006408Y010184D01*
X006408Y010323D02*
X000398Y010323D01*
X000398Y010461D02*
X006408Y010461D01*
X006403Y009492D02*
X006408Y009492D01*
X005451Y008245D02*
X005369Y008245D01*
X005238Y008107D02*
X005580Y008107D01*
X005865Y008107D02*
X005945Y008107D01*
X004573Y008107D02*
X004238Y008107D01*
X004369Y008245D02*
X004442Y008245D01*
X003573Y008107D02*
X003238Y008107D01*
X003369Y008245D02*
X003442Y008245D01*
X003017Y007414D02*
X002133Y007414D01*
X001673Y007414D02*
X000398Y007414D01*
X000398Y007276D02*
X001673Y007276D01*
X001719Y007137D02*
X000398Y007137D01*
X000398Y006999D02*
X001857Y006999D01*
X001673Y007553D02*
X000398Y007553D01*
X000398Y007691D02*
X001673Y007691D01*
X001673Y007830D02*
X000398Y007830D01*
X000398Y007968D02*
X001673Y007968D01*
X001573Y008107D02*
X001238Y008107D01*
X001369Y008245D02*
X001442Y008245D01*
X002238Y008107D02*
X002573Y008107D01*
X002442Y008245D02*
X002369Y008245D01*
X000573Y008107D02*
X000398Y008107D01*
X000398Y008245D02*
X000442Y008245D01*
X000398Y009492D02*
X000409Y009492D01*
X000398Y009630D02*
X000494Y009630D01*
D14*
X003303Y007178D03*
X002703Y005878D03*
X001553Y004528D03*
X004203Y005028D03*
X004253Y005528D03*
X004303Y003828D03*
X005853Y004078D03*
X005853Y006278D03*
X005753Y001628D03*
X006253Y001328D03*
D15*
X006079Y001154D01*
X000774Y001154D01*
X000774Y003154D02*
X002529Y003154D01*
X002703Y003328D01*
X002703Y005878D01*
D16*
X003303Y007178D02*
X002003Y007178D01*
X001903Y007278D01*
X001903Y008906D01*
X001905Y008908D01*
X004253Y005528D02*
X004620Y005161D01*
X005637Y005161D01*
X005703Y005228D01*
X005703Y006128D01*
X005853Y006278D01*
X005626Y004906D02*
X005703Y004828D01*
X005703Y004228D01*
X005853Y004078D01*
X005626Y004906D02*
X004326Y004906D01*
X004203Y005028D01*
M02*
