G75*
%MOIN*%
%OFA0B0*%
%FSLAX24Y24*%
%IPPOS*%
%LPD*%
%AMOC8*
5,1,8,0,0,1.08239X$1,22.5*
%
%ADD10C,0.0050*%
%ADD11C,0.0040*%
%ADD12C,0.0060*%
%ADD13C,0.0080*%
%ADD14C,0.0220*%
%ADD15R,0.0300X0.0180*%
%ADD16R,0.0180X0.0300*%
D10*
X000375Y000425D02*
X000575Y000425D01*
X000625Y000475D01*
X000625Y000575D01*
X000575Y000625D01*
X000475Y000625D01*
X000475Y000525D01*
X000375Y000425D02*
X000325Y000475D01*
X000325Y000575D01*
X000375Y000625D01*
X000325Y000747D02*
X000625Y000947D01*
X000325Y000947D01*
X000325Y001070D02*
X000325Y001220D01*
X000375Y001270D01*
X000575Y001270D01*
X000625Y001220D01*
X000625Y001070D01*
X000325Y001070D01*
X000325Y000747D02*
X000625Y000747D01*
X000575Y001475D02*
X000375Y001475D01*
X000325Y001525D01*
X000325Y001625D01*
X000375Y001675D01*
X000325Y001797D02*
X000325Y001997D01*
X000325Y001897D02*
X000625Y001897D01*
X000575Y002120D02*
X000625Y002170D01*
X000625Y002270D01*
X000575Y002320D01*
X000525Y002320D01*
X000475Y002270D01*
X000475Y002170D01*
X000425Y002120D01*
X000375Y002120D01*
X000325Y002170D01*
X000325Y002270D01*
X000375Y002320D01*
X000325Y002525D02*
X000325Y002675D01*
X000375Y002725D01*
X000475Y002725D01*
X000525Y002675D01*
X000525Y002525D01*
X000625Y002525D02*
X000325Y002525D01*
X000325Y002847D02*
X000625Y002847D01*
X000525Y002947D01*
X000625Y003047D01*
X000325Y003047D01*
X000325Y003170D02*
X000325Y003320D01*
X000375Y003370D01*
X000475Y003370D01*
X000525Y003320D01*
X000525Y003170D01*
X000525Y003270D02*
X000625Y003370D01*
X000625Y003170D02*
X000325Y003170D01*
X000325Y003575D02*
X000325Y003775D01*
X000325Y003675D02*
X000625Y003675D01*
X000625Y003897D02*
X000325Y004097D01*
X000375Y004220D02*
X000575Y004220D01*
X000625Y004270D01*
X000625Y004370D01*
X000575Y004420D01*
X000375Y004420D01*
X000325Y004370D01*
X000325Y004270D01*
X000375Y004220D01*
X000625Y004097D02*
X000325Y003897D01*
X000350Y004625D02*
X000350Y004775D01*
X000400Y004825D01*
X000500Y004825D01*
X000550Y004775D01*
X000550Y004625D01*
X000650Y004625D02*
X000350Y004625D01*
X000550Y004725D02*
X000650Y004825D01*
X000650Y004947D02*
X000350Y005147D01*
X000350Y005270D02*
X000350Y005370D01*
X000350Y005320D02*
X000650Y005320D01*
X000650Y005270D02*
X000650Y005370D01*
X000625Y005550D02*
X000625Y005700D01*
X000575Y005750D01*
X000375Y005750D01*
X000325Y005700D01*
X000325Y005550D01*
X000625Y005550D01*
X000325Y005872D02*
X000325Y006072D01*
X000325Y005972D02*
X000625Y005972D01*
X000625Y006195D02*
X000325Y006195D01*
X000325Y006345D01*
X000375Y006395D01*
X000475Y006395D01*
X000525Y006345D01*
X000525Y006195D01*
X000525Y006295D02*
X000625Y006395D01*
X000650Y005147D02*
X000350Y004947D01*
X003549Y004929D02*
X003649Y005029D01*
X003849Y005029D01*
X003849Y005151D02*
X003549Y005151D01*
X003699Y005201D02*
X003849Y005351D01*
X003799Y005473D02*
X003849Y005523D01*
X003849Y005623D01*
X003799Y005673D01*
X003599Y005673D01*
X003549Y005623D01*
X003549Y005523D01*
X003599Y005473D01*
X003799Y005473D01*
X003549Y005351D02*
X003749Y005151D01*
X003699Y005029D02*
X003699Y004829D01*
X003649Y004829D02*
X003549Y004929D01*
X003649Y004829D02*
X003849Y004829D01*
X003849Y004707D02*
X003849Y004506D01*
X003549Y004506D01*
X003549Y004707D01*
X003699Y004606D02*
X003699Y004506D01*
X003699Y004384D02*
X003599Y004384D01*
X003549Y004334D01*
X003549Y004184D01*
X003849Y004184D01*
X003749Y004184D02*
X003749Y004334D01*
X003699Y004384D01*
X003749Y004284D02*
X003849Y004384D01*
X003799Y004062D02*
X003849Y004012D01*
X003849Y003862D01*
X003549Y003862D01*
X003549Y004012D01*
X003599Y004062D01*
X003649Y004062D01*
X003699Y004012D01*
X003699Y003862D01*
X003699Y004012D02*
X003749Y004062D01*
X003799Y004062D01*
X003849Y003417D02*
X003849Y003217D01*
X003549Y003217D01*
X003599Y003095D02*
X003699Y003095D01*
X003749Y003045D01*
X003749Y002895D01*
X003749Y002995D02*
X003849Y003095D01*
X003849Y002895D02*
X003549Y002895D01*
X003549Y003045D01*
X003599Y003095D01*
X003599Y002773D02*
X003549Y002723D01*
X003549Y002623D01*
X003599Y002573D01*
X003599Y002451D02*
X003649Y002451D01*
X003699Y002401D01*
X003749Y002451D01*
X003799Y002451D01*
X003849Y002401D01*
X003849Y002300D01*
X003799Y002250D01*
X003849Y002128D02*
X003849Y001928D01*
X003649Y002128D01*
X003599Y002128D01*
X003549Y002078D01*
X003549Y001978D01*
X003599Y001928D01*
X003549Y001806D02*
X003549Y001606D01*
X003549Y001484D02*
X003549Y001284D01*
X003849Y001284D01*
X003699Y001284D02*
X003699Y001384D01*
X003849Y001706D02*
X003549Y001706D01*
X003599Y002250D02*
X003549Y002300D01*
X003549Y002401D01*
X003599Y002451D01*
X003699Y002401D02*
X003699Y002351D01*
X003849Y002573D02*
X003649Y002773D01*
X003599Y002773D01*
X003849Y002773D02*
X003849Y002573D01*
X005125Y001634D02*
X005125Y001467D01*
X005167Y001425D01*
X005250Y001425D01*
X005292Y001467D01*
X005292Y001634D01*
X005250Y001675D01*
X005167Y001675D01*
X005125Y001634D01*
X005401Y001675D02*
X005401Y001425D01*
X005568Y001425D02*
X005568Y001675D01*
X005401Y001675D02*
X005568Y001425D01*
X006425Y001417D02*
X006467Y001375D01*
X006550Y001375D01*
X006592Y001417D01*
X006592Y001500D01*
X006550Y001542D01*
X006508Y001542D01*
X006425Y001500D01*
X006425Y001625D01*
X006592Y001625D01*
X006701Y001625D02*
X006701Y001458D01*
X006785Y001375D01*
X006868Y001458D01*
X006868Y001625D01*
X007225Y001625D02*
X007350Y001625D01*
X007392Y001584D01*
X007392Y001500D01*
X007350Y001458D01*
X007225Y001458D01*
X007225Y001375D02*
X007225Y001625D01*
X007501Y001625D02*
X007501Y001375D01*
X007585Y001458D01*
X007668Y001375D01*
X007668Y001625D01*
X007777Y001625D02*
X007903Y001625D01*
X007944Y001584D01*
X007944Y001500D01*
X007903Y001458D01*
X007777Y001458D01*
X007777Y001375D02*
X007777Y001625D01*
X007861Y001458D02*
X007944Y001375D01*
X008225Y001375D02*
X008225Y001625D01*
X008350Y001625D01*
X008392Y001584D01*
X008392Y001500D01*
X008350Y001458D01*
X008225Y001458D01*
X008501Y001375D02*
X008501Y001625D01*
X008668Y001625D02*
X008668Y001375D01*
X008585Y001458D01*
X008501Y001375D01*
X008777Y001375D02*
X008777Y001625D01*
X008903Y001625D01*
X008944Y001584D01*
X008944Y001500D01*
X008903Y001458D01*
X008777Y001458D01*
X008861Y001458D02*
X008944Y001375D01*
X009175Y001417D02*
X009217Y001375D01*
X009300Y001375D01*
X009342Y001417D01*
X009342Y001458D01*
X009300Y001500D01*
X009258Y001500D01*
X009300Y001500D02*
X009342Y001542D01*
X009342Y001584D01*
X009300Y001625D01*
X009217Y001625D01*
X009175Y001584D01*
X009451Y001625D02*
X009451Y001458D01*
X009535Y001375D01*
X009618Y001458D01*
X009618Y001625D01*
X009727Y001584D02*
X009769Y001625D01*
X009853Y001625D01*
X009894Y001584D01*
X009894Y001542D01*
X009853Y001500D01*
X009894Y001458D01*
X009894Y001417D01*
X009853Y001375D01*
X009769Y001375D01*
X009727Y001417D01*
X009811Y001500D02*
X009853Y001500D01*
X008725Y002175D02*
X008475Y002175D01*
X008475Y002300D01*
X008516Y002342D01*
X008600Y002342D01*
X008642Y002300D01*
X008642Y002175D01*
X008642Y002258D02*
X008725Y002342D01*
X008725Y002451D02*
X008725Y002618D01*
X008725Y002535D02*
X008475Y002535D01*
X008558Y002451D01*
X008475Y004125D02*
X008475Y004292D01*
X008475Y004208D02*
X008725Y004208D01*
X008875Y004250D02*
X008875Y004125D01*
X009125Y004125D01*
X009042Y004125D02*
X009042Y004250D01*
X009000Y004292D01*
X008916Y004292D01*
X008875Y004250D01*
X008875Y004401D02*
X009125Y004568D01*
X009125Y004677D02*
X009125Y004844D01*
X009125Y004954D02*
X009125Y005121D01*
X009125Y005230D02*
X009125Y005355D01*
X009083Y005397D01*
X008916Y005397D01*
X008875Y005355D01*
X008875Y005230D01*
X009125Y005230D01*
X009000Y005037D02*
X009000Y004954D01*
X008875Y004954D02*
X009125Y004954D01*
X008875Y004954D02*
X008875Y005121D01*
X008725Y005121D02*
X008725Y004954D01*
X008475Y004954D01*
X008475Y005121D01*
X008475Y005230D02*
X008475Y005355D01*
X008516Y005397D01*
X008683Y005397D01*
X008725Y005355D01*
X008725Y005230D01*
X008475Y005230D01*
X008600Y005037D02*
X008600Y004954D01*
X008725Y004844D02*
X008725Y004677D01*
X008475Y004677D01*
X008475Y004568D02*
X008725Y004401D01*
X008725Y004568D02*
X008475Y004401D01*
X008875Y004568D02*
X009125Y004401D01*
X009125Y004292D02*
X009042Y004208D01*
X009125Y004677D02*
X008875Y004677D01*
X007818Y005425D02*
X007651Y005425D01*
X007818Y005592D01*
X007818Y005634D01*
X007776Y005675D01*
X007693Y005675D01*
X007651Y005634D01*
X007542Y005634D02*
X007500Y005675D01*
X007417Y005675D01*
X007375Y005634D01*
X007375Y005467D01*
X007417Y005425D01*
X007500Y005425D01*
X007542Y005467D01*
X008875Y006075D02*
X008775Y006275D01*
X008975Y006275D02*
X008875Y006075D01*
X009097Y006075D02*
X009297Y006075D01*
X009197Y006075D02*
X009197Y006375D01*
X009097Y006275D01*
X009420Y006125D02*
X009420Y006075D01*
X009470Y006075D01*
X009470Y006125D01*
X009420Y006125D01*
X009581Y006075D02*
X009781Y006075D01*
X009681Y006075D02*
X009681Y006375D01*
X009581Y006275D01*
X005368Y005425D02*
X005201Y005425D01*
X005285Y005425D02*
X005285Y005675D01*
X005201Y005592D01*
X005092Y005634D02*
X005050Y005675D01*
X004967Y005675D01*
X004925Y005634D01*
X004925Y005467D01*
X004967Y005425D01*
X005050Y005425D01*
X005092Y005467D01*
X003849Y005846D02*
X003849Y005946D01*
X003799Y005996D01*
X003549Y005996D01*
X003549Y006118D02*
X003549Y006318D01*
X003549Y006218D02*
X003849Y006218D01*
X003849Y005846D02*
X003799Y005795D01*
X003549Y005795D01*
X000575Y001675D02*
X000625Y001625D01*
X000625Y001525D01*
X000575Y001475D01*
X003499Y000797D02*
X003549Y000797D01*
X003649Y000797D02*
X003849Y000797D01*
X003849Y000847D02*
X003849Y000746D01*
X003849Y000624D02*
X003649Y000624D01*
X003549Y000524D01*
X003649Y000424D01*
X003849Y000424D01*
X003699Y000424D02*
X003699Y000624D01*
X003649Y000746D02*
X003649Y000797D01*
X004173Y000525D02*
X004298Y000525D01*
X004339Y000484D01*
X004339Y000400D01*
X004298Y000358D01*
X004173Y000358D01*
X004256Y000358D02*
X004339Y000275D01*
X004449Y000275D02*
X004616Y000442D01*
X004616Y000484D01*
X004574Y000525D01*
X004490Y000525D01*
X004449Y000484D01*
X004449Y000275D02*
X004616Y000275D01*
X004173Y000275D02*
X004173Y000525D01*
D11*
X001380Y000530D02*
X001380Y000565D01*
X001345Y000600D01*
X001170Y000600D01*
X001170Y000565D02*
X001170Y000635D01*
X001170Y000725D02*
X001345Y000725D01*
X001380Y000760D01*
X001380Y000830D01*
X001345Y000865D01*
X001170Y000865D01*
X001170Y000955D02*
X001240Y001025D01*
X001170Y001096D01*
X001380Y001096D01*
X001380Y001186D02*
X001170Y001186D01*
X001170Y001291D01*
X001205Y001326D01*
X001275Y001326D01*
X001310Y001291D01*
X001310Y001186D01*
X001380Y000955D02*
X001170Y000955D01*
X001170Y001416D02*
X001380Y001416D01*
X001380Y001556D01*
X001380Y001646D02*
X001170Y001646D01*
X001170Y001751D01*
X001205Y001786D01*
X001275Y001786D01*
X001310Y001751D01*
X001310Y001646D01*
X001310Y001716D02*
X001380Y001786D01*
X001170Y001556D02*
X001170Y001416D01*
X001275Y001416D02*
X001275Y001486D01*
X001240Y002106D02*
X001205Y002106D01*
X001170Y002141D01*
X001170Y002211D01*
X001205Y002246D01*
X001275Y002211D02*
X001310Y002246D01*
X001345Y002246D01*
X001380Y002211D01*
X001380Y002141D01*
X001345Y002106D01*
X001275Y002141D02*
X001275Y002211D01*
X001275Y002141D02*
X001240Y002106D01*
X001275Y002337D02*
X001275Y002407D01*
X001380Y002337D02*
X001380Y002477D01*
X001380Y002337D02*
X001170Y002337D01*
X001170Y002477D01*
X001170Y002567D02*
X001170Y002707D01*
X001170Y002637D02*
X001380Y002637D01*
X001345Y002797D02*
X001380Y002832D01*
X001380Y002902D01*
X001345Y002937D01*
X001310Y002937D01*
X001275Y002902D01*
X001275Y002832D01*
X001240Y002797D01*
X001205Y002797D01*
X001170Y002832D01*
X001170Y002902D01*
X001205Y002937D01*
X001170Y003257D02*
X001170Y003362D01*
X001205Y003397D01*
X001275Y003397D01*
X001310Y003362D01*
X001310Y003257D01*
X001380Y003257D02*
X001170Y003257D01*
X001170Y003488D02*
X001380Y003488D01*
X001310Y003558D01*
X001380Y003628D01*
X001170Y003628D01*
X001170Y003718D02*
X001170Y003823D01*
X001205Y003858D01*
X001275Y003858D01*
X001310Y003823D01*
X001310Y003718D01*
X001310Y003788D02*
X001380Y003858D01*
X001380Y003718D02*
X001170Y003718D01*
X001170Y004178D02*
X001170Y004318D01*
X001170Y004248D02*
X001380Y004248D01*
X001345Y004408D02*
X001205Y004408D01*
X001170Y004443D01*
X001170Y004513D01*
X001205Y004548D01*
X001345Y004548D01*
X001380Y004513D01*
X001380Y004443D01*
X001345Y004408D01*
X001345Y004869D02*
X001380Y004904D01*
X001380Y004974D01*
X001345Y005009D01*
X001310Y005009D01*
X001275Y004974D01*
X001275Y004939D01*
X001275Y004974D02*
X001240Y005009D01*
X001205Y005009D01*
X001170Y004974D01*
X001170Y004904D01*
X001205Y004869D01*
X001170Y005099D02*
X001310Y005099D01*
X001380Y005169D01*
X001310Y005239D01*
X001170Y005239D01*
X001205Y005329D02*
X001170Y005364D01*
X001170Y005434D01*
X001205Y005469D01*
X001240Y005469D01*
X001275Y005434D01*
X001310Y005469D01*
X001345Y005469D01*
X001380Y005434D01*
X001380Y005364D01*
X001345Y005329D01*
X001275Y005399D02*
X001275Y005434D01*
X001380Y005559D02*
X001170Y005699D01*
X001170Y005789D02*
X001275Y005789D01*
X001240Y005860D01*
X001240Y005895D01*
X001275Y005930D01*
X001345Y005930D01*
X001380Y005895D01*
X001380Y005825D01*
X001345Y005789D01*
X001170Y005789D02*
X001170Y005930D01*
X001170Y006020D02*
X001310Y006020D01*
X001380Y006090D01*
X001310Y006160D01*
X001170Y006160D01*
X009771Y004728D02*
X009804Y004728D01*
X009871Y004728D02*
X009871Y004695D01*
X009871Y004728D02*
X010004Y004728D01*
X010004Y004695D02*
X010004Y004761D01*
X009971Y004842D02*
X009904Y004842D01*
X009871Y004875D01*
X009871Y004976D01*
X009971Y005063D02*
X009971Y005096D01*
X010004Y005096D01*
X010004Y005063D01*
X009971Y005063D01*
X010004Y004976D02*
X010004Y004875D01*
X009971Y004842D01*
X010004Y004614D02*
X009971Y004581D01*
X009838Y004581D01*
X009871Y004614D02*
X009871Y004547D01*
X009904Y004460D02*
X009871Y004427D01*
X009871Y004360D01*
X009904Y004326D01*
X009971Y004326D01*
X010004Y004360D01*
X010004Y004427D01*
X009971Y004460D01*
X009904Y004460D01*
X009904Y004239D02*
X009871Y004206D01*
X009871Y004105D01*
X009804Y004105D02*
X010004Y004105D01*
X010004Y004206D01*
X009971Y004239D01*
X009904Y004239D01*
X009904Y004018D02*
X009871Y003985D01*
X009871Y003918D01*
X009904Y003884D01*
X009971Y003884D01*
X010004Y003918D01*
X010004Y003985D01*
X009971Y004018D01*
X009904Y004018D01*
X009871Y003800D02*
X009871Y003767D01*
X009938Y003700D01*
X010004Y003700D02*
X009871Y003700D01*
X009871Y003613D02*
X009871Y003513D01*
X009904Y003479D01*
X009971Y003479D01*
X010004Y003513D01*
X010004Y003613D01*
X010004Y003392D02*
X009904Y003392D01*
X009871Y003358D01*
X009871Y003292D01*
X009938Y003292D02*
X009971Y003258D01*
X010004Y003292D01*
X010004Y003392D01*
X009938Y003392D02*
X009938Y003292D01*
X009804Y003171D02*
X010004Y003037D01*
X009804Y002950D02*
X010004Y002816D01*
X010004Y002739D02*
X010004Y002706D01*
X009971Y002706D01*
X009971Y002739D01*
X010004Y002739D01*
X009904Y002739D02*
X009904Y002706D01*
X009871Y002706D01*
X009871Y002739D01*
X009904Y002739D01*
X009904Y002618D02*
X009971Y002618D01*
X010004Y002585D01*
X010004Y002485D01*
X010071Y002485D02*
X009871Y002485D01*
X009871Y002585D01*
X009904Y002618D01*
X009871Y002404D02*
X009871Y002338D01*
X009838Y002371D02*
X009971Y002371D01*
X010004Y002404D01*
X010004Y002257D02*
X009971Y002224D01*
X009838Y002224D01*
X009871Y002257D02*
X009871Y002190D01*
X009904Y002103D02*
X010004Y002103D01*
X009904Y002103D02*
X009871Y002069D01*
X009871Y002003D01*
X009904Y001969D01*
X009804Y001969D02*
X010004Y001969D01*
X009971Y005174D02*
X009904Y005174D01*
X009871Y005207D01*
X009871Y005307D01*
X009904Y005395D02*
X009971Y005395D01*
X010004Y005428D01*
X010004Y005495D01*
X009971Y005528D01*
X009904Y005528D01*
X009871Y005495D01*
X009871Y005428D01*
X009904Y005395D01*
X010004Y005307D02*
X010004Y005207D01*
X009971Y005174D01*
X010004Y005616D02*
X009871Y005616D01*
X009871Y005649D01*
X009904Y005682D01*
X009871Y005716D01*
X009904Y005749D01*
X010004Y005749D01*
X010004Y005682D02*
X009904Y005682D01*
X001380Y000530D02*
X001345Y000495D01*
D12*
X000800Y000175D02*
X000800Y001375D01*
X000175Y001375D01*
X000800Y001375D02*
X000800Y002425D01*
X000175Y002425D01*
X000800Y002425D02*
X000800Y003475D01*
X000175Y003475D01*
X000800Y003475D02*
X000800Y004525D01*
X000175Y004525D01*
X000800Y004525D02*
X000800Y005450D01*
X000175Y005450D01*
X000800Y005450D02*
X000800Y006525D01*
X004053Y004652D02*
X004053Y002348D01*
X008147Y002348D01*
X008147Y004652D01*
X004053Y004652D01*
X004280Y002700D02*
X004282Y002721D01*
X004288Y002742D01*
X004297Y002762D01*
X004310Y002779D01*
X004325Y002794D01*
X004343Y002806D01*
X004363Y002814D01*
X004384Y002819D01*
X004405Y002820D01*
X004427Y002817D01*
X004447Y002810D01*
X004466Y002800D01*
X004483Y002787D01*
X004497Y002771D01*
X004508Y002752D01*
X004516Y002732D01*
X004520Y002711D01*
X004520Y002689D01*
X004516Y002668D01*
X004508Y002648D01*
X004497Y002629D01*
X004483Y002613D01*
X004466Y002600D01*
X004447Y002590D01*
X004427Y002583D01*
X004405Y002580D01*
X004384Y002581D01*
X004363Y002586D01*
X004343Y002594D01*
X004325Y002606D01*
X004310Y002621D01*
X004297Y002638D01*
X004288Y002658D01*
X004282Y002679D01*
X004280Y002700D01*
D13*
X005260Y001335D02*
X005260Y001154D01*
X005382Y001246D01*
X005266Y001144D02*
X005382Y001068D01*
X005260Y001154D02*
X005260Y000973D01*
X006024Y000971D02*
X006024Y000471D01*
X006274Y000221D01*
X006774Y000221D01*
X007024Y000471D01*
X007274Y000221D01*
X007774Y000221D01*
X008024Y000471D01*
X008274Y000221D01*
X008774Y000221D01*
X009024Y000471D01*
X009274Y000221D01*
X009774Y000221D01*
X010024Y000471D01*
X010024Y000971D01*
X009774Y001221D01*
X009274Y001221D01*
X009024Y000971D01*
X008774Y001221D01*
X008274Y001221D01*
X008024Y000971D01*
X007774Y001221D01*
X007274Y001221D01*
X007024Y000971D01*
X006774Y001221D01*
X006274Y001221D01*
X006024Y000971D01*
X002880Y000348D02*
X002380Y000348D01*
X008414Y003523D02*
X008596Y003523D01*
X008688Y003401D01*
X008777Y003523D02*
X008596Y003523D01*
X008586Y003517D02*
X008510Y003401D01*
X008847Y003523D02*
X009028Y003523D01*
X009120Y003401D01*
X009209Y003523D02*
X009028Y003523D01*
X009018Y003517D02*
X008942Y003401D01*
X002880Y006348D02*
X002380Y006348D01*
D14*
X005583Y005998D02*
X005583Y005974D01*
X006931Y005970D02*
X006931Y005994D01*
D15*
X009028Y002315D03*
D16*
X005369Y000670D03*
M02*
