G75*
%MOIN*%
%OFA0B0*%
%FSLAX24Y24*%
%IPPOS*%
%LPD*%
%AMOC8*
5,1,8,0,0,1.08239X$1,22.5*
%
%ADD10R,0.0433X0.0394*%
%ADD11R,0.0394X0.0433*%
%ADD12R,0.0315X0.0315*%
%ADD13R,0.0138X0.0551*%
%ADD14R,0.0709X0.0748*%
%ADD15R,0.0748X0.0748*%
%ADD16R,0.0550X0.0137*%
D10*
X000669Y005228D03*
X001338Y005228D03*
X001338Y007428D03*
X000669Y007428D03*
X005069Y007328D03*
X005738Y007328D03*
D11*
X005703Y005312D03*
X005703Y004643D03*
X005703Y003062D03*
X005703Y002393D03*
X001253Y006143D03*
X001253Y006812D03*
D12*
X000653Y006523D03*
X000653Y005932D03*
X006303Y005923D03*
X006303Y005332D03*
X006303Y004623D03*
X006303Y004032D03*
D13*
X003915Y002271D03*
X003659Y002271D03*
X003403Y002271D03*
X003148Y002271D03*
X002892Y002271D03*
D14*
X001829Y001228D03*
X004978Y001228D03*
D15*
X003903Y001228D03*
X002903Y001228D03*
D16*
X002114Y003114D03*
X002114Y003370D03*
X002114Y003626D03*
X002114Y003882D03*
X002114Y004138D03*
X002114Y004394D03*
X002114Y004650D03*
X002114Y004906D03*
X002114Y005161D03*
X002114Y005417D03*
X002114Y005673D03*
X002114Y005929D03*
X002114Y006185D03*
X002114Y006441D03*
X004993Y006441D03*
X004993Y006185D03*
X004993Y005929D03*
X004993Y005673D03*
X004993Y005417D03*
X004993Y005161D03*
X004993Y004906D03*
X004993Y004650D03*
X004993Y004394D03*
X004993Y004138D03*
X004993Y003882D03*
X004993Y003626D03*
X004993Y003370D03*
X004993Y003114D03*
M02*
