G75*
%MOIN*%
%OFA0B0*%
%FSLAX24Y24*%
%IPPOS*%
%LPD*%
%AMOC8*
5,1,8,0,0,1.08239X$1,22.5*
%
%ADD10C,0.0820*%
%ADD11R,0.0820X0.0820*%
%ADD12C,0.0820*%
%ADD13R,0.0513X0.0474*%
%ADD14R,0.0474X0.0513*%
%ADD15R,0.0395X0.0395*%
%ADD16R,0.0217X0.0630*%
D10*
X002280Y000868D02*
X003020Y000868D01*
X003020Y001868D02*
X002280Y001868D01*
X002280Y002868D02*
X003020Y002868D01*
X003020Y003868D02*
X002280Y003868D01*
X002280Y004868D02*
X003020Y004868D01*
X003020Y005868D02*
X002280Y005868D01*
D11*
X006544Y000741D03*
D12*
X007544Y000741D03*
X008544Y000741D03*
X009544Y000741D03*
D13*
X005723Y000690D03*
X005054Y000690D03*
X005268Y006006D03*
X005938Y006006D03*
X006616Y006002D03*
X007285Y006002D03*
D14*
X009048Y002670D03*
X009048Y002001D03*
D15*
X009048Y003181D03*
X008616Y003181D03*
X008616Y003772D03*
X009048Y003772D03*
X005642Y001174D03*
X005052Y001174D03*
D16*
X004968Y002081D03*
X005224Y002081D03*
X005480Y002081D03*
X005736Y002081D03*
X005992Y002081D03*
X006248Y002081D03*
X006504Y002081D03*
X006760Y002081D03*
X007016Y002081D03*
X007272Y002081D03*
X007527Y002081D03*
X007783Y002081D03*
X004713Y002081D03*
X004457Y002081D03*
X004457Y004959D03*
X004713Y004959D03*
X004968Y004959D03*
X005224Y004959D03*
X005480Y004959D03*
X005736Y004959D03*
X005992Y004959D03*
X006248Y004959D03*
X006504Y004959D03*
X006760Y004959D03*
X007016Y004959D03*
X007272Y004959D03*
X007527Y004959D03*
X007783Y004959D03*
M02*
