G75*
%MOIN*%
%OFA0B0*%
%FSLAX24Y24*%
%IPPOS*%
%LPD*%
%AMOC8*
5,1,8,0,0,1.08239X$1,22.5*
%
%ADD10C,0.0050*%
%ADD11C,0.0740*%
%ADD12R,0.0740X0.0740*%
%ADD13C,0.0740*%
%ADD14R,0.0433X0.0394*%
%ADD15R,0.0394X0.0433*%
%ADD16R,0.0315X0.0315*%
%ADD17R,0.0138X0.0551*%
%ADD18R,0.0709X0.0748*%
%ADD19R,0.0748X0.0748*%
%ADD20R,0.0550X0.0137*%
%ADD21C,0.0140*%
%ADD22C,0.0160*%
%ADD23C,0.0400*%
%ADD24C,0.0120*%
D10*
X000203Y000628D02*
X006603Y000628D01*
X006603Y010678D01*
X000203Y010678D01*
X000203Y000628D01*
D11*
X000905Y008538D02*
X000905Y009278D01*
X001905Y009278D02*
X001905Y008538D01*
X002905Y008538D02*
X002905Y009278D01*
X003905Y009278D02*
X003905Y008538D01*
X004905Y008538D02*
X004905Y009278D01*
X005905Y009278D02*
X005905Y008538D01*
D12*
X000774Y004154D03*
D13*
X000774Y003154D03*
X000774Y002154D03*
X000774Y001154D03*
D14*
X000669Y005228D03*
X001338Y005228D03*
X001338Y007428D03*
X000669Y007428D03*
X005069Y007328D03*
X005738Y007328D03*
D15*
X005703Y005312D03*
X005703Y004643D03*
X005703Y003062D03*
X005703Y002393D03*
X001253Y006143D03*
X001253Y006812D03*
D16*
X000653Y006523D03*
X000653Y005932D03*
X006303Y005923D03*
X006303Y005332D03*
X006303Y004623D03*
X006303Y004032D03*
D17*
X003915Y002271D03*
X003659Y002271D03*
X003403Y002271D03*
X003148Y002271D03*
X002892Y002271D03*
D18*
X001829Y001228D03*
X004978Y001228D03*
D19*
X003903Y001228D03*
X002903Y001228D03*
D20*
X002114Y003114D03*
X002114Y003370D03*
X002114Y003626D03*
X002114Y003882D03*
X002114Y004138D03*
X002114Y004394D03*
X002114Y004650D03*
X002114Y004906D03*
X002114Y005161D03*
X002114Y005417D03*
X002114Y005673D03*
X002114Y005929D03*
X002114Y006185D03*
X002114Y006441D03*
X004993Y006441D03*
X004993Y006185D03*
X004993Y005929D03*
X004993Y005673D03*
X004993Y005417D03*
X004993Y005161D03*
X004993Y004906D03*
X004993Y004650D03*
X004993Y004394D03*
X004993Y004138D03*
X004993Y003882D03*
X004993Y003626D03*
X004993Y003370D03*
X004993Y003114D03*
D21*
X005337Y002876D02*
X005337Y002775D01*
X005384Y002728D01*
X005371Y002714D01*
X005348Y002675D01*
X005337Y002632D01*
X005337Y002421D01*
X005675Y002421D01*
X005675Y002364D01*
X005732Y002364D01*
X005732Y002006D01*
X005923Y002006D01*
X005966Y002018D01*
X006003Y002040D01*
X006003Y001601D01*
X005940Y001537D01*
X005883Y001401D01*
X005883Y001254D01*
X005940Y001118D01*
X006044Y001014D01*
X006180Y000958D01*
X006327Y000958D01*
X006408Y000991D01*
X006408Y000823D01*
X005503Y000823D01*
X005503Y001672D01*
X005403Y001772D01*
X004554Y001772D01*
X004454Y001672D01*
X004454Y000823D01*
X004448Y000823D01*
X004448Y001672D01*
X004348Y001772D01*
X003459Y001772D01*
X003403Y001716D01*
X003348Y001772D01*
X002459Y001772D01*
X002359Y001672D01*
X002359Y000823D01*
X002353Y000823D01*
X002353Y001672D01*
X002253Y001772D01*
X001404Y001772D01*
X001304Y001672D01*
X001304Y001285D01*
X001232Y001459D01*
X001080Y001611D01*
X000978Y001654D01*
X001080Y001696D01*
X001232Y001848D01*
X001314Y002046D01*
X001314Y002261D01*
X001232Y002459D01*
X001080Y002611D01*
X001024Y002634D01*
X001024Y002673D01*
X001080Y002696D01*
X001232Y002848D01*
X001303Y003020D01*
X001303Y002628D01*
X001342Y002536D01*
X001442Y002436D01*
X001512Y002366D01*
X001604Y002328D01*
X002642Y002328D01*
X002642Y002221D01*
X002653Y002194D01*
X002653Y001925D01*
X002752Y001825D01*
X003799Y001825D01*
X003804Y001831D01*
X003824Y001825D01*
X003915Y001825D01*
X003915Y002271D01*
X003915Y002716D01*
X003824Y002716D01*
X003804Y002711D01*
X003799Y002716D01*
X003633Y002716D01*
X003633Y002898D01*
X004626Y002898D01*
X004647Y002876D01*
X005337Y002876D01*
X005337Y002844D02*
X003633Y002844D01*
X003915Y002716D02*
X003915Y002271D01*
X003915Y002271D01*
X003915Y002271D01*
X004154Y002271D01*
X004154Y002569D01*
X004143Y002612D01*
X004120Y002651D01*
X004089Y002682D01*
X004050Y002705D01*
X004007Y002716D01*
X003915Y002716D01*
X003915Y002705D02*
X003915Y002705D01*
X003915Y002567D02*
X003915Y002567D01*
X003915Y002428D02*
X003915Y002428D01*
X003915Y002290D02*
X003915Y002290D01*
X003915Y002271D02*
X003915Y002271D01*
X003915Y001825D01*
X004007Y001825D01*
X004050Y001837D01*
X004089Y001859D01*
X004120Y001891D01*
X004143Y001930D01*
X004154Y001973D01*
X004154Y002271D01*
X003915Y002271D01*
X003915Y002151D02*
X003915Y002151D01*
X003915Y002013D02*
X003915Y002013D01*
X003915Y001874D02*
X003915Y001874D01*
X004103Y001874D02*
X006003Y001874D01*
X006003Y002013D02*
X005946Y002013D01*
X005732Y002013D02*
X005675Y002013D01*
X005675Y002006D02*
X005675Y002364D01*
X005337Y002364D01*
X005337Y002154D01*
X005348Y002111D01*
X005371Y002072D01*
X005402Y002040D01*
X005441Y002018D01*
X005484Y002006D01*
X005675Y002006D01*
X005675Y002151D02*
X005732Y002151D01*
X005732Y002290D02*
X005675Y002290D01*
X005337Y002290D02*
X004154Y002290D01*
X004154Y002428D02*
X005337Y002428D01*
X005337Y002567D02*
X004154Y002567D01*
X004049Y002705D02*
X005366Y002705D01*
X005337Y002151D02*
X004154Y002151D01*
X004154Y002013D02*
X005461Y002013D01*
X005439Y001736D02*
X006003Y001736D01*
X006000Y001597D02*
X005503Y001597D01*
X005503Y001459D02*
X005907Y001459D01*
X005883Y001320D02*
X005503Y001320D01*
X005503Y001182D02*
X005913Y001182D01*
X006015Y001043D02*
X005503Y001043D01*
X005503Y000905D02*
X006408Y000905D01*
X004454Y000905D02*
X004448Y000905D01*
X004448Y001043D02*
X004454Y001043D01*
X004448Y001182D02*
X004454Y001182D01*
X004448Y001320D02*
X004454Y001320D01*
X004448Y001459D02*
X004454Y001459D01*
X004448Y001597D02*
X004454Y001597D01*
X004518Y001736D02*
X004384Y001736D01*
X003423Y001736D02*
X003384Y001736D01*
X002704Y001874D02*
X001243Y001874D01*
X001300Y002013D02*
X002653Y002013D01*
X002653Y002151D02*
X001314Y002151D01*
X001303Y002290D02*
X002642Y002290D01*
X002423Y001736D02*
X002289Y001736D01*
X002353Y001597D02*
X002359Y001597D01*
X002353Y001459D02*
X002359Y001459D01*
X002353Y001320D02*
X002359Y001320D01*
X002353Y001182D02*
X002359Y001182D01*
X002353Y001043D02*
X002359Y001043D01*
X002353Y000905D02*
X002359Y000905D01*
X001368Y001736D02*
X001120Y001736D01*
X001095Y001597D02*
X001304Y001597D01*
X001304Y001459D02*
X001233Y001459D01*
X001290Y001320D02*
X001304Y001320D01*
X001245Y002428D02*
X001449Y002428D01*
X001329Y002567D02*
X001125Y002567D01*
X001090Y002705D02*
X001303Y002705D01*
X001303Y002844D02*
X001228Y002844D01*
X001288Y002982D02*
X001303Y002982D01*
X001669Y004265D02*
X001569Y004365D01*
X001477Y004404D01*
X001314Y004404D01*
X001314Y004594D01*
X001215Y004694D01*
X000919Y004694D01*
X000919Y004861D01*
X000956Y004861D01*
X001003Y004908D01*
X001017Y004895D01*
X001056Y004872D01*
X001099Y004861D01*
X001310Y004861D01*
X001310Y005199D01*
X001367Y005199D01*
X001367Y004861D01*
X001577Y004861D01*
X001620Y004872D01*
X001659Y004895D01*
X001669Y004905D01*
X001669Y004815D01*
X001675Y004794D01*
X001669Y004789D01*
X001669Y004265D01*
X001669Y004367D02*
X001565Y004367D01*
X001669Y004506D02*
X001314Y004506D01*
X001264Y004644D02*
X001669Y004644D01*
X001669Y004783D02*
X000919Y004783D01*
X001310Y004921D02*
X001367Y004921D01*
X001367Y005060D02*
X001310Y005060D01*
X001310Y005198D02*
X001367Y005198D01*
X001367Y005256D02*
X001310Y005256D01*
X001310Y005594D01*
X001099Y005594D01*
X001056Y005583D01*
X001017Y005560D01*
X001003Y005547D01*
X000956Y005594D01*
X000398Y005594D01*
X000398Y005635D01*
X000430Y005616D01*
X000474Y005605D01*
X000645Y005605D01*
X000645Y005924D01*
X000662Y005924D01*
X000662Y005605D01*
X000833Y005605D01*
X000877Y005616D01*
X000915Y005639D01*
X000947Y005670D01*
X000969Y005709D01*
X000981Y005752D01*
X001325Y005752D01*
X001321Y005756D02*
X001483Y005594D01*
X001367Y005594D01*
X001367Y005256D01*
X001367Y005337D02*
X001310Y005337D01*
X001310Y005475D02*
X001367Y005475D01*
X001464Y005614D02*
X000866Y005614D01*
X000981Y005752D02*
X000981Y005762D01*
X000986Y005756D01*
X001321Y005756D01*
X000662Y005752D02*
X000645Y005752D01*
X000645Y005891D02*
X000662Y005891D01*
X000645Y005614D02*
X000662Y005614D01*
X000441Y005614D02*
X000398Y005614D01*
X002114Y004906D02*
X002559Y004906D01*
X002559Y004996D01*
X002554Y005017D01*
X002559Y005022D01*
X002559Y005187D01*
X002939Y005187D01*
X003073Y005322D01*
X003073Y005173D01*
X002559Y004658D01*
X002559Y004789D01*
X002554Y004794D01*
X002559Y004815D01*
X002559Y004905D01*
X002114Y004905D01*
X002114Y004906D01*
X002559Y004921D02*
X002822Y004921D01*
X002960Y005060D02*
X002559Y005060D01*
X002559Y004783D02*
X002683Y004783D01*
X002949Y005198D02*
X003073Y005198D01*
X003803Y005198D02*
X003874Y005198D01*
X003890Y005237D02*
X003833Y005101D01*
X003833Y004954D01*
X003890Y004818D01*
X003994Y004714D01*
X004130Y004658D01*
X004277Y004658D01*
X004320Y004676D01*
X004548Y004676D01*
X004548Y004650D01*
X004993Y004650D01*
X004993Y004650D01*
X004548Y004650D01*
X004548Y004644D01*
X003769Y004644D01*
X003803Y004728D01*
X003803Y005724D01*
X004014Y005935D01*
X004548Y006462D01*
X004548Y006046D01*
X004553Y006041D01*
X004548Y006020D01*
X004548Y005929D01*
X004548Y005838D01*
X004558Y005801D01*
X004548Y005764D01*
X004548Y005756D01*
X004463Y005841D01*
X004327Y005898D01*
X004180Y005898D01*
X004044Y005841D01*
X003940Y005737D01*
X003883Y005601D01*
X003883Y005454D01*
X003940Y005318D01*
X003955Y005303D01*
X003890Y005237D01*
X003932Y005337D02*
X003803Y005337D01*
X003803Y005475D02*
X003883Y005475D01*
X003889Y005614D02*
X003803Y005614D01*
X003832Y005752D02*
X003955Y005752D01*
X003970Y005891D02*
X004163Y005891D01*
X004110Y006029D02*
X004550Y006029D01*
X004548Y005929D02*
X004993Y005929D01*
X004993Y005929D01*
X005438Y005929D01*
X005438Y005838D01*
X005428Y005801D01*
X005438Y005764D01*
X005438Y005699D01*
X005971Y005699D01*
X006043Y005627D01*
X006043Y005628D01*
X005976Y005695D01*
X005976Y005928D01*
X005927Y005908D01*
X005780Y005908D01*
X005644Y005964D01*
X005540Y006068D01*
X005483Y006204D01*
X005483Y006351D01*
X005540Y006487D01*
X005644Y006591D01*
X005780Y006648D01*
X005927Y006648D01*
X006063Y006591D01*
X006147Y006508D01*
X006349Y006508D01*
X006399Y006458D01*
X006408Y006448D01*
X006408Y008339D01*
X006406Y008331D01*
X006367Y008255D01*
X006317Y008186D01*
X006257Y008126D01*
X006188Y008076D01*
X006113Y008037D01*
X006032Y008011D01*
X005948Y007998D01*
X005945Y007998D01*
X005945Y008868D01*
X005865Y008868D01*
X005865Y007998D01*
X005863Y007998D01*
X005779Y008011D01*
X005698Y008037D01*
X005622Y008076D01*
X005554Y008126D01*
X005494Y008186D01*
X005444Y008255D01*
X005405Y008331D01*
X005405Y008332D01*
X005363Y008232D01*
X005211Y008080D01*
X005135Y008049D01*
X005135Y008025D01*
X005135Y007834D01*
X004996Y007694D01*
X005356Y007694D01*
X005403Y007647D01*
X005417Y007660D01*
X005456Y007683D01*
X005499Y007694D01*
X005710Y007694D01*
X005710Y007356D01*
X005767Y007356D01*
X006125Y007356D01*
X006125Y007547D01*
X006113Y007590D01*
X006091Y007629D01*
X006059Y007660D01*
X006020Y007683D01*
X005977Y007694D01*
X005767Y007694D01*
X005767Y007356D01*
X005767Y007299D01*
X006125Y007299D01*
X006125Y007108D01*
X006113Y007065D01*
X006091Y007026D01*
X006059Y006995D01*
X006020Y006972D01*
X005977Y006961D01*
X005767Y006961D01*
X005767Y007299D01*
X005710Y007299D01*
X005710Y006961D01*
X005499Y006961D01*
X005456Y006972D01*
X005417Y006995D01*
X005403Y007008D01*
X005356Y006961D01*
X005053Y006961D01*
X004768Y006679D01*
X005338Y006679D01*
X005438Y006580D01*
X005438Y006046D01*
X005432Y006041D01*
X005438Y006020D01*
X005438Y005929D01*
X004993Y005929D01*
X004993Y005673D01*
X004993Y005673D01*
X004993Y005912D01*
X004993Y005929D01*
X004993Y005929D01*
X004548Y005929D01*
X004548Y005891D02*
X004344Y005891D01*
X004250Y006168D02*
X004548Y006168D01*
X004548Y006306D02*
X004390Y006306D01*
X004530Y006445D02*
X004548Y006445D01*
X004811Y006722D02*
X006408Y006722D01*
X006408Y006583D02*
X006071Y006583D01*
X006408Y006860D02*
X004951Y006860D01*
X005394Y006999D02*
X005413Y006999D01*
X005710Y006999D02*
X005767Y006999D01*
X005767Y007137D02*
X005710Y007137D01*
X005710Y007276D02*
X005767Y007276D01*
X005767Y007414D02*
X005710Y007414D01*
X005710Y007553D02*
X005767Y007553D01*
X005767Y007691D02*
X005710Y007691D01*
X005487Y007691D02*
X005359Y007691D01*
X005131Y007830D02*
X006408Y007830D01*
X006408Y007968D02*
X005135Y007968D01*
X005238Y008107D02*
X005580Y008107D01*
X005451Y008245D02*
X005369Y008245D01*
X005865Y008245D02*
X005945Y008245D01*
X005945Y008384D02*
X005865Y008384D01*
X005865Y008522D02*
X005945Y008522D01*
X005945Y008661D02*
X005865Y008661D01*
X005865Y008799D02*
X005945Y008799D01*
X005945Y008948D02*
X005865Y008948D01*
X005865Y009818D01*
X005863Y009818D01*
X005779Y009805D01*
X005698Y009778D01*
X005622Y009740D01*
X005554Y009690D01*
X005494Y009630D01*
X005317Y009630D01*
X005363Y009584D02*
X005211Y009736D01*
X005013Y009818D01*
X004798Y009818D01*
X004600Y009736D01*
X004448Y009584D01*
X004405Y009482D01*
X004363Y009584D01*
X004211Y009736D01*
X004013Y009818D01*
X003798Y009818D01*
X003600Y009736D01*
X003448Y009584D01*
X003405Y009482D01*
X003363Y009584D01*
X003211Y009736D01*
X003013Y009818D01*
X002798Y009818D01*
X002600Y009736D01*
X002448Y009584D01*
X002405Y009482D01*
X002363Y009584D01*
X002211Y009736D01*
X002013Y009818D01*
X001798Y009818D01*
X001600Y009736D01*
X001448Y009584D01*
X001405Y009482D01*
X001363Y009584D01*
X001211Y009736D01*
X001013Y009818D01*
X000798Y009818D01*
X000600Y009736D01*
X000448Y009584D01*
X000398Y009465D01*
X000398Y010483D01*
X006408Y010483D01*
X006408Y009477D01*
X006406Y009485D01*
X006367Y009561D01*
X006317Y009630D01*
X006408Y009630D01*
X006317Y009630D02*
X006257Y009690D01*
X006188Y009740D01*
X006113Y009778D01*
X006032Y009805D01*
X005948Y009818D01*
X005945Y009818D01*
X005945Y008948D01*
X005945Y009076D02*
X005865Y009076D01*
X005865Y009215D02*
X005945Y009215D01*
X005945Y009353D02*
X005865Y009353D01*
X005865Y009492D02*
X005945Y009492D01*
X005945Y009630D02*
X005865Y009630D01*
X005865Y009769D02*
X005945Y009769D01*
X006132Y009769D02*
X006408Y009769D01*
X006408Y009907D02*
X000398Y009907D01*
X000398Y009769D02*
X000679Y009769D01*
X000494Y009630D02*
X000398Y009630D01*
X000398Y009492D02*
X000409Y009492D01*
X000398Y010046D02*
X006408Y010046D01*
X006408Y010184D02*
X000398Y010184D01*
X000398Y010323D02*
X006408Y010323D01*
X006408Y010461D02*
X000398Y010461D01*
X001132Y009769D02*
X001679Y009769D01*
X001494Y009630D02*
X001317Y009630D01*
X001401Y009492D02*
X001409Y009492D01*
X002132Y009769D02*
X002679Y009769D01*
X002494Y009630D02*
X002317Y009630D01*
X002401Y009492D02*
X002409Y009492D01*
X003132Y009769D02*
X003679Y009769D01*
X003494Y009630D02*
X003317Y009630D01*
X003401Y009492D02*
X003409Y009492D01*
X004132Y009769D02*
X004679Y009769D01*
X004494Y009630D02*
X004317Y009630D01*
X004401Y009492D02*
X004409Y009492D01*
X005132Y009769D02*
X005679Y009769D01*
X005494Y009630D02*
X005444Y009561D01*
X005405Y009485D01*
X005405Y009484D01*
X005363Y009584D01*
X005401Y009492D02*
X005408Y009492D01*
X006403Y009492D02*
X006408Y009492D01*
X006360Y008245D02*
X006408Y008245D01*
X006408Y008107D02*
X006231Y008107D01*
X005945Y008107D02*
X005865Y008107D01*
X005990Y007691D02*
X006408Y007691D01*
X006408Y007553D02*
X006123Y007553D01*
X006125Y007414D02*
X006408Y007414D01*
X006408Y007276D02*
X006125Y007276D01*
X006125Y007137D02*
X006408Y007137D01*
X006408Y006999D02*
X006063Y006999D01*
X005636Y006583D02*
X005435Y006583D01*
X005438Y006445D02*
X005522Y006445D01*
X005483Y006306D02*
X005438Y006306D01*
X005438Y006168D02*
X005499Y006168D01*
X005435Y006029D02*
X005579Y006029D01*
X005438Y005891D02*
X005976Y005891D01*
X005976Y005752D02*
X005438Y005752D01*
X004993Y005752D02*
X004993Y005752D01*
X004993Y005891D02*
X004993Y005891D01*
X004993Y005929D02*
X004993Y005929D01*
X003833Y005060D02*
X003803Y005060D01*
X003803Y004921D02*
X003847Y004921D01*
X003803Y004783D02*
X003925Y004783D01*
X003769Y004644D02*
X004548Y004644D01*
X004548Y004144D02*
X004548Y003999D01*
X004553Y003993D01*
X004548Y003973D01*
X004548Y003882D01*
X004993Y003882D01*
X005438Y003882D01*
X005438Y003973D01*
X005432Y003993D01*
X005438Y003999D01*
X005438Y004144D01*
X005483Y004144D01*
X005483Y004004D01*
X005537Y003876D01*
X005438Y003876D01*
X005438Y003882D01*
X004993Y003882D01*
X004993Y003882D01*
X004993Y003882D01*
X004548Y003882D01*
X004548Y003791D01*
X004553Y003770D01*
X004548Y003765D01*
X004548Y003600D01*
X003351Y003600D01*
X003216Y003465D01*
X003142Y003391D01*
X003142Y004012D01*
X003273Y004144D01*
X004548Y004144D01*
X004548Y004090D02*
X003220Y004090D01*
X003142Y003952D02*
X004548Y003952D01*
X004548Y003813D02*
X003142Y003813D01*
X003142Y003675D02*
X004548Y003675D01*
X005438Y003952D02*
X005505Y003952D01*
X005483Y004090D02*
X005438Y004090D01*
X003287Y003536D02*
X003142Y003536D01*
X003142Y003398D02*
X003148Y003398D01*
D22*
X002892Y002728D02*
X002742Y002578D01*
X001653Y002578D01*
X001553Y002678D01*
X001553Y004028D01*
X001428Y004154D01*
X000774Y004154D01*
X000669Y004259D01*
X000669Y005228D01*
X001338Y005228D02*
X001660Y004906D01*
X002114Y004906D01*
X002114Y005673D02*
X001758Y005673D01*
X001288Y006143D01*
X001253Y006143D01*
X000964Y006523D02*
X001253Y006812D01*
X000964Y006523D02*
X000653Y006523D01*
X002114Y005673D02*
X002499Y005673D01*
X002703Y005878D01*
X002853Y006028D01*
X002853Y007528D01*
X003905Y008580D01*
X003905Y008908D01*
X005069Y007328D02*
X003838Y006112D01*
X003553Y005828D01*
X003553Y004778D01*
X003170Y004394D01*
X004993Y004394D01*
X005454Y004394D01*
X005703Y004643D01*
X006303Y004623D02*
X006303Y005332D01*
X006283Y005312D01*
X005703Y005312D01*
X005605Y003626D02*
X004993Y003626D01*
X005605Y003626D02*
X005703Y003528D01*
X005703Y003062D01*
X005738Y003028D01*
X006153Y003028D01*
X006253Y002928D01*
X006253Y001328D01*
X003170Y004394D02*
X002892Y004116D01*
X002892Y002728D01*
X002892Y002271D01*
X000774Y002154D02*
X000774Y003154D01*
D23*
X001553Y004528D03*
X002703Y005878D03*
X003303Y007178D03*
X004253Y005528D03*
X004203Y005028D03*
X004303Y003828D03*
X005853Y004078D03*
X005853Y006278D03*
X005753Y001628D03*
X006253Y001328D03*
D24*
X004993Y003114D02*
X004979Y003128D01*
X003503Y003128D01*
X003403Y003028D01*
X003403Y002271D01*
X003148Y002271D02*
X003148Y003072D01*
X003446Y003370D01*
X004993Y003370D01*
X005853Y004078D02*
X006249Y004078D01*
X006303Y004032D01*
X004993Y004906D02*
X004326Y004906D01*
X004203Y005028D01*
X004620Y005161D02*
X004253Y005528D01*
X004620Y005161D02*
X004993Y005161D01*
X005853Y006278D02*
X006253Y006278D01*
X006303Y006228D01*
X006303Y005923D01*
X006299Y005928D01*
X004905Y007930D02*
X003303Y006328D01*
X003303Y005078D01*
X002653Y004428D01*
X002653Y003978D01*
X002553Y003878D01*
X002118Y003878D01*
X002114Y003882D01*
X002114Y005417D02*
X002843Y005417D01*
X003103Y005678D01*
X003103Y006978D01*
X003303Y007178D01*
X002603Y006778D02*
X002603Y008606D01*
X002905Y008908D01*
X001603Y007328D02*
X001338Y007428D01*
X001603Y007328D02*
X001653Y007278D01*
X001653Y006278D01*
X001746Y006185D01*
X002114Y006185D01*
X002114Y006441D02*
X002317Y006441D01*
X002603Y006778D01*
X000669Y007428D02*
X000669Y008671D01*
X000905Y008908D01*
X004905Y008908D02*
X004905Y007930D01*
M02*
