G75*
%MOIN*%
%OFA0B0*%
%FSLAX24Y24*%
%IPPOS*%
%LPD*%
%AMOC8*
5,1,8,0,0,1.08239X$1,22.5*
%
%ADD10R,0.0433X0.0394*%
%ADD11R,0.0394X0.0433*%
%ADD12R,0.0315X0.0315*%
%ADD13R,0.0157X0.0551*%
%ADD14R,0.0709X0.0709*%
%ADD15R,0.0550X0.0137*%
D10*
X003740Y005228D03*
X004409Y005228D03*
X004409Y007428D03*
X003740Y007428D03*
X008140Y007328D03*
X008809Y007328D03*
X010433Y007428D03*
X011102Y007428D03*
X011102Y005228D03*
X010433Y005228D03*
X014833Y007328D03*
X015502Y007328D03*
X017126Y007428D03*
X017795Y007428D03*
X017795Y005228D03*
X017126Y005228D03*
X021526Y007328D03*
X022195Y007328D03*
X023819Y007428D03*
X024488Y007428D03*
X024488Y005228D03*
X023819Y005228D03*
X028219Y007328D03*
X028888Y007328D03*
X024488Y015553D03*
X023819Y015553D03*
X023819Y017753D03*
X024488Y017753D03*
X022195Y017653D03*
X021526Y017653D03*
X017795Y017753D03*
X017126Y017753D03*
X015502Y017653D03*
X014833Y017653D03*
X017126Y015553D03*
X017795Y015553D03*
X011102Y015553D03*
X010433Y015553D03*
X010433Y017753D03*
X011102Y017753D03*
X008809Y017653D03*
X008140Y017653D03*
X004409Y017753D03*
X003740Y017753D03*
X003740Y015553D03*
X004409Y015553D03*
X004409Y025879D03*
X003740Y025879D03*
X003740Y028079D03*
X004409Y028079D03*
X008140Y027979D03*
X008809Y027979D03*
X010433Y028079D03*
X011102Y028079D03*
X011102Y025879D03*
X010433Y025879D03*
X014833Y027979D03*
X015502Y027979D03*
X017126Y028079D03*
X017795Y028079D03*
X017795Y025879D03*
X017126Y025879D03*
X021526Y027979D03*
X022195Y027979D03*
X023819Y028079D03*
X024488Y028079D03*
X024488Y025879D03*
X023819Y025879D03*
X028219Y027979D03*
X028888Y027979D03*
X028888Y017653D03*
X028219Y017653D03*
D11*
X028853Y015638D03*
X028853Y014968D03*
X028853Y013388D03*
X028853Y012718D03*
X024403Y016468D03*
X024403Y017138D03*
X022160Y015638D03*
X022160Y014968D03*
X022160Y013388D03*
X022160Y012718D03*
X017710Y016468D03*
X017710Y017138D03*
X015468Y015638D03*
X015468Y014968D03*
X015468Y013388D03*
X015468Y012718D03*
X011018Y016468D03*
X011018Y017138D03*
X008775Y015638D03*
X008775Y014968D03*
X008775Y013388D03*
X008775Y012718D03*
X004325Y016468D03*
X004325Y017138D03*
X008775Y023044D03*
X008775Y023713D03*
X008775Y025294D03*
X008775Y025963D03*
X011018Y026794D03*
X011018Y027463D03*
X015468Y025963D03*
X015468Y025294D03*
X015468Y023713D03*
X015468Y023044D03*
X017710Y026794D03*
X017710Y027463D03*
X022160Y025963D03*
X022160Y025294D03*
X022160Y023713D03*
X022160Y023044D03*
X024403Y026794D03*
X024403Y027463D03*
X028853Y025963D03*
X028853Y025294D03*
X028853Y023713D03*
X028853Y023044D03*
X024403Y006812D03*
X024403Y006143D03*
X022160Y005312D03*
X022160Y004643D03*
X022160Y003062D03*
X022160Y002393D03*
X017710Y006143D03*
X017710Y006812D03*
X015468Y005312D03*
X015468Y004643D03*
X015468Y003062D03*
X015468Y002393D03*
X011018Y006143D03*
X011018Y006812D03*
X008775Y005312D03*
X008775Y004643D03*
X008775Y003062D03*
X008775Y002393D03*
X004325Y006143D03*
X004325Y006812D03*
X004325Y026794D03*
X004325Y027463D03*
X028853Y005312D03*
X028853Y004643D03*
X028853Y003062D03*
X028853Y002393D03*
D12*
X029453Y004032D03*
X029453Y004623D03*
X029453Y005332D03*
X029453Y005923D03*
X023803Y005932D03*
X023803Y006523D03*
X022760Y005923D03*
X022760Y005332D03*
X022760Y004623D03*
X022760Y004032D03*
X017110Y005932D03*
X017110Y006523D03*
X016068Y005923D03*
X016068Y005332D03*
X016068Y004623D03*
X016068Y004032D03*
X010418Y005932D03*
X010418Y006523D03*
X009375Y005923D03*
X009375Y005332D03*
X009375Y004623D03*
X009375Y004032D03*
X003725Y005932D03*
X003725Y006523D03*
X009375Y014358D03*
X009375Y014948D03*
X009375Y015658D03*
X009375Y016248D03*
X010418Y016258D03*
X010418Y016848D03*
X016068Y016248D03*
X016068Y015658D03*
X016068Y014948D03*
X016068Y014358D03*
X017110Y016258D03*
X017110Y016848D03*
X022760Y016248D03*
X022760Y015658D03*
X022760Y014948D03*
X022760Y014358D03*
X023803Y016258D03*
X023803Y016848D03*
X029453Y016248D03*
X029453Y015658D03*
X029453Y014948D03*
X029453Y014358D03*
X029453Y024683D03*
X029453Y025274D03*
X029453Y025983D03*
X029453Y026574D03*
X023803Y026583D03*
X023803Y027174D03*
X022760Y026574D03*
X022760Y025983D03*
X022760Y025274D03*
X022760Y024683D03*
X017110Y026583D03*
X017110Y027174D03*
X016068Y026574D03*
X016068Y025983D03*
X016068Y025274D03*
X016068Y024683D03*
X010418Y026583D03*
X010418Y027174D03*
X009375Y026574D03*
X009375Y025983D03*
X009375Y025274D03*
X009375Y024683D03*
X003725Y026583D03*
X003725Y027174D03*
X003725Y016848D03*
X003725Y016258D03*
D13*
X005963Y012596D03*
X006219Y012596D03*
X006475Y012596D03*
X006731Y012596D03*
X006986Y012596D03*
X012656Y012596D03*
X012912Y012596D03*
X013168Y012596D03*
X013423Y012596D03*
X013679Y012596D03*
X019349Y012596D03*
X019605Y012596D03*
X019860Y012596D03*
X020116Y012596D03*
X020372Y012596D03*
X026042Y012596D03*
X026297Y012596D03*
X026553Y012596D03*
X026809Y012596D03*
X027065Y012596D03*
X027065Y002271D03*
X026809Y002271D03*
X026553Y002271D03*
X026297Y002271D03*
X026042Y002271D03*
X020372Y002271D03*
X020116Y002271D03*
X019860Y002271D03*
X019605Y002271D03*
X019349Y002271D03*
X013679Y002271D03*
X013423Y002271D03*
X013168Y002271D03*
X012912Y002271D03*
X012656Y002271D03*
X006986Y002271D03*
X006731Y002271D03*
X006475Y002271D03*
X006219Y002271D03*
X005963Y002271D03*
X005963Y022922D03*
X006219Y022922D03*
X006475Y022922D03*
X006731Y022922D03*
X006986Y022922D03*
X012656Y022922D03*
X012912Y022922D03*
X013168Y022922D03*
X013423Y022922D03*
X013679Y022922D03*
X019349Y022922D03*
X019605Y022922D03*
X019860Y022922D03*
X020116Y022922D03*
X020372Y022922D03*
X026042Y022922D03*
X026297Y022922D03*
X026553Y022922D03*
X026809Y022922D03*
X027065Y022922D03*
D14*
X027006Y021879D03*
X026101Y021879D03*
X020313Y021879D03*
X019408Y021879D03*
X013620Y021879D03*
X012715Y021879D03*
X006927Y021879D03*
X006022Y021879D03*
X006022Y011553D03*
X006927Y011553D03*
X012715Y011553D03*
X013620Y011553D03*
X019408Y011553D03*
X020313Y011553D03*
X026101Y011553D03*
X027006Y011553D03*
X027006Y001228D03*
X026101Y001228D03*
X020313Y001228D03*
X019408Y001228D03*
X013620Y001228D03*
X012715Y001228D03*
X006927Y001228D03*
X006022Y001228D03*
D15*
X005185Y003114D03*
X005185Y003370D03*
X005185Y003626D03*
X005185Y003882D03*
X005185Y004138D03*
X005185Y004394D03*
X005185Y004650D03*
X005185Y004906D03*
X005185Y005161D03*
X005185Y005417D03*
X005185Y005673D03*
X005185Y005929D03*
X005185Y006185D03*
X005185Y006441D03*
X008064Y006441D03*
X008064Y006185D03*
X008064Y005929D03*
X008064Y005673D03*
X008064Y005417D03*
X008064Y005161D03*
X008064Y004906D03*
X008064Y004650D03*
X008064Y004394D03*
X008064Y004138D03*
X008064Y003882D03*
X008064Y003626D03*
X008064Y003370D03*
X008064Y003114D03*
X011878Y003114D03*
X011878Y003370D03*
X011878Y003626D03*
X011878Y003882D03*
X011878Y004138D03*
X011878Y004394D03*
X011878Y004650D03*
X011878Y004906D03*
X011878Y005161D03*
X011878Y005417D03*
X011878Y005673D03*
X011878Y005929D03*
X011878Y006185D03*
X011878Y006441D03*
X014757Y006441D03*
X014757Y006185D03*
X014757Y005929D03*
X014757Y005673D03*
X014757Y005417D03*
X014757Y005161D03*
X014757Y004906D03*
X014757Y004650D03*
X014757Y004394D03*
X014757Y004138D03*
X014757Y003882D03*
X014757Y003626D03*
X014757Y003370D03*
X014757Y003114D03*
X018571Y003114D03*
X018571Y003370D03*
X018571Y003626D03*
X018571Y003882D03*
X018571Y004138D03*
X018571Y004394D03*
X018571Y004650D03*
X018571Y004906D03*
X018571Y005161D03*
X018571Y005417D03*
X018571Y005673D03*
X018571Y005929D03*
X018571Y006185D03*
X018571Y006441D03*
X021450Y006441D03*
X021450Y006185D03*
X021450Y005929D03*
X021450Y005673D03*
X021450Y005417D03*
X021450Y005161D03*
X021450Y004906D03*
X021450Y004650D03*
X021450Y004394D03*
X021450Y004138D03*
X021450Y003882D03*
X021450Y003626D03*
X021450Y003370D03*
X021450Y003114D03*
X025264Y003114D03*
X025264Y003370D03*
X025264Y003626D03*
X025264Y003882D03*
X025264Y004138D03*
X025264Y004394D03*
X025264Y004650D03*
X025264Y004906D03*
X025264Y005161D03*
X025264Y005417D03*
X025264Y005673D03*
X025264Y005929D03*
X025264Y006185D03*
X025264Y006441D03*
X028143Y006441D03*
X028143Y006185D03*
X028143Y005929D03*
X028143Y005673D03*
X028143Y005417D03*
X028143Y005161D03*
X028143Y004906D03*
X028143Y004650D03*
X028143Y004394D03*
X028143Y004138D03*
X028143Y003882D03*
X028143Y003626D03*
X028143Y003370D03*
X028143Y003114D03*
X028143Y013440D03*
X028143Y013696D03*
X028143Y013952D03*
X028143Y014207D03*
X028143Y014463D03*
X028143Y014719D03*
X028143Y014975D03*
X028143Y015231D03*
X028143Y015487D03*
X028143Y015743D03*
X028143Y015999D03*
X028143Y016255D03*
X028143Y016511D03*
X028143Y016767D03*
X025264Y016767D03*
X025264Y016511D03*
X025264Y016255D03*
X025264Y015999D03*
X025264Y015743D03*
X025264Y015487D03*
X025264Y015231D03*
X025264Y014975D03*
X025264Y014719D03*
X025264Y014463D03*
X025264Y014207D03*
X025264Y013952D03*
X025264Y013696D03*
X025264Y013440D03*
X021450Y013440D03*
X021450Y013696D03*
X021450Y013952D03*
X021450Y014207D03*
X021450Y014463D03*
X021450Y014719D03*
X021450Y014975D03*
X021450Y015231D03*
X021450Y015487D03*
X021450Y015743D03*
X021450Y015999D03*
X021450Y016255D03*
X021450Y016511D03*
X021450Y016767D03*
X018571Y016767D03*
X018571Y016511D03*
X018571Y016255D03*
X018571Y015999D03*
X018571Y015743D03*
X018571Y015487D03*
X018571Y015231D03*
X018571Y014975D03*
X018571Y014719D03*
X018571Y014463D03*
X018571Y014207D03*
X018571Y013952D03*
X018571Y013696D03*
X018571Y013440D03*
X014757Y013440D03*
X014757Y013696D03*
X014757Y013952D03*
X014757Y014207D03*
X014757Y014463D03*
X014757Y014719D03*
X014757Y014975D03*
X014757Y015231D03*
X014757Y015487D03*
X014757Y015743D03*
X014757Y015999D03*
X014757Y016255D03*
X014757Y016511D03*
X014757Y016767D03*
X011878Y016767D03*
X011878Y016511D03*
X011878Y016255D03*
X011878Y015999D03*
X011878Y015743D03*
X011878Y015487D03*
X011878Y015231D03*
X011878Y014975D03*
X011878Y014719D03*
X011878Y014463D03*
X011878Y014207D03*
X011878Y013952D03*
X011878Y013696D03*
X011878Y013440D03*
X008064Y013440D03*
X008064Y013696D03*
X008064Y013952D03*
X008064Y014207D03*
X008064Y014463D03*
X008064Y014719D03*
X008064Y014975D03*
X008064Y015231D03*
X008064Y015487D03*
X008064Y015743D03*
X008064Y015999D03*
X008064Y016255D03*
X008064Y016511D03*
X008064Y016767D03*
X005185Y016767D03*
X005185Y016511D03*
X005185Y016255D03*
X005185Y015999D03*
X005185Y015743D03*
X005185Y015487D03*
X005185Y015231D03*
X005185Y014975D03*
X005185Y014719D03*
X005185Y014463D03*
X005185Y014207D03*
X005185Y013952D03*
X005185Y013696D03*
X005185Y013440D03*
X005185Y023765D03*
X005185Y024021D03*
X005185Y024277D03*
X005185Y024533D03*
X005185Y024789D03*
X005185Y025045D03*
X005185Y025301D03*
X005185Y025557D03*
X005185Y025813D03*
X005185Y026068D03*
X005185Y026324D03*
X005185Y026580D03*
X005185Y026836D03*
X005185Y027092D03*
X008064Y027092D03*
X008064Y026836D03*
X008064Y026580D03*
X008064Y026324D03*
X008064Y026068D03*
X008064Y025813D03*
X008064Y025557D03*
X008064Y025301D03*
X008064Y025045D03*
X008064Y024789D03*
X008064Y024533D03*
X008064Y024277D03*
X008064Y024021D03*
X008064Y023765D03*
X011878Y023765D03*
X011878Y024021D03*
X011878Y024277D03*
X011878Y024533D03*
X011878Y024789D03*
X011878Y025045D03*
X011878Y025301D03*
X011878Y025557D03*
X011878Y025813D03*
X011878Y026068D03*
X011878Y026324D03*
X011878Y026580D03*
X011878Y026836D03*
X011878Y027092D03*
X014757Y027092D03*
X014757Y026836D03*
X014757Y026580D03*
X014757Y026324D03*
X014757Y026068D03*
X014757Y025813D03*
X014757Y025557D03*
X014757Y025301D03*
X014757Y025045D03*
X014757Y024789D03*
X014757Y024533D03*
X014757Y024277D03*
X014757Y024021D03*
X014757Y023765D03*
X018571Y023765D03*
X018571Y024021D03*
X018571Y024277D03*
X018571Y024533D03*
X018571Y024789D03*
X018571Y025045D03*
X018571Y025301D03*
X018571Y025557D03*
X018571Y025813D03*
X018571Y026068D03*
X018571Y026324D03*
X018571Y026580D03*
X018571Y026836D03*
X018571Y027092D03*
X021450Y027092D03*
X021450Y026836D03*
X021450Y026580D03*
X021450Y026324D03*
X021450Y026068D03*
X021450Y025813D03*
X021450Y025557D03*
X021450Y025301D03*
X021450Y025045D03*
X021450Y024789D03*
X021450Y024533D03*
X021450Y024277D03*
X021450Y024021D03*
X021450Y023765D03*
X025264Y023765D03*
X025264Y024021D03*
X025264Y024277D03*
X025264Y024533D03*
X025264Y024789D03*
X025264Y025045D03*
X025264Y025301D03*
X025264Y025557D03*
X025264Y025813D03*
X025264Y026068D03*
X025264Y026324D03*
X025264Y026580D03*
X025264Y026836D03*
X025264Y027092D03*
X028143Y027092D03*
X028143Y026836D03*
X028143Y026580D03*
X028143Y026324D03*
X028143Y026068D03*
X028143Y025813D03*
X028143Y025557D03*
X028143Y025301D03*
X028143Y025045D03*
X028143Y024789D03*
X028143Y024533D03*
X028143Y024277D03*
X028143Y024021D03*
X028143Y023765D03*
M02*
