G75*
%MOIN*%
%OFA0B0*%
%FSLAX24Y24*%
%IPPOS*%
%LPD*%
%AMOC8*
5,1,8,0,0,1.08239X$1,22.5*
%
%ADD10C,0.0820*%
%ADD11R,0.0820X0.0820*%
%ADD12C,0.0820*%
D10*
X000905Y008538D02*
X000905Y009278D01*
X001905Y009278D02*
X001905Y008538D01*
X002905Y008538D02*
X002905Y009278D01*
X003905Y009278D02*
X003905Y008538D01*
X004905Y008538D02*
X004905Y009278D01*
X005905Y009278D02*
X005905Y008538D01*
X007520Y008538D02*
X007520Y009278D01*
X008520Y009278D02*
X008520Y008538D01*
X009520Y008538D02*
X009520Y009278D01*
X010520Y009278D02*
X010520Y008538D01*
X011520Y008538D02*
X011520Y009278D01*
X012520Y009278D02*
X012520Y008538D01*
X014134Y008538D02*
X014134Y009278D01*
X015134Y009278D02*
X015134Y008538D01*
X016134Y008538D02*
X016134Y009278D01*
X017134Y009278D02*
X017134Y008538D01*
X018134Y008538D02*
X018134Y009278D01*
X019134Y009278D02*
X019134Y008538D01*
D11*
X014003Y004154D03*
X007389Y004154D03*
X000774Y004154D03*
D12*
X000774Y001154D03*
X000774Y002154D03*
X000774Y003154D03*
X007389Y003154D03*
X007389Y002154D03*
X007389Y001154D03*
X014003Y001154D03*
X014003Y002154D03*
X014003Y003154D03*
M02*
