G75*
%MOIN*%
%OFA0B0*%
%FSLAX24Y24*%
%IPPOS*%
%LPD*%
%AMOC8*
5,1,8,0,0,1.08239X$1,22.5*
%
%ADD10R,0.0433X0.0394*%
%ADD11R,0.0394X0.0433*%
%ADD12R,0.0315X0.0315*%
%ADD13R,0.0137X0.0550*%
D10*
X005054Y000690D03*
X005723Y000690D03*
X005938Y006006D03*
X006616Y006002D03*
X007285Y006002D03*
X005268Y006006D03*
D11*
X009048Y002670D03*
X009048Y002001D03*
D12*
X009048Y003181D03*
X008616Y003181D03*
X008616Y003772D03*
X009048Y003772D03*
X005642Y001174D03*
X005052Y001174D03*
D13*
X004457Y002081D03*
X004713Y002081D03*
X004968Y002081D03*
X005224Y002081D03*
X005480Y002081D03*
X005736Y002081D03*
X005992Y002081D03*
X006248Y002081D03*
X006504Y002081D03*
X006760Y002081D03*
X007016Y002081D03*
X007272Y002081D03*
X007527Y002081D03*
X007783Y002081D03*
X007783Y004959D03*
X007527Y004959D03*
X007272Y004959D03*
X007016Y004959D03*
X006760Y004959D03*
X006504Y004959D03*
X006248Y004959D03*
X005992Y004959D03*
X005736Y004959D03*
X005480Y004959D03*
X005224Y004959D03*
X004968Y004959D03*
X004713Y004959D03*
X004457Y004959D03*
M02*
