G75*
%MOIN*%
%OFA0B0*%
%FSLAX24Y24*%
%IPPOS*%
%LPD*%
%AMOC8*
5,1,8,0,0,1.08239X$1,22.5*
%
%ADD10C,0.0740*%
%ADD11R,0.0740X0.0740*%
%ADD12C,0.0740*%
%ADD13R,0.0551X0.0138*%
%ADD14R,0.0748X0.0709*%
%ADD15R,0.0748X0.0748*%
%ADD16R,0.0630X0.0551*%
%ADD17C,0.0140*%
%ADD18C,0.0400*%
%ADD19C,0.0100*%
D10*
X002280Y000868D02*
X003020Y000868D01*
X003020Y001868D02*
X002280Y001868D01*
X002280Y002868D02*
X003020Y002868D01*
X003020Y003868D02*
X002280Y003868D01*
X002280Y004868D02*
X003020Y004868D01*
X003020Y005868D02*
X002280Y005868D01*
D11*
X006544Y000741D03*
D12*
X007544Y000741D03*
X008544Y000741D03*
X009544Y000741D03*
D13*
X008027Y003158D03*
X008027Y003414D03*
X008027Y003670D03*
X008027Y003926D03*
X008027Y004182D03*
D14*
X009070Y005245D03*
X009070Y002095D03*
D15*
X009070Y003170D03*
X009070Y004170D03*
D16*
X006370Y003719D03*
X006370Y004821D03*
D17*
X000365Y006375D02*
X000365Y000365D01*
X002081Y000365D01*
X002073Y000368D01*
X001997Y000406D01*
X001929Y000456D01*
X001868Y000516D01*
X001818Y000585D01*
X001780Y000661D01*
X001754Y000742D01*
X001740Y000826D01*
X001740Y000828D01*
X002610Y000828D01*
X002610Y000908D01*
X001740Y000908D01*
X001740Y000911D01*
X001754Y000994D01*
X001780Y001075D01*
X001818Y001151D01*
X001868Y001220D01*
X001929Y001280D01*
X001997Y001330D01*
X002073Y001368D01*
X002074Y001369D01*
X001974Y001410D01*
X001823Y001562D01*
X001740Y001761D01*
X001740Y001975D01*
X001823Y002174D01*
X001974Y002326D01*
X002076Y002368D01*
X001974Y002410D01*
X001823Y002562D01*
X001740Y002761D01*
X001740Y002975D01*
X001823Y003174D01*
X001974Y003326D01*
X002076Y003368D01*
X001974Y003410D01*
X001823Y003562D01*
X001740Y003761D01*
X001740Y003975D01*
X001823Y004174D01*
X001974Y004326D01*
X002076Y004368D01*
X001974Y004410D01*
X001823Y004562D01*
X001740Y004761D01*
X001740Y004975D01*
X001823Y005174D01*
X001974Y005326D01*
X002076Y005368D01*
X001974Y005410D01*
X001823Y005562D01*
X001740Y005761D01*
X001740Y005975D01*
X001823Y006174D01*
X001974Y006326D01*
X002093Y006375D01*
X000365Y006375D01*
X000365Y006264D02*
X001913Y006264D01*
X001802Y006126D02*
X000365Y006126D01*
X000365Y005987D02*
X001745Y005987D01*
X001740Y005849D02*
X000365Y005849D01*
X000365Y005710D02*
X001761Y005710D01*
X001819Y005572D02*
X000365Y005572D01*
X000365Y005433D02*
X001952Y005433D01*
X001943Y005295D02*
X000365Y005295D01*
X000365Y005156D02*
X001815Y005156D01*
X001758Y005018D02*
X000365Y005018D01*
X000365Y004879D02*
X001740Y004879D01*
X001749Y004741D02*
X000365Y004741D01*
X000365Y004602D02*
X001806Y004602D01*
X001921Y004464D02*
X000365Y004464D01*
X000365Y004325D02*
X001974Y004325D01*
X001835Y004187D02*
X000365Y004187D01*
X000365Y004048D02*
X001770Y004048D01*
X001740Y003910D02*
X000365Y003910D01*
X000365Y003771D02*
X001740Y003771D01*
X001793Y003633D02*
X000365Y003633D01*
X000365Y003494D02*
X001891Y003494D01*
X002046Y003356D02*
X000365Y003356D01*
X000365Y003217D02*
X001866Y003217D01*
X001783Y003079D02*
X000365Y003079D01*
X000365Y002940D02*
X001740Y002940D01*
X001740Y002802D02*
X000365Y002802D01*
X000365Y002663D02*
X001781Y002663D01*
X001860Y002525D02*
X000365Y002525D01*
X000365Y002386D02*
X002033Y002386D01*
X001896Y002248D02*
X000365Y002248D01*
X000365Y002109D02*
X001796Y002109D01*
X001740Y001971D02*
X000365Y001971D01*
X000365Y001832D02*
X001740Y001832D01*
X001768Y001694D02*
X000365Y001694D01*
X000365Y001555D02*
X001830Y001555D01*
X001968Y001417D02*
X000365Y001417D01*
X000365Y001278D02*
X001927Y001278D01*
X001813Y001140D02*
X000365Y001140D01*
X000365Y001001D02*
X001756Y001001D01*
X001759Y000724D02*
X000365Y000724D01*
X000365Y000586D02*
X001818Y000586D01*
X001941Y000447D02*
X000365Y000447D01*
X000365Y000863D02*
X002610Y000863D01*
X002650Y000868D02*
X004368Y000868D01*
X004520Y001020D01*
X003560Y000911D02*
X003547Y000994D01*
X003521Y001075D01*
X003482Y001151D01*
X003447Y001200D01*
X005967Y001200D01*
X006004Y001163D01*
X006004Y000365D01*
X003220Y000365D01*
X003228Y000368D01*
X003303Y000406D01*
X003372Y000456D01*
X003432Y000516D01*
X003482Y000585D01*
X003521Y000661D01*
X003547Y000742D01*
X003560Y000826D01*
X003560Y000828D01*
X002690Y000828D01*
X002690Y000908D01*
X003560Y000908D01*
X003560Y000911D01*
X003545Y001001D02*
X006004Y001001D01*
X006004Y000863D02*
X002690Y000863D01*
X003360Y000447D02*
X006004Y000447D01*
X006004Y000586D02*
X003482Y000586D01*
X003541Y000724D02*
X006004Y000724D01*
X006004Y001140D02*
X003488Y001140D01*
X003611Y001640D02*
X003540Y001711D01*
X003560Y001761D01*
X003560Y001975D01*
X003478Y002174D01*
X003326Y002326D01*
X003224Y002368D01*
X003326Y002410D01*
X003478Y002562D01*
X003560Y002761D01*
X003560Y002975D01*
X003478Y003174D01*
X003326Y003326D01*
X003224Y003368D01*
X003326Y003410D01*
X003478Y003562D01*
X003560Y003761D01*
X003560Y003975D01*
X003478Y004174D01*
X003326Y004326D01*
X003224Y004368D01*
X003326Y004410D01*
X003478Y004562D01*
X003514Y004650D01*
X003627Y004650D01*
X005330Y002903D01*
X005306Y002880D01*
X005250Y002744D01*
X005250Y002596D01*
X005306Y002460D01*
X005410Y002356D01*
X005546Y002300D01*
X005694Y002300D01*
X005830Y002356D01*
X005934Y002460D01*
X005990Y002596D01*
X005990Y002744D01*
X005934Y002880D01*
X005841Y002973D01*
X005841Y003008D01*
X005840Y003009D01*
X005840Y003011D01*
X005777Y003075D01*
X003940Y004959D01*
X003940Y004961D01*
X003877Y005025D01*
X003814Y005089D01*
X003812Y005089D01*
X003811Y005090D01*
X003721Y005090D01*
X003632Y005091D01*
X003631Y005090D01*
X003513Y005090D01*
X003478Y005174D01*
X003326Y005326D01*
X003224Y005368D01*
X003326Y005410D01*
X003478Y005562D01*
X003560Y005761D01*
X003560Y005975D01*
X003478Y006174D01*
X003326Y006326D01*
X003207Y006375D01*
X008110Y006375D01*
X008010Y006334D01*
X007906Y006230D01*
X007850Y006094D01*
X007850Y005946D01*
X007906Y005810D01*
X007972Y005745D01*
X007906Y005680D01*
X007850Y005544D01*
X007850Y005396D01*
X007906Y005260D01*
X008010Y005156D01*
X008146Y005100D01*
X008294Y005100D01*
X008300Y005103D01*
X008300Y005067D01*
X008244Y005090D01*
X008096Y005090D01*
X007960Y005034D01*
X007887Y004960D01*
X007322Y004960D01*
X007234Y004923D01*
X006884Y004573D01*
X006855Y004544D01*
X006855Y004753D01*
X006438Y004753D01*
X006438Y004376D01*
X006707Y004376D01*
X006751Y004387D01*
X006780Y004404D01*
X006780Y004140D01*
X006755Y004164D01*
X005985Y004164D01*
X005885Y004065D01*
X005885Y003373D01*
X005985Y003273D01*
X006667Y003273D01*
X006628Y003235D01*
X006572Y003099D01*
X006572Y002952D01*
X006628Y002816D01*
X006732Y002712D01*
X006868Y002655D01*
X007016Y002655D01*
X007152Y002712D01*
X007196Y002756D01*
X007273Y002680D01*
X007273Y001213D01*
X007238Y001199D01*
X007086Y001047D01*
X007084Y001041D01*
X007084Y001181D01*
X006984Y001281D01*
X006613Y001281D01*
X006640Y001346D01*
X006640Y001494D01*
X006584Y001630D01*
X006480Y001734D01*
X006344Y001790D01*
X006196Y001790D01*
X006060Y001734D01*
X005967Y001640D01*
X003611Y001640D01*
X003558Y001694D02*
X006020Y001694D01*
X006520Y001694D02*
X007273Y001694D01*
X007273Y001832D02*
X003560Y001832D01*
X003560Y001971D02*
X007273Y001971D01*
X007273Y002109D02*
X003505Y002109D01*
X003405Y002248D02*
X007273Y002248D01*
X007273Y002386D02*
X005859Y002386D01*
X005960Y002525D02*
X007273Y002525D01*
X007273Y002663D02*
X007034Y002663D01*
X006850Y002663D02*
X005990Y002663D01*
X005966Y002802D02*
X006642Y002802D01*
X006577Y002940D02*
X005873Y002940D01*
X005773Y003079D02*
X006572Y003079D01*
X006621Y003217D02*
X005638Y003217D01*
X005503Y003356D02*
X005902Y003356D01*
X005885Y003494D02*
X005368Y003494D01*
X005233Y003633D02*
X005885Y003633D01*
X005885Y003771D02*
X005098Y003771D01*
X004963Y003910D02*
X005885Y003910D01*
X005885Y004048D02*
X004828Y004048D01*
X004693Y004187D02*
X006780Y004187D01*
X006780Y004325D02*
X004558Y004325D01*
X004423Y004464D02*
X005906Y004464D01*
X005897Y004480D02*
X005919Y004441D01*
X005951Y004410D01*
X005989Y004387D01*
X006033Y004376D01*
X006302Y004376D01*
X006302Y004753D01*
X006438Y004753D01*
X006438Y004889D01*
X006855Y004889D01*
X006855Y005119D01*
X006843Y005162D01*
X006821Y005201D01*
X006789Y005233D01*
X006751Y005255D01*
X006707Y005267D01*
X006438Y005267D01*
X006438Y004889D01*
X006302Y004889D01*
X006302Y004753D01*
X005885Y004753D01*
X005885Y004523D01*
X005897Y004480D01*
X005885Y004602D02*
X004288Y004602D01*
X004153Y004741D02*
X005885Y004741D01*
X005885Y004889D02*
X006302Y004889D01*
X006302Y005267D01*
X006033Y005267D01*
X005989Y005255D01*
X005951Y005233D01*
X005919Y005201D01*
X005897Y005162D01*
X005885Y005119D01*
X005885Y004889D01*
X005885Y005018D02*
X003884Y005018D01*
X004018Y004879D02*
X006302Y004879D01*
X006438Y004879D02*
X007190Y004879D01*
X007051Y004741D02*
X006855Y004741D01*
X006855Y004602D02*
X006913Y004602D01*
X007020Y004370D02*
X007020Y003870D01*
X006870Y003720D01*
X006370Y003720D01*
X006370Y003719D01*
X006855Y003480D02*
X006855Y003390D01*
X006868Y003395D01*
X007016Y003395D01*
X007152Y003339D01*
X007225Y003265D01*
X007314Y003265D01*
X007402Y003229D01*
X007587Y003044D01*
X007581Y003067D01*
X007581Y003158D01*
X008027Y003158D01*
X008027Y003158D01*
X008472Y003158D01*
X008472Y003067D01*
X008461Y003024D01*
X008438Y002985D01*
X008407Y002953D01*
X008368Y002931D01*
X008325Y002919D01*
X008027Y002919D01*
X008027Y003158D01*
X008027Y003158D01*
X008472Y003158D01*
X008472Y003249D01*
X008467Y003269D01*
X008472Y003275D01*
X008472Y003711D01*
X008526Y003765D01*
X008526Y003726D01*
X008582Y003670D01*
X008526Y003614D01*
X008526Y002726D01*
X008626Y002626D01*
X009439Y002626D01*
X009439Y002620D01*
X008626Y002620D01*
X008526Y002520D01*
X008526Y001670D01*
X008626Y001571D01*
X009397Y001571D01*
X009368Y001539D01*
X009341Y001511D01*
X009337Y001503D01*
X009332Y001496D01*
X009319Y001459D01*
X009304Y001422D01*
X009304Y001414D01*
X009301Y001406D01*
X009304Y001366D01*
X009304Y001226D01*
X009238Y001199D01*
X009086Y001047D01*
X009044Y000945D01*
X009002Y001047D01*
X008850Y001199D01*
X008651Y001281D01*
X008437Y001281D01*
X008238Y001199D01*
X008086Y001047D01*
X008059Y000981D01*
X008029Y000981D01*
X008002Y001047D01*
X007850Y001199D01*
X007753Y001239D01*
X007753Y002827D01*
X007716Y002915D01*
X007705Y002926D01*
X007729Y002919D01*
X008027Y002919D01*
X008027Y003158D01*
X008027Y003158D01*
X007581Y003158D01*
X007581Y003249D01*
X007586Y003269D01*
X007581Y003275D01*
X007581Y003450D01*
X007329Y003450D01*
X007200Y003579D01*
X007134Y003645D01*
X007073Y003584D01*
X007006Y003517D01*
X006918Y003480D01*
X006855Y003480D01*
X006952Y003494D02*
X007285Y003494D01*
X007146Y003633D02*
X007122Y003633D01*
X007112Y003356D02*
X007581Y003356D01*
X007581Y003217D02*
X007414Y003217D01*
X007552Y003079D02*
X007581Y003079D01*
X007513Y002779D02*
X007266Y003025D01*
X006942Y003025D01*
X007513Y002779D02*
X007513Y000763D01*
X007544Y000741D01*
X008544Y000741D01*
X008067Y001001D02*
X008021Y001001D01*
X007909Y001140D02*
X008179Y001140D01*
X008430Y001278D02*
X007753Y001278D01*
X007753Y001417D02*
X009304Y001417D01*
X009383Y001555D02*
X007753Y001555D01*
X007753Y001694D02*
X008526Y001694D01*
X008526Y001832D02*
X007753Y001832D01*
X007753Y001971D02*
X008526Y001971D01*
X008526Y002109D02*
X007753Y002109D01*
X007753Y002248D02*
X008526Y002248D01*
X008526Y002386D02*
X007753Y002386D01*
X007753Y002525D02*
X008531Y002525D01*
X008589Y002663D02*
X007753Y002663D01*
X007753Y002802D02*
X008526Y002802D01*
X008526Y002940D02*
X008384Y002940D01*
X008472Y003079D02*
X008526Y003079D01*
X008526Y003217D02*
X008472Y003217D01*
X008472Y003356D02*
X008526Y003356D01*
X008526Y003494D02*
X008472Y003494D01*
X008472Y003633D02*
X008544Y003633D01*
X008027Y003079D02*
X008027Y003079D01*
X008027Y002940D02*
X008027Y002940D01*
X008027Y004182D02*
X008027Y004563D01*
X007870Y004720D01*
X007370Y004720D01*
X007020Y004370D01*
X006438Y004464D02*
X006302Y004464D01*
X006302Y004602D02*
X006438Y004602D01*
X006438Y004741D02*
X006302Y004741D01*
X006302Y005018D02*
X006438Y005018D01*
X006438Y005156D02*
X006302Y005156D01*
X005895Y005156D02*
X003486Y005156D01*
X003358Y005295D02*
X007892Y005295D01*
X007850Y005433D02*
X003349Y005433D01*
X003482Y005572D02*
X007862Y005572D01*
X007937Y005710D02*
X003539Y005710D01*
X003560Y005849D02*
X007891Y005849D01*
X007850Y005987D02*
X003556Y005987D01*
X003498Y006126D02*
X007863Y006126D01*
X007941Y006264D02*
X003388Y006264D01*
X003495Y004602D02*
X003674Y004602D01*
X003809Y004464D02*
X003379Y004464D01*
X003327Y004325D02*
X003944Y004325D01*
X004079Y004187D02*
X003466Y004187D01*
X003530Y004048D02*
X004214Y004048D01*
X004349Y003910D02*
X003560Y003910D01*
X003560Y003771D02*
X004484Y003771D01*
X004619Y003633D02*
X003507Y003633D01*
X003410Y003494D02*
X004754Y003494D01*
X004888Y003356D02*
X003255Y003356D01*
X003435Y003217D02*
X005023Y003217D01*
X005158Y003079D02*
X003518Y003079D01*
X003560Y002940D02*
X005293Y002940D01*
X005274Y002802D02*
X003560Y002802D01*
X003520Y002663D02*
X005250Y002663D01*
X005280Y002525D02*
X003440Y002525D01*
X003268Y002386D02*
X005381Y002386D01*
X006615Y001555D02*
X007273Y001555D01*
X007273Y001417D02*
X006640Y001417D01*
X006987Y001278D02*
X007273Y001278D01*
X007179Y001140D02*
X007084Y001140D01*
X008658Y001278D02*
X009304Y001278D01*
X009179Y001140D02*
X008909Y001140D01*
X009021Y001001D02*
X009067Y001001D01*
X009544Y000741D02*
X009544Y001375D01*
X009679Y001530D01*
X009679Y005911D01*
X009570Y006020D01*
X008220Y006020D01*
X008011Y005156D02*
X006845Y005156D01*
X006855Y005018D02*
X007944Y005018D01*
X008170Y004720D02*
X008027Y004577D01*
X008027Y004182D01*
D18*
X007420Y004270D03*
X008170Y004720D03*
X008220Y005470D03*
X008220Y006020D03*
X006920Y005520D03*
X004420Y005820D03*
X006942Y003025D03*
X007920Y002720D03*
X006270Y001420D03*
X004520Y001020D03*
X005620Y002670D03*
D19*
X005620Y002920D01*
X003720Y004870D01*
X002652Y004870D01*
X002650Y004868D01*
X002650Y001868D02*
X003072Y001868D01*
X003520Y001420D01*
X006270Y001420D01*
X007420Y003670D02*
X008027Y003670D01*
X008027Y003926D02*
X008376Y003926D01*
X008520Y004070D01*
X008520Y005320D01*
X008370Y005470D01*
X008220Y005470D01*
X007420Y004270D02*
X007270Y004120D01*
X007270Y003820D01*
X007420Y003670D01*
M02*
