G75*
%MOIN*%
%OFA0B0*%
%FSLAX24Y24*%
%IPPOS*%
%LPD*%
%AMOC8*
5,1,8,0,0,1.08239X$1,22.5*
%
%ADD10C,0.0080*%
%ADD11R,0.0001X0.0674*%
%ADD12R,0.0001X0.0674*%
%ADD13R,0.0001X0.0687*%
%ADD14R,0.0001X0.0687*%
%ADD15R,0.0001X0.0695*%
%ADD16R,0.0001X0.0694*%
%ADD17R,0.0001X0.0701*%
%ADD18R,0.0001X0.0700*%
%ADD19R,0.0001X0.0705*%
%ADD20R,0.0001X0.0710*%
%ADD21R,0.0001X0.0709*%
%ADD22R,0.0001X0.0713*%
%ADD23R,0.0001X0.0717*%
%ADD24R,0.0001X0.0717*%
%ADD25R,0.0001X0.0720*%
%ADD26R,0.0001X0.0723*%
%ADD27R,0.0001X0.0726*%
%ADD28R,0.0001X0.0725*%
%ADD29R,0.0001X0.0729*%
%ADD30R,0.0001X0.0728*%
%ADD31R,0.0001X0.0731*%
%ADD32R,0.0001X0.0733*%
%ADD33R,0.0001X0.0735*%
%ADD34R,0.0001X0.0737*%
%ADD35R,0.0001X0.0737*%
%ADD36R,0.0001X0.0739*%
%ADD37R,0.0001X0.0741*%
%ADD38R,0.0001X0.0743*%
%ADD39R,0.0001X0.0745*%
%ADD40R,0.0001X0.0744*%
%ADD41R,0.0001X0.0746*%
%ADD42R,0.0001X0.0748*%
%ADD43R,0.0001X0.0747*%
%ADD44R,0.0001X0.0749*%
%ADD45R,0.0001X0.0751*%
%ADD46R,0.0001X0.0750*%
%ADD47R,0.0001X0.0753*%
%ADD48R,0.0001X0.0754*%
%ADD49R,0.0001X0.0755*%
%ADD50R,0.0001X0.0756*%
%ADD51R,0.0001X0.0757*%
%ADD52R,0.0001X0.0757*%
%ADD53R,0.0001X0.0758*%
%ADD54R,0.0001X0.0759*%
%ADD55R,0.0001X0.0761*%
%ADD56R,0.0001X0.0760*%
%ADD57R,0.0001X0.0762*%
%ADD58R,0.0001X0.0763*%
%ADD59R,0.0001X0.0764*%
%ADD60R,0.0001X0.0764*%
%ADD61R,0.0001X0.0765*%
%ADD62R,0.0001X0.0766*%
%ADD63R,0.0001X0.0752*%
%ADD64R,0.0001X0.0747*%
%ADD65R,0.0001X0.0742*%
%ADD66R,0.0001X0.0740*%
%ADD67R,0.0001X0.0738*%
%ADD68R,0.0001X0.0736*%
%ADD69R,0.0001X0.0734*%
%ADD70R,0.0001X0.0732*%
%ADD71R,0.0001X0.0727*%
%ADD72R,0.0001X0.0724*%
%ADD73R,0.0001X0.0721*%
%ADD74R,0.0001X0.0718*%
%ADD75R,0.0001X0.0714*%
%ADD76R,0.0001X0.0711*%
%ADD77R,0.0001X0.0730*%
%ADD78R,0.0001X0.0707*%
%ADD79R,0.0001X0.0702*%
%ADD80R,0.0001X0.0696*%
%ADD81R,0.0001X0.0690*%
%ADD82R,0.0001X0.0680*%
%ADD83R,0.0001X0.0516*%
%ADD84R,0.0001X0.0515*%
%ADD85R,0.0001X0.0514*%
%ADD86R,0.0001X0.0675*%
%ADD87R,0.0001X0.0479*%
%ADD88R,0.0001X0.0513*%
%ADD89R,0.0001X0.0478*%
%ADD90R,0.0001X0.0512*%
%ADD91R,0.0001X0.0511*%
%ADD92R,0.0001X0.0477*%
%ADD93R,0.0001X0.0510*%
%ADD94R,0.0001X0.0476*%
%ADD95R,0.0001X0.0509*%
%ADD96R,0.0001X0.0475*%
%ADD97R,0.0001X0.0508*%
%ADD98R,0.0001X0.0474*%
%ADD99R,0.0001X0.0507*%
%ADD100R,0.0001X0.0506*%
%ADD101R,0.0001X0.0473*%
%ADD102R,0.0001X0.0505*%
%ADD103R,0.0001X0.0472*%
%ADD104R,0.0001X0.0504*%
%ADD105R,0.0001X0.0471*%
%ADD106R,0.0001X0.0503*%
%ADD107R,0.0001X0.0470*%
%ADD108R,0.0001X0.0502*%
%ADD109R,0.0001X0.0469*%
%ADD110R,0.0001X0.0501*%
%ADD111R,0.0001X0.0500*%
%ADD112R,0.0001X0.0468*%
%ADD113R,0.0001X0.0499*%
%ADD114R,0.0001X0.0467*%
%ADD115R,0.0001X0.0498*%
%ADD116R,0.0001X0.0466*%
%ADD117R,0.0001X0.0497*%
%ADD118R,0.0001X0.0465*%
%ADD119R,0.0001X0.0496*%
%ADD120R,0.0001X0.0495*%
%ADD121R,0.0001X0.0464*%
%ADD122R,0.0001X0.0494*%
%ADD123R,0.0001X0.0463*%
%ADD124R,0.0001X0.0493*%
%ADD125R,0.0001X0.0462*%
%ADD126R,0.0001X0.0492*%
%ADD127R,0.0001X0.0461*%
%ADD128R,0.0001X0.0491*%
%ADD129R,0.0001X0.0490*%
%ADD130R,0.0001X0.0460*%
%ADD131R,0.0001X0.0489*%
%ADD132R,0.0001X0.0459*%
%ADD133R,0.0001X0.0488*%
%ADD134R,0.0001X0.0458*%
%ADD135R,0.0001X0.0487*%
%ADD136R,0.0001X0.0457*%
%ADD137R,0.0001X0.0486*%
%ADD138R,0.0001X0.0485*%
%ADD139R,0.0001X0.0456*%
%ADD140R,0.0001X0.0484*%
%ADD141R,0.0001X0.0455*%
%ADD142R,0.0001X0.0483*%
%ADD143R,0.0001X0.0454*%
%ADD144R,0.0001X0.0482*%
%ADD145R,0.0001X0.0453*%
%ADD146R,0.0001X0.0481*%
%ADD147R,0.0001X0.0452*%
%ADD148R,0.0001X0.0480*%
%ADD149R,0.0001X0.0451*%
%ADD150R,0.0001X0.0450*%
%ADD151R,0.0001X0.0449*%
%ADD152R,0.0001X0.0448*%
%ADD153R,0.0001X0.0447*%
%ADD154R,0.0001X0.0446*%
%ADD155R,0.0001X0.0445*%
%ADD156R,0.0001X0.0444*%
%ADD157R,0.0001X0.0443*%
%ADD158R,0.0001X0.0442*%
%ADD159R,0.0001X0.0441*%
%ADD160R,0.0001X0.0440*%
%ADD161R,0.0001X0.0439*%
%ADD162R,0.0001X0.0438*%
%ADD163R,0.0001X0.0437*%
%ADD164R,0.0001X0.0436*%
%ADD165R,0.0001X0.0435*%
%ADD166R,0.0001X0.0434*%
%ADD167R,0.0001X0.0433*%
%ADD168R,0.0001X0.0432*%
%ADD169R,0.0001X0.0431*%
%ADD170R,0.0001X0.0430*%
%ADD171R,0.0001X0.0429*%
%ADD172R,0.0001X0.0428*%
%ADD173R,0.0001X0.0427*%
%ADD174R,0.0001X0.0426*%
%ADD175R,0.0001X0.0425*%
%ADD176R,0.0001X0.0424*%
%ADD177R,0.0001X0.0423*%
%ADD178R,0.0001X0.0422*%
%ADD179R,0.0001X0.0421*%
%ADD180R,0.0001X0.0420*%
%ADD181R,0.0001X0.0419*%
%ADD182R,0.0001X0.0418*%
%ADD183R,0.0001X0.0417*%
%ADD184R,0.0001X0.0416*%
%ADD185R,0.0001X0.0415*%
%ADD186R,0.0001X0.0414*%
%ADD187R,0.0001X0.0413*%
%ADD188R,0.0001X0.0412*%
%ADD189R,0.0001X0.0411*%
%ADD190R,0.0001X0.0410*%
%ADD191R,0.0001X0.0409*%
%ADD192R,0.0001X0.0408*%
%ADD193R,0.0001X0.0407*%
%ADD194R,0.0001X0.0406*%
%ADD195R,0.0001X0.0405*%
%ADD196R,0.0001X0.0404*%
%ADD197R,0.0001X0.0403*%
%ADD198R,0.0001X0.0402*%
%ADD199R,0.0001X0.0401*%
%ADD200R,0.0001X0.0400*%
%ADD201R,0.0001X0.0399*%
%ADD202R,0.0001X0.0398*%
%ADD203R,0.0001X0.0397*%
%ADD204R,0.0001X0.0396*%
%ADD205R,0.0001X0.0395*%
%ADD206R,0.0001X0.0394*%
%ADD207R,0.0001X0.0393*%
%ADD208R,0.0001X0.0392*%
%ADD209R,0.0001X0.0391*%
%ADD210R,0.0001X0.0390*%
%ADD211R,0.0001X0.0389*%
%ADD212R,0.0001X0.0388*%
%ADD213R,0.0001X0.0387*%
%ADD214R,0.0001X0.0386*%
%ADD215R,0.0001X0.0385*%
%ADD216R,0.0001X0.0384*%
%ADD217R,0.0001X0.0383*%
%ADD218R,0.0001X0.0382*%
%ADD219R,0.0001X0.0381*%
%ADD220R,0.0001X0.0380*%
%ADD221R,0.0001X0.0379*%
%ADD222R,0.0001X0.0378*%
%ADD223R,0.0001X0.0377*%
%ADD224R,0.0001X0.0376*%
%ADD225R,0.0001X0.0375*%
%ADD226R,0.0001X0.0374*%
%ADD227R,0.0001X0.0373*%
%ADD228R,0.0001X0.0372*%
%ADD229R,0.0001X0.0371*%
%ADD230R,0.0001X0.0370*%
%ADD231R,0.0001X0.0369*%
%ADD232R,0.0001X0.0368*%
%ADD233R,0.0001X0.0367*%
%ADD234R,0.0001X0.0366*%
%ADD235R,0.0001X0.0365*%
%ADD236R,0.0001X0.0364*%
%ADD237R,0.0001X0.0363*%
%ADD238R,0.0001X0.0362*%
%ADD239R,0.0001X0.0361*%
%ADD240R,0.0001X0.0360*%
%ADD241R,0.0001X0.0359*%
%ADD242R,0.0001X0.0358*%
%ADD243R,0.0001X0.0357*%
%ADD244R,0.0001X0.0356*%
%ADD245R,0.0001X0.0355*%
%ADD246R,0.0001X0.0354*%
%ADD247R,0.0001X0.0353*%
%ADD248R,0.0001X0.0352*%
%ADD249R,0.0001X0.0351*%
%ADD250R,0.0001X0.0350*%
%ADD251R,0.0001X0.0349*%
%ADD252R,0.0001X0.0348*%
%ADD253R,0.0001X0.0347*%
%ADD254R,0.0001X0.0346*%
%ADD255R,0.0001X0.0345*%
%ADD256R,0.0001X0.0344*%
%ADD257R,0.0001X0.0343*%
%ADD258R,0.0001X0.0342*%
%ADD259R,0.0001X0.0341*%
%ADD260R,0.0001X0.0340*%
%ADD261R,0.0001X0.0339*%
%ADD262R,0.0001X0.0338*%
%ADD263R,0.0001X0.0337*%
%ADD264R,0.0001X0.0336*%
%ADD265R,0.0001X0.0335*%
%ADD266R,0.0001X0.0334*%
%ADD267R,0.0001X0.0333*%
%ADD268R,0.0001X0.0332*%
%ADD269R,0.0001X0.0331*%
%ADD270R,0.0001X0.0330*%
%ADD271R,0.0001X0.0329*%
%ADD272R,0.0001X0.0328*%
%ADD273R,0.0001X0.0327*%
%ADD274R,0.0001X0.0326*%
%ADD275R,0.0001X0.0325*%
%ADD276R,0.0001X0.0324*%
%ADD277R,0.0001X0.0323*%
%ADD278R,0.0001X0.0322*%
%ADD279R,0.0001X0.0321*%
%ADD280R,0.0001X0.0320*%
%ADD281R,0.0001X0.0319*%
%ADD282R,0.0001X0.0318*%
%ADD283R,0.0001X0.0317*%
%ADD284R,0.0001X0.0316*%
%ADD285R,0.0001X0.0315*%
%ADD286R,0.0001X0.0314*%
%ADD287R,0.0001X0.0313*%
%ADD288R,0.0001X0.0312*%
%ADD289R,0.0001X0.0311*%
%ADD290R,0.0001X0.0310*%
%ADD291R,0.0001X0.0309*%
%ADD292R,0.0001X0.0308*%
%ADD293R,0.0001X0.0307*%
%ADD294R,0.0001X0.0306*%
%ADD295R,0.0001X0.0305*%
%ADD296R,0.0001X0.0304*%
%ADD297R,0.0001X0.0303*%
%ADD298R,0.0001X0.0302*%
%ADD299R,0.0001X0.0301*%
%ADD300R,0.0001X0.0300*%
%ADD301R,0.0001X0.0299*%
%ADD302R,0.0001X0.0298*%
%ADD303R,0.0001X0.0297*%
%ADD304R,0.0001X0.0296*%
%ADD305R,0.0001X0.0519*%
%ADD306R,0.0001X0.1736*%
%ADD307R,0.0001X0.0643*%
%ADD308R,0.0001X0.0611*%
%ADD309R,0.0001X0.1735*%
%ADD310R,0.0001X0.1734*%
%ADD311R,0.0001X0.1733*%
%ADD312R,0.0001X0.1732*%
%ADD313R,0.0001X0.1731*%
%ADD314R,0.0001X0.1730*%
%ADD315R,0.0001X0.1729*%
%ADD316R,0.0001X0.1728*%
%ADD317R,0.0001X0.1727*%
%ADD318R,0.0001X0.1726*%
%ADD319R,0.0001X0.1725*%
%ADD320R,0.0001X0.1724*%
%ADD321R,0.0001X0.1723*%
%ADD322R,0.0001X0.1722*%
%ADD323R,0.0001X0.1720*%
%ADD324R,0.0001X0.1718*%
%ADD325R,0.0001X0.1716*%
%ADD326R,0.0001X0.1714*%
%ADD327R,0.0001X0.1712*%
%ADD328R,0.0001X0.1711*%
%ADD329R,0.0001X0.1710*%
%ADD330R,0.0001X0.1709*%
%ADD331R,0.0001X0.1708*%
%ADD332R,0.0001X0.1707*%
%ADD333R,0.0001X0.1706*%
%ADD334R,0.0001X0.1705*%
%ADD335R,0.0001X0.1704*%
%ADD336R,0.0001X0.1703*%
%ADD337R,0.0001X0.1702*%
%ADD338R,0.0001X0.1701*%
%ADD339R,0.0001X0.1700*%
%ADD340R,0.0001X0.1699*%
%ADD341R,0.0001X0.1698*%
%ADD342R,0.0001X0.1697*%
%ADD343R,0.0001X0.1696*%
%ADD344R,0.0001X0.1695*%
%ADD345R,0.0001X0.1694*%
%ADD346R,0.0001X0.1693*%
%ADD347R,0.0001X0.1692*%
%ADD348R,0.0001X0.1691*%
%ADD349R,0.0001X0.1690*%
%ADD350R,0.0001X0.1689*%
%ADD351R,0.0001X0.1687*%
%ADD352R,0.0001X0.1685*%
%ADD353R,0.0001X0.1682*%
%ADD354R,0.0001X0.1680*%
%ADD355R,0.0001X0.1678*%
%ADD356R,0.0001X0.1676*%
%ADD357R,0.0001X0.1674*%
%ADD358R,0.0001X0.1672*%
%ADD359R,0.0001X0.1670*%
%ADD360R,0.0001X0.1668*%
%ADD361R,0.0001X0.1666*%
%ADD362R,0.0001X0.1664*%
%ADD363R,0.0001X0.1662*%
%ADD364R,0.0001X0.1660*%
%ADD365R,0.0001X0.1658*%
%ADD366R,0.0001X0.1656*%
%ADD367R,0.0001X0.1654*%
%ADD368R,0.0001X0.1652*%
%ADD369R,0.0001X0.1650*%
%ADD370R,0.0001X0.1648*%
%ADD371R,0.0001X0.1646*%
%ADD372R,0.0001X0.1644*%
%ADD373R,0.0001X0.1642*%
%ADD374R,0.0001X0.1640*%
%ADD375R,0.0001X0.1638*%
%ADD376R,0.0001X0.1636*%
%ADD377R,0.0001X0.1634*%
%ADD378R,0.0001X0.1632*%
%ADD379R,0.0001X0.1630*%
%ADD380R,0.0001X0.1628*%
%ADD381R,0.0001X0.1626*%
%ADD382R,0.0001X0.1624*%
%ADD383R,0.0001X0.1622*%
%ADD384R,0.0001X0.1620*%
%ADD385R,0.0001X0.1617*%
%ADD386R,0.0001X0.1615*%
%ADD387R,0.0001X0.1613*%
%ADD388R,0.0001X0.1611*%
%ADD389R,0.0001X0.1609*%
%ADD390R,0.0001X0.1607*%
%ADD391R,0.0001X0.1605*%
%ADD392R,0.0001X0.1603*%
%ADD393R,0.0001X0.1601*%
%ADD394R,0.0001X0.1599*%
%ADD395R,0.0001X0.1597*%
%ADD396R,0.0001X0.1595*%
%ADD397R,0.0001X0.1593*%
%ADD398R,0.0001X0.1591*%
%ADD399R,0.0001X0.1589*%
%ADD400R,0.0001X0.1587*%
%ADD401R,0.0001X0.1585*%
%ADD402R,0.0001X0.1582*%
%ADD403R,0.0001X0.1580*%
%ADD404R,0.0001X0.1578*%
%ADD405R,0.0001X0.1576*%
%ADD406R,0.0001X0.1574*%
%ADD407R,0.0001X0.1572*%
%ADD408R,0.0001X0.1570*%
%ADD409R,0.0001X0.1568*%
%ADD410R,0.0001X0.1566*%
%ADD411R,0.0001X0.1564*%
%ADD412R,0.0001X0.1562*%
%ADD413R,0.0001X0.1560*%
%ADD414R,0.0001X0.1558*%
%ADD415R,0.0001X0.1556*%
%ADD416R,0.0001X0.1554*%
%ADD417R,0.0001X0.1552*%
%ADD418R,0.0001X0.1550*%
%ADD419R,0.0001X0.1548*%
%ADD420R,0.0001X0.1546*%
%ADD421R,0.0001X0.1544*%
%ADD422R,0.0001X0.1542*%
%ADD423R,0.0001X0.1540*%
%ADD424R,0.0001X0.1538*%
%ADD425R,0.0001X0.1536*%
%ADD426R,0.0001X0.1534*%
%ADD427R,0.0001X0.1532*%
%ADD428R,0.0001X0.1530*%
%ADD429R,0.0001X0.1528*%
%ADD430R,0.0001X0.1526*%
%ADD431R,0.0001X0.1524*%
%ADD432R,0.0001X0.1522*%
%ADD433R,0.0001X0.1520*%
%ADD434R,0.0001X0.1517*%
%ADD435R,0.0001X0.1515*%
%ADD436R,0.0001X0.1513*%
%ADD437R,0.0001X0.1511*%
%ADD438R,0.0001X0.1509*%
%ADD439R,0.0001X0.1507*%
%ADD440R,0.0001X0.1505*%
%ADD441R,0.0001X0.1503*%
%ADD442R,0.0001X0.1501*%
%ADD443R,0.0001X0.1499*%
%ADD444R,0.0001X0.1497*%
%ADD445R,0.0001X0.1495*%
%ADD446R,0.0001X0.1493*%
%ADD447R,0.0001X0.1491*%
%ADD448R,0.0001X0.1489*%
%ADD449R,0.0001X0.1487*%
%ADD450R,0.0001X0.1485*%
%ADD451R,0.0001X0.1482*%
%ADD452R,0.0001X0.1480*%
%ADD453R,0.0001X0.1478*%
%ADD454R,0.0001X0.1476*%
%ADD455R,0.0001X0.1474*%
%ADD456R,0.0001X0.1472*%
%ADD457R,0.0001X0.1470*%
%ADD458R,0.0001X0.1468*%
%ADD459R,0.0001X0.1466*%
%ADD460R,0.0001X0.1464*%
%ADD461R,0.0001X0.1462*%
%ADD462R,0.0001X0.1460*%
%ADD463R,0.0001X0.1458*%
%ADD464R,0.0001X0.1456*%
%ADD465R,0.0001X0.1454*%
%ADD466R,0.0001X0.1452*%
%ADD467R,0.0001X0.1450*%
%ADD468R,0.0001X0.1448*%
%ADD469R,0.0001X0.1446*%
%ADD470R,0.0001X0.1444*%
%ADD471R,0.0001X0.1442*%
%ADD472R,0.0001X0.1440*%
%ADD473R,0.0001X0.1438*%
%ADD474R,0.0001X0.1436*%
%ADD475R,0.0001X0.1434*%
%ADD476R,0.0001X0.1432*%
%ADD477R,0.0001X0.1430*%
%ADD478R,0.0001X0.1428*%
%ADD479R,0.0001X0.1426*%
%ADD480R,0.0001X0.1424*%
%ADD481R,0.0001X0.1422*%
%ADD482R,0.0001X0.1420*%
%ADD483R,0.0001X0.1418*%
%ADD484R,0.0001X0.1415*%
%ADD485R,0.0001X0.1413*%
%ADD486R,0.0001X0.1411*%
%ADD487R,0.0001X0.1409*%
%ADD488R,0.0001X0.1407*%
%ADD489R,0.0001X0.1405*%
%ADD490R,0.0001X0.1403*%
%ADD491R,0.0001X0.1401*%
%ADD492R,0.0001X0.1399*%
%ADD493R,0.0001X0.1397*%
%ADD494R,0.0001X0.1395*%
%ADD495R,0.0001X0.1393*%
%ADD496R,0.0001X0.1391*%
%ADD497R,0.0001X0.1389*%
%ADD498R,0.0001X0.1387*%
%ADD499R,0.0001X0.1384*%
%ADD500R,0.0001X0.1382*%
%ADD501R,0.0001X0.1380*%
%ADD502R,0.0001X0.1378*%
%ADD503R,0.0001X0.1376*%
%ADD504R,0.0001X0.1374*%
%ADD505R,0.0001X0.1372*%
%ADD506R,0.0001X0.1370*%
%ADD507R,0.0001X0.1368*%
%ADD508R,0.0001X0.1366*%
%ADD509R,0.0001X0.1364*%
%ADD510R,0.0001X0.1362*%
%ADD511R,0.0001X0.1360*%
%ADD512R,0.0001X0.1358*%
%ADD513R,0.0001X0.1356*%
%ADD514R,0.0001X0.1354*%
%ADD515R,0.0001X0.1352*%
%ADD516R,0.0001X0.1350*%
%ADD517R,0.0001X0.1348*%
%ADD518R,0.0001X0.1346*%
%ADD519R,0.0001X0.1344*%
%ADD520R,0.0001X0.1342*%
%ADD521R,0.0001X0.1340*%
%ADD522R,0.0001X0.1338*%
%ADD523R,0.0001X0.1336*%
%ADD524R,0.0001X0.1334*%
%ADD525R,0.0001X0.1332*%
%ADD526R,0.0001X0.1330*%
%ADD527R,0.0001X0.1328*%
%ADD528R,0.0001X0.1326*%
%ADD529R,0.0001X0.1324*%
%ADD530R,0.0001X0.1322*%
%ADD531R,0.0001X0.1320*%
%ADD532R,0.0001X0.1318*%
%ADD533R,0.0001X0.1315*%
%ADD534R,0.0001X0.1313*%
%ADD535R,0.0001X0.1311*%
%ADD536R,0.0001X0.1309*%
%ADD537R,0.0001X0.1307*%
%ADD538R,0.0001X0.1305*%
%ADD539R,0.0001X0.1303*%
%ADD540R,0.0001X0.1301*%
%ADD541R,0.0001X0.1299*%
%ADD542R,0.0001X0.1297*%
%ADD543R,0.0001X0.1295*%
%ADD544R,0.0001X0.1293*%
%ADD545R,0.0001X0.1291*%
%ADD546R,0.0001X0.1289*%
%ADD547R,0.0001X0.1287*%
%ADD548R,0.0001X0.1284*%
%ADD549R,0.0001X0.1282*%
%ADD550R,0.0001X0.1280*%
%ADD551R,0.0001X0.1278*%
%ADD552R,0.0001X0.1276*%
%ADD553R,0.0001X0.1274*%
%ADD554R,0.0001X0.1272*%
%ADD555R,0.0001X0.1270*%
%ADD556R,0.0001X0.1268*%
%ADD557R,0.0001X0.1266*%
%ADD558R,0.0001X0.1264*%
%ADD559R,0.0001X0.1262*%
%ADD560R,0.0001X0.1260*%
%ADD561R,0.0001X0.1258*%
%ADD562R,0.0001X0.1256*%
%ADD563R,0.0001X0.1254*%
%ADD564R,0.0001X0.1252*%
%ADD565R,0.0001X0.1250*%
%ADD566R,0.0001X0.1248*%
%ADD567R,0.0001X0.1246*%
%ADD568R,0.0001X0.1244*%
%ADD569R,0.0001X0.1242*%
%ADD570R,0.0001X0.1240*%
%ADD571R,0.0001X0.1238*%
%ADD572R,0.0001X0.1236*%
%ADD573R,0.0001X0.1234*%
%ADD574R,0.0001X0.1232*%
%ADD575R,0.0001X0.1230*%
%ADD576R,0.0001X0.1228*%
%ADD577R,0.0001X0.1226*%
%ADD578R,0.0001X0.1224*%
%ADD579R,0.0001X0.1222*%
%ADD580R,0.0001X0.1220*%
%ADD581R,0.0001X0.1218*%
%ADD582R,0.0001X0.1215*%
%ADD583R,0.0001X0.1213*%
%ADD584R,0.0001X0.1211*%
%ADD585R,0.0001X0.1209*%
%ADD586R,0.0001X0.1207*%
%ADD587R,0.0001X0.1205*%
%ADD588R,0.0001X0.1203*%
%ADD589R,0.0001X0.1201*%
%ADD590R,0.0001X0.1199*%
%ADD591R,0.0001X0.1197*%
%ADD592R,0.0001X0.1195*%
%ADD593R,0.0001X0.1193*%
%ADD594R,0.0001X0.1191*%
%ADD595R,0.0001X0.1189*%
%ADD596R,0.0001X0.1187*%
%ADD597R,0.0001X0.1184*%
%ADD598R,0.0001X0.1182*%
%ADD599R,0.0001X0.1180*%
%ADD600R,0.0001X0.1178*%
%ADD601R,0.0001X0.1176*%
%ADD602R,0.0001X0.1174*%
%ADD603R,0.0001X0.1172*%
%ADD604R,0.0001X0.1170*%
%ADD605R,0.0001X0.1168*%
%ADD606R,0.0001X0.1166*%
%ADD607R,0.0001X0.1164*%
%ADD608R,0.0001X0.1162*%
%ADD609R,0.0001X0.1160*%
%ADD610R,0.0001X0.1158*%
%ADD611R,0.0001X0.1156*%
%ADD612R,0.0001X0.1154*%
%ADD613R,0.0001X0.1152*%
%ADD614R,0.0001X0.1150*%
%ADD615R,0.0001X0.1148*%
%ADD616R,0.0001X0.1146*%
%ADD617R,0.0001X0.1142*%
%ADD618R,0.0001X0.1136*%
%ADD619R,0.0001X0.1131*%
%ADD620R,0.0001X0.1126*%
%ADD621R,0.0001X0.1120*%
%ADD622R,0.0001X0.1114*%
%ADD623R,0.0001X0.1108*%
%ADD624R,0.0001X0.1102*%
%ADD625R,0.0001X0.1095*%
%ADD626R,0.0001X0.1089*%
%ADD627R,0.0001X0.1083*%
%ADD628R,0.0001X0.1075*%
%ADD629R,0.0001X0.1067*%
%ADD630R,0.0001X0.1060*%
%ADD631R,0.0001X0.1052*%
%ADD632R,0.0001X0.1044*%
%ADD633R,0.0001X0.1036*%
%ADD634R,0.0001X0.1026*%
%ADD635R,0.0001X0.1016*%
%ADD636R,0.0001X0.1005*%
%ADD637R,0.0001X0.0993*%
%ADD638R,0.0001X0.0977*%
%ADD639R,0.0001X0.0954*%
%ADD640C,0.0000*%
%ADD641C,0.0050*%
D10*
X005898Y003443D02*
X005898Y003876D01*
X005898Y003443D02*
X006055Y003286D01*
X006685Y003286D01*
X006842Y003443D01*
X006842Y003876D01*
X007948Y004536D02*
X008499Y004536D01*
X008499Y002804D01*
X007948Y002804D01*
X007948Y002331D01*
X008578Y002331D01*
X009641Y002331D02*
X009641Y005009D01*
X008578Y005009D02*
X007948Y005009D01*
X007948Y004536D01*
X006842Y004664D02*
X006842Y005254D01*
X005898Y005254D01*
X005898Y004664D01*
D11*
X005515Y004159D03*
D12*
X005515Y002925D03*
D13*
X005514Y004159D03*
D14*
X005514Y002926D03*
X005010Y002926D03*
D15*
X005513Y004159D03*
D16*
X005513Y002925D03*
X005011Y002925D03*
D17*
X005512Y004159D03*
D18*
X005512Y002925D03*
X005012Y002925D03*
D19*
X005013Y002926D03*
X005511Y002926D03*
X005511Y004159D03*
D20*
X005510Y004159D03*
D21*
X005510Y002926D03*
X005014Y002926D03*
D22*
X005015Y002926D03*
X005509Y002926D03*
X005509Y004159D03*
D23*
X005508Y004159D03*
D24*
X005508Y002926D03*
X005016Y002926D03*
D25*
X005017Y002925D03*
X005507Y002925D03*
X005507Y004159D03*
D26*
X005506Y004159D03*
X005506Y002926D03*
X005018Y002926D03*
D27*
X005019Y002925D03*
X005505Y004159D03*
D28*
X005505Y002926D03*
D29*
X005504Y004159D03*
X005027Y004159D03*
D30*
X005020Y002925D03*
X005504Y002925D03*
D31*
X005503Y002926D03*
X005503Y004159D03*
D32*
X005502Y004159D03*
X005502Y002926D03*
X005022Y002926D03*
D33*
X005023Y002926D03*
X005501Y002926D03*
X005501Y004159D03*
D34*
X005500Y004159D03*
D35*
X005500Y002926D03*
X005024Y002926D03*
D36*
X005025Y002926D03*
X005499Y002926D03*
X005499Y004159D03*
D37*
X005498Y004159D03*
X005498Y002926D03*
X005026Y002926D03*
D38*
X005497Y002926D03*
X005497Y004159D03*
X005034Y004159D03*
D39*
X005035Y004159D03*
X005496Y004159D03*
D40*
X005496Y002925D03*
X005028Y002925D03*
D41*
X005029Y002925D03*
X005495Y002925D03*
X005495Y004159D03*
D42*
X005494Y004159D03*
X005037Y004159D03*
D43*
X005030Y002926D03*
X005494Y002926D03*
D44*
X005493Y002926D03*
X005031Y002926D03*
X005038Y004159D03*
X005493Y004159D03*
D45*
X005492Y004159D03*
X005491Y004159D03*
X005039Y004159D03*
X005033Y002926D03*
X005491Y002926D03*
D46*
X005492Y002925D03*
X005032Y002925D03*
D47*
X005035Y002926D03*
X005489Y002926D03*
X005490Y002926D03*
X005490Y004159D03*
X005041Y004159D03*
D48*
X005042Y004159D03*
X005489Y004159D03*
D49*
X005488Y004159D03*
X005043Y004159D03*
X005036Y002926D03*
X005488Y002926D03*
D50*
X005487Y002925D03*
X005037Y002925D03*
X005044Y004159D03*
X005487Y004159D03*
D51*
X005486Y004159D03*
X005045Y004159D03*
D52*
X005039Y002926D03*
X005038Y002926D03*
X005485Y002926D03*
X005486Y002926D03*
D53*
X005485Y004159D03*
X005046Y004159D03*
D54*
X005047Y004159D03*
X005483Y004159D03*
X005484Y004159D03*
X005483Y002926D03*
X005484Y002926D03*
X005041Y002926D03*
X005040Y002926D03*
D55*
X005043Y002926D03*
X005044Y002926D03*
X005480Y002926D03*
X005481Y002926D03*
X005480Y004159D03*
X005481Y004159D03*
X005482Y004159D03*
X005050Y004159D03*
X005049Y004159D03*
D56*
X005048Y004159D03*
X005042Y002925D03*
X005482Y002925D03*
D57*
X005479Y002925D03*
X005045Y002925D03*
X005051Y004159D03*
X005479Y004159D03*
D58*
X005478Y004159D03*
X005477Y004159D03*
X005054Y004159D03*
X005053Y004159D03*
X005052Y004159D03*
X005048Y002926D03*
X005047Y002926D03*
X005046Y002926D03*
X005476Y002926D03*
X005477Y002926D03*
X005478Y002926D03*
D59*
X005476Y004159D03*
X005475Y004159D03*
X005055Y004159D03*
D60*
X005049Y002925D03*
X005475Y002925D03*
D61*
X005474Y002926D03*
X005473Y002926D03*
X005472Y002926D03*
X005471Y002926D03*
X005470Y002926D03*
X005054Y002926D03*
X005053Y002926D03*
X005052Y002926D03*
X005051Y002926D03*
X005050Y002926D03*
X005056Y004159D03*
X005057Y004159D03*
X005058Y004159D03*
X005059Y004159D03*
X005060Y004159D03*
X005471Y004159D03*
X005472Y004159D03*
X005473Y004159D03*
X005474Y004159D03*
D62*
X005470Y004159D03*
X005469Y004159D03*
X005468Y004159D03*
X005467Y004159D03*
X005466Y004159D03*
X005465Y004159D03*
X005464Y004159D03*
X005463Y004159D03*
X005462Y004159D03*
X005461Y004159D03*
X005460Y004159D03*
X005459Y004159D03*
X005458Y004159D03*
X005457Y004159D03*
X005456Y004159D03*
X005455Y004159D03*
X005454Y004159D03*
X005453Y004159D03*
X005452Y004159D03*
X005451Y004159D03*
X005450Y004159D03*
X005449Y004159D03*
X005448Y004159D03*
X005447Y004159D03*
X005446Y004159D03*
X005445Y004159D03*
X005444Y004159D03*
X005443Y004159D03*
X005442Y004159D03*
X005441Y004159D03*
X005440Y004159D03*
X005439Y004159D03*
X005438Y004159D03*
X005437Y004159D03*
X005436Y004159D03*
X005435Y004159D03*
X005434Y004159D03*
X005433Y004159D03*
X005432Y004159D03*
X005431Y004159D03*
X005430Y004159D03*
X005429Y004159D03*
X005428Y004159D03*
X005427Y004159D03*
X005426Y004159D03*
X005425Y004159D03*
X005424Y004159D03*
X005423Y004159D03*
X005422Y004159D03*
X005421Y004159D03*
X005420Y004159D03*
X005419Y004159D03*
X005418Y004159D03*
X005417Y004159D03*
X005416Y004159D03*
X005415Y004159D03*
X005414Y004159D03*
X005413Y004159D03*
X005412Y004159D03*
X005411Y004159D03*
X005410Y004159D03*
X005409Y004159D03*
X005408Y004159D03*
X005407Y004159D03*
X005406Y004159D03*
X005405Y004159D03*
X005404Y004159D03*
X005403Y004159D03*
X005402Y004159D03*
X005401Y004159D03*
X005400Y004159D03*
X005399Y004159D03*
X005398Y004159D03*
X005397Y004159D03*
X005396Y004159D03*
X005395Y004159D03*
X005394Y004159D03*
X005393Y004159D03*
X005392Y004159D03*
X005391Y004159D03*
X005390Y004159D03*
X005389Y004159D03*
X005388Y004159D03*
X005387Y004159D03*
X005386Y004159D03*
X005385Y004159D03*
X005384Y004159D03*
X005383Y004159D03*
X005382Y004159D03*
X005381Y004159D03*
X005380Y004159D03*
X005379Y004159D03*
X005378Y004159D03*
X005377Y004159D03*
X005376Y004159D03*
X005375Y004159D03*
X005374Y004159D03*
X005373Y004159D03*
X005372Y004159D03*
X005371Y004159D03*
X005370Y004159D03*
X005369Y004159D03*
X005368Y004159D03*
X005367Y004159D03*
X005366Y004159D03*
X005365Y004159D03*
X005364Y004159D03*
X005363Y004159D03*
X005362Y004159D03*
X005361Y004159D03*
X005360Y004159D03*
X005359Y004159D03*
X005358Y004159D03*
X005357Y004159D03*
X005356Y004159D03*
X005355Y004159D03*
X005354Y004159D03*
X005353Y004159D03*
X005352Y004159D03*
X005351Y004159D03*
X005350Y004159D03*
X005349Y004159D03*
X005348Y004159D03*
X005347Y004159D03*
X005346Y004159D03*
X005345Y004159D03*
X005344Y004159D03*
X005343Y004159D03*
X005342Y004159D03*
X005341Y004159D03*
X005340Y004159D03*
X005339Y004159D03*
X005338Y004159D03*
X005337Y004159D03*
X005336Y004159D03*
X005335Y004159D03*
X005334Y004159D03*
X005333Y004159D03*
X005332Y004159D03*
X005331Y004159D03*
X005330Y004159D03*
X005329Y004159D03*
X005328Y004159D03*
X005327Y004159D03*
X005326Y004159D03*
X005325Y004159D03*
X005324Y004159D03*
X005323Y004159D03*
X005322Y004159D03*
X005321Y004159D03*
X005320Y004159D03*
X005319Y004159D03*
X005318Y004159D03*
X005317Y004159D03*
X005316Y004159D03*
X005315Y004159D03*
X005314Y004159D03*
X005313Y004159D03*
X005312Y004159D03*
X005311Y004159D03*
X005310Y004159D03*
X005309Y004159D03*
X005308Y004159D03*
X005307Y004159D03*
X005306Y004159D03*
X005305Y004159D03*
X005304Y004159D03*
X005303Y004159D03*
X005302Y004159D03*
X005301Y004159D03*
X005300Y004159D03*
X005299Y004159D03*
X005298Y004159D03*
X005297Y004159D03*
X005296Y004159D03*
X005295Y004159D03*
X005294Y004159D03*
X005293Y004159D03*
X005292Y004159D03*
X005291Y004159D03*
X005290Y004159D03*
X005289Y004159D03*
X005288Y004159D03*
X005287Y004159D03*
X005286Y004159D03*
X005285Y004159D03*
X005284Y004159D03*
X005283Y004159D03*
X005282Y004159D03*
X005281Y004159D03*
X005280Y004159D03*
X005279Y004159D03*
X005278Y004159D03*
X005277Y004159D03*
X005276Y004159D03*
X005275Y004159D03*
X005274Y004159D03*
X005273Y004159D03*
X005272Y004159D03*
X005271Y004159D03*
X005270Y004159D03*
X005269Y004159D03*
X005268Y004159D03*
X005267Y004159D03*
X005266Y004159D03*
X005265Y004159D03*
X005264Y004159D03*
X005263Y004159D03*
X005262Y004159D03*
X005261Y004159D03*
X005260Y004159D03*
X005259Y004159D03*
X005258Y004159D03*
X005257Y004159D03*
X005256Y004159D03*
X005255Y004159D03*
X005254Y004159D03*
X005253Y004159D03*
X005252Y004159D03*
X005251Y004159D03*
X005250Y004159D03*
X005249Y004159D03*
X005248Y004159D03*
X005247Y004159D03*
X005246Y004159D03*
X005245Y004159D03*
X005244Y004159D03*
X005243Y004159D03*
X005242Y004159D03*
X005241Y004159D03*
X005240Y004159D03*
X005239Y004159D03*
X005238Y004159D03*
X005237Y004159D03*
X005236Y004159D03*
X005235Y004159D03*
X005234Y004159D03*
X005233Y004159D03*
X005232Y004159D03*
X005231Y004159D03*
X005230Y004159D03*
X005229Y004159D03*
X005228Y004159D03*
X005227Y004159D03*
X005226Y004159D03*
X005225Y004159D03*
X005224Y004159D03*
X005223Y004159D03*
X005222Y004159D03*
X005221Y004159D03*
X005220Y004159D03*
X005219Y004159D03*
X005218Y004159D03*
X005217Y004159D03*
X005216Y004159D03*
X005215Y004159D03*
X005214Y004159D03*
X005213Y004159D03*
X005212Y004159D03*
X005211Y004159D03*
X005210Y004159D03*
X005209Y004159D03*
X005208Y004159D03*
X005207Y004159D03*
X005206Y004159D03*
X005205Y004159D03*
X005204Y004159D03*
X005203Y004159D03*
X005202Y004159D03*
X005201Y004159D03*
X005200Y004159D03*
X005199Y004159D03*
X005198Y004159D03*
X005197Y004159D03*
X005196Y004159D03*
X005195Y004159D03*
X005194Y004159D03*
X005193Y004159D03*
X005192Y004159D03*
X005191Y004159D03*
X005190Y004159D03*
X005189Y004159D03*
X005188Y004159D03*
X005187Y004159D03*
X005186Y004159D03*
X005185Y004159D03*
X005184Y004159D03*
X005183Y004159D03*
X005182Y004159D03*
X005181Y004159D03*
X005180Y004159D03*
X005179Y004159D03*
X005178Y004159D03*
X005177Y004159D03*
X005176Y004159D03*
X005175Y004159D03*
X005174Y004159D03*
X005173Y004159D03*
X005172Y004159D03*
X005171Y004159D03*
X005170Y004159D03*
X005169Y004159D03*
X005168Y004159D03*
X005167Y004159D03*
X005166Y004159D03*
X005165Y004159D03*
X005164Y004159D03*
X005163Y004159D03*
X005162Y004159D03*
X005161Y004159D03*
X005160Y004159D03*
X005159Y004159D03*
X005158Y004159D03*
X005157Y004159D03*
X005156Y004159D03*
X005155Y004159D03*
X005154Y004159D03*
X005153Y004159D03*
X005152Y004159D03*
X005151Y004159D03*
X005150Y004159D03*
X005149Y004159D03*
X005148Y004159D03*
X005147Y004159D03*
X005146Y004159D03*
X005145Y004159D03*
X005144Y004159D03*
X005143Y004159D03*
X005142Y004159D03*
X005141Y004159D03*
X005140Y004159D03*
X005139Y004159D03*
X005138Y004159D03*
X005137Y004159D03*
X005136Y004159D03*
X005135Y004159D03*
X005134Y004159D03*
X005133Y004159D03*
X005132Y004159D03*
X005131Y004159D03*
X005130Y004159D03*
X005129Y004159D03*
X005128Y004159D03*
X005127Y004159D03*
X005126Y004159D03*
X005125Y004159D03*
X005124Y004159D03*
X005123Y004159D03*
X005122Y004159D03*
X005121Y004159D03*
X005120Y004159D03*
X005119Y004159D03*
X005118Y004159D03*
X005117Y004159D03*
X005116Y004159D03*
X005115Y004159D03*
X005114Y004159D03*
X005113Y004159D03*
X005112Y004159D03*
X005111Y004159D03*
X005110Y004159D03*
X005109Y004159D03*
X005108Y004159D03*
X005107Y004159D03*
X005106Y004159D03*
X005105Y004159D03*
X005104Y004159D03*
X005103Y004159D03*
X005102Y004159D03*
X005101Y004159D03*
X005100Y004159D03*
X005099Y004159D03*
X005098Y004159D03*
X005097Y004159D03*
X005096Y004159D03*
X005095Y004159D03*
X005094Y004159D03*
X005093Y004159D03*
X005092Y004159D03*
X005091Y004159D03*
X005090Y004159D03*
X005089Y004159D03*
X005088Y004159D03*
X005087Y004159D03*
X005086Y004159D03*
X005085Y004159D03*
X005084Y004159D03*
X005083Y004159D03*
X005082Y004159D03*
X005081Y004159D03*
X005080Y004159D03*
X005079Y004159D03*
X005078Y004159D03*
X005077Y004159D03*
X005076Y004159D03*
X005075Y004159D03*
X005074Y004159D03*
X005073Y004159D03*
X005072Y004159D03*
X005071Y004159D03*
X005070Y004159D03*
X005069Y004159D03*
X005068Y004159D03*
X005067Y004159D03*
X005066Y004159D03*
X005065Y004159D03*
X005064Y004159D03*
X005063Y004159D03*
X005062Y004159D03*
X005061Y004159D03*
X005060Y002925D03*
X005059Y002925D03*
X005058Y002925D03*
X005057Y002925D03*
X005056Y002925D03*
X005055Y002925D03*
X005061Y002925D03*
X005062Y002925D03*
X005063Y002925D03*
X005064Y002925D03*
X005065Y002925D03*
X005066Y002925D03*
X005067Y002925D03*
X005068Y002925D03*
X005069Y002925D03*
X005070Y002925D03*
X005071Y002925D03*
X005072Y002925D03*
X005073Y002925D03*
X005074Y002925D03*
X005075Y002925D03*
X005076Y002925D03*
X005077Y002925D03*
X005078Y002925D03*
X005079Y002925D03*
X005080Y002925D03*
X005081Y002925D03*
X005082Y002925D03*
X005083Y002925D03*
X005084Y002925D03*
X005085Y002925D03*
X005086Y002925D03*
X005087Y002925D03*
X005088Y002925D03*
X005089Y002925D03*
X005090Y002925D03*
X005091Y002925D03*
X005092Y002925D03*
X005093Y002925D03*
X005094Y002925D03*
X005095Y002925D03*
X005096Y002925D03*
X005097Y002925D03*
X005098Y002925D03*
X005099Y002925D03*
X005100Y002925D03*
X005101Y002925D03*
X005102Y002925D03*
X005103Y002925D03*
X005104Y002925D03*
X005105Y002925D03*
X005106Y002925D03*
X005107Y002925D03*
X005108Y002925D03*
X005109Y002925D03*
X005110Y002925D03*
X005111Y002925D03*
X005112Y002925D03*
X005113Y002925D03*
X005114Y002925D03*
X005115Y002925D03*
X005116Y002925D03*
X005117Y002925D03*
X005118Y002925D03*
X005119Y002925D03*
X005120Y002925D03*
X005121Y002925D03*
X005122Y002925D03*
X005123Y002925D03*
X005124Y002925D03*
X005125Y002925D03*
X005126Y002925D03*
X005127Y002925D03*
X005128Y002925D03*
X005129Y002925D03*
X005130Y002925D03*
X005131Y002925D03*
X005132Y002925D03*
X005133Y002925D03*
X005134Y002925D03*
X005135Y002925D03*
X005136Y002925D03*
X005137Y002925D03*
X005138Y002925D03*
X005139Y002925D03*
X005140Y002925D03*
X005141Y002925D03*
X005142Y002925D03*
X005143Y002925D03*
X005144Y002925D03*
X005145Y002925D03*
X005146Y002925D03*
X005147Y002925D03*
X005148Y002925D03*
X005149Y002925D03*
X005150Y002925D03*
X005151Y002925D03*
X005152Y002925D03*
X005153Y002925D03*
X005154Y002925D03*
X005155Y002925D03*
X005156Y002925D03*
X005157Y002925D03*
X005158Y002925D03*
X005159Y002925D03*
X005160Y002925D03*
X005161Y002925D03*
X005162Y002925D03*
X005163Y002925D03*
X005164Y002925D03*
X005165Y002925D03*
X005166Y002925D03*
X005167Y002925D03*
X005168Y002925D03*
X005169Y002925D03*
X005170Y002925D03*
X005171Y002925D03*
X005172Y002925D03*
X005173Y002925D03*
X005174Y002925D03*
X005175Y002925D03*
X005176Y002925D03*
X005177Y002925D03*
X005178Y002925D03*
X005179Y002925D03*
X005180Y002925D03*
X005181Y002925D03*
X005182Y002925D03*
X005183Y002925D03*
X005184Y002925D03*
X005185Y002925D03*
X005186Y002925D03*
X005187Y002925D03*
X005188Y002925D03*
X005189Y002925D03*
X005190Y002925D03*
X005191Y002925D03*
X005192Y002925D03*
X005193Y002925D03*
X005194Y002925D03*
X005195Y002925D03*
X005196Y002925D03*
X005197Y002925D03*
X005198Y002925D03*
X005199Y002925D03*
X005200Y002925D03*
X005201Y002925D03*
X005202Y002925D03*
X005203Y002925D03*
X005204Y002925D03*
X005205Y002925D03*
X005206Y002925D03*
X005207Y002925D03*
X005208Y002925D03*
X005209Y002925D03*
X005210Y002925D03*
X005211Y002925D03*
X005212Y002925D03*
X005213Y002925D03*
X005214Y002925D03*
X005215Y002925D03*
X005216Y002925D03*
X005217Y002925D03*
X005218Y002925D03*
X005219Y002925D03*
X005220Y002925D03*
X005221Y002925D03*
X005222Y002925D03*
X005223Y002925D03*
X005224Y002925D03*
X005225Y002925D03*
X005226Y002925D03*
X005227Y002925D03*
X005228Y002925D03*
X005229Y002925D03*
X005230Y002925D03*
X005231Y002925D03*
X005232Y002925D03*
X005233Y002925D03*
X005234Y002925D03*
X005235Y002925D03*
X005236Y002925D03*
X005237Y002925D03*
X005238Y002925D03*
X005239Y002925D03*
X005240Y002925D03*
X005241Y002925D03*
X005242Y002925D03*
X005243Y002925D03*
X005244Y002925D03*
X005245Y002925D03*
X005246Y002925D03*
X005247Y002925D03*
X005248Y002925D03*
X005249Y002925D03*
X005250Y002925D03*
X005251Y002925D03*
X005252Y002925D03*
X005253Y002925D03*
X005254Y002925D03*
X005255Y002925D03*
X005256Y002925D03*
X005257Y002925D03*
X005258Y002925D03*
X005259Y002925D03*
X005260Y002925D03*
X005261Y002925D03*
X005262Y002925D03*
X005263Y002925D03*
X005264Y002925D03*
X005265Y002925D03*
X005266Y002925D03*
X005267Y002925D03*
X005268Y002925D03*
X005269Y002925D03*
X005270Y002925D03*
X005271Y002925D03*
X005272Y002925D03*
X005273Y002925D03*
X005274Y002925D03*
X005275Y002925D03*
X005276Y002925D03*
X005277Y002925D03*
X005278Y002925D03*
X005279Y002925D03*
X005280Y002925D03*
X005281Y002925D03*
X005282Y002925D03*
X005283Y002925D03*
X005284Y002925D03*
X005285Y002925D03*
X005286Y002925D03*
X005287Y002925D03*
X005288Y002925D03*
X005289Y002925D03*
X005290Y002925D03*
X005291Y002925D03*
X005292Y002925D03*
X005293Y002925D03*
X005294Y002925D03*
X005295Y002925D03*
X005296Y002925D03*
X005297Y002925D03*
X005298Y002925D03*
X005299Y002925D03*
X005300Y002925D03*
X005301Y002925D03*
X005302Y002925D03*
X005303Y002925D03*
X005304Y002925D03*
X005305Y002925D03*
X005306Y002925D03*
X005307Y002925D03*
X005308Y002925D03*
X005309Y002925D03*
X005310Y002925D03*
X005311Y002925D03*
X005312Y002925D03*
X005313Y002925D03*
X005314Y002925D03*
X005315Y002925D03*
X005316Y002925D03*
X005317Y002925D03*
X005318Y002925D03*
X005319Y002925D03*
X005320Y002925D03*
X005321Y002925D03*
X005322Y002925D03*
X005323Y002925D03*
X005324Y002925D03*
X005325Y002925D03*
X005326Y002925D03*
X005327Y002925D03*
X005328Y002925D03*
X005329Y002925D03*
X005330Y002925D03*
X005331Y002925D03*
X005332Y002925D03*
X005333Y002925D03*
X005334Y002925D03*
X005335Y002925D03*
X005336Y002925D03*
X005337Y002925D03*
X005338Y002925D03*
X005339Y002925D03*
X005340Y002925D03*
X005341Y002925D03*
X005342Y002925D03*
X005343Y002925D03*
X005344Y002925D03*
X005345Y002925D03*
X005346Y002925D03*
X005347Y002925D03*
X005348Y002925D03*
X005349Y002925D03*
X005350Y002925D03*
X005351Y002925D03*
X005352Y002925D03*
X005353Y002925D03*
X005354Y002925D03*
X005355Y002925D03*
X005356Y002925D03*
X005357Y002925D03*
X005358Y002925D03*
X005359Y002925D03*
X005360Y002925D03*
X005361Y002925D03*
X005362Y002925D03*
X005363Y002925D03*
X005364Y002925D03*
X005365Y002925D03*
X005366Y002925D03*
X005367Y002925D03*
X005368Y002925D03*
X005369Y002925D03*
X005370Y002925D03*
X005371Y002925D03*
X005372Y002925D03*
X005373Y002925D03*
X005374Y002925D03*
X005375Y002925D03*
X005376Y002925D03*
X005377Y002925D03*
X005378Y002925D03*
X005379Y002925D03*
X005380Y002925D03*
X005381Y002925D03*
X005382Y002925D03*
X005383Y002925D03*
X005384Y002925D03*
X005385Y002925D03*
X005386Y002925D03*
X005387Y002925D03*
X005388Y002925D03*
X005389Y002925D03*
X005390Y002925D03*
X005391Y002925D03*
X005392Y002925D03*
X005393Y002925D03*
X005394Y002925D03*
X005395Y002925D03*
X005396Y002925D03*
X005397Y002925D03*
X005398Y002925D03*
X005399Y002925D03*
X005400Y002925D03*
X005401Y002925D03*
X005402Y002925D03*
X005403Y002925D03*
X005404Y002925D03*
X005405Y002925D03*
X005406Y002925D03*
X005407Y002925D03*
X005408Y002925D03*
X005409Y002925D03*
X005410Y002925D03*
X005411Y002925D03*
X005412Y002925D03*
X005413Y002925D03*
X005414Y002925D03*
X005415Y002925D03*
X005416Y002925D03*
X005417Y002925D03*
X005418Y002925D03*
X005419Y002925D03*
X005420Y002925D03*
X005421Y002925D03*
X005422Y002925D03*
X005423Y002925D03*
X005424Y002925D03*
X005425Y002925D03*
X005426Y002925D03*
X005427Y002925D03*
X005428Y002925D03*
X005429Y002925D03*
X005430Y002925D03*
X005431Y002925D03*
X005432Y002925D03*
X005433Y002925D03*
X005434Y002925D03*
X005435Y002925D03*
X005436Y002925D03*
X005437Y002925D03*
X005438Y002925D03*
X005439Y002925D03*
X005440Y002925D03*
X005441Y002925D03*
X005442Y002925D03*
X005443Y002925D03*
X005444Y002925D03*
X005445Y002925D03*
X005446Y002925D03*
X005447Y002925D03*
X005448Y002925D03*
X005449Y002925D03*
X005450Y002925D03*
X005451Y002925D03*
X005452Y002925D03*
X005453Y002925D03*
X005454Y002925D03*
X005455Y002925D03*
X005456Y002925D03*
X005457Y002925D03*
X005458Y002925D03*
X005459Y002925D03*
X005460Y002925D03*
X005461Y002925D03*
X005462Y002925D03*
X005463Y002925D03*
X005464Y002925D03*
X005465Y002925D03*
X005466Y002925D03*
X005467Y002925D03*
X005468Y002925D03*
X005469Y002925D03*
D63*
X005034Y002925D03*
X005040Y004159D03*
D64*
X005036Y004159D03*
D65*
X005033Y004159D03*
X005027Y002925D03*
D66*
X005032Y004159D03*
D67*
X005031Y004159D03*
D68*
X005030Y004159D03*
D69*
X005029Y004159D03*
D70*
X005028Y004159D03*
D71*
X005026Y004159D03*
D72*
X005025Y004159D03*
D73*
X005024Y004159D03*
D74*
X005023Y004159D03*
D75*
X005022Y004159D03*
D76*
X005021Y004159D03*
D77*
X005021Y002925D03*
D78*
X005020Y004159D03*
D79*
X005019Y004159D03*
D80*
X005018Y004159D03*
D81*
X005017Y004159D03*
D82*
X005016Y004159D03*
D83*
X005015Y004156D03*
D84*
X005014Y004157D03*
X005013Y004157D03*
X005012Y004157D03*
X005011Y004157D03*
D85*
X005010Y004158D03*
X005009Y004158D03*
X005008Y004158D03*
D86*
X005009Y002926D03*
D87*
X005008Y002918D03*
X005007Y002918D03*
X005006Y002918D03*
X005005Y002918D03*
X004891Y004175D03*
X004890Y004175D03*
X004889Y004175D03*
D88*
X005004Y004158D03*
X005005Y004158D03*
X005006Y004158D03*
X005007Y004158D03*
D89*
X004888Y004175D03*
X004887Y004175D03*
X004886Y004175D03*
X004885Y004175D03*
X005001Y002918D03*
X005002Y002918D03*
X005003Y002918D03*
X005004Y002918D03*
D90*
X005003Y004158D03*
X005002Y004158D03*
X005001Y004158D03*
D91*
X005000Y004159D03*
X004999Y004159D03*
X004998Y004159D03*
D92*
X004884Y004176D03*
X004883Y004176D03*
X004882Y004176D03*
X004997Y002917D03*
X004998Y002917D03*
X004999Y002917D03*
X005000Y002917D03*
D93*
X004997Y004159D03*
X004996Y004159D03*
X004995Y004159D03*
X004994Y004159D03*
D94*
X004881Y004176D03*
X004880Y004176D03*
X004879Y004176D03*
X004993Y002916D03*
X004994Y002916D03*
X004995Y002916D03*
X004996Y002916D03*
D95*
X004993Y004160D03*
X004992Y004160D03*
X004991Y004160D03*
D96*
X004878Y004177D03*
X004877Y004177D03*
X004876Y004177D03*
X004875Y004177D03*
X004988Y002916D03*
X004989Y002916D03*
X004990Y002916D03*
X004991Y002916D03*
X004992Y002916D03*
D97*
X004990Y004160D03*
X004989Y004160D03*
X004988Y004160D03*
X004987Y004160D03*
D98*
X004874Y004178D03*
X004873Y004178D03*
X004872Y004178D03*
X004984Y002915D03*
X004985Y002915D03*
X004986Y002915D03*
X004987Y002915D03*
D99*
X004986Y004161D03*
X004985Y004161D03*
X004984Y004161D03*
D100*
X004983Y004161D03*
X004982Y004161D03*
X004981Y004161D03*
D101*
X004871Y004178D03*
X004870Y004178D03*
X004869Y004178D03*
X004868Y004178D03*
X004980Y002915D03*
X004981Y002915D03*
X004982Y002915D03*
X004983Y002915D03*
D102*
X004980Y004162D03*
X004979Y004162D03*
X004978Y004162D03*
X004977Y004162D03*
D103*
X004867Y004178D03*
X004866Y004178D03*
X004865Y004178D03*
X004976Y002914D03*
X004977Y002914D03*
X004978Y002914D03*
X004979Y002914D03*
D104*
X004976Y004163D03*
X004975Y004163D03*
X004974Y004163D03*
D105*
X004864Y004179D03*
X004863Y004179D03*
X004862Y004179D03*
X004972Y002914D03*
X004973Y002914D03*
X004974Y002914D03*
X004975Y002914D03*
D106*
X004973Y004163D03*
X004972Y004163D03*
X004971Y004163D03*
X004970Y004163D03*
D107*
X004861Y004179D03*
X004860Y004179D03*
X004859Y004179D03*
X004858Y004179D03*
X004968Y002913D03*
X004969Y002913D03*
X004970Y002913D03*
X004971Y002913D03*
D108*
X004969Y004163D03*
X004968Y004163D03*
X004967Y004163D03*
D109*
X004857Y004180D03*
X004856Y004180D03*
X004855Y004180D03*
X004963Y002913D03*
X004964Y002913D03*
X004965Y002913D03*
X004966Y002913D03*
X004967Y002913D03*
D110*
X004966Y004164D03*
X004965Y004164D03*
X004964Y004164D03*
D111*
X004963Y004164D03*
X004962Y004164D03*
X004961Y004164D03*
X004960Y004164D03*
D112*
X004854Y004180D03*
X004853Y004180D03*
X004852Y004180D03*
X004851Y004180D03*
X004959Y002913D03*
X004960Y002913D03*
X004961Y002913D03*
X004962Y002913D03*
D113*
X004959Y004165D03*
X004958Y004165D03*
X004957Y004165D03*
D114*
X004850Y004181D03*
X004849Y004181D03*
X004848Y004181D03*
X004955Y002912D03*
X004956Y002912D03*
X004957Y002912D03*
X004958Y002912D03*
D115*
X004956Y004165D03*
X004955Y004165D03*
X004954Y004165D03*
X004953Y004165D03*
D116*
X004847Y004181D03*
X004846Y004181D03*
X004845Y004181D03*
X004951Y002911D03*
X004952Y002911D03*
X004953Y002911D03*
X004954Y002911D03*
D117*
X004952Y004166D03*
X004951Y004166D03*
X004950Y004166D03*
D118*
X004844Y004182D03*
X004843Y004182D03*
X004842Y004182D03*
X004841Y004182D03*
X004947Y002911D03*
X004948Y002911D03*
X004949Y002911D03*
X004950Y002911D03*
D119*
X004949Y004166D03*
X004948Y004166D03*
X004947Y004166D03*
D120*
X004946Y004167D03*
X004945Y004167D03*
X004944Y004167D03*
X004943Y004167D03*
D121*
X004840Y004183D03*
X004839Y004183D03*
X004838Y004183D03*
X004943Y002910D03*
X004944Y002910D03*
X004945Y002910D03*
X004946Y002910D03*
D122*
X004942Y004168D03*
X004941Y004168D03*
X004940Y004168D03*
D123*
X004837Y004183D03*
X004836Y004183D03*
X004835Y004183D03*
X004834Y004183D03*
X004938Y002910D03*
X004939Y002910D03*
X004940Y002910D03*
X004941Y002910D03*
X004942Y002910D03*
D124*
X004939Y004168D03*
X004938Y004168D03*
X004937Y004168D03*
X004936Y004168D03*
D125*
X004833Y004183D03*
X004832Y004183D03*
X004831Y004183D03*
X004934Y002909D03*
X004935Y002909D03*
X004936Y002909D03*
X004937Y002909D03*
D126*
X004935Y004168D03*
X004934Y004168D03*
X004933Y004168D03*
D127*
X004830Y004184D03*
X004829Y004184D03*
X004828Y004184D03*
X004930Y002909D03*
X004931Y002909D03*
X004932Y002909D03*
X004933Y002909D03*
D128*
X004932Y004169D03*
X004931Y004169D03*
X004930Y004169D03*
D129*
X004929Y004169D03*
X004928Y004169D03*
X004927Y004169D03*
X004926Y004169D03*
D130*
X004827Y004184D03*
X004826Y004184D03*
X004825Y004184D03*
X004824Y004184D03*
X004926Y002908D03*
X004927Y002908D03*
X004928Y002908D03*
X004929Y002908D03*
D131*
X004925Y004170D03*
X004924Y004170D03*
X004923Y004170D03*
D132*
X004823Y004185D03*
X004822Y004185D03*
X004821Y004185D03*
X004922Y002908D03*
X004923Y002908D03*
X004924Y002908D03*
X004925Y002908D03*
D133*
X004922Y004170D03*
X004921Y004170D03*
X004920Y004170D03*
X004919Y004170D03*
D134*
X004820Y004185D03*
X004819Y004185D03*
X004818Y004185D03*
X004817Y004185D03*
X004918Y002908D03*
X004919Y002908D03*
X004920Y002908D03*
X004921Y002908D03*
D135*
X004918Y004171D03*
X004917Y004171D03*
X004916Y004171D03*
D136*
X004816Y004186D03*
X004815Y004186D03*
X004814Y004186D03*
X004913Y002907D03*
X004914Y002907D03*
X004915Y002907D03*
X004916Y002907D03*
X004917Y002907D03*
D137*
X004915Y004171D03*
X004914Y004171D03*
X004913Y004171D03*
D138*
X004912Y004172D03*
X004911Y004172D03*
X004910Y004172D03*
X004909Y004172D03*
D139*
X004813Y004186D03*
X004812Y004186D03*
X004811Y004186D03*
X004909Y002906D03*
X004910Y002906D03*
X004911Y002906D03*
X004912Y002906D03*
D140*
X004908Y004173D03*
X004907Y004173D03*
X004906Y004173D03*
D141*
X004810Y004187D03*
X004809Y004187D03*
X004808Y004187D03*
X004807Y004187D03*
X004905Y002906D03*
X004906Y002906D03*
X004907Y002906D03*
X004908Y002906D03*
D142*
X004905Y004173D03*
X004904Y004173D03*
X004903Y004173D03*
X004902Y004173D03*
D143*
X004806Y004188D03*
X004805Y004188D03*
X004804Y004188D03*
X004901Y002905D03*
X004902Y002905D03*
X004903Y002905D03*
X004904Y002905D03*
D144*
X004901Y004173D03*
X004900Y004173D03*
X004899Y004173D03*
D145*
X004803Y004188D03*
X004802Y004188D03*
X004801Y004188D03*
X004800Y004188D03*
X004897Y002905D03*
X004898Y002905D03*
X004899Y002905D03*
X004900Y002905D03*
D146*
X004898Y004174D03*
X004897Y004174D03*
X004896Y004174D03*
D147*
X004799Y004188D03*
X004798Y004188D03*
X004797Y004188D03*
X004893Y002904D03*
X004894Y002904D03*
X004895Y002904D03*
X004896Y002904D03*
D148*
X004895Y004174D03*
X004894Y004174D03*
X004893Y004174D03*
X004892Y004174D03*
D149*
X004796Y004189D03*
X004795Y004189D03*
X004794Y004189D03*
X004793Y004189D03*
X004888Y002904D03*
X004889Y002904D03*
X004890Y002904D03*
X004891Y002904D03*
X004892Y002904D03*
D150*
X004887Y002903D03*
X004886Y002903D03*
X004885Y002903D03*
X004884Y002903D03*
X004792Y004189D03*
X004791Y004189D03*
X004790Y004189D03*
D151*
X004789Y004190D03*
X004788Y004190D03*
X004787Y004190D03*
X004880Y002903D03*
X004881Y002903D03*
X004882Y002903D03*
X004883Y002903D03*
D152*
X004879Y002903D03*
X004878Y002903D03*
X004877Y002903D03*
X004876Y002903D03*
X004786Y004190D03*
X004785Y004190D03*
X004784Y004190D03*
X004783Y004190D03*
D153*
X004782Y004191D03*
X004781Y004191D03*
X004780Y004191D03*
X004872Y002902D03*
X004873Y002902D03*
X004874Y002902D03*
X004875Y002902D03*
D154*
X004871Y002901D03*
X004870Y002901D03*
X004869Y002901D03*
X004868Y002901D03*
X004779Y004191D03*
X004778Y004191D03*
X004777Y004191D03*
X004776Y004191D03*
D155*
X004775Y004192D03*
X004774Y004192D03*
X004773Y004192D03*
X004863Y002901D03*
X004864Y002901D03*
X004865Y002901D03*
X004866Y002901D03*
X004867Y002901D03*
D156*
X004862Y002900D03*
X004861Y002900D03*
X004860Y002900D03*
X004859Y002900D03*
X004772Y004193D03*
X004771Y004193D03*
X004770Y004193D03*
D157*
X004769Y004193D03*
X004768Y004193D03*
X004767Y004193D03*
X004766Y004193D03*
X004855Y002900D03*
X004856Y002900D03*
X004857Y002900D03*
X004858Y002900D03*
D158*
X004854Y002899D03*
X004853Y002899D03*
X004852Y002899D03*
X004851Y002899D03*
X004765Y004193D03*
X004764Y004193D03*
X004763Y004193D03*
D159*
X004762Y004194D03*
X004761Y004194D03*
X004760Y004194D03*
X004759Y004194D03*
X004847Y002899D03*
X004848Y002899D03*
X004849Y002899D03*
X004850Y002899D03*
D160*
X004846Y002898D03*
X004845Y002898D03*
X004844Y002898D03*
X004843Y002898D03*
X004758Y004194D03*
X004757Y004194D03*
X004756Y004194D03*
D161*
X004755Y004195D03*
X004754Y004195D03*
X004753Y004195D03*
X004838Y002898D03*
X004839Y002898D03*
X004840Y002898D03*
X004841Y002898D03*
X004842Y002898D03*
D162*
X004837Y002898D03*
X004836Y002898D03*
X004835Y002898D03*
X004834Y002898D03*
X004752Y004195D03*
X004751Y004195D03*
X004750Y004195D03*
X004749Y004195D03*
D163*
X004748Y004196D03*
X004747Y004196D03*
X004746Y004196D03*
X004830Y002897D03*
X004831Y002897D03*
X004832Y002897D03*
X004833Y002897D03*
D164*
X004829Y002896D03*
X004828Y002896D03*
X004827Y002896D03*
X004826Y002896D03*
X004745Y004196D03*
X004744Y004196D03*
X004743Y004196D03*
X004742Y004196D03*
D165*
X004741Y004197D03*
X004740Y004197D03*
X004739Y004197D03*
X004822Y002896D03*
X004823Y002896D03*
X004824Y002896D03*
X004825Y002896D03*
D166*
X004821Y002895D03*
X004820Y002895D03*
X004819Y002895D03*
X004818Y002895D03*
X004738Y004198D03*
X004737Y004198D03*
X004736Y004198D03*
D167*
X004735Y004198D03*
X004734Y004198D03*
X004733Y004198D03*
X004732Y004198D03*
X004813Y002895D03*
X004814Y002895D03*
X004815Y002895D03*
X004816Y002895D03*
X004817Y002895D03*
D168*
X004812Y002894D03*
X004811Y002894D03*
X004810Y002894D03*
X004809Y002894D03*
X004731Y004198D03*
X004730Y004198D03*
X004729Y004198D03*
D169*
X004728Y004199D03*
X004727Y004199D03*
X004726Y004199D03*
X004725Y004199D03*
X004805Y002894D03*
X004806Y002894D03*
X004807Y002894D03*
X004808Y002894D03*
D170*
X004804Y002893D03*
X004803Y002893D03*
X004802Y002893D03*
X004801Y002893D03*
X004724Y004199D03*
X004723Y004199D03*
X004722Y004199D03*
D171*
X004721Y004200D03*
X004720Y004200D03*
X004719Y004200D03*
X004797Y002893D03*
X004798Y002893D03*
X004799Y002893D03*
X004800Y002893D03*
D172*
X004796Y002893D03*
X004795Y002893D03*
X004794Y002893D03*
X004793Y002893D03*
X004718Y004200D03*
X004717Y004200D03*
X004716Y004200D03*
X004715Y004200D03*
D173*
X004714Y004201D03*
X004713Y004201D03*
X004712Y004201D03*
X004788Y002892D03*
X004789Y002892D03*
X004790Y002892D03*
X004791Y002892D03*
X004792Y002892D03*
D174*
X004787Y002891D03*
X004786Y002891D03*
X004785Y002891D03*
X004784Y002891D03*
X004711Y004201D03*
X004710Y004201D03*
X004709Y004201D03*
X004708Y004201D03*
D175*
X004707Y004202D03*
X004706Y004202D03*
X004705Y004202D03*
X004780Y002891D03*
X004781Y002891D03*
X004782Y002891D03*
X004783Y002891D03*
D176*
X004779Y002890D03*
X004778Y002890D03*
X004777Y002890D03*
X004776Y002890D03*
X004704Y004203D03*
X004703Y004203D03*
X004702Y004203D03*
D177*
X004701Y004203D03*
X004700Y004203D03*
X004699Y004203D03*
X004698Y004203D03*
X004772Y002890D03*
X004773Y002890D03*
X004774Y002890D03*
X004775Y002890D03*
D178*
X004771Y002889D03*
X004770Y002889D03*
X004769Y002889D03*
X004768Y002889D03*
X004697Y004203D03*
X004696Y004203D03*
X004695Y004203D03*
D179*
X004694Y004204D03*
X004693Y004204D03*
X004692Y004204D03*
X004691Y004204D03*
X004763Y002889D03*
X004764Y002889D03*
X004765Y002889D03*
X004766Y002889D03*
X004767Y002889D03*
D180*
X004762Y002888D03*
X004761Y002888D03*
X004760Y002888D03*
X004759Y002888D03*
X004690Y004204D03*
X004689Y004204D03*
X004688Y004204D03*
D181*
X004687Y004205D03*
X004686Y004205D03*
X004685Y004205D03*
X004755Y002888D03*
X004756Y002888D03*
X004757Y002888D03*
X004758Y002888D03*
D182*
X004754Y002888D03*
X004753Y002888D03*
X004752Y002888D03*
X004751Y002888D03*
X004684Y004205D03*
X004683Y004205D03*
X004682Y004205D03*
X004681Y004205D03*
D183*
X004680Y004206D03*
X004679Y004206D03*
X004678Y004206D03*
X004747Y002887D03*
X004748Y002887D03*
X004749Y002887D03*
X004750Y002887D03*
D184*
X004746Y002886D03*
X004745Y002886D03*
X004744Y002886D03*
X004743Y002886D03*
X004677Y004206D03*
X004676Y004206D03*
X004675Y004206D03*
X004674Y004206D03*
D185*
X004673Y004207D03*
X004672Y004207D03*
X004671Y004207D03*
X004738Y002886D03*
X004739Y002886D03*
X004740Y002886D03*
X004741Y002886D03*
X004742Y002886D03*
D186*
X004737Y002885D03*
X004736Y002885D03*
X004735Y002885D03*
X004734Y002885D03*
X004670Y004208D03*
X004669Y004208D03*
X004668Y004208D03*
D187*
X004667Y004208D03*
X004666Y004208D03*
X004665Y004208D03*
X004664Y004208D03*
X004730Y002885D03*
X004731Y002885D03*
X004732Y002885D03*
X004733Y002885D03*
D188*
X004729Y002884D03*
X004728Y002884D03*
X004727Y002884D03*
X004726Y002884D03*
X004663Y004208D03*
X004662Y004208D03*
X004661Y004208D03*
D189*
X004660Y004209D03*
X004659Y004209D03*
X004658Y004209D03*
X004657Y004209D03*
X004722Y002884D03*
X004723Y002884D03*
X004724Y002884D03*
X004725Y002884D03*
D190*
X004721Y002883D03*
X004720Y002883D03*
X004719Y002883D03*
X004718Y002883D03*
X004656Y004209D03*
X004655Y004209D03*
X004654Y004209D03*
D191*
X004653Y004210D03*
X004652Y004210D03*
X004651Y004210D03*
X004713Y002883D03*
X004714Y002883D03*
X004715Y002883D03*
X004716Y002883D03*
X004717Y002883D03*
D192*
X004712Y002883D03*
X004711Y002883D03*
X004710Y002883D03*
X004709Y002883D03*
X004650Y004210D03*
X004649Y004210D03*
X004648Y004210D03*
X004647Y004210D03*
D193*
X004646Y004211D03*
X004645Y004211D03*
X004644Y004211D03*
X004705Y002882D03*
X004706Y002882D03*
X004707Y002882D03*
X004708Y002882D03*
D194*
X004704Y002881D03*
X004703Y002881D03*
X004702Y002881D03*
X004701Y002881D03*
X004643Y004211D03*
X004642Y004211D03*
X004641Y004211D03*
X004640Y004211D03*
D195*
X004639Y004212D03*
X004638Y004212D03*
X004637Y004212D03*
X004697Y002881D03*
X004698Y002881D03*
X004699Y002881D03*
X004700Y002881D03*
D196*
X004696Y002880D03*
X004695Y002880D03*
X004694Y002880D03*
X004693Y002880D03*
X004636Y004213D03*
X004635Y004213D03*
X004634Y004213D03*
D197*
X004633Y004213D03*
X004632Y004213D03*
X004631Y004213D03*
X004630Y004213D03*
X004688Y002880D03*
X004689Y002880D03*
X004690Y002880D03*
X004691Y002880D03*
X004692Y002880D03*
D198*
X004687Y002879D03*
X004686Y002879D03*
X004685Y002879D03*
X004684Y002879D03*
X004629Y004213D03*
X004628Y004213D03*
X004627Y004213D03*
D199*
X004626Y004214D03*
X004625Y004214D03*
X004624Y004214D03*
X004623Y004214D03*
X004680Y002879D03*
X004681Y002879D03*
X004682Y002879D03*
X004683Y002879D03*
D200*
X004679Y002878D03*
X004678Y002878D03*
X004677Y002878D03*
X004676Y002878D03*
X004622Y004214D03*
X004621Y004214D03*
X004620Y004214D03*
D201*
X004619Y004215D03*
X004618Y004215D03*
X004617Y004215D03*
X004672Y002878D03*
X004673Y002878D03*
X004674Y002878D03*
X004675Y002878D03*
D202*
X004671Y002878D03*
X004670Y002878D03*
X004669Y002878D03*
X004668Y002878D03*
X004616Y004215D03*
X004615Y004215D03*
X004614Y004215D03*
X004613Y004215D03*
D203*
X004612Y004216D03*
X004611Y004216D03*
X004610Y004216D03*
X004663Y002877D03*
X004664Y002877D03*
X004665Y002877D03*
X004666Y002877D03*
X004667Y002877D03*
D204*
X004662Y002876D03*
X004661Y002876D03*
X004660Y002876D03*
X004659Y002876D03*
X004609Y004216D03*
X004608Y004216D03*
X004607Y004216D03*
X004606Y004216D03*
D205*
X004605Y004217D03*
X004604Y004217D03*
X004603Y004217D03*
X004655Y002876D03*
X004656Y002876D03*
X004657Y002876D03*
X004658Y002876D03*
D206*
X004654Y002875D03*
X004653Y002875D03*
X004652Y002875D03*
X004651Y002875D03*
X004602Y004218D03*
X004601Y004218D03*
X004600Y004218D03*
D207*
X004599Y004218D03*
X004598Y004218D03*
X004597Y004218D03*
X004596Y004218D03*
X004647Y002875D03*
X004648Y002875D03*
X004649Y002875D03*
X004650Y002875D03*
D208*
X004646Y002874D03*
X004645Y002874D03*
X004644Y002874D03*
X004643Y002874D03*
X004595Y004218D03*
X004594Y004218D03*
X004593Y004218D03*
D209*
X004592Y004219D03*
X004591Y004219D03*
X004590Y004219D03*
X004589Y004219D03*
X004638Y002874D03*
X004639Y002874D03*
X004640Y002874D03*
X004641Y002874D03*
X004642Y002874D03*
D210*
X004637Y002873D03*
X004636Y002873D03*
X004635Y002873D03*
X004634Y002873D03*
X004588Y004219D03*
X004587Y004219D03*
X004586Y004219D03*
D211*
X004585Y004220D03*
X004584Y004220D03*
X004583Y004220D03*
X004630Y002873D03*
X004631Y002873D03*
X004632Y002873D03*
X004633Y002873D03*
D212*
X004629Y002873D03*
X004628Y002873D03*
X004627Y002873D03*
X004626Y002873D03*
X004582Y004220D03*
X004581Y004220D03*
X004580Y004220D03*
X004579Y004220D03*
D213*
X004578Y004221D03*
X004577Y004221D03*
X004576Y004221D03*
X004622Y002872D03*
X004623Y002872D03*
X004624Y002872D03*
X004625Y002872D03*
D214*
X004621Y002871D03*
X004620Y002871D03*
X004619Y002871D03*
X004618Y002871D03*
X004575Y004221D03*
X004574Y004221D03*
X004573Y004221D03*
X004572Y004221D03*
D215*
X004571Y004222D03*
X004570Y004222D03*
X004569Y004222D03*
X004613Y002871D03*
X004614Y002871D03*
X004615Y002871D03*
X004616Y002871D03*
X004617Y002871D03*
D216*
X004612Y002870D03*
X004611Y002870D03*
X004610Y002870D03*
X004609Y002870D03*
X004568Y004223D03*
X004567Y004223D03*
X004566Y004223D03*
D217*
X004565Y004223D03*
X004564Y004223D03*
X004563Y004223D03*
X004562Y004223D03*
X004605Y002870D03*
X004606Y002870D03*
X004607Y002870D03*
X004608Y002870D03*
D218*
X004604Y002869D03*
X004603Y002869D03*
X004602Y002869D03*
X004601Y002869D03*
X004561Y004223D03*
X004560Y004223D03*
X004559Y004223D03*
D219*
X004558Y004224D03*
X004557Y004224D03*
X004556Y004224D03*
X004555Y004224D03*
X004597Y002869D03*
X004598Y002869D03*
X004599Y002869D03*
X004600Y002869D03*
D220*
X004596Y002868D03*
X004595Y002868D03*
X004594Y002868D03*
X004593Y002868D03*
X004554Y004224D03*
X004553Y004224D03*
X004552Y004224D03*
D221*
X004551Y004225D03*
X004550Y004225D03*
X004549Y004225D03*
X004588Y002868D03*
X004589Y002868D03*
X004590Y002868D03*
X004591Y002868D03*
X004592Y002868D03*
D222*
X004587Y002868D03*
X004586Y002868D03*
X004585Y002868D03*
X004584Y002868D03*
X004548Y004225D03*
X004547Y004225D03*
X004546Y004225D03*
X004545Y004225D03*
D223*
X004544Y004226D03*
X004543Y004226D03*
X004542Y004226D03*
X004580Y002867D03*
X004581Y002867D03*
X004582Y002867D03*
X004583Y002867D03*
D224*
X004579Y002866D03*
X004578Y002866D03*
X004577Y002866D03*
X004576Y002866D03*
X004541Y004226D03*
X004540Y004226D03*
X004539Y004226D03*
X004538Y004226D03*
D225*
X004537Y004227D03*
X004536Y004227D03*
X004535Y004227D03*
X004572Y002866D03*
X004573Y002866D03*
X004574Y002866D03*
X004575Y002866D03*
D226*
X004571Y002865D03*
X004570Y002865D03*
X004569Y002865D03*
X004568Y002865D03*
X004534Y004228D03*
X004533Y004228D03*
X004532Y004228D03*
D227*
X004531Y004228D03*
X004530Y004228D03*
X004529Y004228D03*
X004528Y004228D03*
X004563Y002865D03*
X004564Y002865D03*
X004565Y002865D03*
X004566Y002865D03*
X004567Y002865D03*
D228*
X004562Y002864D03*
X004561Y002864D03*
X004560Y002864D03*
X004559Y002864D03*
X004527Y004228D03*
X004526Y004228D03*
X004525Y004228D03*
D229*
X004524Y004229D03*
X004523Y004229D03*
X004522Y004229D03*
X004521Y004229D03*
X004555Y002864D03*
X004556Y002864D03*
X004557Y002864D03*
X004558Y002864D03*
D230*
X004554Y002863D03*
X004553Y002863D03*
X004552Y002863D03*
X004551Y002863D03*
X004520Y004229D03*
X004519Y004229D03*
X004518Y004229D03*
D231*
X004517Y004230D03*
X004516Y004230D03*
X004515Y004230D03*
X004547Y002863D03*
X004548Y002863D03*
X004549Y002863D03*
X004550Y002863D03*
D232*
X004546Y002863D03*
X004545Y002863D03*
X004544Y002863D03*
X004543Y002863D03*
X004514Y004230D03*
X004513Y004230D03*
X004512Y004230D03*
X004511Y004230D03*
D233*
X004510Y004231D03*
X004509Y004231D03*
X004508Y004231D03*
X004538Y002862D03*
X004539Y002862D03*
X004540Y002862D03*
X004541Y002862D03*
X004542Y002862D03*
D234*
X004537Y002861D03*
X004536Y002861D03*
X004535Y002861D03*
X004534Y002861D03*
X004507Y004231D03*
X004506Y004231D03*
X004505Y004231D03*
X004504Y004231D03*
D235*
X004503Y004232D03*
X004502Y004232D03*
X004501Y004232D03*
X004530Y002861D03*
X004531Y002861D03*
X004532Y002861D03*
X004533Y002861D03*
D236*
X004529Y002860D03*
X004528Y002860D03*
X004527Y002860D03*
X004526Y002860D03*
X004500Y004233D03*
X004499Y004233D03*
X004498Y004233D03*
D237*
X004497Y004233D03*
X004496Y004233D03*
X004495Y004233D03*
X004494Y004233D03*
X004522Y002860D03*
X004523Y002860D03*
X004524Y002860D03*
X004525Y002860D03*
D238*
X004521Y002859D03*
X004520Y002859D03*
X004519Y002859D03*
X004518Y002859D03*
X004493Y004233D03*
X004492Y004233D03*
X004491Y004233D03*
D239*
X004490Y004234D03*
X004489Y004234D03*
X004488Y004234D03*
X004487Y004234D03*
X004513Y002859D03*
X004514Y002859D03*
X004515Y002859D03*
X004516Y002859D03*
X004517Y002859D03*
D240*
X004512Y002858D03*
X004511Y002858D03*
X004510Y002858D03*
X004509Y002858D03*
X004486Y004234D03*
X004485Y004234D03*
X004484Y004234D03*
D241*
X004483Y004235D03*
X004482Y004235D03*
X004481Y004235D03*
X004505Y002858D03*
X004506Y002858D03*
X004507Y002858D03*
X004508Y002858D03*
D242*
X004504Y002858D03*
X004503Y002858D03*
X004502Y002858D03*
X004501Y002858D03*
X004480Y004235D03*
X004479Y004235D03*
X004478Y004235D03*
X004477Y004235D03*
D243*
X004476Y004236D03*
X004475Y004236D03*
X004474Y004236D03*
X004497Y002857D03*
X004498Y002857D03*
X004499Y002857D03*
X004500Y002857D03*
D244*
X004496Y002856D03*
X004495Y002856D03*
X004494Y002856D03*
X004493Y002856D03*
X004473Y004236D03*
X004472Y004236D03*
X004471Y004236D03*
X004470Y004236D03*
D245*
X004469Y004237D03*
X004468Y004237D03*
X004467Y004237D03*
X004488Y002856D03*
X004489Y002856D03*
X004490Y002856D03*
X004491Y002856D03*
X004492Y002856D03*
D246*
X004487Y002855D03*
X004486Y002855D03*
X004485Y002855D03*
X004484Y002855D03*
X004466Y004238D03*
X004465Y004238D03*
X004464Y004238D03*
D247*
X004463Y004238D03*
X004462Y004238D03*
X004461Y004238D03*
X004460Y004238D03*
X004480Y002855D03*
X004481Y002855D03*
X004482Y002855D03*
X004483Y002855D03*
D248*
X004479Y002854D03*
X004478Y002854D03*
X004477Y002854D03*
X004476Y002854D03*
X004459Y004238D03*
X004458Y004238D03*
X004457Y004238D03*
D249*
X004456Y004239D03*
X004455Y004239D03*
X004454Y004239D03*
X004453Y004239D03*
X004472Y002854D03*
X004473Y002854D03*
X004474Y002854D03*
X004475Y002854D03*
D250*
X004471Y002853D03*
X004470Y002853D03*
X004469Y002853D03*
X004468Y002853D03*
X004452Y004239D03*
X004451Y004239D03*
X004450Y004239D03*
D251*
X004449Y004240D03*
X004448Y004240D03*
X004447Y004240D03*
X004463Y002853D03*
X004464Y002853D03*
X004465Y002853D03*
X004466Y002853D03*
X004467Y002853D03*
D252*
X004462Y002853D03*
X004461Y002853D03*
X004460Y002853D03*
X004459Y002853D03*
X004446Y004240D03*
X004445Y004240D03*
X004444Y004240D03*
X004443Y004240D03*
D253*
X004442Y004241D03*
X004441Y004241D03*
X004440Y004241D03*
X004455Y002852D03*
X004456Y002852D03*
X004457Y002852D03*
X004458Y002852D03*
D254*
X004454Y002851D03*
X004453Y002851D03*
X004452Y002851D03*
X004451Y002851D03*
X004439Y004241D03*
X004438Y004241D03*
X004437Y004241D03*
X004436Y004241D03*
D255*
X004435Y004242D03*
X004434Y004242D03*
X004433Y004242D03*
X004447Y002851D03*
X004448Y002851D03*
X004449Y002851D03*
X004450Y002851D03*
D256*
X004446Y002850D03*
X004445Y002850D03*
X004444Y002850D03*
X004443Y002850D03*
X004432Y004243D03*
X004431Y004243D03*
X004430Y004243D03*
D257*
X004429Y004243D03*
X004428Y004243D03*
X004427Y004243D03*
X004426Y004243D03*
X004438Y002850D03*
X004439Y002850D03*
X004440Y002850D03*
X004441Y002850D03*
X004442Y002850D03*
D258*
X004437Y002849D03*
X004436Y002849D03*
X004435Y002849D03*
X004434Y002849D03*
X004425Y004243D03*
X004424Y004243D03*
X004423Y004243D03*
D259*
X004422Y004244D03*
X004421Y004244D03*
X004420Y004244D03*
X004419Y004244D03*
X004430Y002849D03*
X004431Y002849D03*
X004432Y002849D03*
X004433Y002849D03*
D260*
X004429Y002848D03*
X004428Y002848D03*
X004427Y002848D03*
X004426Y002848D03*
X004418Y004244D03*
X004417Y004244D03*
X004416Y004244D03*
D261*
X004415Y004245D03*
X004414Y004245D03*
X004413Y004245D03*
X004422Y002848D03*
X004423Y002848D03*
X004424Y002848D03*
X004425Y002848D03*
D262*
X004421Y002848D03*
X004420Y002848D03*
X004419Y002848D03*
X004418Y002848D03*
X004412Y004245D03*
X004411Y004245D03*
X004410Y004245D03*
X004409Y004245D03*
D263*
X004408Y004246D03*
X004407Y004246D03*
X004406Y004246D03*
X004413Y002847D03*
X004414Y002847D03*
X004415Y002847D03*
X004416Y002847D03*
X004417Y002847D03*
D264*
X004412Y002846D03*
X004411Y002846D03*
X004410Y002846D03*
X004409Y002846D03*
X004405Y004246D03*
X004404Y004246D03*
X004403Y004246D03*
X004402Y004246D03*
D265*
X004401Y004247D03*
X004400Y004247D03*
X004399Y004247D03*
X004405Y002846D03*
X004406Y002846D03*
X004407Y002846D03*
X004408Y002846D03*
D266*
X004404Y002845D03*
X004403Y002845D03*
X004402Y002845D03*
X004401Y002845D03*
X004398Y004248D03*
X004397Y004248D03*
X004396Y004248D03*
D267*
X004395Y004248D03*
X004394Y004248D03*
X004393Y004248D03*
X004392Y004248D03*
X004397Y002845D03*
X004398Y002845D03*
X004399Y002845D03*
X004400Y002845D03*
D268*
X004396Y002844D03*
X004395Y002844D03*
X004394Y002844D03*
X004393Y002844D03*
X004391Y004248D03*
X004390Y004248D03*
X004389Y004248D03*
D269*
X004388Y004249D03*
X004387Y004249D03*
X004386Y004249D03*
X004385Y004249D03*
X004388Y002844D03*
X004389Y002844D03*
X004390Y002844D03*
X004391Y002844D03*
X004392Y002844D03*
D270*
X004387Y002843D03*
X004386Y002843D03*
X004385Y002843D03*
X004384Y002843D03*
X004383Y004249D03*
X004382Y004249D03*
X004384Y004249D03*
D271*
X004381Y004250D03*
X004380Y004250D03*
X004379Y004250D03*
X004380Y002843D03*
X004381Y002843D03*
X004382Y002843D03*
X004383Y002843D03*
D272*
X004379Y002843D03*
X004378Y002843D03*
X004377Y002843D03*
X004376Y002843D03*
X004375Y004250D03*
X004376Y004250D03*
X004377Y004250D03*
X004378Y004250D03*
D273*
X004374Y004251D03*
X004373Y004251D03*
X004372Y004251D03*
X004372Y002842D03*
X004373Y002842D03*
X004374Y002842D03*
X004375Y002842D03*
D274*
X004371Y002841D03*
X004370Y002841D03*
X004369Y002841D03*
X004368Y002841D03*
X004368Y004251D03*
X004369Y004251D03*
X004370Y004251D03*
X004371Y004251D03*
D275*
X004367Y004252D03*
X004366Y004252D03*
X004365Y004252D03*
X004364Y002841D03*
X004363Y002841D03*
X004365Y002841D03*
X004366Y002841D03*
X004367Y002841D03*
D276*
X004362Y002840D03*
X004361Y002840D03*
X004360Y002840D03*
X004359Y002840D03*
X004362Y004253D03*
X004363Y004253D03*
X004364Y004253D03*
D277*
X004361Y004253D03*
X004360Y004253D03*
X004359Y004253D03*
X004358Y004253D03*
X004357Y002840D03*
X004356Y002840D03*
X004355Y002840D03*
X004358Y002840D03*
D278*
X004354Y002839D03*
X004353Y002839D03*
X004352Y002839D03*
X004351Y002839D03*
X004355Y004253D03*
X004356Y004253D03*
X004357Y004253D03*
D279*
X004354Y004254D03*
X004353Y004254D03*
X004352Y004254D03*
X004351Y004254D03*
X004350Y002839D03*
X004349Y002839D03*
X004348Y002839D03*
X004347Y002839D03*
D280*
X004346Y002838D03*
X004345Y002838D03*
X004344Y002838D03*
X004343Y002838D03*
X004348Y004254D03*
X004349Y004254D03*
X004350Y004254D03*
D281*
X004347Y004255D03*
X004346Y004255D03*
X004345Y004255D03*
X004342Y002838D03*
X004341Y002838D03*
X004340Y002838D03*
X004339Y002838D03*
X004338Y002838D03*
D282*
X004337Y002838D03*
X004336Y002838D03*
X004335Y002838D03*
X004334Y002838D03*
X004341Y004255D03*
X004342Y004255D03*
X004343Y004255D03*
X004344Y004255D03*
D283*
X004340Y004256D03*
X004339Y004256D03*
X004338Y004256D03*
X004333Y002837D03*
X004332Y002837D03*
X004331Y002837D03*
X004330Y002837D03*
D284*
X004329Y002836D03*
X004328Y002836D03*
X004327Y002836D03*
X004326Y002836D03*
X004334Y004256D03*
X004335Y004256D03*
X004336Y004256D03*
X004337Y004256D03*
D285*
X004333Y004257D03*
X004332Y004257D03*
X004331Y004257D03*
X004325Y002836D03*
X004324Y002836D03*
X004323Y002836D03*
X004322Y002836D03*
D286*
X004321Y002835D03*
X004320Y002835D03*
X004319Y002835D03*
X004318Y002835D03*
X004328Y004258D03*
X004329Y004258D03*
X004330Y004258D03*
D287*
X004327Y004258D03*
X004326Y004258D03*
X004325Y004258D03*
X004324Y004258D03*
X004317Y002835D03*
X004316Y002835D03*
X004315Y002835D03*
X004314Y002835D03*
X004313Y002835D03*
D288*
X004312Y002834D03*
X004311Y002834D03*
X004310Y002834D03*
X004309Y002834D03*
X004321Y004258D03*
X004322Y004258D03*
X004323Y004258D03*
D289*
X004320Y004259D03*
X004319Y004259D03*
X004318Y004259D03*
X004317Y004259D03*
X004308Y002834D03*
X004307Y002834D03*
X004306Y002834D03*
X004305Y002834D03*
D290*
X004304Y002833D03*
X004303Y002833D03*
X004302Y002833D03*
X004301Y002833D03*
X004314Y004259D03*
X004315Y004259D03*
X004316Y004259D03*
D291*
X004313Y004260D03*
X004312Y004260D03*
X004311Y004260D03*
X004300Y002833D03*
X004299Y002833D03*
X004298Y002833D03*
X004297Y002833D03*
D292*
X004296Y002833D03*
X004295Y002833D03*
X004294Y002833D03*
X004293Y002833D03*
X004307Y004260D03*
X004308Y004260D03*
X004309Y004260D03*
X004310Y004260D03*
D293*
X004306Y004261D03*
X004305Y004261D03*
X004304Y004261D03*
X004292Y002832D03*
X004291Y002832D03*
X004290Y002832D03*
X004289Y002832D03*
X004288Y002832D03*
D294*
X004287Y002831D03*
X004286Y002831D03*
X004285Y002831D03*
X004284Y002831D03*
X004300Y004261D03*
X004301Y004261D03*
X004302Y004261D03*
X004303Y004261D03*
D295*
X004299Y004262D03*
X004298Y004262D03*
X004297Y004262D03*
X004283Y002831D03*
X004282Y002831D03*
X004281Y002831D03*
X004280Y002831D03*
D296*
X004279Y002830D03*
X004278Y002830D03*
X004277Y002830D03*
X004276Y002830D03*
X004294Y004263D03*
X004295Y004263D03*
X004296Y004263D03*
D297*
X004293Y004263D03*
X004292Y004263D03*
X004291Y004263D03*
X004290Y004263D03*
X004275Y002830D03*
X004274Y002830D03*
X004273Y002830D03*
X004272Y002830D03*
D298*
X004271Y002829D03*
X004270Y002829D03*
X004269Y002829D03*
X004268Y002829D03*
X004287Y004263D03*
X004288Y004263D03*
X004289Y004263D03*
D299*
X004266Y002829D03*
X004267Y002829D03*
X004283Y004264D03*
X004284Y004264D03*
X004285Y004264D03*
X004286Y004264D03*
D300*
X004282Y004264D03*
X004281Y004264D03*
X004280Y004264D03*
D301*
X004279Y004265D03*
X004278Y004265D03*
X004277Y004265D03*
X004276Y004265D03*
D302*
X004275Y004265D03*
X004274Y004265D03*
X004273Y004265D03*
D303*
X004272Y004266D03*
X004271Y004266D03*
X004270Y004266D03*
D304*
X004269Y004266D03*
X004268Y004266D03*
X004267Y004266D03*
X004266Y004266D03*
D305*
X004265Y004155D03*
X004264Y004155D03*
X004263Y004155D03*
X004262Y004155D03*
X004261Y004155D03*
X004260Y004155D03*
X004259Y004155D03*
X004258Y004155D03*
X004257Y004155D03*
X004256Y004155D03*
X004255Y004155D03*
X004254Y004155D03*
X004253Y004155D03*
X004252Y004155D03*
X004251Y004155D03*
X004250Y004155D03*
X004249Y004155D03*
X004248Y004155D03*
X004247Y004155D03*
X004246Y004155D03*
X004245Y004155D03*
X004244Y004155D03*
X004243Y004155D03*
X004242Y004155D03*
X004241Y004155D03*
X004240Y004155D03*
X004239Y004155D03*
X004238Y004155D03*
X004237Y004155D03*
X004236Y004155D03*
X004235Y004155D03*
X004234Y004155D03*
X004233Y004155D03*
X004232Y004155D03*
X004231Y004155D03*
X004230Y004155D03*
X004229Y004155D03*
X004228Y004155D03*
X004227Y004155D03*
X004226Y004155D03*
X004225Y004155D03*
X004224Y004155D03*
X004223Y004155D03*
X004222Y004155D03*
X004221Y004155D03*
X004220Y004155D03*
X004219Y004155D03*
X004218Y004155D03*
X004217Y004155D03*
X004216Y004155D03*
X004215Y004155D03*
X004214Y004155D03*
X004214Y002938D03*
X004215Y002938D03*
X004216Y002938D03*
X004217Y002938D03*
X004218Y002938D03*
X004219Y002938D03*
X004220Y002938D03*
X004221Y002938D03*
X004222Y002938D03*
X004223Y002938D03*
X004224Y002938D03*
X004225Y002938D03*
X004226Y002938D03*
X004227Y002938D03*
X004228Y002938D03*
X004229Y002938D03*
X004230Y002938D03*
X004231Y002938D03*
X004232Y002938D03*
X004233Y002938D03*
X004234Y002938D03*
X004235Y002938D03*
X004236Y002938D03*
X004237Y002938D03*
X004238Y002938D03*
X004239Y002938D03*
X004240Y002938D03*
X004241Y002938D03*
X004242Y002938D03*
X004243Y002938D03*
X004244Y002938D03*
X004245Y002938D03*
X004246Y002938D03*
X004247Y002938D03*
X004248Y002938D03*
X004249Y002938D03*
X004250Y002938D03*
X004251Y002938D03*
X004252Y002938D03*
X004253Y002938D03*
X004254Y002938D03*
X004255Y002938D03*
X004256Y002938D03*
X004257Y002938D03*
X004258Y002938D03*
X004259Y002938D03*
X004260Y002938D03*
X004261Y002938D03*
X004262Y002938D03*
X004263Y002938D03*
X004264Y002938D03*
X004265Y002938D03*
D306*
X004213Y003546D03*
X004212Y003546D03*
X004211Y003546D03*
X004210Y003546D03*
X004209Y003546D03*
X004208Y003546D03*
X004207Y003546D03*
X004206Y003546D03*
X004205Y003546D03*
X004204Y003546D03*
X004203Y003546D03*
X004202Y003546D03*
X004201Y003546D03*
X004200Y003546D03*
X004199Y003546D03*
X004198Y003546D03*
X004197Y003546D03*
X004196Y003546D03*
X004195Y003546D03*
X004194Y003546D03*
X004193Y003546D03*
X004192Y003546D03*
X004191Y003546D03*
X004190Y003546D03*
X004189Y003546D03*
X004188Y003546D03*
X004187Y003546D03*
X004186Y003546D03*
X004185Y003546D03*
X004184Y003546D03*
X004183Y003546D03*
X004182Y003546D03*
X004181Y003546D03*
X004180Y003546D03*
X004179Y003546D03*
X004178Y003546D03*
X004177Y003546D03*
X004176Y003546D03*
X004175Y003546D03*
X004174Y003546D03*
X004173Y003546D03*
X003915Y003546D03*
X003914Y003546D03*
X003913Y003546D03*
X003912Y003546D03*
X003911Y003546D03*
X003910Y003546D03*
X003909Y003546D03*
X003908Y003546D03*
X003907Y003546D03*
X003906Y003546D03*
X003905Y003546D03*
X003904Y003546D03*
X003903Y003546D03*
X003902Y003546D03*
X003901Y003546D03*
X003900Y003546D03*
X003899Y003546D03*
X003898Y003546D03*
X003897Y003546D03*
X003896Y003546D03*
X003895Y003546D03*
X003894Y003546D03*
X003893Y003546D03*
X003892Y003546D03*
X003891Y003546D03*
X003890Y003546D03*
X003889Y003546D03*
X003888Y003546D03*
X003887Y003546D03*
X003886Y003546D03*
X003885Y003546D03*
X003884Y003546D03*
X003883Y003546D03*
X003882Y003546D03*
X003881Y003546D03*
X003880Y003546D03*
X003879Y003546D03*
X003878Y003546D03*
X003877Y003546D03*
X003876Y003546D03*
X003875Y003546D03*
X003874Y003546D03*
X003873Y003546D03*
X003872Y003546D03*
X003871Y003546D03*
X003870Y003546D03*
X003869Y003546D03*
X003868Y003546D03*
X003867Y003546D03*
X003866Y003546D03*
X003865Y003546D03*
X003864Y003546D03*
X003863Y003546D03*
X003862Y003546D03*
X003861Y003546D03*
X003860Y003546D03*
X003859Y003546D03*
X003858Y003546D03*
X003857Y003546D03*
X003856Y003546D03*
X003855Y003546D03*
X003854Y003546D03*
X003853Y003546D03*
X003852Y003546D03*
X003851Y003546D03*
X003850Y003546D03*
X003849Y003546D03*
X003848Y003546D03*
X003847Y003546D03*
X003846Y003546D03*
X003845Y003546D03*
X003844Y003546D03*
X003843Y003546D03*
D307*
X003916Y004093D03*
X003917Y004093D03*
X003918Y004093D03*
X003919Y004093D03*
X003920Y004093D03*
X003921Y004093D03*
X003922Y004093D03*
X003923Y004093D03*
X003924Y004093D03*
X003925Y004093D03*
X003926Y004093D03*
X003927Y004093D03*
X003928Y004093D03*
X003929Y004093D03*
X003930Y004093D03*
X003931Y004093D03*
X003932Y004093D03*
X003933Y004093D03*
X003934Y004093D03*
X003935Y004093D03*
X003936Y004093D03*
X003937Y004093D03*
X003938Y004093D03*
X003939Y004093D03*
X003940Y004093D03*
X003941Y004093D03*
X003942Y004093D03*
X003943Y004093D03*
X003944Y004093D03*
X003945Y004093D03*
X003946Y004093D03*
X003947Y004093D03*
X003948Y004093D03*
X003949Y004093D03*
X003950Y004093D03*
X003951Y004093D03*
X003952Y004093D03*
X003953Y004093D03*
X003954Y004093D03*
X003955Y004093D03*
X003956Y004093D03*
X003957Y004093D03*
X003958Y004093D03*
X003959Y004093D03*
X003960Y004093D03*
X003961Y004093D03*
X003962Y004093D03*
X003963Y004093D03*
X003964Y004093D03*
X003965Y004093D03*
X003966Y004093D03*
X003967Y004093D03*
X003968Y004093D03*
X003969Y004093D03*
X003970Y004093D03*
X003971Y004093D03*
X003972Y004093D03*
X003973Y004093D03*
X003974Y004093D03*
X003975Y004093D03*
X003976Y004093D03*
X003977Y004093D03*
X003978Y004093D03*
X003979Y004093D03*
X003980Y004093D03*
X003981Y004093D03*
X003982Y004093D03*
X003983Y004093D03*
X003984Y004093D03*
X003985Y004093D03*
X003986Y004093D03*
X003987Y004093D03*
X003988Y004093D03*
X003989Y004093D03*
X003990Y004093D03*
X003991Y004093D03*
X003992Y004093D03*
X003993Y004093D03*
X003994Y004093D03*
X003995Y004093D03*
X003996Y004093D03*
X003997Y004093D03*
X003998Y004093D03*
X003999Y004093D03*
X004000Y004093D03*
X004001Y004093D03*
X004002Y004093D03*
X004003Y004093D03*
X004004Y004093D03*
X004005Y004093D03*
X004006Y004093D03*
X004007Y004093D03*
X004008Y004093D03*
X004009Y004093D03*
X004010Y004093D03*
X004011Y004093D03*
X004012Y004093D03*
X004013Y004093D03*
X004014Y004093D03*
X004015Y004093D03*
X004016Y004093D03*
X004017Y004093D03*
X004018Y004093D03*
X004019Y004093D03*
X004020Y004093D03*
X004021Y004093D03*
X004022Y004093D03*
X004023Y004093D03*
X004024Y004093D03*
X004025Y004093D03*
X004026Y004093D03*
X004027Y004093D03*
X004028Y004093D03*
X004029Y004093D03*
X004030Y004093D03*
X004031Y004093D03*
X004032Y004093D03*
X004033Y004093D03*
X004034Y004093D03*
X004035Y004093D03*
X004036Y004093D03*
X004037Y004093D03*
X004038Y004093D03*
X004039Y004093D03*
X004040Y004093D03*
X004041Y004093D03*
X004042Y004093D03*
X004043Y004093D03*
X004044Y004093D03*
X004045Y004093D03*
X004046Y004093D03*
X004047Y004093D03*
X004048Y004093D03*
X004049Y004093D03*
X004050Y004093D03*
X004051Y004093D03*
X004052Y004093D03*
X004053Y004093D03*
X004054Y004093D03*
X004055Y004093D03*
X004056Y004093D03*
X004057Y004093D03*
X004058Y004093D03*
X004059Y004093D03*
X004060Y004093D03*
X004061Y004093D03*
X004062Y004093D03*
X004063Y004093D03*
X004064Y004093D03*
X004065Y004093D03*
X004066Y004093D03*
X004067Y004093D03*
X004068Y004093D03*
X004069Y004093D03*
X004070Y004093D03*
X004071Y004093D03*
X004072Y004093D03*
X004073Y004093D03*
X004074Y004093D03*
X004075Y004093D03*
X004076Y004093D03*
X004077Y004093D03*
X004078Y004093D03*
X004079Y004093D03*
X004080Y004093D03*
X004081Y004093D03*
X004082Y004093D03*
X004083Y004093D03*
X004084Y004093D03*
X004085Y004093D03*
X004086Y004093D03*
X004087Y004093D03*
X004088Y004093D03*
X004089Y004093D03*
X004090Y004093D03*
X004091Y004093D03*
X004092Y004093D03*
X004093Y004093D03*
X004094Y004093D03*
X004095Y004093D03*
X004096Y004093D03*
X004097Y004093D03*
X004098Y004093D03*
X004099Y004093D03*
X004100Y004093D03*
X004101Y004093D03*
X004102Y004093D03*
X004103Y004093D03*
X004104Y004093D03*
X004105Y004093D03*
X004106Y004093D03*
X004107Y004093D03*
X004108Y004093D03*
X004109Y004093D03*
X004110Y004093D03*
X004111Y004093D03*
X004112Y004093D03*
X004113Y004093D03*
X004114Y004093D03*
X004115Y004093D03*
X004116Y004093D03*
X004117Y004093D03*
X004118Y004093D03*
X004119Y004093D03*
X004120Y004093D03*
X004121Y004093D03*
X004122Y004093D03*
X004123Y004093D03*
X004124Y004093D03*
X004125Y004093D03*
X004126Y004093D03*
X004127Y004093D03*
X004128Y004093D03*
X004129Y004093D03*
X004130Y004093D03*
X004131Y004093D03*
X004132Y004093D03*
X004133Y004093D03*
X004134Y004093D03*
X004135Y004093D03*
X004136Y004093D03*
X004137Y004093D03*
X004138Y004093D03*
X004139Y004093D03*
X004140Y004093D03*
X004141Y004093D03*
X004142Y004093D03*
X004143Y004093D03*
X004144Y004093D03*
X004145Y004093D03*
X004146Y004093D03*
X004147Y004093D03*
X004148Y004093D03*
X004149Y004093D03*
X004150Y004093D03*
X004151Y004093D03*
X004152Y004093D03*
X004153Y004093D03*
X004154Y004093D03*
X004155Y004093D03*
X004156Y004093D03*
X004157Y004093D03*
X004158Y004093D03*
X004159Y004093D03*
X004160Y004093D03*
X004161Y004093D03*
X004162Y004093D03*
X004163Y004093D03*
X004164Y004093D03*
X004165Y004093D03*
X004166Y004093D03*
X004167Y004093D03*
X004168Y004093D03*
X004169Y004093D03*
X004170Y004093D03*
X004171Y004093D03*
X004172Y004093D03*
D308*
X004171Y002984D03*
X004170Y002984D03*
X004169Y002984D03*
X004168Y002984D03*
X004167Y002984D03*
X004166Y002984D03*
X004165Y002984D03*
X004164Y002984D03*
X004163Y002984D03*
X004162Y002984D03*
X004161Y002984D03*
X004160Y002984D03*
X004159Y002984D03*
X004158Y002984D03*
X004157Y002984D03*
X004156Y002984D03*
X004155Y002984D03*
X004154Y002984D03*
X004153Y002984D03*
X004152Y002984D03*
X004151Y002984D03*
X004150Y002984D03*
X004149Y002984D03*
X004148Y002984D03*
X004147Y002984D03*
X004146Y002984D03*
X004145Y002984D03*
X004144Y002984D03*
X004143Y002984D03*
X004142Y002984D03*
X004141Y002984D03*
X004140Y002984D03*
X004139Y002984D03*
X004138Y002984D03*
X004137Y002984D03*
X004136Y002984D03*
X004135Y002984D03*
X004134Y002984D03*
X004133Y002984D03*
X004132Y002984D03*
X004131Y002984D03*
X004130Y002984D03*
X004129Y002984D03*
X004128Y002984D03*
X004127Y002984D03*
X004126Y002984D03*
X004125Y002984D03*
X004124Y002984D03*
X004123Y002984D03*
X004122Y002984D03*
X004121Y002984D03*
X004120Y002984D03*
X004119Y002984D03*
X004118Y002984D03*
X004117Y002984D03*
X004116Y002984D03*
X004115Y002984D03*
X004114Y002984D03*
X004113Y002984D03*
X004112Y002984D03*
X004111Y002984D03*
X004110Y002984D03*
X004109Y002984D03*
X004108Y002984D03*
X004107Y002984D03*
X004106Y002984D03*
X004105Y002984D03*
X004104Y002984D03*
X004103Y002984D03*
X004102Y002984D03*
X004101Y002984D03*
X004100Y002984D03*
X004099Y002984D03*
X004098Y002984D03*
X004097Y002984D03*
X004096Y002984D03*
X004095Y002984D03*
X004094Y002984D03*
X004093Y002984D03*
X004092Y002984D03*
X004091Y002984D03*
X004090Y002984D03*
X004089Y002984D03*
X004088Y002984D03*
X004087Y002984D03*
X004086Y002984D03*
X004085Y002984D03*
X004084Y002984D03*
X004083Y002984D03*
X004082Y002984D03*
X004081Y002984D03*
X004080Y002984D03*
X004079Y002984D03*
X004078Y002984D03*
X004077Y002984D03*
X004076Y002984D03*
X004075Y002984D03*
X004074Y002984D03*
X004073Y002984D03*
X004072Y002984D03*
X004071Y002984D03*
X004070Y002984D03*
X004069Y002984D03*
X004068Y002984D03*
X004067Y002984D03*
X004066Y002984D03*
X004065Y002984D03*
X004064Y002984D03*
X004063Y002984D03*
X004062Y002984D03*
X004061Y002984D03*
X004060Y002984D03*
X004059Y002984D03*
X004058Y002984D03*
X004057Y002984D03*
X004056Y002984D03*
X004055Y002984D03*
X004054Y002984D03*
X004053Y002984D03*
X004052Y002984D03*
X004051Y002984D03*
X004050Y002984D03*
X004049Y002984D03*
X004048Y002984D03*
X004047Y002984D03*
X004046Y002984D03*
X004045Y002984D03*
X004044Y002984D03*
X004043Y002984D03*
X004042Y002984D03*
X004041Y002984D03*
X004040Y002984D03*
X004039Y002984D03*
X004038Y002984D03*
X004037Y002984D03*
X004036Y002984D03*
X004035Y002984D03*
X004034Y002984D03*
X004033Y002984D03*
X004032Y002984D03*
X004031Y002984D03*
X004030Y002984D03*
X004029Y002984D03*
X004028Y002984D03*
X004027Y002984D03*
X004026Y002984D03*
X004025Y002984D03*
X004024Y002984D03*
X004023Y002984D03*
X004022Y002984D03*
X004021Y002984D03*
X004020Y002984D03*
X004019Y002984D03*
X004018Y002984D03*
X004017Y002984D03*
X004016Y002984D03*
X004015Y002984D03*
X004014Y002984D03*
X004013Y002984D03*
X004012Y002984D03*
X004011Y002984D03*
X004010Y002984D03*
X004009Y002984D03*
X004008Y002984D03*
X004007Y002984D03*
X004006Y002984D03*
X004005Y002984D03*
X004004Y002984D03*
X004003Y002984D03*
X004002Y002984D03*
X004001Y002984D03*
X004000Y002984D03*
X003999Y002984D03*
X003998Y002984D03*
X003997Y002984D03*
X003996Y002984D03*
X003995Y002984D03*
X003994Y002984D03*
X003993Y002984D03*
X003992Y002984D03*
X003991Y002984D03*
X003990Y002984D03*
X003989Y002984D03*
X003988Y002984D03*
X003987Y002984D03*
X003986Y002984D03*
X003985Y002984D03*
X003984Y002984D03*
X003983Y002984D03*
X003982Y002984D03*
X003981Y002984D03*
X003980Y002984D03*
X003979Y002984D03*
X003978Y002984D03*
X003977Y002984D03*
X003976Y002984D03*
X003975Y002984D03*
X003974Y002984D03*
X003973Y002984D03*
X003972Y002984D03*
X003971Y002984D03*
X003970Y002984D03*
X003969Y002984D03*
X003968Y002984D03*
X003967Y002984D03*
X003966Y002984D03*
X003965Y002984D03*
X003964Y002984D03*
X003963Y002984D03*
X003962Y002984D03*
X003961Y002984D03*
X003960Y002984D03*
X003959Y002984D03*
X003958Y002984D03*
X003957Y002984D03*
X003956Y002984D03*
X003955Y002984D03*
X003954Y002984D03*
X003953Y002984D03*
X003952Y002984D03*
X003951Y002984D03*
X003950Y002984D03*
X003949Y002984D03*
X003948Y002984D03*
X003947Y002984D03*
X003946Y002984D03*
X003945Y002984D03*
X003944Y002984D03*
X003943Y002984D03*
X003942Y002984D03*
X003941Y002984D03*
X003940Y002984D03*
X003939Y002984D03*
X003938Y002984D03*
X003937Y002984D03*
X003936Y002984D03*
X003935Y002984D03*
X003934Y002984D03*
X003933Y002984D03*
X003932Y002984D03*
X003931Y002984D03*
X003930Y002984D03*
X003929Y002984D03*
X003928Y002984D03*
X003927Y002984D03*
X003926Y002984D03*
X003925Y002984D03*
X003924Y002984D03*
X003923Y002984D03*
X003922Y002984D03*
X003921Y002984D03*
X003920Y002984D03*
X003919Y002984D03*
X003918Y002984D03*
X003917Y002984D03*
X003916Y002984D03*
X004172Y002984D03*
D309*
X003842Y003547D03*
X003841Y003547D03*
D310*
X003840Y003546D03*
X003839Y003546D03*
X003838Y003546D03*
X003837Y003546D03*
X003836Y003546D03*
X003835Y003546D03*
X003834Y003546D03*
D311*
X003833Y003546D03*
D312*
X003832Y003546D03*
X003831Y003546D03*
X003830Y003546D03*
X003829Y003546D03*
X003828Y003546D03*
D313*
X003827Y003546D03*
X003826Y003546D03*
D314*
X003825Y003546D03*
X003824Y003546D03*
X003823Y003546D03*
X003822Y003546D03*
D315*
X003821Y003546D03*
X003820Y003546D03*
D316*
X003819Y003546D03*
X003818Y003546D03*
X003817Y003546D03*
D317*
X003816Y003546D03*
X003815Y003546D03*
D318*
X003814Y003546D03*
X003813Y003546D03*
X003812Y003546D03*
D319*
X003811Y003546D03*
X003810Y003546D03*
D320*
X003809Y003546D03*
X003808Y003546D03*
X003807Y003546D03*
D321*
X003806Y003546D03*
D322*
X003805Y003546D03*
X003804Y003546D03*
X003803Y003546D03*
X003802Y003546D03*
D323*
X003801Y003546D03*
X003800Y003546D03*
X003799Y003546D03*
X003798Y003546D03*
D324*
X003797Y003546D03*
X003796Y003546D03*
X003795Y003546D03*
X003794Y003546D03*
D325*
X003793Y003546D03*
X003792Y003546D03*
X003791Y003546D03*
X003790Y003546D03*
D326*
X003789Y003546D03*
X003788Y003546D03*
X003787Y003546D03*
X003786Y003546D03*
D327*
X003785Y003546D03*
X003784Y003546D03*
X003783Y003546D03*
D328*
X003782Y003547D03*
D329*
X003781Y003546D03*
X003780Y003546D03*
D330*
X003779Y003547D03*
D331*
X003778Y003546D03*
X003777Y003546D03*
X003776Y003546D03*
D332*
X003775Y003547D03*
D333*
X003774Y003546D03*
X003773Y003546D03*
D334*
X003772Y003547D03*
D335*
X003771Y003546D03*
X003770Y003546D03*
D336*
X003769Y003547D03*
D337*
X003768Y003546D03*
X003767Y003546D03*
D338*
X003766Y003547D03*
D339*
X003765Y003546D03*
D340*
X003764Y003547D03*
D341*
X003763Y003546D03*
X003762Y003546D03*
D342*
X003761Y003547D03*
D343*
X003760Y003546D03*
X003759Y003546D03*
D344*
X003758Y003547D03*
D345*
X003757Y003546D03*
D346*
X003756Y003547D03*
D347*
X003755Y003546D03*
X003754Y003546D03*
D348*
X003753Y003547D03*
D349*
X003752Y003546D03*
D350*
X003751Y003547D03*
D351*
X003750Y003547D03*
D352*
X003749Y003547D03*
D353*
X003748Y003546D03*
D354*
X003747Y003546D03*
D355*
X003746Y003546D03*
D356*
X003745Y003546D03*
D357*
X003744Y003546D03*
D358*
X003743Y003546D03*
D359*
X003742Y003546D03*
D360*
X003741Y003546D03*
D361*
X003740Y003546D03*
D362*
X003739Y003546D03*
D363*
X003738Y003546D03*
D364*
X003737Y003546D03*
D365*
X003736Y003546D03*
D366*
X003735Y003546D03*
D367*
X003734Y003546D03*
D368*
X003733Y003546D03*
D369*
X003732Y003546D03*
D370*
X003731Y003546D03*
D371*
X003730Y003546D03*
D372*
X003729Y003546D03*
D373*
X003728Y003546D03*
D374*
X003727Y003546D03*
D375*
X003726Y003546D03*
D376*
X003725Y003546D03*
D377*
X003724Y003546D03*
D378*
X003723Y003546D03*
D379*
X003722Y003546D03*
D380*
X003721Y003546D03*
D381*
X003720Y003546D03*
D382*
X003719Y003546D03*
D383*
X003718Y003546D03*
D384*
X003717Y003546D03*
D385*
X003716Y003547D03*
D386*
X003715Y003547D03*
D387*
X003714Y003547D03*
D388*
X003713Y003547D03*
D389*
X003712Y003547D03*
D390*
X003711Y003547D03*
D391*
X003710Y003547D03*
D392*
X003709Y003547D03*
D393*
X003708Y003547D03*
D394*
X003707Y003547D03*
D395*
X003706Y003547D03*
D396*
X003705Y003547D03*
D397*
X003704Y003547D03*
D398*
X003703Y003547D03*
D399*
X003702Y003547D03*
D400*
X003701Y003547D03*
D401*
X003700Y003547D03*
D402*
X003699Y003546D03*
D403*
X003698Y003546D03*
D404*
X003697Y003546D03*
D405*
X003696Y003546D03*
D406*
X003695Y003546D03*
D407*
X003694Y003546D03*
D408*
X003693Y003546D03*
D409*
X003692Y003546D03*
D410*
X003691Y003546D03*
D411*
X003690Y003546D03*
D412*
X003689Y003546D03*
D413*
X003688Y003546D03*
D414*
X003687Y003546D03*
D415*
X003686Y003546D03*
D416*
X003685Y003546D03*
D417*
X003684Y003546D03*
D418*
X003683Y003546D03*
D419*
X003682Y003546D03*
D420*
X003681Y003546D03*
D421*
X003680Y003546D03*
D422*
X003679Y003546D03*
D423*
X003678Y003546D03*
D424*
X003677Y003546D03*
D425*
X003676Y003546D03*
D426*
X003675Y003546D03*
D427*
X003674Y003546D03*
D428*
X003673Y003546D03*
D429*
X003672Y003546D03*
D430*
X003671Y003546D03*
D431*
X003670Y003546D03*
D432*
X003669Y003546D03*
D433*
X003668Y003546D03*
D434*
X003667Y003547D03*
D435*
X003666Y003547D03*
D436*
X003665Y003547D03*
D437*
X003664Y003547D03*
D438*
X003663Y003547D03*
D439*
X003662Y003547D03*
D440*
X003661Y003547D03*
D441*
X003660Y003547D03*
D442*
X003659Y003547D03*
D443*
X003658Y003547D03*
D444*
X003657Y003547D03*
D445*
X003656Y003547D03*
D446*
X003655Y003547D03*
D447*
X003654Y003547D03*
D448*
X003653Y003547D03*
D449*
X003652Y003547D03*
D450*
X003651Y003547D03*
D451*
X003650Y003546D03*
D452*
X003649Y003546D03*
D453*
X003648Y003546D03*
D454*
X003647Y003546D03*
D455*
X003646Y003546D03*
D456*
X003645Y003546D03*
D457*
X003644Y003546D03*
D458*
X003643Y003546D03*
D459*
X003642Y003546D03*
D460*
X003641Y003546D03*
D461*
X003640Y003546D03*
D462*
X003639Y003546D03*
D463*
X003638Y003546D03*
D464*
X003637Y003546D03*
D465*
X003636Y003546D03*
D466*
X003635Y003546D03*
D467*
X003634Y003546D03*
D468*
X003633Y003546D03*
D469*
X003632Y003546D03*
D470*
X003631Y003546D03*
D471*
X003630Y003546D03*
D472*
X003629Y003546D03*
D473*
X003628Y003546D03*
D474*
X003627Y003546D03*
D475*
X003626Y003546D03*
D476*
X003625Y003546D03*
D477*
X003624Y003546D03*
D478*
X003623Y003546D03*
D479*
X003622Y003546D03*
D480*
X003621Y003546D03*
D481*
X003620Y003546D03*
D482*
X003619Y003546D03*
D483*
X003618Y003546D03*
D484*
X003617Y003547D03*
D485*
X003616Y003547D03*
D486*
X003615Y003547D03*
D487*
X003614Y003547D03*
D488*
X003613Y003547D03*
D489*
X003612Y003547D03*
D490*
X003611Y003547D03*
D491*
X003610Y003547D03*
D492*
X003609Y003547D03*
D493*
X003608Y003547D03*
D494*
X003607Y003547D03*
D495*
X003606Y003547D03*
D496*
X003605Y003547D03*
D497*
X003604Y003547D03*
D498*
X003603Y003547D03*
D499*
X003602Y003546D03*
D500*
X003601Y003546D03*
D501*
X003600Y003546D03*
D502*
X003599Y003546D03*
D503*
X003598Y003546D03*
D504*
X003597Y003546D03*
D505*
X003596Y003546D03*
D506*
X003595Y003546D03*
D507*
X003594Y003546D03*
D508*
X003593Y003546D03*
D509*
X003592Y003546D03*
D510*
X003591Y003546D03*
D511*
X003590Y003546D03*
D512*
X003589Y003546D03*
D513*
X003588Y003546D03*
D514*
X003587Y003546D03*
D515*
X003586Y003546D03*
D516*
X003585Y003546D03*
D517*
X003584Y003546D03*
D518*
X003583Y003546D03*
D519*
X003582Y003546D03*
D520*
X003581Y003546D03*
D521*
X003580Y003546D03*
D522*
X003579Y003546D03*
D523*
X003578Y003546D03*
D524*
X003577Y003546D03*
D525*
X003576Y003546D03*
D526*
X003575Y003546D03*
D527*
X003574Y003546D03*
D528*
X003573Y003546D03*
D529*
X003572Y003546D03*
D530*
X003571Y003546D03*
D531*
X003570Y003546D03*
D532*
X003569Y003546D03*
D533*
X003568Y003547D03*
D534*
X003567Y003547D03*
D535*
X003566Y003547D03*
D536*
X003565Y003547D03*
D537*
X003564Y003547D03*
D538*
X003563Y003547D03*
D539*
X003562Y003547D03*
D540*
X003561Y003547D03*
D541*
X003560Y003547D03*
D542*
X003559Y003547D03*
D543*
X003558Y003547D03*
D544*
X003557Y003547D03*
D545*
X003556Y003547D03*
D546*
X003555Y003547D03*
D547*
X003554Y003547D03*
D548*
X003553Y003546D03*
D549*
X003552Y003546D03*
D550*
X003551Y003546D03*
D551*
X003550Y003546D03*
D552*
X003549Y003546D03*
D553*
X003548Y003546D03*
D554*
X003547Y003546D03*
D555*
X003546Y003546D03*
D556*
X003545Y003546D03*
D557*
X003544Y003546D03*
D558*
X003543Y003546D03*
D559*
X003542Y003546D03*
D560*
X003541Y003546D03*
D561*
X003540Y003546D03*
D562*
X003539Y003546D03*
D563*
X003538Y003546D03*
D564*
X003537Y003546D03*
D565*
X003536Y003546D03*
D566*
X003535Y003546D03*
D567*
X003534Y003546D03*
D568*
X003533Y003546D03*
D569*
X003532Y003546D03*
D570*
X003531Y003546D03*
D571*
X003530Y003546D03*
D572*
X003529Y003546D03*
D573*
X003528Y003546D03*
D574*
X003527Y003546D03*
D575*
X003526Y003546D03*
D576*
X003525Y003546D03*
D577*
X003524Y003546D03*
D578*
X003523Y003546D03*
D579*
X003522Y003546D03*
D580*
X003521Y003546D03*
D581*
X003520Y003546D03*
D582*
X003519Y003547D03*
D583*
X003518Y003547D03*
D584*
X003517Y003547D03*
D585*
X003516Y003547D03*
D586*
X003515Y003547D03*
D587*
X003514Y003547D03*
D588*
X003513Y003547D03*
D589*
X003512Y003547D03*
D590*
X003511Y003547D03*
D591*
X003510Y003547D03*
D592*
X003509Y003547D03*
D593*
X003508Y003547D03*
D594*
X003507Y003547D03*
D595*
X003506Y003547D03*
D596*
X003505Y003547D03*
D597*
X003504Y003546D03*
D598*
X003503Y003546D03*
D599*
X003502Y003546D03*
D600*
X003501Y003546D03*
D601*
X003500Y003546D03*
D602*
X003499Y003546D03*
D603*
X003498Y003546D03*
D604*
X003497Y003546D03*
D605*
X003496Y003546D03*
D606*
X003495Y003546D03*
D607*
X003494Y003546D03*
D608*
X003493Y003546D03*
D609*
X003492Y003546D03*
D610*
X003491Y003546D03*
D611*
X003490Y003546D03*
D612*
X003489Y003546D03*
D613*
X003488Y003546D03*
D614*
X003487Y003546D03*
D615*
X003486Y003546D03*
D616*
X003485Y003546D03*
D617*
X003484Y003546D03*
D618*
X003483Y003546D03*
D619*
X003482Y003547D03*
D620*
X003481Y003546D03*
D621*
X003480Y003546D03*
D622*
X003479Y003546D03*
D623*
X003478Y003546D03*
D624*
X003477Y003546D03*
D625*
X003476Y003547D03*
D626*
X003475Y003547D03*
D627*
X003474Y003547D03*
D628*
X003473Y003547D03*
D629*
X003472Y003547D03*
D630*
X003471Y003547D03*
D631*
X003470Y003548D03*
D632*
X003469Y003548D03*
D633*
X003468Y003548D03*
D634*
X003467Y003548D03*
D635*
X003466Y003548D03*
D636*
X003465Y003548D03*
D637*
X003464Y003548D03*
D638*
X003463Y003548D03*
D639*
X003462Y003549D03*
D640*
X005568Y004552D02*
X005570Y004554D01*
X005568Y004554D01*
X005569Y004554D02*
X005569Y004555D01*
X005569Y004556D01*
X005568Y004556D01*
X005568Y004556D01*
X005568Y004557D01*
X005568Y004557D01*
X005569Y004557D01*
X005569Y004556D01*
X005569Y004556D01*
X005568Y004556D01*
X005569Y004555D02*
X005569Y004555D01*
X005569Y004557D02*
X005569Y004557D01*
X005569Y004558D02*
X005569Y004558D01*
X005568Y004558D01*
X005569Y004559D02*
X005568Y004559D01*
X005569Y004559D01*
X005569Y004559D01*
X005569Y004559D01*
X005569Y004558D01*
X005569Y004560D02*
X005569Y004560D01*
X005568Y004560D01*
X005568Y004560D01*
X005568Y004561D01*
X005568Y004562D02*
X005570Y004563D01*
X005569Y004563D02*
X005568Y004565D01*
X005568Y004566D01*
X005569Y004566D01*
X005569Y004565D01*
X005568Y004563D01*
X005569Y004561D02*
X005569Y004560D01*
X005569Y004561D01*
X005569Y004561D01*
X005569Y004561D01*
X005570Y004566D02*
X005570Y004566D01*
X005569Y004567D02*
X005569Y004568D01*
X005568Y004568D01*
X005569Y004568D01*
X005569Y004569D01*
X005569Y004570D01*
X005568Y004570D01*
X005568Y004569D01*
X005568Y004568D01*
X005568Y004568D01*
X005568Y004567D01*
X005569Y004567D02*
X005569Y004567D01*
X005569Y004567D01*
X005569Y004568D01*
X005569Y004570D02*
X005569Y004571D01*
X005569Y004571D01*
X005569Y004572D01*
X005568Y004572D01*
X005570Y004573D01*
X005569Y004574D02*
X005569Y004575D01*
X005568Y004575D01*
X005568Y004574D01*
X005568Y004574D01*
X005569Y004574D01*
X005569Y004575D01*
X005569Y004575D01*
X005569Y004576D02*
X005569Y004576D01*
X005568Y004576D01*
X005568Y004576D01*
X005568Y004577D02*
X005568Y004578D01*
X005568Y004579D02*
X005568Y004579D01*
X005570Y004579D01*
X005570Y004579D01*
X005569Y004580D02*
X005568Y004580D01*
X005568Y004580D01*
X005568Y004581D01*
X005568Y004581D01*
X005569Y004581D01*
X005569Y004580D01*
X005569Y004580D01*
X005569Y004581D02*
X005569Y004581D01*
X005569Y004582D02*
X005568Y004582D01*
X005568Y004583D01*
X005567Y004583D01*
X005567Y004583D01*
X005568Y004583D02*
X005569Y004583D01*
X005569Y004582D01*
X005569Y004582D01*
X005568Y004582D02*
X005568Y004582D01*
X005568Y004584D02*
X005568Y004584D01*
X005568Y004585D01*
X005568Y004585D01*
X005569Y004585D01*
X005569Y004585D01*
X005569Y004584D01*
X005568Y004584D01*
X005569Y004584D02*
X005569Y004584D01*
X005568Y004586D02*
X005568Y004586D01*
X005568Y004586D01*
X005568Y004586D01*
X005568Y004586D01*
X005568Y004587D01*
X005568Y004588D01*
X005569Y004588D01*
X005569Y004587D01*
X005569Y004586D01*
X005570Y004586D02*
X005568Y004586D01*
X005568Y004588D02*
X005569Y004588D01*
X005569Y004589D01*
X005569Y004589D01*
X005568Y004589D01*
X005569Y004590D02*
X005568Y004590D01*
X005568Y004591D01*
X005568Y004591D01*
X005569Y004591D01*
X005569Y004591D01*
X005569Y004590D01*
X005569Y004589D01*
X005569Y004589D01*
X005569Y004590D02*
X005567Y004590D01*
X005570Y004576D02*
X005570Y004576D01*
X005568Y004572D02*
X005568Y004571D01*
X005568Y004571D01*
X005568Y004570D01*
D641*
X005970Y004120D02*
X006770Y004120D01*
X007037Y004843D02*
X006995Y004884D01*
X006995Y004968D01*
X007037Y005009D01*
X007037Y005119D02*
X006995Y005160D01*
X006995Y005244D01*
X007037Y005286D01*
X007078Y005286D01*
X007120Y005244D01*
X007120Y005202D01*
X007120Y005244D02*
X007162Y005286D01*
X007204Y005286D01*
X007245Y005244D01*
X007245Y005160D01*
X007204Y005119D01*
X007204Y005009D02*
X007245Y004968D01*
X007245Y004884D01*
X007204Y004843D01*
X007037Y004843D01*
M02*
