G75*
%MOIN*%
%OFA0B0*%
%FSLAX24Y24*%
%IPPOS*%
%LPD*%
%AMOC8*
5,1,8,0,0,1.08239X$1,22.5*
%
%ADD10C,0.0820*%
%ADD11R,0.0820X0.0820*%
%ADD12C,0.0820*%
%ADD13C,0.0596*%
%ADD14C,0.0986*%
D10*
X003977Y008538D02*
X003977Y009278D01*
X004977Y009278D02*
X004977Y008538D01*
X005977Y008538D02*
X005977Y009278D01*
X006977Y009278D02*
X006977Y008538D01*
X007977Y008538D02*
X007977Y009278D01*
X008977Y009278D02*
X008977Y008538D01*
X010669Y008538D02*
X010669Y009278D01*
X011669Y009278D02*
X011669Y008538D01*
X012669Y008538D02*
X012669Y009278D01*
X013669Y009278D02*
X013669Y008538D01*
X014669Y008538D02*
X014669Y009278D01*
X015669Y009278D02*
X015669Y008538D01*
X017362Y008538D02*
X017362Y009278D01*
X018362Y009278D02*
X018362Y008538D01*
X019362Y008538D02*
X019362Y009278D01*
X020362Y009278D02*
X020362Y008538D01*
X021362Y008538D02*
X021362Y009278D01*
X022362Y009278D02*
X022362Y008538D01*
X024055Y008538D02*
X024055Y009278D01*
X025055Y009278D02*
X025055Y008538D01*
X026055Y008538D02*
X026055Y009278D01*
X027055Y009278D02*
X027055Y008538D01*
X028055Y008538D02*
X028055Y009278D01*
X029055Y009278D02*
X029055Y008538D01*
X029055Y018863D02*
X029055Y019603D01*
X028055Y019603D02*
X028055Y018863D01*
X027055Y018863D02*
X027055Y019603D01*
X026055Y019603D02*
X026055Y018863D01*
X025055Y018863D02*
X025055Y019603D01*
X024055Y019603D02*
X024055Y018863D01*
X022362Y018863D02*
X022362Y019603D01*
X021362Y019603D02*
X021362Y018863D01*
X020362Y018863D02*
X020362Y019603D01*
X019362Y019603D02*
X019362Y018863D01*
X018362Y018863D02*
X018362Y019603D01*
X017362Y019603D02*
X017362Y018863D01*
X015669Y018863D02*
X015669Y019603D01*
X014669Y019603D02*
X014669Y018863D01*
X013669Y018863D02*
X013669Y019603D01*
X012669Y019603D02*
X012669Y018863D01*
X011669Y018863D02*
X011669Y019603D01*
X010669Y019603D02*
X010669Y018863D01*
X008977Y018863D02*
X008977Y019603D01*
X007977Y019603D02*
X007977Y018863D01*
X006977Y018863D02*
X006977Y019603D01*
X005977Y019603D02*
X005977Y018863D01*
X004977Y018863D02*
X004977Y019603D01*
X003977Y019603D02*
X003977Y018863D01*
X003977Y029189D02*
X003977Y029929D01*
X004977Y029929D02*
X004977Y029189D01*
X005977Y029189D02*
X005977Y029929D01*
X006977Y029929D02*
X006977Y029189D01*
X007977Y029189D02*
X007977Y029929D01*
X008977Y029929D02*
X008977Y029189D01*
X010669Y029189D02*
X010669Y029929D01*
X011669Y029929D02*
X011669Y029189D01*
X012669Y029189D02*
X012669Y029929D01*
X013669Y029929D02*
X013669Y029189D01*
X014669Y029189D02*
X014669Y029929D01*
X015669Y029929D02*
X015669Y029189D01*
X017362Y029189D02*
X017362Y029929D01*
X018362Y029929D02*
X018362Y029189D01*
X019362Y029189D02*
X019362Y029929D01*
X020362Y029929D02*
X020362Y029189D01*
X021362Y029189D02*
X021362Y029929D01*
X022362Y029929D02*
X022362Y029189D01*
X024055Y029189D02*
X024055Y029929D01*
X025055Y029929D02*
X025055Y029189D01*
X026055Y029189D02*
X026055Y029929D01*
X027055Y029929D02*
X027055Y029189D01*
X028055Y029189D02*
X028055Y029929D01*
X029055Y029929D02*
X029055Y029189D01*
D11*
X023924Y024805D03*
X017231Y024805D03*
X010538Y024805D03*
X003845Y024805D03*
X003845Y014479D03*
X010538Y014479D03*
X017231Y014479D03*
X023924Y014479D03*
X023924Y004154D03*
X017231Y004154D03*
X010538Y004154D03*
X003845Y004154D03*
D12*
X003845Y001154D03*
X003845Y002154D03*
X003845Y003154D03*
X010538Y003154D03*
X010538Y002154D03*
X010538Y001154D03*
X017231Y001154D03*
X017231Y002154D03*
X017231Y003154D03*
X023924Y003154D03*
X023924Y002154D03*
X023924Y001154D03*
X023924Y011479D03*
X023924Y012479D03*
X023924Y013479D03*
X017231Y013479D03*
X017231Y012479D03*
X017231Y011479D03*
X010538Y011479D03*
X010538Y012479D03*
X010538Y013479D03*
X003845Y013479D03*
X003845Y012479D03*
X003845Y011479D03*
X003845Y021805D03*
X003845Y022805D03*
X003845Y023805D03*
X010538Y023805D03*
X010538Y022805D03*
X010538Y021805D03*
X017231Y021805D03*
X017231Y022805D03*
X017231Y023805D03*
X023924Y023805D03*
X023924Y022805D03*
X023924Y021805D03*
D13*
X025599Y022981D03*
X027508Y022981D03*
X020815Y022981D03*
X018906Y022981D03*
X014122Y022981D03*
X012213Y022981D03*
X007429Y022981D03*
X005520Y022981D03*
X005520Y012656D03*
X007429Y012656D03*
X012213Y012656D03*
X014122Y012656D03*
X018906Y012656D03*
X020815Y012656D03*
X025599Y012656D03*
X027508Y012656D03*
X027508Y002330D03*
X025599Y002330D03*
X020815Y002330D03*
X018906Y002330D03*
X014122Y002330D03*
X012213Y002330D03*
X007429Y002330D03*
X005520Y002330D03*
D14*
X005053Y001228D03*
X007896Y001228D03*
X011746Y001228D03*
X014589Y001228D03*
X018439Y001228D03*
X021282Y001228D03*
X025132Y001228D03*
X027975Y001228D03*
X027975Y011553D03*
X025132Y011553D03*
X021282Y011553D03*
X018439Y011553D03*
X014589Y011553D03*
X011746Y011553D03*
X007896Y011553D03*
X005053Y011553D03*
X005053Y021879D03*
X007896Y021879D03*
X011746Y021879D03*
X014589Y021879D03*
X018439Y021879D03*
X021282Y021879D03*
X025132Y021879D03*
X027975Y021879D03*
M02*
