G75*
%MOIN*%
%OFA0B0*%
%FSLAX24Y24*%
%IPPOS*%
%LPD*%
%AMOC8*
5,1,8,0,0,1.08239X$1,22.5*
%
%ADD10C,0.0740*%
%ADD11R,0.0740X0.0740*%
%ADD12C,0.0740*%
%ADD13R,0.0551X0.0138*%
%ADD14R,0.0748X0.0709*%
%ADD15R,0.0748X0.0748*%
%ADD16R,0.0630X0.0551*%
%ADD17C,0.0100*%
%ADD18C,0.0400*%
D10*
X002260Y000848D02*
X003000Y000848D01*
X003000Y001848D02*
X002260Y001848D01*
X002260Y002848D02*
X003000Y002848D01*
X003000Y003848D02*
X002260Y003848D01*
X002260Y004848D02*
X003000Y004848D01*
X003000Y005848D02*
X002260Y005848D01*
D11*
X006524Y000721D03*
D12*
X007524Y000721D03*
X008524Y000721D03*
X009524Y000721D03*
D13*
X008007Y003138D03*
X008007Y003394D03*
X008007Y003650D03*
X008007Y003906D03*
X008007Y004162D03*
D14*
X009050Y005225D03*
X009050Y002075D03*
D15*
X009050Y003150D03*
X009050Y004150D03*
D16*
X006500Y003699D03*
X006500Y004801D03*
D17*
X000325Y006375D02*
X000325Y000325D01*
X006004Y000325D01*
X006004Y001151D01*
X005955Y001200D01*
X003417Y001200D01*
X003300Y001317D01*
X003235Y001382D01*
X003149Y001347D01*
X003200Y001330D01*
X003273Y001293D01*
X003339Y001245D01*
X003397Y001187D01*
X003445Y001121D01*
X003482Y001048D01*
X003508Y000970D01*
X003519Y000898D01*
X002680Y000898D01*
X002680Y000798D01*
X002680Y000328D01*
X003041Y000328D01*
X003122Y000341D01*
X003200Y000366D01*
X003273Y000403D01*
X003339Y000451D01*
X003397Y000509D01*
X003445Y000575D01*
X003482Y000648D01*
X003508Y000726D01*
X003519Y000798D01*
X002680Y000798D01*
X002580Y000798D01*
X001742Y000798D01*
X001753Y000726D01*
X001778Y000648D01*
X001816Y000575D01*
X001864Y000509D01*
X001922Y000451D01*
X001988Y000403D01*
X002061Y000366D01*
X002139Y000341D01*
X002219Y000328D01*
X002580Y000328D01*
X002580Y000798D01*
X002580Y000898D01*
X001742Y000898D01*
X001753Y000970D01*
X001778Y001048D01*
X001816Y001121D01*
X001864Y001187D01*
X001922Y001245D01*
X001988Y001293D01*
X002061Y001330D01*
X002112Y001347D01*
X001966Y001407D01*
X001819Y001553D01*
X001740Y001745D01*
X001740Y001951D01*
X001819Y002143D01*
X001966Y002289D01*
X002109Y002348D01*
X001966Y002407D01*
X001819Y002553D01*
X001740Y002745D01*
X001740Y002951D01*
X001819Y003143D01*
X001966Y003289D01*
X002109Y003348D01*
X001966Y003407D01*
X001819Y003553D01*
X001740Y003745D01*
X001740Y003951D01*
X001819Y004143D01*
X001966Y004289D01*
X002109Y004348D01*
X001966Y004407D01*
X001819Y004553D01*
X001740Y004745D01*
X001740Y004951D01*
X001819Y005143D01*
X001966Y005289D01*
X002109Y005348D01*
X001966Y005407D01*
X001819Y005553D01*
X001740Y005745D01*
X001740Y005951D01*
X001819Y006143D01*
X001966Y006289D01*
X002157Y006368D01*
X003104Y006368D01*
X003295Y006289D01*
X003441Y006143D01*
X003520Y005951D01*
X003520Y005745D01*
X003441Y005553D01*
X003295Y005407D01*
X003152Y005348D01*
X003295Y005289D01*
X003441Y005143D01*
X003479Y005050D01*
X003783Y005050D01*
X003900Y004933D01*
X003900Y004933D01*
X005850Y002983D01*
X005850Y002945D01*
X005947Y002848D01*
X006000Y002720D01*
X006000Y002580D01*
X005947Y002452D01*
X005848Y002353D01*
X005720Y002300D01*
X005580Y002300D01*
X005452Y002353D01*
X005353Y002452D01*
X005300Y002580D01*
X005300Y002720D01*
X005353Y002848D01*
X005386Y002881D01*
X003617Y004650D01*
X003481Y004650D01*
X003441Y004553D01*
X003295Y004407D01*
X003152Y004348D01*
X003295Y004289D01*
X003441Y004143D01*
X003520Y003951D01*
X003520Y003745D01*
X003441Y003553D01*
X003295Y003407D01*
X003152Y003348D01*
X003295Y003289D01*
X003441Y003143D01*
X003520Y002951D01*
X003520Y002745D01*
X003441Y002553D01*
X003295Y002407D01*
X003152Y002348D01*
X003295Y002289D01*
X003441Y002143D01*
X003520Y001951D01*
X003520Y001745D01*
X003496Y001687D01*
X003583Y001600D01*
X005955Y001600D01*
X006052Y001697D01*
X006180Y001750D01*
X006320Y001750D01*
X006448Y001697D01*
X006547Y001598D01*
X006600Y001470D01*
X006600Y001330D01*
X006563Y001241D01*
X006956Y001241D01*
X007044Y001153D01*
X007044Y000921D01*
X007083Y001015D01*
X007229Y001162D01*
X007293Y001188D01*
X007293Y002676D01*
X007190Y002779D01*
X007120Y002709D01*
X006992Y002655D01*
X006852Y002655D01*
X006724Y002709D01*
X006625Y002807D01*
X006572Y002936D01*
X006572Y003075D01*
X006625Y003204D01*
X006695Y003273D01*
X006123Y003273D01*
X006035Y003361D01*
X006035Y004037D01*
X006123Y004124D01*
X006800Y004124D01*
X006800Y004376D01*
X006550Y004376D01*
X006550Y004751D01*
X006450Y004751D01*
X006450Y004376D01*
X006165Y004376D01*
X006127Y004386D01*
X006093Y004406D01*
X006065Y004433D01*
X006045Y004468D01*
X006035Y004506D01*
X006035Y004751D01*
X006450Y004751D01*
X006450Y004851D01*
X006035Y004851D01*
X006035Y005097D01*
X006045Y005135D01*
X006065Y005169D01*
X006093Y005197D01*
X006127Y005217D01*
X006165Y005227D01*
X006450Y005227D01*
X006450Y004851D01*
X006550Y004851D01*
X006965Y004851D01*
X006965Y005097D01*
X006955Y005135D01*
X006935Y005169D01*
X006907Y005197D01*
X006873Y005217D01*
X006835Y005227D01*
X006550Y005227D01*
X006550Y004851D01*
X006550Y004751D01*
X006965Y004751D01*
X006965Y004598D01*
X007267Y004900D01*
X007855Y004900D01*
X007952Y004997D01*
X008080Y005050D01*
X008220Y005050D01*
X008300Y005017D01*
X008300Y005113D01*
X008270Y005100D01*
X008130Y005100D01*
X008002Y005153D01*
X007903Y005252D01*
X007850Y005380D01*
X007850Y005520D01*
X007903Y005648D01*
X007980Y005725D01*
X007903Y005802D01*
X007850Y005930D01*
X007850Y006070D01*
X007903Y006198D01*
X008002Y006297D01*
X008130Y006350D01*
X008270Y006350D01*
X008398Y006297D01*
X008495Y006200D01*
X009633Y006200D01*
X009859Y005974D01*
X009859Y001517D01*
X009864Y001441D01*
X009859Y001435D01*
X009859Y001427D01*
X009805Y001373D01*
X009724Y001280D01*
X009724Y001201D01*
X009819Y001162D01*
X009965Y001015D01*
X009975Y000991D01*
X009975Y006375D01*
X000325Y006375D01*
X000325Y006356D02*
X002127Y006356D01*
X001934Y006257D02*
X000325Y006257D01*
X000325Y006159D02*
X001835Y006159D01*
X001785Y006060D02*
X000325Y006060D01*
X000325Y005962D02*
X001744Y005962D01*
X001740Y005863D02*
X000325Y005863D01*
X000325Y005765D02*
X001740Y005765D01*
X001773Y005666D02*
X000325Y005666D01*
X000325Y005568D02*
X001814Y005568D01*
X001904Y005469D02*
X000325Y005469D01*
X000325Y005371D02*
X002054Y005371D01*
X001949Y005272D02*
X000325Y005272D01*
X000325Y005174D02*
X001850Y005174D01*
X001791Y005075D02*
X000325Y005075D01*
X000325Y004977D02*
X001751Y004977D01*
X001740Y004878D02*
X000325Y004878D01*
X000325Y004780D02*
X001740Y004780D01*
X001767Y004681D02*
X000325Y004681D01*
X000325Y004583D02*
X001807Y004583D01*
X001889Y004484D02*
X000325Y004484D01*
X000325Y004386D02*
X002018Y004386D01*
X001964Y004287D02*
X000325Y004287D01*
X000325Y004189D02*
X001865Y004189D01*
X001798Y004090D02*
X000325Y004090D01*
X000325Y003992D02*
X001757Y003992D01*
X001740Y003893D02*
X000325Y003893D01*
X000325Y003795D02*
X001740Y003795D01*
X001760Y003696D02*
X000325Y003696D01*
X000325Y003598D02*
X001801Y003598D01*
X001874Y003499D02*
X000325Y003499D01*
X000325Y003401D02*
X001982Y003401D01*
X001997Y003302D02*
X000325Y003302D01*
X000325Y003204D02*
X001880Y003204D01*
X001804Y003105D02*
X000325Y003105D01*
X000325Y003007D02*
X001763Y003007D01*
X001740Y002908D02*
X000325Y002908D01*
X000325Y002810D02*
X001740Y002810D01*
X001754Y002711D02*
X000325Y002711D01*
X000325Y002613D02*
X001795Y002613D01*
X001859Y002514D02*
X000325Y002514D01*
X000325Y002416D02*
X001957Y002416D01*
X002034Y002317D02*
X000325Y002317D01*
X000325Y002219D02*
X001895Y002219D01*
X001810Y002120D02*
X000325Y002120D01*
X000325Y002022D02*
X001769Y002022D01*
X001740Y001923D02*
X000325Y001923D01*
X000325Y001825D02*
X001740Y001825D01*
X001748Y001726D02*
X000325Y001726D01*
X000325Y001628D02*
X001789Y001628D01*
X001844Y001529D02*
X000325Y001529D01*
X000325Y001431D02*
X001942Y001431D01*
X002067Y001332D02*
X000325Y001332D01*
X000325Y001234D02*
X001910Y001234D01*
X001826Y001135D02*
X000325Y001135D01*
X000325Y001037D02*
X001775Y001037D01*
X001748Y000938D02*
X000325Y000938D01*
X000325Y000840D02*
X002580Y000840D01*
X002630Y000848D02*
X004348Y000848D01*
X004500Y001000D01*
X003513Y000938D02*
X006004Y000938D01*
X006004Y000840D02*
X002680Y000840D01*
X002680Y000741D02*
X002580Y000741D01*
X002580Y000643D02*
X002680Y000643D01*
X002680Y000544D02*
X002580Y000544D01*
X002580Y000446D02*
X002680Y000446D01*
X002680Y000347D02*
X002580Y000347D01*
X002120Y000347D02*
X000325Y000347D01*
X000325Y000446D02*
X001930Y000446D01*
X001838Y000544D02*
X000325Y000544D01*
X000325Y000643D02*
X001781Y000643D01*
X001751Y000741D02*
X000325Y000741D01*
X002630Y001848D02*
X003052Y001848D01*
X003500Y001400D01*
X006250Y001400D01*
X006575Y001529D02*
X007293Y001529D01*
X007293Y001431D02*
X006600Y001431D01*
X006600Y001332D02*
X007293Y001332D01*
X007293Y001234D02*
X006964Y001234D01*
X007044Y001135D02*
X007203Y001135D01*
X007104Y001037D02*
X007044Y001037D01*
X007044Y000938D02*
X007051Y000938D01*
X007493Y000743D02*
X007524Y000721D01*
X008524Y000721D01*
X008044Y000921D02*
X008083Y001015D01*
X008229Y001162D01*
X008421Y001241D01*
X008627Y001241D01*
X008819Y001162D01*
X008965Y001015D01*
X009024Y000873D01*
X009083Y001015D01*
X009229Y001162D01*
X009324Y001201D01*
X009324Y001348D01*
X009319Y001424D01*
X009324Y001430D01*
X009324Y001438D01*
X009378Y001491D01*
X009447Y001571D01*
X008614Y001571D01*
X008526Y001659D01*
X008526Y002492D01*
X008614Y002580D01*
X009459Y002580D01*
X009459Y002626D01*
X008614Y002626D01*
X008526Y002714D01*
X008526Y003586D01*
X008590Y003650D01*
X008526Y003714D01*
X008526Y003793D01*
X008439Y003706D01*
X008432Y003706D01*
X008432Y003263D01*
X008425Y003255D01*
X008432Y003227D01*
X008432Y003138D01*
X008007Y003138D01*
X008007Y003138D01*
X008007Y002919D01*
X008302Y002919D01*
X008340Y002930D01*
X008374Y002949D01*
X008402Y002977D01*
X008422Y003011D01*
X008432Y003050D01*
X008432Y003138D01*
X008007Y003138D01*
X008007Y003138D01*
X008007Y002919D01*
X007711Y002919D01*
X007673Y002930D01*
X007639Y002949D01*
X007611Y002977D01*
X007591Y003011D01*
X007581Y003050D01*
X007581Y003138D01*
X008007Y003138D01*
X008007Y003138D01*
X007581Y003138D01*
X007581Y003227D01*
X007589Y003255D01*
X007581Y003263D01*
X007581Y003450D01*
X007317Y003450D01*
X007200Y003567D01*
X007100Y003667D01*
X007050Y003617D01*
X006965Y003532D01*
X006965Y003361D01*
X006959Y003355D01*
X006992Y003355D01*
X007120Y003302D01*
X007581Y003302D01*
X007581Y003401D02*
X006965Y003401D01*
X007120Y003302D02*
X007217Y003205D01*
X007329Y003205D01*
X007693Y002842D01*
X007693Y001214D01*
X007819Y001162D01*
X007965Y001015D01*
X008004Y000921D01*
X008044Y000921D01*
X008051Y000938D02*
X007997Y000938D01*
X007944Y001037D02*
X008104Y001037D01*
X008203Y001135D02*
X007845Y001135D01*
X007693Y001234D02*
X008403Y001234D01*
X008645Y001234D02*
X009324Y001234D01*
X009324Y001332D02*
X007693Y001332D01*
X007693Y001431D02*
X009324Y001431D01*
X009411Y001529D02*
X007693Y001529D01*
X007693Y001628D02*
X008557Y001628D01*
X008526Y001726D02*
X007693Y001726D01*
X007693Y001825D02*
X008526Y001825D01*
X008526Y001923D02*
X007693Y001923D01*
X007693Y002022D02*
X008526Y002022D01*
X008526Y002120D02*
X007693Y002120D01*
X007693Y002219D02*
X008526Y002219D01*
X008526Y002317D02*
X007693Y002317D01*
X007693Y002416D02*
X008526Y002416D01*
X008548Y002514D02*
X007693Y002514D01*
X007693Y002613D02*
X009459Y002613D01*
X009859Y002613D02*
X009975Y002613D01*
X009975Y002514D02*
X009859Y002514D01*
X009859Y002416D02*
X009975Y002416D01*
X009975Y002317D02*
X009859Y002317D01*
X009859Y002219D02*
X009975Y002219D01*
X009975Y002120D02*
X009859Y002120D01*
X009859Y002022D02*
X009975Y002022D01*
X009975Y001923D02*
X009859Y001923D01*
X009859Y001825D02*
X009975Y001825D01*
X009975Y001726D02*
X009859Y001726D01*
X009859Y001628D02*
X009975Y001628D01*
X009975Y001529D02*
X009859Y001529D01*
X009859Y001431D02*
X009975Y001431D01*
X009975Y001332D02*
X009769Y001332D01*
X009724Y001234D02*
X009975Y001234D01*
X009975Y001135D02*
X009845Y001135D01*
X009944Y001037D02*
X009975Y001037D01*
X009524Y000721D02*
X009524Y001355D01*
X009659Y001510D01*
X009659Y005891D01*
X009550Y006000D01*
X008200Y006000D01*
X007878Y005863D02*
X003520Y005863D01*
X003516Y005962D02*
X007850Y005962D01*
X007850Y006060D02*
X003475Y006060D01*
X003425Y006159D02*
X007887Y006159D01*
X007962Y006257D02*
X003327Y006257D01*
X003134Y006356D02*
X009975Y006356D01*
X009975Y006257D02*
X008438Y006257D01*
X007941Y005765D02*
X003520Y005765D01*
X003488Y005666D02*
X007921Y005666D01*
X007870Y005568D02*
X003447Y005568D01*
X003357Y005469D02*
X007850Y005469D01*
X007854Y005371D02*
X003206Y005371D01*
X003312Y005272D02*
X007895Y005272D01*
X007982Y005174D02*
X006930Y005174D01*
X006965Y005075D02*
X008300Y005075D01*
X008500Y005300D02*
X008500Y004050D01*
X008356Y003906D01*
X008007Y003906D01*
X008007Y004162D02*
X008007Y004543D01*
X007850Y004700D01*
X007350Y004700D01*
X007000Y004350D01*
X007000Y003850D01*
X006850Y003700D01*
X006501Y003700D01*
X006500Y003699D01*
X006551Y003750D01*
X006500Y003699D02*
X006500Y003850D01*
X006035Y003893D02*
X004940Y003893D01*
X004841Y003992D02*
X006035Y003992D01*
X006089Y004090D02*
X004743Y004090D01*
X004644Y004189D02*
X006800Y004189D01*
X006800Y004287D02*
X004546Y004287D01*
X004447Y004386D02*
X006128Y004386D01*
X006041Y004484D02*
X004349Y004484D01*
X004250Y004583D02*
X006035Y004583D01*
X006035Y004681D02*
X004152Y004681D01*
X004053Y004780D02*
X006450Y004780D01*
X006450Y004878D02*
X006550Y004878D01*
X006550Y004780D02*
X007147Y004780D01*
X007245Y004878D02*
X006965Y004878D01*
X006965Y004977D02*
X007932Y004977D01*
X008150Y004700D02*
X008007Y004557D01*
X008007Y004162D01*
X007400Y004250D02*
X007250Y004100D01*
X007250Y003800D01*
X007400Y003650D01*
X008007Y003650D01*
X008432Y003696D02*
X008544Y003696D01*
X008537Y003598D02*
X008432Y003598D01*
X008432Y003499D02*
X008526Y003499D01*
X008526Y003401D02*
X008432Y003401D01*
X008432Y003302D02*
X008526Y003302D01*
X008526Y003204D02*
X008432Y003204D01*
X008432Y003105D02*
X008526Y003105D01*
X008526Y003007D02*
X008419Y003007D01*
X008526Y002908D02*
X007626Y002908D01*
X007594Y003007D02*
X007528Y003007D01*
X007581Y003105D02*
X007429Y003105D01*
X007331Y003204D02*
X007581Y003204D01*
X007246Y003005D02*
X007493Y002759D01*
X007493Y000743D01*
X007293Y001628D02*
X006517Y001628D01*
X006378Y001726D02*
X007293Y001726D01*
X007293Y001825D02*
X003520Y001825D01*
X003520Y001923D02*
X007293Y001923D01*
X007293Y002022D02*
X003491Y002022D01*
X003451Y002120D02*
X007293Y002120D01*
X007293Y002219D02*
X003365Y002219D01*
X003227Y002317D02*
X005539Y002317D01*
X005390Y002416D02*
X003303Y002416D01*
X003402Y002514D02*
X005327Y002514D01*
X005300Y002613D02*
X003466Y002613D01*
X003506Y002711D02*
X005300Y002711D01*
X005337Y002810D02*
X003520Y002810D01*
X003520Y002908D02*
X005359Y002908D01*
X005261Y003007D02*
X003498Y003007D01*
X003457Y003105D02*
X005162Y003105D01*
X005064Y003204D02*
X003380Y003204D01*
X003263Y003302D02*
X004965Y003302D01*
X004867Y003401D02*
X003279Y003401D01*
X003387Y003499D02*
X004768Y003499D01*
X004670Y003598D02*
X003459Y003598D01*
X003500Y003696D02*
X004571Y003696D01*
X004473Y003795D02*
X003520Y003795D01*
X003520Y003893D02*
X004374Y003893D01*
X004276Y003992D02*
X003504Y003992D01*
X003463Y004090D02*
X004177Y004090D01*
X004079Y004189D02*
X003395Y004189D01*
X003297Y004287D02*
X003980Y004287D01*
X003882Y004386D02*
X003243Y004386D01*
X003372Y004484D02*
X003783Y004484D01*
X003685Y004583D02*
X003453Y004583D01*
X003700Y004850D02*
X005650Y002900D01*
X005650Y002650D01*
X005973Y002514D02*
X007293Y002514D01*
X007293Y002416D02*
X005910Y002416D01*
X005761Y002317D02*
X007293Y002317D01*
X007293Y002613D02*
X006000Y002613D01*
X006000Y002711D02*
X006721Y002711D01*
X006624Y002810D02*
X005963Y002810D01*
X005887Y002908D02*
X006583Y002908D01*
X006572Y003007D02*
X005826Y003007D01*
X005728Y003105D02*
X006584Y003105D01*
X006625Y003204D02*
X005629Y003204D01*
X005531Y003302D02*
X006094Y003302D01*
X006035Y003401D02*
X005432Y003401D01*
X005334Y003499D02*
X006035Y003499D01*
X006035Y003598D02*
X005235Y003598D01*
X005137Y003696D02*
X006035Y003696D01*
X006035Y003795D02*
X005038Y003795D01*
X006450Y004386D02*
X006550Y004386D01*
X006550Y004484D02*
X006450Y004484D01*
X006450Y004583D02*
X006550Y004583D01*
X006550Y004681D02*
X006450Y004681D01*
X006035Y004878D02*
X003955Y004878D01*
X003856Y004977D02*
X006035Y004977D01*
X006035Y005075D02*
X003469Y005075D01*
X003410Y005174D02*
X006070Y005174D01*
X006450Y005174D02*
X006550Y005174D01*
X006550Y005075D02*
X006450Y005075D01*
X006450Y004977D02*
X006550Y004977D01*
X006965Y004681D02*
X007048Y004681D01*
X008200Y005450D02*
X008350Y005450D01*
X008500Y005300D01*
X009674Y006159D02*
X009975Y006159D01*
X009975Y006060D02*
X009773Y006060D01*
X009859Y005962D02*
X009975Y005962D01*
X009975Y005863D02*
X009859Y005863D01*
X009859Y005765D02*
X009975Y005765D01*
X009975Y005666D02*
X009859Y005666D01*
X009859Y005568D02*
X009975Y005568D01*
X009975Y005469D02*
X009859Y005469D01*
X009859Y005371D02*
X009975Y005371D01*
X009975Y005272D02*
X009859Y005272D01*
X009859Y005174D02*
X009975Y005174D01*
X009975Y005075D02*
X009859Y005075D01*
X009859Y004977D02*
X009975Y004977D01*
X009975Y004878D02*
X009859Y004878D01*
X009859Y004780D02*
X009975Y004780D01*
X009975Y004681D02*
X009859Y004681D01*
X009859Y004583D02*
X009975Y004583D01*
X009975Y004484D02*
X009859Y004484D01*
X009859Y004386D02*
X009975Y004386D01*
X009975Y004287D02*
X009859Y004287D01*
X009859Y004189D02*
X009975Y004189D01*
X009975Y004090D02*
X009859Y004090D01*
X009859Y003992D02*
X009975Y003992D01*
X009975Y003893D02*
X009859Y003893D01*
X009859Y003795D02*
X009975Y003795D01*
X009975Y003696D02*
X009859Y003696D01*
X009859Y003598D02*
X009975Y003598D01*
X009975Y003499D02*
X009859Y003499D01*
X009859Y003401D02*
X009975Y003401D01*
X009975Y003302D02*
X009859Y003302D01*
X009859Y003204D02*
X009975Y003204D01*
X009975Y003105D02*
X009859Y003105D01*
X009859Y003007D02*
X009975Y003007D01*
X009975Y002908D02*
X009859Y002908D01*
X009859Y002810D02*
X009975Y002810D01*
X009975Y002711D02*
X009859Y002711D01*
X008529Y002711D02*
X007693Y002711D01*
X007693Y002810D02*
X008526Y002810D01*
X008007Y003007D02*
X008007Y003007D01*
X008007Y003105D02*
X008007Y003105D01*
X007246Y003005D02*
X006922Y003005D01*
X007123Y002711D02*
X007258Y002711D01*
X007268Y003499D02*
X006965Y003499D01*
X007030Y003598D02*
X007170Y003598D01*
X006122Y001726D02*
X003513Y001726D01*
X003555Y001628D02*
X005983Y001628D01*
X006004Y001135D02*
X003435Y001135D01*
X003486Y001037D02*
X006004Y001037D01*
X006004Y000741D02*
X003510Y000741D01*
X003479Y000643D02*
X006004Y000643D01*
X006004Y000544D02*
X003422Y000544D01*
X003331Y000446D02*
X006004Y000446D01*
X006004Y000347D02*
X003141Y000347D01*
X003350Y001234D02*
X003384Y001234D01*
X003285Y001332D02*
X003194Y001332D01*
X003700Y004850D02*
X002632Y004850D01*
X002630Y004848D01*
X008845Y001135D02*
X009203Y001135D01*
X009104Y001037D02*
X008944Y001037D01*
X008997Y000938D02*
X009051Y000938D01*
D18*
X007900Y002700D03*
X006922Y003005D03*
X005650Y002650D03*
X006250Y001400D03*
X004500Y001000D03*
X007400Y004250D03*
X008150Y004700D03*
X008200Y005450D03*
X008200Y006000D03*
X006900Y005500D03*
X004400Y005800D03*
M02*
