G75*
%MOIN*%
%OFA0B0*%
%FSLAX24Y24*%
%IPPOS*%
%LPD*%
%AMOC8*
5,1,8,0,0,1.08239X$1,22.5*
%
%ADD10C,0.0050*%
%ADD11C,0.0040*%
%ADD12C,0.0060*%
%ADD13C,0.0100*%
%ADD14C,0.0080*%
%ADD15C,0.0220*%
%ADD16R,0.0300X0.0180*%
D10*
X001220Y001274D02*
X001178Y001316D01*
X001178Y001399D01*
X001220Y001441D01*
X001262Y001441D01*
X001303Y001399D01*
X001345Y001441D01*
X001387Y001441D01*
X001428Y001399D01*
X001428Y001316D01*
X001387Y001274D01*
X001303Y001357D02*
X001303Y001399D01*
X001345Y001550D02*
X001178Y001550D01*
X001178Y001717D02*
X001345Y001717D01*
X001428Y001633D01*
X001345Y001550D01*
X001387Y001826D02*
X001428Y001868D01*
X001428Y001951D01*
X001387Y001993D01*
X001345Y001993D01*
X001303Y001951D01*
X001303Y001910D01*
X001303Y001951D02*
X001262Y001993D01*
X001220Y001993D01*
X001178Y001951D01*
X001178Y001868D01*
X001220Y001826D01*
X001228Y003400D02*
X001353Y003400D01*
X001312Y003483D01*
X001312Y003525D01*
X001353Y003567D01*
X001437Y003567D01*
X001478Y003525D01*
X001478Y003442D01*
X001437Y003400D01*
X001228Y003400D02*
X001228Y003567D01*
X001228Y003676D02*
X001395Y003676D01*
X001478Y003760D01*
X001395Y003843D01*
X001228Y003843D01*
X001218Y004703D02*
X001301Y004703D01*
X001343Y004744D01*
X001218Y004703D02*
X001176Y004744D01*
X001176Y004911D01*
X001218Y004953D01*
X001301Y004953D01*
X001343Y004911D01*
X001452Y004869D02*
X001536Y004953D01*
X001536Y004703D01*
X001619Y004703D02*
X001452Y004703D01*
X001578Y006653D02*
X001578Y006778D01*
X001620Y006819D01*
X001703Y006819D01*
X001745Y006778D01*
X001745Y006653D01*
X001745Y006736D02*
X001828Y006819D01*
X001828Y006929D02*
X001662Y007096D01*
X001620Y007096D01*
X001578Y007054D01*
X001578Y006970D01*
X001620Y006929D01*
X001828Y006929D02*
X001828Y007096D01*
X001751Y007303D02*
X001793Y007344D01*
X001751Y007303D02*
X001668Y007303D01*
X001626Y007344D01*
X001626Y007511D01*
X001668Y007553D01*
X001751Y007553D01*
X001793Y007511D01*
X001902Y007428D02*
X002069Y007428D01*
X002027Y007303D02*
X002027Y007553D01*
X001902Y007428D01*
X001982Y007778D02*
X002182Y007978D01*
X002182Y008028D01*
X002132Y008078D01*
X002032Y008078D01*
X001982Y008028D01*
X001860Y008078D02*
X001659Y008078D01*
X001759Y008078D02*
X001759Y007778D01*
X001982Y007778D02*
X002182Y007778D01*
X002304Y007828D02*
X002354Y007778D01*
X002454Y007778D01*
X002504Y007828D01*
X002504Y007878D01*
X002454Y007928D01*
X002404Y007928D01*
X002454Y007928D02*
X002504Y007978D01*
X002504Y008028D01*
X002454Y008078D01*
X002354Y008078D01*
X002304Y008028D01*
X002626Y008028D02*
X002676Y008078D01*
X002776Y008078D01*
X002826Y008028D01*
X002826Y007978D01*
X002626Y007778D01*
X002826Y007778D01*
X002948Y007778D02*
X002948Y008078D01*
X003099Y008078D01*
X003149Y008028D01*
X003149Y007928D01*
X003099Y007878D01*
X002948Y007878D01*
X003049Y007878D02*
X003149Y007778D01*
X003271Y007778D02*
X003471Y007778D01*
X003271Y007778D02*
X003271Y008078D01*
X003915Y008078D02*
X003915Y007778D01*
X004065Y007778D01*
X004115Y007828D01*
X004115Y007878D01*
X004065Y007928D01*
X003915Y007928D01*
X003915Y008078D02*
X004065Y008078D01*
X004115Y008028D01*
X004115Y007978D01*
X004065Y007928D01*
X004238Y007878D02*
X004388Y007878D01*
X004438Y007928D01*
X004438Y008028D01*
X004388Y008078D01*
X004238Y008078D01*
X004238Y007778D01*
X004338Y007878D02*
X004438Y007778D01*
X004560Y007778D02*
X004760Y007778D01*
X004560Y007778D02*
X004560Y008078D01*
X004760Y008078D01*
X004660Y007928D02*
X004560Y007928D01*
X004882Y007928D02*
X005082Y007928D01*
X005082Y007978D02*
X005082Y007778D01*
X005204Y007778D02*
X005204Y008078D01*
X005082Y007978D02*
X004982Y008078D01*
X004882Y007978D01*
X004882Y007778D01*
X005204Y007878D02*
X005405Y008078D01*
X005527Y008028D02*
X005527Y007828D01*
X005577Y007778D01*
X005677Y007778D01*
X005727Y007828D01*
X005727Y008028D01*
X005677Y008078D01*
X005577Y008078D01*
X005527Y008028D01*
X005405Y007778D02*
X005254Y007928D01*
X004722Y007411D02*
X004722Y007369D01*
X004680Y007328D01*
X004722Y007286D01*
X004722Y007244D01*
X004680Y007203D01*
X004596Y007203D01*
X004555Y007244D01*
X004638Y007328D02*
X004680Y007328D01*
X004722Y007411D02*
X004680Y007453D01*
X004596Y007453D01*
X004555Y007411D01*
X004445Y007411D02*
X004404Y007453D01*
X004320Y007453D01*
X004278Y007411D01*
X004278Y007244D01*
X004320Y007203D01*
X004404Y007203D01*
X004445Y007244D01*
X005550Y005997D02*
X005801Y005997D01*
X005801Y006080D02*
X005801Y005913D01*
X005801Y005804D02*
X005717Y005721D01*
X005717Y005762D02*
X005675Y005804D01*
X005592Y005804D01*
X005550Y005762D01*
X005550Y005637D01*
X005801Y005637D01*
X005717Y005637D02*
X005717Y005762D01*
X005634Y005913D02*
X005550Y005997D01*
X006183Y006146D02*
X006183Y006313D01*
X006183Y006229D02*
X006433Y006229D01*
X006433Y006422D02*
X006183Y006589D01*
X006183Y006699D02*
X006433Y006699D01*
X006433Y006865D01*
X006433Y006975D02*
X006433Y007142D01*
X006433Y007251D02*
X006433Y007376D01*
X006391Y007418D01*
X006224Y007418D01*
X006183Y007376D01*
X006183Y007251D01*
X006433Y007251D01*
X006308Y007058D02*
X006308Y006975D01*
X006183Y006975D02*
X006433Y006975D01*
X006183Y006975D02*
X006183Y007142D01*
X006433Y006589D02*
X006183Y006422D01*
X006271Y007778D02*
X006271Y008078D01*
X006171Y008078D02*
X006371Y008078D01*
X006049Y008078D02*
X006049Y007828D01*
X005999Y007778D01*
X005899Y007778D01*
X005849Y007828D01*
X005849Y008078D01*
X005363Y010178D02*
X005263Y010178D01*
X005213Y010228D01*
X005263Y010328D02*
X005363Y010328D01*
X005413Y010278D01*
X005413Y010228D01*
X005363Y010178D01*
X005263Y010328D02*
X005213Y010378D01*
X005213Y010428D01*
X005263Y010478D01*
X005363Y010478D01*
X005413Y010428D01*
X005653Y010453D02*
X005653Y010253D01*
X005704Y010203D01*
X005804Y010203D01*
X005854Y010253D01*
X005854Y010353D01*
X005754Y010353D01*
X005854Y010453D02*
X005804Y010503D01*
X005704Y010503D01*
X005653Y010453D01*
X005976Y010503D02*
X005976Y010203D01*
X006176Y010203D02*
X005976Y010503D01*
X006176Y010503D02*
X006176Y010203D01*
X006298Y010203D02*
X006448Y010203D01*
X006498Y010253D01*
X006498Y010453D01*
X006448Y010503D01*
X006298Y010503D01*
X006298Y010203D01*
X005091Y010478D02*
X004891Y010478D01*
X004991Y010478D02*
X004991Y010178D01*
X004769Y010228D02*
X004719Y010178D01*
X004619Y010178D01*
X004568Y010228D01*
X004568Y010428D01*
X004619Y010478D01*
X004719Y010478D01*
X004769Y010428D01*
X004333Y010453D02*
X004333Y010353D01*
X004283Y010303D01*
X004133Y010303D01*
X004233Y010303D02*
X004333Y010203D01*
X004133Y010203D02*
X004133Y010503D01*
X004283Y010503D01*
X004333Y010453D01*
X004011Y010503D02*
X004011Y010203D01*
X003911Y010303D01*
X003811Y010203D01*
X003811Y010503D01*
X003689Y010453D02*
X003689Y010353D01*
X003639Y010303D01*
X003488Y010303D01*
X003488Y010203D02*
X003488Y010503D01*
X003639Y010503D01*
X003689Y010453D01*
X003253Y010453D02*
X003253Y010253D01*
X003203Y010203D01*
X003103Y010203D01*
X003053Y010253D01*
X003053Y010453D01*
X003103Y010503D01*
X003203Y010503D01*
X003253Y010453D01*
X002931Y010503D02*
X002731Y010203D01*
X002931Y010203D02*
X002731Y010503D01*
X002609Y010503D02*
X002408Y010503D01*
X002509Y010503D02*
X002509Y010203D01*
X002173Y010203D02*
X002073Y010203D01*
X002123Y010203D02*
X002123Y010503D01*
X002073Y010503D02*
X002173Y010503D01*
X001951Y010503D02*
X001751Y010203D01*
X001629Y010203D02*
X001529Y010303D01*
X001579Y010303D02*
X001629Y010353D01*
X001629Y010453D01*
X001579Y010503D01*
X001428Y010503D01*
X001428Y010203D01*
X001428Y010303D02*
X001579Y010303D01*
X001751Y010503D02*
X001951Y010203D01*
X001193Y010203D02*
X001093Y010303D01*
X001143Y010303D02*
X001193Y010353D01*
X001193Y010453D01*
X001143Y010503D01*
X000993Y010503D01*
X000993Y010203D01*
X000993Y010303D02*
X001143Y010303D01*
X000871Y010503D02*
X000671Y010503D01*
X000771Y010503D02*
X000771Y010203D01*
X000549Y010253D02*
X000549Y010453D01*
X000499Y010503D01*
X000348Y010503D01*
X000348Y010203D01*
X000499Y010203D01*
X000549Y010253D01*
X000850Y008128D02*
X000850Y008078D01*
X000850Y007978D02*
X000800Y007978D01*
X000850Y007978D02*
X000850Y007778D01*
X000800Y007778D02*
X000900Y007778D01*
X000678Y007778D02*
X000678Y007978D01*
X000578Y008078D01*
X000478Y007978D01*
X000478Y007778D01*
X000478Y007928D02*
X000678Y007928D01*
X001337Y007928D02*
X001437Y007928D01*
X001337Y007778D02*
X001337Y008078D01*
X001537Y008078D01*
X000846Y007007D02*
X000846Y006756D01*
X000679Y007007D01*
X000679Y006756D01*
X000570Y006798D02*
X000570Y006965D01*
X000528Y007007D01*
X000445Y007007D01*
X000403Y006965D01*
X000403Y006798D01*
X000445Y006756D01*
X000528Y006756D01*
X000570Y006798D01*
X001578Y006653D02*
X001828Y006653D01*
X005578Y003804D02*
X005578Y003720D01*
X005620Y003679D01*
X005620Y003569D02*
X005578Y003528D01*
X005578Y003444D01*
X005620Y003403D01*
X005787Y003403D01*
X005828Y003444D01*
X005828Y003528D01*
X005787Y003569D01*
X005828Y003679D02*
X005662Y003846D01*
X005620Y003846D01*
X005578Y003804D01*
X005828Y003846D02*
X005828Y003679D01*
X006206Y003633D02*
X006206Y003758D01*
X006248Y003800D01*
X006415Y003800D01*
X006456Y003758D01*
X006456Y003633D01*
X006206Y003633D01*
X006206Y003523D02*
X006206Y003357D01*
X006456Y003357D01*
X006456Y003523D01*
X006331Y003440D02*
X006331Y003357D01*
X006456Y003247D02*
X006456Y003080D01*
X006206Y003080D01*
X006206Y002971D02*
X006456Y002804D01*
X006456Y002695D02*
X006373Y002611D01*
X006373Y002653D02*
X006373Y002528D01*
X006456Y002528D02*
X006206Y002528D01*
X006206Y002653D01*
X006248Y002695D01*
X006331Y002695D01*
X006373Y002653D01*
X006206Y002804D02*
X006456Y002971D01*
X006406Y001053D02*
X006306Y001053D01*
X006256Y001003D01*
X006406Y001053D02*
X006456Y001003D01*
X006456Y000953D01*
X006256Y000753D01*
X006456Y000753D01*
X006145Y000753D02*
X006095Y000753D01*
X006095Y000803D01*
X006145Y000803D01*
X006145Y000753D01*
X005973Y000753D02*
X005773Y000753D01*
X005873Y000753D02*
X005873Y001053D01*
X005773Y000953D01*
X005651Y000953D02*
X005551Y000753D01*
X005451Y000953D01*
D11*
X005518Y009698D02*
X005483Y009733D01*
X005518Y009698D02*
X005588Y009698D01*
X005623Y009733D01*
X005623Y009768D01*
X005588Y009803D01*
X005623Y009838D01*
X005623Y009873D01*
X005588Y009908D01*
X005518Y009908D01*
X005483Y009873D01*
X005393Y009908D02*
X005393Y009768D01*
X005322Y009698D01*
X005252Y009768D01*
X005252Y009908D01*
X005162Y009873D02*
X005162Y009838D01*
X005127Y009803D01*
X005162Y009768D01*
X005162Y009733D01*
X005127Y009698D01*
X005057Y009698D01*
X005022Y009733D01*
X005092Y009803D02*
X005127Y009803D01*
X005162Y009873D02*
X005127Y009908D01*
X005057Y009908D01*
X005022Y009873D01*
X004702Y009873D02*
X004702Y009733D01*
X004667Y009698D01*
X004597Y009698D01*
X004562Y009733D01*
X004562Y009873D01*
X004597Y009908D01*
X004667Y009908D01*
X004702Y009873D01*
X004472Y009908D02*
X004332Y009908D01*
X004402Y009908D02*
X004402Y009698D01*
X004011Y009698D02*
X003941Y009768D01*
X003976Y009768D02*
X003871Y009768D01*
X003871Y009698D02*
X003871Y009908D01*
X003976Y009908D01*
X004011Y009873D01*
X004011Y009803D01*
X003976Y009768D01*
X003781Y009698D02*
X003781Y009908D01*
X003641Y009908D02*
X003641Y009698D01*
X003711Y009768D01*
X003781Y009698D01*
X003551Y009803D02*
X003551Y009873D01*
X003516Y009908D01*
X003411Y009908D01*
X003411Y009698D01*
X003411Y009768D02*
X003516Y009768D01*
X003551Y009803D01*
X003091Y009768D02*
X003091Y009733D01*
X003056Y009698D01*
X002985Y009698D01*
X002950Y009733D01*
X002985Y009803D02*
X003056Y009803D01*
X003091Y009768D01*
X003091Y009873D02*
X003056Y009908D01*
X002985Y009908D01*
X002950Y009873D01*
X002950Y009838D01*
X002985Y009803D01*
X002860Y009908D02*
X002720Y009908D01*
X002790Y009908D02*
X002790Y009698D01*
X002630Y009698D02*
X002490Y009698D01*
X002490Y009908D01*
X002630Y009908D01*
X002560Y009803D02*
X002490Y009803D01*
X002400Y009768D02*
X002400Y009733D01*
X002365Y009698D01*
X002295Y009698D01*
X002260Y009733D01*
X002295Y009803D02*
X002260Y009838D01*
X002260Y009873D01*
X002295Y009908D01*
X002365Y009908D01*
X002400Y009873D01*
X002365Y009803D02*
X002400Y009768D01*
X002365Y009803D02*
X002295Y009803D01*
X001940Y009803D02*
X001905Y009768D01*
X001799Y009768D01*
X001799Y009698D02*
X001799Y009908D01*
X001905Y009908D01*
X001940Y009873D01*
X001940Y009803D01*
X001870Y009768D02*
X001940Y009698D01*
X001709Y009698D02*
X001569Y009698D01*
X001569Y009908D01*
X001709Y009908D01*
X001639Y009803D02*
X001569Y009803D01*
X001479Y009803D02*
X001479Y009873D01*
X001444Y009908D01*
X001339Y009908D01*
X001339Y009698D01*
X001339Y009768D02*
X001444Y009768D01*
X001479Y009803D01*
X001249Y009908D02*
X001249Y009698D01*
X001179Y009838D02*
X001249Y009908D01*
X001179Y009838D02*
X001109Y009908D01*
X001109Y009698D01*
X001019Y009733D02*
X001019Y009908D01*
X000879Y009908D02*
X000879Y009733D01*
X000914Y009698D01*
X000984Y009698D01*
X001019Y009733D01*
X000754Y009733D02*
X000754Y009908D01*
X000719Y009908D02*
X000789Y009908D01*
X000754Y009733D02*
X000719Y009698D01*
X000684Y009698D01*
X000648Y009733D01*
X005553Y009803D02*
X005588Y009803D01*
X005713Y009698D02*
X005853Y009908D01*
X005943Y009908D02*
X005943Y009803D01*
X006013Y009838D01*
X006048Y009838D01*
X006083Y009803D01*
X006083Y009733D01*
X006048Y009698D01*
X005978Y009698D01*
X005943Y009733D01*
X005943Y009908D02*
X006083Y009908D01*
X006173Y009908D02*
X006173Y009768D01*
X006243Y009698D01*
X006313Y009768D01*
X006313Y009908D01*
D12*
X006578Y010028D02*
X005523Y010028D01*
X005523Y010653D01*
X005523Y010028D02*
X004448Y010028D01*
X004448Y010653D01*
X004448Y010028D02*
X003378Y010028D01*
X003378Y010653D01*
X003378Y010028D02*
X002298Y010028D01*
X002298Y010653D01*
X002298Y010028D02*
X001308Y010028D01*
X001308Y010653D01*
X001308Y010028D02*
X000228Y010028D01*
X002402Y006825D02*
X004705Y006825D01*
X004705Y002730D01*
X002402Y002730D01*
X002402Y006825D01*
X002633Y006478D02*
X002635Y006499D01*
X002641Y006520D01*
X002650Y006540D01*
X002663Y006557D01*
X002678Y006572D01*
X002696Y006584D01*
X002716Y006592D01*
X002737Y006597D01*
X002758Y006598D01*
X002780Y006595D01*
X002800Y006588D01*
X002819Y006578D01*
X002836Y006565D01*
X002850Y006549D01*
X002861Y006530D01*
X002869Y006510D01*
X002873Y006489D01*
X002873Y006467D01*
X002869Y006446D01*
X002861Y006426D01*
X002850Y006407D01*
X002836Y006391D01*
X002819Y006378D01*
X002800Y006368D01*
X002780Y006361D01*
X002758Y006358D01*
X002737Y006359D01*
X002716Y006364D01*
X002696Y006372D01*
X002678Y006384D01*
X002663Y006399D01*
X002650Y006416D01*
X002641Y006436D01*
X002635Y006457D01*
X002633Y006478D01*
D13*
X001353Y000828D02*
X001203Y000828D01*
X001353Y000828D02*
X001353Y001178D01*
X001353Y002128D02*
X001353Y002478D01*
X001203Y002478D01*
X001203Y002828D02*
X001353Y002828D01*
X001353Y003228D01*
X001353Y004078D02*
X001353Y004478D01*
X001203Y004478D01*
D14*
X000835Y006161D02*
X000653Y006161D01*
X000561Y006283D01*
X000472Y006161D02*
X000653Y006161D01*
X000663Y006167D02*
X000739Y006283D01*
X000405Y008658D02*
X000405Y009158D01*
X006122Y005694D02*
X006303Y005694D01*
X006396Y005572D01*
X006485Y005694D02*
X006303Y005694D01*
X006293Y005688D02*
X006218Y005572D01*
X006211Y004383D02*
X006303Y004261D01*
X006485Y004261D01*
X006389Y004383D02*
X006313Y004267D01*
X006303Y004261D02*
X006122Y004261D01*
X004742Y002350D02*
X004270Y002350D01*
X004270Y001798D01*
X002537Y001798D01*
X002537Y002350D01*
X002065Y002350D01*
X002065Y001720D01*
X002065Y000657D02*
X004742Y000657D01*
X004742Y001720D02*
X004742Y002350D01*
X006405Y008658D02*
X006405Y009158D01*
D15*
X005403Y007340D02*
X005403Y007316D01*
X005691Y002728D02*
X005715Y002728D01*
X001003Y005216D02*
X001003Y005240D01*
X001003Y007416D02*
X001003Y007440D01*
D16*
X001253Y006478D03*
X005703Y004978D03*
M02*
