%
M48
M72
T01C0.0200
T02C0.0400
T03C0.0440
%
T01
X5753Y1628
X6253Y1328
X4303Y3828
X5853Y4078
X4203Y5028
X4253Y5528
X2703Y5878
X3303Y7178
X5853Y6278
X8168Y4528
X9318Y5878
X10868Y5528
X10818Y5028
X12468Y4078
X10918Y3828
X14782Y4528
X15932Y5878
X17482Y5528
X17432Y5028
X19082Y4078
X17532Y3828
X18982Y1628
X19482Y1328
X12868Y1328
X12368Y1628
X12468Y6278
X9918Y7178
X16532Y7178
X19082Y6278
X1553Y4528
T02
X774Y1154
X774Y2154
X774Y3154
X774Y4154
X7389Y4154
X7389Y3154
X7389Y2154
X7389Y1154
X14003Y1154
X14003Y2154
X14003Y3154
X14003Y4154
T03
X14134Y8908
X15134Y8908
X16134Y8908
X17134Y8908
X18134Y8908
X19134Y8908
X12520Y8908
X11520Y8908
X10520Y8908
X9520Y8908
X8520Y8908
X7520Y8908
X5905Y8908
X4905Y8908
X3905Y8908
X2905Y8908
X1905Y8908
X905Y8908
M30
