G75*
%MOIN*%
%OFA0B0*%
%FSLAX24Y24*%
%IPPOS*%
%LPD*%
%AMOC8*
5,1,8,0,0,1.08239X$1,22.5*
%
%ADD10C,0.0050*%
%ADD11C,0.0040*%
%ADD12C,0.0060*%
%ADD13C,0.0100*%
%ADD14C,0.0079*%
%ADD15C,0.0080*%
%ADD16C,0.0220*%
%ADD17R,0.0300X0.0180*%
D10*
X001220Y001274D02*
X001178Y001316D01*
X001178Y001399D01*
X001220Y001441D01*
X001262Y001441D01*
X001303Y001399D01*
X001345Y001441D01*
X001387Y001441D01*
X001428Y001399D01*
X001428Y001316D01*
X001387Y001274D01*
X001303Y001357D02*
X001303Y001399D01*
X001345Y001550D02*
X001178Y001550D01*
X001178Y001717D02*
X001345Y001717D01*
X001428Y001633D01*
X001345Y001550D01*
X001387Y001826D02*
X001428Y001868D01*
X001428Y001951D01*
X001387Y001993D01*
X001345Y001993D01*
X001303Y001951D01*
X001303Y001910D01*
X001303Y001951D02*
X001262Y001993D01*
X001220Y001993D01*
X001178Y001951D01*
X001178Y001868D01*
X001220Y001826D01*
X001228Y003400D02*
X001353Y003400D01*
X001312Y003483D01*
X001312Y003525D01*
X001353Y003567D01*
X001437Y003567D01*
X001478Y003525D01*
X001478Y003442D01*
X001437Y003400D01*
X001228Y003400D02*
X001228Y003567D01*
X001228Y003676D02*
X001395Y003676D01*
X001478Y003760D01*
X001395Y003843D01*
X001228Y003843D01*
X001218Y004703D02*
X001176Y004744D01*
X001176Y004911D01*
X001218Y004953D01*
X001301Y004953D01*
X001343Y004911D01*
X001452Y004869D02*
X001536Y004953D01*
X001536Y004703D01*
X001619Y004703D02*
X001452Y004703D01*
X001343Y004744D02*
X001301Y004703D01*
X001218Y004703D01*
X001578Y006653D02*
X001578Y006778D01*
X001620Y006819D01*
X001703Y006819D01*
X001745Y006778D01*
X001745Y006653D01*
X001745Y006736D02*
X001828Y006819D01*
X001828Y006929D02*
X001662Y007096D01*
X001620Y007096D01*
X001578Y007054D01*
X001578Y006970D01*
X001620Y006929D01*
X001828Y006929D02*
X001828Y007096D01*
X001751Y007303D02*
X001793Y007344D01*
X001751Y007303D02*
X001668Y007303D01*
X001626Y007344D01*
X001626Y007511D01*
X001668Y007553D01*
X001751Y007553D01*
X001793Y007511D01*
X001902Y007428D02*
X002069Y007428D01*
X002027Y007303D02*
X002027Y007553D01*
X001902Y007428D01*
X001982Y007778D02*
X002182Y007978D01*
X002182Y008028D01*
X002132Y008078D01*
X002032Y008078D01*
X001982Y008028D01*
X001860Y008078D02*
X001659Y008078D01*
X001759Y008078D02*
X001759Y007778D01*
X001982Y007778D02*
X002182Y007778D01*
X002304Y007828D02*
X002354Y007778D01*
X002454Y007778D01*
X002504Y007828D01*
X002504Y007878D01*
X002454Y007928D01*
X002404Y007928D01*
X002454Y007928D02*
X002504Y007978D01*
X002504Y008028D01*
X002454Y008078D01*
X002354Y008078D01*
X002304Y008028D01*
X002626Y008028D02*
X002676Y008078D01*
X002776Y008078D01*
X002826Y008028D01*
X002826Y007978D01*
X002626Y007778D01*
X002826Y007778D01*
X002948Y007778D02*
X002948Y008078D01*
X003099Y008078D01*
X003149Y008028D01*
X003149Y007928D01*
X003099Y007878D01*
X002948Y007878D01*
X003049Y007878D02*
X003149Y007778D01*
X003271Y007778D02*
X003471Y007778D01*
X003271Y007778D02*
X003271Y008078D01*
X003915Y008078D02*
X003915Y007778D01*
X004065Y007778D01*
X004115Y007828D01*
X004115Y007878D01*
X004065Y007928D01*
X003915Y007928D01*
X003915Y008078D02*
X004065Y008078D01*
X004115Y008028D01*
X004115Y007978D01*
X004065Y007928D01*
X004238Y007878D02*
X004388Y007878D01*
X004438Y007928D01*
X004438Y008028D01*
X004388Y008078D01*
X004238Y008078D01*
X004238Y007778D01*
X004338Y007878D02*
X004438Y007778D01*
X004560Y007778D02*
X004760Y007778D01*
X004882Y007778D02*
X004882Y007978D01*
X004982Y008078D01*
X005082Y007978D01*
X005082Y007778D01*
X005204Y007778D02*
X005204Y008078D01*
X005254Y007928D02*
X005405Y007778D01*
X005527Y007828D02*
X005577Y007778D01*
X005677Y007778D01*
X005727Y007828D01*
X005727Y008028D01*
X005677Y008078D01*
X005577Y008078D01*
X005527Y008028D01*
X005527Y007828D01*
X005405Y008078D02*
X005204Y007878D01*
X005082Y007928D02*
X004882Y007928D01*
X004760Y008078D02*
X004560Y008078D01*
X004560Y007778D01*
X004560Y007928D02*
X004660Y007928D01*
X004680Y007453D02*
X004596Y007453D01*
X004555Y007411D01*
X004445Y007411D02*
X004404Y007453D01*
X004320Y007453D01*
X004278Y007411D01*
X004278Y007244D01*
X004320Y007203D01*
X004404Y007203D01*
X004445Y007244D01*
X004555Y007244D02*
X004596Y007203D01*
X004680Y007203D01*
X004722Y007244D01*
X004722Y007286D01*
X004680Y007328D01*
X004638Y007328D01*
X004680Y007328D02*
X004722Y007369D01*
X004722Y007411D01*
X004680Y007453D01*
X005849Y007828D02*
X005849Y008078D01*
X006049Y008078D02*
X006049Y007828D01*
X005999Y007778D01*
X005899Y007778D01*
X005849Y007828D01*
X006171Y008078D02*
X006371Y008078D01*
X006271Y008078D02*
X006271Y007778D01*
X006224Y007418D02*
X006183Y007376D01*
X006183Y007251D01*
X006433Y007251D01*
X006433Y007376D01*
X006391Y007418D01*
X006224Y007418D01*
X006183Y007142D02*
X006183Y006975D01*
X006433Y006975D01*
X006433Y007142D01*
X006308Y007058D02*
X006308Y006975D01*
X006433Y006865D02*
X006433Y006699D01*
X006183Y006699D01*
X006183Y006589D02*
X006433Y006422D01*
X006433Y006589D02*
X006183Y006422D01*
X006183Y006313D02*
X006183Y006146D01*
X006183Y006229D02*
X006433Y006229D01*
X005801Y006080D02*
X005801Y005913D01*
X005801Y005997D02*
X005550Y005997D01*
X005634Y005913D01*
X005592Y005804D02*
X005675Y005804D01*
X005717Y005762D01*
X005717Y005637D01*
X005801Y005637D02*
X005550Y005637D01*
X005550Y005762D01*
X005592Y005804D01*
X005717Y005721D02*
X005801Y005804D01*
X007017Y006798D02*
X007059Y006756D01*
X007142Y006756D01*
X007184Y006798D01*
X007184Y006965D01*
X007142Y007007D01*
X007059Y007007D01*
X007017Y006965D01*
X007017Y006798D01*
X007294Y006756D02*
X007294Y007007D01*
X007460Y006756D01*
X007460Y007007D01*
X008192Y006970D02*
X008234Y006929D01*
X008192Y006970D02*
X008192Y007054D01*
X008234Y007096D01*
X008276Y007096D01*
X008443Y006929D01*
X008443Y007096D01*
X008365Y007303D02*
X008407Y007344D01*
X008365Y007303D02*
X008282Y007303D01*
X008240Y007344D01*
X008240Y007511D01*
X008282Y007553D01*
X008365Y007553D01*
X008407Y007511D01*
X008516Y007428D02*
X008683Y007428D01*
X008642Y007303D02*
X008642Y007553D01*
X008516Y007428D01*
X008596Y007778D02*
X008796Y007978D01*
X008796Y008028D01*
X008746Y008078D01*
X008646Y008078D01*
X008596Y008028D01*
X008474Y008078D02*
X008274Y008078D01*
X008374Y008078D02*
X008374Y007778D01*
X008596Y007778D02*
X008796Y007778D01*
X008918Y007828D02*
X008968Y007778D01*
X009068Y007778D01*
X009118Y007828D01*
X009118Y007878D01*
X009068Y007928D01*
X009018Y007928D01*
X009068Y007928D02*
X009118Y007978D01*
X009118Y008028D01*
X009068Y008078D01*
X008968Y008078D01*
X008918Y008028D01*
X009240Y008028D02*
X009290Y008078D01*
X009391Y008078D01*
X009441Y008028D01*
X009441Y007978D01*
X009240Y007778D01*
X009441Y007778D01*
X009563Y007778D02*
X009563Y008078D01*
X009713Y008078D01*
X009763Y008028D01*
X009763Y007928D01*
X009713Y007878D01*
X009563Y007878D01*
X009663Y007878D02*
X009763Y007778D01*
X009885Y007778D02*
X010085Y007778D01*
X009885Y007778D02*
X009885Y008078D01*
X010529Y008078D02*
X010529Y007778D01*
X010680Y007778D01*
X010730Y007828D01*
X010730Y007878D01*
X010680Y007928D01*
X010529Y007928D01*
X010529Y008078D02*
X010680Y008078D01*
X010730Y008028D01*
X010730Y007978D01*
X010680Y007928D01*
X010852Y007878D02*
X011002Y007878D01*
X011052Y007928D01*
X011052Y008028D01*
X011002Y008078D01*
X010852Y008078D01*
X010852Y007778D01*
X010952Y007878D02*
X011052Y007778D01*
X011174Y007778D02*
X011374Y007778D01*
X011496Y007778D02*
X011496Y007978D01*
X011596Y008078D01*
X011696Y007978D01*
X011696Y007778D01*
X011819Y007778D02*
X011819Y008078D01*
X011869Y007928D02*
X012019Y007778D01*
X012141Y007828D02*
X012191Y007778D01*
X012291Y007778D01*
X012341Y007828D01*
X012341Y008028D01*
X012291Y008078D01*
X012191Y008078D01*
X012141Y008028D01*
X012141Y007828D01*
X012019Y008078D02*
X011819Y007878D01*
X011696Y007928D02*
X011496Y007928D01*
X011374Y008078D02*
X011174Y008078D01*
X011174Y007778D01*
X011174Y007928D02*
X011274Y007928D01*
X011294Y007453D02*
X011211Y007453D01*
X011169Y007411D01*
X011059Y007411D02*
X011018Y007453D01*
X010934Y007453D01*
X010893Y007411D01*
X010893Y007244D01*
X010934Y007203D01*
X011018Y007203D01*
X011059Y007244D01*
X011169Y007244D02*
X011211Y007203D01*
X011294Y007203D01*
X011336Y007244D01*
X011336Y007286D01*
X011294Y007328D01*
X011252Y007328D01*
X011294Y007328D02*
X011336Y007369D01*
X011336Y007411D01*
X011294Y007453D01*
X012463Y007828D02*
X012463Y008078D01*
X012663Y008078D02*
X012663Y007828D01*
X012613Y007778D01*
X012513Y007778D01*
X012463Y007828D01*
X012785Y008078D02*
X012986Y008078D01*
X012885Y008078D02*
X012885Y007778D01*
X012839Y007418D02*
X012797Y007376D01*
X012797Y007251D01*
X013047Y007251D01*
X013047Y007376D01*
X013005Y007418D01*
X012839Y007418D01*
X012797Y007142D02*
X012797Y006975D01*
X013047Y006975D01*
X013047Y007142D01*
X012922Y007058D02*
X012922Y006975D01*
X013047Y006865D02*
X013047Y006699D01*
X012797Y006699D01*
X012797Y006589D02*
X013047Y006422D01*
X013047Y006589D02*
X012797Y006422D01*
X012797Y006313D02*
X012797Y006146D01*
X012797Y006229D02*
X013047Y006229D01*
X012415Y006080D02*
X012415Y005913D01*
X012415Y005997D02*
X012165Y005997D01*
X012248Y005913D01*
X012206Y005804D02*
X012290Y005804D01*
X012331Y005762D01*
X012331Y005637D01*
X012331Y005721D02*
X012415Y005804D01*
X012206Y005804D02*
X012165Y005762D01*
X012165Y005637D01*
X012415Y005637D01*
X014404Y004911D02*
X014404Y004744D01*
X014446Y004703D01*
X014529Y004703D01*
X014571Y004744D01*
X014681Y004703D02*
X014847Y004703D01*
X014764Y004703D02*
X014764Y004953D01*
X014681Y004869D01*
X014571Y004911D02*
X014529Y004953D01*
X014446Y004953D01*
X014404Y004911D01*
X014457Y003843D02*
X014623Y003843D01*
X014707Y003760D01*
X014623Y003676D01*
X014457Y003676D01*
X014457Y003567D02*
X014457Y003400D01*
X014582Y003400D01*
X014540Y003483D01*
X014540Y003525D01*
X014582Y003567D01*
X014665Y003567D01*
X014707Y003525D01*
X014707Y003442D01*
X014665Y003400D01*
X013071Y003357D02*
X013071Y003523D01*
X013071Y003633D02*
X013071Y003758D01*
X013029Y003800D01*
X012862Y003800D01*
X012820Y003758D01*
X012820Y003633D01*
X013071Y003633D01*
X012946Y003440D02*
X012946Y003357D01*
X013071Y003357D02*
X012820Y003357D01*
X012820Y003523D01*
X012443Y003528D02*
X012443Y003444D01*
X012401Y003403D01*
X012234Y003403D01*
X012192Y003444D01*
X012192Y003528D01*
X012234Y003569D01*
X012234Y003679D02*
X012192Y003720D01*
X012192Y003804D01*
X012234Y003846D01*
X012276Y003846D01*
X012443Y003679D01*
X012443Y003846D01*
X012401Y003569D02*
X012443Y003528D01*
X012820Y003080D02*
X013071Y003080D01*
X013071Y003247D01*
X013071Y002971D02*
X012820Y002804D01*
X012862Y002695D02*
X012820Y002653D01*
X012820Y002528D01*
X013071Y002528D01*
X012987Y002528D02*
X012987Y002653D01*
X012946Y002695D01*
X012862Y002695D01*
X012987Y002611D02*
X013071Y002695D01*
X013071Y002804D02*
X012820Y002971D01*
X014407Y001951D02*
X014448Y001993D01*
X014490Y001993D01*
X014532Y001951D01*
X014573Y001993D01*
X014615Y001993D01*
X014657Y001951D01*
X014657Y001868D01*
X014615Y001826D01*
X014573Y001717D02*
X014407Y001717D01*
X014448Y001826D02*
X014407Y001868D01*
X014407Y001951D01*
X014532Y001951D02*
X014532Y001910D01*
X014573Y001717D02*
X014657Y001633D01*
X014573Y001550D01*
X014407Y001550D01*
X014448Y001441D02*
X014490Y001441D01*
X014532Y001399D01*
X014573Y001441D01*
X014615Y001441D01*
X014657Y001399D01*
X014657Y001316D01*
X014615Y001274D01*
X014532Y001357D02*
X014532Y001399D01*
X014448Y001441D02*
X014407Y001399D01*
X014407Y001316D01*
X014448Y001274D01*
X013432Y000628D02*
X013432Y010678D01*
X013218Y010678D02*
X013218Y000628D01*
X013071Y000753D02*
X012870Y000753D01*
X013071Y000953D01*
X013071Y001003D01*
X013021Y001053D01*
X012920Y001053D01*
X012870Y001003D01*
X012759Y000803D02*
X012759Y000753D01*
X012709Y000753D01*
X012709Y000803D01*
X012759Y000803D01*
X012587Y000753D02*
X012387Y000753D01*
X012487Y000753D02*
X012487Y001053D01*
X012387Y000953D01*
X012265Y000953D02*
X012165Y000753D01*
X012065Y000953D01*
X008043Y001316D02*
X008001Y001274D01*
X008043Y001316D02*
X008043Y001399D01*
X008001Y001441D01*
X007959Y001441D01*
X007918Y001399D01*
X007918Y001357D01*
X007918Y001399D02*
X007876Y001441D01*
X007834Y001441D01*
X007792Y001399D01*
X007792Y001316D01*
X007834Y001274D01*
X007792Y001550D02*
X007959Y001550D01*
X008043Y001633D01*
X007959Y001717D01*
X007792Y001717D01*
X007834Y001826D02*
X007792Y001868D01*
X007792Y001951D01*
X007834Y001993D01*
X007876Y001993D01*
X007918Y001951D01*
X007959Y001993D01*
X008001Y001993D01*
X008043Y001951D01*
X008043Y001868D01*
X008001Y001826D01*
X007918Y001910D02*
X007918Y001951D01*
X006456Y002528D02*
X006206Y002528D01*
X006206Y002653D01*
X006248Y002695D01*
X006331Y002695D01*
X006373Y002653D01*
X006373Y002528D01*
X006373Y002611D02*
X006456Y002695D01*
X006456Y002804D02*
X006206Y002971D01*
X006206Y003080D02*
X006456Y003080D01*
X006456Y003247D01*
X006456Y003357D02*
X006456Y003523D01*
X006456Y003633D02*
X006456Y003758D01*
X006415Y003800D01*
X006248Y003800D01*
X006206Y003758D01*
X006206Y003633D01*
X006456Y003633D01*
X006331Y003440D02*
X006331Y003357D01*
X006206Y003357D02*
X006456Y003357D01*
X006206Y003357D02*
X006206Y003523D01*
X005828Y003528D02*
X005828Y003444D01*
X005787Y003403D01*
X005620Y003403D01*
X005578Y003444D01*
X005578Y003528D01*
X005620Y003569D01*
X005620Y003679D02*
X005578Y003720D01*
X005578Y003804D01*
X005620Y003846D01*
X005662Y003846D01*
X005828Y003679D01*
X005828Y003846D01*
X005787Y003569D02*
X005828Y003528D01*
X006206Y002804D02*
X006456Y002971D01*
X007842Y003400D02*
X007968Y003400D01*
X007926Y003483D01*
X007926Y003525D01*
X007968Y003567D01*
X008051Y003567D01*
X008093Y003525D01*
X008093Y003442D01*
X008051Y003400D01*
X007842Y003400D02*
X007842Y003567D01*
X007842Y003676D02*
X008009Y003676D01*
X008093Y003760D01*
X008009Y003843D01*
X007842Y003843D01*
X007832Y004703D02*
X007915Y004703D01*
X007957Y004744D01*
X008066Y004703D02*
X008233Y004703D01*
X008150Y004703D02*
X008150Y004953D01*
X008066Y004869D01*
X007957Y004911D02*
X007915Y004953D01*
X007832Y004953D01*
X007790Y004911D01*
X007790Y004744D01*
X007832Y004703D01*
X008192Y006653D02*
X008192Y006778D01*
X008234Y006819D01*
X008318Y006819D01*
X008359Y006778D01*
X008359Y006653D01*
X008359Y006736D02*
X008443Y006819D01*
X008443Y006653D02*
X008192Y006653D01*
X007951Y007778D02*
X007951Y008078D01*
X008151Y008078D01*
X008051Y007928D02*
X007951Y007928D01*
X007514Y007778D02*
X007414Y007778D01*
X007464Y007778D02*
X007464Y007978D01*
X007414Y007978D01*
X007464Y008078D02*
X007464Y008128D01*
X007292Y007978D02*
X007292Y007778D01*
X007092Y007778D02*
X007092Y007978D01*
X007192Y008078D01*
X007292Y007978D01*
X007292Y007928D02*
X007092Y007928D01*
X007113Y010203D02*
X006963Y010203D01*
X006963Y010503D01*
X007113Y010503D01*
X007163Y010453D01*
X007163Y010253D01*
X007113Y010203D01*
X007385Y010203D02*
X007385Y010503D01*
X007285Y010503D02*
X007485Y010503D01*
X007607Y010503D02*
X007757Y010503D01*
X007807Y010453D01*
X007807Y010353D01*
X007757Y010303D01*
X007607Y010303D01*
X007707Y010303D02*
X007807Y010203D01*
X007607Y010203D02*
X007607Y010503D01*
X008043Y010503D02*
X008043Y010203D01*
X008043Y010303D02*
X008193Y010303D01*
X008243Y010353D01*
X008243Y010453D01*
X008193Y010503D01*
X008043Y010503D01*
X008365Y010503D02*
X008565Y010203D01*
X008687Y010203D02*
X008787Y010203D01*
X008737Y010203D02*
X008737Y010503D01*
X008687Y010503D02*
X008787Y010503D01*
X008565Y010503D02*
X008365Y010203D01*
X008243Y010203D02*
X008143Y010303D01*
X009023Y010503D02*
X009223Y010503D01*
X009123Y010503D02*
X009123Y010203D01*
X009345Y010203D02*
X009545Y010503D01*
X009667Y010453D02*
X009667Y010253D01*
X009717Y010203D01*
X009817Y010203D01*
X009867Y010253D01*
X009867Y010453D01*
X009817Y010503D01*
X009717Y010503D01*
X009667Y010453D01*
X009545Y010203D02*
X009345Y010503D01*
X010103Y010503D02*
X010103Y010203D01*
X010103Y010303D02*
X010253Y010303D01*
X010303Y010353D01*
X010303Y010453D01*
X010253Y010503D01*
X010103Y010503D01*
X010425Y010503D02*
X010425Y010203D01*
X010525Y010303D01*
X010625Y010203D01*
X010625Y010503D01*
X010747Y010503D02*
X010897Y010503D01*
X010947Y010453D01*
X010947Y010353D01*
X010897Y010303D01*
X010747Y010303D01*
X010847Y010303D02*
X010947Y010203D01*
X010747Y010203D02*
X010747Y010503D01*
X011183Y010453D02*
X011183Y010253D01*
X011233Y010203D01*
X011333Y010203D01*
X011383Y010253D01*
X011605Y010203D02*
X011605Y010503D01*
X011505Y010503D02*
X011705Y010503D01*
X011827Y010453D02*
X011827Y010403D01*
X011877Y010353D01*
X011977Y010353D01*
X012027Y010303D01*
X012027Y010253D01*
X011977Y010203D01*
X011877Y010203D01*
X011827Y010253D01*
X011827Y010453D02*
X011877Y010503D01*
X011977Y010503D01*
X012027Y010453D01*
X012268Y010453D02*
X012268Y010253D01*
X012318Y010203D01*
X012418Y010203D01*
X012468Y010253D01*
X012468Y010353D01*
X012368Y010353D01*
X012468Y010453D02*
X012418Y010503D01*
X012318Y010503D01*
X012268Y010453D01*
X012590Y010503D02*
X012790Y010203D01*
X012790Y010503D01*
X012912Y010503D02*
X013062Y010503D01*
X013112Y010453D01*
X013112Y010253D01*
X013062Y010203D01*
X012912Y010203D01*
X012912Y010503D01*
X012590Y010503D02*
X012590Y010203D01*
X013577Y010203D02*
X013727Y010203D01*
X013777Y010253D01*
X013777Y010453D01*
X013727Y010503D01*
X013577Y010503D01*
X013577Y010203D01*
X013999Y010203D02*
X013999Y010503D01*
X013899Y010503D02*
X014099Y010503D01*
X014221Y010503D02*
X014372Y010503D01*
X014422Y010453D01*
X014422Y010353D01*
X014372Y010303D01*
X014221Y010303D01*
X014221Y010203D02*
X014221Y010503D01*
X014321Y010303D02*
X014422Y010203D01*
X014657Y010203D02*
X014657Y010503D01*
X014807Y010503D01*
X014857Y010453D01*
X014857Y010353D01*
X014807Y010303D01*
X014657Y010303D01*
X014757Y010303D02*
X014857Y010203D01*
X014979Y010203D02*
X015179Y010503D01*
X015301Y010503D02*
X015401Y010503D01*
X015351Y010503D02*
X015351Y010203D01*
X015301Y010203D02*
X015401Y010203D01*
X015179Y010203D02*
X014979Y010503D01*
X015637Y010503D02*
X015837Y010503D01*
X015737Y010503D02*
X015737Y010203D01*
X015959Y010203D02*
X016159Y010503D01*
X016281Y010453D02*
X016281Y010253D01*
X016331Y010203D01*
X016432Y010203D01*
X016482Y010253D01*
X016482Y010453D01*
X016432Y010503D01*
X016331Y010503D01*
X016281Y010453D01*
X016159Y010203D02*
X015959Y010503D01*
X016717Y010503D02*
X016717Y010203D01*
X016717Y010303D02*
X016867Y010303D01*
X016917Y010353D01*
X016917Y010453D01*
X016867Y010503D01*
X016717Y010503D01*
X017039Y010503D02*
X017039Y010203D01*
X017139Y010303D01*
X017239Y010203D01*
X017239Y010503D01*
X017361Y010503D02*
X017512Y010503D01*
X017562Y010453D01*
X017562Y010353D01*
X017512Y010303D01*
X017361Y010303D01*
X017361Y010203D02*
X017361Y010503D01*
X017461Y010303D02*
X017562Y010203D01*
X017797Y010253D02*
X017847Y010203D01*
X017947Y010203D01*
X017997Y010253D01*
X017797Y010253D02*
X017797Y010453D01*
X017847Y010503D01*
X017947Y010503D01*
X017997Y010453D01*
X018119Y010503D02*
X018319Y010503D01*
X018219Y010503D02*
X018219Y010203D01*
X018441Y010253D02*
X018491Y010203D01*
X018592Y010203D01*
X018642Y010253D01*
X018642Y010303D01*
X018592Y010353D01*
X018491Y010353D01*
X018441Y010403D01*
X018441Y010453D01*
X018491Y010503D01*
X018592Y010503D01*
X018642Y010453D01*
X018882Y010453D02*
X018882Y010253D01*
X018932Y010203D01*
X019032Y010203D01*
X019082Y010253D01*
X019082Y010353D01*
X018982Y010353D01*
X019082Y010453D02*
X019032Y010503D01*
X018932Y010503D01*
X018882Y010453D01*
X019204Y010503D02*
X019404Y010203D01*
X019404Y010503D01*
X019526Y010503D02*
X019677Y010503D01*
X019727Y010453D01*
X019727Y010253D01*
X019677Y010203D01*
X019526Y010203D01*
X019526Y010503D01*
X019204Y010503D02*
X019204Y010203D01*
X019277Y008078D02*
X019277Y007828D01*
X019227Y007778D01*
X019127Y007778D01*
X019077Y007828D01*
X019077Y008078D01*
X018955Y008028D02*
X018905Y008078D01*
X018805Y008078D01*
X018755Y008028D01*
X018755Y007828D01*
X018805Y007778D01*
X018905Y007778D01*
X018955Y007828D01*
X018955Y008028D01*
X018633Y008078D02*
X018433Y007878D01*
X018483Y007928D02*
X018633Y007778D01*
X018433Y007778D02*
X018433Y008078D01*
X018311Y007978D02*
X018311Y007778D01*
X018110Y007778D02*
X018110Y007978D01*
X018211Y008078D01*
X018311Y007978D01*
X018311Y007928D02*
X018110Y007928D01*
X017988Y008078D02*
X017788Y008078D01*
X017788Y007778D01*
X017988Y007778D01*
X017888Y007928D02*
X017788Y007928D01*
X017666Y007928D02*
X017616Y007878D01*
X017466Y007878D01*
X017466Y007778D02*
X017466Y008078D01*
X017616Y008078D01*
X017666Y008028D01*
X017666Y007928D01*
X017566Y007878D02*
X017666Y007778D01*
X017344Y007828D02*
X017294Y007778D01*
X017144Y007778D01*
X017144Y008078D01*
X017294Y008078D01*
X017344Y008028D01*
X017344Y007978D01*
X017294Y007928D01*
X017144Y007928D01*
X017294Y007928D02*
X017344Y007878D01*
X017344Y007828D01*
X016699Y007778D02*
X016499Y007778D01*
X016499Y008078D01*
X016377Y008028D02*
X016377Y007928D01*
X016327Y007878D01*
X016177Y007878D01*
X016177Y007778D02*
X016177Y008078D01*
X016327Y008078D01*
X016377Y008028D01*
X016277Y007878D02*
X016377Y007778D01*
X016055Y007778D02*
X015855Y007778D01*
X016055Y007978D01*
X016055Y008028D01*
X016005Y008078D01*
X015905Y008078D01*
X015855Y008028D01*
X015732Y008028D02*
X015732Y007978D01*
X015682Y007928D01*
X015732Y007878D01*
X015732Y007828D01*
X015682Y007778D01*
X015582Y007778D01*
X015532Y007828D01*
X015410Y007778D02*
X015210Y007778D01*
X015410Y007978D01*
X015410Y008028D01*
X015360Y008078D01*
X015260Y008078D01*
X015210Y008028D01*
X015088Y008078D02*
X014888Y008078D01*
X014988Y008078D02*
X014988Y007778D01*
X014979Y007553D02*
X014896Y007553D01*
X014854Y007511D01*
X014854Y007344D01*
X014896Y007303D01*
X014979Y007303D01*
X015021Y007344D01*
X015131Y007428D02*
X015297Y007428D01*
X015256Y007303D02*
X015256Y007553D01*
X015131Y007428D01*
X015021Y007511D02*
X014979Y007553D01*
X014565Y007778D02*
X014565Y008078D01*
X014766Y008078D01*
X014666Y007928D02*
X014565Y007928D01*
X014128Y007778D02*
X014028Y007778D01*
X014078Y007778D02*
X014078Y007978D01*
X014028Y007978D01*
X014078Y008078D02*
X014078Y008128D01*
X013906Y007978D02*
X013906Y007778D01*
X013706Y007778D02*
X013706Y007978D01*
X013806Y008078D01*
X013906Y007978D01*
X013906Y007928D02*
X013706Y007928D01*
X014807Y007054D02*
X014807Y006970D01*
X014848Y006929D01*
X014848Y006819D02*
X014932Y006819D01*
X014973Y006778D01*
X014973Y006653D01*
X014973Y006736D02*
X015057Y006819D01*
X015057Y006929D02*
X014890Y007096D01*
X014848Y007096D01*
X014807Y007054D01*
X015057Y007096D02*
X015057Y006929D01*
X014848Y006819D02*
X014807Y006778D01*
X014807Y006653D01*
X015057Y006653D01*
X014075Y006756D02*
X014075Y007007D01*
X013908Y007007D02*
X014075Y006756D01*
X013908Y006756D02*
X013908Y007007D01*
X013798Y006965D02*
X013757Y007007D01*
X013673Y007007D01*
X013632Y006965D01*
X013632Y006798D01*
X013673Y006756D01*
X013757Y006756D01*
X013798Y006798D01*
X013798Y006965D01*
X015632Y007928D02*
X015682Y007928D01*
X015732Y008028D02*
X015682Y008078D01*
X015582Y008078D01*
X015532Y008028D01*
X017507Y007411D02*
X017507Y007244D01*
X017549Y007203D01*
X017632Y007203D01*
X017674Y007244D01*
X017783Y007244D02*
X017825Y007203D01*
X017908Y007203D01*
X017950Y007244D01*
X017950Y007286D01*
X017908Y007328D01*
X017866Y007328D01*
X017908Y007328D02*
X017950Y007369D01*
X017950Y007411D01*
X017908Y007453D01*
X017825Y007453D01*
X017783Y007411D01*
X017674Y007411D02*
X017632Y007453D01*
X017549Y007453D01*
X017507Y007411D01*
X019411Y007376D02*
X019411Y007251D01*
X019661Y007251D01*
X019661Y007376D01*
X019620Y007418D01*
X019453Y007418D01*
X019411Y007376D01*
X019411Y007142D02*
X019411Y006975D01*
X019661Y006975D01*
X019661Y007142D01*
X019536Y007058D02*
X019536Y006975D01*
X019661Y006865D02*
X019661Y006699D01*
X019411Y006699D01*
X019411Y006589D02*
X019661Y006422D01*
X019661Y006589D02*
X019411Y006422D01*
X019411Y006313D02*
X019411Y006146D01*
X019411Y006229D02*
X019661Y006229D01*
X019029Y006080D02*
X019029Y005913D01*
X019029Y005997D02*
X018779Y005997D01*
X018862Y005913D01*
X018820Y005804D02*
X018904Y005804D01*
X018945Y005762D01*
X018945Y005637D01*
X018945Y005721D02*
X019029Y005804D01*
X018820Y005804D02*
X018779Y005762D01*
X018779Y005637D01*
X019029Y005637D01*
X019057Y003846D02*
X019057Y003679D01*
X018890Y003846D01*
X018848Y003846D01*
X018807Y003804D01*
X018807Y003720D01*
X018848Y003679D01*
X018848Y003569D02*
X018807Y003528D01*
X018807Y003444D01*
X018848Y003403D01*
X019015Y003403D01*
X019057Y003444D01*
X019057Y003528D01*
X019015Y003569D01*
X019435Y003523D02*
X019435Y003357D01*
X019685Y003357D01*
X019685Y003523D01*
X019685Y003633D02*
X019685Y003758D01*
X019643Y003800D01*
X019476Y003800D01*
X019435Y003758D01*
X019435Y003633D01*
X019685Y003633D01*
X019560Y003440D02*
X019560Y003357D01*
X019685Y003247D02*
X019685Y003080D01*
X019435Y003080D01*
X019435Y002971D02*
X019685Y002804D01*
X019685Y002695D02*
X019601Y002611D01*
X019601Y002653D02*
X019601Y002528D01*
X019685Y002528D02*
X019435Y002528D01*
X019435Y002653D01*
X019476Y002695D01*
X019560Y002695D01*
X019601Y002653D01*
X019435Y002804D02*
X019685Y002971D01*
X019635Y001053D02*
X019535Y001053D01*
X019485Y001003D01*
X019635Y001053D02*
X019685Y001003D01*
X019685Y000953D01*
X019485Y000753D01*
X019685Y000753D01*
X019373Y000753D02*
X019323Y000753D01*
X019323Y000803D01*
X019373Y000803D01*
X019373Y000753D01*
X019201Y000753D02*
X019001Y000753D01*
X019101Y000753D02*
X019101Y001053D01*
X019001Y000953D01*
X018879Y000953D02*
X018779Y000753D01*
X018679Y000953D01*
X006818Y000628D02*
X006818Y010678D01*
X006603Y010678D02*
X006603Y000628D01*
X006456Y000753D02*
X006256Y000753D01*
X006456Y000953D01*
X006456Y001003D01*
X006406Y001053D01*
X006306Y001053D01*
X006256Y001003D01*
X006145Y000803D02*
X006145Y000753D01*
X006095Y000753D01*
X006095Y000803D01*
X006145Y000803D01*
X005973Y000753D02*
X005773Y000753D01*
X005873Y000753D02*
X005873Y001053D01*
X005773Y000953D01*
X005651Y000953D02*
X005551Y000753D01*
X005451Y000953D01*
X001828Y006653D02*
X001578Y006653D01*
X000846Y006756D02*
X000846Y007007D01*
X000679Y007007D02*
X000846Y006756D01*
X000679Y006756D02*
X000679Y007007D01*
X000570Y006965D02*
X000528Y007007D01*
X000445Y007007D01*
X000403Y006965D01*
X000403Y006798D01*
X000445Y006756D01*
X000528Y006756D01*
X000570Y006798D01*
X000570Y006965D01*
X000478Y007778D02*
X000478Y007978D01*
X000578Y008078D01*
X000678Y007978D01*
X000678Y007778D01*
X000800Y007778D02*
X000900Y007778D01*
X000850Y007778D02*
X000850Y007978D01*
X000800Y007978D01*
X000850Y008078D02*
X000850Y008128D01*
X000678Y007928D02*
X000478Y007928D01*
X001337Y007928D02*
X001437Y007928D01*
X001337Y007778D02*
X001337Y008078D01*
X001537Y008078D01*
X001629Y010203D02*
X001529Y010303D01*
X001579Y010303D02*
X001428Y010303D01*
X001428Y010203D02*
X001428Y010503D01*
X001579Y010503D01*
X001629Y010453D01*
X001629Y010353D01*
X001579Y010303D01*
X001751Y010203D02*
X001951Y010503D01*
X002073Y010503D02*
X002173Y010503D01*
X002123Y010503D02*
X002123Y010203D01*
X002073Y010203D02*
X002173Y010203D01*
X001951Y010203D02*
X001751Y010503D01*
X001193Y010453D02*
X001193Y010353D01*
X001143Y010303D01*
X000993Y010303D01*
X001093Y010303D02*
X001193Y010203D01*
X000993Y010203D02*
X000993Y010503D01*
X001143Y010503D01*
X001193Y010453D01*
X000871Y010503D02*
X000671Y010503D01*
X000771Y010503D02*
X000771Y010203D01*
X000549Y010253D02*
X000549Y010453D01*
X000499Y010503D01*
X000348Y010503D01*
X000348Y010203D01*
X000499Y010203D01*
X000549Y010253D01*
X002408Y010503D02*
X002609Y010503D01*
X002509Y010503D02*
X002509Y010203D01*
X002731Y010203D02*
X002931Y010503D01*
X003053Y010453D02*
X003053Y010253D01*
X003103Y010203D01*
X003203Y010203D01*
X003253Y010253D01*
X003253Y010453D01*
X003203Y010503D01*
X003103Y010503D01*
X003053Y010453D01*
X002931Y010203D02*
X002731Y010503D01*
X003488Y010503D02*
X003488Y010203D01*
X003488Y010303D02*
X003639Y010303D01*
X003689Y010353D01*
X003689Y010453D01*
X003639Y010503D01*
X003488Y010503D01*
X003811Y010503D02*
X003811Y010203D01*
X003911Y010303D01*
X004011Y010203D01*
X004011Y010503D01*
X004133Y010503D02*
X004283Y010503D01*
X004333Y010453D01*
X004333Y010353D01*
X004283Y010303D01*
X004133Y010303D01*
X004233Y010303D02*
X004333Y010203D01*
X004133Y010203D02*
X004133Y010503D01*
X004568Y010453D02*
X004568Y010253D01*
X004619Y010203D01*
X004719Y010203D01*
X004769Y010253D01*
X004991Y010203D02*
X004991Y010503D01*
X004891Y010503D02*
X005091Y010503D01*
X005213Y010453D02*
X005213Y010403D01*
X005263Y010353D01*
X005363Y010353D01*
X005413Y010303D01*
X005413Y010253D01*
X005363Y010203D01*
X005263Y010203D01*
X005213Y010253D01*
X005213Y010453D02*
X005263Y010503D01*
X005363Y010503D01*
X005413Y010453D01*
X005653Y010453D02*
X005653Y010253D01*
X005704Y010203D01*
X005804Y010203D01*
X005854Y010253D01*
X005854Y010353D01*
X005754Y010353D01*
X005854Y010453D02*
X005804Y010503D01*
X005704Y010503D01*
X005653Y010453D01*
X005976Y010503D02*
X006176Y010203D01*
X006176Y010503D01*
X006298Y010503D02*
X006448Y010503D01*
X006498Y010453D01*
X006498Y010253D01*
X006448Y010203D01*
X006298Y010203D01*
X006298Y010503D01*
X005976Y010503D02*
X005976Y010203D01*
X004769Y010453D02*
X004719Y010503D01*
X004619Y010503D01*
X004568Y010453D01*
X011183Y010453D02*
X011233Y010503D01*
X011333Y010503D01*
X011383Y010453D01*
X019400Y008078D02*
X019600Y008078D01*
X019500Y008078D02*
X019500Y007778D01*
D11*
X019472Y009698D02*
X019542Y009768D01*
X019542Y009908D01*
X019402Y009908D02*
X019402Y009768D01*
X019472Y009698D01*
X019311Y009733D02*
X019276Y009698D01*
X019206Y009698D01*
X019171Y009733D01*
X019171Y009803D02*
X019241Y009838D01*
X019276Y009838D01*
X019311Y009803D01*
X019311Y009733D01*
X019171Y009803D02*
X019171Y009908D01*
X019311Y009908D01*
X019081Y009908D02*
X018941Y009698D01*
X018851Y009733D02*
X018851Y009768D01*
X018816Y009803D01*
X018781Y009803D01*
X018816Y009803D02*
X018851Y009838D01*
X018851Y009873D01*
X018816Y009908D01*
X018746Y009908D01*
X018711Y009873D01*
X018621Y009908D02*
X018621Y009768D01*
X018551Y009698D01*
X018481Y009768D01*
X018481Y009908D01*
X018391Y009873D02*
X018391Y009838D01*
X018356Y009803D01*
X018391Y009768D01*
X018391Y009733D01*
X018356Y009698D01*
X018286Y009698D01*
X018251Y009733D01*
X018321Y009803D02*
X018356Y009803D01*
X018391Y009873D02*
X018356Y009908D01*
X018286Y009908D01*
X018251Y009873D01*
X017930Y009873D02*
X017895Y009908D01*
X017825Y009908D01*
X017790Y009873D01*
X017790Y009733D01*
X017825Y009698D01*
X017895Y009698D01*
X017930Y009733D01*
X017930Y009873D01*
X017700Y009908D02*
X017560Y009908D01*
X017630Y009908D02*
X017630Y009698D01*
X017240Y009698D02*
X017170Y009768D01*
X017205Y009768D02*
X017100Y009768D01*
X017100Y009698D02*
X017100Y009908D01*
X017205Y009908D01*
X017240Y009873D01*
X017240Y009803D01*
X017205Y009768D01*
X017010Y009698D02*
X017010Y009908D01*
X016869Y009908D02*
X016869Y009698D01*
X016939Y009768D01*
X017010Y009698D01*
X016779Y009803D02*
X016744Y009768D01*
X016639Y009768D01*
X016639Y009698D02*
X016639Y009908D01*
X016744Y009908D01*
X016779Y009873D01*
X016779Y009803D01*
X016319Y009768D02*
X016319Y009733D01*
X016284Y009698D01*
X016214Y009698D01*
X016179Y009733D01*
X016214Y009803D02*
X016284Y009803D01*
X016319Y009768D01*
X016319Y009873D02*
X016284Y009908D01*
X016214Y009908D01*
X016179Y009873D01*
X016179Y009838D01*
X016214Y009803D01*
X016089Y009908D02*
X015949Y009908D01*
X016019Y009908D02*
X016019Y009698D01*
X015859Y009698D02*
X015718Y009698D01*
X015718Y009908D01*
X015859Y009908D01*
X015788Y009803D02*
X015718Y009803D01*
X015628Y009768D02*
X015628Y009733D01*
X015593Y009698D01*
X015523Y009698D01*
X015488Y009733D01*
X015523Y009803D02*
X015593Y009803D01*
X015628Y009768D01*
X015628Y009873D02*
X015593Y009908D01*
X015523Y009908D01*
X015488Y009873D01*
X015488Y009838D01*
X015523Y009803D01*
X015168Y009803D02*
X015133Y009768D01*
X015028Y009768D01*
X015098Y009768D02*
X015168Y009698D01*
X015168Y009803D02*
X015168Y009873D01*
X015133Y009908D01*
X015028Y009908D01*
X015028Y009698D01*
X014938Y009698D02*
X014798Y009698D01*
X014798Y009908D01*
X014938Y009908D01*
X014868Y009803D02*
X014798Y009803D01*
X014708Y009803D02*
X014673Y009768D01*
X014567Y009768D01*
X014567Y009698D02*
X014567Y009908D01*
X014673Y009908D01*
X014708Y009873D01*
X014708Y009803D01*
X014477Y009908D02*
X014477Y009698D01*
X014337Y009698D02*
X014337Y009908D01*
X014407Y009838D01*
X014477Y009908D01*
X014247Y009908D02*
X014247Y009733D01*
X014212Y009698D01*
X014142Y009698D01*
X014107Y009733D01*
X014107Y009908D01*
X014017Y009908D02*
X013947Y009908D01*
X013982Y009908D02*
X013982Y009733D01*
X013947Y009698D01*
X013912Y009698D01*
X013877Y009733D01*
X012927Y009768D02*
X012857Y009698D01*
X012787Y009768D01*
X012787Y009908D01*
X012697Y009908D02*
X012557Y009908D01*
X012557Y009803D01*
X012627Y009838D01*
X012662Y009838D01*
X012697Y009803D01*
X012697Y009733D01*
X012662Y009698D01*
X012592Y009698D01*
X012557Y009733D01*
X012467Y009908D02*
X012327Y009698D01*
X012237Y009733D02*
X012237Y009768D01*
X012202Y009803D01*
X012167Y009803D01*
X012202Y009803D02*
X012237Y009838D01*
X012237Y009873D01*
X012202Y009908D01*
X012132Y009908D01*
X012097Y009873D01*
X012007Y009908D02*
X012007Y009768D01*
X011937Y009698D01*
X011867Y009768D01*
X011867Y009908D01*
X011777Y009873D02*
X011777Y009838D01*
X011741Y009803D01*
X011777Y009768D01*
X011777Y009733D01*
X011741Y009698D01*
X011671Y009698D01*
X011636Y009733D01*
X011706Y009803D02*
X011741Y009803D01*
X011777Y009873D02*
X011741Y009908D01*
X011671Y009908D01*
X011636Y009873D01*
X011316Y009873D02*
X011281Y009908D01*
X011211Y009908D01*
X011176Y009873D01*
X011176Y009733D01*
X011211Y009698D01*
X011281Y009698D01*
X011316Y009733D01*
X011316Y009873D01*
X011086Y009908D02*
X010946Y009908D01*
X011016Y009908D02*
X011016Y009698D01*
X010626Y009698D02*
X010555Y009768D01*
X010590Y009768D02*
X010485Y009768D01*
X010485Y009698D02*
X010485Y009908D01*
X010590Y009908D01*
X010626Y009873D01*
X010626Y009803D01*
X010590Y009768D01*
X010395Y009698D02*
X010395Y009908D01*
X010255Y009908D02*
X010255Y009698D01*
X010325Y009768D01*
X010395Y009698D01*
X010165Y009803D02*
X010130Y009768D01*
X010025Y009768D01*
X010025Y009698D02*
X010025Y009908D01*
X010130Y009908D01*
X010165Y009873D01*
X010165Y009803D01*
X009705Y009768D02*
X009705Y009733D01*
X009670Y009698D01*
X009600Y009698D01*
X009565Y009733D01*
X009600Y009803D02*
X009670Y009803D01*
X009705Y009768D01*
X009705Y009873D02*
X009670Y009908D01*
X009600Y009908D01*
X009565Y009873D01*
X009565Y009838D01*
X009600Y009803D01*
X009475Y009908D02*
X009334Y009908D01*
X009404Y009908D02*
X009404Y009698D01*
X009244Y009698D02*
X009104Y009698D01*
X009104Y009908D01*
X009244Y009908D01*
X009174Y009803D02*
X009104Y009803D01*
X009014Y009768D02*
X009014Y009733D01*
X008979Y009698D01*
X008909Y009698D01*
X008874Y009733D01*
X008909Y009803D02*
X008979Y009803D01*
X009014Y009768D01*
X009014Y009873D02*
X008979Y009908D01*
X008909Y009908D01*
X008874Y009873D01*
X008874Y009838D01*
X008909Y009803D01*
X008554Y009803D02*
X008519Y009768D01*
X008414Y009768D01*
X008484Y009768D02*
X008554Y009698D01*
X008554Y009803D02*
X008554Y009873D01*
X008519Y009908D01*
X008414Y009908D01*
X008414Y009698D01*
X008324Y009698D02*
X008183Y009698D01*
X008183Y009908D01*
X008324Y009908D01*
X008254Y009803D02*
X008183Y009803D01*
X008093Y009803D02*
X008058Y009768D01*
X007953Y009768D01*
X007953Y009698D02*
X007953Y009908D01*
X008058Y009908D01*
X008093Y009873D01*
X008093Y009803D01*
X007863Y009908D02*
X007863Y009698D01*
X007723Y009698D02*
X007723Y009908D01*
X007793Y009838D01*
X007863Y009908D01*
X007633Y009908D02*
X007633Y009733D01*
X007598Y009698D01*
X007528Y009698D01*
X007493Y009733D01*
X007493Y009908D01*
X007403Y009908D02*
X007333Y009908D01*
X007368Y009908D02*
X007368Y009733D01*
X007333Y009698D01*
X007298Y009698D01*
X007263Y009733D01*
X006313Y009768D02*
X006243Y009698D01*
X006173Y009768D01*
X006173Y009908D01*
X006083Y009908D02*
X005943Y009908D01*
X005943Y009803D01*
X006013Y009838D01*
X006048Y009838D01*
X006083Y009803D01*
X006083Y009733D01*
X006048Y009698D01*
X005978Y009698D01*
X005943Y009733D01*
X005853Y009908D02*
X005713Y009698D01*
X005623Y009733D02*
X005623Y009768D01*
X005588Y009803D01*
X005553Y009803D01*
X005588Y009803D02*
X005623Y009838D01*
X005623Y009873D01*
X005588Y009908D01*
X005518Y009908D01*
X005483Y009873D01*
X005393Y009908D02*
X005393Y009768D01*
X005322Y009698D01*
X005252Y009768D01*
X005252Y009908D01*
X005162Y009873D02*
X005162Y009838D01*
X005127Y009803D01*
X005162Y009768D01*
X005162Y009733D01*
X005127Y009698D01*
X005057Y009698D01*
X005022Y009733D01*
X005092Y009803D02*
X005127Y009803D01*
X005162Y009873D02*
X005127Y009908D01*
X005057Y009908D01*
X005022Y009873D01*
X004702Y009873D02*
X004702Y009733D01*
X004667Y009698D01*
X004597Y009698D01*
X004562Y009733D01*
X004562Y009873D01*
X004597Y009908D01*
X004667Y009908D01*
X004702Y009873D01*
X004472Y009908D02*
X004332Y009908D01*
X004402Y009908D02*
X004402Y009698D01*
X004011Y009698D02*
X003941Y009768D01*
X003976Y009768D02*
X003871Y009768D01*
X003871Y009698D02*
X003871Y009908D01*
X003976Y009908D01*
X004011Y009873D01*
X004011Y009803D01*
X003976Y009768D01*
X003781Y009698D02*
X003781Y009908D01*
X003641Y009908D02*
X003641Y009698D01*
X003711Y009768D01*
X003781Y009698D01*
X003551Y009803D02*
X003516Y009768D01*
X003411Y009768D01*
X003411Y009698D02*
X003411Y009908D01*
X003516Y009908D01*
X003551Y009873D01*
X003551Y009803D01*
X003091Y009768D02*
X003091Y009733D01*
X003056Y009698D01*
X002985Y009698D01*
X002950Y009733D01*
X002985Y009803D02*
X003056Y009803D01*
X003091Y009768D01*
X003091Y009873D02*
X003056Y009908D01*
X002985Y009908D01*
X002950Y009873D01*
X002950Y009838D01*
X002985Y009803D01*
X002860Y009908D02*
X002720Y009908D01*
X002790Y009908D02*
X002790Y009698D01*
X002630Y009698D02*
X002490Y009698D01*
X002490Y009908D01*
X002630Y009908D01*
X002560Y009803D02*
X002490Y009803D01*
X002400Y009768D02*
X002400Y009733D01*
X002365Y009698D01*
X002295Y009698D01*
X002260Y009733D01*
X002295Y009803D02*
X002365Y009803D01*
X002400Y009768D01*
X002400Y009873D02*
X002365Y009908D01*
X002295Y009908D01*
X002260Y009873D01*
X002260Y009838D01*
X002295Y009803D01*
X001940Y009803D02*
X001905Y009768D01*
X001799Y009768D01*
X001799Y009698D02*
X001799Y009908D01*
X001905Y009908D01*
X001940Y009873D01*
X001940Y009803D01*
X001870Y009768D02*
X001940Y009698D01*
X001709Y009698D02*
X001569Y009698D01*
X001569Y009908D01*
X001709Y009908D01*
X001639Y009803D02*
X001569Y009803D01*
X001479Y009803D02*
X001444Y009768D01*
X001339Y009768D01*
X001339Y009698D02*
X001339Y009908D01*
X001444Y009908D01*
X001479Y009873D01*
X001479Y009803D01*
X001249Y009908D02*
X001249Y009698D01*
X001109Y009698D02*
X001109Y009908D01*
X001179Y009838D01*
X001249Y009908D01*
X001019Y009908D02*
X001019Y009733D01*
X000984Y009698D01*
X000914Y009698D01*
X000879Y009733D01*
X000879Y009908D01*
X000789Y009908D02*
X000719Y009908D01*
X000754Y009908D02*
X000754Y009733D01*
X000719Y009698D01*
X000684Y009698D01*
X000648Y009733D01*
X005483Y009733D02*
X005518Y009698D01*
X005588Y009698D01*
X005623Y009733D01*
X006313Y009768D02*
X006313Y009908D01*
X012097Y009733D02*
X012132Y009698D01*
X012202Y009698D01*
X012237Y009733D01*
X012927Y009768D02*
X012927Y009908D01*
X018711Y009733D02*
X018746Y009698D01*
X018816Y009698D01*
X018851Y009733D01*
D12*
X018752Y010028D02*
X018752Y010653D01*
X017677Y010653D02*
X017677Y010028D01*
X018752Y010028D01*
X019807Y010028D01*
X017677Y010028D02*
X016607Y010028D01*
X016607Y010653D01*
X015527Y010653D02*
X015527Y010028D01*
X016607Y010028D01*
X015527Y010028D02*
X014537Y010028D01*
X014537Y010653D01*
X014537Y010028D02*
X013457Y010028D01*
X013193Y010028D02*
X012138Y010028D01*
X012138Y010653D01*
X011063Y010653D02*
X011063Y010028D01*
X012138Y010028D01*
X011063Y010028D02*
X009993Y010028D01*
X009993Y010653D01*
X008913Y010653D02*
X008913Y010028D01*
X009993Y010028D01*
X008913Y010028D02*
X007923Y010028D01*
X007923Y010653D01*
X007923Y010028D02*
X006843Y010028D01*
X006578Y010028D02*
X005523Y010028D01*
X005523Y010653D01*
X004448Y010653D02*
X004448Y010028D01*
X005523Y010028D01*
X004448Y010028D02*
X003378Y010028D01*
X003378Y010653D01*
X002298Y010653D02*
X002298Y010028D01*
X003378Y010028D01*
X002298Y010028D02*
X001308Y010028D01*
X001308Y010653D01*
X001308Y010028D02*
X000228Y010028D01*
X002402Y006825D02*
X004705Y006825D01*
X004705Y002730D01*
X002402Y002730D01*
X002402Y006825D01*
X002633Y006478D02*
X002635Y006499D01*
X002641Y006520D01*
X002650Y006540D01*
X002663Y006557D01*
X002678Y006572D01*
X002696Y006584D01*
X002716Y006592D01*
X002737Y006597D01*
X002758Y006598D01*
X002780Y006595D01*
X002800Y006588D01*
X002819Y006578D01*
X002836Y006565D01*
X002850Y006549D01*
X002861Y006530D01*
X002869Y006510D01*
X002873Y006489D01*
X002873Y006467D01*
X002869Y006446D01*
X002861Y006426D01*
X002850Y006407D01*
X002836Y006391D01*
X002819Y006378D01*
X002800Y006368D01*
X002780Y006361D01*
X002758Y006358D01*
X002737Y006359D01*
X002716Y006364D01*
X002696Y006372D01*
X002678Y006384D01*
X002663Y006399D01*
X002650Y006416D01*
X002641Y006436D01*
X002635Y006457D01*
X002633Y006478D01*
X009016Y006825D02*
X011319Y006825D01*
X011319Y002730D01*
X009016Y002730D01*
X009016Y006825D01*
X009248Y006478D02*
X009250Y006499D01*
X009256Y006520D01*
X009265Y006540D01*
X009278Y006557D01*
X009293Y006572D01*
X009311Y006584D01*
X009331Y006592D01*
X009352Y006597D01*
X009373Y006598D01*
X009395Y006595D01*
X009415Y006588D01*
X009434Y006578D01*
X009451Y006565D01*
X009465Y006549D01*
X009476Y006530D01*
X009484Y006510D01*
X009488Y006489D01*
X009488Y006467D01*
X009484Y006446D01*
X009476Y006426D01*
X009465Y006407D01*
X009451Y006391D01*
X009434Y006378D01*
X009415Y006368D01*
X009395Y006361D01*
X009373Y006358D01*
X009352Y006359D01*
X009331Y006364D01*
X009311Y006372D01*
X009293Y006384D01*
X009278Y006399D01*
X009265Y006416D01*
X009256Y006436D01*
X009250Y006457D01*
X009248Y006478D01*
X015630Y006825D02*
X017933Y006825D01*
X017933Y002730D01*
X015630Y002730D01*
X015630Y006825D01*
X015862Y006478D02*
X015864Y006499D01*
X015870Y006520D01*
X015879Y006540D01*
X015892Y006557D01*
X015907Y006572D01*
X015925Y006584D01*
X015945Y006592D01*
X015966Y006597D01*
X015987Y006598D01*
X016009Y006595D01*
X016029Y006588D01*
X016048Y006578D01*
X016065Y006565D01*
X016079Y006549D01*
X016090Y006530D01*
X016098Y006510D01*
X016102Y006489D01*
X016102Y006467D01*
X016098Y006446D01*
X016090Y006426D01*
X016079Y006407D01*
X016065Y006391D01*
X016048Y006378D01*
X016029Y006368D01*
X016009Y006361D01*
X015987Y006358D01*
X015966Y006359D01*
X015945Y006364D01*
X015925Y006372D01*
X015907Y006384D01*
X015892Y006399D01*
X015879Y006416D01*
X015870Y006436D01*
X015864Y006457D01*
X015862Y006478D01*
D13*
X001353Y000828D02*
X001203Y000828D01*
X001353Y000828D02*
X001353Y001178D01*
X001353Y002128D02*
X001353Y002478D01*
X001203Y002478D01*
X001203Y002828D02*
X001353Y002828D01*
X001353Y003228D01*
X001353Y004078D02*
X001353Y004478D01*
X001203Y004478D01*
X007818Y004478D02*
X007968Y004478D01*
X007968Y004078D01*
X007968Y003228D02*
X007968Y002828D01*
X007818Y002828D01*
X007818Y002478D02*
X007968Y002478D01*
X007968Y002128D01*
X007968Y001178D02*
X007968Y000828D01*
X007818Y000828D01*
X014432Y000828D02*
X014582Y000828D01*
X014582Y001178D01*
X014582Y002128D02*
X014582Y002478D01*
X014432Y002478D01*
X014432Y002828D02*
X014582Y002828D01*
X014582Y003228D01*
X014582Y004078D02*
X014582Y004478D01*
X014432Y004478D01*
D14*
X013325Y000628D02*
X013325Y010667D01*
X006711Y010667D02*
X006711Y000628D01*
D15*
X008679Y000657D02*
X011356Y000657D01*
X011356Y001720D02*
X011356Y002350D01*
X010884Y002350D01*
X010884Y001798D01*
X009152Y001798D01*
X009152Y002350D01*
X008679Y002350D01*
X008679Y001720D01*
X004742Y001720D02*
X004742Y002350D01*
X004270Y002350D01*
X004270Y001798D01*
X002537Y001798D01*
X002537Y002350D01*
X002065Y002350D01*
X002065Y001720D01*
X002065Y000657D02*
X004742Y000657D01*
X006122Y004261D02*
X006303Y004261D01*
X006211Y004383D01*
X006303Y004261D02*
X006485Y004261D01*
X006389Y004383D02*
X006313Y004267D01*
X006396Y005572D02*
X006303Y005694D01*
X006122Y005694D01*
X006218Y005572D02*
X006293Y005688D01*
X006303Y005694D02*
X006485Y005694D01*
X007087Y006161D02*
X007268Y006161D01*
X007176Y006283D01*
X007268Y006161D02*
X007449Y006161D01*
X007354Y006283D02*
X007278Y006167D01*
X007020Y008658D02*
X007020Y009158D01*
X006405Y009158D02*
X006405Y008658D01*
X000835Y006161D02*
X000653Y006161D01*
X000561Y006283D01*
X000472Y006161D02*
X000653Y006161D01*
X000663Y006167D02*
X000739Y006283D01*
X000405Y008658D02*
X000405Y009158D01*
X012737Y005694D02*
X012918Y005694D01*
X013010Y005572D01*
X013099Y005694D02*
X012918Y005694D01*
X012908Y005688D02*
X012832Y005572D01*
X013701Y006161D02*
X013882Y006161D01*
X013790Y006283D01*
X013882Y006161D02*
X014063Y006161D01*
X013968Y006283D02*
X013892Y006167D01*
X013004Y004383D02*
X012928Y004267D01*
X012918Y004261D02*
X012826Y004383D01*
X012737Y004261D02*
X012918Y004261D01*
X013099Y004261D01*
X015293Y002350D02*
X015766Y002350D01*
X015766Y001798D01*
X017498Y001798D01*
X017498Y002350D01*
X017970Y002350D01*
X017970Y001720D01*
X017970Y000657D02*
X015293Y000657D01*
X015293Y001720D02*
X015293Y002350D01*
X019351Y004261D02*
X019532Y004261D01*
X019440Y004383D01*
X019532Y004261D02*
X019713Y004261D01*
X019618Y004383D02*
X019542Y004267D01*
X019624Y005572D02*
X019532Y005694D01*
X019351Y005694D01*
X019446Y005572D02*
X019522Y005688D01*
X019532Y005694D02*
X019713Y005694D01*
X019634Y008658D02*
X019634Y009158D01*
X013634Y009158D02*
X013634Y008658D01*
X013020Y008658D02*
X013020Y009158D01*
D16*
X014232Y007440D02*
X014232Y007416D01*
X012018Y007340D02*
X012018Y007316D01*
X014232Y005240D02*
X014232Y005216D01*
X018632Y007316D02*
X018632Y007340D01*
X018920Y002728D02*
X018944Y002728D01*
X012330Y002728D02*
X012306Y002728D01*
X007618Y005216D02*
X007618Y005240D01*
X005403Y007316D02*
X005403Y007340D01*
X007618Y007416D02*
X007618Y007440D01*
X001003Y007416D02*
X001003Y007440D01*
X001003Y005240D02*
X001003Y005216D01*
X005691Y002728D02*
X005715Y002728D01*
D17*
X005703Y004978D03*
X007868Y006478D03*
X012318Y004978D03*
X014482Y006478D03*
X018932Y004978D03*
X001253Y006478D03*
M02*
