G75*
G70*
%OFA0B0*%
%FSLAX24Y24*%
%IPPOS*%
%LPD*%
%AMOC8*
5,1,8,0,0,1.08239X$1,22.5*
%
%ADD10C,0.0020*%
%ADD11C,0.0030*%
%ADD12C,0.0060*%
%ADD13C,0.0080*%
D10*
X000356Y000360D02*
X000543Y000360D01*
X000590Y000407D01*
X000590Y000500D01*
X000543Y000547D01*
X000450Y000547D01*
X000450Y000453D01*
X000356Y000360D02*
X000310Y000407D01*
X000310Y000500D01*
X000356Y000547D01*
X000310Y000636D02*
X000590Y000823D01*
X000310Y000823D01*
X000310Y000912D02*
X000310Y001053D01*
X000356Y001099D01*
X000543Y001099D01*
X000590Y001053D01*
X000590Y000912D01*
X000310Y000912D01*
X000310Y000636D02*
X000590Y000636D01*
X001260Y000513D02*
X001260Y000437D01*
X001260Y000475D02*
X001452Y000475D01*
X001490Y000437D01*
X001490Y000398D01*
X001452Y000360D01*
X001452Y000590D02*
X001337Y000590D01*
X001452Y000590D02*
X001490Y000629D01*
X001490Y000744D01*
X001337Y000744D01*
X001337Y000820D02*
X001337Y000859D01*
X001375Y000897D01*
X001337Y000935D01*
X001375Y000974D01*
X001490Y000974D01*
X001490Y001051D02*
X001490Y001166D01*
X001452Y001204D01*
X001375Y001204D01*
X001337Y001166D01*
X001337Y001051D01*
X001567Y001051D01*
X001490Y000897D02*
X001375Y000897D01*
X001337Y000820D02*
X001490Y000820D01*
X001452Y001281D02*
X001375Y001281D01*
X001337Y001319D01*
X001337Y001396D01*
X001375Y001434D01*
X001413Y001434D01*
X001413Y001281D01*
X001452Y001281D02*
X001490Y001319D01*
X001490Y001396D01*
X001490Y001511D02*
X001337Y001511D01*
X001413Y001511D02*
X001337Y001588D01*
X001337Y001626D01*
X001375Y001933D02*
X001337Y001971D01*
X001337Y002086D01*
X001413Y002048D02*
X001413Y001971D01*
X001375Y001933D01*
X001490Y001933D02*
X001490Y002048D01*
X001452Y002086D01*
X001413Y002048D01*
X001413Y002163D02*
X001413Y002317D01*
X001375Y002317D01*
X001337Y002278D01*
X001337Y002202D01*
X001375Y002163D01*
X001452Y002163D01*
X001490Y002202D01*
X001490Y002278D01*
X001452Y002432D02*
X001298Y002432D01*
X001337Y002470D02*
X001337Y002393D01*
X001452Y002432D02*
X001490Y002470D01*
X001490Y002547D02*
X001490Y002662D01*
X001452Y002700D01*
X001413Y002662D01*
X001413Y002585D01*
X001375Y002547D01*
X001337Y002585D01*
X001337Y002700D01*
X001413Y003007D02*
X001413Y003122D01*
X001375Y003161D01*
X001298Y003161D01*
X001260Y003122D01*
X001260Y003007D01*
X001490Y003007D01*
X001490Y003237D02*
X001260Y003237D01*
X001413Y003314D02*
X001490Y003391D01*
X001260Y003391D01*
X001260Y003468D02*
X001260Y003583D01*
X001298Y003621D01*
X001375Y003621D01*
X001413Y003583D01*
X001413Y003468D01*
X001413Y003544D02*
X001490Y003621D01*
X001490Y003468D02*
X001260Y003468D01*
X001413Y003314D02*
X001490Y003237D01*
X000590Y003099D02*
X000497Y003006D01*
X000497Y003053D02*
X000497Y002912D01*
X000590Y002912D02*
X000310Y002912D01*
X000310Y003053D01*
X000356Y003099D01*
X000450Y003099D01*
X000497Y003053D01*
X000590Y002823D02*
X000310Y002823D01*
X000497Y002730D02*
X000590Y002823D01*
X000497Y002730D02*
X000590Y002636D01*
X000310Y002636D01*
X000356Y002547D02*
X000450Y002547D01*
X000497Y002500D01*
X000497Y002360D01*
X000590Y002360D02*
X000310Y002360D01*
X000310Y002500D01*
X000356Y002547D01*
X000356Y002099D02*
X000310Y002053D01*
X000310Y001959D01*
X000356Y001912D01*
X000403Y001912D01*
X000450Y001959D01*
X000450Y002053D01*
X000497Y002099D01*
X000543Y002099D01*
X000590Y002053D01*
X000590Y001959D01*
X000543Y001912D01*
X000590Y001730D02*
X000310Y001730D01*
X000310Y001823D02*
X000310Y001636D01*
X000356Y001547D02*
X000310Y001500D01*
X000310Y001407D01*
X000356Y001360D01*
X000543Y001360D01*
X000590Y001407D01*
X000590Y001500D01*
X000543Y001547D01*
X000310Y003360D02*
X000310Y003547D01*
X000310Y003636D02*
X000590Y003823D01*
X000543Y003912D02*
X000590Y003959D01*
X000590Y004053D01*
X000543Y004099D01*
X000356Y004099D01*
X000310Y004053D01*
X000310Y003959D01*
X000356Y003912D01*
X000543Y003912D01*
X000310Y003823D02*
X000590Y003636D01*
X000590Y003453D02*
X000310Y003453D01*
X001298Y003966D02*
X001452Y003966D01*
X001490Y004005D01*
X001452Y004081D02*
X001375Y004081D01*
X001337Y004120D01*
X001337Y004197D01*
X001375Y004235D01*
X001452Y004235D01*
X001490Y004197D01*
X001490Y004120D01*
X001452Y004081D01*
X001337Y004005D02*
X001337Y003928D01*
X000590Y004360D02*
X000310Y004360D01*
X000310Y004500D01*
X000356Y004547D01*
X000450Y004547D01*
X000497Y004500D01*
X000497Y004360D01*
X000497Y004453D02*
X000590Y004547D01*
X000590Y004636D02*
X000310Y004823D01*
X000310Y004912D02*
X000310Y005006D01*
X000310Y004959D02*
X000590Y004959D01*
X000590Y004912D02*
X000590Y005006D01*
X000590Y004823D02*
X000310Y004636D01*
X001260Y004657D02*
X001260Y004580D01*
X001298Y004542D01*
X001375Y004619D02*
X001375Y004657D01*
X001413Y004695D01*
X001452Y004695D01*
X001490Y004657D01*
X001490Y004580D01*
X001452Y004542D01*
X001375Y004657D02*
X001337Y004695D01*
X001298Y004695D01*
X001260Y004657D01*
X001260Y004772D02*
X001413Y004772D01*
X001490Y004849D01*
X001413Y004926D01*
X001260Y004926D01*
X001298Y005002D02*
X001260Y005041D01*
X001260Y005117D01*
X001298Y005156D01*
X001337Y005156D01*
X001375Y005117D01*
X001413Y005156D01*
X001452Y005156D01*
X001490Y005117D01*
X001490Y005041D01*
X001452Y005002D01*
X001375Y005079D02*
X001375Y005117D01*
X001490Y005232D02*
X001260Y005386D01*
X001260Y005463D02*
X001375Y005463D01*
X001337Y005539D01*
X001337Y005578D01*
X001375Y005616D01*
X001452Y005616D01*
X001490Y005578D01*
X001490Y005501D01*
X001452Y005463D01*
X001260Y005463D02*
X001260Y005616D01*
X001260Y005693D02*
X001413Y005693D01*
X001490Y005770D01*
X001413Y005846D01*
X001260Y005846D01*
X000590Y005912D02*
X000310Y005912D01*
X000310Y006053D01*
X000356Y006099D01*
X000450Y006099D01*
X000497Y006053D01*
X000497Y005912D01*
X000497Y006006D02*
X000590Y006099D01*
X000310Y005823D02*
X000310Y005636D01*
X000356Y005547D02*
X000310Y005500D01*
X000310Y005360D01*
X000590Y005360D01*
X000590Y005500D01*
X000543Y005547D01*
X000356Y005547D01*
X000310Y005730D02*
X000590Y005730D01*
X006010Y001544D02*
X006057Y001590D01*
X006150Y001590D01*
X006197Y001544D01*
X006197Y001497D01*
X006150Y001450D01*
X006197Y001403D01*
X006197Y001357D01*
X006150Y001310D01*
X006057Y001310D01*
X006010Y001357D01*
X006103Y001450D02*
X006150Y001450D01*
X006286Y001403D02*
X006380Y001310D01*
X006473Y001403D01*
X006473Y001590D01*
X006562Y001544D02*
X006609Y001590D01*
X006703Y001590D01*
X006749Y001544D01*
X006749Y001497D01*
X006703Y001450D01*
X006749Y001403D01*
X006749Y001357D01*
X006703Y001310D01*
X006609Y001310D01*
X006562Y001357D01*
X006656Y001450D02*
X006703Y001450D01*
X007110Y001403D02*
X007250Y001403D01*
X007297Y001450D01*
X007297Y001544D01*
X007250Y001590D01*
X007110Y001590D01*
X007110Y001310D01*
X007386Y001310D02*
X007480Y001403D01*
X007573Y001310D01*
X007573Y001590D01*
X007662Y001590D02*
X007803Y001590D01*
X007849Y001544D01*
X007849Y001450D01*
X007803Y001403D01*
X007662Y001403D01*
X007756Y001403D02*
X007849Y001310D01*
X007662Y001310D02*
X007662Y001590D01*
X007386Y001590D02*
X007386Y001310D01*
X008110Y001310D02*
X008110Y001590D01*
X008250Y001590D01*
X008297Y001544D01*
X008297Y001450D01*
X008250Y001403D01*
X008110Y001403D01*
X008386Y001310D02*
X008480Y001403D01*
X008573Y001310D01*
X008573Y001590D01*
X008662Y001590D02*
X008803Y001590D01*
X008849Y001544D01*
X008849Y001450D01*
X008803Y001403D01*
X008662Y001403D01*
X008756Y001403D02*
X008849Y001310D01*
X008662Y001310D02*
X008662Y001590D01*
X008386Y001590D02*
X008386Y001310D01*
X009210Y001357D02*
X009257Y001310D01*
X009350Y001310D01*
X009397Y001357D01*
X009397Y001450D01*
X009350Y001497D01*
X009303Y001497D01*
X009210Y001450D01*
X009210Y001590D01*
X009397Y001590D01*
X009486Y001590D02*
X009486Y001403D01*
X009580Y001310D01*
X009673Y001403D01*
X009673Y001590D01*
X009490Y001910D02*
X009210Y001910D01*
X009210Y002050D01*
X009256Y002097D01*
X009350Y002097D01*
X009397Y002050D01*
X009397Y001910D01*
X009397Y002003D02*
X009490Y002097D01*
X009443Y002186D02*
X009490Y002233D01*
X009490Y002326D01*
X009443Y002373D01*
X009397Y002373D01*
X009350Y002326D01*
X009350Y002280D01*
X009350Y002326D02*
X009303Y002373D01*
X009256Y002373D01*
X009210Y002326D01*
X009210Y002233D01*
X009256Y002186D01*
X009210Y003010D02*
X009210Y003150D01*
X009256Y003197D01*
X009350Y003197D01*
X009397Y003150D01*
X009397Y003010D01*
X009490Y003010D02*
X009210Y003010D01*
X009397Y003103D02*
X009490Y003197D01*
X009490Y003286D02*
X009303Y003473D01*
X009256Y003473D01*
X009210Y003426D01*
X009210Y003333D01*
X009256Y003286D01*
X009490Y003286D02*
X009490Y003473D01*
X009490Y004310D02*
X009210Y004310D01*
X009210Y004450D01*
X009256Y004497D01*
X009350Y004497D01*
X009397Y004450D01*
X009397Y004310D01*
X009397Y004403D02*
X009490Y004497D01*
X009490Y004586D02*
X009490Y004773D01*
X009490Y004680D02*
X009210Y004680D01*
X009303Y004586D01*
X007690Y004562D02*
X007690Y004683D01*
X007690Y004747D02*
X007690Y004837D01*
X007660Y004867D01*
X007540Y004867D01*
X007510Y004837D01*
X007510Y004747D01*
X007690Y004747D01*
X007600Y004623D02*
X007600Y004562D01*
X007510Y004562D02*
X007690Y004562D01*
X007690Y004498D02*
X007690Y004378D01*
X007510Y004378D01*
X007510Y004314D02*
X007690Y004194D01*
X007690Y004314D02*
X007510Y004194D01*
X007510Y004130D02*
X007510Y004010D01*
X007510Y004070D02*
X007690Y004070D01*
X007510Y004562D02*
X007510Y004683D01*
X007540Y003567D02*
X007510Y003537D01*
X007510Y003447D01*
X007690Y003447D01*
X007690Y003537D01*
X007660Y003567D01*
X007540Y003567D01*
X007510Y003383D02*
X007510Y003262D01*
X007690Y003262D01*
X007690Y003383D01*
X007600Y003323D02*
X007600Y003262D01*
X007690Y003198D02*
X007690Y003078D01*
X007510Y003078D01*
X007510Y003014D02*
X007690Y002894D01*
X007690Y002830D02*
X007630Y002770D01*
X007630Y002800D02*
X007630Y002710D01*
X007690Y002710D02*
X007510Y002710D01*
X007510Y002800D01*
X007540Y002830D01*
X007600Y002830D01*
X007630Y002800D01*
X007510Y002894D02*
X007690Y003014D01*
X006286Y001590D02*
X006286Y001403D01*
X005790Y001003D02*
X005790Y000909D01*
X005743Y000862D01*
X005697Y000773D02*
X005510Y000773D01*
X005556Y000862D02*
X005510Y000909D01*
X005510Y001003D01*
X005556Y001049D01*
X005603Y001049D01*
X005650Y001003D01*
X005697Y001049D01*
X005743Y001049D01*
X005790Y001003D01*
X005650Y001003D02*
X005650Y000956D01*
X005697Y000773D02*
X005790Y000680D01*
X005697Y000586D01*
X005510Y000586D01*
X005556Y000497D02*
X005603Y000497D01*
X005650Y000450D01*
X005697Y000497D01*
X005743Y000497D01*
X005790Y000450D01*
X005790Y000357D01*
X005743Y000310D01*
X005650Y000403D02*
X005650Y000450D01*
X005556Y000497D02*
X005510Y000450D01*
X005510Y000357D01*
X005556Y000310D01*
X004290Y000557D02*
X004243Y000510D01*
X004290Y000557D02*
X004290Y000650D01*
X004243Y000697D01*
X004150Y000697D01*
X004103Y000650D01*
X004103Y000603D01*
X004150Y000510D01*
X004010Y000510D01*
X004010Y000697D01*
X004010Y000786D02*
X004197Y000786D01*
X004290Y000880D01*
X004197Y000973D01*
X004010Y000973D01*
D11*
X008972Y005490D02*
X009079Y005704D01*
X009187Y005704D02*
X009294Y005810D01*
X009294Y005490D01*
X009187Y005490D02*
X009401Y005490D01*
X009510Y005490D02*
X009510Y005543D01*
X009563Y005543D01*
X009563Y005490D01*
X009510Y005490D01*
X009671Y005543D02*
X009884Y005757D01*
X009884Y005543D01*
X009831Y005490D01*
X009724Y005490D01*
X009671Y005543D01*
X009671Y005757D01*
X009724Y005810D01*
X009831Y005810D01*
X009884Y005757D01*
X009790Y005990D02*
X009790Y006310D01*
X009684Y006310D02*
X009897Y006310D01*
X009575Y006310D02*
X009575Y006043D01*
X009521Y005990D01*
X009415Y005990D01*
X009361Y006043D01*
X009361Y006310D01*
X009252Y006257D02*
X009199Y006310D01*
X009092Y006310D01*
X009039Y006257D01*
X009039Y006043D01*
X009092Y005990D01*
X009199Y005990D01*
X009252Y006043D01*
X009252Y006257D01*
X008930Y006310D02*
X008717Y006097D01*
X008770Y006150D02*
X008930Y005990D01*
X008717Y005990D02*
X008717Y006310D01*
X008608Y006204D02*
X008608Y005990D01*
X008608Y006150D02*
X008394Y006150D01*
X008394Y006204D02*
X008501Y006310D01*
X008608Y006204D01*
X008394Y006204D02*
X008394Y005990D01*
X008286Y005990D02*
X008072Y005990D01*
X008072Y006310D01*
X008286Y006310D01*
X008179Y006150D02*
X008072Y006150D01*
X007963Y006150D02*
X007910Y006097D01*
X007750Y006097D01*
X007857Y006097D02*
X007963Y005990D01*
X007963Y006150D02*
X007963Y006257D01*
X007910Y006310D01*
X007750Y006310D01*
X007750Y005990D01*
X007641Y006043D02*
X007588Y005990D01*
X007428Y005990D01*
X007428Y006310D01*
X007588Y006310D01*
X007641Y006257D01*
X007641Y006204D01*
X007588Y006150D01*
X007428Y006150D01*
X007588Y006150D02*
X007641Y006097D01*
X007641Y006043D01*
X006997Y005990D02*
X006783Y005990D01*
X006783Y006310D01*
X006674Y006257D02*
X006674Y006150D01*
X006621Y006097D01*
X006461Y006097D01*
X006568Y006097D02*
X006674Y005990D01*
X006461Y005990D02*
X006461Y006310D01*
X006621Y006310D01*
X006674Y006257D01*
X006352Y006257D02*
X006352Y006204D01*
X006138Y005990D01*
X006352Y005990D01*
X006352Y006257D02*
X006299Y006310D01*
X006192Y006310D01*
X006138Y006257D01*
X006030Y006257D02*
X006030Y006204D01*
X005976Y006150D01*
X006030Y006097D01*
X006030Y006043D01*
X005976Y005990D01*
X005870Y005990D01*
X005816Y006043D01*
X005707Y005990D02*
X005494Y005990D01*
X005707Y006204D01*
X005707Y006257D01*
X005654Y006310D01*
X005547Y006310D01*
X005494Y006257D01*
X005385Y006310D02*
X005172Y006310D01*
X005278Y006310D02*
X005278Y005990D01*
X004956Y006150D02*
X004849Y006150D01*
X004849Y005990D02*
X004849Y006310D01*
X005063Y006310D01*
X004419Y005990D02*
X004312Y005990D01*
X004366Y005990D02*
X004366Y006204D01*
X004312Y006204D01*
X004204Y006204D02*
X004204Y005990D01*
X004204Y006150D02*
X003990Y006150D01*
X003990Y006204D02*
X004097Y006310D01*
X004204Y006204D01*
X004366Y006310D02*
X004366Y006364D01*
X003990Y006204D02*
X003990Y005990D01*
X005816Y006257D02*
X005870Y006310D01*
X005976Y006310D01*
X006030Y006257D01*
X005976Y006150D02*
X005923Y006150D01*
X008865Y005704D02*
X008972Y005490D01*
D12*
X009136Y004618D02*
X009136Y004382D01*
X008664Y004382D02*
X008664Y004618D01*
X008664Y003418D02*
X008664Y003182D01*
X009136Y003182D02*
X009136Y003418D01*
X009136Y002218D02*
X009136Y001982D01*
X008664Y001982D02*
X008664Y002218D01*
X006752Y001653D02*
X004448Y001653D01*
X004448Y005747D01*
X006752Y005747D01*
X006752Y001653D01*
X004651Y005363D02*
X004653Y005389D01*
X004659Y005415D01*
X004668Y005440D01*
X004681Y005463D01*
X004697Y005484D01*
X004716Y005502D01*
X004738Y005518D01*
X004761Y005530D01*
X004786Y005538D01*
X004812Y005543D01*
X004839Y005544D01*
X004865Y005541D01*
X004890Y005534D01*
X004915Y005524D01*
X004937Y005510D01*
X004958Y005493D01*
X004975Y005474D01*
X004990Y005452D01*
X005001Y005428D01*
X005009Y005402D01*
X005013Y005376D01*
X005013Y005350D01*
X005009Y005324D01*
X005001Y005298D01*
X004990Y005274D01*
X004975Y005252D01*
X004958Y005233D01*
X004937Y005216D01*
X004915Y005202D01*
X004890Y005192D01*
X004865Y005185D01*
X004839Y005182D01*
X004812Y005183D01*
X004786Y005188D01*
X004761Y005196D01*
X004738Y005208D01*
X004716Y005224D01*
X004697Y005242D01*
X004681Y005263D01*
X004668Y005286D01*
X004659Y005311D01*
X004653Y005337D01*
X004651Y005363D01*
D13*
X003050Y006300D02*
X002550Y006300D01*
X007819Y004467D02*
X008000Y004467D01*
X008092Y004345D01*
X008181Y004467D02*
X008000Y004467D01*
X007990Y004461D02*
X007914Y004345D01*
X008000Y003267D02*
X007819Y003267D01*
X007914Y003145D02*
X007990Y003261D01*
X008000Y003267D02*
X008092Y003145D01*
X008181Y003267D02*
X008000Y003267D01*
X005372Y001412D02*
X005254Y001412D01*
X005372Y001412D02*
X005372Y000388D01*
X005254Y000388D01*
X004939Y000231D02*
X004861Y000231D01*
X004546Y000388D02*
X004428Y000388D01*
X004428Y001412D01*
X004546Y001412D01*
X005900Y000950D02*
X006150Y001200D01*
X006650Y001200D01*
X006900Y000950D01*
X007150Y001200D01*
X007650Y001200D01*
X007900Y000950D01*
X008150Y001200D01*
X008650Y001200D01*
X008900Y000950D01*
X009150Y001200D01*
X009650Y001200D01*
X009900Y000950D01*
X009900Y000450D01*
X009650Y000200D01*
X009150Y000200D01*
X008900Y000450D01*
X008650Y000200D01*
X008150Y000200D01*
X007900Y000450D01*
X007650Y000200D01*
X007150Y000200D01*
X006900Y000450D01*
X006650Y000200D01*
X006150Y000200D01*
X005900Y000450D01*
X005900Y000950D01*
X003050Y000300D02*
X002550Y000300D01*
M02*
