G75*
G70*
%OFA0B0*%
%FSLAX24Y24*%
%IPPOS*%
%LPD*%
%AMOC8*
5,1,8,0,0,1.08239X$1,22.5*
%
%ADD10R,0.0630X0.0217*%
%ADD11R,0.0552X0.0395*%
%ADD12R,0.0395X0.0395*%
%ADD13C,0.0820*%
%ADD14R,0.0330X0.0580*%
%ADD15R,0.0820X0.0820*%
%ADD16C,0.0820*%
%ADD17C,0.0480*%
D10*
X004161Y002037D03*
X004161Y002293D03*
X004161Y002548D03*
X004161Y002804D03*
X004161Y003060D03*
X004161Y003316D03*
X004161Y003572D03*
X004161Y003828D03*
X004161Y004084D03*
X004161Y004340D03*
X004161Y004596D03*
X004161Y004852D03*
X004161Y005107D03*
X004161Y005363D03*
X007039Y005363D03*
X007039Y005107D03*
X007039Y004852D03*
X007039Y004596D03*
X007039Y004340D03*
X007039Y004084D03*
X007039Y003828D03*
X007039Y003572D03*
X007039Y003316D03*
X007039Y003060D03*
X007039Y002804D03*
X007039Y002548D03*
X007039Y002293D03*
X007039Y002037D03*
D11*
X008900Y001746D03*
X008900Y002454D03*
X008900Y002946D03*
X008900Y003654D03*
X008900Y004146D03*
X008900Y004854D03*
D12*
X008000Y004695D03*
X008000Y004105D03*
X008000Y003495D03*
X008000Y002905D03*
D13*
X003170Y000800D02*
X002430Y000800D01*
X002430Y001800D02*
X003170Y001800D01*
X003170Y002800D02*
X002430Y002800D01*
X002430Y003800D02*
X003170Y003800D01*
X003170Y004800D02*
X002430Y004800D01*
X002430Y005800D02*
X003170Y005800D01*
D14*
X004733Y001254D03*
X005067Y001254D03*
X005067Y000546D03*
X004733Y000546D03*
D15*
X006400Y000700D03*
D16*
X007400Y000700D03*
X008400Y000700D03*
X009400Y000700D03*
D17*
X007800Y001600D03*
X008100Y002400D03*
X006600Y001500D03*
X004900Y002500D03*
X005900Y003400D03*
X006400Y003900D03*
X005500Y004600D03*
X005200Y005000D03*
X008200Y005300D03*
X008500Y005700D03*
X006400Y002900D03*
X004300Y001500D03*
M02*
