G75*
G70*
%OFA0B0*%
%FSLAX24Y24*%
%IPPOS*%
%LPD*%
%AMOC8*
5,1,8,0,0,1.08239X$1,22.5*
%
%ADD10R,0.0551X0.0138*%
%ADD11R,0.0748X0.0709*%
%ADD12R,0.0748X0.0748*%
%ADD13R,0.0315X0.0472*%
%ADD14R,0.0472X0.0315*%
%ADD15R,0.0748X0.0630*%
%ADD16C,0.0740*%
%ADD17R,0.0740X0.0740*%
%ADD18C,0.0740*%
%ADD19C,0.0100*%
%ADD20C,0.0400*%
D10*
X007957Y002788D03*
X007957Y003044D03*
X007957Y003300D03*
X007957Y003556D03*
X007957Y003812D03*
D11*
X009000Y004875D03*
X009000Y001725D03*
D12*
X009000Y002800D03*
X009000Y003800D03*
D13*
X007854Y004800D03*
X007146Y004800D03*
X005354Y002000D03*
X004646Y002000D03*
D14*
X007200Y003246D03*
X007200Y003954D03*
D15*
X007550Y005800D03*
X006250Y005800D03*
D16*
X003170Y000800D02*
X002430Y000800D01*
X002430Y001800D02*
X003170Y001800D01*
X003170Y002800D02*
X002430Y002800D01*
X002430Y003800D02*
X003170Y003800D01*
X003170Y004800D02*
X002430Y004800D01*
X002430Y005800D02*
X003170Y005800D01*
D17*
X006400Y000700D03*
D18*
X007400Y000700D03*
X008400Y000700D03*
X009400Y000700D03*
D19*
X009000Y001725D02*
X009000Y001800D01*
X009600Y002400D01*
X009600Y004200D01*
X009000Y004800D01*
X009000Y004875D01*
X009000Y005000D01*
X008400Y005600D01*
X008500Y005700D01*
X008400Y005600D02*
X008200Y005800D01*
X007550Y005800D01*
X007000Y005300D02*
X008200Y005300D01*
X008100Y005200D02*
X006900Y005200D01*
X007000Y005300D01*
X006900Y005200D02*
X007100Y005000D01*
X007100Y004800D01*
X007146Y004800D01*
X006900Y005200D02*
X006800Y005300D01*
X005900Y004400D01*
X005900Y003400D01*
X006000Y003000D02*
X006600Y003600D01*
X007900Y003600D01*
X007957Y003556D01*
X008000Y003800D02*
X007957Y003812D01*
X008000Y003800D02*
X008000Y004300D01*
X008200Y004500D01*
X008200Y005100D01*
X008100Y005200D01*
X007854Y004800D02*
X007800Y004800D01*
X007200Y004200D01*
X007200Y003954D01*
X007200Y003900D01*
X006400Y003900D01*
X006700Y003200D02*
X006400Y002900D01*
X006000Y003000D02*
X006000Y002800D01*
X006300Y002500D01*
X006400Y002500D01*
X007300Y001600D01*
X007800Y001600D01*
X008200Y001800D02*
X009000Y001800D01*
X008200Y001800D02*
X007700Y002300D01*
X007700Y002600D01*
X007900Y002800D01*
X007957Y002788D01*
X008100Y002400D02*
X008400Y002700D01*
X008400Y003200D01*
X008300Y003300D01*
X007957Y003300D01*
X007200Y003246D02*
X007200Y003200D01*
X006700Y003200D01*
X005500Y002900D02*
X004800Y002900D01*
X004700Y002800D01*
X002800Y002800D01*
X002800Y003800D02*
X002900Y003800D01*
X004600Y005000D01*
X005200Y005000D01*
X005500Y004600D02*
X005500Y002900D01*
X005500Y002000D01*
X005354Y002000D01*
X005400Y002000D01*
X005500Y002000D02*
X006600Y002000D01*
X007400Y001200D01*
X007400Y000700D01*
X006600Y001500D02*
X004300Y001500D01*
X004646Y002000D02*
X004700Y002000D01*
X004700Y002300D01*
X004900Y002500D01*
X006800Y005300D02*
X006300Y005800D01*
X006250Y005800D01*
D20*
X005200Y005000D03*
X005500Y004600D03*
X006400Y003900D03*
X005900Y003400D03*
X006400Y002900D03*
X004900Y002500D03*
X004300Y001500D03*
X006600Y001500D03*
X007800Y001600D03*
X008100Y002400D03*
X008200Y005300D03*
X008500Y005700D03*
M02*
