G75*
G70*
%OFA0B0*%
%FSLAX24Y24*%
%IPPOS*%
%LPD*%
%AMOC8*
5,1,8,0,0,1.08239X$1,22.5*
%
%ADD10C,0.0020*%
%ADD11R,0.0001X0.0539*%
%ADD12R,0.0001X0.0550*%
%ADD13R,0.0001X0.0556*%
%ADD14R,0.0001X0.0555*%
%ADD15R,0.0001X0.0561*%
%ADD16R,0.0001X0.0560*%
%ADD17R,0.0001X0.0564*%
%ADD18R,0.0001X0.0564*%
%ADD19R,0.0001X0.0568*%
%ADD20R,0.0001X0.0567*%
%ADD21R,0.0001X0.0570*%
%ADD22R,0.0001X0.0574*%
%ADD23R,0.0001X0.0576*%
%ADD24R,0.0001X0.0578*%
%ADD25R,0.0001X0.0581*%
%ADD26R,0.0001X0.0580*%
%ADD27R,0.0001X0.0583*%
%ADD28R,0.0001X0.0582*%
%ADD29R,0.0001X0.0585*%
%ADD30R,0.0001X0.0586*%
%ADD31R,0.0001X0.0588*%
%ADD32R,0.0001X0.0590*%
%ADD33R,0.0001X0.0591*%
%ADD34R,0.0001X0.0593*%
%ADD35R,0.0001X0.0594*%
%ADD36R,0.0001X0.0596*%
%ADD37R,0.0001X0.0595*%
%ADD38R,0.0001X0.0597*%
%ADD39R,0.0001X0.0598*%
%ADD40R,0.0001X0.0598*%
%ADD41R,0.0001X0.0599*%
%ADD42R,0.0001X0.0601*%
%ADD43R,0.0001X0.0600*%
%ADD44R,0.0001X0.0602*%
%ADD45R,0.0001X0.0603*%
%ADD46R,0.0001X0.0604*%
%ADD47R,0.0001X0.0604*%
%ADD48R,0.0001X0.0605*%
%ADD49R,0.0001X0.0606*%
%ADD50R,0.0001X0.0606*%
%ADD51R,0.0001X0.0607*%
%ADD52R,0.0001X0.0609*%
%ADD53R,0.0001X0.0608*%
%ADD54R,0.0001X0.0610*%
%ADD55R,0.0001X0.0610*%
%ADD56R,0.0001X0.0611*%
%ADD57R,0.0001X0.0611*%
%ADD58R,0.0001X0.0612*%
%ADD59R,0.0001X0.0613*%
%ADD60R,0.0001X0.0602*%
%ADD61R,0.0001X0.0598*%
%ADD62R,0.0001X0.0594*%
%ADD63R,0.0001X0.0592*%
%ADD64R,0.0001X0.0590*%
%ADD65R,0.0001X0.0589*%
%ADD66R,0.0001X0.0587*%
%ADD67R,0.0001X0.0586*%
%ADD68R,0.0001X0.0582*%
%ADD69R,0.0001X0.0579*%
%ADD70R,0.0001X0.0577*%
%ADD71R,0.0001X0.0574*%
%ADD72R,0.0001X0.0571*%
%ADD73R,0.0001X0.0569*%
%ADD74R,0.0001X0.0584*%
%ADD75R,0.0001X0.0566*%
%ADD76R,0.0001X0.0562*%
%ADD77R,0.0001X0.0557*%
%ADD78R,0.0001X0.0552*%
%ADD79R,0.0001X0.0544*%
%ADD80R,0.0001X0.0413*%
%ADD81R,0.0001X0.0412*%
%ADD82R,0.0001X0.0411*%
%ADD83R,0.0001X0.0540*%
%ADD84R,0.0001X0.0383*%
%ADD85R,0.0001X0.0410*%
%ADD86R,0.0001X0.0382*%
%ADD87R,0.0001X0.0410*%
%ADD88R,0.0001X0.0409*%
%ADD89R,0.0001X0.0382*%
%ADD90R,0.0001X0.0408*%
%ADD91R,0.0001X0.0381*%
%ADD92R,0.0001X0.0407*%
%ADD93R,0.0001X0.0380*%
%ADD94R,0.0001X0.0406*%
%ADD95R,0.0001X0.0379*%
%ADD96R,0.0001X0.0406*%
%ADD97R,0.0001X0.0405*%
%ADD98R,0.0001X0.0378*%
%ADD99R,0.0001X0.0404*%
%ADD100R,0.0001X0.0378*%
%ADD101R,0.0001X0.0403*%
%ADD102R,0.0001X0.0377*%
%ADD103R,0.0001X0.0402*%
%ADD104R,0.0001X0.0376*%
%ADD105R,0.0001X0.0402*%
%ADD106R,0.0001X0.0375*%
%ADD107R,0.0001X0.0401*%
%ADD108R,0.0001X0.0400*%
%ADD109R,0.0001X0.0374*%
%ADD110R,0.0001X0.0399*%
%ADD111R,0.0001X0.0374*%
%ADD112R,0.0001X0.0398*%
%ADD113R,0.0001X0.0373*%
%ADD114R,0.0001X0.0398*%
%ADD115R,0.0001X0.0372*%
%ADD116R,0.0001X0.0397*%
%ADD117R,0.0001X0.0396*%
%ADD118R,0.0001X0.0371*%
%ADD119R,0.0001X0.0395*%
%ADD120R,0.0001X0.0370*%
%ADD121R,0.0001X0.0394*%
%ADD122R,0.0001X0.0370*%
%ADD123R,0.0001X0.0394*%
%ADD124R,0.0001X0.0369*%
%ADD125R,0.0001X0.0393*%
%ADD126R,0.0001X0.0392*%
%ADD127R,0.0001X0.0368*%
%ADD128R,0.0001X0.0391*%
%ADD129R,0.0001X0.0367*%
%ADD130R,0.0001X0.0390*%
%ADD131R,0.0001X0.0366*%
%ADD132R,0.0001X0.0390*%
%ADD133R,0.0001X0.0366*%
%ADD134R,0.0001X0.0389*%
%ADD135R,0.0001X0.0388*%
%ADD136R,0.0001X0.0365*%
%ADD137R,0.0001X0.0387*%
%ADD138R,0.0001X0.0364*%
%ADD139R,0.0001X0.0386*%
%ADD140R,0.0001X0.0363*%
%ADD141R,0.0001X0.0386*%
%ADD142R,0.0001X0.0362*%
%ADD143R,0.0001X0.0385*%
%ADD144R,0.0001X0.0362*%
%ADD145R,0.0001X0.0384*%
%ADD146R,0.0001X0.0361*%
%ADD147R,0.0001X0.0360*%
%ADD148R,0.0001X0.0359*%
%ADD149R,0.0001X0.0358*%
%ADD150R,0.0001X0.0358*%
%ADD151R,0.0001X0.0379*%
%ADD152R,0.0001X0.0357*%
%ADD153R,0.0001X0.0356*%
%ADD154R,0.0001X0.0355*%
%ADD155R,0.0001X0.0354*%
%ADD156R,0.0001X0.0354*%
%ADD157R,0.0001X0.0353*%
%ADD158R,0.0001X0.0373*%
%ADD159R,0.0001X0.0352*%
%ADD160R,0.0001X0.0351*%
%ADD161R,0.0001X0.0350*%
%ADD162R,0.0001X0.0350*%
%ADD163R,0.0001X0.0349*%
%ADD164R,0.0001X0.0348*%
%ADD165R,0.0001X0.0347*%
%ADD166R,0.0001X0.0346*%
%ADD167R,0.0001X0.0346*%
%ADD168R,0.0001X0.0345*%
%ADD169R,0.0001X0.0344*%
%ADD170R,0.0001X0.0343*%
%ADD171R,0.0001X0.0342*%
%ADD172R,0.0001X0.0342*%
%ADD173R,0.0001X0.0359*%
%ADD174R,0.0001X0.0341*%
%ADD175R,0.0001X0.0340*%
%ADD176R,0.0001X0.0339*%
%ADD177R,0.0001X0.0338*%
%ADD178R,0.0001X0.0338*%
%ADD179R,0.0001X0.0337*%
%ADD180R,0.0001X0.0353*%
%ADD181R,0.0001X0.0336*%
%ADD182R,0.0001X0.0335*%
%ADD183R,0.0001X0.0334*%
%ADD184R,0.0001X0.0334*%
%ADD185R,0.0001X0.0333*%
%ADD186R,0.0001X0.0332*%
%ADD187R,0.0001X0.0331*%
%ADD188R,0.0001X0.0330*%
%ADD189R,0.0001X0.0330*%
%ADD190R,0.0001X0.0329*%
%ADD191R,0.0001X0.0328*%
%ADD192R,0.0001X0.0327*%
%ADD193R,0.0001X0.0326*%
%ADD194R,0.0001X0.0326*%
%ADD195R,0.0001X0.0339*%
%ADD196R,0.0001X0.0325*%
%ADD197R,0.0001X0.0324*%
%ADD198R,0.0001X0.0323*%
%ADD199R,0.0001X0.0322*%
%ADD200R,0.0001X0.0322*%
%ADD201R,0.0001X0.0321*%
%ADD202R,0.0001X0.0320*%
%ADD203R,0.0001X0.0333*%
%ADD204R,0.0001X0.0319*%
%ADD205R,0.0001X0.0318*%
%ADD206R,0.0001X0.0318*%
%ADD207R,0.0001X0.0317*%
%ADD208R,0.0001X0.0316*%
%ADD209R,0.0001X0.0315*%
%ADD210R,0.0001X0.0314*%
%ADD211R,0.0001X0.0314*%
%ADD212R,0.0001X0.0313*%
%ADD213R,0.0001X0.0312*%
%ADD214R,0.0001X0.0311*%
%ADD215R,0.0001X0.0310*%
%ADD216R,0.0001X0.0310*%
%ADD217R,0.0001X0.0309*%
%ADD218R,0.0001X0.0319*%
%ADD219R,0.0001X0.0308*%
%ADD220R,0.0001X0.0307*%
%ADD221R,0.0001X0.0306*%
%ADD222R,0.0001X0.0306*%
%ADD223R,0.0001X0.0305*%
%ADD224R,0.0001X0.0304*%
%ADD225R,0.0001X0.0313*%
%ADD226R,0.0001X0.0303*%
%ADD227R,0.0001X0.0302*%
%ADD228R,0.0001X0.0302*%
%ADD229R,0.0001X0.0301*%
%ADD230R,0.0001X0.0300*%
%ADD231R,0.0001X0.0299*%
%ADD232R,0.0001X0.0298*%
%ADD233R,0.0001X0.0298*%
%ADD234R,0.0001X0.0297*%
%ADD235R,0.0001X0.0296*%
%ADD236R,0.0001X0.0295*%
%ADD237R,0.0001X0.0294*%
%ADD238R,0.0001X0.0294*%
%ADD239R,0.0001X0.0293*%
%ADD240R,0.0001X0.0299*%
%ADD241R,0.0001X0.0292*%
%ADD242R,0.0001X0.0291*%
%ADD243R,0.0001X0.0290*%
%ADD244R,0.0001X0.0290*%
%ADD245R,0.0001X0.0289*%
%ADD246R,0.0001X0.0288*%
%ADD247R,0.0001X0.0287*%
%ADD248R,0.0001X0.0293*%
%ADD249R,0.0001X0.0286*%
%ADD250R,0.0001X0.0286*%
%ADD251R,0.0001X0.0285*%
%ADD252R,0.0001X0.0284*%
%ADD253R,0.0001X0.0283*%
%ADD254R,0.0001X0.0282*%
%ADD255R,0.0001X0.0282*%
%ADD256R,0.0001X0.0281*%
%ADD257R,0.0001X0.0280*%
%ADD258R,0.0001X0.0279*%
%ADD259R,0.0001X0.0278*%
%ADD260R,0.0001X0.0278*%
%ADD261R,0.0001X0.0277*%
%ADD262R,0.0001X0.0276*%
%ADD263R,0.0001X0.0279*%
%ADD264R,0.0001X0.0275*%
%ADD265R,0.0001X0.0274*%
%ADD266R,0.0001X0.0274*%
%ADD267R,0.0001X0.0273*%
%ADD268R,0.0001X0.0272*%
%ADD269R,0.0001X0.0271*%
%ADD270R,0.0001X0.0273*%
%ADD271R,0.0001X0.0270*%
%ADD272R,0.0001X0.0270*%
%ADD273R,0.0001X0.0269*%
%ADD274R,0.0001X0.0268*%
%ADD275R,0.0001X0.0267*%
%ADD276R,0.0001X0.0266*%
%ADD277R,0.0001X0.0266*%
%ADD278R,0.0001X0.0265*%
%ADD279R,0.0001X0.0264*%
%ADD280R,0.0001X0.0263*%
%ADD281R,0.0001X0.0262*%
%ADD282R,0.0001X0.0262*%
%ADD283R,0.0001X0.0261*%
%ADD284R,0.0001X0.0260*%
%ADD285R,0.0001X0.0259*%
%ADD286R,0.0001X0.0259*%
%ADD287R,0.0001X0.0258*%
%ADD288R,0.0001X0.0258*%
%ADD289R,0.0001X0.0257*%
%ADD290R,0.0001X0.0256*%
%ADD291R,0.0001X0.0255*%
%ADD292R,0.0001X0.0254*%
%ADD293R,0.0001X0.0254*%
%ADD294R,0.0001X0.0253*%
%ADD295R,0.0001X0.0252*%
%ADD296R,0.0001X0.0251*%
%ADD297R,0.0001X0.0253*%
%ADD298R,0.0001X0.0250*%
%ADD299R,0.0001X0.0250*%
%ADD300R,0.0001X0.0249*%
%ADD301R,0.0001X0.0248*%
%ADD302R,0.0001X0.0247*%
%ADD303R,0.0001X0.0246*%
%ADD304R,0.0001X0.0246*%
%ADD305R,0.0001X0.0245*%
%ADD306R,0.0001X0.0244*%
%ADD307R,0.0001X0.0243*%
%ADD308R,0.0001X0.0242*%
%ADD309R,0.0001X0.0242*%
%ADD310R,0.0001X0.0241*%
%ADD311R,0.0001X0.0240*%
%ADD312R,0.0001X0.0239*%
%ADD313R,0.0001X0.0238*%
%ADD314R,0.0001X0.0238*%
%ADD315R,0.0001X0.0237*%
%ADD316R,0.0001X0.0415*%
%ADD317R,0.0001X0.1389*%
%ADD318R,0.0001X0.0514*%
%ADD319R,0.0001X0.0489*%
%ADD320R,0.0001X0.1388*%
%ADD321R,0.0001X0.1387*%
%ADD322R,0.0001X0.1386*%
%ADD323R,0.0001X0.1386*%
%ADD324R,0.0001X0.1385*%
%ADD325R,0.0001X0.1384*%
%ADD326R,0.0001X0.1383*%
%ADD327R,0.0001X0.1382*%
%ADD328R,0.0001X0.1382*%
%ADD329R,0.0001X0.1381*%
%ADD330R,0.0001X0.1380*%
%ADD331R,0.0001X0.1379*%
%ADD332R,0.0001X0.1378*%
%ADD333R,0.0001X0.1378*%
%ADD334R,0.0001X0.1376*%
%ADD335R,0.0001X0.1374*%
%ADD336R,0.0001X0.1373*%
%ADD337R,0.0001X0.1371*%
%ADD338R,0.0001X0.1370*%
%ADD339R,0.0001X0.1369*%
%ADD340R,0.0001X0.1368*%
%ADD341R,0.0001X0.1367*%
%ADD342R,0.0001X0.1366*%
%ADD343R,0.0001X0.1366*%
%ADD344R,0.0001X0.1365*%
%ADD345R,0.0001X0.1364*%
%ADD346R,0.0001X0.1363*%
%ADD347R,0.0001X0.1362*%
%ADD348R,0.0001X0.1362*%
%ADD349R,0.0001X0.1361*%
%ADD350R,0.0001X0.1360*%
%ADD351R,0.0001X0.1359*%
%ADD352R,0.0001X0.1358*%
%ADD353R,0.0001X0.1358*%
%ADD354R,0.0001X0.1357*%
%ADD355R,0.0001X0.1356*%
%ADD356R,0.0001X0.1355*%
%ADD357R,0.0001X0.1354*%
%ADD358R,0.0001X0.1354*%
%ADD359R,0.0001X0.1353*%
%ADD360R,0.0001X0.1352*%
%ADD361R,0.0001X0.1351*%
%ADD362R,0.0001X0.1350*%
%ADD363R,0.0001X0.1348*%
%ADD364R,0.0001X0.1346*%
%ADD365R,0.0001X0.1344*%
%ADD366R,0.0001X0.1342*%
%ADD367R,0.0001X0.1341*%
%ADD368R,0.0001X0.1339*%
%ADD369R,0.0001X0.1338*%
%ADD370R,0.0001X0.1336*%
%ADD371R,0.0001X0.1334*%
%ADD372R,0.0001X0.1333*%
%ADD373R,0.0001X0.1331*%
%ADD374R,0.0001X0.1330*%
%ADD375R,0.0001X0.1328*%
%ADD376R,0.0001X0.1326*%
%ADD377R,0.0001X0.1325*%
%ADD378R,0.0001X0.1323*%
%ADD379R,0.0001X0.1322*%
%ADD380R,0.0001X0.1320*%
%ADD381R,0.0001X0.1318*%
%ADD382R,0.0001X0.1317*%
%ADD383R,0.0001X0.1315*%
%ADD384R,0.0001X0.1314*%
%ADD385R,0.0001X0.1312*%
%ADD386R,0.0001X0.1310*%
%ADD387R,0.0001X0.1309*%
%ADD388R,0.0001X0.1307*%
%ADD389R,0.0001X0.1306*%
%ADD390R,0.0001X0.1304*%
%ADD391R,0.0001X0.1302*%
%ADD392R,0.0001X0.1301*%
%ADD393R,0.0001X0.1299*%
%ADD394R,0.0001X0.1298*%
%ADD395R,0.0001X0.1296*%
%ADD396R,0.0001X0.1294*%
%ADD397R,0.0001X0.1292*%
%ADD398R,0.0001X0.1290*%
%ADD399R,0.0001X0.1289*%
%ADD400R,0.0001X0.1287*%
%ADD401R,0.0001X0.1286*%
%ADD402R,0.0001X0.1284*%
%ADD403R,0.0001X0.1282*%
%ADD404R,0.0001X0.1281*%
%ADD405R,0.0001X0.1279*%
%ADD406R,0.0001X0.1278*%
%ADD407R,0.0001X0.1276*%
%ADD408R,0.0001X0.1274*%
%ADD409R,0.0001X0.1273*%
%ADD410R,0.0001X0.1271*%
%ADD411R,0.0001X0.1270*%
%ADD412R,0.0001X0.1268*%
%ADD413R,0.0001X0.1266*%
%ADD414R,0.0001X0.1264*%
%ADD415R,0.0001X0.1262*%
%ADD416R,0.0001X0.1261*%
%ADD417R,0.0001X0.1259*%
%ADD418R,0.0001X0.1258*%
%ADD419R,0.0001X0.1256*%
%ADD420R,0.0001X0.1254*%
%ADD421R,0.0001X0.1253*%
%ADD422R,0.0001X0.1251*%
%ADD423R,0.0001X0.1250*%
%ADD424R,0.0001X0.1248*%
%ADD425R,0.0001X0.1246*%
%ADD426R,0.0001X0.1245*%
%ADD427R,0.0001X0.1243*%
%ADD428R,0.0001X0.1242*%
%ADD429R,0.0001X0.1240*%
%ADD430R,0.0001X0.1238*%
%ADD431R,0.0001X0.1237*%
%ADD432R,0.0001X0.1235*%
%ADD433R,0.0001X0.1234*%
%ADD434R,0.0001X0.1232*%
%ADD435R,0.0001X0.1230*%
%ADD436R,0.0001X0.1229*%
%ADD437R,0.0001X0.1227*%
%ADD438R,0.0001X0.1226*%
%ADD439R,0.0001X0.1224*%
%ADD440R,0.0001X0.1222*%
%ADD441R,0.0001X0.1221*%
%ADD442R,0.0001X0.1219*%
%ADD443R,0.0001X0.1218*%
%ADD444R,0.0001X0.1216*%
%ADD445R,0.0001X0.1214*%
%ADD446R,0.0001X0.1212*%
%ADD447R,0.0001X0.1210*%
%ADD448R,0.0001X0.1209*%
%ADD449R,0.0001X0.1207*%
%ADD450R,0.0001X0.1206*%
%ADD451R,0.0001X0.1204*%
%ADD452R,0.0001X0.1202*%
%ADD453R,0.0001X0.1201*%
%ADD454R,0.0001X0.1199*%
%ADD455R,0.0001X0.1198*%
%ADD456R,0.0001X0.1196*%
%ADD457R,0.0001X0.1194*%
%ADD458R,0.0001X0.1193*%
%ADD459R,0.0001X0.1191*%
%ADD460R,0.0001X0.1190*%
%ADD461R,0.0001X0.1188*%
%ADD462R,0.0001X0.1186*%
%ADD463R,0.0001X0.1184*%
%ADD464R,0.0001X0.1182*%
%ADD465R,0.0001X0.1181*%
%ADD466R,0.0001X0.1179*%
%ADD467R,0.0001X0.1178*%
%ADD468R,0.0001X0.1176*%
%ADD469R,0.0001X0.1174*%
%ADD470R,0.0001X0.1173*%
%ADD471R,0.0001X0.1171*%
%ADD472R,0.0001X0.1170*%
%ADD473R,0.0001X0.1168*%
%ADD474R,0.0001X0.1166*%
%ADD475R,0.0001X0.1165*%
%ADD476R,0.0001X0.1163*%
%ADD477R,0.0001X0.1162*%
%ADD478R,0.0001X0.1160*%
%ADD479R,0.0001X0.1158*%
%ADD480R,0.0001X0.1157*%
%ADD481R,0.0001X0.1155*%
%ADD482R,0.0001X0.1154*%
%ADD483R,0.0001X0.1152*%
%ADD484R,0.0001X0.1150*%
%ADD485R,0.0001X0.1149*%
%ADD486R,0.0001X0.1147*%
%ADD487R,0.0001X0.1146*%
%ADD488R,0.0001X0.1144*%
%ADD489R,0.0001X0.1142*%
%ADD490R,0.0001X0.1141*%
%ADD491R,0.0001X0.1139*%
%ADD492R,0.0001X0.1138*%
%ADD493R,0.0001X0.1136*%
%ADD494R,0.0001X0.1134*%
%ADD495R,0.0001X0.1132*%
%ADD496R,0.0001X0.1130*%
%ADD497R,0.0001X0.1129*%
%ADD498R,0.0001X0.1127*%
%ADD499R,0.0001X0.1126*%
%ADD500R,0.0001X0.1124*%
%ADD501R,0.0001X0.1122*%
%ADD502R,0.0001X0.1121*%
%ADD503R,0.0001X0.1119*%
%ADD504R,0.0001X0.1118*%
%ADD505R,0.0001X0.1116*%
%ADD506R,0.0001X0.1114*%
%ADD507R,0.0001X0.1113*%
%ADD508R,0.0001X0.1111*%
%ADD509R,0.0001X0.1110*%
%ADD510R,0.0001X0.1107*%
%ADD511R,0.0001X0.1106*%
%ADD512R,0.0001X0.1104*%
%ADD513R,0.0001X0.1102*%
%ADD514R,0.0001X0.1101*%
%ADD515R,0.0001X0.1099*%
%ADD516R,0.0001X0.1098*%
%ADD517R,0.0001X0.1096*%
%ADD518R,0.0001X0.1094*%
%ADD519R,0.0001X0.1093*%
%ADD520R,0.0001X0.1091*%
%ADD521R,0.0001X0.1090*%
%ADD522R,0.0001X0.1088*%
%ADD523R,0.0001X0.1086*%
%ADD524R,0.0001X0.1085*%
%ADD525R,0.0001X0.1083*%
%ADD526R,0.0001X0.1082*%
%ADD527R,0.0001X0.1080*%
%ADD528R,0.0001X0.1078*%
%ADD529R,0.0001X0.1077*%
%ADD530R,0.0001X0.1075*%
%ADD531R,0.0001X0.1074*%
%ADD532R,0.0001X0.1072*%
%ADD533R,0.0001X0.1070*%
%ADD534R,0.0001X0.1069*%
%ADD535R,0.0001X0.1067*%
%ADD536R,0.0001X0.1066*%
%ADD537R,0.0001X0.1064*%
%ADD538R,0.0001X0.1062*%
%ADD539R,0.0001X0.1061*%
%ADD540R,0.0001X0.1059*%
%ADD541R,0.0001X0.1058*%
%ADD542R,0.0001X0.1056*%
%ADD543R,0.0001X0.1054*%
%ADD544R,0.0001X0.1052*%
%ADD545R,0.0001X0.1050*%
%ADD546R,0.0001X0.1049*%
%ADD547R,0.0001X0.1047*%
%ADD548R,0.0001X0.1046*%
%ADD549R,0.0001X0.1044*%
%ADD550R,0.0001X0.1042*%
%ADD551R,0.0001X0.1041*%
%ADD552R,0.0001X0.1039*%
%ADD553R,0.0001X0.1038*%
%ADD554R,0.0001X0.1036*%
%ADD555R,0.0001X0.1034*%
%ADD556R,0.0001X0.1033*%
%ADD557R,0.0001X0.1031*%
%ADD558R,0.0001X0.1030*%
%ADD559R,0.0001X0.1027*%
%ADD560R,0.0001X0.1026*%
%ADD561R,0.0001X0.1024*%
%ADD562R,0.0001X0.1022*%
%ADD563R,0.0001X0.1021*%
%ADD564R,0.0001X0.1019*%
%ADD565R,0.0001X0.1018*%
%ADD566R,0.0001X0.1016*%
%ADD567R,0.0001X0.1014*%
%ADD568R,0.0001X0.1013*%
%ADD569R,0.0001X0.1011*%
%ADD570R,0.0001X0.1010*%
%ADD571R,0.0001X0.1008*%
%ADD572R,0.0001X0.1006*%
%ADD573R,0.0001X0.1005*%
%ADD574R,0.0001X0.1003*%
%ADD575R,0.0001X0.1002*%
%ADD576R,0.0001X0.1000*%
%ADD577R,0.0001X0.0998*%
%ADD578R,0.0001X0.0997*%
%ADD579R,0.0001X0.0995*%
%ADD580R,0.0001X0.0994*%
%ADD581R,0.0001X0.0992*%
%ADD582R,0.0001X0.0990*%
%ADD583R,0.0001X0.0989*%
%ADD584R,0.0001X0.0987*%
%ADD585R,0.0001X0.0986*%
%ADD586R,0.0001X0.0984*%
%ADD587R,0.0001X0.0982*%
%ADD588R,0.0001X0.0981*%
%ADD589R,0.0001X0.0979*%
%ADD590R,0.0001X0.0978*%
%ADD591R,0.0001X0.0976*%
%ADD592R,0.0001X0.0974*%
%ADD593R,0.0001X0.0972*%
%ADD594R,0.0001X0.0970*%
%ADD595R,0.0001X0.0969*%
%ADD596R,0.0001X0.0967*%
%ADD597R,0.0001X0.0966*%
%ADD598R,0.0001X0.0964*%
%ADD599R,0.0001X0.0962*%
%ADD600R,0.0001X0.0961*%
%ADD601R,0.0001X0.0959*%
%ADD602R,0.0001X0.0958*%
%ADD603R,0.0001X0.0956*%
%ADD604R,0.0001X0.0954*%
%ADD605R,0.0001X0.0953*%
%ADD606R,0.0001X0.0951*%
%ADD607R,0.0001X0.0950*%
%ADD608R,0.0001X0.0947*%
%ADD609R,0.0001X0.0946*%
%ADD610R,0.0001X0.0944*%
%ADD611R,0.0001X0.0942*%
%ADD612R,0.0001X0.0941*%
%ADD613R,0.0001X0.0939*%
%ADD614R,0.0001X0.0938*%
%ADD615R,0.0001X0.0936*%
%ADD616R,0.0001X0.0934*%
%ADD617R,0.0001X0.0933*%
%ADD618R,0.0001X0.0931*%
%ADD619R,0.0001X0.0930*%
%ADD620R,0.0001X0.0928*%
%ADD621R,0.0001X0.0926*%
%ADD622R,0.0001X0.0925*%
%ADD623R,0.0001X0.0923*%
%ADD624R,0.0001X0.0922*%
%ADD625R,0.0001X0.0920*%
%ADD626R,0.0001X0.0918*%
%ADD627R,0.0001X0.0917*%
%ADD628R,0.0001X0.0914*%
%ADD629R,0.0001X0.0909*%
%ADD630R,0.0001X0.0905*%
%ADD631R,0.0001X0.0901*%
%ADD632R,0.0001X0.0896*%
%ADD633R,0.0001X0.0891*%
%ADD634R,0.0001X0.0886*%
%ADD635R,0.0001X0.0882*%
%ADD636R,0.0001X0.0876*%
%ADD637R,0.0001X0.0871*%
%ADD638R,0.0001X0.0866*%
%ADD639R,0.0001X0.0860*%
%ADD640R,0.0001X0.0854*%
%ADD641R,0.0001X0.0848*%
%ADD642R,0.0001X0.0842*%
%ADD643R,0.0001X0.0835*%
%ADD644R,0.0001X0.0829*%
%ADD645R,0.0001X0.0821*%
%ADD646R,0.0001X0.0813*%
%ADD647R,0.0001X0.0804*%
%ADD648R,0.0001X0.0794*%
%ADD649R,0.0001X0.0782*%
%ADD650R,0.0001X0.0763*%
%ADD651C,0.0000*%
%ADD652C,0.0080*%
%ADD653C,0.0060*%
%ADD654C,0.0050*%
D10*
X005624Y001835D02*
X005624Y002115D01*
X005764Y001975D01*
X005577Y001975D01*
X005853Y001975D02*
X005900Y001928D01*
X006040Y001928D01*
X005947Y001928D02*
X005853Y001835D01*
X005853Y001975D02*
X005853Y002069D01*
X005900Y002115D01*
X006040Y002115D01*
X006040Y001835D01*
X007110Y002604D02*
X007157Y002558D01*
X007344Y002558D01*
X007390Y002604D01*
X007390Y002698D01*
X007344Y002744D01*
X007344Y002834D02*
X007390Y002880D01*
X007390Y002974D01*
X007344Y003021D01*
X007297Y003021D01*
X007110Y002834D01*
X007110Y003021D01*
X007157Y002744D02*
X007110Y002698D01*
X007110Y002604D01*
X007279Y004210D02*
X007466Y004210D01*
X007373Y004210D02*
X007373Y004490D01*
X007466Y004397D01*
X007556Y004444D02*
X007602Y004490D01*
X007696Y004490D01*
X007742Y004444D01*
X007742Y004257D01*
X007696Y004210D01*
X007602Y004210D01*
X007556Y004257D01*
D11*
X005782Y004109D03*
X005782Y003122D03*
D12*
X005782Y003122D03*
X005782Y004109D03*
X005378Y004109D03*
D13*
X005781Y003122D03*
D14*
X005781Y004109D03*
X005379Y004109D03*
D15*
X005780Y003122D03*
D16*
X005780Y004109D03*
X005380Y004109D03*
D17*
X005779Y003122D03*
D18*
X005779Y004109D03*
X005381Y004109D03*
D19*
X005778Y003122D03*
D20*
X005778Y004109D03*
X005382Y004109D03*
D21*
X005382Y004109D03*
X005778Y004109D03*
X005778Y003122D03*
D22*
X005777Y003122D03*
X005777Y004109D03*
X005383Y004109D03*
D23*
X005384Y004109D03*
X005776Y004109D03*
X005776Y003122D03*
D24*
X005775Y003122D03*
X005775Y004109D03*
X005385Y004109D03*
D25*
X005386Y004109D03*
X005774Y003122D03*
D26*
X005774Y004109D03*
D27*
X005774Y003122D03*
X005392Y003122D03*
D28*
X005386Y004109D03*
X005774Y004109D03*
D29*
X005773Y004109D03*
X005773Y003122D03*
D30*
X005772Y003122D03*
X005772Y004109D03*
X005388Y004109D03*
D31*
X005389Y004109D03*
X005771Y004109D03*
X005771Y003122D03*
D32*
X005770Y003122D03*
X005770Y004109D03*
X005390Y004109D03*
D33*
X005390Y004109D03*
X005770Y004109D03*
X005770Y003122D03*
D34*
X005769Y003122D03*
X005769Y004109D03*
X005391Y004109D03*
D35*
X005768Y004109D03*
X005768Y003122D03*
X005398Y003122D03*
D36*
X005398Y003122D03*
X005767Y003122D03*
D37*
X005767Y004109D03*
X005393Y004109D03*
D38*
X005394Y004109D03*
X005766Y004109D03*
X005766Y003122D03*
D39*
X005766Y003122D03*
X005400Y003122D03*
D40*
X005394Y004109D03*
X005766Y004109D03*
D41*
X005765Y004109D03*
X005395Y004109D03*
X005401Y003122D03*
X005765Y003122D03*
D42*
X005764Y003122D03*
X005763Y003122D03*
X005402Y003122D03*
X005397Y004109D03*
X005763Y004109D03*
D43*
X005764Y004109D03*
X005396Y004109D03*
D44*
X005398Y004109D03*
X005762Y004109D03*
X005762Y004109D03*
X005762Y003122D03*
X005403Y003122D03*
D45*
X005404Y003122D03*
X005762Y003122D03*
D46*
X005761Y003122D03*
X005405Y003122D03*
D47*
X005399Y004109D03*
X005761Y004109D03*
D48*
X005760Y004109D03*
X005400Y004109D03*
X005406Y003122D03*
X005760Y003122D03*
D49*
X005759Y003122D03*
X005406Y003122D03*
X005402Y004109D03*
X005401Y004109D03*
X005758Y004109D03*
X005759Y004109D03*
D50*
X005758Y003122D03*
X005407Y003122D03*
D51*
X005408Y003122D03*
X005757Y003122D03*
X005758Y003122D03*
X005757Y004109D03*
X005758Y004109D03*
X005403Y004109D03*
X005402Y004109D03*
D52*
X005405Y004109D03*
X005406Y004109D03*
X005754Y004109D03*
X005755Y004109D03*
X005754Y003122D03*
X005755Y003122D03*
X005756Y003122D03*
X005410Y003122D03*
X005410Y003122D03*
D53*
X005409Y003122D03*
X005404Y004109D03*
X005756Y004109D03*
D54*
X005754Y004109D03*
X005406Y004109D03*
X005411Y003122D03*
X005754Y003122D03*
D55*
X005753Y003122D03*
X005752Y003122D03*
X005414Y003122D03*
X005413Y003122D03*
X005412Y003122D03*
X005409Y004109D03*
X005408Y004109D03*
X005407Y004109D03*
X005751Y004109D03*
X005752Y004109D03*
X005753Y004109D03*
D56*
X005751Y003122D03*
X005750Y003122D03*
X005414Y003122D03*
D57*
X005410Y004109D03*
X005750Y004109D03*
D58*
X005750Y004109D03*
X005749Y004109D03*
X005748Y004109D03*
X005747Y004109D03*
X005746Y004109D03*
X005414Y004109D03*
X005413Y004109D03*
X005412Y004109D03*
X005411Y004109D03*
X005410Y004109D03*
X005415Y003122D03*
X005416Y003122D03*
X005417Y003122D03*
X005418Y003122D03*
X005418Y003122D03*
X005747Y003122D03*
X005748Y003122D03*
X005749Y003122D03*
X005750Y003122D03*
D59*
X005746Y003122D03*
X005746Y003122D03*
X005745Y003122D03*
X005744Y003122D03*
X005743Y003122D03*
X005742Y003122D03*
X005742Y003122D03*
X005741Y003122D03*
X005740Y003122D03*
X005739Y003122D03*
X005738Y003122D03*
X005738Y003122D03*
X005737Y003122D03*
X005736Y003122D03*
X005735Y003122D03*
X005734Y003122D03*
X005734Y003122D03*
X005733Y003122D03*
X005732Y003122D03*
X005731Y003122D03*
X005730Y003122D03*
X005730Y003122D03*
X005729Y003122D03*
X005728Y003122D03*
X005727Y003122D03*
X005726Y003122D03*
X005726Y003122D03*
X005725Y003122D03*
X005724Y003122D03*
X005723Y003122D03*
X005722Y003122D03*
X005722Y003122D03*
X005721Y003122D03*
X005720Y003122D03*
X005719Y003122D03*
X005718Y003122D03*
X005718Y003122D03*
X005717Y003122D03*
X005716Y003122D03*
X005715Y003122D03*
X005714Y003122D03*
X005714Y003122D03*
X005713Y003122D03*
X005712Y003122D03*
X005711Y003122D03*
X005710Y003122D03*
X005710Y003122D03*
X005709Y003122D03*
X005708Y003122D03*
X005707Y003122D03*
X005706Y003122D03*
X005706Y003122D03*
X005705Y003122D03*
X005704Y003122D03*
X005703Y003122D03*
X005702Y003122D03*
X005702Y003122D03*
X005701Y003122D03*
X005700Y003122D03*
X005699Y003122D03*
X005698Y003122D03*
X005698Y003122D03*
X005697Y003122D03*
X005696Y003122D03*
X005695Y003122D03*
X005694Y003122D03*
X005694Y003122D03*
X005693Y003122D03*
X005692Y003122D03*
X005691Y003122D03*
X005690Y003122D03*
X005690Y003122D03*
X005689Y003122D03*
X005688Y003122D03*
X005687Y003122D03*
X005686Y003122D03*
X005686Y003122D03*
X005685Y003122D03*
X005684Y003122D03*
X005683Y003122D03*
X005682Y003122D03*
X005682Y003122D03*
X005681Y003122D03*
X005680Y003122D03*
X005679Y003122D03*
X005678Y003122D03*
X005678Y003122D03*
X005677Y003122D03*
X005676Y003122D03*
X005675Y003122D03*
X005674Y003122D03*
X005674Y003122D03*
X005673Y003122D03*
X005672Y003122D03*
X005671Y003122D03*
X005670Y003122D03*
X005670Y003122D03*
X005669Y003122D03*
X005668Y003122D03*
X005667Y003122D03*
X005666Y003122D03*
X005666Y003122D03*
X005665Y003122D03*
X005664Y003122D03*
X005663Y003122D03*
X005662Y003122D03*
X005662Y003122D03*
X005661Y003122D03*
X005660Y003122D03*
X005659Y003122D03*
X005658Y003122D03*
X005658Y003122D03*
X005657Y003122D03*
X005656Y003122D03*
X005655Y003122D03*
X005654Y003122D03*
X005654Y003122D03*
X005653Y003122D03*
X005652Y003122D03*
X005651Y003122D03*
X005650Y003122D03*
X005650Y003122D03*
X005649Y003122D03*
X005648Y003122D03*
X005647Y003122D03*
X005646Y003122D03*
X005646Y003122D03*
X005645Y003122D03*
X005644Y003122D03*
X005643Y003122D03*
X005642Y003122D03*
X005642Y003122D03*
X005641Y003122D03*
X005640Y003122D03*
X005639Y003122D03*
X005638Y003122D03*
X005638Y003122D03*
X005637Y003122D03*
X005636Y003122D03*
X005635Y003122D03*
X005634Y003122D03*
X005634Y003122D03*
X005633Y003122D03*
X005632Y003122D03*
X005631Y003122D03*
X005630Y003122D03*
X005630Y003122D03*
X005629Y003122D03*
X005628Y003122D03*
X005627Y003122D03*
X005626Y003122D03*
X005626Y003122D03*
X005625Y003122D03*
X005624Y003122D03*
X005623Y003122D03*
X005622Y003122D03*
X005622Y003122D03*
X005621Y003122D03*
X005620Y003122D03*
X005619Y003122D03*
X005618Y003122D03*
X005618Y003122D03*
X005617Y003122D03*
X005616Y003122D03*
X005615Y003122D03*
X005614Y003122D03*
X005614Y003122D03*
X005613Y003122D03*
X005612Y003122D03*
X005611Y003122D03*
X005610Y003122D03*
X005610Y003122D03*
X005609Y003122D03*
X005608Y003122D03*
X005607Y003122D03*
X005606Y003122D03*
X005606Y003122D03*
X005605Y003122D03*
X005604Y003122D03*
X005603Y003122D03*
X005602Y003122D03*
X005602Y003122D03*
X005601Y003122D03*
X005600Y003122D03*
X005599Y003122D03*
X005598Y003122D03*
X005598Y003122D03*
X005597Y003122D03*
X005596Y003122D03*
X005595Y003122D03*
X005594Y003122D03*
X005594Y003122D03*
X005593Y003122D03*
X005592Y003122D03*
X005591Y003122D03*
X005590Y003122D03*
X005590Y003122D03*
X005589Y003122D03*
X005588Y003122D03*
X005587Y003122D03*
X005586Y003122D03*
X005586Y003122D03*
X005585Y003122D03*
X005584Y003122D03*
X005583Y003122D03*
X005582Y003122D03*
X005582Y003122D03*
X005581Y003122D03*
X005580Y003122D03*
X005579Y003122D03*
X005578Y003122D03*
X005578Y003122D03*
X005577Y003122D03*
X005576Y003122D03*
X005575Y003122D03*
X005574Y003122D03*
X005574Y003122D03*
X005573Y003122D03*
X005572Y003122D03*
X005571Y003122D03*
X005570Y003122D03*
X005570Y003122D03*
X005569Y003122D03*
X005568Y003122D03*
X005567Y003122D03*
X005566Y003122D03*
X005566Y003122D03*
X005565Y003122D03*
X005564Y003122D03*
X005563Y003122D03*
X005562Y003122D03*
X005562Y003122D03*
X005561Y003122D03*
X005560Y003122D03*
X005559Y003122D03*
X005558Y003122D03*
X005558Y003122D03*
X005557Y003122D03*
X005556Y003122D03*
X005555Y003122D03*
X005554Y003122D03*
X005554Y003122D03*
X005553Y003122D03*
X005552Y003122D03*
X005551Y003122D03*
X005550Y003122D03*
X005550Y003122D03*
X005549Y003122D03*
X005548Y003122D03*
X005547Y003122D03*
X005546Y003122D03*
X005546Y003122D03*
X005545Y003122D03*
X005544Y003122D03*
X005543Y003122D03*
X005542Y003122D03*
X005542Y003122D03*
X005541Y003122D03*
X005540Y003122D03*
X005539Y003122D03*
X005538Y003122D03*
X005538Y003122D03*
X005537Y003122D03*
X005536Y003122D03*
X005535Y003122D03*
X005534Y003122D03*
X005534Y003122D03*
X005533Y003122D03*
X005532Y003122D03*
X005531Y003122D03*
X005530Y003122D03*
X005530Y003122D03*
X005529Y003122D03*
X005528Y003122D03*
X005527Y003122D03*
X005526Y003122D03*
X005526Y003122D03*
X005525Y003122D03*
X005524Y003122D03*
X005523Y003122D03*
X005522Y003122D03*
X005522Y003122D03*
X005521Y003122D03*
X005520Y003122D03*
X005519Y003122D03*
X005518Y003122D03*
X005518Y003122D03*
X005517Y003122D03*
X005516Y003122D03*
X005515Y003122D03*
X005514Y003122D03*
X005514Y003122D03*
X005513Y003122D03*
X005512Y003122D03*
X005511Y003122D03*
X005510Y003122D03*
X005510Y003122D03*
X005509Y003122D03*
X005508Y003122D03*
X005507Y003122D03*
X005506Y003122D03*
X005506Y003122D03*
X005505Y003122D03*
X005504Y003122D03*
X005503Y003122D03*
X005502Y003122D03*
X005502Y003122D03*
X005501Y003122D03*
X005500Y003122D03*
X005499Y003122D03*
X005498Y003122D03*
X005498Y003122D03*
X005497Y003122D03*
X005496Y003122D03*
X005495Y003122D03*
X005494Y003122D03*
X005494Y003122D03*
X005493Y003122D03*
X005492Y003122D03*
X005491Y003122D03*
X005490Y003122D03*
X005490Y003122D03*
X005489Y003122D03*
X005488Y003122D03*
X005487Y003122D03*
X005486Y003122D03*
X005486Y003122D03*
X005485Y003122D03*
X005484Y003122D03*
X005483Y003122D03*
X005482Y003122D03*
X005482Y003122D03*
X005481Y003122D03*
X005480Y003122D03*
X005479Y003122D03*
X005478Y003122D03*
X005478Y003122D03*
X005477Y003122D03*
X005476Y003122D03*
X005475Y003122D03*
X005474Y003122D03*
X005474Y003122D03*
X005473Y003122D03*
X005472Y003122D03*
X005471Y003122D03*
X005470Y003122D03*
X005470Y003122D03*
X005469Y003122D03*
X005468Y003122D03*
X005467Y003122D03*
X005466Y003122D03*
X005466Y003122D03*
X005465Y003122D03*
X005464Y003122D03*
X005463Y003122D03*
X005462Y003122D03*
X005462Y003122D03*
X005461Y003122D03*
X005460Y003122D03*
X005459Y003122D03*
X005458Y003122D03*
X005458Y003122D03*
X005457Y003122D03*
X005456Y003122D03*
X005455Y003122D03*
X005454Y003122D03*
X005454Y003122D03*
X005453Y003122D03*
X005452Y003122D03*
X005451Y003122D03*
X005450Y003122D03*
X005450Y003122D03*
X005449Y003122D03*
X005448Y003122D03*
X005447Y003122D03*
X005446Y003122D03*
X005446Y003122D03*
X005445Y003122D03*
X005444Y003122D03*
X005443Y003122D03*
X005442Y003122D03*
X005442Y003122D03*
X005441Y003122D03*
X005440Y003122D03*
X005439Y003122D03*
X005438Y003122D03*
X005438Y003122D03*
X005437Y003122D03*
X005436Y003122D03*
X005435Y003122D03*
X005434Y003122D03*
X005434Y003122D03*
X005433Y003122D03*
X005432Y003122D03*
X005431Y003122D03*
X005430Y003122D03*
X005430Y003122D03*
X005429Y003122D03*
X005428Y003122D03*
X005427Y003122D03*
X005426Y003122D03*
X005426Y003122D03*
X005425Y003122D03*
X005424Y003122D03*
X005423Y003122D03*
X005422Y003122D03*
X005422Y003122D03*
X005421Y003122D03*
X005420Y003122D03*
X005419Y003122D03*
X005418Y004109D03*
X005418Y004109D03*
X005419Y004109D03*
X005420Y004109D03*
X005421Y004109D03*
X005422Y004109D03*
X005422Y004109D03*
X005423Y004109D03*
X005424Y004109D03*
X005425Y004109D03*
X005426Y004109D03*
X005426Y004109D03*
X005427Y004109D03*
X005428Y004109D03*
X005429Y004109D03*
X005430Y004109D03*
X005430Y004109D03*
X005431Y004109D03*
X005432Y004109D03*
X005433Y004109D03*
X005434Y004109D03*
X005434Y004109D03*
X005435Y004109D03*
X005436Y004109D03*
X005437Y004109D03*
X005438Y004109D03*
X005438Y004109D03*
X005439Y004109D03*
X005440Y004109D03*
X005441Y004109D03*
X005442Y004109D03*
X005442Y004109D03*
X005443Y004109D03*
X005444Y004109D03*
X005445Y004109D03*
X005446Y004109D03*
X005446Y004109D03*
X005447Y004109D03*
X005448Y004109D03*
X005449Y004109D03*
X005450Y004109D03*
X005450Y004109D03*
X005451Y004109D03*
X005452Y004109D03*
X005453Y004109D03*
X005454Y004109D03*
X005454Y004109D03*
X005455Y004109D03*
X005456Y004109D03*
X005457Y004109D03*
X005458Y004109D03*
X005458Y004109D03*
X005459Y004109D03*
X005460Y004109D03*
X005461Y004109D03*
X005462Y004109D03*
X005462Y004109D03*
X005463Y004109D03*
X005464Y004109D03*
X005465Y004109D03*
X005466Y004109D03*
X005466Y004109D03*
X005467Y004109D03*
X005468Y004109D03*
X005469Y004109D03*
X005470Y004109D03*
X005470Y004109D03*
X005471Y004109D03*
X005472Y004109D03*
X005473Y004109D03*
X005474Y004109D03*
X005474Y004109D03*
X005475Y004109D03*
X005476Y004109D03*
X005477Y004109D03*
X005478Y004109D03*
X005478Y004109D03*
X005479Y004109D03*
X005480Y004109D03*
X005481Y004109D03*
X005482Y004109D03*
X005482Y004109D03*
X005483Y004109D03*
X005484Y004109D03*
X005485Y004109D03*
X005486Y004109D03*
X005486Y004109D03*
X005487Y004109D03*
X005488Y004109D03*
X005489Y004109D03*
X005490Y004109D03*
X005490Y004109D03*
X005491Y004109D03*
X005492Y004109D03*
X005493Y004109D03*
X005494Y004109D03*
X005494Y004109D03*
X005495Y004109D03*
X005496Y004109D03*
X005497Y004109D03*
X005498Y004109D03*
X005498Y004109D03*
X005499Y004109D03*
X005500Y004109D03*
X005501Y004109D03*
X005502Y004109D03*
X005502Y004109D03*
X005503Y004109D03*
X005504Y004109D03*
X005505Y004109D03*
X005506Y004109D03*
X005506Y004109D03*
X005507Y004109D03*
X005508Y004109D03*
X005509Y004109D03*
X005510Y004109D03*
X005510Y004109D03*
X005511Y004109D03*
X005512Y004109D03*
X005513Y004109D03*
X005514Y004109D03*
X005514Y004109D03*
X005515Y004109D03*
X005516Y004109D03*
X005517Y004109D03*
X005518Y004109D03*
X005518Y004109D03*
X005519Y004109D03*
X005520Y004109D03*
X005521Y004109D03*
X005522Y004109D03*
X005522Y004109D03*
X005523Y004109D03*
X005524Y004109D03*
X005525Y004109D03*
X005526Y004109D03*
X005526Y004109D03*
X005527Y004109D03*
X005528Y004109D03*
X005529Y004109D03*
X005530Y004109D03*
X005530Y004109D03*
X005531Y004109D03*
X005532Y004109D03*
X005533Y004109D03*
X005534Y004109D03*
X005534Y004109D03*
X005535Y004109D03*
X005536Y004109D03*
X005537Y004109D03*
X005538Y004109D03*
X005538Y004109D03*
X005539Y004109D03*
X005540Y004109D03*
X005541Y004109D03*
X005542Y004109D03*
X005542Y004109D03*
X005543Y004109D03*
X005544Y004109D03*
X005545Y004109D03*
X005546Y004109D03*
X005546Y004109D03*
X005547Y004109D03*
X005548Y004109D03*
X005549Y004109D03*
X005550Y004109D03*
X005550Y004109D03*
X005551Y004109D03*
X005552Y004109D03*
X005553Y004109D03*
X005554Y004109D03*
X005554Y004109D03*
X005555Y004109D03*
X005556Y004109D03*
X005557Y004109D03*
X005558Y004109D03*
X005558Y004109D03*
X005559Y004109D03*
X005560Y004109D03*
X005561Y004109D03*
X005562Y004109D03*
X005562Y004109D03*
X005563Y004109D03*
X005564Y004109D03*
X005565Y004109D03*
X005566Y004109D03*
X005566Y004109D03*
X005567Y004109D03*
X005568Y004109D03*
X005569Y004109D03*
X005570Y004109D03*
X005570Y004109D03*
X005571Y004109D03*
X005572Y004109D03*
X005573Y004109D03*
X005574Y004109D03*
X005574Y004109D03*
X005575Y004109D03*
X005576Y004109D03*
X005577Y004109D03*
X005578Y004109D03*
X005578Y004109D03*
X005579Y004109D03*
X005580Y004109D03*
X005581Y004109D03*
X005582Y004109D03*
X005582Y004109D03*
X005583Y004109D03*
X005584Y004109D03*
X005585Y004109D03*
X005586Y004109D03*
X005586Y004109D03*
X005587Y004109D03*
X005588Y004109D03*
X005589Y004109D03*
X005590Y004109D03*
X005590Y004109D03*
X005591Y004109D03*
X005592Y004109D03*
X005593Y004109D03*
X005594Y004109D03*
X005594Y004109D03*
X005595Y004109D03*
X005596Y004109D03*
X005597Y004109D03*
X005598Y004109D03*
X005598Y004109D03*
X005599Y004109D03*
X005600Y004109D03*
X005601Y004109D03*
X005602Y004109D03*
X005602Y004109D03*
X005603Y004109D03*
X005604Y004109D03*
X005605Y004109D03*
X005606Y004109D03*
X005606Y004109D03*
X005607Y004109D03*
X005608Y004109D03*
X005609Y004109D03*
X005610Y004109D03*
X005610Y004109D03*
X005611Y004109D03*
X005612Y004109D03*
X005613Y004109D03*
X005614Y004109D03*
X005614Y004109D03*
X005615Y004109D03*
X005616Y004109D03*
X005617Y004109D03*
X005618Y004109D03*
X005618Y004109D03*
X005619Y004109D03*
X005620Y004109D03*
X005621Y004109D03*
X005622Y004109D03*
X005622Y004109D03*
X005623Y004109D03*
X005624Y004109D03*
X005625Y004109D03*
X005626Y004109D03*
X005626Y004109D03*
X005627Y004109D03*
X005628Y004109D03*
X005629Y004109D03*
X005630Y004109D03*
X005630Y004109D03*
X005631Y004109D03*
X005632Y004109D03*
X005633Y004109D03*
X005634Y004109D03*
X005634Y004109D03*
X005635Y004109D03*
X005636Y004109D03*
X005637Y004109D03*
X005638Y004109D03*
X005638Y004109D03*
X005639Y004109D03*
X005640Y004109D03*
X005641Y004109D03*
X005642Y004109D03*
X005642Y004109D03*
X005643Y004109D03*
X005644Y004109D03*
X005645Y004109D03*
X005646Y004109D03*
X005646Y004109D03*
X005647Y004109D03*
X005648Y004109D03*
X005649Y004109D03*
X005650Y004109D03*
X005650Y004109D03*
X005651Y004109D03*
X005652Y004109D03*
X005653Y004109D03*
X005654Y004109D03*
X005654Y004109D03*
X005655Y004109D03*
X005656Y004109D03*
X005657Y004109D03*
X005658Y004109D03*
X005658Y004109D03*
X005659Y004109D03*
X005660Y004109D03*
X005661Y004109D03*
X005662Y004109D03*
X005662Y004109D03*
X005663Y004109D03*
X005664Y004109D03*
X005665Y004109D03*
X005666Y004109D03*
X005666Y004109D03*
X005667Y004109D03*
X005668Y004109D03*
X005669Y004109D03*
X005670Y004109D03*
X005670Y004109D03*
X005671Y004109D03*
X005672Y004109D03*
X005673Y004109D03*
X005674Y004109D03*
X005674Y004109D03*
X005675Y004109D03*
X005676Y004109D03*
X005677Y004109D03*
X005678Y004109D03*
X005678Y004109D03*
X005679Y004109D03*
X005680Y004109D03*
X005681Y004109D03*
X005682Y004109D03*
X005682Y004109D03*
X005683Y004109D03*
X005684Y004109D03*
X005685Y004109D03*
X005686Y004109D03*
X005686Y004109D03*
X005687Y004109D03*
X005688Y004109D03*
X005689Y004109D03*
X005690Y004109D03*
X005690Y004109D03*
X005691Y004109D03*
X005692Y004109D03*
X005693Y004109D03*
X005694Y004109D03*
X005694Y004109D03*
X005695Y004109D03*
X005696Y004109D03*
X005697Y004109D03*
X005698Y004109D03*
X005698Y004109D03*
X005699Y004109D03*
X005700Y004109D03*
X005701Y004109D03*
X005702Y004109D03*
X005702Y004109D03*
X005703Y004109D03*
X005704Y004109D03*
X005705Y004109D03*
X005706Y004109D03*
X005706Y004109D03*
X005707Y004109D03*
X005708Y004109D03*
X005709Y004109D03*
X005710Y004109D03*
X005710Y004109D03*
X005711Y004109D03*
X005712Y004109D03*
X005713Y004109D03*
X005714Y004109D03*
X005714Y004109D03*
X005715Y004109D03*
X005716Y004109D03*
X005717Y004109D03*
X005718Y004109D03*
X005718Y004109D03*
X005719Y004109D03*
X005720Y004109D03*
X005721Y004109D03*
X005722Y004109D03*
X005722Y004109D03*
X005723Y004109D03*
X005724Y004109D03*
X005725Y004109D03*
X005726Y004109D03*
X005726Y004109D03*
X005727Y004109D03*
X005728Y004109D03*
X005729Y004109D03*
X005730Y004109D03*
X005730Y004109D03*
X005731Y004109D03*
X005732Y004109D03*
X005733Y004109D03*
X005734Y004109D03*
X005734Y004109D03*
X005735Y004109D03*
X005736Y004109D03*
X005737Y004109D03*
X005738Y004109D03*
X005738Y004109D03*
X005739Y004109D03*
X005740Y004109D03*
X005741Y004109D03*
X005742Y004109D03*
X005742Y004109D03*
X005743Y004109D03*
X005744Y004109D03*
X005745Y004109D03*
X005746Y004109D03*
X005417Y004109D03*
X005416Y004109D03*
X005415Y004109D03*
X005414Y004109D03*
D60*
X005398Y004109D03*
X005402Y003122D03*
D61*
X005399Y003122D03*
D62*
X005397Y003122D03*
X005392Y004109D03*
D63*
X005396Y003122D03*
D64*
X005395Y003122D03*
D65*
X005394Y003122D03*
D66*
X005394Y003122D03*
D67*
X005393Y003122D03*
D68*
X005391Y003122D03*
D69*
X005390Y003122D03*
D70*
X005390Y003122D03*
D71*
X005389Y003122D03*
D72*
X005388Y003122D03*
D73*
X005387Y003122D03*
D74*
X005387Y004109D03*
D75*
X005386Y003122D03*
D76*
X005386Y003122D03*
D77*
X005385Y003122D03*
D78*
X005384Y003122D03*
D79*
X005383Y003122D03*
D80*
X005382Y003124D03*
D81*
X005382Y003124D03*
X005381Y003124D03*
X005380Y003124D03*
X005379Y003124D03*
D82*
X005378Y003124D03*
X005378Y003124D03*
X005377Y003124D03*
D83*
X005378Y004109D03*
D84*
X005377Y004115D03*
X005376Y004115D03*
X005375Y004115D03*
X005374Y004115D03*
X005283Y003110D03*
X005282Y003110D03*
X005282Y003110D03*
D85*
X005374Y003123D03*
X005374Y003123D03*
X005375Y003123D03*
X005376Y003123D03*
D86*
X005281Y003109D03*
X005280Y003109D03*
X005279Y003109D03*
X005278Y003109D03*
X005371Y004116D03*
X005372Y004116D03*
X005373Y004116D03*
X005374Y004116D03*
D87*
X005373Y003123D03*
X005372Y003123D03*
X005371Y003123D03*
D88*
X005370Y003122D03*
X005370Y003122D03*
X005369Y003122D03*
D89*
X005278Y003109D03*
X005277Y003109D03*
X005276Y003109D03*
X005368Y004116D03*
X005369Y004116D03*
X005370Y004116D03*
X005370Y004116D03*
D90*
X005368Y003122D03*
X005367Y003122D03*
X005366Y003122D03*
X005366Y003122D03*
D91*
X005275Y003108D03*
X005274Y003108D03*
X005274Y003108D03*
X005365Y004116D03*
X005366Y004116D03*
X005366Y004116D03*
X005367Y004116D03*
D92*
X005365Y003122D03*
X005364Y003122D03*
X005363Y003122D03*
D93*
X005273Y003108D03*
X005272Y003108D03*
X005271Y003108D03*
X005270Y003108D03*
X005361Y004117D03*
X005362Y004117D03*
X005362Y004117D03*
X005363Y004117D03*
X005364Y004117D03*
D94*
X005362Y003121D03*
X005362Y003121D03*
X005361Y003121D03*
X005360Y003121D03*
D95*
X005359Y004117D03*
X005358Y004117D03*
X005358Y004117D03*
X005360Y004117D03*
D96*
X005359Y003121D03*
X005358Y003121D03*
X005358Y003121D03*
D97*
X005357Y003120D03*
X005356Y003120D03*
X005355Y003120D03*
D98*
X005267Y003107D03*
X005266Y003107D03*
X005266Y003107D03*
X005265Y003107D03*
X005354Y004118D03*
X005355Y004118D03*
X005356Y004118D03*
X005357Y004118D03*
D99*
X005354Y003120D03*
X005354Y003120D03*
X005353Y003120D03*
X005352Y003120D03*
D100*
X005264Y003107D03*
X005263Y003107D03*
X005262Y003107D03*
X005351Y004118D03*
X005352Y004118D03*
X005353Y004118D03*
X005354Y004118D03*
D101*
X005351Y003120D03*
X005350Y003120D03*
X005350Y003120D03*
D102*
X005262Y003106D03*
X005261Y003106D03*
X005260Y003106D03*
X005348Y004118D03*
X005349Y004118D03*
X005350Y004118D03*
X005350Y004118D03*
D103*
X005349Y003119D03*
X005348Y003119D03*
X005347Y003119D03*
X005346Y003119D03*
D104*
X005259Y003106D03*
X005258Y003106D03*
X005258Y003106D03*
X005257Y003106D03*
X005345Y004119D03*
X005346Y004119D03*
X005346Y004119D03*
X005347Y004119D03*
D105*
X005346Y003119D03*
X005345Y003119D03*
X005344Y003119D03*
D106*
X005256Y003106D03*
X005255Y003106D03*
X005254Y003106D03*
X005341Y004119D03*
X005342Y004119D03*
X005342Y004119D03*
X005343Y004119D03*
X005344Y004119D03*
D107*
X005343Y003118D03*
X005342Y003118D03*
X005342Y003118D03*
D108*
X005341Y003118D03*
X005340Y003118D03*
X005339Y003118D03*
X005338Y003118D03*
D109*
X005254Y003105D03*
X005253Y003105D03*
X005252Y003105D03*
X005251Y003105D03*
X005338Y004120D03*
X005338Y004120D03*
X005339Y004120D03*
X005340Y004120D03*
D110*
X005338Y003118D03*
X005337Y003118D03*
X005336Y003118D03*
D111*
X005250Y003105D03*
X005250Y003105D03*
X005249Y003105D03*
X005334Y004120D03*
X005335Y004120D03*
X005336Y004120D03*
X005337Y004120D03*
D112*
X005335Y003117D03*
X005334Y003117D03*
X005334Y003117D03*
X005333Y003117D03*
D113*
X005332Y004120D03*
X005333Y004120D03*
X005334Y004120D03*
X005331Y004120D03*
D114*
X005330Y003117D03*
X005331Y003117D03*
X005332Y003117D03*
D115*
X005246Y003104D03*
X005245Y003104D03*
X005244Y003104D03*
X005243Y003104D03*
X005328Y004121D03*
X005329Y004121D03*
X005330Y004121D03*
X005330Y004121D03*
D116*
X005329Y003116D03*
X005330Y003116D03*
X005328Y003116D03*
D117*
X005327Y003116D03*
X005326Y003116D03*
X005326Y003116D03*
X005325Y003116D03*
D118*
X005242Y003104D03*
X005242Y003104D03*
X005241Y003104D03*
X005325Y004121D03*
X005326Y004121D03*
X005326Y004121D03*
X005327Y004121D03*
D119*
X005324Y003116D03*
X005323Y003116D03*
X005322Y003116D03*
D120*
X005240Y003103D03*
X005239Y003103D03*
X005238Y003103D03*
X005238Y003103D03*
X005321Y004122D03*
X005322Y004122D03*
X005322Y004122D03*
X005323Y004122D03*
X005324Y004122D03*
D121*
X005322Y003115D03*
X005321Y003115D03*
X005320Y003115D03*
X005319Y003115D03*
D122*
X005237Y003103D03*
X005236Y003103D03*
X005235Y003103D03*
X005318Y004122D03*
X005318Y004122D03*
X005319Y004122D03*
X005320Y004122D03*
D123*
X005318Y003115D03*
X005318Y003115D03*
X005317Y003115D03*
D124*
X005234Y003102D03*
X005234Y003102D03*
X005233Y003102D03*
X005314Y004122D03*
X005315Y004122D03*
X005316Y004122D03*
X005317Y004122D03*
D125*
X005316Y003114D03*
X005315Y003114D03*
X005314Y003114D03*
D126*
X005314Y003114D03*
X005313Y003114D03*
X005312Y003114D03*
X005311Y003114D03*
D127*
X005232Y003102D03*
X005231Y003102D03*
X005230Y003102D03*
X005230Y003102D03*
X005311Y004123D03*
X005312Y004123D03*
X005313Y004123D03*
X005314Y004123D03*
D128*
X005310Y003114D03*
X005310Y003114D03*
X005309Y003114D03*
D129*
X005229Y003102D03*
X005228Y003102D03*
X005227Y003102D03*
X005308Y004123D03*
X005309Y004123D03*
X005310Y004123D03*
X005310Y004123D03*
D130*
X005308Y003113D03*
X005307Y003113D03*
X005306Y003113D03*
X005306Y003113D03*
D131*
X005226Y003101D03*
X005226Y003101D03*
X005225Y003101D03*
X005224Y003101D03*
X005305Y004124D03*
X005306Y004124D03*
X005306Y004124D03*
X005307Y004124D03*
D132*
X005305Y003113D03*
X005304Y003113D03*
X005303Y003113D03*
D133*
X005223Y003101D03*
X005222Y003101D03*
X005222Y003101D03*
X005301Y004124D03*
X005302Y004124D03*
X005302Y004124D03*
X005303Y004124D03*
X005304Y004124D03*
D134*
X005302Y003112D03*
X005302Y003112D03*
X005301Y003112D03*
D135*
X005300Y003112D03*
X005299Y003112D03*
X005298Y003112D03*
X005298Y003112D03*
D136*
X005221Y003100D03*
X005220Y003100D03*
X005219Y003100D03*
X005298Y004124D03*
X005298Y004124D03*
X005299Y004124D03*
X005300Y004124D03*
D137*
X005297Y003112D03*
X005296Y003112D03*
X005295Y003112D03*
D138*
X005218Y003100D03*
X005218Y003100D03*
X005217Y003100D03*
X005216Y003100D03*
X005294Y004125D03*
X005295Y004125D03*
X005296Y004125D03*
X005297Y004125D03*
D139*
X005294Y003111D03*
X005294Y003111D03*
X005293Y003111D03*
X005292Y003111D03*
D140*
X005215Y003100D03*
X005214Y003100D03*
X005214Y003100D03*
X005291Y004125D03*
X005292Y004125D03*
X005293Y004125D03*
X005294Y004125D03*
D141*
X005291Y003111D03*
X005290Y003111D03*
X005290Y003111D03*
D142*
X005213Y003099D03*
X005212Y003099D03*
X005211Y003099D03*
X005210Y003099D03*
X005288Y004126D03*
X005289Y004126D03*
X005290Y004126D03*
X005290Y004126D03*
D143*
X005289Y003110D03*
X005288Y003110D03*
X005287Y003110D03*
D144*
X005210Y003099D03*
X005209Y003099D03*
X005208Y003099D03*
X005285Y004126D03*
X005286Y004126D03*
X005286Y004126D03*
X005287Y004126D03*
D145*
X005286Y003110D03*
X005286Y003110D03*
X005285Y003110D03*
X005284Y003110D03*
D146*
X005207Y003098D03*
X005206Y003098D03*
X005206Y003098D03*
X005205Y003098D03*
X005281Y004126D03*
X005282Y004126D03*
X005282Y004126D03*
X005283Y004126D03*
X005284Y004126D03*
D147*
X005280Y004127D03*
X005279Y004127D03*
X005278Y004127D03*
X005278Y004127D03*
X005204Y003098D03*
X005203Y003098D03*
X005202Y003098D03*
D148*
X005274Y004127D03*
X005275Y004127D03*
X005276Y004127D03*
X005277Y004127D03*
D149*
X005274Y004128D03*
X005273Y004128D03*
X005272Y004128D03*
X005271Y004128D03*
X005199Y003097D03*
X005198Y003097D03*
X005198Y003097D03*
X005197Y003097D03*
D150*
X005196Y003097D03*
X005195Y003097D03*
X005194Y003097D03*
X005268Y004128D03*
X005269Y004128D03*
X005270Y004128D03*
X005270Y004128D03*
D151*
X005269Y003108D03*
X005270Y003108D03*
X005268Y003108D03*
D152*
X005194Y003096D03*
X005193Y003096D03*
X005192Y003096D03*
X005191Y003096D03*
X005265Y004128D03*
X005266Y004128D03*
X005266Y004128D03*
X005267Y004128D03*
D153*
X005264Y004129D03*
X005263Y004129D03*
X005262Y004129D03*
X005262Y004129D03*
X005261Y004129D03*
X005190Y003096D03*
X005190Y003096D03*
X005189Y003096D03*
D154*
X005188Y003096D03*
X005187Y003096D03*
X005186Y003096D03*
X005258Y004129D03*
X005258Y004129D03*
X005259Y004129D03*
X005260Y004129D03*
D155*
X005257Y004130D03*
X005256Y004130D03*
X005255Y004130D03*
X005254Y004130D03*
X005186Y003095D03*
X005185Y003095D03*
X005184Y003095D03*
X005183Y003095D03*
D156*
X005182Y003095D03*
X005182Y003095D03*
X005181Y003095D03*
X005251Y004130D03*
X005252Y004130D03*
X005253Y004130D03*
X005254Y004130D03*
D157*
X005250Y004130D03*
X005250Y004130D03*
X005249Y004130D03*
X005248Y004130D03*
D158*
X005247Y003104D03*
X005246Y003104D03*
X005248Y003104D03*
D159*
X005177Y003094D03*
X005176Y003094D03*
X005175Y003094D03*
X005245Y004131D03*
X005246Y004131D03*
X005246Y004131D03*
X005247Y004131D03*
D160*
X005244Y004131D03*
X005243Y004131D03*
X005242Y004131D03*
X005242Y004131D03*
X005241Y004131D03*
X005174Y003094D03*
X005174Y003094D03*
X005173Y003094D03*
D161*
X005172Y003093D03*
X005171Y003093D03*
X005170Y003093D03*
X005170Y003093D03*
X005238Y004132D03*
X005238Y004132D03*
X005239Y004132D03*
X005240Y004132D03*
D162*
X005237Y004132D03*
X005236Y004132D03*
X005235Y004132D03*
X005234Y004132D03*
X005169Y003093D03*
X005168Y003093D03*
X005167Y003093D03*
D163*
X005166Y003092D03*
X005166Y003092D03*
X005165Y003092D03*
X005164Y003092D03*
X005231Y004132D03*
X005232Y004132D03*
X005233Y004132D03*
X005234Y004132D03*
D164*
X005230Y004133D03*
X005230Y004133D03*
X005229Y004133D03*
X005228Y004133D03*
X005163Y003092D03*
X005162Y003092D03*
X005162Y003092D03*
D165*
X005161Y003092D03*
X005160Y003092D03*
X005159Y003092D03*
X005225Y004133D03*
X005226Y004133D03*
X005226Y004133D03*
X005227Y004133D03*
D166*
X005224Y004134D03*
X005223Y004134D03*
X005222Y004134D03*
X005222Y004134D03*
X005221Y004134D03*
X005158Y003091D03*
X005158Y003091D03*
X005157Y003091D03*
X005156Y003091D03*
D167*
X005155Y003091D03*
X005154Y003091D03*
X005154Y003091D03*
X005218Y004134D03*
X005218Y004134D03*
X005219Y004134D03*
X005220Y004134D03*
D168*
X005217Y004134D03*
X005216Y004134D03*
X005215Y004134D03*
X005214Y004134D03*
X005153Y003090D03*
X005152Y003090D03*
X005151Y003090D03*
X005150Y003090D03*
D169*
X005150Y003090D03*
X005149Y003090D03*
X005148Y003090D03*
X005211Y004135D03*
X005212Y004135D03*
X005213Y004135D03*
X005214Y004135D03*
D170*
X005210Y004135D03*
X005210Y004135D03*
X005209Y004135D03*
X005208Y004135D03*
X005147Y003090D03*
X005146Y003090D03*
X005146Y003090D03*
D171*
X005145Y003089D03*
X005144Y003089D03*
X005143Y003089D03*
X005142Y003089D03*
X005205Y004136D03*
X005206Y004136D03*
X005206Y004136D03*
X005207Y004136D03*
D172*
X005204Y004136D03*
X005203Y004136D03*
X005202Y004136D03*
X005202Y004136D03*
X005201Y004136D03*
X005142Y003089D03*
X005141Y003089D03*
X005140Y003089D03*
D173*
X005200Y003098D03*
X005201Y003098D03*
X005202Y003098D03*
D174*
X005139Y003088D03*
X005138Y003088D03*
X005138Y003088D03*
X005137Y003088D03*
X005198Y004136D03*
X005198Y004136D03*
X005199Y004136D03*
X005200Y004136D03*
D175*
X005197Y004137D03*
X005196Y004137D03*
X005195Y004137D03*
X005194Y004137D03*
X005136Y003088D03*
X005135Y003088D03*
X005134Y003088D03*
D176*
X005191Y004137D03*
X005192Y004137D03*
X005193Y004137D03*
X005194Y004137D03*
D177*
X005190Y004138D03*
X005190Y004138D03*
X005189Y004138D03*
X005188Y004138D03*
X005131Y003087D03*
X005130Y003087D03*
X005130Y003087D03*
X005129Y003087D03*
D178*
X005128Y003087D03*
X005127Y003087D03*
X005126Y003087D03*
X005185Y004138D03*
X005186Y004138D03*
X005186Y004138D03*
X005187Y004138D03*
D179*
X005184Y004138D03*
X005183Y004138D03*
X005182Y004138D03*
X005182Y004138D03*
X005181Y004138D03*
X005126Y003086D03*
X005125Y003086D03*
X005124Y003086D03*
X005123Y003086D03*
D180*
X005178Y003094D03*
X005178Y003094D03*
X005179Y003094D03*
X005180Y003094D03*
D181*
X005122Y003086D03*
X005122Y003086D03*
X005121Y003086D03*
X005178Y004139D03*
X005178Y004139D03*
X005179Y004139D03*
X005180Y004139D03*
D182*
X005177Y004139D03*
X005176Y004139D03*
X005175Y004139D03*
X005174Y004139D03*
X005120Y003086D03*
X005119Y003086D03*
X005118Y003086D03*
D183*
X005118Y003085D03*
X005117Y003085D03*
X005116Y003085D03*
X005115Y003085D03*
X005171Y004140D03*
X005172Y004140D03*
X005173Y004140D03*
X005174Y004140D03*
D184*
X005170Y004140D03*
X005170Y004140D03*
X005169Y004140D03*
X005168Y004140D03*
X005114Y003085D03*
X005114Y003085D03*
X005113Y003085D03*
D185*
X005165Y004140D03*
X005166Y004140D03*
X005166Y004140D03*
X005167Y004140D03*
D186*
X005164Y004141D03*
X005163Y004141D03*
X005162Y004141D03*
X005162Y004141D03*
X005161Y004141D03*
X005109Y003084D03*
X005108Y003084D03*
X005107Y003084D03*
D187*
X005106Y003084D03*
X005106Y003084D03*
X005105Y003084D03*
X005158Y004141D03*
X005158Y004141D03*
X005159Y004141D03*
X005160Y004141D03*
D188*
X005157Y004142D03*
X005156Y004142D03*
X005155Y004142D03*
X005154Y004142D03*
X005104Y003083D03*
X005103Y003083D03*
X005102Y003083D03*
X005102Y003083D03*
D189*
X005101Y003083D03*
X005100Y003083D03*
X005099Y003083D03*
X005151Y004142D03*
X005152Y004142D03*
X005153Y004142D03*
X005154Y004142D03*
D190*
X005150Y004142D03*
X005150Y004142D03*
X005149Y004142D03*
X005148Y004142D03*
X005098Y003082D03*
X005098Y003082D03*
X005097Y003082D03*
X005096Y003082D03*
D191*
X005095Y003082D03*
X005094Y003082D03*
X005094Y003082D03*
X005145Y004143D03*
X005146Y004143D03*
X005146Y004143D03*
X005147Y004143D03*
D192*
X005144Y004143D03*
X005143Y004143D03*
X005142Y004143D03*
X005142Y004143D03*
X005141Y004143D03*
X005093Y003082D03*
X005092Y003082D03*
X005091Y003082D03*
D193*
X005090Y003081D03*
X005090Y003081D03*
X005089Y003081D03*
X005088Y003081D03*
X005138Y004144D03*
X005138Y004144D03*
X005139Y004144D03*
X005140Y004144D03*
D194*
X005137Y004144D03*
X005136Y004144D03*
X005135Y004144D03*
X005134Y004144D03*
X005087Y003081D03*
X005086Y003081D03*
X005086Y003081D03*
D195*
X005132Y003088D03*
X005133Y003088D03*
X005134Y003088D03*
D196*
X005085Y003080D03*
X005084Y003080D03*
X005083Y003080D03*
X005082Y003080D03*
X005131Y004144D03*
X005132Y004144D03*
X005133Y004144D03*
X005134Y004144D03*
D197*
X005130Y004145D03*
X005130Y004145D03*
X005129Y004145D03*
X005128Y004145D03*
X005082Y003080D03*
X005081Y003080D03*
X005080Y003080D03*
D198*
X005079Y003080D03*
X005078Y003080D03*
X005078Y003080D03*
X005125Y004145D03*
X005126Y004145D03*
X005126Y004145D03*
X005127Y004145D03*
D199*
X005124Y004146D03*
X005123Y004146D03*
X005122Y004146D03*
X005122Y004146D03*
X005121Y004146D03*
X005077Y003079D03*
X005076Y003079D03*
X005075Y003079D03*
X005074Y003079D03*
D200*
X005074Y003079D03*
X005073Y003079D03*
X005072Y003079D03*
X005118Y004146D03*
X005118Y004146D03*
X005119Y004146D03*
X005120Y004146D03*
D201*
X005117Y004146D03*
X005116Y004146D03*
X005115Y004146D03*
X005114Y004146D03*
X005071Y003078D03*
X005070Y003078D03*
X005070Y003078D03*
X005069Y003078D03*
D202*
X005068Y003078D03*
X005067Y003078D03*
X005066Y003078D03*
X005111Y004147D03*
X005112Y004147D03*
X005113Y004147D03*
X005114Y004147D03*
D203*
X005112Y003084D03*
X005111Y003084D03*
X005110Y003084D03*
X005110Y003084D03*
D204*
X005109Y004147D03*
X005110Y004147D03*
X005110Y004147D03*
X005108Y004147D03*
D205*
X005107Y004148D03*
X005106Y004148D03*
X005106Y004148D03*
X005105Y004148D03*
X005063Y003077D03*
X005062Y003077D03*
X005062Y003077D03*
X005061Y003077D03*
D206*
X005060Y003077D03*
X005059Y003077D03*
X005058Y003077D03*
X005101Y004148D03*
X005102Y004148D03*
X005102Y004148D03*
X005103Y004148D03*
X005104Y004148D03*
D207*
X005100Y004148D03*
X005099Y004148D03*
X005098Y004148D03*
X005098Y004148D03*
X005058Y003076D03*
X005057Y003076D03*
X005056Y003076D03*
X005055Y003076D03*
D208*
X005054Y003076D03*
X005054Y003076D03*
X005053Y003076D03*
X005094Y004149D03*
X005095Y004149D03*
X005096Y004149D03*
X005097Y004149D03*
D209*
X005094Y004149D03*
X005093Y004149D03*
X005092Y004149D03*
X005091Y004149D03*
X005052Y003076D03*
X005051Y003076D03*
X005050Y003076D03*
D210*
X005050Y003075D03*
X005049Y003075D03*
X005048Y003075D03*
X005047Y003075D03*
X005088Y004150D03*
X005089Y004150D03*
X005090Y004150D03*
X005090Y004150D03*
D211*
X005087Y004150D03*
X005086Y004150D03*
X005086Y004150D03*
X005085Y004150D03*
X005046Y003075D03*
X005046Y003075D03*
X005045Y003075D03*
D212*
X005081Y004150D03*
X005082Y004150D03*
X005082Y004150D03*
X005083Y004150D03*
X005084Y004150D03*
D213*
X005080Y004151D03*
X005079Y004151D03*
X005078Y004151D03*
X005078Y004151D03*
X005041Y003074D03*
X005040Y003074D03*
X005039Y003074D03*
D214*
X005038Y003074D03*
X005038Y003074D03*
X005037Y003074D03*
X005074Y004151D03*
X005075Y004151D03*
X005076Y004151D03*
X005077Y004151D03*
D215*
X005074Y004152D03*
X005073Y004152D03*
X005072Y004152D03*
X005071Y004152D03*
X005036Y003073D03*
X005035Y003073D03*
X005034Y003073D03*
X005034Y003073D03*
D216*
X005033Y003073D03*
X005032Y003073D03*
X005031Y003073D03*
X005068Y004152D03*
X005069Y004152D03*
X005070Y004152D03*
X005070Y004152D03*
D217*
X005067Y004152D03*
X005066Y004152D03*
X005066Y004152D03*
X005065Y004152D03*
X005030Y003072D03*
X005030Y003072D03*
X005029Y003072D03*
X005028Y003072D03*
D218*
X005064Y003078D03*
X005065Y003078D03*
X005066Y003078D03*
D219*
X005027Y003072D03*
X005026Y003072D03*
X005026Y003072D03*
X005061Y004153D03*
X005062Y004153D03*
X005062Y004153D03*
X005063Y004153D03*
X005064Y004153D03*
D220*
X005060Y004153D03*
X005059Y004153D03*
X005058Y004153D03*
X005058Y004153D03*
X005025Y003072D03*
X005024Y003072D03*
X005023Y003072D03*
D221*
X005022Y003071D03*
X005022Y003071D03*
X005021Y003071D03*
X005020Y003071D03*
X005054Y004154D03*
X005055Y004154D03*
X005056Y004154D03*
X005057Y004154D03*
D222*
X005054Y004154D03*
X005053Y004154D03*
X005052Y004154D03*
X005051Y004154D03*
X005019Y003071D03*
X005018Y003071D03*
X005018Y003071D03*
D223*
X005017Y003070D03*
X005016Y003070D03*
X005015Y003070D03*
X005014Y003070D03*
X005048Y004154D03*
X005049Y004154D03*
X005050Y004154D03*
X005050Y004154D03*
D224*
X005047Y004155D03*
X005046Y004155D03*
X005046Y004155D03*
X005045Y004155D03*
X005014Y003070D03*
X005013Y003070D03*
X005012Y003070D03*
D225*
X005042Y003074D03*
X005042Y003074D03*
X005043Y003074D03*
X005044Y003074D03*
D226*
X005011Y003070D03*
X005010Y003070D03*
X005010Y003070D03*
X005041Y004155D03*
X005042Y004155D03*
X005042Y004155D03*
X005043Y004155D03*
X005044Y004155D03*
D227*
X005040Y004156D03*
X005039Y004156D03*
X005038Y004156D03*
X005038Y004156D03*
X005009Y003069D03*
X005008Y003069D03*
X005007Y003069D03*
X005006Y003069D03*
D228*
X005006Y003069D03*
X005005Y003069D03*
X005004Y003069D03*
X005034Y004156D03*
X005035Y004156D03*
X005036Y004156D03*
X005037Y004156D03*
D229*
X005034Y004156D03*
X005033Y004156D03*
X005032Y004156D03*
X005031Y004156D03*
X005003Y003068D03*
X005002Y003068D03*
X005002Y003068D03*
X005001Y003068D03*
D230*
X005000Y003068D03*
X004999Y003068D03*
X004998Y003068D03*
X005028Y004157D03*
X005029Y004157D03*
X005030Y004157D03*
X005030Y004157D03*
D231*
X005027Y004157D03*
X005026Y004157D03*
X005026Y004157D03*
X005025Y004157D03*
D232*
X005024Y004158D03*
X005023Y004158D03*
X005022Y004158D03*
X005022Y004158D03*
X005021Y004158D03*
X004995Y003067D03*
X004994Y003067D03*
X004994Y003067D03*
X004993Y003067D03*
D233*
X004992Y003067D03*
X004991Y003067D03*
X004990Y003067D03*
X005018Y004158D03*
X005018Y004158D03*
X005019Y004158D03*
X005020Y004158D03*
D234*
X005017Y004158D03*
X005016Y004158D03*
X005015Y004158D03*
X005014Y004158D03*
X004990Y003066D03*
X004989Y003066D03*
X004988Y003066D03*
X004987Y003066D03*
D235*
X004986Y003066D03*
X004986Y003066D03*
X004985Y003066D03*
X005011Y004159D03*
X005012Y004159D03*
X005013Y004159D03*
X005014Y004159D03*
D236*
X005010Y004159D03*
X005010Y004159D03*
X005009Y004159D03*
X005008Y004159D03*
X004984Y003066D03*
X004983Y003066D03*
X004982Y003066D03*
D237*
X004982Y003065D03*
X004981Y003065D03*
X004980Y003065D03*
X004979Y003065D03*
X005005Y004160D03*
X005006Y004160D03*
X005006Y004160D03*
X005007Y004160D03*
D238*
X005004Y004160D03*
X005003Y004160D03*
X005002Y004160D03*
X005002Y004160D03*
X005001Y004160D03*
X004978Y003065D03*
X004978Y003065D03*
X004977Y003065D03*
D239*
X004998Y004160D03*
X004998Y004160D03*
X004999Y004160D03*
X005000Y004160D03*
D240*
X004998Y003068D03*
X004997Y003068D03*
X004996Y003068D03*
D241*
X004973Y003064D03*
X004972Y003064D03*
X004971Y003064D03*
X004994Y004161D03*
X004995Y004161D03*
X004996Y004161D03*
X004997Y004161D03*
D242*
X004994Y004161D03*
X004993Y004161D03*
X004992Y004161D03*
X004991Y004161D03*
X004970Y003064D03*
X004970Y003064D03*
X004969Y003064D03*
D243*
X004968Y003063D03*
X004967Y003063D03*
X004966Y003063D03*
X004966Y003063D03*
X004988Y004162D03*
X004989Y004162D03*
X004990Y004162D03*
X004990Y004162D03*
D244*
X004987Y004162D03*
X004986Y004162D03*
X004986Y004162D03*
X004985Y004162D03*
X004965Y003063D03*
X004964Y003063D03*
X004963Y003063D03*
D245*
X004962Y003062D03*
X004962Y003062D03*
X004961Y003062D03*
X004960Y003062D03*
X004981Y004162D03*
X004982Y004162D03*
X004982Y004162D03*
X004983Y004162D03*
X004984Y004162D03*
D246*
X004980Y004163D03*
X004979Y004163D03*
X004978Y004163D03*
X004978Y004163D03*
X004959Y003062D03*
X004958Y003062D03*
X004958Y003062D03*
D247*
X004957Y003062D03*
X004956Y003062D03*
X004955Y003062D03*
X004974Y004163D03*
X004975Y004163D03*
X004976Y004163D03*
X004977Y004163D03*
D248*
X004976Y003064D03*
X004975Y003064D03*
X004974Y003064D03*
X004974Y003064D03*
D249*
X004954Y003061D03*
X004954Y003061D03*
X004953Y003061D03*
X004952Y003061D03*
X004971Y004164D03*
X004972Y004164D03*
X004973Y004164D03*
X004974Y004164D03*
D250*
X004970Y004164D03*
X004970Y004164D03*
X004969Y004164D03*
X004968Y004164D03*
X004951Y003061D03*
X004950Y003061D03*
X004950Y003061D03*
D251*
X004949Y003060D03*
X004948Y003060D03*
X004947Y003060D03*
X004946Y003060D03*
X004965Y004164D03*
X004966Y004164D03*
X004966Y004164D03*
X004967Y004164D03*
D252*
X004964Y004165D03*
X004963Y004165D03*
X004962Y004165D03*
X004962Y004165D03*
X004961Y004165D03*
X004946Y003060D03*
X004945Y003060D03*
X004944Y003060D03*
D253*
X004943Y003060D03*
X004942Y003060D03*
X004942Y003060D03*
X004958Y004165D03*
X004958Y004165D03*
X004959Y004165D03*
X004960Y004165D03*
D254*
X004957Y004166D03*
X004956Y004166D03*
X004955Y004166D03*
X004954Y004166D03*
X004941Y003059D03*
X004940Y003059D03*
X004939Y003059D03*
X004938Y003059D03*
D255*
X004938Y003059D03*
X004937Y003059D03*
X004936Y003059D03*
X004951Y004166D03*
X004952Y004166D03*
X004953Y004166D03*
X004954Y004166D03*
D256*
X004950Y004166D03*
X004950Y004166D03*
X004949Y004166D03*
X004948Y004166D03*
X004935Y003058D03*
X004934Y003058D03*
X004934Y003058D03*
X004933Y003058D03*
D257*
X004932Y003058D03*
X004931Y003058D03*
X004930Y003058D03*
X004945Y004167D03*
X004946Y004167D03*
X004946Y004167D03*
X004947Y004167D03*
D258*
X004944Y004167D03*
X004943Y004167D03*
X004942Y004167D03*
X004942Y004167D03*
X004941Y004167D03*
D259*
X004940Y004168D03*
X004939Y004168D03*
X004938Y004168D03*
X004938Y004168D03*
X004927Y003057D03*
X004926Y003057D03*
X004926Y003057D03*
X004925Y003057D03*
D260*
X004924Y003057D03*
X004923Y003057D03*
X004922Y003057D03*
X004934Y004168D03*
X004935Y004168D03*
X004936Y004168D03*
X004937Y004168D03*
D261*
X004934Y004168D03*
X004933Y004168D03*
X004932Y004168D03*
X004931Y004168D03*
X004922Y003056D03*
X004921Y003056D03*
X004920Y003056D03*
X004919Y003056D03*
D262*
X004918Y003056D03*
X004918Y003056D03*
X004917Y003056D03*
X004928Y004169D03*
X004929Y004169D03*
X004930Y004169D03*
X004930Y004169D03*
D263*
X004929Y003058D03*
X004930Y003058D03*
X004928Y003058D03*
D264*
X004916Y003056D03*
X004915Y003056D03*
X004914Y003056D03*
X004925Y004169D03*
X004926Y004169D03*
X004926Y004169D03*
X004927Y004169D03*
D265*
X004924Y004170D03*
X004923Y004170D03*
X004922Y004170D03*
X004922Y004170D03*
X004921Y004170D03*
X004914Y003055D03*
X004913Y003055D03*
X004912Y003055D03*
X004911Y003055D03*
D266*
X004910Y003055D03*
X004910Y003055D03*
X004909Y003055D03*
X004918Y004170D03*
X004918Y004170D03*
X004919Y004170D03*
X004920Y004170D03*
D267*
X004917Y004170D03*
X004916Y004170D03*
X004915Y004170D03*
X004914Y004170D03*
D268*
X004914Y004171D03*
X004913Y004171D03*
X004912Y004171D03*
X004911Y004171D03*
X004905Y003054D03*
X004904Y003054D03*
X004903Y003054D03*
D269*
X004902Y003054D03*
X004902Y003054D03*
X004901Y003054D03*
X004908Y004171D03*
X004909Y004171D03*
X004910Y004171D03*
X004910Y004171D03*
D270*
X004908Y003054D03*
X004907Y003054D03*
X004906Y003054D03*
X004906Y003054D03*
D271*
X004900Y003053D03*
X004899Y003053D03*
X004898Y003053D03*
X004898Y003053D03*
X004905Y004172D03*
X004906Y004172D03*
X004906Y004172D03*
X004907Y004172D03*
D272*
X004904Y004172D03*
X004903Y004172D03*
X004902Y004172D03*
X004902Y004172D03*
X004901Y004172D03*
X004897Y003053D03*
X004896Y003053D03*
X004895Y003053D03*
D273*
X004894Y003052D03*
X004894Y003052D03*
X004893Y003052D03*
X004892Y003052D03*
X004898Y004172D03*
X004898Y004172D03*
X004899Y004172D03*
X004900Y004172D03*
D274*
X004897Y004173D03*
X004896Y004173D03*
X004895Y004173D03*
X004894Y004173D03*
X004891Y003052D03*
X004890Y003052D03*
X004890Y003052D03*
D275*
X004889Y003052D03*
X004888Y003052D03*
X004887Y003052D03*
X004891Y004173D03*
X004892Y004173D03*
X004893Y004173D03*
X004894Y004173D03*
D276*
X004890Y004174D03*
X004890Y004174D03*
X004889Y004174D03*
X004888Y004174D03*
X004886Y003051D03*
X004886Y003051D03*
X004885Y003051D03*
X004884Y003051D03*
D277*
X004883Y003051D03*
X004882Y003051D03*
X004882Y003051D03*
X004885Y004174D03*
X004886Y004174D03*
X004886Y004174D03*
X004887Y004174D03*
D278*
X004884Y004174D03*
X004883Y004174D03*
X004882Y004174D03*
X004882Y004174D03*
X004881Y004174D03*
X004880Y003050D03*
X004881Y003050D03*
X004879Y003050D03*
X004878Y003050D03*
D279*
X004878Y003050D03*
X004877Y003050D03*
X004876Y003050D03*
X004878Y004175D03*
X004878Y004175D03*
X004879Y004175D03*
X004880Y004175D03*
D280*
X004877Y004175D03*
X004876Y004175D03*
X004875Y004175D03*
X004874Y004175D03*
X004874Y003050D03*
X004874Y003050D03*
X004875Y003050D03*
D281*
X004873Y003049D03*
X004872Y003049D03*
X004871Y003049D03*
X004870Y003049D03*
X004871Y004176D03*
X004872Y004176D03*
X004873Y004176D03*
X004874Y004176D03*
D282*
X004870Y004176D03*
X004870Y004176D03*
X004869Y004176D03*
X004868Y004176D03*
X004868Y003049D03*
X004869Y003049D03*
X004870Y003049D03*
D283*
X004867Y003048D03*
X004866Y003048D03*
X004866Y003048D03*
X004865Y003048D03*
X004865Y004176D03*
X004866Y004176D03*
X004866Y004176D03*
X004867Y004176D03*
D284*
X004864Y004177D03*
X004863Y004177D03*
X004862Y004177D03*
X004862Y004177D03*
X004861Y004177D03*
X004862Y003048D03*
X004863Y003048D03*
X004864Y003048D03*
D285*
X004862Y003048D03*
X004861Y003048D03*
X004860Y003048D03*
D286*
X004858Y004177D03*
X004858Y004177D03*
X004859Y004177D03*
X004860Y004177D03*
D287*
X004857Y004178D03*
X004856Y004178D03*
X004855Y004178D03*
X004854Y004178D03*
X004857Y003047D03*
X004858Y003047D03*
X004858Y003047D03*
X004859Y003047D03*
D288*
X004856Y003047D03*
X004855Y003047D03*
X004854Y003047D03*
X004853Y004178D03*
X004854Y004178D03*
X004852Y004178D03*
X004851Y004178D03*
D289*
X004850Y004178D03*
X004850Y004178D03*
X004849Y004178D03*
X004848Y004178D03*
X004851Y003046D03*
X004852Y003046D03*
X004853Y003046D03*
X004854Y003046D03*
D290*
X004850Y003046D03*
X004850Y003046D03*
X004849Y003046D03*
X004847Y004179D03*
X004846Y004179D03*
X004846Y004179D03*
X004845Y004179D03*
D291*
X004844Y004179D03*
X004843Y004179D03*
X004842Y004179D03*
X004842Y004179D03*
X004841Y004179D03*
X004846Y003046D03*
X004847Y003046D03*
X004848Y003046D03*
D292*
X004846Y003045D03*
X004845Y003045D03*
X004844Y003045D03*
X004843Y003045D03*
X004840Y004180D03*
X004839Y004180D03*
X004838Y004180D03*
X004838Y004180D03*
D293*
X004837Y004180D03*
X004836Y004180D03*
X004835Y004180D03*
X004834Y004180D03*
X004841Y003045D03*
X004842Y003045D03*
X004842Y003045D03*
D294*
X004840Y003044D03*
X004839Y003044D03*
X004838Y003044D03*
X004838Y003044D03*
D295*
X004837Y003044D03*
X004836Y003044D03*
X004835Y003044D03*
X004830Y004181D03*
X004830Y004181D03*
X004829Y004181D03*
X004828Y004181D03*
D296*
X004827Y004181D03*
X004826Y004181D03*
X004826Y004181D03*
X004825Y004181D03*
X004833Y003044D03*
X004834Y003044D03*
X004834Y003044D03*
D297*
X004833Y004180D03*
X004834Y004180D03*
X004832Y004180D03*
X004831Y004180D03*
D298*
X004824Y004182D03*
X004823Y004182D03*
X004822Y004182D03*
X004822Y004182D03*
X004821Y004182D03*
X004830Y003043D03*
X004830Y003043D03*
X004831Y003043D03*
X004832Y003043D03*
D299*
X004829Y003043D03*
X004828Y003043D03*
X004827Y003043D03*
X004820Y004182D03*
X004819Y004182D03*
X004818Y004182D03*
X004818Y004182D03*
D300*
X004817Y004182D03*
X004816Y004182D03*
X004815Y004182D03*
X004814Y004182D03*
X004824Y003042D03*
X004825Y003042D03*
X004826Y003042D03*
X004826Y003042D03*
D301*
X004823Y003042D03*
X004822Y003042D03*
X004822Y003042D03*
X004814Y004183D03*
X004813Y004183D03*
X004812Y004183D03*
X004811Y004183D03*
D302*
X004810Y004183D03*
X004810Y004183D03*
X004809Y004183D03*
X004808Y004183D03*
X004819Y003042D03*
X004820Y003042D03*
X004821Y003042D03*
D303*
X004818Y003041D03*
X004818Y003041D03*
X004817Y003041D03*
X004816Y003041D03*
X004807Y004184D03*
X004806Y004184D03*
X004806Y004184D03*
X004805Y004184D03*
D304*
X004804Y004184D03*
X004803Y004184D03*
X004802Y004184D03*
X004802Y004184D03*
X004801Y004184D03*
X004814Y003041D03*
X004814Y003041D03*
X004815Y003041D03*
D305*
X004813Y003040D03*
X004812Y003040D03*
X004811Y003040D03*
X004810Y003040D03*
X004800Y004184D03*
X004799Y004184D03*
X004798Y004184D03*
X004798Y004184D03*
D306*
X004797Y004185D03*
X004796Y004185D03*
X004795Y004185D03*
X004794Y004185D03*
X004808Y003040D03*
X004809Y003040D03*
X004810Y003040D03*
D307*
X004807Y003040D03*
X004806Y003040D03*
X004806Y003040D03*
X004794Y004185D03*
X004793Y004185D03*
X004792Y004185D03*
X004791Y004185D03*
D308*
X004790Y004186D03*
X004790Y004186D03*
X004789Y004186D03*
X004788Y004186D03*
X004802Y003039D03*
X004803Y003039D03*
X004804Y003039D03*
X004805Y003039D03*
D309*
X004802Y003039D03*
X004801Y003039D03*
X004800Y003039D03*
X004787Y004186D03*
X004786Y004186D03*
X004786Y004186D03*
X004785Y004186D03*
D310*
X004784Y004186D03*
X004783Y004186D03*
X004797Y003038D03*
X004798Y003038D03*
X004798Y003038D03*
X004799Y003038D03*
D311*
X004796Y003038D03*
X004795Y003038D03*
X004794Y003038D03*
D312*
X004794Y003038D03*
X004793Y003038D03*
X004792Y003038D03*
X004791Y003038D03*
D313*
X004790Y003037D03*
X004790Y003037D03*
X004789Y003037D03*
D314*
X004788Y003037D03*
X004787Y003037D03*
X004786Y003037D03*
D315*
X004783Y003036D03*
X004784Y003036D03*
X004785Y003036D03*
X004786Y003036D03*
D316*
X004782Y003126D03*
X004782Y003126D03*
X004781Y003126D03*
X004780Y003126D03*
X004779Y003126D03*
X004778Y003126D03*
X004778Y003126D03*
X004777Y003126D03*
X004776Y003126D03*
X004775Y003126D03*
X004774Y003126D03*
X004774Y003126D03*
X004773Y003126D03*
X004772Y003126D03*
X004771Y003126D03*
X004770Y003126D03*
X004770Y003126D03*
X004769Y003126D03*
X004768Y003126D03*
X004767Y003126D03*
X004766Y003126D03*
X004766Y003126D03*
X004765Y003126D03*
X004764Y003126D03*
X004763Y003126D03*
X004762Y003126D03*
X004762Y003126D03*
X004761Y003126D03*
X004760Y003126D03*
X004759Y003126D03*
X004758Y003126D03*
X004758Y003126D03*
X004757Y003126D03*
X004756Y003126D03*
X004755Y003126D03*
X004754Y003126D03*
X004754Y003126D03*
X004753Y003126D03*
X004752Y003126D03*
X004751Y003126D03*
X004750Y003126D03*
X004750Y003126D03*
X004749Y003126D03*
X004748Y003126D03*
X004747Y003126D03*
X004746Y003126D03*
X004746Y003126D03*
X004745Y003126D03*
X004744Y003126D03*
X004743Y003126D03*
X004742Y003126D03*
X004742Y003126D03*
X004742Y004099D03*
X004742Y004099D03*
X004743Y004099D03*
X004744Y004099D03*
X004745Y004099D03*
X004746Y004099D03*
X004746Y004099D03*
X004747Y004099D03*
X004748Y004099D03*
X004749Y004099D03*
X004750Y004099D03*
X004750Y004099D03*
X004751Y004099D03*
X004752Y004099D03*
X004753Y004099D03*
X004754Y004099D03*
X004754Y004099D03*
X004755Y004099D03*
X004756Y004099D03*
X004757Y004099D03*
X004758Y004099D03*
X004758Y004099D03*
X004759Y004099D03*
X004760Y004099D03*
X004761Y004099D03*
X004762Y004099D03*
X004762Y004099D03*
X004763Y004099D03*
X004764Y004099D03*
X004765Y004099D03*
X004766Y004099D03*
X004766Y004099D03*
X004767Y004099D03*
X004768Y004099D03*
X004769Y004099D03*
X004770Y004099D03*
X004770Y004099D03*
X004771Y004099D03*
X004772Y004099D03*
X004773Y004099D03*
X004774Y004099D03*
X004774Y004099D03*
X004775Y004099D03*
X004776Y004099D03*
X004777Y004099D03*
X004778Y004099D03*
X004778Y004099D03*
X004779Y004099D03*
X004780Y004099D03*
X004781Y004099D03*
X004782Y004099D03*
X004782Y004099D03*
D317*
X004741Y003612D03*
X004740Y003612D03*
X004739Y003612D03*
X004738Y003612D03*
X004738Y003612D03*
X004737Y003612D03*
X004736Y003612D03*
X004735Y003612D03*
X004734Y003612D03*
X004734Y003612D03*
X004733Y003612D03*
X004732Y003612D03*
X004731Y003612D03*
X004730Y003612D03*
X004730Y003612D03*
X004729Y003612D03*
X004728Y003612D03*
X004727Y003612D03*
X004726Y003612D03*
X004726Y003612D03*
X004725Y003612D03*
X004724Y003612D03*
X004723Y003612D03*
X004722Y003612D03*
X004722Y003612D03*
X004721Y003612D03*
X004720Y003612D03*
X004719Y003612D03*
X004718Y003612D03*
X004718Y003612D03*
X004717Y003612D03*
X004716Y003612D03*
X004715Y003612D03*
X004714Y003612D03*
X004714Y003612D03*
X004713Y003612D03*
X004712Y003612D03*
X004711Y003612D03*
X004710Y003612D03*
X004710Y003612D03*
X004709Y003612D03*
X004502Y003612D03*
X004502Y003612D03*
X004501Y003612D03*
X004500Y003612D03*
X004499Y003612D03*
X004498Y003612D03*
X004498Y003612D03*
X004497Y003612D03*
X004496Y003612D03*
X004495Y003612D03*
X004494Y003612D03*
X004494Y003612D03*
X004493Y003612D03*
X004492Y003612D03*
X004491Y003612D03*
X004490Y003612D03*
X004490Y003612D03*
X004489Y003612D03*
X004488Y003612D03*
X004487Y003612D03*
X004486Y003612D03*
X004486Y003612D03*
X004485Y003612D03*
X004484Y003612D03*
X004483Y003612D03*
X004482Y003612D03*
X004482Y003612D03*
X004481Y003612D03*
X004480Y003612D03*
X004479Y003612D03*
X004478Y003612D03*
X004478Y003612D03*
X004477Y003612D03*
X004476Y003612D03*
X004475Y003612D03*
X004474Y003612D03*
X004474Y003612D03*
X004473Y003612D03*
X004472Y003612D03*
X004471Y003612D03*
X004470Y003612D03*
X004470Y003612D03*
X004469Y003612D03*
X004468Y003612D03*
X004467Y003612D03*
X004466Y003612D03*
X004466Y003612D03*
X004465Y003612D03*
X004464Y003612D03*
X004463Y003612D03*
X004462Y003612D03*
X004462Y003612D03*
X004461Y003612D03*
X004460Y003612D03*
X004459Y003612D03*
X004458Y003612D03*
X004458Y003612D03*
X004457Y003612D03*
X004456Y003612D03*
X004455Y003612D03*
X004454Y003612D03*
X004454Y003612D03*
X004453Y003612D03*
X004452Y003612D03*
X004451Y003612D03*
X004450Y003612D03*
X004450Y003612D03*
X004449Y003612D03*
X004448Y003612D03*
X004447Y003612D03*
X004446Y003612D03*
X004446Y003612D03*
X004445Y003612D03*
D318*
X004503Y003175D03*
X004504Y003175D03*
X004505Y003175D03*
X004506Y003175D03*
X004506Y003175D03*
X004507Y003175D03*
X004508Y003175D03*
X004509Y003175D03*
X004510Y003175D03*
X004510Y003175D03*
X004511Y003175D03*
X004512Y003175D03*
X004513Y003175D03*
X004514Y003175D03*
X004514Y003175D03*
X004515Y003175D03*
X004516Y003175D03*
X004517Y003175D03*
X004518Y003175D03*
X004518Y003175D03*
X004519Y003175D03*
X004520Y003175D03*
X004521Y003175D03*
X004522Y003175D03*
X004522Y003175D03*
X004523Y003175D03*
X004524Y003175D03*
X004525Y003175D03*
X004526Y003175D03*
X004526Y003175D03*
X004527Y003175D03*
X004528Y003175D03*
X004529Y003175D03*
X004530Y003175D03*
X004530Y003175D03*
X004531Y003175D03*
X004532Y003175D03*
X004533Y003175D03*
X004534Y003175D03*
X004534Y003175D03*
X004535Y003175D03*
X004536Y003175D03*
X004537Y003175D03*
X004538Y003175D03*
X004538Y003175D03*
X004539Y003175D03*
X004540Y003175D03*
X004541Y003175D03*
X004542Y003175D03*
X004542Y003175D03*
X004543Y003175D03*
X004544Y003175D03*
X004545Y003175D03*
X004546Y003175D03*
X004546Y003175D03*
X004547Y003175D03*
X004548Y003175D03*
X004549Y003175D03*
X004550Y003175D03*
X004550Y003175D03*
X004551Y003175D03*
X004552Y003175D03*
X004553Y003175D03*
X004554Y003175D03*
X004554Y003175D03*
X004555Y003175D03*
X004556Y003175D03*
X004557Y003175D03*
X004558Y003175D03*
X004558Y003175D03*
X004559Y003175D03*
X004560Y003175D03*
X004561Y003175D03*
X004562Y003175D03*
X004562Y003175D03*
X004563Y003175D03*
X004564Y003175D03*
X004565Y003175D03*
X004566Y003175D03*
X004566Y003175D03*
X004567Y003175D03*
X004568Y003175D03*
X004569Y003175D03*
X004570Y003175D03*
X004570Y003175D03*
X004571Y003175D03*
X004572Y003175D03*
X004573Y003175D03*
X004574Y003175D03*
X004574Y003175D03*
X004575Y003175D03*
X004576Y003175D03*
X004577Y003175D03*
X004578Y003175D03*
X004578Y003175D03*
X004579Y003175D03*
X004580Y003175D03*
X004581Y003175D03*
X004582Y003175D03*
X004582Y003175D03*
X004583Y003175D03*
X004584Y003175D03*
X004585Y003175D03*
X004586Y003175D03*
X004586Y003175D03*
X004587Y003175D03*
X004588Y003175D03*
X004589Y003175D03*
X004590Y003175D03*
X004590Y003175D03*
X004591Y003175D03*
X004592Y003175D03*
X004593Y003175D03*
X004594Y003175D03*
X004594Y003175D03*
X004595Y003175D03*
X004596Y003175D03*
X004597Y003175D03*
X004598Y003175D03*
X004598Y003175D03*
X004599Y003175D03*
X004600Y003175D03*
X004601Y003175D03*
X004602Y003175D03*
X004602Y003175D03*
X004603Y003175D03*
X004604Y003175D03*
X004605Y003175D03*
X004606Y003175D03*
X004606Y003175D03*
X004607Y003175D03*
X004608Y003175D03*
X004609Y003175D03*
X004610Y003175D03*
X004610Y003175D03*
X004611Y003175D03*
X004612Y003175D03*
X004613Y003175D03*
X004614Y003175D03*
X004614Y003175D03*
X004615Y003175D03*
X004616Y003175D03*
X004617Y003175D03*
X004618Y003175D03*
X004618Y003175D03*
X004619Y003175D03*
X004620Y003175D03*
X004621Y003175D03*
X004622Y003175D03*
X004622Y003175D03*
X004623Y003175D03*
X004624Y003175D03*
X004625Y003175D03*
X004626Y003175D03*
X004626Y003175D03*
X004627Y003175D03*
X004628Y003175D03*
X004629Y003175D03*
X004630Y003175D03*
X004630Y003175D03*
X004631Y003175D03*
X004632Y003175D03*
X004633Y003175D03*
X004634Y003175D03*
X004634Y003175D03*
X004635Y003175D03*
X004636Y003175D03*
X004637Y003175D03*
X004638Y003175D03*
X004638Y003175D03*
X004639Y003175D03*
X004640Y003175D03*
X004641Y003175D03*
X004642Y003175D03*
X004642Y003175D03*
X004643Y003175D03*
X004644Y003175D03*
X004645Y003175D03*
X004646Y003175D03*
X004646Y003175D03*
X004647Y003175D03*
X004648Y003175D03*
X004649Y003175D03*
X004650Y003175D03*
X004650Y003175D03*
X004651Y003175D03*
X004652Y003175D03*
X004653Y003175D03*
X004654Y003175D03*
X004654Y003175D03*
X004655Y003175D03*
X004656Y003175D03*
X004657Y003175D03*
X004658Y003175D03*
X004658Y003175D03*
X004659Y003175D03*
X004660Y003175D03*
X004661Y003175D03*
X004662Y003175D03*
X004662Y003175D03*
X004663Y003175D03*
X004664Y003175D03*
X004665Y003175D03*
X004666Y003175D03*
X004666Y003175D03*
X004667Y003175D03*
X004668Y003175D03*
X004669Y003175D03*
X004670Y003175D03*
X004670Y003175D03*
X004671Y003175D03*
X004672Y003175D03*
X004673Y003175D03*
X004674Y003175D03*
X004674Y003175D03*
X004675Y003175D03*
X004676Y003175D03*
X004677Y003175D03*
X004678Y003175D03*
X004678Y003175D03*
X004679Y003175D03*
X004680Y003175D03*
X004681Y003175D03*
X004682Y003175D03*
X004682Y003175D03*
X004683Y003175D03*
X004684Y003175D03*
X004685Y003175D03*
X004686Y003175D03*
X004686Y003175D03*
X004687Y003175D03*
X004688Y003175D03*
X004689Y003175D03*
X004690Y003175D03*
X004690Y003175D03*
X004691Y003175D03*
X004692Y003175D03*
X004693Y003175D03*
X004694Y003175D03*
X004694Y003175D03*
X004695Y003175D03*
X004696Y003175D03*
X004697Y003175D03*
X004698Y003175D03*
X004698Y003175D03*
X004699Y003175D03*
X004700Y003175D03*
X004701Y003175D03*
X004702Y003175D03*
X004702Y003175D03*
X004703Y003175D03*
X004704Y003175D03*
X004705Y003175D03*
X004706Y003175D03*
X004706Y003175D03*
X004707Y003175D03*
X004708Y003175D03*
D319*
X004707Y004062D03*
X004706Y004062D03*
X004706Y004062D03*
X004705Y004062D03*
X004704Y004062D03*
X004703Y004062D03*
X004702Y004062D03*
X004702Y004062D03*
X004701Y004062D03*
X004700Y004062D03*
X004699Y004062D03*
X004698Y004062D03*
X004698Y004062D03*
X004697Y004062D03*
X004696Y004062D03*
X004695Y004062D03*
X004694Y004062D03*
X004694Y004062D03*
X004693Y004062D03*
X004692Y004062D03*
X004691Y004062D03*
X004690Y004062D03*
X004690Y004062D03*
X004689Y004062D03*
X004688Y004062D03*
X004687Y004062D03*
X004686Y004062D03*
X004686Y004062D03*
X004685Y004062D03*
X004684Y004062D03*
X004683Y004062D03*
X004682Y004062D03*
X004682Y004062D03*
X004681Y004062D03*
X004680Y004062D03*
X004679Y004062D03*
X004678Y004062D03*
X004678Y004062D03*
X004677Y004062D03*
X004676Y004062D03*
X004675Y004062D03*
X004674Y004062D03*
X004674Y004062D03*
X004673Y004062D03*
X004672Y004062D03*
X004671Y004062D03*
X004670Y004062D03*
X004670Y004062D03*
X004669Y004062D03*
X004668Y004062D03*
X004667Y004062D03*
X004666Y004062D03*
X004666Y004062D03*
X004665Y004062D03*
X004664Y004062D03*
X004663Y004062D03*
X004662Y004062D03*
X004662Y004062D03*
X004661Y004062D03*
X004660Y004062D03*
X004659Y004062D03*
X004658Y004062D03*
X004658Y004062D03*
X004657Y004062D03*
X004656Y004062D03*
X004655Y004062D03*
X004654Y004062D03*
X004654Y004062D03*
X004653Y004062D03*
X004652Y004062D03*
X004651Y004062D03*
X004650Y004062D03*
X004650Y004062D03*
X004649Y004062D03*
X004648Y004062D03*
X004647Y004062D03*
X004646Y004062D03*
X004646Y004062D03*
X004645Y004062D03*
X004644Y004062D03*
X004643Y004062D03*
X004642Y004062D03*
X004642Y004062D03*
X004641Y004062D03*
X004640Y004062D03*
X004639Y004062D03*
X004638Y004062D03*
X004638Y004062D03*
X004637Y004062D03*
X004636Y004062D03*
X004635Y004062D03*
X004634Y004062D03*
X004634Y004062D03*
X004633Y004062D03*
X004632Y004062D03*
X004631Y004062D03*
X004630Y004062D03*
X004630Y004062D03*
X004629Y004062D03*
X004628Y004062D03*
X004627Y004062D03*
X004626Y004062D03*
X004626Y004062D03*
X004625Y004062D03*
X004624Y004062D03*
X004623Y004062D03*
X004622Y004062D03*
X004622Y004062D03*
X004621Y004062D03*
X004620Y004062D03*
X004619Y004062D03*
X004618Y004062D03*
X004618Y004062D03*
X004617Y004062D03*
X004616Y004062D03*
X004615Y004062D03*
X004614Y004062D03*
X004614Y004062D03*
X004613Y004062D03*
X004612Y004062D03*
X004611Y004062D03*
X004610Y004062D03*
X004610Y004062D03*
X004609Y004062D03*
X004608Y004062D03*
X004607Y004062D03*
X004606Y004062D03*
X004606Y004062D03*
X004605Y004062D03*
X004604Y004062D03*
X004603Y004062D03*
X004602Y004062D03*
X004602Y004062D03*
X004601Y004062D03*
X004600Y004062D03*
X004599Y004062D03*
X004598Y004062D03*
X004598Y004062D03*
X004597Y004062D03*
X004596Y004062D03*
X004595Y004062D03*
X004594Y004062D03*
X004594Y004062D03*
X004593Y004062D03*
X004592Y004062D03*
X004591Y004062D03*
X004590Y004062D03*
X004590Y004062D03*
X004589Y004062D03*
X004588Y004062D03*
X004587Y004062D03*
X004586Y004062D03*
X004586Y004062D03*
X004585Y004062D03*
X004584Y004062D03*
X004583Y004062D03*
X004582Y004062D03*
X004582Y004062D03*
X004581Y004062D03*
X004580Y004062D03*
X004579Y004062D03*
X004578Y004062D03*
X004578Y004062D03*
X004577Y004062D03*
X004576Y004062D03*
X004575Y004062D03*
X004574Y004062D03*
X004574Y004062D03*
X004573Y004062D03*
X004572Y004062D03*
X004571Y004062D03*
X004570Y004062D03*
X004570Y004062D03*
X004569Y004062D03*
X004568Y004062D03*
X004567Y004062D03*
X004566Y004062D03*
X004566Y004062D03*
X004565Y004062D03*
X004564Y004062D03*
X004563Y004062D03*
X004562Y004062D03*
X004562Y004062D03*
X004561Y004062D03*
X004560Y004062D03*
X004559Y004062D03*
X004558Y004062D03*
X004558Y004062D03*
X004557Y004062D03*
X004556Y004062D03*
X004555Y004062D03*
X004554Y004062D03*
X004554Y004062D03*
X004553Y004062D03*
X004552Y004062D03*
X004551Y004062D03*
X004550Y004062D03*
X004550Y004062D03*
X004549Y004062D03*
X004548Y004062D03*
X004547Y004062D03*
X004546Y004062D03*
X004546Y004062D03*
X004545Y004062D03*
X004544Y004062D03*
X004543Y004062D03*
X004542Y004062D03*
X004542Y004062D03*
X004541Y004062D03*
X004540Y004062D03*
X004539Y004062D03*
X004538Y004062D03*
X004538Y004062D03*
X004537Y004062D03*
X004536Y004062D03*
X004535Y004062D03*
X004534Y004062D03*
X004534Y004062D03*
X004533Y004062D03*
X004532Y004062D03*
X004531Y004062D03*
X004530Y004062D03*
X004530Y004062D03*
X004529Y004062D03*
X004528Y004062D03*
X004527Y004062D03*
X004526Y004062D03*
X004526Y004062D03*
X004525Y004062D03*
X004524Y004062D03*
X004523Y004062D03*
X004522Y004062D03*
X004522Y004062D03*
X004521Y004062D03*
X004520Y004062D03*
X004519Y004062D03*
X004518Y004062D03*
X004518Y004062D03*
X004517Y004062D03*
X004516Y004062D03*
X004515Y004062D03*
X004514Y004062D03*
X004514Y004062D03*
X004513Y004062D03*
X004512Y004062D03*
X004511Y004062D03*
X004510Y004062D03*
X004510Y004062D03*
X004509Y004062D03*
X004508Y004062D03*
X004507Y004062D03*
X004506Y004062D03*
X004506Y004062D03*
X004505Y004062D03*
X004504Y004062D03*
X004503Y004062D03*
X004708Y004062D03*
D320*
X004444Y003612D03*
X004443Y003612D03*
D321*
X004442Y003612D03*
X004442Y003612D03*
X004441Y003612D03*
X004440Y003612D03*
X004439Y003612D03*
X004438Y003612D03*
X004438Y003612D03*
D322*
X004437Y003613D03*
D323*
X004436Y003612D03*
X004435Y003612D03*
X004434Y003612D03*
X004434Y003612D03*
X004433Y003612D03*
D324*
X004432Y003613D03*
X004431Y003613D03*
D325*
X004430Y003612D03*
X004430Y003612D03*
X004429Y003612D03*
X004428Y003612D03*
D326*
X004427Y003613D03*
X004426Y003613D03*
D327*
X004426Y003612D03*
X004425Y003612D03*
X004424Y003612D03*
D328*
X004423Y003613D03*
X004422Y003613D03*
D329*
X004422Y003612D03*
X004421Y003612D03*
X004420Y003612D03*
D330*
X004419Y003613D03*
X004418Y003613D03*
D331*
X004418Y003612D03*
X004417Y003612D03*
X004416Y003612D03*
D332*
X004415Y003613D03*
D333*
X004414Y003612D03*
X004414Y003612D03*
X004413Y003612D03*
X004412Y003612D03*
D334*
X004411Y003612D03*
X004410Y003612D03*
X004410Y003612D03*
X004409Y003612D03*
D335*
X004408Y003612D03*
X004407Y003612D03*
X004406Y003612D03*
X004406Y003612D03*
D336*
X004405Y003612D03*
X004404Y003612D03*
X004403Y003612D03*
X004402Y003612D03*
D337*
X004402Y003612D03*
X004401Y003612D03*
X004400Y003612D03*
X004399Y003612D03*
D338*
X004398Y003612D03*
X004398Y003612D03*
X004397Y003612D03*
D339*
X004396Y003612D03*
D340*
X004395Y003612D03*
X004394Y003612D03*
D341*
X004394Y003612D03*
D342*
X004393Y003612D03*
X004392Y003612D03*
X004391Y003612D03*
D343*
X004390Y003612D03*
D344*
X004390Y003612D03*
X004389Y003612D03*
D345*
X004388Y003612D03*
D346*
X004387Y003612D03*
X004386Y003612D03*
D347*
X004386Y003612D03*
D348*
X004385Y003612D03*
X004384Y003612D03*
D349*
X004383Y003612D03*
D350*
X004382Y003612D03*
D351*
X004382Y003612D03*
D352*
X004381Y003612D03*
X004380Y003612D03*
D353*
X004379Y003612D03*
D354*
X004378Y003612D03*
X004378Y003612D03*
D355*
X004377Y003612D03*
D356*
X004376Y003612D03*
D357*
X004375Y003612D03*
D358*
X004374Y003612D03*
X004374Y003612D03*
D359*
X004373Y003612D03*
D360*
X004372Y003612D03*
D361*
X004371Y003612D03*
D362*
X004370Y003612D03*
D363*
X004370Y003612D03*
D364*
X004369Y003612D03*
D365*
X004368Y003612D03*
D366*
X004367Y003612D03*
D367*
X004366Y003612D03*
D368*
X004366Y003612D03*
D369*
X004365Y003612D03*
D370*
X004364Y003612D03*
D371*
X004363Y003612D03*
D372*
X004362Y003612D03*
D373*
X004362Y003612D03*
D374*
X004361Y003612D03*
D375*
X004360Y003612D03*
D376*
X004359Y003612D03*
D377*
X004358Y003612D03*
D378*
X004358Y003612D03*
D379*
X004357Y003612D03*
D380*
X004356Y003612D03*
D381*
X004355Y003612D03*
D382*
X004354Y003612D03*
D383*
X004354Y003612D03*
D384*
X004353Y003612D03*
D385*
X004352Y003612D03*
D386*
X004351Y003612D03*
D387*
X004350Y003612D03*
D388*
X004350Y003612D03*
D389*
X004349Y003612D03*
D390*
X004348Y003612D03*
D391*
X004347Y003612D03*
D392*
X004346Y003612D03*
D393*
X004346Y003612D03*
D394*
X004345Y003612D03*
D395*
X004344Y003612D03*
D396*
X004343Y003612D03*
D397*
X004342Y003612D03*
D398*
X004342Y003612D03*
D399*
X004341Y003612D03*
D400*
X004340Y003612D03*
D401*
X004339Y003612D03*
D402*
X004338Y003612D03*
D403*
X004338Y003612D03*
D404*
X004337Y003612D03*
D405*
X004336Y003612D03*
D406*
X004335Y003612D03*
D407*
X004334Y003612D03*
D408*
X004334Y003612D03*
D409*
X004333Y003612D03*
D410*
X004332Y003612D03*
D411*
X004331Y003612D03*
D412*
X004330Y003612D03*
D413*
X004330Y003612D03*
D414*
X004329Y003612D03*
D415*
X004328Y003612D03*
D416*
X004327Y003612D03*
D417*
X004326Y003612D03*
D418*
X004326Y003612D03*
D419*
X004325Y003612D03*
D420*
X004324Y003612D03*
D421*
X004323Y003612D03*
D422*
X004322Y003612D03*
D423*
X004322Y003612D03*
D424*
X004321Y003612D03*
D425*
X004320Y003612D03*
D426*
X004319Y003612D03*
D427*
X004318Y003612D03*
D428*
X004318Y003612D03*
D429*
X004317Y003612D03*
D430*
X004316Y003612D03*
D431*
X004315Y003612D03*
D432*
X004314Y003612D03*
D433*
X004314Y003612D03*
D434*
X004313Y003612D03*
D435*
X004312Y003612D03*
D436*
X004311Y003612D03*
D437*
X004310Y003612D03*
D438*
X004310Y003612D03*
D439*
X004309Y003612D03*
D440*
X004308Y003612D03*
D441*
X004307Y003612D03*
D442*
X004306Y003612D03*
D443*
X004306Y003612D03*
D444*
X004305Y003612D03*
D445*
X004304Y003612D03*
D446*
X004303Y003612D03*
D447*
X004302Y003612D03*
D448*
X004302Y003612D03*
D449*
X004301Y003612D03*
D450*
X004300Y003612D03*
D451*
X004299Y003612D03*
D452*
X004298Y003612D03*
D453*
X004298Y003612D03*
D454*
X004297Y003612D03*
D455*
X004296Y003612D03*
D456*
X004295Y003612D03*
D457*
X004294Y003612D03*
D458*
X004294Y003612D03*
D459*
X004293Y003612D03*
D460*
X004292Y003612D03*
D461*
X004291Y003612D03*
D462*
X004290Y003612D03*
D463*
X004290Y003612D03*
D464*
X004289Y003612D03*
D465*
X004288Y003612D03*
D466*
X004287Y003612D03*
D467*
X004286Y003612D03*
D468*
X004286Y003612D03*
D469*
X004285Y003612D03*
D470*
X004284Y003612D03*
D471*
X004283Y003612D03*
D472*
X004282Y003612D03*
D473*
X004282Y003612D03*
D474*
X004281Y003612D03*
D475*
X004280Y003612D03*
D476*
X004279Y003612D03*
D477*
X004278Y003612D03*
D478*
X004278Y003612D03*
D479*
X004277Y003612D03*
D480*
X004276Y003612D03*
D481*
X004275Y003612D03*
D482*
X004274Y003612D03*
D483*
X004274Y003612D03*
D484*
X004273Y003612D03*
D485*
X004272Y003612D03*
D486*
X004271Y003612D03*
D487*
X004270Y003612D03*
D488*
X004270Y003612D03*
D489*
X004269Y003612D03*
D490*
X004268Y003612D03*
D491*
X004267Y003612D03*
D492*
X004266Y003612D03*
D493*
X004266Y003612D03*
D494*
X004265Y003612D03*
D495*
X004264Y003612D03*
D496*
X004263Y003612D03*
D497*
X004262Y003612D03*
D498*
X004262Y003612D03*
D499*
X004261Y003612D03*
D500*
X004260Y003612D03*
D501*
X004259Y003612D03*
D502*
X004258Y003612D03*
D503*
X004258Y003612D03*
D504*
X004257Y003612D03*
D505*
X004256Y003612D03*
D506*
X004255Y003612D03*
D507*
X004254Y003612D03*
D508*
X004254Y003612D03*
D509*
X004253Y003612D03*
D510*
X004252Y003612D03*
D511*
X004251Y003612D03*
D512*
X004250Y003612D03*
D513*
X004250Y003612D03*
D514*
X004249Y003612D03*
D515*
X004248Y003612D03*
D516*
X004247Y003612D03*
D517*
X004246Y003612D03*
D518*
X004246Y003612D03*
D519*
X004245Y003612D03*
D520*
X004244Y003612D03*
D521*
X004243Y003612D03*
D522*
X004242Y003612D03*
D523*
X004242Y003612D03*
D524*
X004241Y003612D03*
D525*
X004240Y003612D03*
D526*
X004239Y003612D03*
D527*
X004238Y003612D03*
D528*
X004238Y003612D03*
D529*
X004237Y003612D03*
D530*
X004236Y003612D03*
D531*
X004235Y003612D03*
D532*
X004234Y003612D03*
D533*
X004234Y003612D03*
D534*
X004233Y003612D03*
D535*
X004232Y003612D03*
D536*
X004231Y003612D03*
D537*
X004230Y003612D03*
D538*
X004230Y003612D03*
D539*
X004229Y003612D03*
D540*
X004228Y003612D03*
D541*
X004227Y003612D03*
D542*
X004226Y003612D03*
D543*
X004226Y003612D03*
D544*
X004225Y003612D03*
D545*
X004224Y003612D03*
D546*
X004223Y003612D03*
D547*
X004222Y003612D03*
D548*
X004222Y003612D03*
D549*
X004221Y003612D03*
D550*
X004220Y003612D03*
D551*
X004219Y003612D03*
D552*
X004218Y003612D03*
D553*
X004218Y003612D03*
D554*
X004217Y003612D03*
D555*
X004216Y003612D03*
D556*
X004215Y003612D03*
D557*
X004214Y003612D03*
D558*
X004214Y003612D03*
D559*
X004213Y003612D03*
D560*
X004212Y003612D03*
D561*
X004211Y003612D03*
D562*
X004210Y003612D03*
D563*
X004210Y003612D03*
D564*
X004209Y003612D03*
D565*
X004208Y003612D03*
D566*
X004207Y003612D03*
D567*
X004206Y003612D03*
D568*
X004206Y003612D03*
D569*
X004205Y003612D03*
D570*
X004204Y003612D03*
D571*
X004203Y003612D03*
D572*
X004202Y003612D03*
D573*
X004202Y003612D03*
D574*
X004201Y003612D03*
D575*
X004200Y003612D03*
D576*
X004199Y003612D03*
D577*
X004198Y003612D03*
D578*
X004198Y003612D03*
D579*
X004197Y003612D03*
D580*
X004196Y003612D03*
D581*
X004195Y003612D03*
D582*
X004194Y003612D03*
D583*
X004194Y003612D03*
D584*
X004193Y003612D03*
D585*
X004192Y003612D03*
D586*
X004191Y003612D03*
D587*
X004190Y003612D03*
D588*
X004190Y003612D03*
D589*
X004189Y003612D03*
D590*
X004188Y003612D03*
D591*
X004187Y003612D03*
D592*
X004186Y003612D03*
D593*
X004186Y003612D03*
D594*
X004185Y003612D03*
D595*
X004184Y003612D03*
D596*
X004183Y003612D03*
D597*
X004182Y003612D03*
D598*
X004182Y003612D03*
D599*
X004181Y003612D03*
D600*
X004180Y003612D03*
D601*
X004179Y003612D03*
D602*
X004178Y003612D03*
D603*
X004178Y003612D03*
D604*
X004177Y003612D03*
D605*
X004176Y003612D03*
D606*
X004175Y003612D03*
D607*
X004174Y003612D03*
D608*
X004174Y003612D03*
D609*
X004173Y003612D03*
D610*
X004172Y003612D03*
D611*
X004171Y003612D03*
D612*
X004170Y003612D03*
D613*
X004170Y003612D03*
D614*
X004169Y003612D03*
D615*
X004168Y003612D03*
D616*
X004167Y003612D03*
D617*
X004166Y003612D03*
D618*
X004166Y003612D03*
D619*
X004165Y003612D03*
D620*
X004164Y003612D03*
D621*
X004163Y003612D03*
D622*
X004162Y003612D03*
D623*
X004162Y003612D03*
D624*
X004161Y003612D03*
D625*
X004160Y003612D03*
D626*
X004159Y003612D03*
D627*
X004158Y003612D03*
D628*
X004158Y003612D03*
D629*
X004157Y003612D03*
D630*
X004156Y003612D03*
D631*
X004155Y003612D03*
D632*
X004154Y003612D03*
D633*
X004154Y003612D03*
D634*
X004153Y003612D03*
D635*
X004152Y003612D03*
D636*
X004151Y003612D03*
D637*
X004150Y003612D03*
D638*
X004150Y003612D03*
D639*
X004149Y003612D03*
D640*
X004148Y003612D03*
D641*
X004147Y003612D03*
D642*
X004146Y003612D03*
D643*
X004146Y003612D03*
D644*
X004145Y003612D03*
D645*
X004144Y003612D03*
D646*
X004143Y003612D03*
D647*
X004142Y003611D03*
D648*
X004142Y003611D03*
D649*
X004141Y003611D03*
D650*
X004140Y003611D03*
D651*
X005824Y002775D02*
X005826Y002775D01*
X005826Y002776D01*
X005825Y002776D01*
X005825Y002775D01*
X005825Y002775D01*
X005826Y002774D02*
X005825Y002774D01*
X005826Y002774D01*
X005826Y002774D01*
X005826Y002774D01*
X005826Y002775D02*
X005826Y002775D01*
X005826Y002774D02*
X005826Y002773D01*
X005826Y002773D01*
X005825Y002773D01*
X005826Y002773D01*
X005826Y002772D01*
X005826Y002772D01*
X005825Y002772D01*
X005825Y002773D01*
X005825Y002772D02*
X005825Y002772D01*
X005825Y002771D02*
X005825Y002771D01*
X005825Y002771D01*
X005825Y002771D01*
X005825Y002771D01*
X005825Y002770D02*
X005826Y002770D01*
X005826Y002770D01*
X005826Y002770D01*
X005826Y002769D01*
X005826Y002768D01*
X005826Y002768D01*
X005825Y002768D01*
X005825Y002768D01*
X005825Y002769D01*
X005825Y002770D01*
X005825Y002770D01*
X005825Y002770D01*
X005826Y002769D02*
X005825Y002769D01*
X005826Y002769D01*
X005825Y002769D02*
X005824Y002769D01*
X005824Y002768D01*
X005825Y002767D02*
X005825Y002767D01*
X005825Y002767D01*
X005825Y002766D01*
X005825Y002765D01*
X005825Y002764D01*
X005825Y002763D01*
X005826Y002763D01*
X005826Y002763D01*
X005827Y002763D01*
X005826Y002762D02*
X005826Y002763D01*
X005825Y002763D01*
X005825Y002762D01*
X005825Y002762D01*
X005825Y002763D01*
X005826Y002762D02*
X005826Y002762D01*
X005825Y002762D02*
X005825Y002762D01*
X005826Y002761D02*
X005825Y002760D01*
X005826Y002760D01*
X005826Y002759D01*
X005826Y002759D01*
X005826Y002759D01*
X005825Y002759D01*
X005825Y002759D01*
X005825Y002759D01*
X005825Y002760D01*
X005825Y002758D02*
X005825Y002757D01*
X005825Y002757D01*
X005826Y002757D01*
X005826Y002756D01*
X005826Y002756D01*
X005825Y002756D01*
X005825Y002756D01*
X005825Y002756D01*
X005825Y002757D01*
X005825Y002756D01*
X005825Y002755D02*
X005825Y002755D01*
X005826Y002755D01*
X005826Y002755D01*
X005827Y002755D01*
X005826Y002754D02*
X005825Y002753D01*
X005826Y002753D02*
X005825Y002754D01*
X005826Y002753D02*
X005825Y002752D01*
X005825Y002751D02*
X005825Y002750D01*
X005826Y002750D01*
X005825Y002750D01*
X005825Y002750D01*
X005825Y002751D01*
X005826Y002751D01*
X005826Y002751D01*
X005826Y002750D01*
X005826Y002750D01*
X005826Y002750D01*
X005826Y002749D01*
X005826Y002749D01*
X005826Y002749D01*
X005825Y002749D01*
X005826Y002749D01*
X005826Y002748D02*
X005826Y002748D01*
X005826Y002748D01*
X005826Y002747D01*
X005826Y002747D01*
X005826Y002746D01*
X005826Y002746D01*
X005825Y002746D01*
X005826Y002747D02*
X005825Y002747D01*
X005825Y002748D01*
X005825Y002748D01*
X005825Y002748D01*
X005826Y002748D01*
X005826Y002747D02*
X005825Y002747D01*
X005826Y002745D02*
X005825Y002744D01*
X005826Y002757D02*
X005826Y002757D01*
X005826Y002758D01*
X005826Y002765D02*
X005826Y002766D01*
X005825Y002766D01*
X005826Y002766D01*
X005826Y002767D01*
X005826Y002767D01*
X005826Y002767D01*
X005825Y002767D01*
D652*
X007878Y002434D02*
X007878Y001961D01*
X008508Y001961D01*
X008429Y002434D02*
X007878Y002434D01*
X008429Y002434D02*
X008429Y004166D01*
X007878Y004166D01*
X007878Y004639D01*
X008508Y004639D01*
X009571Y004639D02*
X009571Y001961D01*
X008081Y005328D02*
X007294Y005328D01*
X008081Y005328D02*
X008081Y006272D01*
X007294Y006272D01*
X006506Y006272D02*
X005876Y006272D01*
X005719Y006115D01*
X005719Y005485D01*
X005876Y005328D01*
X006506Y005328D01*
D653*
X007382Y005036D02*
X007618Y005036D01*
X007618Y004564D02*
X007382Y004564D01*
X007436Y003718D02*
X007436Y003482D01*
X006964Y003482D02*
X006964Y003718D01*
X005118Y002236D02*
X004882Y002236D01*
X004882Y001764D02*
X005118Y001764D01*
D654*
X006750Y005400D02*
X006750Y006200D01*
M02*
